<?xml version="1.0" encoding="utf-8"?>
<!-- Generator: Adobe Illustrator 18.0.0, SVG Export Plug-In . SVG Version: 6.00 Build 0)  -->
<!DOCTYPE svg PUBLIC "-//W3C//DTD SVG 1.1//EN" "http://www.w3.org/Graphics/SVG/1.1/DTD/svg11.dtd">
<svg version="1.1" id="Layer_1" xmlns="http://www.w3.org/2000/svg" xmlns:xlink="http://www.w3.org/1999/xlink" x="0px" y="0px"
	 viewBox="0 0 42 42" enable-background="new 0 0 42 42" xml:space="preserve">
<g>
	<path fill="none" d="M16.2,13.5c0,0.5,0.1,0.8,0.8,0.8c0.5,0,1-0.2,1.4-0.4v-1H17C16.4,12.8,16.2,13,16.2,13.5z"/>
	<path fill="none" d="M21.1,11.2v2.2c0,0.5,0.2,0.8,0.8,0.8c0.5,0,1.1-0.3,1.5-0.6v-3.1c-0.5-0.1-1.1-0.2-1.5-0.2
		C21.4,10.3,21.1,10.6,21.1,11.2z"/>
	<path fill="none" d="M10.9,11.4c0-0.7-0.3-1.2-1.1-1.2s-1.2,0.4-1.2,1.2v0.4h2.3V11.4z"/>
	<path fill="none" d="M26.3,13.5c0,0.5,0.1,0.8,0.8,0.8c0.5,0,1-0.2,1.4-0.4v-1h-1.4C26.5,12.8,26.3,13,26.3,13.5z"/>
	<path fill="none" d="M34.7,13.5c0,0.5,0.1,0.8,0.8,0.8c0.5,0,1-0.2,1.4-0.4v-1h-1.4C34.9,12.8,34.7,13,34.7,13.5z"/>
	<polygon fill="#FFEBCD" points="26.1,27.8 31.5,30.5 36.8,27.8 34.1,26.6 34.4,25.8 34.1,25.7 31.4,28.5 28.7,25.8 28.3,25.9 
		28.7,26.7 	"/>
	<polygon fill="#FFEBCD" points="31.6,31.8 31.6,38.1 37.5,35.1 37.5,31.8 33.1,34.2 	"/>
	<polygon fill="#FFEBCD" points="37.8,28.3 32.2,31.2 33.4,33 38.9,29.9 	"/>
	<polygon fill="#FFEBCD" points="30.7,31.2 25.1,28.3 23.7,30.1 29.3,33 	"/>
	<polygon fill="#FFEBCD" points="38.4,35.7 31.5,39.2 24.5,35.7 24.5,31.6 24.5,31.6 24.5,35.7 31.5,39.2 38.5,35.7 38.5,31.3 
		38.4,31.3 	"/>
	<polygon fill="#FFEBCD" points="25.4,32.1 25.4,35.1 31.1,38 31.1,32.1 29.6,34.2 	"/>
	<path fill="#3D6480" d="M38.4,27.4l-4-1.7l0,0.1l-0.3,0.8l2.7,1.1l-5.3,2.7l-5.4-2.7l2.6-1.1l-0.3-0.8l0-0.1l-3.8,1.6l-2.2,3
		l2.2,1.1l0,0v4.1l7,3.5l7-3.5v-4.4l0,0l1.8-1L38.4,27.4z M23.7,30.1l1.4-1.8l5.6,2.8L29.3,33L23.7,30.1z M31.1,38l-5.7-2.9v-3
		l4.1,2.2l1.5-2.1V38z M37.5,35.1l-5.9,3v-6.3l1.6,2.4l4.3-2.4V35.1z M33.4,33l-1.2-1.8l5.6-2.9l1.1,1.7L33.4,33z"/>
	<path fill="#0CB20F" d="M34.1,25.7L34.1,25.7l-0.6-0.8l-1.6,1.6v-1.7c0-2.8-1.2-4.1-3.9-4.1v1c2.2,0,2.9,0.8,2.9,3v1.7l-1.7-1.7
		l-0.7,0.7l0.2,0.2l2.7,2.7L34.1,25.7z"/>
	<polygon fill="#3D6480" points="5.1,15 6,15 6,8.5 8.2,8.5 8.2,7.6 2.9,7.6 2.9,8.5 5.1,8.5 	"/>
	<path fill="#3D6480" d="M11.7,14.8L11.6,14c-0.6,0.2-1.2,0.3-1.7,0.3c-1,0-1.3-0.3-1.3-1.2v-0.5h3.2v-1.1c0-1.1-0.4-2-2-2
		c-1.6,0-2.1,0.9-2.1,2v1.6c0,1.2,0.5,2,2.1,2C10.5,15.1,11.2,14.9,11.7,14.8z M8.6,11.4c0-0.7,0.3-1.2,1.2-1.2s1.1,0.4,1.1,1.2v0.4
		H8.6V11.4z"/>
	<path fill="#3D6480" d="M13.6,11.3c0.4-0.3,1-0.7,1.5-0.9L15,9.5c-0.5,0.2-1.1,0.5-1.5,0.9l-0.1-0.7h-0.8V15h0.9V11.3z"/>
	<path fill="#3D6480" d="M17.3,9.5c-0.6,0-1.3,0.1-1.8,0.2l0.1,0.7c0.4-0.1,1.1-0.2,1.6-0.2c0.9,0,1.2,0.2,1.2,0.9V12h-1.4
		c-1.1,0-1.6,0.4-1.6,1.5c0,0.9,0.4,1.5,1.4,1.5c0.6,0,1.3-0.2,1.7-0.5l0.1,0.4h0.8v-3.7C19.3,10.1,18.8,9.5,17.3,9.5z M18.4,13.8
		c-0.4,0.3-0.9,0.4-1.4,0.4c-0.7,0-0.8-0.2-0.8-0.8c0-0.5,0.2-0.7,0.8-0.7h1.4V13.8z"/>
	<path fill="#3D6480" d="M23.6,15h0.8V7.3l-0.9,0.1v2.2c-0.4-0.1-1.1-0.2-1.5-0.2c-1.3,0-1.7,0.7-1.7,1.7v2.2c0,1.1,0.5,1.6,1.6,1.6
		c0.7,0,1.3-0.2,1.8-0.6L23.6,15z M23.4,13.6c-0.4,0.4-1,0.6-1.5,0.6c-0.6,0-0.8-0.3-0.8-0.8v-2.2c0-0.6,0.3-0.9,0.9-0.9
		c0.4,0,1,0.1,1.5,0.2V13.6z"/>
	<path fill="#3D6480" d="M27,12c-1.1,0-1.6,0.4-1.6,1.5c0,0.9,0.4,1.5,1.4,1.5c0.6,0,1.3-0.2,1.7-0.5l0.1,0.4h0.8v-3.7
		c0-1.1-0.5-1.7-2-1.7c-0.6,0-1.3,0.1-1.8,0.2l0.1,0.7c0.4-0.1,1.1-0.2,1.6-0.2c0.9,0,1.2,0.2,1.2,0.9V12H27z M28.5,13.8
		c-0.4,0.3-0.9,0.4-1.4,0.4c-0.7,0-0.8-0.2-0.8-0.8c0-0.5,0.2-0.7,0.8-0.7h1.4V13.8z"/>
	<path fill="#3D6480" d="M30.8,13.8c0,0.9,0.4,1.2,1.3,1.2c0.4,0,0.8-0.1,1.1-0.2l-0.1-0.7c-0.3,0.1-0.6,0.1-0.9,0.1
		c-0.5,0-0.5-0.2-0.5-0.6v-3.3h1.4l0.1-0.8h-1.5V8.1l-0.9,0.1v1.3h-0.9v0.8h0.9V13.8z"/>
	<path fill="#3D6480" d="M35.4,12c-1.1,0-1.6,0.4-1.6,1.5c0,0.9,0.4,1.5,1.4,1.5c0.6,0,1.3-0.2,1.7-0.5L37,15h0.8v-3.7
		c0-1.1-0.5-1.7-2-1.7c-0.6,0-1.3,0.1-1.8,0.2l0.1,0.7c0.4-0.1,1.1-0.2,1.6-0.2c0.9,0,1.2,0.2,1.2,0.9V12H35.4z M36.8,13.8
		c-0.4,0.3-0.9,0.4-1.4,0.4c-0.7,0-0.8-0.2-0.8-0.8c0-0.5,0.2-0.7,0.8-0.7h1.4V13.8z"/>
</g>
</svg>
