<?xml version="1.0" encoding="utf-8"?>
<!-- Generator: Adobe Illustrator 17.0.0, SVG Export Plug-In . SVG Version: 6.00 Build 0)  -->
<!DOCTYPE svg PUBLIC "-//W3C//DTD SVG 1.1//EN" "http://www.w3.org/Graphics/SVG/1.1/DTD/svg11.dtd">
<svg version="1.1" id="Layer_1" xmlns="http://www.w3.org/2000/svg" xmlns:xlink="http://www.w3.org/1999/xlink" x="0px" y="0px"
	 width="42px" height="42px" viewBox="0 0 42 42" enable-background="new 0 0 42 42" xml:space="preserve">
<g>
	<polygon fill="#3D6480" points="38.608,32.624 38.608,35.706 33.384,30.481 32.04,31.825 37.266,37.051 34.12,37.052 
		34.121,38.952 40.508,38.949 40.508,32.624 	"/>
	<polygon fill="#EFF9FE" points="16.402,9.94 12.163,14.181 28.826,14.181 33.066,9.94 	"/>
	<polygon fill="#EFF9FE" points="33.476,10.661 29.451,14.688 29.451,27.38 33.476,23.355 	"/>
	<polygon fill="#EFF9FE" points="11.511,14.981 11.511,32.038 24.793,32.038 28.651,28.18 28.651,14.981 	"/>
	<path fill="#3D6480" d="M33.476,10.661v12.694l1.7-1.7V8.241H15.698L9.81,14.13v19.607h13.284l1.699-1.699H11.511V14.981h17.141
		V28.18l0.8-0.8V14.688L33.476,10.661z M28.826,14.181H12.163l4.239-4.24h16.663L28.826,14.181z"/>
</g>
</svg>
