<?xml version="1.0" encoding="utf-8"?>
<!-- Generator: Adobe Illustrator 18.0.0, SVG Export Plug-In . SVG Version: 6.00 Build 0)  -->
<!DOCTYPE svg PUBLIC "-//W3C//DTD SVG 1.1//EN" "http://www.w3.org/Graphics/SVG/1.1/DTD/svg11.dtd">
<svg version="1.1" id="Layer_1" xmlns="http://www.w3.org/2000/svg" xmlns:xlink="http://www.w3.org/1999/xlink" x="0px" y="0px"
	 viewBox="0 0 42 42" enable-background="new 0 0 42 42" xml:space="preserve">
<g>
	<g>
		<polygon fill="#3D6480" points="5.1,11.8 11.5,11.8 11.5,5.5 9.6,5.5 9.6,8.6 4.4,3.3 3,4.7 8.3,9.9 5.1,9.9 		"/>
		<polygon fill="#FDE7EA" points="31.9,32.2 31.9,9.9 17.9,9.9 9.6,18.1 9.6,32.2 		"/>
		<polygon fill="#3D6480" points="19.6,8.2 17.9,9.9 31.9,9.9 31.9,32.2 9.6,32.2 9.6,18.1 7.9,19.8 7.9,33.9 33.6,33.9 33.6,8.2 		
			"/>
	</g>
	<g>
		<g>
			<rect x="23.5" y="19" fill="#3D6480" width="4.1" height="1"/>
			<rect x="23.5" y="17" fill="#3D6480" width="6.2" height="1"/>
			<rect x="23.5" y="14.9" fill="#3D6480" width="6.2" height="1"/>
		</g>
		<g id="user_17_">
			<path id="user_18_" fill="#3D6480" d="M25.2,24.7c-0.4-0.2-2.9-1.7-4.2-2.2v-2.3c0.4-0.3,0.6-0.7,0.6-1.3v-1.8
				c0-1.5-0.9-2.7-2.7-2.7s-2.7,1.2-2.7,2.7c0,0,0,0.3,0,1.8c0,0.6,0.2,1.1,0.6,1.3v2.3c-1.2,0.5-3.8,2-4.2,2.2
				c-0.5,0.3-0.6,0.5-0.6,1.2c0,0.3,0,1.4,0,1.4c0,0.2,0.1,0.3,0.3,0.3h13.2c0.2,0,0.3-0.1,0.3-0.3c0,0,0-1.2,0-1.4
				C25.8,25.3,25.6,25,25.2,24.7z"/>
		</g>
	</g>
</g>
</svg>
