<?xml version="1.0" encoding="utf-8"?>
<!-- Generator: Adobe Illustrator 18.0.0, SVG Export Plug-In . SVG Version: 6.00 Build 0)  -->
<!DOCTYPE svg PUBLIC "-//W3C//DTD SVG 1.1//EN" "http://www.w3.org/Graphics/SVG/1.1/DTD/svg11.dtd">
<svg version="1.1" id="Layer_1" xmlns="http://www.w3.org/2000/svg" xmlns:xlink="http://www.w3.org/1999/xlink" x="0px" y="0px"
	 viewBox="0 0 42 42" enable-background="new 0 0 42 42" xml:space="preserve">
<g>
	<g>
		<polygon fill="#EA102A" points="38.9,32.2 37.5,30.9 34.7,33.8 31.8,30.9 30.4,32.2 33.3,35.1 30.4,38 31.8,39.4 34.7,36.5 
			37.5,39.4 38.9,38 36,35.1 		"/>
		<polygon fill="#FDE7EA" points="31.9,10.3 9.6,10.3 9.6,32.6 23.7,32.6 31.9,24.3 		"/>
		<polygon fill="#3D6480" points="9.6,10.3 31.9,10.3 31.9,24.3 33.6,22.6 33.6,8.6 7.9,8.6 7.9,34.3 22,34.3 23.7,32.6 9.6,32.6 		
			"/>
	</g>
	<g>
		<g>
			<rect x="23.3" y="19.4" fill="#3D6480" width="4.1" height="1"/>
			<rect x="23.3" y="17.4" fill="#3D6480" width="6.2" height="1"/>
			<rect x="23.3" y="15.3" fill="#3D6480" width="6.2" height="1"/>
		</g>
		<g id="user_19_">
			<path id="user_20_" fill="#3D6480" d="M25,25.2c-0.4-0.2-2.9-1.7-4.2-2.2v-2.3c0.4-0.3,0.6-0.7,0.6-1.3v-1.8
				c0-1.5-0.9-2.7-2.7-2.7S16,16,16,17.5c0,0,0,0.3,0,1.8c0,0.6,0.2,1.1,0.6,1.3v2.3c-1.2,0.5-3.8,2-4.2,2.2
				c-0.5,0.3-0.6,0.5-0.6,1.2c0,0.3,0,1.4,0,1.4c0,0.2,0.1,0.3,0.3,0.3h13.2c0.2,0,0.3-0.1,0.3-0.3c0,0,0-1.2,0-1.4
				C25.6,25.7,25.5,25.4,25,25.2z"/>
		</g>
	</g>
</g>
</svg>
