<?xml version="1.0" encoding="utf-8"?>
<!-- Generator: Adobe Illustrator 18.0.0, SVG Export Plug-In . SVG Version: 6.00 Build 0)  -->
<!DOCTYPE svg PUBLIC "-//W3C//DTD SVG 1.1//EN" "http://www.w3.org/Graphics/SVG/1.1/DTD/svg11.dtd">
<svg version="1.1" id="Layer_1" xmlns="http://www.w3.org/2000/svg" xmlns:xlink="http://www.w3.org/1999/xlink" x="0px" y="0px"
	 viewBox="0 0 42 42" enable-background="new 0 0 42 42" xml:space="preserve">
<g>
	<g>
		<path fill="#0CB20F" d="M22.8,32.4h1.7c0.1,3.7,3.1,6.7,6.9,6.7c1.6,0,3-0.5,4.2-1.4l-1.1-1.5c-0.9,0.7-1.9,1-3.1,1
			c-2.8,0-5-2.2-5.1-4.9H28l-2.6-3.6l-0.3,0.3L22.8,32.4z"/>
		<path fill="#0CB20F" d="M36.9,36.3l2.6-3.7h-1.7c-0.1-3.7-3.1-6.7-6.9-6.7c-1.4,0-2.7,0.4-3.8,1.1l-0.4,0.4l1,1.4
			c0.9-0.7,1.9-1,3.1-1c2.8,0,5,2.2,5.1,4.9h-1.8L36.9,36.3z"/>
		<polygon fill="#FDE7EA" points="32.2,22.1 32.2,10.1 9.9,10.1 9.9,32.4 21.8,32.4 25.1,29.1 25.4,28.8 26.9,27.4 27.2,27.1 		"/>
		<polygon fill="#3D6480" points="9.9,10.1 32.2,10.1 32.2,22.1 33.9,20.4 33.9,8.4 8.2,8.4 8.2,34.1 20.1,34.1 21.8,32.4 9.9,32.4 
					"/>
	</g>
	<g>
		<g>
			<rect x="23.7" y="19.3" fill="#3D6480" width="4.1" height="1"/>
			<rect x="23.7" y="17.2" fill="#3D6480" width="6.2" height="1"/>
			<rect x="23.7" y="15.2" fill="#3D6480" width="6.2" height="1"/>
		</g>
		<g id="user_15_">
			<path id="user_16_" fill="#3D6480" d="M25.4,25c-0.4-0.2-2.9-1.7-4.2-2.2v-2.3c0.4-0.3,0.6-0.7,0.6-1.3v-1.8
				c0-1.5-0.9-2.7-2.7-2.7s-2.7,1.2-2.7,2.7c0,0,0,0.3,0,1.8c0,0.6,0.2,1.1,0.6,1.3v2.3c-1.2,0.5-3.8,2-4.2,2.2
				c-0.5,0.3-0.6,0.5-0.6,1.2c0,0.3,0,1.4,0,1.4c0,0.2,0.1,0.3,0.3,0.3h13.2c0.2,0,0.3-0.1,0.3-0.3c0,0,0-1.2,0-1.4
				C26,25.5,25.9,25.3,25.4,25z"/>
		</g>
	</g>
</g>
</svg>
