<?xml version="1.0" encoding="utf-8"?>
<!-- Generator: Adobe Illustrator 20.1.0, SVG Export Plug-In . SVG Version: 6.00 Build 0)  -->
<svg version="1.1" id="Layer_1" xmlns="http://www.w3.org/2000/svg" xmlns:xlink="http://www.w3.org/1999/xlink" x="0px" y="0px"
	 width="31px" height="15px" viewBox="0 0 31 15" style="enable-background:new 0 0 31 15;" xml:space="preserve">
<style type="text/css">
	.st0{fill:#666666;}
	.st1{fill:#FFFFFF;}
</style>
<g>
	<path class="st0" d="M7.5,0C5.4,0,3.8,1.7,3.8,3.8C3.8,7,5,9,5.5,9.9c0.6,0.6,1.3,0.9,2,0.9c0.7,0,1.4-0.3,2-0.8
		c0.4-0.8,1.8-2.8,1.8-6.2C11.3,1.7,9.6,0,7.5,0z"/>
	<path class="st0" d="M11.1,10.5c-1,1.1-2.2,1.8-3.6,1.8c-1.4,0-2.6-0.7-3.6-1.8C2.1,11,0,12.1,0,13.8C0,14.3,0,15,0,15h15
		c0,0,0-0.7,0-1.3C15,12.1,12.9,11,11.1,10.5z"/>
</g>
<g>
	<path class="st1" d="M23.5,0c-2.1,0-3.8,1.7-3.8,3.8C19.8,7,21,9,21.5,9.9c0.6,0.6,1.3,0.9,2,0.9c0.7,0,1.4-0.3,2-0.8
		c0.4-0.8,1.8-2.8,1.8-6.2C27.3,1.7,25.6,0,23.5,0z"/>
	<path class="st1" d="M27.1,10.5c-1,1.1-2.2,1.8-3.6,1.8c-1.4,0-2.6-0.7-3.6-1.8C18.1,11,16,12.1,16,13.8c0,0.5,0,1.3,0,1.3h15
		c0,0,0-0.7,0-1.3C31,12.1,28.9,11,27.1,10.5z"/>
</g>
</svg>
