<?xml version="1.0" encoding="utf-8"?>
<!-- Generator: Adobe Illustrator 18.0.0, SVG Export Plug-In . SVG Version: 6.00 Build 0)  -->
<!DOCTYPE svg PUBLIC "-//W3C//DTD SVG 1.1//EN" "http://www.w3.org/Graphics/SVG/1.1/DTD/svg11.dtd">
<svg version="1.1" id="Layer_1" xmlns="http://www.w3.org/2000/svg" xmlns:xlink="http://www.w3.org/1999/xlink" x="0px" y="0px"
	 viewBox="0 0 42 42" enable-background="new 0 0 42 42" xml:space="preserve">
<g>
	<g>
		<polygon fill="#EEF8FD" points="10.1,25.4 20.5,21 20.5,17.3 14.1,14.5 10.1,18.5 		"/>
		<polygon fill="#EEF8FD" points="20.5,30.1 20.5,21.8 10.8,25.9 		"/>
		<polygon fill="#EEF8FD" points="22.3,30 31.8,25.9 22.3,21.9 		"/>
		<polygon fill="#EEF8FD" points="21.8,8.1 21.8,15.4 31,11.5 		"/>
		<polygon fill="#EEF8FD" points="21,15.6 21,8 20.4,8.2 15.5,13.2 		"/>
		<polygon fill="#EEF8FD" points="22.3,21 32.4,25.3 32.4,12.8 22.3,17.1 		"/>
		<path fill="#3D6480" d="M33.2,10.6L33.2,10.6L33.2,10.6L22.1,6.5l-1.7,1.7L21,8v7.5l-5.5-2.4l-1.3,1.3l6.4,2.7V21l-10.4,4.4v-6.8
			l-1.6,1.6v6.5l12.8,5.5L34,26.7V10.9L33.2,10.6z M20.5,30.1l-9.7-4.2l9.7-4.1V30.1z M21.8,8.1l9.2,3.4l-9.2,3.9V8.1z M22.3,30
			v-8.1l9.5,4L22.3,30z M32.4,25.3L22.3,21v-3.9l10.1-4.3V25.3z"/>
	</g>
	<polygon fill="#3D6480" points="5.2,9.9 5.2,11.8 11.6,11.8 11.6,5.5 9.7,5.5 9.7,8.6 4.5,3.3 3.1,4.7 8.3,9.9 	"/>
</g>
</svg>
