<?xml version="1.0" encoding="utf-8"?>
<!-- Generator: Adobe Illustrator 18.0.0, SVG Export Plug-In . SVG Version: 6.00 Build 0)  -->
<!DOCTYPE svg PUBLIC "-//W3C//DTD SVG 1.1//EN" "http://www.w3.org/Graphics/SVG/1.1/DTD/svg11.dtd">
<svg version="1.1" id="Layer_1" xmlns="http://www.w3.org/2000/svg" xmlns:xlink="http://www.w3.org/1999/xlink" x="0px" y="0px"
	 viewBox="0 0 42 42" enable-background="new 0 0 42 42" xml:space="preserve">
<g>
	<g>
		<path fill="none" d="M32.8,11.4H9.6V14h23.2V11.4z M31.5,13.3h-2.4v-1.2h2.4V13.3z"/>
		<path fill="#EFF9FE" d="M32.8,15.2H9.6v15.4h14.8l3.2-3.1h-2.3v-4.1h4.1v2.3l3.4-3.3V15.2z M17.5,27.5h-4.1v-4.1h4.1V27.5z
			 M17.5,21.5h-4.1v-4.1h4.1V21.5z M23.5,27.5h-4.1v-4.1h4.1V27.5z M23.5,21.5h-4.1v-4.1h4.1V21.5z M29.5,21.5h-4.1v-4.1h4.1V21.5z"
			/>
		<path fill="#3D6480" d="M9.6,15.2h23.2v7.2l1.2-1.2V10.2H8.4v21.6h14.8l1.2-1.2H9.6V15.2z M9.6,11.4h23.2V14H9.6V11.4z"/>
		<rect x="29.1" y="12.1" fill="#3D6480" width="2.4" height="1.2"/>
		<rect x="14.2" y="18.2" fill="#FFFFFF" width="2.5" height="2.5"/>
		<path fill="#3D6480" d="M13.4,21.5h4.1v-4.1h-4.1V21.5z M14.2,18.2h2.5v2.5h-2.5V18.2z"/>
		<rect x="20.2" y="18.2" fill="#FFFFFF" width="2.5" height="2.5"/>
		<path fill="#3D6480" d="M19.4,21.5h4.1v-4.1h-4.1V21.5z M20.2,18.2h2.5v2.5h-2.5V18.2z"/>
		<rect x="26.2" y="18.2" fill="#FFFFFF" width="2.5" height="2.5"/>
		<path fill="#3D6480" d="M25.4,21.5h4.1v-4.1h-4.1V21.5z M26.2,18.2h2.5v2.5h-2.5V18.2z"/>
		<rect x="14.2" y="24.2" fill="#FFFFFF" width="2.5" height="2.5"/>
		<path fill="#3D6480" d="M13.4,27.5h4.1v-4.1h-4.1V27.5z M14.2,24.2h2.5v2.5h-2.5V24.2z"/>
		<rect x="20.2" y="24.2" fill="#FFFFFF" width="2.5" height="2.5"/>
		<path fill="#3D6480" d="M19.4,27.5h4.1v-4.1h-4.1V27.5z M20.2,24.2h2.5v2.5h-2.5V24.2z"/>
		<polygon fill="#FFFFFF" points="26.2,24.2 26.2,26.7 28.5,26.7 28.7,26.5 28.7,24.2 		"/>
		<polygon fill="#3D6480" points="25.4,23.4 25.4,27.5 27.6,27.5 28.5,26.7 26.2,26.7 26.2,24.2 28.7,24.2 28.7,26.5 29.5,25.7 
			29.5,23.4 		"/>
		<polygon fill="#3D6480" points="37.1,32.6 37.1,35.7 31.9,30.5 30.5,31.8 35.8,37.1 32.6,37.1 32.6,39 39,39 39,32.6 		"/>
	</g>
</g>
</svg>
