<?xml version="1.0" encoding="utf-8"?>
<!-- Generator: Adobe Illustrator 18.0.0, SVG Export Plug-In . SVG Version: 6.00 Build 0)  -->
<!DOCTYPE svg PUBLIC "-//W3C//DTD SVG 1.1//EN" "http://www.w3.org/Graphics/SVG/1.1/DTD/svg11.dtd">
<svg version="1.1" id="Layer_1" xmlns="http://www.w3.org/2000/svg" xmlns:xlink="http://www.w3.org/1999/xlink" x="0px" y="0px"
	 viewBox="0 0 42 42" enable-background="new 0 0 42 42" xml:space="preserve">
<g>
	<g>
		<path fill="#EFF9FE" d="M13,11.3c0.1-0.5,2.9-1.5,7.9-1.5c5,0,7.9,1,8,1.5v0.8c-1,0.7-3.9,1.3-7.9,1.3c-4.1,0-7-0.6-8.1-1.3V11.3z
			"/>
		<path fill="#EFF9FE" d="M27,19c0.9-0.2,1.6-0.5,2-0.8V13c-2.2,1.1-6.7,1.2-7.9,1.2c-2.3,0-4.6-0.2-6.2-0.6
			c-0.8-0.2-1.4-0.4-1.8-0.6v5.2c1.1,0.7,3.9,1.3,8,1.3C23.4,19.5,25.5,19.3,27,19z"/>
		<path fill="#EFF9FE" d="M21.1,20.3c-2.3,0-4.6-0.2-6.2-0.6c-0.8-0.2-1.4-0.4-1.8-0.6v5c0,0.6,2.8,1.7,8,1.7h0
			c1.5,0,2.9-0.1,4.1-0.3l3.7-3.7v-2.6C26.7,20.3,22.2,20.3,21.1,20.3z"/>
		<path fill="#3D6480" d="M21.1,25.8L21.1,25.8c-5.2,0-8-1.1-8-1.7v-5c0.5,0.2,1.1,0.4,1.8,0.6c1.7,0.4,3.9,0.6,6.2,0.6
			c1.1,0,5.6-0.1,7.9-1.2v2.6l1.7-1.7v-8.5c0-3-7.5-3.2-9.8-3.2c-2.9,0-9.6,0.3-9.6,3.2v12.5c0,3.3,8.1,3.4,9.7,3.4h0
			c0.8,0,1.5,0,2.2-0.1l1.9-1.9C24,25.7,22.6,25.8,21.1,25.8z M13,11.3c0.1-0.5,2.9-1.5,7.9-1.5c5,0,7.9,1,8,1.5v0.8
			c-1,0.7-3.9,1.3-7.9,1.3c-4.1,0-7-0.6-8.1-1.3V11.3z M13,13c0.5,0.2,1.1,0.4,1.8,0.6c1.7,0.4,3.9,0.6,6.2,0.6
			c1.1,0,5.6-0.1,7.9-1.2v5.2c-0.4,0.3-1.1,0.5-2,0.8c-1.5,0.4-3.6,0.6-5.9,0.6c-4.1,0-7-0.6-8-1.3V13z"/>
	</g>
	<polygon fill="#FFEBCD" points="39.4,31 38.3,29.3 38.3,28.4 33,26.2 31.2,28 29.5,26.2 24.3,28.4 24.3,29.3 22.8,31.2 24.3,31.9 
		24.3,36.6 31.3,40.1 38.3,36.6 38.3,31.6 	"/>
	<path fill="#3D6480" d="M38.2,28.3l-4-1.7l-0.4,0.9l2.7,1.1l-5.3,2.7l-5.4-2.7l2.6-1.1l-0.4-0.9l-3.8,1.6l-2.2,3l2.2,1.2v4.1l7,3.5
		l7-3.5v-4.4l1.9-1L38.2,28.3z M24.8,28.6L24.8,28.6L24.8,28.6L24.8,28.6L24.8,28.6z M23.5,31l1.4-1.8l5.6,2.8l-1.4,1.9L23.5,31z
		 M25.2,33l4.1,2.2l1.5-2.1v5.9L25.2,36V33z M37.3,36l-5.9,3v-6.3l1.6,2.4l4.3-2.4V36z M33.3,33.8L32,32l5.6-2.9l1.1,1.7L33.3,33.8z
		"/>
	<path fill="#0CB20F" d="M33.3,25.8l-1.6,1.6v-1.7c0-2.8-1.2-4.1-3.9-4.1v1c2.2,0,2.9,0.8,2.9,3v1.7l-1.7-1.7l-0.7,0.7l2.9,2.9
		l2.8-2.8L33.3,25.8z"/>
</g>
</svg>
