<?xml version="1.0" encoding="utf-8"?>
<!-- Generator: Adobe Illustrator 18.0.0, SVG Export Plug-In . SVG Version: 6.00 Build 0)  -->
<!DOCTYPE svg PUBLIC "-//W3C//DTD SVG 1.1//EN" "http://www.w3.org/Graphics/SVG/1.1/DTD/svg11.dtd">
<svg version="1.1" id="Layer_1" xmlns="http://www.w3.org/2000/svg" xmlns:xlink="http://www.w3.org/1999/xlink" x="0px" y="0px"
	 viewBox="0 0 24 24" enable-background="new 0 0 24 24" xml:space="preserve">
<g>
	<polygon fill="#3D6480" points="21.4,18.9 21.4,20.6 18.4,17.7 17.6,18.4 20.6,21.4 18.8,21.4 18.8,22.5 22.5,22.5 22.5,18.9 	"/>
	<polygon fill="#EFF9FE" points="16.5,11.1 16.5,6.3 7.7,6.3 7.7,10.9 12.2,15.4 	"/>
	<polygon fill="#FFFFFF" points="5.7,9.7 5.7,18.2 14,18.2 18.6,13.5 18.6,9.8 12.2,16.1 	"/>
	<path fill="#3D6480" d="M5.7,9.7l6.5,6.5l6.4-6.3l0.1-0.1v3.9l1-1V8.9V8.5h-2.1V5.3H6.7v3.2H4.7v0.3v10.3H13l1-1H5.7v-0.1V9.7z
		 M7.7,6.3h8.9v4.8l-4.3,4.3l-4.5-4.5V6.3z"/>
</g>
</svg>
