<?xml version="1.0" encoding="utf-8"?>
<!-- Generator: Adobe Illustrator 18.0.0, SVG Export Plug-In . SVG Version: 6.00 Build 0)  -->
<!DOCTYPE svg PUBLIC "-//W3C//DTD SVG 1.1//EN" "http://www.w3.org/Graphics/SVG/1.1/DTD/svg11.dtd">
<svg version="1.1" id="Layer_1" xmlns="http://www.w3.org/2000/svg" xmlns:xlink="http://www.w3.org/1999/xlink" x="0px" y="0px"
	 viewBox="0 0 24 24" enable-background="new 0 0 24 24" xml:space="preserve">
<g>
	<polygon fill="#3D6480" points="3,6.6 6.6,6.6 6.6,3 5.5,3 5.5,4.8 2.5,1.7 1.8,2.5 4.8,5.5 3,5.5 	"/>
	<polygon fill="#FFFFFF" points="5.5,18 18.5,18 18.5,9.5 12,15.9 6,9.8 6.2,9.6 6.2,9.6 5.1,10.5 5.1,10.5 5.5,10.2 	"/>
	<polygon fill="#EFF9FE" points="12,15.2 16.3,10.8 16.3,6 10,6 7.5,8.4 7.5,10.7 	"/>
	<polygon fill="#3D6480" points="17.3,8.3 17.3,5.1 11.1,5.1 10,6 16.3,6 16.3,10.8 12,15.2 7.5,10.7 7.5,8.4 6.2,9.6 6,9.8 
		12,15.9 18.5,9.5 18.5,18 5.5,18 5.5,10.2 5.1,10.5 5,10.7 4.5,11.1 4.5,18.9 19.5,18.9 19.5,8.7 19.5,8.3 	"/>
</g>
</svg>
