<?xml version="1.0" encoding="utf-8"?>
<!-- Generator: Adobe Illustrator 20.1.0, SVG Export Plug-In . SVG Version: 6.00 Build 0)  -->
<svg version="1.1" id="Layer_1" xmlns="http://www.w3.org/2000/svg" xmlns:xlink="http://www.w3.org/1999/xlink" x="0px" y="0px"
	 width="47px" height="19px" viewBox="0 0 47 19" style="enable-background:new 0 0 47 19;" xml:space="preserve">
<style type="text/css">
	.st0{fill:#666666;}
	.st1{fill:#005DA6;}
</style>
<g>
	<path class="st0" d="M2,14.1v-10l16,0v6l2-2v-6l-10.5,0l-1.9-2l0,0l0,0h0H0v16h12l2-2H2z M1.9,2.1h4.9l0.9,1H1.9V2.1z"/>
	<polygon class="st0" points="22.8,14.1 20,14.1 20,11.2 18,11.2 18,14.1 15.1,14.1 15.1,16.1 18,16.1 18,18.9 20,18.9 20,16.1 
		22.8,16.1 	"/>
</g>
<g>
	<path class="st1" d="M26.2,14.1v-10l16,0v6l2-2v-6l-10.5,0l-1.9-2l0,0l0,0h0h-7.6v16h12l2-2H26.2z M26.1,2.1H31l0.9,1h-5.8V2.1z"/>
	<polygon class="st1" points="47,14.1 44.1,14.1 44.1,11.2 42.1,11.2 42.1,14.1 39.3,14.1 39.3,16.1 42.1,16.1 42.1,18.9 44.1,18.9 
		44.1,16.1 47,16.1 	"/>
</g>
</svg>
