<?xml version="1.0" encoding="utf-8"?>
<!-- Generator: Adobe Illustrator 20.1.0, SVG Export Plug-In . SVG Version: 6.00 Build 0)  -->
<svg version="1.1" id="Layer_1" xmlns="http://www.w3.org/2000/svg" xmlns:xlink="http://www.w3.org/1999/xlink" x="0px" y="0px"
	 width="33px" height="13px" viewBox="0 0 33 13" style="enable-background:new 0 0 33 13;" xml:space="preserve">
<style type="text/css">
	.st0{fill:#666666;}
	.st1{fill:#FFFFFF;}
</style>
<path class="st0" d="M9,2L7,0l0,0l0,0h0H0v13h16V2L9,2z M2,2h4.2l1,1H2V2z M14,11H2V4l12,0V11z"/>
<path class="st1" d="M26,2l-2-2l0,0l0,0h0h-7v13h16V2L26,2z M19,2h4.2l1,1H19V2z M31,11H19V4l12,0V11z"/>
</svg>
