<?xml version="1.0" encoding="utf-8"?>
<!-- Generator: Adobe Illustrator 20.1.0, SVG Export Plug-In . SVG Version: 6.00 Build 0)  -->
<svg version="1.1" id="Layer_1" xmlns="http://www.w3.org/2000/svg" xmlns:xlink="http://www.w3.org/1999/xlink" x="0px" y="0px"
	 width="33px" height="16px" viewBox="0 0 33 16" style="enable-background:new 0 0 33 16;" xml:space="preserve">
<style type="text/css">
	.st0{fill:#666666;}
	.st1{fill:#FFFFFF;}
</style>
<g>
	<path class="st0" d="M8,2.1c3.2,0,5.9,2.6,5.9,5.9s-2.6,5.9-5.9,5.9S2.1,11.2,2.1,8S4.8,2.1,8,2.1 M8,0C3.6,0,0,3.6,0,8s3.6,8,8,8
		c4.4,0,8-3.6,8-8S12.4,0,8,0L8,0z"/>
	<polygon class="st0" points="8.5,8.5 8.5,4.5 6.5,4.5 6.5,10.5 10.8,10.5 10.8,8.5 	"/>
</g>
<g>
	<path class="st1" d="M25,2.1c3.2,0,5.9,2.6,5.9,5.9s-2.6,5.9-5.9,5.9s-5.9-2.6-5.9-5.9S21.8,2.1,25,2.1 M25,0c-4.4,0-8,3.6-8,8
		s3.6,8,8,8c4.4,0,8-3.6,8-8S29.4,0,25,0L25,0z"/>
	<polygon class="st1" points="25.5,8.5 25.5,4.5 23.5,4.5 23.5,10.5 27.8,10.5 27.8,8.5 	"/>
</g>
</svg>
