<?xml version="1.0" encoding="utf-8"?>
<!-- Generator: Adobe Illustrator 18.0.0, SVG Export Plug-In . SVG Version: 6.00 Build 0)  -->
<!DOCTYPE svg PUBLIC "-//W3C//DTD SVG 1.1//EN" "http://www.w3.org/Graphics/SVG/1.1/DTD/svg11.dtd">
<svg version="1.1" id="Layer_1" xmlns="http://www.w3.org/2000/svg" xmlns:xlink="http://www.w3.org/1999/xlink" x="0px" y="0px"
	 viewBox="0 0 42 42" enable-background="new 0 0 42 42" xml:space="preserve">
<g>
	<polygon fill="#3D6480" points="37.1,32.6 37.1,35.7 31.9,30.5 30.5,31.8 35.8,37.1 32.6,37.1 32.6,39 39,39 39,32.6 	"/>
	<g>
		<polygon fill="#EFF9FE" points="19.9,21.3 22.3,21.3 21.1,17.6 		"/>
		<path fill="#EFF9FE" d="M27.2,17.8h-1.5v2.7h1.5c0.8,0,1.1-0.2,1.1-0.9v-1C28.3,18,28,17.8,27.2,17.8z"/>
		<path fill="#EFF9FE" d="M9.9,9.9v22.3h12.7l9.6-9.3v-13H9.9z M15.4,23.8c-0.6,0-1.4-0.1-2-0.4l0.1-0.7c0.6,0.2,1.2,0.3,1.9,0.3
			c1.1,0,1.3-0.3,1.3-1c0-0.9,0-1-1.4-1.3c-1.6-0.4-1.8-0.7-1.8-2c0-1.2,0.5-1.7,2.1-1.7c0.6,0,1.3,0.1,1.8,0.2l-0.1,0.7
			c-0.5-0.1-1.2-0.2-1.7-0.2c-1.1,0-1.3,0.2-1.3,1c0,0.9,0,1,1.3,1.3c1.8,0.4,1.9,0.7,1.9,2C17.6,23.1,17.2,23.8,15.4,23.8z
			 M23,23.7l-0.5-1.6h-2.8l-0.5,1.6h-0.9l2.2-6.7h1.2l2.2,6.7H23z M27.3,21.3h-1.5v2.4h-0.9V17h2.4c1.4,0,1.9,0.6,1.9,1.6v1
			C29.2,20.7,28.7,21.3,27.3,21.3z"/>
		<polygon fill="#3D6480" points="9.9,32.1 9.9,9.9 32.2,9.9 32.2,22.9 33.9,21.2 33.9,8.1 8.2,8.1 8.2,33.9 20.8,33.9 22.6,32.1 		
			"/>
		<path fill="#3D6480" d="M15.7,19.9c-1.3-0.3-1.3-0.4-1.3-1.3c0-0.8,0.2-1,1.3-1c0.5,0,1.2,0.1,1.7,0.2l0.1-0.7
			c-0.5-0.1-1.2-0.2-1.8-0.2c-1.6,0-2.1,0.6-2.1,1.7c0,1.4,0.2,1.7,1.8,2c1.4,0.3,1.4,0.4,1.4,1.3c0,0.8-0.2,1-1.3,1
			c-0.6,0-1.2-0.1-1.9-0.3l-0.1,0.7c0.6,0.2,1.3,0.4,2,0.4c1.8,0,2.2-0.7,2.2-1.8C17.6,20.6,17.5,20.4,15.7,19.9z"/>
		<path fill="#3D6480" d="M20.5,17l-2.2,6.7h0.9l0.5-1.6h2.8l0.5,1.6h0.9L21.7,17H20.5z M19.9,21.3l1.2-3.7l1.2,3.7H19.9z"/>
		<path fill="#3D6480" d="M27.3,17h-2.4v6.7h0.9v-2.4h1.5c1.4,0,1.9-0.6,1.9-1.6v-1C29.2,17.6,28.7,17,27.3,17z M28.3,19.6
			c0,0.6-0.3,0.9-1.1,0.9h-1.5v-2.7h1.5c0.8,0,1.1,0.2,1.1,0.9V19.6z"/>
	</g>
</g>
</svg>
