<?xml version="1.0" encoding="utf-8"?>
<!-- Generator: Adobe Illustrator 23.1.1, SVG Export Plug-In . SVG Version: 6.00 Build 0)  -->
<svg version="1.1" id="Picture.S_D" xmlns="http://www.w3.org/2000/svg" xmlns:xlink="http://www.w3.org/1999/xlink" x="0px"
	 y="0px" viewBox="0 0 32 32" style="enable-background:new 0 0 32 32;" xml:space="preserve">
<style type="text/css">
	.st0{fill:none;}
	.st1{fill:#FFFFFF;}
</style>
<rect id="Rectangle_724" class="st0" width="32" height="32"/>
<g id="Ellipse_292">
	<circle id="Ellipse_266" class="st0" cx="18.5" cy="13.5" r="1.5"/>
	<path id="Path_3068" class="st1" d="M18.5,15c-0.8,0-1.5-0.7-1.5-1.5s0.7-1.5,1.5-1.5s1.5,0.7,1.5,1.5S19.3,15,18.5,15z M18.5,13
		c-0.3,0-0.5,0.2-0.5,0.5s0.2,0.5,0.5,0.5s0.5-0.2,0.5-0.5S18.8,13,18.5,13z"/>
</g>
<g id="Group_18736">
	<path id="Path_37342" class="st1" d="M8,10v12h16V10H8z M23,21H9v-1.7l0,0l3.9-4.5l3.9,4.9l3.1-2.1l3,1.8V21z M23,18.2l-3-1.8
		l-2.9,1.9L13,13.2l-4,4.6V11h14V18.2z"/>
</g>
</svg>
