<?xml version="1.0" encoding="utf-8"?>
<!-- Generator: Adobe Illustrator 22.0.1, SVG Export Plug-In . SVG Version: 6.00 Build 0)  -->
<svg version="1.1" xmlns="http://www.w3.org/2000/svg" xmlns:xlink="http://www.w3.org/1999/xlink" x="0px" y="0px"
	 viewBox="0 0 42 42" style="enable-background:new 0 0 42 42;" xml:space="preserve">
<style type="text/css">
	.st0{fill:#EFF9FE;}
	.st1{fill:#3D6480;}
	.st2{display:none;}
	.st3{display:inline;}
	.st4{fill:none;}
	.st5{display:inline;fill:#EFF9FE;}
	.st6{display:inline;fill:#3D6480;}
	.st7{display:inline;fill:none;}
	.st8{display:inline;fill:#FFECCE;}
	.st9{fill:#0CB20F;}
	.st10{display:inline;fill:#FFEBCD;}
	.st11{display:inline;fill:#0CB20F;}
	.st12{fill:#3D6480;stroke:#3D6480;stroke-width:1.3;stroke-miterlimit:3.8637;}
	.st13{fill:#FFFFFF;}
	.st14{fill-rule:evenodd;clip-rule:evenodd;fill:none;}
	.st15{fill-rule:evenodd;clip-rule:evenodd;fill:none;stroke:#EA102A;stroke-width:1.9;stroke-miterlimit:3.8637;}
	.st16{fill:#FF9C04;}
	.st17{fill:#EC0800;}
	.st18{fill:#FF00FF;}
	.st19{fill-rule:evenodd;clip-rule:evenodd;fill:#FF00FF;stroke:#005CA6;stroke-width:0.25;stroke-miterlimit:3.8637;}
	.st20{fill:#DD0050;}
	.st21{font-family:'OpenSans';}
	.st22{font-size:3px;}
	.st23{fill:none;stroke:#DD0050;stroke-width:0.25;stroke-miterlimit:10;}
	.st24{fill:none;stroke:#DD0050;stroke-width:0.25;stroke-miterlimit:10;stroke-dasharray:0.9919,0.9919;}
	.st25{font-family:'MyriadPro-Regular';}
	.st26{font-size:8px;}
	.st27{fill:#146CC5;}
	.st28{fill:#F2F2F2;}
	.st29{fill:#FDE7EA;}
	.st30{fill:#F2F100;}
	.st31{fill:#E9102A;}
	.st32{fill:#FFEBCD;}
	.st33{fill:#DBF3DB;}
</style>
<g id="_x2D_----_Artwork">
	<g>
		<polygon class="st0" points="10,10 10,32 22.8,32 32,23 32,10 		"/>
		<polygon class="st1" points="10,32 10,10 32,10 32,23 34,21 34,8 8,8 8,34 20.7,34 22.8,32 		"/>
	</g>
	<g>
		<path class="st1" d="M24.9,21.6c-0.1-1.5-0.2-3.3-0.2-4.7h0c-0.4,1.3-0.8,2.6-1.4,4.1l-1.9,5.2h-1.1l-1.7-5.1
			c-0.5-1.5-0.9-2.9-1.2-4.2h0c0,1.3-0.1,3.2-0.2,4.8l-0.3,4.6h-1.3l0.8-10.8H18l1.8,5.2c0.4,1.3,0.8,2.5,1.1,3.6h0
			c0.3-1.1,0.7-2.3,1.1-3.6l1.9-5.2h1.8l0.7,10.8h-1.4L24.9,21.6z"/>
	</g>
</g>
<g id="_x2D_----_Samples" class="st2">
	<g id="Document" class="st3">
		<polygon class="st4" points="27.2,11.4 29.8,11.4 27.2,8.8 		"/>
		<path class="st0" d="M25.5,13.1V8.8H12.2v24.4h9.3l8.4-8.4l0-11.7H25.5z M18.2,24.8H15V24h3.2V24.8z M27,21.4H15v-0.8H27V21.4z
			 M27,18H15v-0.8H27V18z"/>
		<polygon class="st1" points="12.2,33.2 12.2,8.8 25.5,8.8 25.5,13.1 29.8,13.1 29.8,24.8 31.5,23.2 31.5,13.1 29.8,11.4 
			27.2,11.4 27.2,8.8 25.5,7.1 10.5,7.1 10.5,34.9 19.6,34.9 21.4,33.2 		"/>
		<rect x="15" y="17.2" class="st1" width="11.9" height="0.8"/>
		<rect x="15" y="20.6" class="st1" width="11.9" height="0.8"/>
		<rect x="15" y="24" class="st1" width="3.2" height="0.8"/>
	</g>
	<g id="Script">
		<path class="st5" d="M28.7,11.7h1.7v1.1h1.1c1.1,0,1.9-0.9,1.9-1.9c0-1.1-0.9-1.9-1.9-1.9H16.9c-2.4,0-3.7,1.3-3.7,3.7v15.3h6.2
			v1.7H9.9c-1.1,0-1.9,0.9-1.9,1.9c0,1.1,0.9,1.9,1.9,1.9h10.9l7.9-7.9V11.7z"/>
		<path class="st6" d="M7.9,31.6c0-1.1,0.9-1.9,1.9-1.9h9.4v-1.7h-6.2V12.7c0-2.4,1.3-3.7,3.7-3.7h14.7c1.1,0,1.9,0.9,1.9,1.9
			c0,1.1-0.9,1.9-1.9,1.9h-1.1v-1.1h-1.7v13.9l1.7-1.7v-9.3h1.1c2,0,3.6-1.6,3.6-3.6c0-2-1.6-3.6-3.6-3.6H16.9
			c-3.4,0-5.4,2.1-5.4,5.4v15.3H9.9c-2,0-3.6,1.6-3.6,3.6c0,2,1.6,3.6,3.6,3.6h9.2l1.7-1.7H9.9C8.8,33.5,7.9,32.6,7.9,31.6z"/>
	</g>
	<g id="Table">
		<rect x="17.4" y="25.9" class="st7" width="7.4" height="6.8"/>
		<rect x="17.4" y="17.7" class="st7" width="7.4" height="7.4"/>
		<rect x="9.9" y="25.9" class="st7" width="6.8" height="6.8"/>
		<rect x="25.6" y="17.7" class="st7" width="6.5" height="7.4"/>
		<rect x="25.6" y="25.9" class="st7" width="6.5" height="6.8"/>
		<polygon class="st5" points="16.6,16.9 17.4,16.9 17.4,16.9 24.8,16.9 24.8,16.9 25.6,16.9 25.6,16.9 32.2,16.9 32.2,10.3 
			17.4,10.3 10.9,16.9 16.6,16.9 		"/>
		<path class="st6" d="M19.1,8.6l-1.7,1.7h14.8v6.5h-6.5v0h-0.8v0h-7.4v0h-0.8v0h-5.8l-0.8,0.8h6.6v7.4H9.9v-7.2l-1.7,1.7v14.8h25.7
			V8.6H19.1z M16.6,32.6H9.9v-6.8h6.8V32.6z M24.8,32.6h-7.4v-6.8h7.4V32.6z M24.8,25.1h-7.4v-7.4h7.4V25.1z M32.2,32.6h-6.5v-6.8
			h6.5V32.6z M32.2,25.1h-6.5v-7.4h6.5V25.1z"/>
	</g>
	<g id="Databaase">
		<path class="st8" d="M26.1,23.7c0.9-0.2,1.6-0.5,2-0.8v-5.2c-2.2,1.1-6.7,1.2-7.9,1.2c-2.3,0-4.6-0.2-6.2-0.6
			c-0.8-0.2-1.4-0.4-1.8-0.6v5.2c1.1,0.7,3.9,1.3,8,1.3C22.5,24.3,24.6,24.1,26.1,23.7z"/>
		<path class="st8" d="M20.2,25.1c-2.3,0-4.6-0.2-6.2-0.6c-0.8-0.2-1.4-0.4-1.8-0.6v5c0,0.6,2.8,1.7,8,1.7h0c1.5,0,2.9-0.1,4.1-0.3
			l3.7-3.7v-2.6C25.8,25,21.3,25.1,20.2,25.1z"/>
		<path class="st8" d="M20.2,18.1c2.3,0,4.4-0.2,5.9-0.6c0.9-0.2,1.6-0.5,2-0.8V12c-2.2,1.1-6.7,1.2-7.9,1.2c-2.4,0-4.6-0.2-6.2-0.6
			c-0.8-0.2-1.4-0.4-1.8-0.6l0,4.9C13.2,17.5,16.1,18.1,20.2,18.1z"/>
		<path class="st8" d="M28.1,11v-0.8c-0.2-0.5-3-1.5-8-1.5c-5,0-7.7,1-7.9,1.5V11c1.1,0.7,3.9,1.3,8.1,1.3
			C24.2,12.4,27,11.7,28.1,11z"/>
		<path class="st6" d="M20.2,30.6L20.2,30.6c-5.2,0-8-1.1-8-1.7v-5c0.5,0.2,1.1,0.4,1.8,0.6c1.7,0.4,3.9,0.6,6.2,0.6
			c1.1,0,5.6-0.1,7.9-1.2v2.6l1.7-1.7V10.3c0-3-7.5-3.2-9.8-3.2c-2.9,0-9.6,0.3-9.6,3.2v18.6c0,3.3,8.1,3.4,9.7,3.4h0
			c0.8,0,1.5,0,2.2-0.1l1.9-1.9C23.1,30.5,21.7,30.6,20.2,30.6z M12.2,10.3c0.1-0.5,2.9-1.5,7.9-1.5c5,0,7.9,1,8,1.5V11
			c-1,0.7-3.9,1.3-7.9,1.3c-4.1,0-7-0.6-8.1-1.3V10.3z M14,12.6c1.7,0.4,3.9,0.6,6.2,0.6c1.1,0,5.6-0.1,7.9-1.2v4.9
			c-0.4,0.3-1.1,0.5-2,0.8c-1.5,0.4-3.6,0.6-5.9,0.6c-4.1,0-7-0.6-8-1.3l0-4.9C12.6,12.2,13.2,12.4,14,12.6z M12.2,17.7
			c0.5,0.2,1.1,0.4,1.8,0.6c1.7,0.4,3.9,0.6,6.2,0.6c1.1,0,5.6-0.1,7.9-1.2V23c-0.4,0.3-1.1,0.5-2,0.8c-1.5,0.4-3.6,0.6-5.9,0.6
			c-4.1,0-7-0.6-8-1.3V17.7z"/>
	</g>
</g>
<g id="_x2D_----_Action_Indicators">
	<g id="Wait" class="st2">
		<g class="st3">
			<polygon class="st1" points="33.3,29.6 33.3,32.3 35.1,34.1 34,35.2 31.8,33 31.8,29.6 			"/>
			<path class="st1" d="M32.6,26.2c3.5,0,6.4,2.9,6.4,6.4c0,3.5-2.9,6.4-6.4,6.4c-3.5,0-6.4-2.9-6.4-6.4
				C26.2,29.1,29.1,26.2,32.6,26.2z M32.6,27.7c-2.7,0-4.9,2.2-4.9,4.9c0,2.7,2.2,4.9,4.9,4.9c2.7,0,4.9-2.2,4.9-4.9
				C37.5,29.9,35.3,27.7,32.6,27.7z"/>
		</g>
	</g>
	<g id="Validate" class="st2">
		<g class="st3">
			<polygon class="st9" points="30.6,39.1 27,35.4 28.3,34.1 30.6,36.4 37.6,29.5 38.9,30.8 			"/>
		</g>
	</g>
	<g id="Upsert" class="st2">
		<g class="st3">
			<path class="st9" d="M9.9,14.7H8V7.9C8,6,6.4,4.4,4.5,4.4H3.9V2.5h0.6c3,0,5.4,2.4,5.4,5.4V14.7z"/>
			<polygon class="st9" points="8.9,16.1 4.7,11.8 6,10.5 8.9,13.4 11.8,10.5 13.2,11.8 			"/>
		</g>
	</g>
	<g id="Update" class="st2">
		<g class="st3">
			<path class="st9" d="M35.5,37.5c-1.2,0.9-2.6,1.4-4.2,1.4c-3.8,0-6.8-3-6.9-6.7h-1.7l2.6-3.7l2.6,3.7h-1.8
				c0.1,2.7,2.4,4.9,5.1,4.9c1.2,0,2.2-0.4,3.1-1L35.5,37.5z"/>
			<path class="st9" d="M26.8,27.1c1.2-0.9,2.6-1.4,4.2-1.4c3.8,0,6.8,3,6.9,6.7h1.7L36.9,36l-2.6-3.7h1.8c-0.1-2.7-2.4-4.9-5.1-4.9
				c-1.2,0-2.2,0.4-3.1,1L26.8,27.1z"/>
		</g>
	</g>
	<g id="Search__x2F__Lookup__x2F__Exists" class="st2">
		<g class="st3">
			<path class="st1" d="M32.1,36.6c-2.7,0-4.9-2.2-4.9-4.9s2.2-4.9,4.9-4.9c2.7,0,4.9,2.2,4.9,4.9S34.8,36.6,32.1,36.6z M32.1,28.4
				c-1.9,0-3.4,1.5-3.4,3.4s1.5,3.4,3.4,3.4c1.9,0,3.4-1.5,3.4-3.4S33.9,28.4,32.1,28.4z"/>
			
				<rect x="35.9" y="34.4" transform="matrix(0.7071 -0.7071 0.7071 0.7071 -15.1123 36.8087)" class="st1" width="1.9" height="4.5"/>
		</g>
	</g>
	<g id="Set" class="st2">
		<g class="st3">
			<polygon class="st1" points="30.5,37.5 27.4,34.4 28.8,33 30.5,34.8 36.1,29.3 37.4,30.6 			"/>
			<path class="st1" d="M38.6,39.5H26.2V27.1h12.4V39.5z M27,38.7h10.8V27.9H27V38.7z"/>
		</g>
	</g>
	<g id="Move" class="st2">
		<g class="st3">
			<rect x="27" y="32.6" class="st1" width="10.3" height="1.7"/>
			<polygon class="st1" points="34.9,37.1 33.7,35.9 36.1,33.5 33.6,31 34.8,29.8 38.5,33.5 			"/>
		</g>
	</g>
	<g id="Output__x2F__Upload__x2F__Export__x2F__Insert__x2F__Put__x2F__Write" class="st2">
		<path class="st7" d="M39,0.5H3C1.6,0.5,0.5,1.6,0.5,3v36c0,1.4,1.1,2.5,2.5,2.5h36c1.4,0,2.5-1.1,2.5-2.5V3
			C41.5,1.6,40.4,0.5,39,0.5z M11.7,11.8l-6.4,0V9.9l3.1,0L3.3,4.7l1.3-1.3l5.2,5.2V5.5h1.9V11.8z"/>
		<polygon class="st6" points="9.8,8.5 4.6,3.3 3.3,4.7 8.5,9.9 5.3,9.9 5.3,11.8 11.7,11.8 11.7,5.5 9.8,5.5 		"/>
	</g>
	<g id="Input__x2F__Import__x2F__Get__x2F__Download__x2F__Extract__x2F__Read">
		<polygon class="st1" points="37,33 37,35.7 31.8,30.5 30.5,31.8 35.8,37 33,37 33,39 39,39 39,33 		"/>
	</g>
	<g id="Bulk_Load" class="st2">
		<polygon class="st10" points="39.6,30.1 38.5,28.4 38.5,27.5 33.2,25.3 31.4,27.1 29.6,25.3 24.5,27.5 24.5,28.4 23,30.3 24.5,31 
			24.5,35.7 31.5,39.2 38.5,35.7 38.5,30.7 		"/>
		<path class="st6" d="M38.4,27.4l-4-1.7l-0.4,0.9l2.7,1.1l-5.3,2.7l-5.4-2.7l2.6-1.1l-0.4-0.9l-3.8,1.6l-2.2,3l2.2,1.2v4.1l7,3.5
			l7-3.5v-4.4l1.9-1L38.4,27.4z M25,27.7L25,27.7L25,27.7L25,27.7L25,27.7z M23.7,30.1l1.4-1.8l5.6,2.8L29.3,33L23.7,30.1z M25.4,32
			l4.1,2.2l1.5-2.1V38l-5.7-2.9V32z M37.5,35.1l-5.9,3v-6.3l1.6,2.4l4.3-2.4V35.1z M33.4,32.9l-1.2-1.8l5.6-2.9l1.1,1.7L33.4,32.9z"
			/>
		<path class="st11" d="M33.5,24.9l-1.6,1.6v-1.7c0-2.8-1.2-4.1-3.9-4.1v1c2.2,0,2.9,0.8,2.9,3v1.7l-1.7-1.7l-0.7,0.7l2.9,2.9
			l2.8-2.8L33.5,24.9z"/>
	</g>
	<g id="Generator__x2F__Processor" class="st2">
		<g class="st3">
			<path class="st12" d="M32.7,37.9L32.3,39c-0.2,0-0.4,0-0.6-0.1l-0.1-1.2c0-0.2-0.1-0.3-0.3-0.4c-0.4-0.1-0.7-0.3-1.1-0.5
				c-0.2-0.1-0.4-0.1-0.5,0l-0.2,0.1l-1,0.5l-0.2-0.2L28.3,37l0.7-1c0.1-0.2,0.1-0.4,0-0.5c-0.2-0.3-0.4-0.7-0.5-1.1
				c-0.1-0.2-0.2-0.3-0.4-0.3l-1.2-0.1c0-0.2,0-0.4,0-0.6l1.2-0.4c0.2-0.1,0.3-0.2,0.3-0.4c0.1-0.4,0.2-0.8,0.3-1.1
				c0.1-0.2,0-0.4-0.1-0.5l-0.8-0.9c0.1-0.2,0.2-0.3,0.4-0.5l1.1,0.5c0.2,0.1,0.4,0,0.5-0.1c0.3-0.3,0.6-0.5,1-0.7
				c0.2-0.1,0.3-0.3,0.3-0.4L31,27.7c0.2-0.1,0.4-0.1,0.6-0.1l0.5,1.1c0.1,0.2,0.2,0.3,0.4,0.3c0.4,0,0.8,0,1.2,0.1
				c0.2,0,0.4,0,0.5-0.2l0.7-1c0.2,0.1,0.4,0.2,0.5,0.3l-0.3,1.2c0,0.2,0,0.4,0.2,0.5c0.2,0.1,0.3,0.3,0.4,0.4
				c0.1,0.1,0.3,0.3,0.4,0.4c0.1,0.1,0.3,0.2,0.5,0.2l1.2-0.3c0.1,0.2,0.2,0.4,0.2,0.5l-1,0.7c-0.1,0.1-0.2,0.3-0.2,0.5
				c0.1,0.4,0.1,0.8,0.1,1.2c0,0.2,0.1,0.4,0.2,0.5l1.1,0.5c0,0.2-0.1,0.4-0.2,0.6l-1.2-0.1c-0.2,0-0.4,0.1-0.4,0.2
				c-0.2,0.3-0.4,0.7-0.7,1c-0.1,0.1-0.2,0.3-0.1,0.5l0.5,1.1c-0.2,0.1-0.3,0.2-0.5,0.3l-0.9-0.8c-0.1-0.1-0.3-0.2-0.5-0.1
				c-0.4,0.1-0.8,0.2-1.2,0.3C32.9,37.5,32.7,37.7,32.7,37.9z"/>
			<path class="st13" d="M29,33.3c0-2,1.6-3.6,3.6-3.6c2,0,3.6,1.6,3.6,3.6c0,2-1.6,3.6-3.6,3.6C30.6,36.9,29,35.3,29,33.3z"/>
		</g>
	</g>
	<g id="Execute___x2F__Call" class="st2">
		<g class="st3">
			<path class="st14" d="M0,3c0-1.7,1.3-3,3-3h36c1.7,0,3,1.3,3,3v36c0,1.7-1.3,3-3,3H3c-1.7,0-3-1.3-3-3"/>
			<path class="st9" d="M27.5,39V27.9l11.9,5.6L27.5,39z M29.3,30.8v5.3l5.7-2.7L29.3,30.8z"/>
		</g>
	</g>
	<g id="Delete" class="st2">
		<g class="st3">
			<line class="st15" x1="31.3" y1="31.1" x2="38.4" y2="38.3"/>
			<line class="st15" x1="31.3" y1="38.3" x2="38.4" y2="31.1"/>
		</g>
	</g>
	<g id="Decrypt" class="st2">
		<g class="st3">
			<path class="st1" d="M39,30.9V39h-9.7v-8.1H39z M37.5,32.4h-6.7v5.1h6.7V32.4z"/>
			<path class="st1" d="M24.6,31.4v-1.6c0-2.3,1.6-3.8,3.7-3.8s3.7,1.5,3.7,3.8v1.8h-1.5v-1.8c0-1.4-1-2.3-2.2-2.3s-2.2,0.8-2.2,2.3
				v1.6H24.6z"/>
			<rect x="33.6" y="34.1" class="st1" width="1" height="1.6"/>
		</g>
	</g>
	<g id="Encrypt" class="st2">
		<g class="st3">
			<path class="st1" d="M39,30.9V39h-9.7v-8.1H39z M37.5,32.4h-6.7v5.1h6.7V32.4z"/>
			<path class="st1" d="M30.5,31.4v-1.6c0-2.3,1.6-3.8,3.7-3.8c2,0,3.7,1.5,3.7,3.8v1.8h-1.5v-1.8c0-1.4-1-2.3-2.2-2.3
				c-1.2,0-2.2,0.8-2.2,2.3v1.6H30.5z"/>
			<rect x="33.6" y="34.1" class="st1" width="1" height="1.6"/>
		</g>
	</g>
	<g id="Create" class="st2">
		<g class="st3">
			<path class="st16" d="M32.9,34.8h0.6l0.4,0.4l0.4-0.4h0.6v-0.6l0.4-0.4l-0.4-0.4v-0.6h-0.6l-0.4-0.4l-0.4,0.4h-0.6v0.6l-0.4,0.4
				l0.4,0.4V34.8z M37.2,31.9l-1,1h2.8v1.9l-2.8,0l1,1l-1.3,1.3l-1-1v2.8h-1.9v-2.8l-1,1l-1.3-1.3l1-1l-2.8,0v-1.9h2.8l-1-1l1.3-1.3
				l1,1v-2.8h1.9v2.8l1-1L37.2,31.9z"/>
		</g>
	</g>
	<g id="Compare" class="st2">
		<g class="st3">
			<polygon class="st1" points="29.1,38.9 24,33.9 29.1,28.8 30.4,30.2 26.7,33.9 30.4,37.6 			"/>
			<polygon class="st1" points="34.1,38.9 32.7,37.6 36.4,33.9 32.7,30.2 34,28.8 39.1,33.9 			"/>
			<rect x="25.4" y="32.9" class="st1" width="12.4" height="1.9"/>
		</g>
	</g>
	<g id="Block" class="st2">
		<g class="st3">
			<path class="st17" d="M33.6,38.9c-2.6,0-4.8-2.1-4.8-4.8s2.1-4.8,4.8-4.8c2.6,0,4.8,2.1,4.8,4.8S36.2,38.9,33.6,38.9z M33.6,30.5
				c-2,0-3.6,1.6-3.6,3.6s1.6,3.6,3.6,3.6c2,0,3.6-1.6,3.6-3.6S35.6,30.5,33.6,30.5z"/>
			
				<rect x="32.9" y="29.8" transform="matrix(0.7072 -0.707 0.707 0.7072 -14.2524 33.6609)" class="st17" width="1.2" height="8.5"/>
		</g>
	</g>
</g>
<g id="Information" class="st2">
	<g class="st3">
		<g>
			<g>
				<path class="st1" d="M39,1c1.1,0,2,0.9,2,2v36c0,1.1-0.9,2-2,2H3c-1.1,0-2-0.9-2-2V3c0-1.1,0.9-2,2-2H39 M39,0H3
					C1.3,0,0,1.3,0,3v36c0,1.7,1.3,3,3,3h36c1.7,0,3-1.3,3-3V3C42,1.3,40.7,0,39,0L39,0z"/>
			</g>
			<g>
				<path class="st14" d="M26.9,0.7"/>
			</g>
			<rect x="0" y="29" transform="matrix(0.7129 -0.7012 0.7012 0.7129 -20.3382 8.4975)" class="st18" width="0.4" height="0.2"/>
			<path class="st19" d="M0.2,26.9"/>
			<text transform="matrix(1 0 0 1 1.2166 20.9258)" class="st20 st21 st22">45º</text>
			<text transform="matrix(1 0 0 1 35.6718 21.3809)" class="st20 st21 st22">45º</text>
			<path class="st19" d="M41.8,15.1"/>
			<g>
				<g>
					<line class="st23" x1="63.6" y1="-9" x2="63.3" y2="-8.7"/>
					<line class="st24" x1="62.5" y1="-8" x2="-7.2" y2="61.8"/>
					<line class="st23" x1="-7.6" y1="62.2" x2="-7.9" y2="62.5"/>
				</g>
			</g>
			<g>
				<g>
					<line class="st23" x1="-22.2" y1="49.6" x2="-21.8" y2="49.3"/>
					<line class="st24" x1="-21.1" y1="48.6" x2="48.7" y2="-21.2"/>
					<line class="st23" x1="49" y1="-21.6" x2="49.4" y2="-21.9"/>
				</g>
			</g>
			<text transform="matrix(0.7071 -0.7071 0.7071 0.7071 7.5178 -2.6206)" class="st13 st25 st26">Cut Line</text>
			<g>
				<text transform="matrix(0.7071 -0.7071 0.7071 0.7071 -1.5347 65.4941)" class="st13 st25 st26">Cut Line</text>
			</g>
			<rect x="-157.2" y="-215.3" class="st14" width="452.2" height="38.8"/>
			<text transform="matrix(1 0 0 1 -157.1663 -197.9351)"><tspan x="0" y="0" class="st13" style="font-family:'OpenSans-Light'; font-size:15px;">If you need an action indicator, expand the “action indiators” layer </tspan><tspan x="0" y="15" class="st13" style="font-family:'OpenSans-Light'; font-size:15px;">to choose a secondary image for your PDI icon. </tspan></text>
			<g>
				<circle class="st27" cx="-179.7" cy="-195.9" r="12"/>
				<text transform="matrix(1 0 0 1 -184.0205 -191.5229)" class="st13 st21" style="font-size:15px;">1</text>
			</g>
			<g>
				<circle class="st27" cx="-179.7" cy="-48" r="12"/>
				<text transform="matrix(1 0 0 1 -184.0215 -43.5805)" class="st13 st21" style="font-size:15px;">4</text>
			</g>
			<g>
				<text transform="matrix(1 0 0 1 -157.1665 -43.5672)" class="st13" style="font-family:'OpenSans-Light'; font-size:15px;">Export using: File &gt; Save As &gt; .SVG (Profile 1.1)</text>
			</g>
			<g>
				<circle class="st27" cx="-179.7" cy="-91.2" r="12"/>
				<text transform="matrix(1 0 0 1 -184.0201 -86.7573)" class="st13 st21" style="font-size:15px;">3</text>
			</g>
			<g>
				<text transform="matrix(1 0 0 1 -157.1665 -86.7439)" class="st13" style="font-family:'OpenSans-Light'; font-size:15px;">Before exporting, remove the “Information” layer.</text>
			</g>
			
				<text transform="matrix(1 0 0 1 -191.7318 -227.7924)" class="st13" style="font-family:'OpenSans-Light'; font-size:15px; text-decoration: underline;">Instructions</text>
			<g>
				<circle class="st27" cx="-179.7" cy="-136" r="12"/>
				<text transform="matrix(1 0 0 1 -184.0201 -131.6437)" class="st13 st21" style="font-size:15px;">2</text>
			</g>
			<g>
				<rect x="-157.2" y="-167.4" class="st4" width="421.7" height="62.7"/>
				<text transform="matrix(1 0 0 1 -157.1665 -150.0003)"><tspan x="0" y="0" class="st13" style="font-family:'OpenSans-Light'; font-size:15px;">Create your Icon on the “Artwork” layer. If you are using a </tspan><tspan x="0" y="15" class="st13" style="font-family:'OpenSans-Light'; font-size:15px;">action indicator badge, show the image you want, and use the </tspan><tspan x="0" y="30" class="st13" style="font-family:'OpenSans-Light'; font-size:15px;">“Cut Line” to see where the primary image needs to be cut.</tspan></text>
			</g>
		</g>
		<g>
			<g>
				
					<text transform="matrix(1 0 0 1 -191.7318 90.3743)" class="st13" style="font-family:'OpenSans-Light'; font-size:15px; text-decoration: underline;">Color Palette</text>
			</g>
			<rect x="-190.7" y="106.9" class="st14" width="91.5" height="15"/>
			<text transform="matrix(1 0 0 1 -190.7215 116.2343)" class="st13 st21" style="font-size:10.9259px;">Dark Sea Green</text>
			<rect x="-190.6" y="162.7" class="st28" width="130.3" height="31.7"/>
			<rect x="-190.6" y="121.1" class="st1" width="130.3" height="41.6"/>
			<g>
				<rect x="-184.4" y="169.2" class="st4" width="55.3" height="12.8"/>
				<text transform="matrix(1 0 0 1 -184.3631 177.4042)" class="st1 st21" style="font-size:9.5602px;">3D6380</text>
			</g>
			<g>
				<rect x="-184.4" y="180.8" class="st4" width="55.3" height="12.8"/>
				<text transform="matrix(1 0 0 1 -184.3631 188.0458)" class="st1 st21" style="font-size:8.1945px;">Hex</text>
			</g>
			<g>
				<rect x="-129.7" y="169.2" class="st4" width="55.3" height="12.8"/>
				<text transform="matrix(1 0 0 1 -129.7337 177.4042)" class="st1 st21" style="font-size:9.5602px;">61, 99, 128</text>
			</g>
			<g>
				<rect x="-129.7" y="180.8" class="st4" width="55.3" height="12.8"/>
				<text transform="matrix(1 0 0 1 -129.7337 188.0458)" class="st1 st21" style="font-size:8.1945px;">RGB</text>
			</g>
			<g>
				<rect x="-37.8" y="106.6" class="st14" width="91.5" height="15"/>
				<text transform="matrix(1 0 0 1 -37.828 115.9091)" class="st13 st21" style="font-size:10.9259px;">Light Sky Blue</text>
				<rect x="-37.7" y="162.4" class="st28" width="130.3" height="31.7"/>
				<rect x="-37.7" y="120.8" class="st0" width="130.3" height="41.6"/>
				<g>
					<rect x="-31.5" y="168.8" class="st4" width="55.3" height="12.8"/>
					<text transform="matrix(1 0 0 1 -31.4696 177.078)" class="st1 st21" style="font-size:9.5602px;">EEF8FD</text>
				</g>
				<g>
					<rect x="-31.5" y="180.5" class="st4" width="55.3" height="12.8"/>
					<text transform="matrix(1 0 0 1 -31.4696 187.7206)" class="st1 st21" style="font-size:8.1945px;">Hex</text>
				</g>
				<g>
					<rect x="23.2" y="168.8" class="st4" width="64.8" height="12.8"/>
					<text transform="matrix(1 0 0 1 23.1603 177.078)" class="st1 st21" style="font-size:9.5602px;">238, 248, 253</text>
				</g>
				<g>
					<rect x="23.2" y="180.5" class="st4" width="55.3" height="12.8"/>
					<text transform="matrix(1 0 0 1 23.1603 187.7206)" class="st1 st21" style="font-size:8.1945px;">RGB</text>
				</g>
			</g>
			<g>
				<rect x="-190.6" y="356.7" class="st14" width="91.5" height="15"/>
				<text transform="matrix(1 0 0 1 -190.6399 366.0292)" class="st13 st21" style="font-size:10.9259px;">Light Pink</text>
				<rect x="-190.6" y="412.5" class="st28" width="130.3" height="31.7"/>
				<rect x="-190.6" y="370.9" class="st29" width="130.3" height="41.6"/>
				<g>
					<rect x="-184.3" y="418.9" class="st4" width="55.3" height="12.8"/>
					<text transform="matrix(1 0 0 1 -184.2815 427.1981)" class="st1 st21" style="font-size:9.5602px;">E9102A</text>
				</g>
				<g>
					<rect x="-184.3" y="430.6" class="st4" width="55.3" height="12.8"/>
					<text transform="matrix(1 0 0 1 -184.2815 437.8407)" class="st1 st21" style="font-size:8.1945px;">Hex</text>
				</g>
				<g>
					<rect x="-129.7" y="418.9" class="st4" width="75.7" height="12.8"/>
					<text transform="matrix(1 0 0 1 -129.6516 427.1981)" class="st1 st21" style="font-size:9.5602px;">233, 16, 42</text>
				</g>
				<g>
					<rect x="-129.7" y="430.6" class="st4" width="55.3" height="12.8"/>
					<text transform="matrix(1 0 0 1 -129.6516 437.8407)" class="st1 st21" style="font-size:8.1945px;">RGB</text>
				</g>
			</g>
			<g>
				<rect x="-37.8" y="356.7" class="st14" width="91.5" height="15"/>
				<text transform="matrix(1 0 0 1 -37.7735 366.0292)" class="st13 st21" style="font-size:10.9259px;">Yellow</text>
				<rect x="-37.7" y="412.5" class="st28" width="130.3" height="31.7"/>
				<rect x="-37.7" y="370.9" class="st30" width="130.3" height="41.6"/>
				<g>
					<rect x="-31.4" y="418.9" class="st4" width="55.3" height="12.8"/>
					<text transform="matrix(1 0 0 1 -31.4151 427.1981)" class="st1 st21" style="font-size:9.5602px;">F2F100</text>
				</g>
				<g>
					<rect x="-31.4" y="430.6" class="st4" width="55.3" height="12.8"/>
					<text transform="matrix(1 0 0 1 -31.4151 437.8407)" class="st1 st21" style="font-size:8.1945px;">Hex</text>
				</g>
				<g>
					<rect x="23.2" y="418.9" class="st4" width="75.7" height="12.8"/>
					<text transform="matrix(1 0 0 1 23.2138 427.1981)" class="st1 st21" style="font-size:9.5602px;">242, 241, 0</text>
				</g>
				<g>
					<rect x="23.2" y="430.6" class="st4" width="55.3" height="12.8"/>
					<text transform="matrix(1 0 0 1 23.2138 437.8407)" class="st1 st21" style="font-size:8.1945px;">RGB</text>
				</g>
			</g>
			<g>
				<rect x="115.1" y="356.7" class="st14" width="91.5" height="15"/>
				<text transform="matrix(1 0 0 1 115.0928 366.0292)" class="st13 st21" style="font-size:10.9259px;">Red</text>
				<rect x="115.2" y="412.5" class="st28" width="130.3" height="31.7"/>
				<rect x="115.2" y="370.9" class="st31" width="130.3" height="41.6"/>
				<g>
					<rect x="121.5" y="418.9" class="st4" width="55.3" height="12.8"/>
					<text transform="matrix(1 0 0 1 121.4512 427.1981)" class="st1 st21" style="font-size:9.5602px;">808184</text>
				</g>
				<g>
					<rect x="121.5" y="430.6" class="st4" width="55.3" height="12.8"/>
					<text transform="matrix(1 0 0 1 121.4512 437.8407)" class="st1 st21" style="font-size:8.1945px;">Hex</text>
				</g>
				<g>
					<rect x="176.1" y="418.9" class="st4" width="75.7" height="12.8"/>
					<text transform="matrix(1 0 0 1 176.0811 427.1981)" class="st1 st21" style="font-size:9.5602px;">233, 16, 42</text>
				</g>
				<g>
					<rect x="176.1" y="430.6" class="st4" width="55.3" height="12.8"/>
					<text transform="matrix(1 0 0 1 176.0811 437.8407)" class="st1 st21" style="font-size:8.1945px;">RGB</text>
				</g>
			</g>
			<g>
				<rect x="268" y="356.7" class="st14" width="91.5" height="15"/>
				<text transform="matrix(1 0 0 1 267.9591 366.0292)" class="st13 st21" style="font-size:10.9259px;">Blue</text>
				<rect x="268" y="412.5" class="st28" width="130.3" height="31.7"/>
				<rect x="268" y="370.9" class="st27" width="130.3" height="41.6"/>
				<g>
					<rect x="274.3" y="418.9" class="st4" width="55.3" height="12.8"/>
					<text transform="matrix(1 0 0 1 274.3175 427.1981)" class="st1 st21" style="font-size:9.5602px;">146CC5</text>
				</g>
				<g>
					<rect x="274.3" y="430.6" class="st4" width="55.3" height="12.8"/>
					<text transform="matrix(1 0 0 1 274.3175 437.8407)" class="st1 st21" style="font-size:8.1945px;">Hex</text>
				</g>
				<g>
					<rect x="328.9" y="418.9" class="st4" width="75.7" height="12.8"/>
					<text transform="matrix(1 0 0 1 328.9474 427.1981)" class="st1 st21" style="font-size:9.5602px;">20, 108, 197</text>
				</g>
				<g>
					<rect x="328.9" y="430.6" class="st4" width="55.3" height="12.8"/>
					<text transform="matrix(1 0 0 1 328.9474 437.8407)" class="st1 st21" style="font-size:8.1945px;">RGB</text>
				</g>
			</g>
			<g>
				<rect x="115.1" y="232.3" class="st14" width="91.5" height="15"/>
				<text transform="matrix(1 0 0 1 115.0656 241.6229)" class="st13 st21" style="font-size:10.9259px;">Burnt Orange</text>
				<rect x="115.1" y="288.1" class="st28" width="130.3" height="31.7"/>
				<rect x="115.1" y="246.5" class="st16" width="130.3" height="41.6"/>
				<g>
					<rect x="121.4" y="294.5" class="st4" width="55.3" height="12.8"/>
					<text transform="matrix(1 0 0 1 121.424 302.7919)" class="st1 st21" style="font-size:9.5602px;">FE9C04</text>
				</g>
				<g>
					<rect x="121.4" y="306.2" class="st4" width="55.3" height="12.8"/>
					<text transform="matrix(1 0 0 1 121.424 313.4335)" class="st1 st21" style="font-size:8.1945px;">Hex</text>
				</g>
				<g>
					<rect x="176.1" y="294.5" class="st4" width="55.3" height="12.8"/>
					<text transform="matrix(1 0 0 1 176.0539 302.7919)" class="st1 st21" style="font-size:9.5602px;">254, 156, 4</text>
				</g>
				<g>
					<rect x="176.1" y="306.2" class="st4" width="55.3" height="12.8"/>
					<text transform="matrix(1 0 0 1 176.0539 313.4335)" class="st1 st21" style="font-size:8.1945px;">RGB</text>
				</g>
			</g>
			<g>
				<rect x="268" y="232.3" class="st14" width="91.5" height="15"/>
				<text transform="matrix(1 0 0 1 267.9591 241.6229)" class="st13 st21" style="font-size:10.9259px;">Lime Green</text>
				<rect x="268" y="288.1" class="st28" width="130.3" height="31.7"/>
				<rect x="268" y="246.5" class="st9" width="130.3" height="41.6"/>
				<g>
					<rect x="274.3" y="294.5" class="st4" width="55.3" height="12.8"/>
					<text transform="matrix(1 0 0 1 274.3175 302.7919)" class="st1 st21" style="font-size:9.5602px;">0CB20F</text>
				</g>
				<g>
					<rect x="274.3" y="306.2" class="st4" width="55.3" height="12.8"/>
					<text transform="matrix(1 0 0 1 274.3175 313.4335)" class="st1 st21" style="font-size:8.1945px;">Hex</text>
				</g>
				<g>
					<rect x="328.9" y="294.5" class="st4" width="55.3" height="12.8"/>
					<text transform="matrix(1 0 0 1 328.9474 302.7919)" class="st1 st21" style="font-size:9.5602px;">12, 178, 15</text>
				</g>
				<g>
					<rect x="328.9" y="306.2" class="st4" width="55.3" height="12.8"/>
					<text transform="matrix(1 0 0 1 328.9474 313.4335)" class="st1 st21" style="font-size:8.1945px;">RGB</text>
				</g>
			</g>
			<g>
				<rect x="-190.7" y="232.3" class="st14" width="91.5" height="15"/>
				<text transform="matrix(1 0 0 1 -190.7215 241.6229)" class="st13 st21" style="font-size:10.9259px;">Tan</text>
				<rect x="-190.6" y="288.1" class="st28" width="130.3" height="31.7"/>
				<rect x="-190.6" y="246.5" class="st32" width="130.3" height="41.6"/>
				<g>
					<rect x="-184.4" y="294.5" class="st4" width="55.3" height="12.8"/>
					<text transform="matrix(1 0 0 1 -184.3631 302.7919)" class="st1 st21" style="font-size:9.5602px;">FFECCB</text>
				</g>
				<g>
					<rect x="-184.4" y="306.2" class="st4" width="55.3" height="12.8"/>
					<text transform="matrix(1 0 0 1 -184.3631 313.4335)" class="st1 st21" style="font-size:8.1945px;">Hex</text>
				</g>
				<g>
					<rect x="-129.7" y="294.5" class="st4" width="64.8" height="12.8"/>
					<text transform="matrix(1 0 0 1 -129.7337 302.7919)" class="st1 st21" style="font-size:9.5602px;">255, 236, 203</text>
				</g>
				<g>
					<rect x="-129.7" y="306.2" class="st4" width="55.3" height="12.8"/>
					<text transform="matrix(1 0 0 1 -129.7337 313.4335)" class="st1 st21" style="font-size:8.1945px;">RGB</text>
				</g>
			</g>
			<g>
				<rect x="-37.8" y="232.3" class="st14" width="91.5" height="15"/>
				<text transform="matrix(1 0 0 1 -37.828 241.6229)" class="st13 st21" style="font-size:10.9259px;">Light Green</text>
				<rect x="-37.7" y="288.1" class="st28" width="130.3" height="31.7"/>
				<rect x="-37.7" y="246.5" class="st33" width="130.3" height="41.6"/>
				<g>
					<rect x="-31.5" y="294.5" class="st4" width="55.3" height="12.8"/>
					<text transform="matrix(1 0 0 1 -31.4696 302.7919)" class="st1 st21" style="font-size:9.5602px;">0BB10E</text>
				</g>
				<g>
					<rect x="-31.5" y="306.2" class="st4" width="55.3" height="12.8"/>
					<text transform="matrix(1 0 0 1 -31.4696 313.4335)" class="st1 st21" style="font-size:8.1945px;">Hex</text>
				</g>
				<g>
					<rect x="23.2" y="294.5" class="st4" width="55.3" height="12.8"/>
					<text transform="matrix(1 0 0 1 23.1603 302.7919)" class="st1 st21" style="font-size:9.5602px;">11, 177, 14</text>
				</g>
				<g>
					<rect x="23.2" y="306.2" class="st4" width="55.3" height="12.8"/>
					<text transform="matrix(1 0 0 1 23.1603 313.4335)" class="st1 st21" style="font-size:8.1945px;">RGB</text>
				</g>
			</g>
		</g>
	</g>
</g>
</svg>
