<svg id="_-----_Artwork" data-name="----- Artwork" xmlns="http://www.w3.org/2000/svg" viewBox="0 0 42 42"><defs><style>.cls-1{fill:#eff9fe;}.cls-2{fill:#3d6480;}</style></defs><title>MQTT-Producer</title><polygon class="cls-1" points="32 32 32 10 17.46 10 10 17.57 10 32 32 32"/><polygon class="cls-2" points="32 10 32 32 10 32 10 17.57 8 19.46 8 34 34 34 34 8 19.46 8 17.46 10 32 10"/><polygon class="cls-2" points="9.3 8.2 4.07 2.98 2.73 4.32 7.96 9.54 4.81 9.54 4.81 11.45 11.2 11.44 11.2 5.12 9.3 5.12 9.3 8.2"/><path class="cls-2" d="M24.87,21.66c-.08-1.51-.17-3.32-.16-4.66h0c-.37,1.26-.82,2.61-1.37,4.1l-1.9,5.23H20.34L18.6,21.19c-.51-1.52-.94-2.91-1.25-4.19h0c0,1.34-.11,3.15-.21,4.77l-.29,4.62H15.49l.76-10.78H18l1.84,5.21c.45,1.33.82,2.52,1.09,3.64H21c.27-1.09.66-2.28,1.14-3.64l1.92-5.21h1.77l.68,10.78H25.15Z"/></svg>