<?xml version="1.0" encoding="utf-8"?>
<!-- Generator: Adobe Illustrator 17.0.0, SVG Export Plug-In . SVG Version: 6.00 Build 0)  -->
<!DOCTYPE svg PUBLIC "-//W3C//DTD SVG 1.1//EN" "http://www.w3.org/Graphics/SVG/1.1/DTD/svg11.dtd">
<svg version="1.1" id="Layer_1" xmlns="http://www.w3.org/2000/svg" xmlns:xlink="http://www.w3.org/1999/xlink" x="0px" y="0px"
	 width="42px" height="42px" viewBox="0 0 42 42" enable-background="new 0 0 42 42" xml:space="preserve">
<g>
	<polygon fill="#3D6480" points="11.922,5.475 10.021,5.475 10.021,8.557 4.798,3.333 3.454,4.676 8.679,9.903 5.533,9.903 
		5.534,11.803 11.922,11.8 	"/>
	<path fill="#FFECCE" d="M32.34,32.168V9.867H17.86l-7.82,7.819v14.481H32.34z M14.202,14.029c7.719,0,13.977,6.257,13.977,13.977
		h-2.131c0-6.543-5.303-11.847-11.846-11.847V14.029z M14.202,19.491c4.702,0,8.514,3.813,8.514,8.515h-2.13
		c0-3.526-2.858-6.384-6.384-6.384V19.491z M15.706,24.997c0.831,0,1.504,0.674,1.504,1.505c0,0.83-0.673,1.504-1.504,1.504
		c-0.83,0-1.504-0.674-1.504-1.504C14.202,25.671,14.876,24.997,15.706,24.997z"/>
	<polygon fill="#3D6480" points="19.559,8.168 17.86,9.867 32.34,9.867 32.34,32.168 10.04,32.168 10.04,17.686 8.34,19.386 
		8.34,33.867 34.04,33.867 34.04,8.168 	"/>
	<path fill="#3D6480" d="M26.048,28.006h2.131c0-7.72-6.258-13.977-13.977-13.977v2.13C20.745,16.159,26.048,21.463,26.048,28.006z"
		/>
	<path fill="#3D6480" d="M20.586,28.006h2.13c0-4.702-3.812-8.515-8.514-8.515v2.131C17.727,21.622,20.586,24.479,20.586,28.006z"/>
	<circle fill="#3D6480" cx="15.706" cy="26.501" r="1.504"/>
</g>
</svg>
