<?xml version="1.0" encoding="utf-8"?>
<!-- Generator: Adobe Illustrator 17.0.0, SVG Export Plug-In . SVG Version: 6.00 Build 0)  -->
<!DOCTYPE svg PUBLIC "-//W3C//DTD SVG 1.1//EN" "http://www.w3.org/Graphics/SVG/1.1/DTD/svg11.dtd">
<svg version="1.1" id="Layer_1" xmlns="http://www.w3.org/2000/svg" xmlns:xlink="http://www.w3.org/1999/xlink" x="0px" y="0px"
	 width="42px" height="42px" viewBox="0 0 42 42" enable-background="new 0 0 42 42" xml:space="preserve">
<polygon fill="#0CB20F" points="30.901,39.076 27.225,35.401 28.569,34.058 30.901,36.389 37.822,29.467 39.166,30.811 "/>
<g>
	<path fill="#DBF3DB" d="M26.546,18.997h-1.075v4.005h1.075c0.771,0,0.969-0.295,0.969-0.877v-2.25
		C27.515,19.293,27.318,18.997,26.546,18.997z"/>
	<path fill="#DBF3DB" d="M25.795,13.053V8.795H12.416v24.41h10.653l7.021-7.021l-0.038-13.131H25.795z M17.833,23.869l-1.368-2.135
		l-1.359,2.135h-1.034l1.86-2.911l-1.802-2.827h1.034l1.301,2.051l1.311-2.051h1.033l-1.811,2.827l1.869,2.911H17.833z
		 M21.35,23.952c-0.541,0-1.193-0.102-1.681-0.298l-0.089-0.036l0.16-0.798l0.121,0.038c0.494,0.154,1.013,0.235,1.504,0.235
		c0.838,0,0.953-0.194,0.953-0.746c0-0.178,0-0.315-0.018-0.426c-0.016-0.1-0.045-0.16-0.094-0.208
		c-0.115-0.113-0.359-0.189-0.94-0.32c-1.38-0.309-1.579-0.608-1.579-1.808c0-1.037,0.464-1.538,1.877-1.538
		c0.488,0,1.068,0.067,1.518,0.186l0.096,0.025l-0.08,0.831l-0.127-0.029c-0.432-0.098-0.943-0.154-1.39-0.154
		c-0.861,0-0.952,0.151-0.952,0.704c0,0.183,0,0.322,0.016,0.433c0.016,0.099,0.042,0.157,0.088,0.203
		c0.107,0.108,0.338,0.179,0.901,0.319c1.506,0.375,1.626,0.629,1.626,1.766C23.26,23.355,22.926,23.952,21.35,23.952z
		 M28.456,22.175c0,0.936-0.47,1.694-1.886,1.694h-2.041v-5.738h2.041c1.416,0,1.886,0.759,1.886,1.694V22.175z"/>
	<polygon fill="#3D6480" points="12.416,33.205 12.416,8.795 25.795,8.795 25.795,13.053 30.052,13.053 30.09,26.184 31.785,24.489 
		31.752,13.062 30.043,11.353 27.495,11.353 27.495,8.806 25.785,7.096 10.716,7.096 10.716,34.904 21.369,34.904 23.068,33.205 	
		"/>
	<polygon fill="#3D6480" points="18.809,18.131 17.776,18.131 16.465,20.182 15.164,18.131 14.13,18.131 15.932,20.958 
		14.071,23.869 15.106,23.869 16.465,21.734 17.833,23.869 18.867,23.869 16.998,20.958 	"/>
	<path fill="#3D6480" d="M21.634,20.565c-0.563-0.141-0.794-0.211-0.901-0.319c-0.046-0.046-0.072-0.104-0.088-0.203
		c-0.016-0.11-0.016-0.25-0.016-0.433c0-0.553,0.091-0.704,0.952-0.704c0.446,0,0.958,0.057,1.39,0.154l0.127,0.029l0.08-0.831
		l-0.096-0.025c-0.449-0.118-1.029-0.186-1.518-0.186c-1.413,0-1.877,0.501-1.877,1.538c0,1.199,0.199,1.499,1.579,1.808
		c0.581,0.131,0.825,0.207,0.94,0.32c0.049,0.048,0.078,0.108,0.094,0.208c0.018,0.11,0.018,0.248,0.018,0.426
		c0,0.552-0.115,0.746-0.953,0.746c-0.491,0-1.01-0.081-1.504-0.235L19.74,22.82l-0.16,0.798l0.089,0.036
		c0.487,0.196,1.14,0.298,1.681,0.298c1.576,0,1.91-0.597,1.91-1.621C23.26,21.194,23.14,20.94,21.634,20.565z"/>
	<path fill="#3D6480" d="M26.57,18.131h-2.041v5.738h2.041c1.416,0,1.886-0.759,1.886-1.694v-2.35
		C28.456,18.89,27.987,18.131,26.57,18.131z M27.515,22.125c0,0.582-0.197,0.877-0.969,0.877h-1.075v-4.005h1.075
		c0.771,0,0.969,0.296,0.969,0.878V22.125z"/>
</g>
</svg>
