<?xml version="1.0" encoding="UTF-8" standalone="no"?>
<svg
   xmlns:dc="http://purl.org/dc/elements/1.1/"
   xmlns:cc="http://creativecommons.org/ns#"
   xmlns:rdf="http://www.w3.org/1999/02/22-rdf-syntax-ns#"
   xmlns:svg="http://www.w3.org/2000/svg"
   xmlns="http://www.w3.org/2000/svg"
   xml:space="preserve"
   style="enable-background:new 0 0 71 19;"
   viewBox="0 0 71 19"
   height="19px"
   width="71px"
   y="0px"
   x="0px"
   id="Layer_1"
   version="1.1"><metadata
     id="metadata996"><rdf:RDF><cc:Work
         rdf:about=""><dc:format>image/svg+xml</dc:format><dc:type
           rdf:resource="http://purl.org/dc/dcmitype/StillImage" /><dc:title></dc:title></cc:Work></rdf:RDF></metadata><defs
     id="defs994" /><style
     id="style971"
     type="text/css">
	.st0{fill:#666666;}
	.st1{fill:#CCCCCC;}
	.st2{fill:#005DA6;}
</style><g
     id="g977"><path
       id="path973"
       d="M26,14.1v-10h16v6l2-2v-6H33.5l-1.9-2l0,0l0,0l0,0H24v16h12l2-2H26z M25.9,2.1h4.9l0.9,1h-5.8V2.1z"
       class="st0" /><polygon
       id="polygon975"
       points="46.8,14.1 44,14.1 44,11.2 42,11.2 42,14.1 39.1,14.1 39.1,16.1 42,16.1 42,18.9 44,18.9 44,16.1    46.8,16.1  "
       class="st0" /></g><g
     id="g983"><path
       id="path979"
       d="M2,14.1v-10h16v6l2-2v-6H9.5l-1.9-2l0,0l0,0l0,0H0v16h12l2-2H2z M1.9,2.1h4.9l0.9,1H1.9V2.1z"
       class="st1" /><polygon
       id="polygon981"
       points="22.8,14.1 20,14.1 20,11.2 18,11.2 18,14.1 15.1,14.1 15.1,16.1 18,16.1 18,18.9 20,18.9 20,16.1    22.8,16.1  "
       class="st1" /></g><g
     transform="translate(-0.2)"
     id="g989"><path
       style="fill:#005da6"
       id="path985"
       d="m 50.2,14.1 v -10 h 16 v 6 l 2,-2 v -6 H 57.7 l -1.9,-2 v 0 0 0 h -7.6 v 16 h 12 l 2,-2 h -12 z M 50.1,2.1 H 55 l 0.9,1 h -5.8 c 0,0 0,-1 0,-1 z"
       class="st2" /><polygon
       style="fill:#005da6"
       id="polygon987"
       points="68.1,14.1 68.1,11.2 66.1,11.2 66.1,14.1 63.3,14.1 63.3,16.1 66.1,16.1 66.1,18.9 68.1,18.9 68.1,16.1 71,16.1 71,14.1 "
       class="st2" /></g></svg>