<?xml version="1.0" encoding="utf-8"?>
<!-- Generator: Adobe Illustrator 23.1.1, SVG Export Plug-In . SVG Version: 6.00 Build 0)  -->
<svg version="1.1" id="Layer_1" xmlns="http://www.w3.org/2000/svg" xmlns:xlink="http://www.w3.org/1999/xlink" x="0px" y="0px"
	 viewBox="0 0 32 32" style="enable-background:new 0 0 32 32;" xml:space="preserve">
<style type="text/css">
	.st0{clip-path:url(#SVGID_2_);}
	.st1{fill:none;}
	.st2{fill:#FFFFFF;}
</style>
<g>
	<defs>
		<rect id="SVGID_1_" width="32" height="32"/>
	</defs>
	<clipPath id="SVGID_2_">
		<use xlink:href="#SVGID_1_"  style="overflow:visible;"/>
	</clipPath>
	<g id="Cloud.S_D" class="st0">
		<rect id="Rectangle_2459" class="st1" width="32" height="32"/>
		<g id="Union_296">
			<path id="Path_3717" class="st1" d="M20.5,22H12c-2.2,0-4-1.8-4-4c0-1.4,0.8-2.7,2-3.5v0c0-2.5,2-4.5,4.5-4.5
				c1.5,0,3,0.8,3.8,2.1c1.6-0.4,3.2,0.6,3.6,2.2c0.1,0.3,0.1,0.7,0.1,1c1.8,0.8,2.5,2.9,1.7,4.7C23.1,21.2,21.9,22,20.5,22L20.5,22
				z"/>
			<path id="Path_3718" class="st2" d="M19.5,21h1c1.4,0,2.5-1.1,2.5-2.5c0-1-0.6-1.9-1.4-2.3l-0.6-0.3l0.1-0.7
				c0.1-1.1-0.7-2.1-1.8-2.2c-0.2,0-0.5,0-0.7,0l-0.7,0.2l-0.4-0.6c-1-1.6-3.2-2.1-4.8-1.1c-1,0.6-1.6,1.8-1.6,2.9v0.6l-0.5,0.3
				c-1.4,0.8-1.9,2.7-1.1,4.1C9.9,20.4,10.9,21,12,21H19.5 M20.5,22H12c-2.2,0-4-1.8-4-4c0-1.4,0.8-2.8,2-3.5v0c0-2.5,2-4.5,4.5-4.5
				c1.5,0,3,0.8,3.8,2.1c1.6-0.4,3.2,0.6,3.6,2.2C22,14.5,22,14.8,22,15c0,0.1,0,0.2,0,0.3c1.8,0.8,2.5,2.9,1.7,4.7
				C23.1,21.2,21.9,22,20.5,22z"/>
		</g>
	</g>
</g>
</svg>
