<?xml version="1.0" encoding="utf-8"?>
<!-- Generator: Adobe Illustrator 23.1.1, SVG Export Plug-In . SVG Version: 6.00 Build 0)  -->
<svg version="1.1" id="Layer_1" xmlns="http://www.w3.org/2000/svg" xmlns:xlink="http://www.w3.org/1999/xlink" x="0px" y="0px"
	 viewBox="0 0 32 32" style="enable-background:new 0 0 32 32;" xml:space="preserve">
<style type="text/css">
	.st0{clip-path:url(#SVGID_2_);}
	.st1{fill:none;}
	.st2{fill:#FFFFFF;}
</style>
<g>
	<defs>
		<rect id="SVGID_1_" width="32" height="32"/>
	</defs>
	<clipPath id="SVGID_2_">
		<use xlink:href="#SVGID_1_"  style="overflow:visible;"/>
	</clipPath>
	<g id="Disk.S_D" class="st0">
		<rect id="Rectangle_724" class="st1" width="32" height="32"/>
		<path id="Path_1968" class="st2" d="M16,8c-4.4,0-8,3.6-8,8s3.6,8,8,8s8-3.6,8-8C24,11.6,20.4,8,16,8z M23,16
			c0,1.1-0.3,2.1-0.7,3.1l-3.5-2c0.1-0.3,0.2-0.7,0.2-1c0-1.6-1.2-3-2.9-3c-0.4,0-0.8,0.1-1.1,0.2l-2-3.5c1-0.5,2-0.7,3.1-0.7
			C19.8,9,22.9,12,23,15.8C23,15.8,23,15.9,23,16z M18,16c0,1.1-0.9,2-2,2s-2-0.9-2-2s0.9-2,2-2C17.1,14,18,14.9,18,16z M12.1,10.2
			l2,3.5l-0.4,0.4l-3.5-2C10.7,11.3,11.3,10.7,12.1,10.2z M9,16c0-1.1,0.3-2.1,0.7-3.1l3.5,2c-0.1,0.3-0.2,0.7-0.2,1
			c0,1.6,1.2,3,2.9,3c0.4,0,0.8-0.1,1.1-0.2l2,3.5c-1,0.5-2,0.7-3.1,0.7C12.2,23,9.1,20,9,16.2C9,16.2,9,16.1,9,16z M19.9,21.8
			l-2-3.5l0.4-0.4l3.5,2C21.3,20.7,20.7,21.3,19.9,21.8z"/>
	</g>
</g>
</svg>
