<svg xmlns="http://www.w3.org/2000/svg" xmlns:xlink="http://www.w3.org/1999/xlink" width="32" height="32" viewBox="0 0 32 32">
  <defs>
    <clipPath id="clip-path">
      <rect width="32" height="32" fill="none"/>
    </clipPath>
  </defs>
  <g id="Disk.S_D" clip-path="url(#clip-path)">
    <rect id="Rectangle_724" data-name="Rectangle 724" width="32" height="32" fill="none"/>
    <path id="Path_1968" data-name="Path 1968" d="M452,419a8,8,0,1,0,8,8A8.024,8.024,0,0,0,452,419Zm7,8a8.244,8.244,0,0,1-.7,3.1l-3.5-2a3.553,3.553,0,0,0,.2-1,2.934,2.934,0,0,0-4-2.8l-2-3.5a6.428,6.428,0,0,1,3.1-.7A6.788,6.788,0,0,1,459,427Zm-5,0a2,2,0,1,1-2-2A2.006,2.006,0,0,1,454,427Zm-5.9-5.8,2,3.5-.4.4-3.5-2A5.752,5.752,0,0,1,448.1,421.2ZM445,427a8.244,8.244,0,0,1,.7-3.1l3.5,2a3.553,3.553,0,0,0-.2,1,2.934,2.934,0,0,0,4,2.8l2,3.5a6.428,6.428,0,0,1-3.1.7A6.788,6.788,0,0,1,445,427Zm10.9,5.8-2-3.5.4-.4,3.5,2A5.752,5.752,0,0,1,455.9,432.8Z" transform="translate(-436 -411)" fill="#414141"/>
  </g>
</svg>
