<?xml version="1.0" encoding="utf-8"?>
<!-- Generator: Adobe Illustrator 20.1.0, SVG Export Plug-In . SVG Version: 6.00 Build 0)  -->
<svg version="1.1" id="Layer_1" xmlns="http://www.w3.org/2000/svg" xmlns:xlink="http://www.w3.org/1999/xlink" x="0px" y="0px"
	 width="65px" height="32px" viewBox="0 0 65 32" style="enable-background:new 0 0 65 32;" xml:space="preserve">
<style type="text/css">
	.st0{fill:#FF9C04;}
	.st1{fill:#FFFFFF;}
</style>
<g>
	<polygon class="st0" points="22.1,14.1 22.1,10.5 26,10.5 17.9,2.5 20.4,0 28.5,8 28.5,4.2 32,4.2 32,14.1 	"/>
	<polygon class="st0" points="17.9,22.1 21.5,22.1 21.5,26 29.5,17.9 32,20.4 24,28.5 27.8,28.5 27.8,32 17.9,32 	"/>
	<polygon class="st0" points="9.9,17.9 9.9,21.5 6,21.5 14.1,29.5 11.6,32 3.5,24 3.5,27.8 0,27.8 0,17.9 	"/>
	<polygon class="st0" points="14.1,9.9 10.5,9.9 10.5,6 2.5,14.1 0,11.6 8,3.5 4.2,3.5 4.2,0 14.1,0 	"/>
</g>
<g>
	<polygon class="st1" points="55.1,14.1 55.1,10.5 59,10.5 50.9,2.5 53.4,0 61.5,8 61.5,4.2 65,4.2 65,14.1 	"/>
	<polygon class="st1" points="50.9,22.1 54.5,22.1 54.5,26 62.5,17.9 65,20.4 57,28.5 60.8,28.5 60.8,32 50.9,32 	"/>
	<polygon class="st1" points="42.9,17.9 42.9,21.5 39,21.5 47.1,29.5 44.6,32 36.5,24 36.5,27.8 33,27.8 33,17.9 	"/>
	<polygon class="st1" points="47.1,9.9 43.5,9.9 43.5,6 35.5,14.1 33,11.6 41,3.5 37.2,3.5 37.2,0 47.1,0 	"/>
</g>
</svg>
