<?xml version="1.0" encoding="UTF-8" standalone="no"?>
<svg
   xmlns:dc="http://purl.org/dc/elements/1.1/"
   xmlns:cc="http://creativecommons.org/ns#"
   xmlns:rdf="http://www.w3.org/1999/02/22-rdf-syntax-ns#"
   xmlns:svg="http://www.w3.org/2000/svg"
   xmlns="http://www.w3.org/2000/svg"
   height="16"
   width="23"
   version="1.1"
   viewBox="0 0 23 16"
   data-name="Layer 1"
   id="Layer_1">
  <metadata
     id="metadata35">
    <rdf:RDF>
      <cc:Work
         rdf:about="">
        <dc:format>image/svg+xml</dc:format>
        <dc:type
           rdf:resource="http://purl.org/dc/dcmitype/StillImage" />
        <dc:title>ico_Local_1</dc:title>
      </cc:Work>
    </rdf:RDF>
  </metadata>
  <defs
     id="defs4">
    <style
       id="style2">.cls-1{fill:#676767;}.cls-2{fill:#fff;}</style>
  </defs>
  <title
     id="title6">ico_Local_1</title>
  <g
     transform="matrix(1.0328638,0,0,1,0,-2)"
     id="g848">
    <path
       style="fill:#676767"
       class="cls-1"
       d="m 7.77,15.24 h -2 v -1.38 h 2 z M 2.86,4.87 H 7.77 V 6 H 2.86 Z m 0,2.58 H 7.77 V 8.59 H 2.86 Z m 0,2.58 h 4.91 v 1.14 H 2.86 Z"
       id="path8" />
    <path
       style="fill:#676767"
       class="cls-1"
       d="M 0,2 V 18 H 10.65 V 2 Z M 9.36,16.69 H 1.29 V 3.31 h 8.07 z"
       id="path10" />
    <rect
       style="fill:#676767"
       class="cls-1"
       x="2.8599999"
       y="4.8699999"
       width="4.9099998"
       height="1.14"
       id="rect12" />
    <rect
       style="fill:#676767"
       class="cls-1"
       x="2.8599999"
       y="7.4499998"
       width="4.9099998"
       height="1.14"
       id="rect14" />
    <rect
       style="fill:#676767"
       class="cls-1"
       x="2.8599999"
       y="10.03"
       width="4.9099998"
       height="1.14"
       id="rect16" />
    <rect
       style="fill:#676767"
       class="cls-1"
       x="5.8099999"
       y="13.86"
       width="1.96"
       height="1.38"
       id="rect18" />
  </g>
  <g
     transform="matrix(1.0309278,0,0,1,-0.0103085,-2)"
     id="g856">
    <path
       style="fill:#ffffff"
       class="cls-2"
       d="m 19.44,15.24 h -2 v -1.38 h 2 z M 14.53,4.87 h 4.91 V 6 h -4.91 z m 0,2.58 h 4.91 v 1.14 h -4.91 z m 0,2.58 h 4.91 v 1.14 h -4.91 z"
       id="path20" />
    <path
       style="fill:#ffffff"
       class="cls-2"
       d="M 11.65,2 V 18 H 22.32 V 2 Z M 21,16.69 H 13 V 3.31 h 8 z"
       id="path22" />
    <rect
       style="fill:#ffffff"
       class="cls-2"
       x="14.53"
       y="4.8699999"
       width="4.9099998"
       height="1.14"
       id="rect24" />
    <rect
       style="fill:#ffffff"
       class="cls-2"
       x="14.53"
       y="7.4499998"
       width="4.9099998"
       height="1.14"
       id="rect26" />
    <rect
       style="fill:#ffffff"
       class="cls-2"
       x="14.53"
       y="10.03"
       width="4.9099998"
       height="1.14"
       id="rect28" />
    <rect
       style="fill:#ffffff"
       class="cls-2"
       x="17.48"
       y="13.86"
       width="1.96"
       height="1.38"
       id="rect30" />
  </g>
</svg>
