<svg xmlns="http://www.w3.org/2000/svg" xmlns:xlink="http://www.w3.org/1999/xlink" width="32" height="32" viewBox="0 0 32 32">
  <defs>
    <clipPath id="clip-path">
      <rect width="32" height="32" fill="none"/>
    </clipPath>
  </defs>
  <g id="People.S_D" clip-path="url(#clip-path)">
    <rect id="Rectangle_724" data-name="Rectangle 724" width="32" height="32" fill="none"/>
    <path id="Path_1961" data-name="Path 1961" d="M359,177.9a3.5,3.5,0,0,0,1.5-2.9,3.5,3.5,0,0,0-7,0,1.268,1.268,0,0,0,.1.6,1.182,1.182,0,0,0-.6-.1,3.543,3.543,0,0,0-3.5,3.5,3.646,3.646,0,0,0,1.5,2.9,5.426,5.426,0,0,0-3.5,5.1h1a4.5,4.5,0,0,1,9,0h1a5.574,5.574,0,0,0-3.5-5.1,3.5,3.5,0,0,0,1.5-2.9,2.664,2.664,0,0,0,0-.4c.454-.138.3-.1.5-.1a4.481,4.481,0,0,1,4.5,4.5h1A5.574,5.574,0,0,0,359,177.9Zm-4.433-2.3a2.719,2.719,0,0,1-.067-.6,2.5,2.5,0,1,1,2.5,2.5,2.92,2.92,0,0,1-.9-.2,3.159,3.159,0,0,0-1.4-1.4ZM353,181.5a2.5,2.5,0,1,1,2.5-2.5A2.476,2.476,0,0,1,353,181.5Z" transform="translate(-339 -163)" fill="#414141"/>
  </g>
</svg>
