<?xml version="1.0" encoding="UTF-8" standalone="no"?>
<svg
   xmlns:dc="http://purl.org/dc/elements/1.1/"
   xmlns:cc="http://creativecommons.org/ns#"
   xmlns:rdf="http://www.w3.org/1999/02/22-rdf-syntax-ns#"
   xmlns:svg="http://www.w3.org/2000/svg"
   xmlns="http://www.w3.org/2000/svg"
   xmlns:sodipodi="http://sodipodi.sourceforge.net/DTD/sodipodi-0.dtd"
   xmlns:inkscape="http://www.inkscape.org/namespaces/inkscape"
   id="Layer_1"
   data-name="Layer 1"
   viewBox="0 0 57 19"
   version="1.1"
   sodipodi:docname="refresh.svg"
   width="57"
   height="19"
   inkscape:version="0.92.2 5c3e80d, 2017-08-06">
  <metadata
     id="metadata15">
    <rdf:RDF>
      <cc:Work
         rdf:about="">
        <dc:format>image/svg+xml</dc:format>
        <dc:type
           rdf:resource="http://purl.org/dc/dcmitype/StillImage" />
        <dc:title>PDI-help-dialog-toolbar-all</dc:title>
      </cc:Work>
    </rdf:RDF>
  </metadata>
  <sodipodi:namedview
     pagecolor="#ffffff"
     bordercolor="#666666"
     borderopacity="1"
     objecttolerance="10"
     gridtolerance="10"
     guidetolerance="10"
     inkscape:pageopacity="0"
     inkscape:pageshadow="2"
     inkscape:window-width="1467"
     inkscape:window-height="834"
     id="namedview13"
     showgrid="false"
     inkscape:zoom="11.313708"
     inkscape:cx="21.084499"
     inkscape:cy="7"
     inkscape:window-x="129"
     inkscape:window-y="98"
     inkscape:window-maximized="0"
     inkscape:current-layer="Layer_1" />
  <defs
     id="defs4">
    <style
       id="style2">.cls-1{fill:#3d6480;}</style>
  </defs>
  <title
     id="title6">PDI-help-dialog-toolbar-all</title>
  <g
     id="g827"
     style="fill:#666666;fill-opacity:1"
     transform="matrix(1.3846154,0,0,1.3828239,19.307692,-0.1797657)">
    <path
       id="path8"
       d="M 1.82,7 A 5.18,5.18 0 0 1 7,1.86 5.18,5.18 0 0 1 10.11,3 L 8.36,4.71 h 4.58 V 0.13 L 11.06,2 A 6.42,6.42 0 0 0 7,0.54 6.5,6.5 0 0 0 0.5,7 c 0,0.12 0,0.24 0,0.37 H 1.86 C 1.85,7.27 1.82,7.15 1.82,7 Z"
       class="cls-1"
       style="fill:#666666;fill-opacity:1"
       inkscape:connector-curvature="0" />
    <path
       id="path10"
       d="m 13.47,6.6 h -1.33 c 0,0.13 0,0.25 0,0.37 A 5.18,5.18 0 0 1 7,12.14 5.18,5.18 0 0 1 3.89,11 L 5.64,9.29 H 1.06 v 4.58 L 2.94,12 A 6.42,6.42 0 0 0 7,13.46 6.5,6.5 0 0 0 13.5,7 c 0,-0.15 -0.02,-0.27 -0.03,-0.4 z"
       class="cls-1"
       style="fill:#666666;fill-opacity:1"
       inkscape:connector-curvature="0" />
  </g>
  <g
     id="g833"
     transform="matrix(1.3846154,0,0,1.3828239,-0.69230765,-0.1797664)"
     style="fill:#cccccc;fill-opacity:1">
    <path
       class="cls-1"
       d="M 1.82,7 A 5.18,5.18 0 0 1 7,1.86 5.18,5.18 0 0 1 10.11,3 L 8.36,4.71 h 4.58 V 0.13 L 11.06,2 A 6.42,6.42 0 0 0 7,0.54 6.5,6.5 0 0 0 0.5,7 c 0,0.12 0,0.24 0,0.37 H 1.86 C 1.85,7.27 1.82,7.15 1.82,7 Z"
       id="path829"
       inkscape:connector-curvature="0"
       style="fill:#cccccc;fill-opacity:1" />
    <path
       class="cls-1"
       d="m 13.47,6.6 h -1.33 c 0,0.13 0,0.25 0,0.37 A 5.18,5.18 0 0 1 7,12.14 5.18,5.18 0 0 1 3.89,11 L 5.64,9.29 H 1.06 v 4.58 L 2.94,12 A 6.42,6.42 0 0 0 7,13.46 6.5,6.5 0 0 0 13.5,7 c 0,-0.15 -0.02,-0.27 -0.03,-0.4 z"
       id="path831"
       inkscape:connector-curvature="0"
       style="fill:#cccccc;fill-opacity:1" />
  </g>
  <g
     id="g839"
     transform="matrix(1.3846154,0,0,1.3828239,38.307692,-0.1797664)"
     style="fill:#005d9a;fill-opacity:1">
    <path
       id="path835"
       d="M 1.82,7 A 5.18,5.18 0 0 1 7,1.86 5.18,5.18 0 0 1 10.11,3 L 8.36,4.71 h 4.58 V 0.13 L 11.06,2 A 6.42,6.42 0 0 0 7,0.54 6.5,6.5 0 0 0 0.5,7 c 0,0.12 0,0.24 0,0.37 H 1.86 C 1.85,7.27 1.82,7.15 1.82,7 Z"
       class="cls-1"
       inkscape:connector-curvature="0"
       style="fill:#005d9a;fill-opacity:1" />
    <path
       id="path837"
       d="m 13.47,6.6 h -1.33 c 0,0.13 0,0.25 0,0.37 A 5.18,5.18 0 0 1 7,12.14 5.18,5.18 0 0 1 3.89,11 L 5.64,9.29 H 1.06 v 4.58 L 2.94,12 A 6.42,6.42 0 0 0 7,13.46 6.5,6.5 0 0 0 13.5,7 c 0,-0.15 -0.02,-0.27 -0.03,-0.4 z"
       class="cls-1"
       inkscape:connector-curvature="0"
       style="fill:#005d9a;fill-opacity:1" />
  </g>
</svg>
