<svg xmlns="http://www.w3.org/2000/svg" xmlns:xlink="http://www.w3.org/1999/xlink" width="32" height="32" viewBox="0 0 32 32">
  <defs>
    <clipPath id="clip-path">
      <rect width="32" height="32" fill="none"/>
    </clipPath>
  </defs>
  <g id="Refresh.S_D" clip-path="url(#clip-path)">
    <rect id="Rectangle_1010" data-name="Rectangle 1010" width="32" height="32" fill="none"/>
    <g id="Group_3994" data-name="Group 3994" transform="translate(-279.5 -990.5)">
      <g id="Group_3933" transform="translate(287.5 998.53)">
        <path id="Path_1641" d="M15.5,8A7.555,7.555,0,0,1,8,15.5" fill="none"/>
        <path id="Path_1951" data-name="Path 1951" d="M15.4,4.9a8.877,8.877,0,0,0-2.7-3.4H15V.5H10.5V5h1V1.9a7.061,7.061,0,0,1,3,3.4,6.951,6.951,0,0,1,0,5.3A7.1,7.1,0,0,1,8,14.9v1A7.958,7.958,0,0,0,15.4,11,8.052,8.052,0,0,0,15.4,4.9Z" fill="#999999"/>
      </g>
      <g id="Group_3934" transform="translate(287.5 998.53)">
        <path id="Path_1643" d="M.5,8A7.555,7.555,0,0,1,8,.5H8" fill="none"/>
        <path id="Path_1952" data-name="Path 1952" d="M8,1V0A8.061,8.061,0,0,0,.6,4.9,8.052,8.052,0,0,0,.6,11a8.722,8.722,0,0,0,2.8,3.5H1v1H5.5V11h-1v3a7.061,7.061,0,0,1-3-3.4A6.95,6.95,0,0,1,8,1Z" fill="#999999"/>
      </g>
    </g>
  </g>
</svg>
