<?xml version="1.0" encoding="UTF-8" standalone="no"?>
<svg
   xmlns:dc="http://purl.org/dc/elements/1.1/"
   xmlns:cc="http://creativecommons.org/ns#"
   xmlns:rdf="http://www.w3.org/1999/02/22-rdf-syntax-ns#"
   xmlns:svg="http://www.w3.org/2000/svg"
   xmlns="http://www.w3.org/2000/svg"
   xmlns:sodipodi="http://sodipodi.sourceforge.net/DTD/sodipodi-0.dtd"
   xmlns:inkscape="http://www.inkscape.org/namespaces/inkscape"
   id="Layer_1"
   data-name="Layer 1"
   viewBox="0 0 41 16"
   version="1.1"
   sodipodi:docname="repo.svg"
   width="41"
   height="16"
   inkscape:version="0.92.2 5c3e80d, 2017-08-06">
  <metadata
     id="metadata15">
    <rdf:RDF>
      <cc:Work
         rdf:about="">
        <dc:format>image/svg+xml</dc:format>
        <dc:type
           rdf:resource="http://purl.org/dc/dcmitype/StillImage" />
        <dc:title>ico_Pentaho_Repository_1</dc:title>
      </cc:Work>
    </rdf:RDF>
  </metadata>
  <sodipodi:namedview
     pagecolor="#ffffff"
     bordercolor="#666666"
     borderopacity="1"
     objecttolerance="10"
     gridtolerance="10"
     guidetolerance="10"
     inkscape:pageopacity="0"
     inkscape:pageshadow="2"
     inkscape:window-width="1439"
     inkscape:window-height="740"
     id="namedview13"
     showgrid="false"
     inkscape:zoom="6.985205"
     inkscape:cx="20.615"
     inkscape:cy="10"
     inkscape:window-x="0"
     inkscape:window-y="0"
     inkscape:window-maximized="0"
     inkscape:current-layer="Layer_1" />
  <defs
     id="defs4">
    <style
       id="style2">.cls-1{fill:#676767;}.cls-2{fill:#fff;}</style>
  </defs>
  <title
     id="title6">ico_Pentaho_Repository_1</title>
  <path
     class="cls-1"
     d="M 17.31252,4.9929547 H 17.183986 V 4.8628864 A 2.4718048,2.5013134 0 0 0 14.712182,2.7317673 2.3234965,2.3512346 0 0 0 13.594926,3.0019092 L 13.397182,3.1019617 13.298309,2.8918514 A 5.0325945,5.0926742 0 0 0 3.7274815,5.1330282 V 5.5032226 H 3.5099627 a 3.5099628,3.5518651 0 0 0 0,7.1037304 h 2.4421431 v 1.830962 c 0,1.450762 2.9661658,1.560819 3.9548877,1.560819 a 9.4719559,9.5850331 0 0 0 2.4322555,-0.280147 c 0.988722,-0.260136 1.42376,-0.690362 1.42376,-1.280672 v -1.870983 h 2.392707 a 3.8461282,3.8920437 0 0 0 1.245789,-7.5739773 z m -4.637105,9.4049393 a 1.3051129,1.3206935 0 0 1 -0.672331,0.310163 8.9874822,9.0947757 0 0 1 -2.1850755,0.240126 5.9323315,6.0031523 0 0 1 -2.8771807,-0.510268 v -1.480778 a 7.4846249,7.5739771 0 0 0 2.9661657,0.450237 6.9210534,7.0036777 0 0 0 2.8277445,-0.430226 z M 6.9408278,10.485839 a 7.9097753,8.004203 0 0 0 2.9661657,0.430226 7.1978955,7.2838248 0 0 0 2.8475185,-0.430226 v 1.490783 A 2.9661657,3.0015761 0 0 1 12.131617,12.196738 9.5312792,9.6450647 0 0 1 9.8971063,12.416853 7.4055271,7.4939351 0 0 1 6.9408278,11.976622 Z M 12.714963,7.1841052 A 6.8518428,6.9336409 0 0 1 9.8575574,7.6343417 6.9210534,7.0036777 0 0 1 6.9408278,7.134079 V 7.0340264 A 5.9323315,6.0031523 0 0 1 9.7982341,6.5637795 6.406918,6.4834045 0 0 1 12.7644,7.0340264 Z M 9.8476702,8.5748355 A 7.0100384,7.0937249 0 0 0 12.695189,8.1346044 V 9.4953185 A 2.4520303,2.4813029 0 0 1 12.072294,9.7254395 9.5312792,9.6450647 0 0 1 9.837783,9.9455555 7.128685,7.213788 0 0 1 6.9408278,9.5053245 V 8.1346044 A 7.9097753,8.004203 0 0 0 9.8476702,8.5748355 Z M 16.066731,11.636444 H 13.674024 V 6.9739949 c 0,-1.3106882 -2.73876,-1.460767 -3.9548877,-1.460767 -1.3940979,0 -3.7670305,0.200105 -3.7670305,1.460767 V 11.636444 H 3.5099627 a 2.5904516,2.6213768 0 0 1 0,-5.2427538 H 4.6766546 V 5.0930072 A 4.1229704,4.1721908 0 0 1 12.517219,3.2920615 L 13.01158,4.3526184 14.049738,3.82234 a 1.5720678,1.5908354 0 0 1 2.254286,1.1506042 l 0.118647,0.6803572 0.622894,0.2201156 a 2.9661657,3.0015761 0 0 1 -0.939285,5.763027 z"
     id="path8"
     inkscape:connector-curvature="0"
     style="fill:#676767;stroke-width:0.99460608" />
  <path
     class="cls-2"
     d="M 38.389773,5.0227848 H 38.270665 V 4.8930665 A 2.491343,2.5045602 0 0 0 35.809099,2.7676828 2.312681,2.3249503 0 0 0 34.687498,3.0370976 l -0.198513,0.099783 -0.109183,-0.2095449 a 5.0521657,5.0789687 0 0 0 -9.627899,2.2351454 v 0.3691981 h -0.22829 a 3.5236127,3.5423064 0 0 0 0,7.0846128 h 2.411937 v 1.826034 c 0,1.446858 2.977701,1.556619 3.970268,1.556619 a 9.6179737,9.6689994 0 0 0 2.441715,-0.279393 c 0.992567,-0.259436 1.419371,-0.688504 1.419371,-1.277226 v -1.865947 h 2.411937 A 3.8610854,3.8815694 0 0 0 38.389773,5.0227848 Z M 33.74456,14.402413 a 1.3697424,1.3770092 0 0 1 -0.674946,0.309328 9.0819875,9.1301697 0 0 1 -2.193573,0.23948 5.8462193,5.8772349 0 0 1 -2.977701,-0.508895 v -1.476792 a 7.4740291,7.5136806 0 0 0 2.977701,0.449024 7.0075226,7.0446992 0 0 0 2.838742,-0.429068 z m -5.77674,-3.901526 a 7.8512045,7.8928571 0 0 0 2.977701,0.429068 7.206036,7.2442658 0 0 0 2.848667,-0.429068 v 1.486771 a 2.8585928,2.8737583 0 0 1 -0.615392,0.219523 9.6278994,9.6789777 0 0 1 -2.243201,0.219523 7.3946237,7.433854 0 0 1 -2.928072,-0.439046 z M 33.754485,7.2080385 A 6.7891579,6.825176 0 0 1 30.895892,7.6570633 6.9479686,6.9848293 0 0 1 27.96782,7.1581469 v -0.099783 a 5.856145,5.8872132 0 0 1 2.878444,-0.4689814 6.3524284,6.3861296 0 0 1 2.928073,0.4689814 z m -2.848667,1.3869873 a 7.0174483,7.0546776 0 0 0 2.848667,-0.439046 v 1.357052 a 2.372235,2.3848203 0 0 1 -0.615391,0.229502 9.6278994,9.6789777 0 0 1 -2.243202,0.219523 7.1266307,7.1644392 0 0 1 -2.928072,-0.449025 v -1.357052 a 7.8512045,7.8928571 0 0 0 2.937998,0.439046 z m 6.243246,3.0533682 H 34.737127 V 6.9984937 c 0,-1.307161 -2.739485,-1.4568359 -3.970268,-1.4568359 -1.449148,0 -3.871011,0.1995666 -3.871011,1.4568359 v 4.6499003 h -2.352384 a 2.6005254,2.6143218 0 0 1 0,-5.2286433 h 1.151378 V 5.1225681 a 4.1290785,4.1509843 0 0 1 7.86113,-1.796099 l 0.496283,1.0577027 1.052121,-0.5288513 a 1.5682558,1.5765758 0 0 1 2.253127,1.1475076 l 0.119108,0.6785263 0.635243,0.2195232 a 2.9777008,2.9934983 0 0 1 -0.942938,5.7475164 z"
     id="path10"
     inkscape:connector-curvature="0"
     style="fill:#ffffff;stroke-width:0.99519634" />
</svg>
