<?xml version="1.0" encoding="utf-8"?>
<!-- Generator: Adobe Illustrator 20.1.0, SVG Export Plug-In . SVG Version: 6.00 Build 0)  -->
<svg version="1.1" id="Layer_1" xmlns="http://www.w3.org/2000/svg" xmlns:xlink="http://www.w3.org/1999/xlink" x="0px" y="0px"
	 width="65px" height="32px" viewBox="0 0 65 32" style="enable-background:new 0 0 65 32;" xml:space="preserve">
<style type="text/css">
	.st0{fill:#0CB20F;}
	.st1{fill:#FFFFFF;}
</style>
<g>
	<polygon class="st0" points="27.8,21.5 27.8,17.9 17.8,17.9 17.8,27.8 21.3,27.8 21.3,24 29.5,32 32,29.5 23.9,21.5 	"/>
	<polygon class="st0" points="14.2,27.8 10.7,27.8 10.7,24 2.5,32 0,29.5 8.1,21.5 4.2,21.5 4.2,17.9 14.2,17.9 	"/>
	<polygon class="st0" points="17.8,14.1 27.8,14.1 27.8,10.5 23.9,10.5 32,2.5 29.5,0 21.3,8 21.3,4.2 17.8,4.2 	"/>
	<polygon class="st0" points="4.2,14.1 4.2,10.5 8.1,10.5 0,2.5 2.5,0 10.7,8 10.7,4.2 14.2,4.2 14.2,14.1 	"/>
</g>
<g>
	<polygon class="st1" points="60.8,21.5 60.8,17.9 50.8,17.9 50.8,27.8 54.3,27.8 54.3,24 62.5,32 65,29.5 56.9,21.5 	"/>
	<polygon class="st1" points="47.2,27.8 43.7,27.8 43.7,24 35.5,32 33,29.5 41.1,21.5 37.2,21.5 37.2,17.9 47.2,17.9 	"/>
	<polygon class="st1" points="50.8,14.1 60.8,14.1 60.8,10.5 56.9,10.5 65,2.5 62.5,0 54.3,8 54.3,4.2 50.8,4.2 	"/>
	<polygon class="st1" points="37.2,14.1 37.2,10.5 41.1,10.5 33,2.5 35.5,0 43.7,8 43.7,4.2 47.2,4.2 47.2,14.1 	"/>
</g>
</svg>
