<?xml version="1.0" encoding="UTF-8" standalone="no"?>
<svg
   xmlns:dc="http://purl.org/dc/elements/1.1/"
   xmlns:cc="http://creativecommons.org/ns#"
   xmlns:rdf="http://www.w3.org/1999/02/22-rdf-syntax-ns#"
   xmlns:svg="http://www.w3.org/2000/svg"
   xmlns="http://www.w3.org/2000/svg"
   xmlns:sodipodi="http://sodipodi.sourceforge.net/DTD/sodipodi-0.dtd"
   xmlns:inkscape="http://www.inkscape.org/namespaces/inkscape"
   height="19"
   width="90"
   version="1.1"
   viewBox="0 0 90.000002 19"
   data-name="Layer 1"
   id="Layer_1"
   sodipodi:docname="up-directory.svg"
   inkscape:version="0.92.2 5c3e80d, 2017-08-06">
  <sodipodi:namedview
     pagecolor="#ffffff"
     bordercolor="#666666"
     borderopacity="1"
     objecttolerance="10"
     gridtolerance="10"
     guidetolerance="10"
     inkscape:pageopacity="0"
     inkscape:pageshadow="2"
     inkscape:window-width="999"
     inkscape:window-height="492"
     id="namedview16"
     showgrid="false"
     inkscape:zoom="3.2"
     inkscape:cx="45"
     inkscape:cy="9.5"
     inkscape:window-x="0"
     inkscape:window-y="0"
     inkscape:window-maximized="0"
     inkscape:current-layer="g29" />
  <metadata
     id="metadata19">
    <rdf:RDF>
      <cc:Work
         rdf:about="">
        <dc:format>image/svg+xml</dc:format>
        <dc:type
           rdf:resource="http://purl.org/dc/dcmitype/StillImage" />
        <dc:title>ico_UP_Directory</dc:title>
      </cc:Work>
    </rdf:RDF>
  </metadata>
  <defs
     id="defs4">
    <style
       id="style2">.cls-1{fill:#676767;}.cls-2{fill:#fff;}</style>
  </defs>
  <title
     id="title6">ico_UP_Directory</title>
  <g
     id="g29"
     transform="matrix(2.1552484,0,0,2.1218962,-1.7457655,-12.497066)">
    <path
       style="fill:#cccccc;fill-opacity:1;stroke-width:0.84781653"
       id="path25"
       d="M 9.1980416,7.0214895 8.0663021,5.8895746 H 4.84 V 13.43 h 9.425532 V 7.0214895 Z M 5.7099191,12.553404 V 7.8980852 H 13.42095 v 4.6553188 z m 0,-5.7872337 H 7.7200236 L 8.3956889,7.4300001 H 5.7099191 Z"
       class="cls-1" />
    <polygon
       transform="matrix(0.82673655,0,0,0.84153369,0.81000664,1.2022319)"
       style="fill:#cccccc;fill-opacity:1"
       id="polygon27"
       points="2.15,7.83 3.46,7.83 1.68,5.57 0,7.83 1.21,7.83 1.21,10 1.41,10 2.18,10 3.74,10 3.74,9.07 2.14,9.07 "
       class="cls-1" />
  </g>
  <g
     transform="matrix(2.1552484,0,0,2.1218962,29.254234,-12.497066)"
     id="g888"
     style="fill:#666666;fill-opacity:1">
    <path
       class="cls-1"
       d="M 9.1980416,7.0214895 8.0663021,5.8895746 H 4.84 V 13.43 h 9.425532 V 7.0214895 Z M 5.7099191,12.553404 V 7.8980852 H 13.42095 v 4.6553188 z m 0,-5.7872337 H 7.7200236 L 8.3956889,7.4300001 H 5.7099191 Z"
       id="path884"
       style="fill:#666666;fill-opacity:1;stroke-width:0.84781653" />
    <polygon
       class="cls-1"
       points="1.21,10 1.41,10 2.18,10 3.74,10 3.74,9.07 2.14,9.07 2.15,7.83 3.46,7.83 1.68,5.57 0,7.83 1.21,7.83 "
       id="polygon886"
       style="fill:#666666;fill-opacity:1"
       transform="matrix(0.82673655,0,0,0.84153369,0.81000664,1.2022319)" />
  </g>
  <g
     style="fill:#005d9a;fill-opacity:1"
     id="g894"
     transform="matrix(2.1552484,0,0,2.1218962,59.254234,-12.497066)">
    <path
       style="fill:#005d9a;fill-opacity:1;stroke-width:0.84781653"
       id="path890"
       d="M 9.1980416,7.0214895 8.0663021,5.8895746 H 4.84 V 13.43 h 9.425532 V 7.0214895 Z M 5.7099191,12.553404 V 7.8980852 H 13.42095 v 4.6553188 z m 0,-5.7872337 H 7.7200236 L 8.3956889,7.4300001 H 5.7099191 Z"
       class="cls-1" />
    <polygon
       transform="matrix(0.82673655,0,0,0.84153369,0.81000664,1.2022319)"
       style="fill:#005d9a;fill-opacity:1"
       id="polygon892"
       points="1.21,7.83 1.21,10 1.41,10 2.18,10 3.74,10 3.74,9.07 2.14,9.07 2.15,7.83 3.46,7.83 1.68,5.57 0,7.83 "
       class="cls-1" />
  </g>
</svg>
