<?xml version="1.0" encoding="UTF-8" standalone="no"?>
<svg
   xmlns:dc="http://purl.org/dc/elements/1.1/"
   xmlns:cc="http://creativecommons.org/ns#"
   xmlns:rdf="http://www.w3.org/1999/02/22-rdf-syntax-ns#"
   xmlns:svg="http://www.w3.org/2000/svg"
   xmlns="http://www.w3.org/2000/svg"
   xmlns:sodipodi="http://sodipodi.sourceforge.net/DTD/sodipodi-0.dtd"
   xmlns:inkscape="http://www.inkscape.org/namespaces/inkscape"
   id="Layer_1"
   data-name="Layer 1"
   viewBox="0 0 33 13.678"
   version="1.1"
   sodipodi:docname="env-root.svg"
   inkscape:version="0.92.2 5c3e80d, 2017-08-06"
   width="33"
   height="13.678">
  <metadata
     id="metadata23">
    <rdf:RDF>
      <cc:Work
         rdf:about="">
        <dc:format>image/svg+xml</dc:format>
        <dc:type
           rdf:resource="http://purl.org/dc/dcmitype/StillImage" />
        <dc:title>ico_Env_Root</dc:title>
      </cc:Work>
    </rdf:RDF>
  </metadata>
  <sodipodi:namedview
     pagecolor="#ffffff"
     bordercolor="#666666"
     borderopacity="1"
     objecttolerance="10"
     gridtolerance="10"
     guidetolerance="10"
     inkscape:pageopacity="0"
     inkscape:pageshadow="2"
     inkscape:window-width="1390"
     inkscape:window-height="743"
     id="namedview21"
     showgrid="false"
     inkscape:zoom="8.7272727"
     inkscape:cx="16.5"
     inkscape:cy="8"
     inkscape:window-x="0"
     inkscape:window-y="0"
     inkscape:window-maximized="0"
     inkscape:current-layer="Layer_1" />
  <defs
     id="defs4">
    <style
       id="style2">.cls-1{fill:#676767;}.cls-2{fill:#fff;}</style>
  </defs>
  <title
     id="title6">ico_Env_Root</title>
  <g
     id="Layer_1-2"
     data-name="Layer 1-2"
     transform="translate(0,-1.1598748)">
    <path
       class="cls-1"
       d="m 9.58,14.83 a 0.47,0.47 0 0 0 0.17,0 h 0.1 z"
       id="path8"
       inkscape:connector-curvature="0"
       style="fill:#676767" />
    <path
       class="cls-1"
       d="M 11.12,9.74 H 16 V 2.44 H 10.21 L 8.93,1.16 H 5.2 V 4.35 L 3.72,4.18 A 1.91,1.91 0 0 0 1.86,2.51 1.86,1.86 0 0 0 1.86,6.23 1.86,1.86 0 0 0 3.54,5.11 L 5.2,5.39 V 9.18 L 4,10.31 A 1.85,1.85 0 0 0 3,10 1.86,1.86 0 1 0 4.84,11.9 1.69,1.69 0 0 0 4.56,11 L 6,9.74 h 3.4 v 1.39 a 1.7,1.7 0 0 0 -0.32,0.1 2.28,2.28 0 0 0 -0.3,0.17 l -0.17,0.14 c 0,0 0,0 0,0 A 1.8,1.8 0 0 0 8.42,11.74 1.83,1.83 0 0 0 8,13 1.87,1.87 0 0 0 8.66,14.44 v 0 l 0.2,0.15 0.24,0.13 a 1.06,1.06 0 0 0 0.25,0.09 h 0.11 0.16 0.27 v 0 A 1.87,1.87 0 0 0 11.22,14.25 1.85,1.85 0 0 0 11.75,13 1.77,1.77 0 0 0 11.61,12.31 c 0,-0.09 -0.08,-0.18 -0.13,-0.27 A 2,2 0 0 0 11.36,11.85 1,1 0 0 0 11.22,11.7 0.15,0.15 0 0 0 11.17,11.64 0.53,0.53 0 0 0 11.03,11.52 0.72,0.72 0 0 0 10.88,11.41 1.86,1.86 0 0 0 10.32,11.17 V 9.75 Z M 6.19,2.16 H 8.5 L 8.69,2.35 9.27,2.92 H 6.19 Z m 0,6.59 V 3.45 H 15 v 5.3 z"
       id="path10"
       inkscape:connector-curvature="0"
       style="fill:#676767" />
  </g>
  <g
     id="Layer_1-2-2"
     data-name="Layer 1-2"
     transform="translate(0,-1.1598748)">
    <path
       class="cls-2"
       d="m 26.58,14.83 a 0.47,0.47 0 0 0 0.17,0 h 0.1 z"
       id="path13"
       inkscape:connector-curvature="0"
       style="fill:#ffffff" />
    <path
       class="cls-2"
       d="M 28.12,9.74 H 33 V 2.44 H 27.21 L 25.93,1.16 H 22.2 V 4.35 L 20.72,4.18 a 1.91,1.91 0 0 0 -1.86,-1.67 1.86,1.86 0 1 0 1.68,2.6 L 22.2,5.39 V 9.18 L 21,10.31 a 1.88,1.88 0 1 0 0.84,1.59 1.69,1.69 0 0 0 -0.28,-0.93 L 23,9.74 h 3.4 v 1.39 a 1.7,1.7 0 0 0 -0.32,0.1 2.28,2.28 0 0 0 -0.3,0.17 l -0.17,0.14 c 0,0 0,0 0,0 A 1.8,1.8 0 0 0 25.42,11.74 1.83,1.83 0 0 0 25,13 a 1.87,1.87 0 0 0 0.66,1.44 v 0 l 0.2,0.15 0.24,0.13 a 1.06,1.06 0 0 0 0.25,0.09 h 0.11 0.16 0.27 v 0 A 1.87,1.87 0 0 0 28.22,14.25 1.85,1.85 0 0 0 28.75,13 1.77,1.77 0 0 0 28.61,12.31 c 0,-0.09 -0.08,-0.18 -0.13,-0.27 a 2,2 0 0 0 -0.12,-0.19 1,1 0 0 0 -0.14,-0.15 0.15,0.15 0 0 0 0,-0.06 0.53,0.53 0 0 0 -0.14,-0.12 0.72,0.72 0 0 0 -0.15,-0.11 1.86,1.86 0 0 0 -0.56,-0.24 V 9.75 Z M 23.19,2.16 h 2.31 l 0.19,0.19 0.58,0.57 h -3.08 z m 0,6.59 V 3.45 H 32 v 5.3 z"
       id="path15"
       inkscape:connector-curvature="0"
       style="fill:#ffffff" />
  </g>
  <path
     class="cls-1"
     d="m 10.88,6.9590002 a 1.86,1.86 0 0 0 -0.56,-0.24 1.47,1.47 0 0 1 0.56,0.24 z"
     id="path18"
     inkscape:connector-curvature="0"
     style="fill:#676767" />
</svg>
