<?xml version="1.0" encoding="utf-8"?>
<!-- Generator: Adobe Illustrator 23.1.1, SVG Export Plug-In . SVG Version: 6.00 Build 0)  -->
<svg version="1.1" id="Layer_1" xmlns="http://www.w3.org/2000/svg" xmlns:xlink="http://www.w3.org/1999/xlink" x="0px" y="0px"
	 viewBox="0 0 32 32" style="enable-background:new 0 0 32 32;" xml:space="preserve">
<style type="text/css">
	.st0{clip-path:url(#SVGID_2_);}
	.st1{fill:none;}
	.st2{fill:#FFFFFF;}
</style>
<g>
	<defs>
		<rect id="SVGID_1_" width="32" height="32"/>
	</defs>
	<clipPath id="SVGID_2_">
		<use xlink:href="#SVGID_1_"  style="overflow:visible;"/>
	</clipPath>
	<g id="Archive.S_D" class="st0">
		<rect id="Rectangle_1002" class="st1" width="32" height="32"/>
		<path class="st2" d="M24,11h-8l-2-2H8v14h5.9v1h4v-1H24V11z M16.9,23h-2v-2h2V23z M23,22h-5.1v-2h-1.5v-1h3v-1.9h1.5v-4h-4v4h1.5
			V18h-4.9v-0.9H15v-4h-4v4h1.5V19h2.9v1h-1.5v2H9V10h4.6l2,2H23V22z M17.9,16.1v-2h2v2H17.9z M12,16.1v-2h2v2H12z"/>
	</g>
</g>
</svg>
