<?xml version="1.0" encoding="utf-8"?>
<!-- Generator: Adobe Illustrator 25.0.0, SVG Export Plug-In . SVG Version: 6.00 Build 0)  -->
<svg version="1.1" id="katman_1" xmlns="http://www.w3.org/2000/svg" xmlns:xlink="http://www.w3.org/1999/xlink" x="0px" y="0px"
	 viewBox="0 0 3741.6 2898.2" style="enable-background:new 0 0 3741.6 2898.2;" xml:space="preserve">
<style type="text/css">
	.st0{fill:#FFEBCD;}
	.st1{fill:#999999;}
	.st2{fill:#3D6480;}
</style>
<path class="st0" d="M1587.5,2456.1l-257.1-72.1l-243.2-277.3l304.2-8.4L1587.5,2456.1 M993,2273.3l-144.7-40.5l-136.7-156
	l166.1-27.3L993,2273.3"/>
<path class="st1" d="M625.8,2057.2l147.9,30.1l21.5-37.8V768.3l-21.5-24.9l-147.9,84.2V2057.2"/>
<path class="st2" d="M1344.9,877.3L773.7,743.4v1343.9l85.6-8l133.7,194l103.1-216l248.8-23.1V877.3"/>
<path class="st1" d="M956.1,2126.4l253.5,51.1l16.7-39.3V563.4l-16.7-35.6L956.1,656.2V2126.4"/>
<path class="st2" d="M2656,992.1L1209.6,527.8v1649.7l167.5-21.6l210.4,300.2l166.6-348.7l902-116.1L2656,992.1"/>
<path class="st0" d="M2394.4,2694L2029,2591.7l-345.4-393.9l447.7-4.6L2394.4,2694"/>
<path class="st1" d="M1497.2,2231.6l372.8,72.1l29-25V239.3l-29-40l-372.8,186.3L1497.2,2231.6"/>
<path class="st2" d="M3115.8,822.1L1870,199.2v2104.5l219.8-44l304.5,434.3l261.7-547.7l-0.2,0l459.9-92.1V822.1"/>
</svg>
