<?xml version="1.0" encoding="utf-8"?>
<!-- Generator: Adobe Illustrator 18.0.0, SVG Export Plug-In . SVG Version: 6.00 Build 0)  -->
<!DOCTYPE svg PUBLIC "-//W3C//DTD SVG 1.1//EN" "http://www.w3.org/Graphics/SVG/1.1/DTD/svg11.dtd">
<svg version="1.1" xmlns="http://www.w3.org/2000/svg" xmlns:xlink="http://www.w3.org/1999/xlink" x="0px" y="0px"
	 viewBox="0 0 16 16" enable-background="new 0 0 16 16" xml:space="preserve">
<g id="Layer_2">
	<g id="Layer_2_1_">
		<rect fill="none" width="16" height="16"/>
	</g>
</g>
<g id="art">
	<g>
		<path fill="#3D6480" d="M15.2,9c0.1-0.1,0.1-0.2,0.2-0.3c0-0.2,0-0.4-0.1-0.5C15,7.9,14.6,7.8,14.3,8c-1.9,1.4-3.9,2-5.9,2
			c-3.2,0-5.3-1.9-5.4-2c-0.3-0.2-0.7-0.2-0.9,0c-0.2,0.3-0.2,0.7,0,0.9c0,0,0.1,0.1,0.3,0.2l-0.7,1.2c-0.1,0.1-0.1,0.3-0.1,0.5
			c0,0.2,0.1,0.3,0.3,0.4c0.3,0.2,0.7,0.1,0.9-0.2L3.6,10c0.4,0.3,0.9,0.5,1.4,0.7l-0.3,1.1c-0.1,0.3,0.1,0.7,0.5,0.8l0.2,0
			c0.3,0,0.5-0.2,0.6-0.5l0.3-1.1c0.6,0.1,1.2,0.2,1.8,0.3v1.1c0,0.4,0.3,0.7,0.7,0.7c0.4,0,0.7-0.3,0.7-0.7v-1.1
			c0.6,0,1.2-0.1,1.8-0.3l0.4,1.2c0.1,0.3,0.3,0.4,0.6,0.4c0,0,0,0,0,0l0.2,0c0.2-0.1,0.3-0.2,0.4-0.4c0.1-0.2,0.1-0.3,0-0.5
			l-0.4-1.1c0.6-0.2,1.2-0.5,1.8-0.9l0.5,0.7c0.2,0.3,0.7,0.3,0.9,0.1c0.3-0.2,0.4-0.6,0.1-0.9L15.2,9z"/>
		<path fill="#3D6480" d="M15.9,5.6c0,0-0.2-0.3-0.5-0.6c-0.2-0.2-0.4-0.3-0.7-0.6l-0.1-0.1c-0.3-0.2-0.5-0.4-0.9-0.5
			c-0.4-0.2-0.8-0.4-1.2-0.5c-0.5-0.2-1-0.3-1.4-0.4c-0.5-0.1-1-0.1-1.6,0c-0.2,0-0.4,0-0.6,0c-0.3,0-0.6,0-1,0.1
			C7.4,3,6.9,3.1,6.4,3.2l-0.2,0C6,3.2,5.8,3.3,5.6,3.3C5.4,3.4,5.1,3.5,4.9,3.5C4.4,3.6,3.9,3.8,3.5,4C3.1,4.2,2.7,4.3,2.3,4.5
			C2.2,4.6,2.1,4.6,2,4.7C1.8,4.8,1.6,4.9,1.4,5L0.1,5.9L0,6.2l0,0.1c0,0.2,0.2,0.3,0.4,0.3L1.9,6C2,6,2.2,5.9,2.4,5.9l0.4-0.1
			C3.2,5.7,3.6,5.6,4,5.6l0.6-0.1c0.1,0,0.3,0,0.4,0l0.9-0.1l0.7,0c0.4,0,0.9,0,1.4,0.1c0.6,0,1.1,0.2,1.7,0.3
			c0.3,0.1,0.7,0.2,1,0.2c0.8,0.1,1.6,0.2,2.3,0.2l0.1,0c0.7,0,1.4,0,1.8,0c0.5,0,0.8,0,0.8,0l0.2-0.1C16,6,16.1,5.8,15.9,5.6z"/>
	</g>
</g>
</svg>
