<?xml version="1.0" encoding="utf-8"?>
<!-- Generator: Adobe Illustrator 17.0.0, SVG Export Plug-In . SVG Version: 6.00 Build 0)  -->
<!DOCTYPE svg PUBLIC "-//W3C//DTD SVG 1.1//EN" "http://www.w3.org/Graphics/SVG/1.1/DTD/svg11.dtd">
<svg version="1.1" id="Layer_1" xmlns="http://www.w3.org/2000/svg" xmlns:xlink="http://www.w3.org/1999/xlink" x="0px" y="0px"
	 width="42px" height="42px" viewBox="0 0 42 42" enable-background="new 0 0 42 42" xml:space="preserve">
<g>
	<polygon fill="#FFEBCD" points="39.604,30.643 38.456,28.959 38.456,28.062 33.222,25.894 31.425,27.705 29.645,25.9 
		24.458,28.094 24.458,28.947 22.991,30.838 24.458,31.601 24.458,36.258 31.458,39.791 38.456,36.258 38.456,31.277 	"/>
	<path fill="#3D6480" d="M38.423,27.992l-3.99-1.666l-0.359,0.861l2.695,1.125l-5.315,2.746l-5.379-2.715l2.576-1.076l-0.359-0.861
		l-3.801,1.586l-2.211,3.002l2.211,1.15v4.092l6.967,3.518l6.965-3.518V31.83l1.857-1.027L38.423,27.992z M24.958,28.303h0.002
		H24.958L24.958,28.303L24.958,28.303z M23.702,30.682l1.391-1.789l5.582,2.818l-1.381,1.883L23.702,30.682z M25.425,32.631
		l4.148,2.162l1.547-2.109v5.854l-5.695-2.875V32.631z M37.489,35.662l-5.93,2.992v-6.268l1.59,2.361l4.34-2.402V35.662z
		 M33.446,33.516l-1.217-1.807l5.574-2.879l1.127,1.652L33.446,33.516z"/>
	<path fill="#0CB20F" d="M33.497,25.435L31.933,27v-1.74c0-2.803-1.211-4.055-3.926-4.055v1.045c2.156,0,2.883,0.76,2.883,3.01
		v1.746l-1.65-1.65l-0.738,0.738L31.409,29l2.826-2.826L33.497,25.435z"/>
</g>
<g>
	<path fill="#EA102A" d="M6.238,14.906c-2.682,0-3.428-1.106-3.428-2.477c0-1.372,0.746-2.479,3.428-2.479
		c2.657,0,3.428,1.113,3.428,2.479C9.666,13.793,8.896,14.906,6.238,14.906z M7.731,11.217c-0.289-0.349-0.867-0.447-1.492-0.447
		c-0.626,0-1.202,0.099-1.491,0.447c-0.24,0.295-0.265,0.883-0.265,1.212s0.024,0.909,0.265,1.203
		c0.277,0.351,0.865,0.455,1.491,0.455c0.625,0,1.216-0.104,1.492-0.455c0.24-0.294,0.265-0.874,0.265-1.203
		S7.971,11.512,7.731,11.217z"/>
	<path fill="#EA102A" d="M15.871,14.759h-0.722c-0.337,0-0.518-0.034-0.733-0.189l-2.045-1.513h-0.372v1.395
		c0,0.377-0.541,0.307-1.023,0.307c-0.397,0-0.589-0.063-0.589-0.307V10.37c0-0.237,0.229-0.286,0.589-0.286h2.226
		c0.806,0,1.455-0.028,2.056,0.329c0.542,0.321,0.627,0.882,0.627,1.308c0,0.658-0.373,1.205-1.6,1.303l1.84,1.302
		c0.096,0.069,0.168,0.154,0.168,0.245C16.292,14.71,16.087,14.759,15.871,14.759z M13.959,10.937
		c-0.192-0.057-0.697-0.057-0.927-0.057c-0.348,0-0.684,0.008-1.033,0.015v1.365h1.358c0.817,0,0.927-0.154,0.927-0.596
		C14.284,11.49,14.271,11.035,13.959,10.937z"/>
	<path fill="#EA102A" d="M23.507,14.759h-0.66c-0.325,0-0.458-0.077-0.565-0.245l-0.529-0.874c-0.939,0.014-1.877,0.014-2.815,0
		l-0.481,0.825c-0.217,0.378-0.541,0.294-1.166,0.294c-0.229,0-0.469-0.007-0.469-0.168c0-0.056,0.06-0.16,0.096-0.217l2.466-4.004
		c0.241-0.385,0.565-0.314,1.202-0.314c0.421,0,0.565,0.083,0.71,0.308l2.597,4.081c0.024,0.035,0.049,0.069,0.049,0.106
		C23.94,14.703,23.749,14.759,23.507,14.759z M20.332,11.266l-0.962,1.653h1.925L20.332,11.266z"/>
	<path fill="#EA102A" d="M28.547,14.815c-0.457,0.027-0.914,0.034-1.372,0.034c-2.898,0-3.463-0.825-3.463-2.372
		c0-0.798,0.097-1.918,1.576-2.281c0.577-0.141,1.274-0.162,1.887-0.162c0.458,0,0.915,0.007,1.372,0.035
		c0.3,0.015,0.625,0.028,0.625,0.245v0.231c0,0.217-0.036,0.336-0.457,0.336c-0.433,0-0.865-0.034-1.299-0.034
		c-0.361,0-0.986,0.014-1.311,0.098c-0.842,0.21-0.734,1.106-0.734,1.54c0,0.546-0.072,1.386,1.119,1.519
		c0.3,0.034,0.625,0.034,0.926,0.034c0.434,0,0.866-0.034,1.299-0.034c0.589,0,0.457,0.3,0.457,0.566
		C29.172,14.788,28.847,14.801,28.547,14.815z"/>
	<path fill="#EA102A" d="M33.681,14.759h-3.367c-0.397,0-0.59-0.063-0.59-0.307V10.37c0-0.237,0.23-0.286,0.59-0.286h0.518
		c0.349,0,0.504,0.084,0.504,0.286v3.598c0.782-0.007,1.564-0.014,2.346-0.014c0.602,0,0.518,0.267,0.518,0.518
		C34.198,14.682,34.017,14.759,33.681,14.759z"/>
	<path fill="#EA102A" d="M39.176,14.759H35.46c-0.397,0-0.59-0.063-0.59-0.307V10.37c0-0.237,0.229-0.286,0.59-0.286h3.716
		c0.577,0,0.518,0.21,0.518,0.476c0,0.217-0.108,0.329-0.518,0.329c-0.902,0-1.792-0.008-2.693-0.021v1.091
		c0.806-0.007,1.623-0.021,2.429-0.021c0.529,0,0.518,0.188,0.518,0.427c0,0.217-0.108,0.329-0.518,0.329
		c-0.806,0-1.623-0.014-2.429-0.022v1.303c0.901-0.015,1.791-0.021,2.693-0.021c0.602,0,0.518,0.267,0.518,0.518
		C39.693,14.682,39.513,14.759,39.176,14.759z"/>
</g>
</svg>
