<?xml version="1.0" encoding="utf-8"?>
<!-- Generator: Adobe Illustrator 18.0.0, SVG Export Plug-In . SVG Version: 6.00 Build 0)  -->
<!DOCTYPE svg PUBLIC "-//W3C//DTD SVG 1.1//EN" "http://www.w3.org/Graphics/SVG/1.1/DTD/svg11.dtd">
<svg version="1.1" id="Layer_1" xmlns="http://www.w3.org/2000/svg" xmlns:xlink="http://www.w3.org/1999/xlink" x="0px" y="0px"
	 viewBox="0 0 42 42" enable-background="new 0 0 42 42" xml:space="preserve">
<g>
	<g>
		<polygon fill="#EFF9FE" points="10,10 10,32 22.8,32 32,23 32,10 		"/>
		<polygon fill="#3D6480" points="10,32 10,10 32,10 32,23 34,21 34,8 8,8 8,34 20.7,34 22.8,32 		"/>
	</g>
	<path fill="#3D6480" d="M22.5,15h3.9c2.3,0,3.1,1,3.1,2.6v1.6c0,1.6-0.8,2.6-3.1,2.6h-2.5v3.8h-1.4V15z M26.3,16.2h-2.4v4.4h2.4
		c1.3,0,1.8-0.4,1.8-1.4v-1.6C28.1,16.6,27.7,16.2,26.3,16.2z"/>
	<path fill="#3D6480" d="M17.4,20.8v1.1H19v2.6c-0.7,0.1-1.4,0.2-2,0.2c-1.8,0-2.2-0.6-2.2-2v-4.5c0-1.4,0.5-2,2.3-2
		c0.9,0,1.8,0.1,2.9,0.3l0.2-1.2c-1-0.2-2-0.3-3-0.3c-2.7,0-3.7,1-3.7,3.2v4.7c0,2,0.8,3.1,3.6,3.1c1.1,0,2.3-0.2,3.4-0.5v-3.6v-1
		v-0.1H17.4z"/>
	<polygon fill="#3D6480" points="37.1,32.6 37.1,35.7 31.9,30.5 30.5,31.8 35.8,37.1 32.6,37.1 32.6,39 39,39 39,32.6 	"/>
</g>
</svg>
