<svg id="Binoculars.L_D.svg" xmlns="http://www.w3.org/2000/svg" width="112" height="112" viewBox="0 0 112 112">
  <rect id="Rectangle_724" data-name="Rectangle 724" width="112" height="112" fill="none"/>
  <path id="Path_39492" data-name="Path 39492" d="M100.84,65.977,91.977,28.556A14.992,14.992,0,0,0,62,29V50H50V29a14.992,14.992,0,0,0-29.977-.447L11.159,65.978A21.034,21.034,0,1,0,49.76,74H62.24a20.992,20.992,0,1,0,38.6-8.023ZM29,92A15,15,0,1,1,44,77,15.016,15.016,0,0,1,29,92ZM44,50V62.331A20.933,20.933,0,0,0,19.1,58.49l6.785-28.649A5.934,5.934,0,0,0,26,29a9,9,0,0,1,18,0ZM62,68H50V56H62ZM77,20a9.01,9.01,0,0,1,9,9,10.388,10.388,0,0,0,.369,1.908L92.9,58.491A20.93,20.93,0,0,0,68,62.332V29A9.01,9.01,0,0,1,77,20Zm6,72A15,15,0,1,1,98,77,15.016,15.016,0,0,1,83,92Z" transform="translate(0 0)" fill="#414141"/>
</svg>
