<?xml version="1.0" encoding="utf-8"?>
<!-- Generator: Adobe Illustrator 22.0.1, SVG Export Plug-In . SVG Version: 6.00 Build 0)  -->
<svg version="1.1" id="Layer_1" xmlns="http://www.w3.org/2000/svg" xmlns:xlink="http://www.w3.org/1999/xlink" x="0px" y="0px"
	 viewBox="0 0 96 96" style="enable-background:new 0 0 96 96;" xml:space="preserve">
<style type="text/css">
	.st0{fill:#424242;stroke:#414141;stroke-miterlimit:10;}
</style>
<g>
	<path class="st0" d="M80.5,21.8c5.6,0,10.1-4.5,10.1-9.9s-4.5-9.9-10.1-9.9s-10.1,4.5-10.1,9.9S74.9,21.8,80.5,21.8z M80.5,3
		c4.9,0,8.9,3.9,8.9,8.7s-4,8.7-8.9,8.7s-8.9-3.9-8.9-8.7S75.7,3,80.5,3z"/>
	<path class="st0" d="M88.4,25.6H72.8c-3.2,0-5.7,2.5-5.7,5.7v19.4c0,2.9,2.2,5.3,5.1,5.7c0.4,0,0.6,0.4,0.6,0.7v20.5
		c0,3,2.5,5.6,5.7,5.6h4.2c3.2,0,5.7-2.5,5.7-5.6V56.9c0-0.4,0.2-0.6,0.6-0.7c2.9-0.2,5.1-2.7,5.1-5.7V31
		C94.1,28.1,91.6,25.6,88.4,25.6z M92.9,50.5c0,2.3-1.7,4.2-4,4.5c-1,0.1-1.7,1-1.7,1.9v20.5c0,2.4-1.9,4.4-4.5,4.4h-4.2
		c-2.4,0-4.5-1.9-4.5-4.4V56.9c0-1-0.7-1.8-1.7-1.9c-2.3-0.2-4-2.2-4-4.5V31c0-2.4,2.1-4.5,4.5-4.5h15.7c2.5,0,4.5,2.1,4.5,4.5
		C92.9,31,92.9,50.5,92.9,50.5z"/>
	<path class="st0" d="M15.5,21.8c5.6,0,10.1-4.5,10.1-9.9s-4.5-9.9-10.1-9.9S5.4,6.4,5.4,11.8C5.4,17.3,9.9,21.8,15.5,21.8z M15.5,3
		c4.9,0,8.9,3.9,8.9,8.7s-4,8.7-8.9,8.7s-8.9-3.9-8.9-8.7C6.6,6.9,10.5,3,15.5,3z"/>
	<path class="st0" d="M23.2,25.6H7.6c-3.2,0-5.7,2.5-5.7,5.7v19.4c0,2.9,2.2,5.3,5.1,5.7c0.4,0,0.6,0.4,0.6,0.7v20.5
		c0,3,2.5,5.6,5.7,5.6h4.2c3.2,0,5.7-2.5,5.7-5.6V56.9c0-0.4,0.2-0.6,0.6-0.7c2.9-0.2,5.1-2.7,5.1-5.7V31
		C29,28.1,26.4,25.6,23.2,25.6z M27.7,50.5c0,2.3-1.7,4.2-4,4.5c-1,0.1-1.7,1-1.7,1.9v20.5c0,2.4-1.9,4.4-4.5,4.4h-4.2
		c-2.4,0-4.5-1.9-4.5-4.4V56.9c0-1-0.7-1.8-1.7-1.9c-2.3-0.2-4-2.2-4-4.5V31c0-2.4,2.1-4.5,4.5-4.5h15.7c2.5,0,4.5,2.1,4.5,4.5V50.5
		z"/>
	<path class="st0" d="M48,32.7c5.6,0,10.1-4.5,10.1-9.9s-4.5-9.9-10.1-9.9s-10.1,4.5-10.1,9.9S42.4,32.7,48,32.7z M48,13.9
		c4.9,0,8.9,3.9,8.9,8.7s-4,8.7-8.9,8.7s-8.9-3.9-8.9-8.7S43.1,13.9,48,13.9z"/>
	<path class="st0" d="M55.8,36.5H40.2c-3.2,0-5.7,2.5-5.7,5.7v19.4c0,2.9,2.2,5.3,5.1,5.7c0.4,0,0.6,0.4,0.6,0.7v20.5
		c0,3,2.5,5.6,5.7,5.6h4.2c3.2,0,5.7-2.5,5.7-5.6V67.8c0-0.4,0.2-0.6,0.6-0.7c2.9-0.2,5.1-2.7,5.1-5.7V41.9
		C61.6,39,58.9,36.5,55.8,36.5z M60.4,61.5c0,2.3-1.7,4.2-4,4.5c-1,0.1-1.7,1-1.7,1.9v20.5c0,2.4-1.9,4.4-4.5,4.4h-4.2
		c-2.4,0-4.5-1.9-4.5-4.4V67.8c0-1-0.7-1.8-1.7-1.9c-2.3-0.2-4-2.2-4-4.5V41.9c0-2.4,2.1-4.5,4.5-4.5h15.7c2.5,0,4.5,2.1,4.5,4.5
		V61.5z"/>
</g>
</svg>
