<?xml version="1.0" encoding="utf-8"?>
<!-- Generator: Adobe Illustrator 20.1.0, SVG Export Plug-In . SVG Version: 6.00 Build 0)  -->
<svg version="1.1" id="Layer_1" xmlns="http://www.w3.org/2000/svg" xmlns:xlink="http://www.w3.org/1999/xlink" x="0px" y="0px"
	 width="49px" height="61px" viewBox="0 0 49 61" style="enable-background:new 0 0 49 61;" xml:space="preserve">
<style type="text/css">
	.st0{fill:#414141;}
</style>
<g>
	<path class="st0" d="M24.5,16.2c-7.9,0-14.3,6.4-14.3,14.3s6.4,14.3,14.3,14.3c7.9,0,14.3-6.4,14.3-14.3S32.4,16.2,24.5,16.2z
		 M24.5,43.8c-7.3,0-13.3-6-13.3-13.3s6-13.3,13.3-13.3s13.3,6,13.3,13.3S31.8,43.8,24.5,43.8z"/>
	<polygon class="st0" points="25,22.6 24,22.6 24,30 16.6,30 16.6,31 24,31 24,38.4 25,38.4 25,31 32.4,31 32.4,30 25,30 	"/>
	<path class="st0" d="M38.7,0.2H4.4C2,0.2,0,2.1,0,4.5v52c0,2.4,1.9,4.3,4.3,4.3h40.3c2.4,0,4.3-1.9,4.3-4.3V10.7L38.7,0.2z M39.1,2
		l8.2,8.4h-4.8c-1.8,0-3.3-1.5-3.3-3.3V2z M44.6,59.8H4.4c-1.8,0-3.3-1.5-3.3-3.3v-52c0-1.8,1.5-3.3,3.3-3.3h33.7v5.9
		c0,2.4,1.9,4.3,4.3,4.3H48v45.1C48,58.3,46.5,59.8,44.6,59.8z"/>
</g>
</svg>
