<?xml version="1.0" encoding="utf-8"?>
<!-- Generator: Adobe Illustrator 20.1.0, SVG Export Plug-In . SVG Version: 6.00 Build 0)  -->
<svg version="1.1" id="Layer_1" xmlns="http://www.w3.org/2000/svg" xmlns:xlink="http://www.w3.org/1999/xlink" x="0px" y="0px"
	 width="56px" height="61px" viewBox="0 0 56 61" style="enable-background:new 0 0 56 61;" xml:space="preserve">
<style type="text/css">
	.st0{fill:#414141;}
</style>
<path class="st0" d="M55.5,34.8c-0.4-2.4-1.8-4.4-4.1-5.9c-3.1-2-7.1-0.8-8.8-0.2V11.3H29c1.8-2.7,1.6-6.4-0.7-8.9
	C26.8,0.8,24-0.1,21,0.2c-2.6,0.3-4.8,1.4-5.8,3c-1.4,2.3-1.3,5.7,0,8.1H0.5v18.4l0.9-1c2.1-2.4,7.3-2.4,10-0.7
	c1.5,0.9,2.8,3.2,3.1,5.7c0.2,1.4,0.2,4.1-1.7,6c-1.2,1.2-3.5,2.4-6.1,2.4c0,0,0,0-0.1,0c-1.4,0-3.5-0.4-5.3-2.2L0.5,39v21.8h18.1
	L17.7,60c-2.8-2.9-2.9-6.5-0.3-9.6c1.8-2.1,6.3-2.2,8-0.9c3.4,2.5,3.7,5.8,0.9,10.6l-0.4,0.8h16.8V43.2c4.6,2,8.1,1.4,10.9-1.9
	C55.1,39.3,55.8,37.1,55.5,34.8z M52.8,40.6c-2.6,3.2-5.9,3.6-10.4,1.4l-0.7-0.4v18.3H27.5c2.6-4.8,2.1-8.5-1.6-11.2
	c-2-1.4-7.1-1.5-9.3,1.1c-2.7,3.2-2.8,6.9-0.4,10H1.5V41.4c1.4,1.1,3.2,1.8,5.1,1.8c0,0,0,0,0.1,0c2.5,0,5.3-1.1,6.8-2.7
	c1.6-1.7,2.3-4.1,2-6.8c-0.4-2.8-1.8-5.4-3.6-6.5c-2.8-1.6-7.7-1.8-10.4,0.1v-15h15.8l-0.7-0.8c-1.6-2-1.8-5.6-0.5-7.8
	c0.8-1.4,2.7-2.3,5-2.5c2.7-0.3,5.2,0.5,6.6,1.9c2.2,2.4,2.2,6,0,8.3l-0.8,0.8h14.8v17.8l0.7-0.3c0,0,5.1-2.3,8.5-0.1
	c2,1.3,3.3,3.1,3.6,5.2C54.8,36.9,54.2,38.9,52.8,40.6z"/>
</svg>
