<?xml version="1.0" encoding="utf-8"?>
<!-- Generator: Adobe Illustrator 22.0.1, SVG Export Plug-In . SVG Version: 6.00 Build 0)  -->
<svg version="1.1" id="Layer_1" xmlns="http://www.w3.org/2000/svg" xmlns:xlink="http://www.w3.org/1999/xlink" x="0px" y="0px"
	 viewBox="0 0 96 73.8" style="enable-background:new 0 0 96 73.8;" xml:space="preserve">
<style type="text/css">
	.st0{fill:#414141;}
</style>
<g>
	<path class="st0" d="M88.1,11.8H77.8V7.9c0-3-2.4-5.4-5.4-5.4H7.9c-3,0-5.4,2.4-5.4,5.4v39.7c0,3,2.4,5.4,5.4,5.4h6.4l-2.4,11.8
		l6.7-5.6c0.7,1.9,2.8,3.4,5.1,3.4h45.1L84.3,71l-0.7-8.6h4.5c3,0,5.4-2.4,5.4-5.4V17.3C93.5,14.3,91.1,11.8,88.1,11.8z M14.9,60
		l1.7-8.6H7.9c-1.9,0-3.6-1.5-3.6-3.6V7.9c0-1.9,1.5-3.6,3.6-3.6h64.4c1.9,0,3.6,1.5,3.6,3.6v39.7c0,1.9-1.5,3.6-3.6,3.6H25.2
		L18.2,57l0,0l0,0L14.9,60z M91.6,57.2c0,1.9-1.5,3.6-3.6,3.6h-6.6l0.7,6.9l-12.9-6.9H23.7c-1.7,0-3-1.1-3.4-2.8l5.6-4.7h46.4
		c3,0,5.4-2.4,5.4-5.4V13.7h10.3c1.9,0,3.6,1.5,3.6,3.6V57.2z"/>
	<path class="st0" d="M28.2,41.1c1.9,0,3.4-1.5,3.4-3.4c0-1.9-1.5-3.4-3.4-3.4c-1.9,0-3.4,1.5-3.4,3.4
		C24.8,39.6,26.3,41.1,28.2,41.1z"/>
	<path class="st0" d="M42,41.1c1.9,0,3.4-1.5,3.4-3.4c0-1.9-1.5-3.4-3.4-3.4s-3.4,1.5-3.4,3.4C38.6,39.6,40.1,41.1,42,41.1z"/>
	<path class="st0" d="M55.5,41.1c1.9,0,3.4-1.5,3.4-3.4c0-1.9-1.5-3.4-3.4-3.4c-1.9,0-3.4,1.5-3.4,3.4
		C52.1,39.6,53.6,41.1,55.5,41.1z"/>
</g>
</svg>
