<?xml version="1.0" encoding="utf-8"?>
<!-- Generator: Adobe Illustrator 20.1.0, SVG Export Plug-In . SVG Version: 6.00 Build 0)  -->
<svg version="1.1" id="Layer_1" xmlns="http://www.w3.org/2000/svg" xmlns:xlink="http://www.w3.org/1999/xlink" x="0px" y="0px"
	 width="42px" height="61px" viewBox="0 0 42 61" style="enable-background:new 0 0 42 61;" xml:space="preserve">
<style type="text/css">
	.st0{fill:#414141;}
</style>
<g>
	<path class="st0" d="M21,0.2C9.6,0.2,0.4,9.4,0.4,20.8c0,6.5,3.1,12.7,8.3,16.6c0.6,0.4,1.4,2.2,2,3.7c1,2.3,2,4.6,3.2,5
		c1.4,0.5,2.9,0.9,4.4,1.1c0.1,0,0.1,0,0.2,0c0,0,0,0,0,0c0,0,0,0,0,0c0.8,0.1,1.6,0.2,2.4,0.2c2.4,0,4.8-0.4,7-1.2
		c1.3-0.5,2.3-2.7,3.4-5.2c0.7-1.6,1.5-3.3,2.1-3.8c5.1-3.9,8-9.9,8-16.3C41.6,9.4,32.4,0.2,21,0.2z M33,36.4
		c-0.8,0.6-1.6,2.3-2.4,4.2c-0.9,1.9-2,4.3-2.8,4.6c-1.3,0.5-2.6,0.8-4,1L25,26.3l4-4.6c0.2-0.2,0.2-0.5-0.1-0.7
		c-0.2-0.2-0.5-0.2-0.7,0.1l-4,4.7c0,0,0,0,0,0l0,0.1c0,0,0,0,0,0c0,0,0,0.1-0.1,0.1c0,0,0,0.1,0,0.1c0,0,0,0,0,0.1l-1.3,20.2
		c-1.2,0.1-2.5,0.1-3.7,0l-0.9-20.1c0,0,0,0,0,0c0-0.1,0-0.1,0-0.2c0,0,0,0,0,0c0,0,0,0,0,0c0-0.1-0.1-0.1-0.1-0.2l-5.5-4.7
		c-0.2-0.2-0.5-0.2-0.7,0.1c-0.2,0.2-0.2,0.5,0.1,0.7l5.3,4.6L18,46.1c-1.3-0.2-2.5-0.5-3.7-0.9c-0.8-0.3-1.8-2.6-2.6-4.5
		c-0.8-1.9-1.6-3.5-2.4-4.1c-5-3.7-7.9-9.5-7.9-15.8C1.4,10,10.2,1.2,21,1.2S40.6,10,40.6,20.8C40.6,26.9,37.8,32.6,33,36.4z"/>
	<path class="st0" d="M28.4,48.9c-4.9,1.6-9.2,1.7-14.3,0.2l-0.3-0.2c-0.2-0.1-0.5,0-0.7,0.2c-0.1,0.2,0,0.5,0.2,0.7l0.4,0.2
		c2.6,0.8,5,1.1,7.3,1.1c2.5,0,5-0.4,7.7-1.3c0.3-0.1,0.4-0.4,0.3-0.6C29,49,28.7,48.8,28.4,48.9z"/>
	<path class="st0" d="M28.4,52.9c-4.9,1.6-9.2,1.7-14.3,0.2L13.8,53c-0.2-0.1-0.5,0-0.7,0.2c-0.1,0.2,0,0.5,0.2,0.7l0.4,0.2
		c2.6,0.8,5,1.1,7.3,1.1c2.5,0,5-0.4,7.7-1.3c0.3-0.1,0.4-0.4,0.3-0.6C29,53,28.7,52.8,28.4,52.9z"/>
	<path class="st0" d="M27,56.3c-0.3,0-0.5,0.2-0.5,0.5c0,1.7-2.5,3.1-5.5,3.1s-5.5-1.4-5.5-3.1c0-0.3-0.2-0.5-0.5-0.5
		s-0.5,0.2-0.5,0.5c0,2.3,2.8,4.1,6.5,4.1s6.5-1.8,6.5-4.1C27.5,56.5,27.3,56.3,27,56.3z"/>
</g>
</svg>
