<?xml version="1.0" encoding="utf-8"?>
<!-- Generator: Adobe Illustrator 20.1.0, SVG Export Plug-In . SVG Version: 6.00 Build 0)  -->
<svg version="1.1" id="Layer_1" xmlns="http://www.w3.org/2000/svg" xmlns:xlink="http://www.w3.org/1999/xlink" x="0px" y="0px"
	 width="75px" height="55px" viewBox="0 0 75 55" style="enable-background:new 0 0 75 55;" xml:space="preserve">
<style type="text/css">
	.st0{fill:#414141;}
</style>
<path class="st0" d="M74.2,9.3c-0.6-0.9-1.7-1.4-3-1.4H59.5l0,0c-1.3-1.3-2.8-1.4-3.3-1.4H38c-1.4,0-1.9-0.9-2.8-2.3
	c-1-1.7-2.2-3.8-5.8-3.8H4.9C2.4,0.4,0.3,2.5,0.3,5v45c0,1.7,0.9,3.2,2.3,4c0.6,0.4,1.4,0.6,2.2,0.6h0.1h50.3h1v-0.1
	c2.1-0.4,4.1-1.9,4.8-3.8l13.5-38.6C74.9,11.1,74.8,10.1,74.2,9.3z M1.3,5c0-2,1.6-3.6,3.6-3.6h24.6c3,0,4,1.7,4.9,3.3
	C35.2,6.1,36,7.6,38,7.6h18.2c0.2,0,0.9,0,1.6,0.4h-9.1c-3.5,0-5.2,1.7-6.8,3.2c-1.1,1.1-2.1,2.1-3.6,2.1H19c-0.6,0-2,0.1-3.5,1.1
	c-1.1,0.7-1.9,1.7-2.3,2.7L1.5,50.4c0,0.1-0.1,0.3-0.1,0.4c-0.1-0.3-0.1-0.5-0.1-0.8V5z M73.6,11.8L60.1,50.4
	c-0.6,1.7-2.8,3.2-4.9,3.2H4.9c-0.7,0-1.3-0.2-1.9-0.6c-0.1-0.1-0.3-0.2-0.4-0.4c-0.4-0.5-0.4-1.2-0.2-1.9l11.7-33.3
	c0.3-0.8,1-1.6,1.9-2.2c1.3-0.9,2.6-1,3-1h19.3c1.9,0,3.1-1.2,4.3-2.4c1.5-1.4,3-2.9,6.1-2.9h22.4c1,0,1.8,0.3,2.2,0.9
	C73.7,10.4,73.8,11.1,73.6,11.8z"/>
</svg>
