<?xml version="1.0" encoding="utf-8"?>
<!-- Generator: Adobe Illustrator 22.0.1, SVG Export Plug-In . SVG Version: 6.00 Build 0)  -->
<svg version="1.1" id="Layer_1" xmlns="http://www.w3.org/2000/svg" xmlns:xlink="http://www.w3.org/1999/xlink" x="0px" y="0px"
	 viewBox="0 0 96 96" style="enable-background:new 0 0 96 96;" xml:space="preserve">
<style type="text/css">
	.st0{fill:#414141;}
</style>
<path class="st0" d="M48,3C23.2,3,3,23.2,3,48s20.2,45,45,45s45-20.2,45-45S72.8,3,48,3z M5.4,49.2h15.8c0,6.1,1,11.7,2.2,17H9.6
	C7.1,61.1,5.7,55.3,5.4,49.2z M49.2,27.3V5.4c8.5,0.7,16.1,9.2,19.9,21.9H49.2z M69.9,29.8c1.5,5.1,2.2,10.9,2.4,17H49.2v-17H69.9z
	 M46.8,27.3h-20c3.9-12.4,11.5-20.9,20-21.9V27.3z M46.8,29.8v17H23.7c0-6.1,1-11.9,2.4-17H46.8z M21.2,46.8H5.4
	c0.2-6.1,1.7-11.9,4.1-17h14.1C22.2,35.1,21.5,40.7,21.2,46.8z M23.7,49.2h23.1v17H26.1C24.6,61.1,23.9,55.3,23.7,49.2z M46.8,68.7
	v21.9c-8.5-0.7-16.1-9.2-19.9-21.9H46.8z M49.2,68.7h19.9c-3.9,12.4-11.4,20.9-19.9,21.9C49.2,90.6,49.2,68.7,49.2,68.7z M49.2,66.2
	v-17h23.1c0,6.1-1,11.9-2.4,17H49.2z M74.8,49.2h15.8c-0.2,6.1-1.7,11.9-4.1,17H72.3C73.8,60.9,74.5,55.3,74.8,49.2z M74.8,46.8
	c0-6.1-1-11.7-2.2-17h13.9c2.4,5.1,3.9,10.9,4.1,17H74.8z M85.2,27.3H71.8c-2.7-9-7.3-16.3-12.9-20.4C70.1,9.8,79.6,17.4,85.2,27.3z
	 M37.3,6.9C31.7,11,27.1,18.3,24.4,27.3H11C16.4,17.4,25.9,9.8,37.3,6.9z M10.8,68.7h13.4c2.7,9,7.3,16.3,12.9,20.4
	C25.9,86.2,16.4,78.6,10.8,68.7z M58.7,89.1c5.6-4.1,10.2-11.4,12.9-20.4H85C79.6,78.6,70.1,86.2,58.7,89.1z"/>
</svg>
