<svg xmlns="http://www.w3.org/2000/svg" xmlns:xlink="http://www.w3.org/1999/xlink" width="48" height="48" viewBox="0 0 48 48">
  <defs>
    <clipPath id="clip-path">
      <rect width="48" height="48" fill="none"/>
    </clipPath>
  </defs>
  <g id="People.M_D" clip-path="url(#clip-path)">
    <rect id="Rectangle_724" data-name="Rectangle 724" width="48" height="48" fill="none"/>
    <g id="Group_2413_1_" transform="translate(-446 42)">
      <path id="Path_1061" d="M454-2a12.035,12.035,0,0,1,12-12A12.035,12.035,0,0,1,478-2" fill="none"/>
      <path id="Path_2078" data-name="Path 2078" d="M478.1-21.3c.3-.2.7-.5,1-.7a7.2,7.2,0,0,0,2-5,6.957,6.957,0,0,0-7-7,7.067,7.067,0,0,0-4.9,2.1,6.8,6.8,0,0,0-2,4.9,3.749,3.749,0,0,0,.1,1.1A5.7,5.7,0,0,0,466-26a6.957,6.957,0,0,0-7,7,7,7,0,0,0,2.9,5.7A12.053,12.053,0,0,0,454-2h2a10.029,10.029,0,0,1,10-10A10.029,10.029,0,0,1,476-2h2a12.053,12.053,0,0,0-7.9-11.3A6.875,6.875,0,0,0,473-19a2.768,2.768,0,0,0-.1-.9c.4,0,.7-.1,1.1-.1a10.029,10.029,0,0,1,10,10h2A12.053,12.053,0,0,0,478.1-21.3ZM466-14a4.951,4.951,0,0,1-5-5,4.951,4.951,0,0,1,5-5,4.951,4.951,0,0,1,5,5A4.951,4.951,0,0,1,466-14Zm8.1-8a4.671,4.671,0,0,1-1.7-.3l-.3-.1a7.006,7.006,0,0,0-2.7-2.7c-.3-.2-.3-1.6-.3-1.9a5.093,5.093,0,0,1,1.5-3.5,4.691,4.691,0,0,1,3.5-1.5,4.951,4.951,0,0,1,5,5,5.093,5.093,0,0,1-1.5,3.5A4.691,4.691,0,0,1,474.1-22Z" fill="#414141"/>
    </g>
  </g>
</svg>
