<svg xmlns="http://www.w3.org/2000/svg" xmlns:xlink="http://www.w3.org/1999/xlink" width="48" height="48" viewBox="0 0 48 48">
  <defs>
    <clipPath id="clip-path">
      <rect width="48" height="48" fill="none"/>
    </clipPath>
  </defs>
  <g id="WorldGlobe.M_D" clip-path="url(#clip-path)">
    <rect id="Rectangle_724" data-name="Rectangle 724" width="48" height="48" fill="none"/>
    <path id="Path_2327" data-name="Path 2327" d="M997,1590a16,16,0,1,0,16,16A16.047,16.047,0,0,0,997,1590Zm12.6,10h-3.3a17.009,17.009,0,0,0-3-6.5,14.972,14.972,0,0,1,3.6,2.6A14.38,14.38,0,0,1,1009.6,1600Zm-4.6,6a17.515,17.515,0,0,1-.4,4H998v-8h6.6A17.515,17.515,0,0,1,1005,1606Zm-15.2,6H996v7.9C993.3,1619.3,991,1616.2,989.8,1612Zm-.8-6a17.515,17.515,0,0,1,.4-4H996v8h-6.6A17.515,17.515,0,0,1,989,1606Zm7-13.9v7.9h-6.2C991,1595.8,993.3,1592.7,996,1592.1Zm2,27.8V1612h6.2C1003,1616.2,1000.7,1619.3,998,1619.9Zm0-19.9v-7.9c2.7.6,5,3.7,6.2,7.9Zm-10.9-3.9a14.972,14.972,0,0,1,3.6-2.6,18.639,18.639,0,0,0-3,6.5h-3.3A14.383,14.383,0,0,1,987.1,1596.1ZM983,1606a13.365,13.365,0,0,1,.6-4h3.7a26.818,26.818,0,0,0,0,8h-3.7A13.365,13.365,0,0,1,983,1606Zm1.4,6h3.3a17.009,17.009,0,0,0,3,6.5,14.972,14.972,0,0,1-3.6-2.6A14.38,14.38,0,0,1,984.4,1612Zm22.5,3.9a14.972,14.972,0,0,1-3.6,2.6,18.639,18.639,0,0,0,3-6.5h3.3A14.383,14.383,0,0,1,1006.9,1615.9Zm-.2-5.9a26.818,26.818,0,0,0,0-8h3.7a13.634,13.634,0,0,1,0,8Z" transform="translate(-973 -1582)" fill="#414141"/>
  </g>
</svg>
