<?xml version="1.0" encoding="utf-8"?>
<!-- Generator: Adobe Illustrator 20.1.0, SVG Export Plug-In . SVG Version: 6.00 Build 0)  -->
<svg version="1.1" id="Layer_1" xmlns="http://www.w3.org/2000/svg" xmlns:xlink="http://www.w3.org/1999/xlink" x="0px" y="0px"
	 width="42px" height="42px" viewBox="0 0 42 42" style="enable-background:new 0 0 42 42;" xml:space="preserve">
<style type="text/css">
	.st0{fill:#EFF9FE;}
	.st1{fill:#3D6480;}
</style>
<g>
	<g>
		<g>
			<polygon class="st0" points="10,10 10,32 22.8,32 32,23 32,10 			"/>
			<polygon class="st1" points="10,32 10,10 32,10 32,23 34,21 34,8 8,8 8,34 20.7,34 22.8,32 			"/>
		</g>
		<g>
			<polygon class="st1" points="37.3,32.8 37.3,35.9 32.1,30.7 30.7,32 35.9,37.3 32.8,37.3 32.8,39.2 39.2,39.2 39.2,32.8 			"/>
		</g>
	</g>
	<g>
		<path class="st1" d="M25.5,25.7h-1.4l-0.9-2.6h-4.5l-0.9,2.6h-1.4L20.1,15h1.9L25.5,25.7z M21,16l-1.9,5.9h3.8L21,16z"/>
	</g>
</g>
</svg>
