<?xml version="1.0" encoding="utf-8"?>
<!-- Generator: Adobe Illustrator 20.1.0, SVG Export Plug-In . SVG Version: 6.00 Build 0)  -->
<svg version="1.1" id="Layer_1" xmlns="http://www.w3.org/2000/svg" xmlns:xlink="http://www.w3.org/1999/xlink" x="0px" y="0px"
	 width="42px" height="42px" viewBox="0 0 42 42" style="enable-background:new 0 0 42 42;" xml:space="preserve">
<style type="text/css">
	.st0{fill:#3D6480;}
	.st1{fill:#EFF9FE;}
	.st2{fill:none;}
</style>
<g>
	<polygon class="st0" points="12.5,5.6 10.6,5.6 10.6,8.7 5.4,3.4 4.1,4.8 9.3,10 6.2,10 6.2,11.9 12.5,11.9 	"/>
	<g>
		<polygon class="st1" points="32,32 32,10 19.2,10 10,19 10,32 		"/>
		<polygon class="st0" points="32,10 32,32 10,32 10,19 8,21 8,34 34,34 34,8 21.3,8 19.2,10 		"/>
	</g>
</g>
<g>
	<path class="st0" d="M25.5,26.3h-1.4l-0.9-2.6h-4.5l-0.9,2.6h-1.4l3.6-10.7h1.9L25.5,26.3z M21,16.7l-1.9,5.9h3.8L21,16.7z"/>
</g>
</svg>
