<?xml version="1.0" encoding="utf-8"?>
<!-- Generator: Adobe Illustrator 19.2.0, SVG Export Plug-In . SVG Version: 6.00 Build 0)  -->
<!DOCTYPE svg PUBLIC "-//W3C//DTD SVG 1.1//EN" "http://www.w3.org/Graphics/SVG/1.1/DTD/svg11.dtd">
<svg version="1.1" id="Layer_1" xmlns="http://www.w3.org/2000/svg" xmlns:xlink="http://www.w3.org/1999/xlink" x="0px" y="0px"
	 viewBox="0 0 380.4 243.1" style="enable-background:new 0 0 380.4 243.1;" xml:space="preserve">
<style type="text/css">
	.st0{fill:#F0F0F0;}
	.st1{fill:#3D6380;}
	.st2{fill:#EEF8FD;}
	.st3{fill:#CCCCCC;}
	.st4{fill:#FFFFFF;}
</style>
<g>
	<path class="st0" d="M227.5,173h-74c-1.1,0-2.4,0.4-2.5,2v45.5h79V175C230,173.9,228.9,173,227.5,173z M189.7,174.7
		c0-0.2,0.2-0.4,0.4-0.4c0.1,0,0.1,0,0.2,0.1c0.1,0,0.1-0.1,0.2-0.1c0.2,0,0.4,0.2,0.4,0.4c0,0.2-0.2,0.4-0.4,0.4
		c-0.1,0-0.1,0-0.2-0.1c-0.1,0-0.1,0.1-0.2,0.1C189.9,175.1,189.7,174.9,189.7,174.7z M227.2,217.7h-73.4v-41.2h73.4V217.7z"/>
	<path class="st1" d="M227.5,172h-0.7h-73.3h0c0,0,0,0,0,0c-2.1,0-3.4,1.1-3.5,3v45.5v1.1v5.9c0,1.9,1.6,3.5,3.5,3.5h27.2
		c-0.3,2.3-0.8,6.1-0.9,6.6c-0.2,0.4-1.8,1.8-2.5,2.4c-0.5,0.5-0.8,0.8-0.9,0.9c-0.4,0.4-0.3,1,0,1.3c0,0,0.5,0.5,1.6,0.6
		c0.6,0.1,7.7,0.1,12.7,0.1c0.2,0,0.4,0,0.6,0.2h0.5c4.1,0,10.6-0.1,11.1-0.1c1.1-0.1,1.5-0.6,1.6-0.7c0.3-0.3,0.4-0.8,0-1.3
		c-0.1-0.2-0.3-0.4-0.9-0.9c-0.7-0.7-2.4-2.1-2.5-2.4c-0.2-0.5-0.7-4.4-0.9-6.7h27.3c1.9,0,3.5-1.6,3.5-3.5v-5.9v-1.1V175
		C231,173.4,229.4,172,227.5,172z M230,227.5c0,1.4-1.1,2.5-2.5,2.5h-74c-1.4,0-2.5-1.1-2.5-2.5v-6h79V227.5z M203.7,241.6
		c0,0-0.2,0.2-0.9,0.3c-0.3,0.1-5.2,0.1-11.5,0.1h-0.5c-6.8,0-12.3-0.1-12.7-0.1c-0.6-0.1-0.9-0.4-0.9-0.4c0-0.1,0.4-0.5,0.8-0.8
		c1.4-1.2,2.4-2.2,2.7-2.8c0.2-0.5,0.5-3.2,0.7-5.1l18,0.2c0.2,1.9,0.6,4.6,0.7,5.1c0.2,0.5,1.3,1.5,2.7,2.7
		C203.2,241.2,203.6,241.5,203.7,241.6z M199.2,231.8h-17.5c0-0.3,0.1-0.6,0.1-0.8h7.9h9.4C199.1,231.2,199.2,231.5,199.2,231.8z
		 M151,220.5V175c0.1-1.6,1.4-2,2.5-2h74c1.4,0,2.5,0.9,2.5,2v45.5H151z"/>
	<path class="st0" d="M151,227.5c0,1.4,1.1,2.5,2.5,2.5h74c1.4,0,2.5-1.1,2.5-2.5v-6h-79V227.5z"/>
	<rect x="154.8" y="177.5" class="st2" width="71.4" height="39.2"/>
	<path class="st1" d="M153.8,217.7h73.4v-41.2h-73.4V217.7z M154.8,177.5h71.4v39.2h-71.4V177.5z"/>
	<path class="st0" d="M200.2,238.1c-0.2-0.5-0.5-3.2-0.7-5.1l-18-0.2c-0.2,1.9-0.5,4.6-0.7,5.1c-0.3,0.6-1.3,1.6-2.7,2.8
		c-0.4,0.3-0.8,0.7-0.8,0.8c0,0,0.3,0.3,0.9,0.4c0.4,0,5.9,0.1,12.7,0.1h0.5c6.3,0,11.2,0,11.5-0.1c0.7-0.1,0.9-0.3,0.9-0.3
		c-0.1-0.1-0.5-0.4-0.8-0.8C201.5,239.6,200.4,238.6,200.2,238.1z"/>
	<path class="st0" d="M181.8,231c0,0.2-0.1,0.5-0.1,0.8h17.5c0-0.3-0.1-0.6-0.1-0.8h-9.4H181.8z"/>
	<path class="st1" d="M190.1,175.1c0.1,0,0.1,0,0.2-0.1c0.1,0,0.1,0.1,0.2,0.1c0.2,0,0.4-0.2,0.4-0.4c0-0.2-0.2-0.4-0.4-0.4
		c-0.1,0-0.1,0-0.2,0.1c-0.1,0-0.1-0.1-0.2-0.1c-0.2,0-0.4,0.2-0.4,0.4C189.7,174.9,189.9,175.1,190.1,175.1z"/>
	<circle class="st3" cx="190.4" cy="139.3" r="3.1"/>
	<circle class="st3" cx="190.4" cy="158" r="3.1"/>
	<ellipse transform="matrix(0.8213 -0.5704 0.5704 0.8213 -54.7592 86.6849)" class="st3" cx="111" cy="130.8" rx="3.1" ry="3.1"/>
	<ellipse transform="matrix(0.8213 -0.5704 0.5704 0.8213 -63.5754 79.7642)" class="st3" cx="95.6" cy="141.4" rx="3.1" ry="3.1"/>
	
		<ellipse transform="matrix(0.8213 -0.5704 0.5704 0.8213 -45.9059 93.5571)" class="st3" cx="126.4" cy="120.1" rx="3.1" ry="3.1"/>
	
		<ellipse transform="matrix(0.8213 -0.5704 0.5704 0.8213 -37.0525 100.4293)" class="st3" cx="141.8" cy="109.4" rx="3.1" ry="3.1"/>
	<path class="st0" d="M77.5,133h-74c-1.1,0-2.4,0.4-2.5,2c0,0,0,45.3,0,45.5h79V135C80,133.9,78.9,133,77.5,133z M40.5,134.3
		c0.2,0,0.4,0.2,0.4,0.4c0,0.2-0.2,0.4-0.4,0.4c-0.2,0-0.4-0.2-0.4-0.4C40.1,134.5,40.3,134.3,40.5,134.3z M77.2,177.7H3.8v-41.2
		h73.4V177.7z"/>
	<path class="st1" d="M77.5,132h-74c-2.1,0-3.4,1.1-3.5,3v45.5v1.1v5.9c0,1.9,1.6,3.5,3.5,3.5h27.2c-0.3,2.3-0.8,6.1-0.9,6.6
		c-0.2,0.4-1.8,1.8-2.5,2.4c-0.5,0.5-0.8,0.8-0.9,0.9c-0.4,0.4-0.3,1,0,1.3c0,0,0.5,0.5,1.6,0.6c0.6,0.1,7.7,0.1,12.7,0.1
		c0.2,0,0.4,0,0.6,0.2h0.5c4.1,0,10.6-0.1,11.1-0.1c1.1-0.1,1.5-0.6,1.6-0.7c0.3-0.3,0.4-0.8,0-1.3c-0.1-0.2-0.3-0.4-0.9-0.9
		c-0.7-0.7-2.4-2.1-2.5-2.4c-0.2-0.5-0.7-4.4-0.9-6.7h27.3c1.9,0,3.5-1.6,3.5-3.5v-5.9v-1.1V135C81,133.4,79.4,132,77.5,132z
		 M80,187.5c0,1.4-1.1,2.5-2.5,2.5h-74c-1.4,0-2.5-1.1-2.5-2.5v-6h79V187.5z M53.7,201.6c0,0-0.2,0.2-0.9,0.3
		c-0.3,0.1-5.2,0.1-11.5,0.1h-0.5c-6.7,0-12.3-0.1-12.7-0.1c-0.6-0.1-0.9-0.4-0.9-0.4c0-0.1,0.4-0.5,0.8-0.8
		c1.4-1.2,2.4-2.2,2.7-2.8c0.2-0.5,0.5-3.2,0.7-5.1l18,0.2c0.2,1.9,0.6,4.6,0.7,5.1c0.2,0.5,1.3,1.5,2.7,2.7
		C53.2,201.2,53.6,201.5,53.7,201.6z M49.2,191.8H31.7c0-0.3,0.1-0.6,0.1-0.8h7.9h9.4C49.1,191.2,49.2,191.5,49.2,191.8z M80,180.5
		H1c0-0.2,0-45.5,0-45.5c0.1-1.6,1.4-2,2.5-2h74c1.4,0,2.5,0.9,2.5,2V180.5z"/>
	<path class="st0" d="M1,187.5c0,1.4,1.1,2.5,2.5,2.5h74c1.4,0,2.5-1.1,2.5-2.5v-6H1V187.5z"/>
	<rect x="4.8" y="137.5" class="st2" width="71.4" height="39.2"/>
	<path class="st1" d="M3.8,177.7h73.4v-41.2H3.8V177.7z M4.8,137.5h71.4v39.2H4.8V137.5z"/>
	<path class="st0" d="M50.2,198.1c-0.2-0.5-0.5-3.2-0.7-5.1l-18-0.2c-0.2,1.9-0.5,4.6-0.7,5.1c-0.3,0.6-1.3,1.6-2.7,2.8
		c-0.4,0.3-0.8,0.7-0.8,0.8c0,0,0.3,0.3,0.9,0.4c0.4,0,6,0.1,12.7,0.1h0.5c6.3,0,11.2,0,11.5-0.1c0.7-0.1,0.9-0.3,0.9-0.3
		c-0.1-0.1-0.5-0.4-0.8-0.8C51.5,199.6,50.4,198.6,50.2,198.1z"/>
	<path class="st0" d="M31.8,191c0,0.2-0.1,0.5-0.1,0.8h17.5c0-0.3-0.1-0.6-0.1-0.8h-9.4H31.8z"/>
	<circle class="st1" cx="40.5" cy="134.7" r="0.4"/>
	<ellipse transform="matrix(0.5704 -0.8213 0.8213 0.5704 8.3036 277.4867)" class="st3" cx="269.4" cy="130.8" rx="3.1" ry="3.1"/>
	<ellipse transform="matrix(0.5704 -0.8213 0.8213 0.5704 6.1445 294.6429)" class="st3" cx="284.8" cy="141.4" rx="3.1" ry="3.1"/>
	<ellipse transform="matrix(0.5704 -0.8213 0.8213 0.5704 10.475 260.2399)" class="st3" cx="254" cy="120.1" rx="3.1" ry="3.1"/>
	
		<ellipse transform="matrix(0.5704 -0.8213 0.8213 0.5704 12.6472 242.9945)" class="st3" cx="238.6" cy="109.4" rx="3.1" ry="3.1"/>
	<path class="st0" d="M376.9,133h-74c-1.4,0-2.5,0.9-2.5,2v45.5h79V135C379.4,133.3,378,133,376.9,133z M339.9,134.3
		c0.2,0,0.4,0.2,0.4,0.4c0,0.2-0.2,0.4-0.4,0.4c-0.2,0-0.4-0.2-0.4-0.4C339.5,134.5,339.7,134.3,339.9,134.3z M376.6,177.7h-73.4
		v-41.2h73.4V177.7z"/>
	<path class="st1" d="M376.9,132h-74c-1.9,0-3.5,1.3-3.5,3v45.5v1.1v5.9c0,1.9,1.6,3.5,3.5,3.5h27.3c-0.3,2.3-0.8,6.1-0.9,6.6
		c-0.2,0.4-1.8,1.8-2.5,2.4c-0.5,0.5-0.8,0.8-0.9,0.9c-0.4,0.4-0.3,1,0,1.3c0,0,0.5,0.5,1.6,0.6c0.5,0.1,7,0.1,11.1,0.1h0.5
		c0.2,0,0.4,0,0.6,0c5,0,12.1,0,12.7,0.1c1.1-0.1,1.5-0.6,1.6-0.7c0.3-0.3,0.4-0.8,0-1.3c-0.1-0.2-0.3-0.4-0.9-0.9
		c-0.7-0.7-2.4-2.1-2.5-2.4c-0.2-0.5-0.7-4.4-0.9-6.7h27.2c1.9,0,3.5-1.6,3.5-3.5v-5.9v-1.1V135C380.3,133.1,379,132,376.9,132z
		 M379.4,187.5c0,1.4-1.1,2.5-2.5,2.5h-27.5l0-0.1h-8.3h-10.8v0.1h-27.4c-1.4,0-2.5-1.1-2.5-2.5v-6h79V187.5z M353.2,201.5
		c0,0-0.2,0.2-0.9,0.3c-0.4,0.1-5.8,0.1-12.5,0.1c-0.1,0-0.2,0-0.3,0H339c-6.3,0-11.1-0.1-11.5-0.1c-0.6,0-0.9-0.3-0.9-0.3
		c0-0.1,0.4-0.5,0.8-0.8c1.4-1.2,2.4-2.2,2.7-2.8c0.2-0.5,0.5-3.2,0.7-5.1h18c0.2,1.9,0.6,4.7,0.7,5.2c0.2,0.5,1.3,1.5,2.7,2.7
		C352.7,201,353.1,201.4,353.2,201.5z M348.6,191.8h-17.5c0.1-0.3,0.1-0.6,0.1-0.8h8.9h8.4C348.5,191.2,348.6,191.5,348.6,191.8z
		 M379.4,180.5h-79V135c0-1.1,1.1-2,2.5-2h74c1.1,0,2.5,0.3,2.5,2V180.5z"/>
	<path class="st0" d="M300.4,187.5c0,1.4,1.1,2.5,2.5,2.5h27.4v-0.1h10.8h8.3l0,0.1h27.5c1.4,0,2.5-1.1,2.5-2.5v-6h-79V187.5z"/>
	<rect x="304.2" y="137.5" class="st2" width="71.4" height="39.2"/>
	<path class="st1" d="M303.2,177.7h73.4v-41.2h-73.4V177.7z M304.2,137.5h71.4v39.2h-71.4V137.5z"/>
	<path class="st0" d="M349.6,198c-0.2-0.5-0.5-3.3-0.7-5.2h-18c-0.2,1.9-0.5,4.6-0.7,5.1c-0.3,0.6-1.3,1.6-2.7,2.8
		c-0.4,0.3-0.8,0.7-0.8,0.8c0,0,0.3,0.3,0.9,0.3c0.4,0,5.2,0.1,11.5,0.1h0.5c0.1,0,0.2,0,0.3,0c6.7,0,12.1,0,12.5-0.1
		c0.7-0.1,0.9-0.3,0.9-0.3c-0.1-0.1-0.5-0.5-0.9-0.8C350.9,199.5,349.8,198.5,349.6,198z"/>
	<path class="st0" d="M331.2,191c0,0.2,0,0.5-0.1,0.8h17.5c0-0.3-0.1-0.6-0.1-0.8h-8.4H331.2z"/>
	<circle class="st1" cx="339.9" cy="134.7" r="0.4"/>
	<path class="st2" d="M239.4,88.3c12.6-0.1,22.8-10.4,22.8-23s-10.3-22.9-22.9-23h-5.8l0.1-5.8c0-0.2,0-0.4,0-0.7v-0.1
		c0-0.2,0-0.2,0-0.3c0-19.1-15.6-34.7-34.7-34.7c-13.3,0-25.5,7.8-31.3,19.8l-2.5,5.3l-5.2-2.6c-2.1-1.1-4.4-1.7-6.7-1.7
		c-7.4,0-13.7,5.3-14.9,12.6l-0.6,3.3l-3.2,1.1c-10.3,3.5-17.3,13.3-17.3,24.2c0,14.1,11.5,25.6,25.6,25.6H154v-48c0-2.2,1.8-4,4-4
		h63.4c2.2,0,4,1.8,4,4v48H239.4z"/>
	<path class="st1" d="M239.5,41.4h-4.8l0.1-4.8c0-0.2,0-0.4,0-0.6v-0.2c0-0.1,0-0.2,0-0.3c0-19.7-16-35.7-35.7-35.7
		c-13.7,0-26.3,7.9-32.2,20.3l-2.1,4.3l-4.3-2.2c-2.3-1.1-4.7-1.7-7.2-1.7c-7.9,0-14.6,5.6-15.9,13.4l-0.5,2.8l-2.7,0.9
		c-10.8,3.7-18,13.8-18,25.1c0,14.7,12,26.6,26.6,26.6v0.1H154v33.7c0,2.2,1.8,4,4,4h63.4c2.2,0,4-1.8,4-4V89.4h13.1h1.1
		c13.1-0.1,23.8-10.9,23.8-24C263.4,52.2,252.7,41.4,239.5,41.4z M221.4,126.1H158c-1.6,0-3-1.3-3-3V95.7h69.4v27.4
		C224.4,124.7,223.1,126.1,221.4,126.1z M155,94.7V65.8h69.4v28.9H155z M224.4,64.8H155V40.3c0-1.6,1.3-3,3-3h63.4c1.6,0,3,1.3,3,3
		V64.8z M221.4,36.3H158c-2.2,0-4,1.8-4,4v48h-11.2c-14.1,0-25.6-11.5-25.6-25.6c0-10.9,7-20.7,17.3-24.2l3.2-1.1l0.6-3.3
		c1.2-7.3,7.5-12.6,14.9-12.6c2.3,0,4.6,0.6,6.7,1.7l5.2,2.6l2.5-5.3c5.8-12,18-19.8,31.3-19.8c19.1,0,34.7,15.6,34.7,34.7
		c0,0.1,0,0.1,0,0.3v0.1c0,0.3,0,0.5,0,0.7l-0.1,5.8h5.8c12.6,0.1,22.9,10.4,22.9,23s-10.2,22.9-22.8,23h-14v-48
		C225.4,38.1,223.6,36.3,221.4,36.3z"/>
	<path class="st0" d="M224.4,95.7H155v27.4c0,1.7,1.4,3,3,3h63.4c1.7,0,3-1.4,3-3V95.7z M199,111.1h-31.7v-1H199V111.1z
		 M216.4,114.6c0.1,0.4-0.3,0.8-0.9,0.8h-7.7c-0.5,0-0.9-0.4-0.9-0.8v-7.8c0-0.5,0.4-0.8,0.9-0.8h7.7c0.5,0,0.9,0.4,0.9,0.8V114.6z"
		/>
	<path class="st0" d="M221.4,37.3H158c-1.7,0-3,1.4-3,3v24.5h69.4V40.3C224.4,38.6,223,37.3,221.4,37.3z M199,51.4h-31.7v-1H199
		V51.4z M216.4,54.8c0.1,0.5-0.3,0.8-0.9,0.8h-7.7c-0.5,0-0.9-0.4-0.9-0.8V47c0-0.5,0.4-0.8,0.9-0.8h7.7c0.5,0,0.9,0.4,0.9,0.8V54.8
		z"/>
	<path class="st0" d="M224.4,65.8H155v28.9h69.4V65.8z M206.9,77c0-0.5,0.4-0.8,0.9-0.8h7.7c0.5,0,0.9,0.4,0.9,0.8v7.8
		c0.1,0.4-0.3,0.8-0.9,0.8h-7.7c-0.5,0-0.9-0.4-0.9-0.8V77z M167.3,80.4H199v1h-31.7V80.4z"/>
	<rect x="167.3" y="50.4" class="st1" width="31.7" height="1"/>
	<rect x="208" y="47.1" class="st4" width="7.5" height="7.5"/>
	<path class="st1" d="M215.5,46.2h-7.7c-0.5,0-0.9,0.3-0.9,0.8v7.8c0,0.4,0.4,0.8,0.9,0.8h7.7c0.6,0,1-0.3,0.9-0.8V47
		C216.4,46.6,216,46.2,215.5,46.2z M215.5,54.6H208v-7.5h7.5V54.6z"/>
	<rect x="167.3" y="80.4" class="st1" width="31.7" height="1"/>
	<rect x="208" y="77.1" class="st4" width="7.5" height="7.5"/>
	<path class="st1" d="M207.8,85.6h7.7c0.6,0,1-0.4,0.9-0.8V77c0-0.4-0.4-0.8-0.9-0.8h-7.7c-0.5,0-0.9,0.3-0.9,0.8v7.8
		C206.9,85.2,207.3,85.6,207.8,85.6z M208,77.1h7.5v7.5H208V77.1z"/>
	<rect x="167.3" y="110.1" class="st1" width="31.7" height="1"/>
	<rect x="208" y="106.9" class="st4" width="7.5" height="7.5"/>
	<path class="st1" d="M215.5,106h-7.7c-0.5,0-0.9,0.3-0.9,0.8v7.8c0,0.4,0.4,0.8,0.9,0.8h7.7c0.6,0,1-0.4,0.9-0.8v-7.8
		C216.4,106.4,216,106,215.5,106z M215.5,114.4H208v-7.5h7.5V114.4z"/>
</g>
</svg>
