<?xml version="1.0" encoding="utf-8"?>
<!-- Generator: Adobe Illustrator 18.0.0, SVG Export Plug-In . SVG Version: 6.00 Build 0)  -->
<!DOCTYPE svg PUBLIC "-//W3C//DTD SVG 1.1//EN" "http://www.w3.org/Graphics/SVG/1.1/DTD/svg11.dtd">
<svg version="1.1" id="Layer_1" xmlns="http://www.w3.org/2000/svg" xmlns:xlink="http://www.w3.org/1999/xlink" x="0px" y="0px"
	 viewBox="0 0 42 42" enable-background="new 0 0 42 42" xml:space="preserve">
<g>
	<g>
		<path fill="none" d="M27,16.4c1,0,1.5-0.5,1.5-1.3v-2.8c0-0.8-0.5-1.3-1.5-1.3s-1.5,0.5-1.5,1.3v2.8C25.4,15.9,25.9,16.4,27,16.4z
			"/>
		<polygon fill="#FFEBCD" points="25.4,32 25.4,35.1 31.1,38 31.1,32.1 29.6,34.2 		"/>
		<polygon fill="#FFEBCD" points="37.5,31.8 33.1,34.2 31.6,31.8 31.6,38.1 37.5,35.1 		"/>
		<rect x="25" y="27.7" fill="#FFEBCD" width="0" height="0"/>
		<polygon fill="#FFEBCD" points="30.7,31.1 25.1,28.3 23.7,30.1 29.3,33 		"/>
		<polygon fill="#FFEBCD" points="38.9,29.9 37.8,28.2 32.2,31.1 33.4,32.9 		"/>
		<polygon fill="#FFEBCD" points="38.4,31.2 38.4,35.7 31.5,39.2 24.5,35.7 24.5,31.6 24.5,31.5 24.5,35.7 31.5,39.2 38.5,35.7 
			38.5,31.2 		"/>
		<polygon fill="#FFEBCD" points="26.1,27.8 31.5,30.5 36.8,27.7 34.1,26.6 34.4,25.8 34.1,25.7 31.4,28.4 28.7,25.7 28.3,25.9 
			28.7,26.7 		"/>
		<path fill="#3D6480" d="M24.5,35.7l7,3.5l7-3.5v-4.4l0,0l1.8-1l-1.9-2.8l-4-1.7l0,0.1l-0.3,0.8l2.7,1.1l-5.3,2.7l-5.4-2.7l2.6-1.1
			l-0.3-0.8l0-0.1l-3.8,1.6l-2.2,3l2.2,1.1l0,0V35.7z M37.8,28.2l1.1,1.7l-5.5,3l-1.2-1.8L37.8,28.2z M31.6,31.8l1.6,2.4l4.3-2.4
			v3.3l-5.9,3V31.8z M31.1,38l-5.7-2.9v-3l4.1,2.2l1.5-2.1V38z M25,27.7L25,27.7L25,27.7L25,27.7L25,27.7z M23.7,30.1l1.4-1.8
			l5.6,2.8L29.3,33L23.7,30.1z"/>
		<path fill="#0CB20F" d="M34.1,25.7l0.1-0.1l-0.7-0.7l-1.6,1.6v-1.7c0-2.8-1.2-4.1-3.9-4.1v1c2.2,0,2.9,0.8,2.9,3v1.7l-1.7-1.7
			l-0.7,0.7l0.2,0.2l2.7,2.7L34.1,25.7z"/>
		<polygon fill="#3D6480" points="13.4,10.4 11.5,15.5 9.6,10.4 8.5,10.4 8.3,17 9.1,17 9.2,11.6 10.9,16.2 12.1,16.2 13.8,11.6 
			13.9,17 14.7,17 14.5,10.4 		"/>
		<polygon fill="#3D6480" points="17.2,16.4 15.9,12.2 15.1,12.2 16.6,17 17,17 16.3,19 17.1,19 17.8,17 19.4,12.2 18.6,12.2 		"/>
		<path fill="#3D6480" d="M23.7,15.3c0-1.3-0.1-1.6-1.9-2c-1.3-0.3-1.3-0.4-1.3-1.3c0-0.8,0.2-1,1.3-1c0.5,0,1.2,0.1,1.7,0.2
			l0.1-0.7c-0.5-0.1-1.2-0.2-1.8-0.2c-1.6,0-2.1,0.6-2.1,1.7c0,1.4,0.2,1.7,1.8,2c1.4,0.3,1.4,0.4,1.4,1.3c0,0.8-0.2,1-1.3,1
			c-0.6,0-1.2-0.1-1.9-0.3l-0.1,0.7c0.6,0.2,1.3,0.4,2,0.4C23.4,17.1,23.7,16.5,23.7,15.3z"/>
		<path fill="#3D6480" d="M26.7,17.1l0.7,1.6l0.8-0.3l-0.6-1.3c1.2-0.2,1.7-1,1.7-2v-2.8c0-1.1-0.7-2-2.4-2c-1.7,0-2.4,0.9-2.4,2
			v2.8C24.6,16.2,25.2,17,26.7,17.1z M25.4,12.3c0-0.8,0.5-1.3,1.5-1.3s1.5,0.5,1.5,1.3v2.8c0,0.8-0.5,1.3-1.5,1.3s-1.5-0.5-1.5-1.3
			V12.3z"/>
		<polygon fill="#3D6480" points="34.2,16.3 31.3,16.3 31.3,10.4 30.4,10.4 30.4,17 34.2,17 		"/>
	</g>
</g>
</svg>
