<?xml version="1.0" encoding="utf-8"?>
<!-- Generator: Adobe Illustrator 17.0.0, SVG Export Plug-In . SVG Version: 6.00 Build 0)  -->
<!DOCTYPE svg PUBLIC "-//W3C//DTD SVG 1.1//EN" "http://www.w3.org/Graphics/SVG/1.1/DTD/svg11.dtd">
<svg version="1.1" id="Layer_1" xmlns="http://www.w3.org/2000/svg" xmlns:xlink="http://www.w3.org/1999/xlink" x="0px" y="0px"
	 width="42px" height="42px" viewBox="0 0 42 42" enable-background="new 0 0 42 42" xml:space="preserve">
<g>
	<path fill="none" d="M9.568,14.382h22.732V11.82H9.568V14.382z M28.846,12.543h2.369v0.8h-2.369V12.543z"/>
	<path fill="#EFF9FE" d="M9.568,30.51h22.732V15.182H9.568V30.51z M14.358,20.015h13.154v0.8H14.358V20.015z M14.358,22.793h13.154
		v0.8H14.358V22.793z M14.358,25.57h5.541v0.8h-5.541V25.57z"/>
	<path fill="#3D6480" d="M7.868,10.12V32.21h26.133V10.12H7.868z M32.301,30.51H9.568V15.182h22.732V30.51z M32.301,14.382H9.568
		V11.82h22.732V14.382z"/>
	<rect x="28.846" y="12.542" fill="#3D6480" width="2.369" height="0.8"/>
	<rect x="14.358" y="20.015" fill="#3D6480" width="13.154" height="0.8"/>
	<rect x="14.358" y="22.793" fill="#3D6480" width="13.154" height="0.8"/>
	<rect x="14.358" y="25.57" fill="#3D6480" width="5.541" height="0.8"/>
</g>
</svg>
