<?xml version="1.0" encoding="utf-8"?>
<!-- Generator: Adobe Illustrator 17.0.0, SVG Export Plug-In . SVG Version: 6.00 Build 0)  -->
<!DOCTYPE svg PUBLIC "-//W3C//DTD SVG 1.1//EN" "http://www.w3.org/Graphics/SVG/1.1/DTD/svg11.dtd">
<svg version="1.1" id="Layer_1" xmlns="http://www.w3.org/2000/svg" xmlns:xlink="http://www.w3.org/1999/xlink" x="0px" y="0px"
	 width="42px" height="42px" viewBox="0 0 42 42" enable-background="new 0 0 42 42" xml:space="preserve">
<g>
	<path fill="none" d="M21.463,9.321c-6.562,0-11.9,5.338-11.9,11.9s5.338,11.9,11.9,11.9s11.9-5.338,11.9-11.9
		S28.024,9.321,21.463,9.321z M22.063,27.904h-1.2V14.537h1.2V27.904z"/>
	<path fill="#EC0800" d="M21.463,8.121c-7.223,0-13.1,5.877-13.1,13.1s5.877,13.1,13.1,13.1s13.1-5.877,13.1-13.1
		S28.686,8.121,21.463,8.121z M21.463,33.121c-6.562,0-11.9-5.338-11.9-11.9s5.338-11.9,11.9-11.9s11.9,5.338,11.9,11.9
		S28.024,33.121,21.463,33.121z"/>
	<rect x="20.863" y="14.537" fill="#EC0800" width="1.2" height="13.367"/>
</g>
</svg>
