<?xml version="1.0" encoding="utf-8"?>
<!-- Generator: Adobe Illustrator 18.0.0, SVG Export Plug-In . SVG Version: 6.00 Build 0)  -->
<!DOCTYPE svg PUBLIC "-//W3C//DTD SVG 1.1//EN" "http://www.w3.org/Graphics/SVG/1.1/DTD/svg11.dtd">
<svg version="1.1" id="Layer_1" xmlns="http://www.w3.org/2000/svg" xmlns:xlink="http://www.w3.org/1999/xlink" x="0px" y="0px"
	 viewBox="0 0 42 42" enable-background="new 0 0 42 42" xml:space="preserve">
<g>
	<path fill="#DBF3DB" d="M29.2,13.5h-4.3V9.2H11.6v24.4l11.1,0l7.3-7.3L29.2,27L29.2,13.5z M23.3,26.9l-2.8-4.3l-2.8,4.3h-1.5
		l3.5-5.4l-3.3-5.3h1.5l2.6,4.2l2.7-4.2h1.5l-3.4,5.3l3.5,5.4H23.3z"/>
	<polygon fill="#3D6480" points="36.5,33 36.5,36.1 31.3,30.9 29.9,32.2 35.2,37.5 32,37.5 32,39.4 38.4,39.4 38.4,33 	"/>
	<polygon fill="#3D6480" points="11.6,33.6 11.6,9.2 24.9,9.2 24.9,13.5 29.2,13.5 29.2,27 29.9,26.3 30.9,25.4 30.9,13.5 
		29.2,11.8 26.6,11.8 26.6,9.2 24.9,7.5 9.9,7.5 9.9,35.3 21,35.3 22.7,33.6 22.7,33.6 	"/>
	<polygon fill="#3D6480" points="24.7,16.3 23.2,16.3 20.6,20.4 17.9,16.3 16.4,16.3 19.8,21.5 16.3,26.9 17.8,26.9 20.6,22.6 
		23.3,26.9 24.8,26.9 21.3,21.5 	"/>
</g>
</svg>
