<?xml version="1.0" encoding="utf-8"?>
<!-- Generator: Adobe Illustrator 18.0.0, SVG Export Plug-In . SVG Version: 6.00 Build 0)  -->
<!DOCTYPE svg PUBLIC "-//W3C//DTD SVG 1.1//EN" "http://www.w3.org/Graphics/SVG/1.1/DTD/svg11.dtd">
<svg version="1.1" id="Layer_1" xmlns="http://www.w3.org/2000/svg" xmlns:xlink="http://www.w3.org/1999/xlink" x="0px" y="0px"
	 viewBox="0 0 42 42" enable-background="new 0 0 42 42" xml:space="preserve">
<g>
	<polygon fill="#3D6480" points="11.9,5.5 10,5.5 10,8.6 4.8,3.3 3.5,4.7 8.7,9.9 5.5,9.9 5.5,11.8 11.9,11.8 	"/>
	<g>
		<polygon fill="#3D6480" points="31.7,13.1 30,11.4 27.4,11.4 27.4,8.8 25.7,7.1 20.6,7.1 18.9,8.8 25.7,8.8 25.7,13.1 30,13.1 
			30,33.2 12.3,33.2 12.3,15.4 10.6,17.1 10.6,34.9 31.7,34.9 		"/>
		<polygon fill="#DBF3DB" points="30,33.2 30,13.1 25.7,13.1 25.7,8.8 18.9,8.8 12.3,15.4 12.3,33.2 		"/>
	</g>
	<g>
		<g>
			<path fill="#3D6480" d="M20,21.1l-3.3-5.2h1.5l2.6,4.2l2.7-4.2h1.5l-3.4,5.2l3.5,5.4h-1.5l-2.8-4.3L18,26.5h-1.5L20,21.1z"/>
		</g>
	</g>
</g>
</svg>
