<?xml version="1.0" encoding="utf-8"?>
<!-- Generator: Adobe Illustrator 18.0.0, SVG Export Plug-In . SVG Version: 6.00 Build 0)  -->
<!DOCTYPE svg PUBLIC "-//W3C//DTD SVG 1.1//EN" "http://www.w3.org/Graphics/SVG/1.1/DTD/svg11.dtd">
<svg version="1.1" id="Layer_1" xmlns="http://www.w3.org/2000/svg" xmlns:xlink="http://www.w3.org/1999/xlink" x="0px" y="0px"
	 viewBox="0 0 42 42" enable-background="new 0 0 42 42" xml:space="preserve">
<g>
	<polygon fill="#3D6480" points="11.9,5.5 10,5.5 10,8.6 4.8,3.3 3.5,4.7 8.7,9.9 5.5,9.9 5.5,11.8 11.9,11.8 	"/>
	<polygon fill="#3D6480" points="31.7,13.1 30,11.4 27.4,11.4 27.4,8.8 25.7,7.1 20.6,7.1 18.9,8.8 25.7,8.8 25.7,13.1 30,13.1 
		30,33.2 12.3,33.2 12.3,15.4 10.6,17.1 10.6,34.9 31.7,34.9 	"/>
	<path fill="#DBF3DB" d="M30,33.2L30,13.1h-4.3V8.8h-6.8l-6.6,6.6v17.8H30z M16.6,15.9h1.5l2.6,4.2l2.7-4.2h1.5l-3.4,5.3l3.5,5.4
		h-1.5l-2.8-4.3L18,26.5h-1.5l3.5-5.4L16.6,15.9z"/>
	<polygon fill="#3D6480" points="18,26.5 20.7,22.2 23.5,26.5 25,26.5 21.5,21.1 24.9,15.9 23.4,15.9 20.7,20 18.1,15.9 16.6,15.9 
		20,21.1 16.5,26.5 	"/>
</g>
</svg>
