<?xml version="1.0" encoding="utf-8"?>
<!-- Generator: Adobe Illustrator 18.0.0, SVG Export Plug-In . SVG Version: 6.00 Build 0)  -->
<!DOCTYPE svg PUBLIC "-//W3C//DTD SVG 1.1//EN" "http://www.w3.org/Graphics/SVG/1.1/DTD/svg11.dtd">
<svg version="1.1" id="Layer_1" xmlns="http://www.w3.org/2000/svg" xmlns:xlink="http://www.w3.org/1999/xlink" x="0px" y="0px"
	 viewBox="-9 -9 42 42" enable-background="new -9 -9 42 42" xml:space="preserve">
<g>
	<path fill="none" d="M15.2,4V3c0-0.7-0.3-0.9-1.1-0.9h-1.6v2.7h1.6C14.9,4.9,15.2,4.6,15.2,4z"/>
	<polygon fill="#FFEBCD" points="17.1,18.8 22.5,21.5 27.8,18.7 25.1,17.6 25.4,16.8 25.1,16.7 22.4,19.4 19.7,16.7 19.3,16.9 
		19.7,17.7 	"/>
	<polygon fill="#FFEBCD" points="16.4,23 16.4,26.1 22.1,29 22.1,23.1 20.6,25.2 	"/>
	<polygon fill="#FFEBCD" points="28.5,22.8 24.1,25.2 22.6,22.8 22.6,29.1 28.5,26.1 	"/>
	<polygon fill="#FFEBCD" points="29.4,22.2 29.4,26.7 22.5,30.2 15.5,26.7 15.5,22.6 15.5,22.5 15.5,26.7 22.5,30.2 29.5,26.7 
		29.5,22.2 	"/>
	<rect x="16" y="18.7" fill="#FFEBCD" width="0" height="0"/>
	<polygon fill="#FFEBCD" points="21.7,22.1 16.1,19.3 14.7,21.1 20.3,24 	"/>
	<polygon fill="#FFEBCD" points="29.9,20.9 28.8,19.2 23.2,22.1 24.4,23.9 	"/>
	<path fill="#3D6480" d="M15.5,26.7l7,3.5l7-3.5v-4.4l0,0l1.8-1l-1.9-2.8l-4-1.7l0,0.1l-0.3,0.8l2.7,1.1l-5.3,2.7l-5.4-2.7l2.6-1.1
		l-0.3-0.8l0-0.1l-3.8,1.6l-2.2,3l2.2,1.1l0,0V26.7z M28.8,19.2l1.1,1.7l-5.5,3l-1.2-1.8L28.8,19.2z M22.6,22.8l1.6,2.4l4.3-2.4v3.3
		l-5.9,3V22.8z M22.1,29l-5.7-2.9v-3l4.1,2.2l1.5-2.1V29z M16,18.7L16,18.7L16,18.7L16,18.7L16,18.7z M14.7,21.1l1.4-1.8l5.6,2.8
		L20.3,24L14.7,21.1z"/>
	<path fill="#0CB20F" d="M25.1,16.7l0.1-0.1l-0.7-0.7l-1.6,1.6v-1.7c0-2.8-1.2-4.1-3.9-4.1v1c2.2,0,2.9,0.8,2.9,3v1.7l-1.7-1.7
		l-0.7,0.7l0.2,0.2l2.7,2.7L25.1,16.7z"/>
	<rect x="-1.9" y="1.4" fill="#3D6480" width="0.9" height="6.7"/>
	<polygon fill="#3D6480" points="4.3,7.1 1.4,1.4 0.2,1.4 0.2,8 1,8 1,2.4 3.9,8 5.1,8 5.1,1.4 4.3,1.4 	"/>
	<path fill="#3D6480" d="M9.7,7.2C9.2,7.3,8.8,7.3,8.4,7.3C7.3,7.3,7,7,7,6.1V3.3c0-0.9,0.3-1.2,1.4-1.2c0.5,0,1.1,0.1,1.8,0.2
		l0.1-0.7C9.7,1.3,9.1,1.3,8.5,1.3c-1.7,0-2.3,0.6-2.3,2v2.9c0,1.2,0.5,2,2.2,2c0.7,0,1.5-0.1,2.1-0.3V5H9.7V7.2z"/>
	<path fill="#3D6480" d="M15.8,8h1L15,5.5c0.8-0.2,1.1-0.8,1.1-1.5V3c0-1-0.5-1.6-1.9-1.6h-2.5V8h0.9V5.6h1.6L15.8,8z M12.5,2.1h1.6
		c0.8,0,1.1,0.2,1.1,0.9v1c0,0.6-0.3,0.9-1.1,0.9h-1.6V2.1z"/>
	<polygon fill="#3D6480" points="21.4,7.3 18.3,7.3 18.3,5 21.1,5 21.1,4.2 18.3,4.2 18.3,2.1 21.3,2.1 21.3,1.4 17.4,1.4 17.4,8 
		21.4,8 	"/>
	<path fill="#3D6480" d="M24.1,7.4c-0.6,0-1.3-0.1-1.9-0.3l-0.1,0.7c0.6,0.2,1.3,0.4,2,0.4c1.8,0,2.2-0.7,2.2-1.8
		c0-1.3-0.1-1.6-1.9-2C23,4,23,3.9,23,3c0-0.8,0.2-1,1.3-1c0.5,0,1.2,0.1,1.7,0.2l0.1-0.7c-0.5-0.1-1.2-0.2-1.8-0.2
		c-1.6,0-2.1,0.6-2.1,1.7c0,1.4,0.2,1.7,1.8,2c1.4,0.3,1.4,0.4,1.4,1.3C25.4,7.1,25.1,7.4,24.1,7.4z"/>
</g>
</svg>
