<?xml version="1.0" encoding="utf-8"?>
<!-- Generator: Adobe Illustrator 18.0.0, SVG Export Plug-In . SVG Version: 6.00 Build 0)  -->
<!DOCTYPE svg PUBLIC "-//W3C//DTD SVG 1.1//EN" "http://www.w3.org/Graphics/SVG/1.1/DTD/svg11.dtd">
<svg version="1.1" id="Layer_1" xmlns="http://www.w3.org/2000/svg" xmlns:xlink="http://www.w3.org/1999/xlink" x="0px" y="0px"
	 viewBox="0 0 42 42" enable-background="new 0 0 42 42" xml:space="preserve">
<polygon fill="#3D6480" points="36.5,33 36.5,36.1 31.3,30.9 29.9,32.2 35.2,37.5 32,37.5 32,39.4 38.4,39.4 38.4,33 "/>
<polygon fill="#EFF9FE" points="22,34.3 22.5,33.7 22,34.3 "/>
<polygon fill="#EFF9FE" points="29.2,27 29.2,13.5 24.9,13.5 24.9,9.2 11.6,9.2 11.6,33.6 22.7,33.6 29.9,26.3 "/>
<polygon fill="#3D6480" points="11.6,9.2 24.9,9.2 24.9,13.5 29.2,13.5 29.2,27 29.9,26.3 30.9,25.4 30.9,13.5 29.2,11.8 26.6,11.8 
	26.6,9.2 24.9,7.5 9.9,7.5 9.9,35.3 21,35.3 22,34.3 22.5,33.7 22.7,33.6 22.7,33.6 11.6,33.6 "/>
<path fill="#3D6480" d="M17.3,24.6c-0.8,0-1.7-0.1-2.4-0.4l0.2-0.8c0.7,0.2,1.5,0.3,2.2,0.3c1.3,0,1.5-0.3,1.5-1.2
	c0-1.1,0-1.2-1.7-1.5c-1.9-0.4-2.2-0.8-2.2-2.5c0-1.4,0.6-2.1,2.6-2.1c0.7,0,1.5,0.1,2.2,0.3l-0.1,0.9c-0.6-0.1-1.4-0.2-2.1-0.2
	c-1.3,0-1.5,0.3-1.5,1.2c0,1.1,0,1.2,1.6,1.5c2.1,0.5,2.2,0.8,2.2,2.4C19.9,23.8,19.5,24.6,17.3,24.6z"/>
<path fill="#3D6480" d="M21.3,23.5c0.6,0.1,1.2,0.2,1.8,0.2c1.1,0,1.5-0.3,1.5-1v-0.6c0-0.8-0.4-1-1.2-1h-1.6v-0.9h1.5
	c0.9,0,1.2-0.4,1.2-1v-0.7c0-0.7-0.3-1-1.3-1c-0.5,0-1.1,0.1-1.7,0.2l-0.1-0.9c0.5-0.1,1.2-0.2,1.8-0.2c1.7,0,2.3,0.6,2.3,1.7V19
	c0,0.7-0.2,1.2-0.9,1.5c0.7,0.2,1.1,0.6,1.1,1.4v0.8c0,1.2-0.7,1.8-2.5,1.8c-0.6,0-1.4-0.1-1.9-0.2L21.3,23.5z"/>
</svg>
