<?xml version="1.0" encoding="utf-8"?>
<!-- Generator: Adobe Illustrator 19.2.0, SVG Export Plug-In . SVG Version: 6.00 Build 0)  -->
<!DOCTYPE svg PUBLIC "-//W3C//DTD SVG 1.1//EN" "http://www.w3.org/Graphics/SVG/1.1/DTD/svg11.dtd">
<svg version="1.1" id="Layer_1" xmlns="http://www.w3.org/2000/svg" xmlns:xlink="http://www.w3.org/1999/xlink" x="0px" y="0px"
	 viewBox="0 0 32 28" style="enable-background:new 0 0 32 28;" xml:space="preserve">
<style type="text/css">
	.st0{fill:#F1C40F;}
</style>
<g>
	<path class="st0" d="M31.3,22.6L18.5,1.9c-0.6-1-1.5-1.6-2.5-1.6c0,0,0,0,0,0c-1,0-1.8,0.6-2.5,1.6L0.7,22.6
		c-0.8,1.3-1,2.6-0.4,3.6c0.6,1,1.7,1.5,3.2,1.5h24.8c1.5,0,2.7-0.5,3.2-1.5C32.2,25.2,32.1,23.9,31.3,22.6z M30.4,25.5
		c-0.3,0.5-1,0.8-2,0.8H3.6c-1,0-1.7-0.3-2-0.8c-0.3-0.5-0.2-1.3,0.4-2.1L14.7,2.6C15.1,2,15.6,1.7,16,1.7c0.4,0,0.9,0.3,1.3,0.9
		l12.8,20.7C30.6,24.2,30.7,24.9,30.4,25.5z"/>
	<rect x="15.1" y="9" class="st0" width="1.7" height="10"/>
	<rect x="15.1" y="21" class="st0" width="1.7" height="1.7"/>
</g>
</svg>
