<?xml version="1.0" encoding="utf-8"?>
<!-- Generator: Adobe Illustrator 17.0.0, SVG Export Plug-In . SVG Version: 6.00 Build 0)  -->
<!DOCTYPE svg PUBLIC "-//W3C//DTD SVG 1.1//EN" "http://www.w3.org/Graphics/SVG/1.1/DTD/svg11.dtd">
<svg version="1.1" id="Layer_1" xmlns="http://www.w3.org/2000/svg" xmlns:xlink="http://www.w3.org/1999/xlink" x="0px" y="0px"
	 width="42px" height="42px" viewBox="0 0 42 42" enable-background="new 0 0 42 42" xml:space="preserve">
<g>
	<polygon fill="#3D6480" points="36.548,33.048 36.548,36.131 31.323,30.906 29.979,32.25 35.205,37.475 32.059,37.475 
		32.059,39.376 38.449,39.375 38.449,33.048 	"/>
	<path fill="#FDE7EA" d="M20.788,15.997c-0.111-0.111-0.258-0.172-0.414-0.172c-0.156,0-0.303,0.061-0.414,0.171
		c-0.11,0.11-0.171,0.257-0.171,0.413s0.061,0.303,0.171,0.412c0.221,0.222,0.605,0.222,0.826,0.001
		c0.164-0.163,0.216-0.407,0.133-0.623C20.891,16.123,20.846,16.055,20.788,15.997z"/>
	<path fill="#FDE7EA" d="M18.039,15.13c-0.641,0.641-0.994,1.492-0.994,2.398s0.353,1.759,0.994,2.399
		c0.267,0.267,0.574,0.486,0.911,0.651l0.28,0.138v3.201l1.062,1.132l-0.941,1.78l0.94,0.877l-0.959,2.045l0.725,0.73l1.277-1.277
		v-8.386l0.321-0.123c0.444-0.17,0.842-0.429,1.182-0.769c0.548-0.548,0.881-1.252,0.961-2.034c0.119-1.03-0.232-2.035-0.961-2.764
		C21.555,13.848,19.321,13.848,18.039,15.13z M21.21,17.247c-0.223,0.223-0.52,0.347-0.836,0.347s-0.614-0.124-0.837-0.348
		c-0.224-0.223-0.347-0.521-0.347-0.837s0.123-0.614,0.347-0.838c0.447-0.445,1.227-0.446,1.674,0.001
		c0.118,0.117,0.209,0.256,0.269,0.412C21.647,16.422,21.541,16.917,21.21,17.247z"/>
	<path fill="#FDE7EA" d="M24.963,13.466V9.208H11.585v24.411l11.103,0l6.572-6.573l-0.039-13.58H24.963z M24.792,18.002
		c-0.104,1.009-0.536,1.921-1.249,2.633c-0.356,0.356-0.762,0.644-1.21,0.857v8.127l-2.28,2.279l-1.924-1.938l0.947-2.02
		l-0.966-0.902l0.965-1.825l-0.844-0.901v-2.985c-0.327-0.19-0.628-0.423-0.898-0.692c-0.83-0.83-1.287-1.933-1.287-3.106
		c0-1.173,0.457-2.276,1.287-3.105c0.829-0.83,1.932-1.287,3.105-1.287s2.276,0.457,3.105,1.287
		C24.49,15.368,24.945,16.673,24.792,18.002z"/>
	<polygon fill="#3D6480" points="30.921,13.476 29.211,11.766 26.663,11.766 26.663,9.218 24.954,7.509 9.885,7.509 9.885,35.318 
		20.988,35.318 22.688,33.618 11.585,33.619 11.585,9.208 24.963,9.208 24.963,13.466 29.221,13.466 29.26,27.046 30.955,25.351 	
		"/>
	<path fill="#3D6480" d="M21.211,15.572c-0.447-0.447-1.227-0.446-1.674-0.001c-0.224,0.224-0.347,0.521-0.347,0.838
		s0.123,0.614,0.347,0.837c0.224,0.224,0.521,0.348,0.837,0.348s0.613-0.124,0.836-0.347c0.331-0.33,0.437-0.825,0.27-1.263
		C21.42,15.828,21.329,15.689,21.211,15.572z M20.786,16.822c-0.22,0.221-0.604,0.221-0.826-0.001
		c-0.11-0.109-0.171-0.256-0.171-0.412s0.061-0.303,0.171-0.413c0.111-0.11,0.257-0.171,0.414-0.171
		c0.156,0,0.302,0.061,0.414,0.172c0.059,0.059,0.103,0.126,0.132,0.202C21.002,16.415,20.95,16.659,20.786,16.822z"/>
	<path fill="#3D6480" d="M20.438,13.136c-1.173,0-2.276,0.457-3.105,1.287c-0.83,0.829-1.287,1.933-1.287,3.105
		c0,1.174,0.457,2.276,1.287,3.106c0.27,0.27,0.571,0.502,0.898,0.692v2.985l0.844,0.901l-0.965,1.825l0.966,0.902l-0.947,2.02
		l1.924,1.938l2.28-2.279v-8.127c0.448-0.214,0.854-0.501,1.21-0.857c0.712-0.712,1.145-1.624,1.249-2.633
		c0.153-1.329-0.302-2.634-1.249-3.579C22.714,13.593,21.611,13.136,20.438,13.136z M23.798,17.893
		c-0.081,0.782-0.414,1.486-0.961,2.034c-0.34,0.34-0.737,0.599-1.182,0.769l-0.321,0.123v8.386l-1.277,1.277l-0.725-0.73
		l0.959-2.045l-0.94-0.877l0.941-1.78l-1.062-1.132v-3.201l-0.28-0.138c-0.337-0.165-0.644-0.385-0.911-0.651
		c-0.641-0.641-0.994-1.493-0.994-2.399s0.353-1.758,0.994-2.398c1.281-1.281,3.516-1.281,4.797,0
		C23.565,15.858,23.916,16.863,23.798,17.893z"/>
</g>
</svg>
