<?xml version="1.0" encoding="utf-8"?>
<!-- Generator: Adobe Illustrator 17.0.0, SVG Export Plug-In . SVG Version: 6.00 Build 0)  -->
<!DOCTYPE svg PUBLIC "-//W3C//DTD SVG 1.1//EN" "http://www.w3.org/Graphics/SVG/1.1/DTD/svg11.dtd">
<svg version="1.1" id="Layer_1" xmlns="http://www.w3.org/2000/svg" xmlns:xlink="http://www.w3.org/1999/xlink" x="0px" y="0px"
	 width="42px" height="42px" viewBox="0 0 42 42" enable-background="new 0 0 42 42" xml:space="preserve">
<g>
	<polygon fill="#3D6480" points="5.322,11.267 11.71,11.266 11.71,4.938 9.809,4.938 9.809,8.021 4.586,2.797 3.242,4.141 
		8.466,9.366 5.322,9.366 	"/>
	<path fill="#FDE7EA" d="M19.495,19.646l0.281,0.137v3.202l1.062,1.132l-0.941,1.78l0.94,0.877l-0.959,2.045l0.724,0.73l1.278-1.277
		v-8.385l0.321-0.123c0.444-0.17,0.842-0.429,1.184-0.77c0.547-0.548,0.879-1.25,0.96-2.033c0.119-1.03-0.232-2.036-0.96-2.765
		c-1.282-1.281-3.517-1.281-4.799,0c-1.322,1.322-1.322,3.476,0,4.798C18.852,19.263,19.159,19.482,19.495,19.646z M20.082,14.64
		c0.446-0.447,1.228-0.447,1.675,0c0.118,0.119,0.208,0.257,0.268,0.41c0.167,0.438,0.063,0.933-0.267,1.264
		c-0.224,0.224-0.522,0.348-0.838,0.348s-0.614-0.124-0.837-0.348C19.62,15.853,19.62,15.101,20.082,14.64z"/>
	<path fill="#FDE7EA" d="M21.333,15.89c0.162-0.163,0.214-0.408,0.132-0.623c-0.029-0.075-0.074-0.145-0.133-0.204
		c-0.109-0.109-0.256-0.17-0.413-0.17c-0.156,0-0.303,0.061-0.413,0.171c-0.228,0.228-0.228,0.599,0,0.826
		C20.726,16.11,21.111,16.11,21.333,15.89z"/>
	<path fill="#FDE7EA" d="M29.824,32.687l-0.058-20.153h-4.257V8.275h-6.296l-7.083,7.083v17.328H29.824z M17.877,13.49
		c0.83-0.83,1.933-1.287,3.106-1.287s2.277,0.457,3.106,1.287c0.945,0.945,1.4,2.251,1.248,3.58
		c-0.104,1.009-0.536,1.92-1.248,2.632c-0.358,0.357-0.764,0.645-1.211,0.858v8.126l-2.281,2.279l-1.923-1.938l0.947-2.02
		l-0.966-0.902l0.965-1.825l-0.844-0.899v-2.986c-0.326-0.19-0.627-0.423-0.899-0.692C16.165,17.989,16.165,15.203,17.877,13.49z"/>
	<polygon fill="#3D6480" points="31.466,12.544 29.756,10.834 27.209,10.834 27.209,8.287 25.499,6.576 20.912,6.576 19.213,8.275 
		25.509,8.275 25.509,12.533 29.766,12.533 29.824,32.687 12.13,32.687 12.13,15.358 10.43,17.059 10.43,34.386 31.529,34.386 	"/>
	<path fill="#3D6480" d="M20.919,16.661c0.316,0,0.614-0.124,0.838-0.348c0.33-0.331,0.435-0.826,0.267-1.264
		c-0.06-0.153-0.15-0.291-0.268-0.41c-0.447-0.447-1.229-0.447-1.675,0c-0.462,0.461-0.462,1.213,0,1.674
		C20.305,16.537,20.602,16.661,20.919,16.661z M20.506,15.063c0.11-0.11,0.257-0.171,0.413-0.171c0.156,0,0.303,0.061,0.413,0.17
		c0.059,0.06,0.104,0.129,0.133,0.204c0.083,0.215,0.03,0.46-0.132,0.623c-0.221,0.221-0.606,0.221-0.827,0
		C20.278,15.662,20.278,15.291,20.506,15.063z"/>
	<path fill="#3D6480" d="M18.776,20.395v2.986l0.844,0.899l-0.965,1.825l0.966,0.902l-0.947,2.02l1.923,1.938l2.281-2.279v-8.126
		c0.447-0.214,0.853-0.501,1.211-0.858c0.711-0.712,1.143-1.623,1.248-2.632c0.153-1.329-0.302-2.635-1.248-3.58
		c-0.83-0.83-1.933-1.287-3.106-1.287s-2.277,0.457-3.106,1.287c-1.711,1.713-1.711,4.499,0,6.213
		C18.149,19.973,18.45,20.205,18.776,20.395z M18.584,14.197c1.282-1.281,3.517-1.281,4.799,0c0.729,0.729,1.079,1.734,0.96,2.765
		c-0.081,0.783-0.413,1.485-0.96,2.033c-0.342,0.341-0.74,0.6-1.184,0.77l-0.321,0.123v8.385l-1.278,1.277l-0.724-0.73l0.959-2.045
		l-0.94-0.877l0.941-1.78l-1.062-1.132v-3.202l-0.281-0.137c-0.336-0.164-0.643-0.384-0.912-0.651
		C17.262,17.673,17.262,15.52,18.584,14.197z"/>
</g>
</svg>
