<?xml version="1.0" encoding="utf-8"?>
<!-- Generator: Adobe Illustrator 18.0.0, SVG Export Plug-In . SVG Version: 6.00 Build 0)  -->
<!DOCTYPE svg PUBLIC "-//W3C//DTD SVG 1.1//EN" "http://www.w3.org/Graphics/SVG/1.1/DTD/svg11.dtd">
<svg version="1.1" xmlns="http://www.w3.org/2000/svg" xmlns:xlink="http://www.w3.org/1999/xlink" x="0px" y="0px"
	 viewBox="0 0 16 16" enable-background="new 0 0 16 16" xml:space="preserve">
<g id="Layer_2">
	<g id="Layer_2_1_">
		<rect fill="none" width="16" height="16"/>
	</g>
</g>
<g id="art">
	<g>
		<rect x="1.3" y="10.8" fill="#FFFFFF" width="2.6" height="3.8"/>
		<rect x="5.4" y="6.8" fill="#FFFFFF" width="4.4" height="3.3"/>
		<rect x="5.4" y="1.6" fill="#FFFFFF" width="4.4" height="4.4"/>
		<rect x="1.3" y="7" fill="#FFFFFF" width="2.6" height="3"/>
		<rect x="10.7" y="1.6" fill="#FFFFFF" width="3.8" height="4.4"/>
		<rect x="5.4" y="10.8" fill="#FFFFFF" width="4.4" height="3.6"/>
		<rect x="10.7" y="6.8" fill="#FFFFFF" width="3.8" height="3.3"/>
		<rect x="10.7" y="10.8" fill="#FFFFFF" width="3.8" height="3.6"/>
		<path fill="#3D6480" d="M3.9,0v5.7H0V16h3.9h1.4H16V0H3.9z M3.9,7v3H1.3V7H3.9z M1.3,10.8h2.6v3.8H1.3V10.8z M9.8,6.8V10H5.4V6.8
			H9.8z M5.4,6V1.6h4.4V6H5.4z M9.8,10.8v3.6H5.4v-3.6H9.8z M14.4,10.8v3.6h-3.8v-3.6H14.4z M10.7,10V6.8h3.8V10H10.7z M14.4,6h-3.8
			V1.6h3.8V6z"/>
	</g>
</g>
</svg>
