<?xml version="1.0" encoding="utf-8"?>
<!-- Generator: Adobe Illustrator 18.0.0, SVG Export Plug-In . SVG Version: 6.00 Build 0)  -->
<!DOCTYPE svg PUBLIC "-//W3C//DTD SVG 1.1//EN" "http://www.w3.org/Graphics/SVG/1.1/DTD/svg11.dtd">
<svg version="1.1" id="Layer_1" xmlns="http://www.w3.org/2000/svg" xmlns:xlink="http://www.w3.org/1999/xlink" x="0px" y="0px"
	 viewBox="0 0 32 32" enable-background="new 0 0 32 32" xml:space="preserve">
<g>
	<rect x="4.6" y="5" fill="#EFF9FE" width="11.6" height="3.1"/>
	<path fill="#3E6480" d="M3.4,3.9v5.4h13.8V3.9H3.4z M16.1,8.1H4.6V5h11.6V8.1z"/>
	<rect x="4.6" y="12.4" fill="#EFF9FE" width="11.6" height="3.1"/>
	<path fill="#3E6480" d="M3.4,11.3v5.4h13.8v-5.4H3.4z M16.1,15.5H4.6v-3.1h11.6V15.5z"/>
	<path fill="#3E6480" d="M17,20.3"/>
	<path fill="#3E6480" d="M21.2,16.2h-4.5v4.5l7.4,7.4l4.5-4.5L21.2,16.2z M17.4,17.1h3.4l6.6,6.6L24,27l-6.6-6.6V17.1z"/>
	<circle fill="#FFFFFF" cx="19.7" cy="19" r="0.7"/>
	<circle fill="none" cx="19.7" cy="19" r="0.7"/>
	<path fill="#EFF9FE" d="M20.9,17.1h-3.4v3.4L24,27l3.4-3.4L20.9,17.1z M19.7,20.5c-0.8,0-1.5-0.7-1.5-1.5s0.7-1.5,1.5-1.5
		c0.8,0,1.5,0.7,1.5,1.5S20.5,20.5,19.7,20.5z"/>
	<path fill="#3E6480" d="M19.7,17.6c-0.8,0-1.5,0.7-1.5,1.5s0.7,1.5,1.5,1.5c0.8,0,1.5-0.7,1.5-1.5S20.5,17.6,19.7,17.6z M19.7,19.8
		c-0.4,0-0.7-0.3-0.7-0.7s0.3-0.7,0.7-0.7c0.4,0,0.7,0.3,0.7,0.7S20.1,19.8,19.7,19.8z"/>
	<path fill="#3E6480" d="M3.4,3.9v5.4h13.8V3.9H3.4z M16.1,8.1H4.6V5h11.6V8.1z"/>
	<rect x="4.6" y="12.4" fill="#EFF9FE" width="11.6" height="3.1"/>
	<path fill="#3E6480" d="M3.4,11.3v5.4h13.8v-5.4H3.4z M16.1,15.5H4.6v-3.1h11.6V15.5z"/>
	<path fill="#3E6480" d="M17,20.3"/>
	<polygon fill="#3E6481" points="21.3,15.9 16.3,15.9 16.3,20.9 24,28.7 29.1,23.6 	"/>
	<polygon fill="#3E6480" points="17.4,17.1 20.9,17.1 27.4,23.6 24,27 17.4,20.5 	"/>
	<circle fill="#FFFFFF" cx="19.7" cy="19" r="0.7"/>
	<circle fill="none" cx="19.7" cy="19" r="0.7"/>
	<polygon fill="#EFF9FE" points="20.9,17.1 17.4,17.1 17.4,20.5 24,27 27.4,23.6 	"/>
	<circle fill="#EFF9FE" cx="19.7" cy="19" r="1.5"/>
	<path fill="#3E6480" d="M19.7,17.6c-0.8,0-1.5,0.7-1.5,1.5s0.7,1.5,1.5,1.5c0.8,0,1.5-0.7,1.5-1.5S20.5,17.6,19.7,17.6z M19.7,19.8
		c-0.4,0-0.7-0.3-0.7-0.7s0.3-0.7,0.7-0.7c0.4,0,0.7,0.3,0.7,0.7S20.1,19.8,19.7,19.8z"/>
</g>
</svg>
