<?xml version="1.0" encoding="utf-8"?>
<!-- Generator: Adobe Illustrator 18.0.0, SVG Export Plug-In . SVG Version: 6.00 Build 0)  -->
<!DOCTYPE svg PUBLIC "-//W3C//DTD SVG 1.1//EN" "http://www.w3.org/Graphics/SVG/1.1/DTD/svg11.dtd">
<svg version="1.1" id="Layer_1" xmlns="http://www.w3.org/2000/svg" xmlns:xlink="http://www.w3.org/1999/xlink" x="0px" y="0px"
	 viewBox="0 0 42 42" enable-background="new 0 0 42 42" xml:space="preserve">
<g>
	<path fill="none" d="M30.9,26.4v-1.7c0-0.2,0-0.3,0-0.5l-1.1,1.1L30.9,26.4L30.9,26.4z"/>
	<path fill="#EFF9FE" d="M28.1,17.8c0-1.1-0.4-1.4-1.8-1.4h-2.4v4.4h2.4c1.3,0,1.8-0.4,1.8-1.4V17.8z"/>
	<path fill="#EFF9FE" d="M24.5,27.4l3.8-1.6l0,0.1l0.4-0.2l-0.2-0.2l0.7-0.7l0.5,0.5l1.1-1.1c-0.1-1.8-0.9-2.5-2.8-2.5
		c-0.4,0.2-1,0.3-1.7,0.3h-2.5v3.8h-1.4V15.2h3.9c2.3,0,3.1,1,3.1,2.6v1.6c0,0.5-0.1,1-0.3,1.4c1.5,0.3,2.3,1.1,2.6,2.6l0.2-0.2v-13
		H10v22h12.8l1-0.9l-1.4-0.8L24.5,27.4z M20.4,21.1v1v3.6c-1,0.3-2.3,0.5-3.4,0.5c-2.7,0-3.6-1.2-3.6-3.1v-4.7
		c0-2.2,1.1-3.2,3.7-3.2c0.9,0,2,0.1,3,0.3L20,16.7c-1-0.2-2-0.3-2.9-0.3c-1.8,0-2.3,0.5-2.3,2v4.5c0,1.4,0.4,2,2.2,2
		c0.6,0,1.3,0,2-0.2v-2.6h-1.7V21h3V21.1z"/>
	<polygon fill="#3D6480" points="10,10.1 32,10.1 32,23.1 34,21.2 34,8.1 8,8.1 8,34.1 20.7,34.1 22.8,32.1 10,32.1 	"/>
	<path fill="#3D6480" d="M28,20.7c0.4,0,0.8,0,1.2,0.1c0.2-0.4,0.3-0.9,0.3-1.4v-1.6c0-1.6-0.8-2.6-3.1-2.6h-3.9v10.7h1.4V22h2.5
		c0.7,0,1.3-0.1,1.7-0.3c0,0-0.1,0-0.1,0V20.7z M26.3,20.8h-2.4v-4.4h2.4c1.3,0,1.8,0.4,1.8,1.4v1.6C28.1,20.4,27.7,20.8,26.3,20.8z
		"/>
	<path fill="#3D6480" d="M17.4,22.1H19v2.6c-0.7,0.1-1.4,0.2-2,0.2c-1.8,0-2.2-0.6-2.2-2v-4.5c0-1.4,0.5-2,2.3-2
		c0.9,0,1.8,0.1,2.9,0.3l0.2-1.2c-1-0.2-2-0.3-3-0.3c-2.7,0-3.7,1-3.7,3.2V23c0,2,0.8,3.1,3.6,3.1c1.1,0,2.3-0.2,3.4-0.5v-3.6v-1V21
		h-3V22.1z"/>
	<polygon fill="#FFEBCD" points="30.7,31.2 25.1,28.3 23.7,30.1 29.3,33 	"/>
	<polygon fill="#FFEBCD" points="25.4,32.1 25.4,35.1 31.1,38 31.1,32.1 29.6,34.2 	"/>
	<polygon fill="#FFEBCD" points="31.6,31.8 31.6,38.1 37.5,35.1 37.5,31.8 33.1,34.2 	"/>
	<polygon fill="#FFEBCD" points="38.4,35.7 31.5,39.2 24.5,35.7 24.5,31.6 24.5,31.6 24.5,35.7 31.5,39.2 38.5,35.7 38.5,31.3 
		38.4,31.3 	"/>
	<polygon fill="#FFEBCD" points="28.7,25.8 28.3,25.9 28.7,26.7 26.1,27.8 31.5,30.5 36.8,27.8 34.1,26.6 34.4,25.8 34.1,25.7 
		31.4,28.5 	"/>
	<polygon fill="#FFEBCD" points="37.8,28.3 32.2,31.2 33.4,33 38.9,29.9 	"/>
	<path fill="#3D6480" d="M38.4,27.4l-4-1.7l0,0.1l-0.3,0.8l2.7,1.1l-5.3,2.7l-5.4-2.7l2.6-1.1l-0.3-0.8l0-0.1l-3.8,1.6l-2.2,3
		l1.4,0.8l0.7,0.4l0,0v4.1l7,3.5l7-3.5v-4.4l0,0l1.8-1L38.4,27.4z M23.7,30.1l1.4-1.8l5.6,2.8L29.3,33L23.7,30.1z M31.1,38l-5.7-2.9
		v-3l4.1,2.2l1.5-2.1V38z M37.5,35.1l-5.9,3v-6.3l1.6,2.4l4.3-2.4V35.1z M33.4,33l-1.2-1.8l5.6-2.9l1.1,1.7L33.4,33z"/>
	<path fill="#0CB20F" d="M29.2,20.8c-0.4-0.1-0.7-0.1-1.2-0.1v1c0,0,0.1,0,0.1,0c1.9,0,2.7,0.7,2.8,2.5c0,0.2,0,0.3,0,0.5v1.7v0
		l-1.1-1.1l-0.5-0.5l-0.7,0.7l0.2,0.2l2.7,2.7l2.7-2.7l0.1-0.1l-0.7-0.7l-1.6,1.6v-1.7c0-0.5-0.1-1-0.1-1.4
		C31.5,21.9,30.6,21,29.2,20.8z"/>
</g>
</svg>
