<?xml version="1.0" encoding="utf-8"?>
<!-- Generator: Adobe Illustrator 18.0.0, SVG Export Plug-In . SVG Version: 6.00 Build 0)  -->
<!DOCTYPE svg PUBLIC "-//W3C//DTD SVG 1.1//EN" "http://www.w3.org/Graphics/SVG/1.1/DTD/svg11.dtd">
<svg version="1.1" id="Layer_1" xmlns="http://www.w3.org/2000/svg" xmlns:xlink="http://www.w3.org/1999/xlink" x="0px" y="0px"
	 viewBox="0 0 42 42" enable-background="new 0 0 42 42" xml:space="preserve">
<g>
	<path fill="#5FB34F" d="M26.6,19.5h1.3c0.4,0,0.8,0,1.2,0.1c1.1-4.5-0.1-9.5-3.6-13C20.1,1.2,11.4,1.2,6,6.5
		c-5.4,5.4-5.4,14.1,0,19.4c5.4,5.4,14.1,5.4,19.4,0c0.9-0.9,1.6-1.9,2.2-2.9h-1.1V19.5z"/>
	<path fill="#FFFFFF" d="M38.5,31.3v4.4l-7,3.5l-7-3.5v-4.1l-2.2-1.1l2.2-3l3.8-1.6l0,0.1l0.4-0.2l-0.2-0.2l0.7-0.7l1.7,1.7v0v-1.7
		c0-2.3-0.7-3-2.9-3v-1c2.7,0,3.9,1.3,3.9,4.1v1.7l1.6-1.6l0.7,0.7l-0.1,0.1l0.3,0.1l0-0.1l4,1.7l1.9,2.8L38.5,31.3z"/>
	<polygon fill="#FFEBCD" points="29.3,33 30.7,31.2 25.1,28.3 23.7,30.1 	"/>
	<polygon fill="#FFEBCD" points="31.1,32.1 29.6,34.2 25.4,32.1 25.4,35.1 31.1,38 	"/>
	<polygon fill="#FFEBCD" points="33.1,34.2 31.6,31.8 31.6,38.1 37.5,35.1 37.5,31.8 	"/>
	<polygon fill="#FFEBCD" points="38.4,35.7 31.5,39.2 24.5,35.7 24.5,31.6 24.5,31.6 24.5,35.7 31.5,39.2 38.5,35.7 38.5,31.3 
		38.4,31.3 	"/>
	<polygon fill="#FFEBCD" points="26.1,27.8 31.5,30.5 36.8,27.8 34.1,26.6 34.4,25.8 34.1,25.7 31.4,28.5 28.7,25.8 28.3,25.9 
		28.7,26.7 	"/>
	<polygon fill="#FFEBCD" points="37.8,28.3 32.2,31.2 33.4,33 38.9,29.9 	"/>
	<path fill="#3D6480" d="M38.4,27.4l-4-1.7l0,0.1l-0.3,0.8l2.7,1.1l-5.3,2.7l-5.4-2.7l2.6-1.1l-0.3-0.8l0-0.1l-3.8,1.6l-2.2,3
		l2.2,1.1l0,0v4.1l7,3.5l7-3.5v-4.4l0,0l1.8-1L38.4,27.4z M23.7,30.1l1.4-1.8l5.6,2.8L29.3,33L23.7,30.1z M25.4,35.1v-3l4.1,2.2
		l1.5-2.1V38L25.4,35.1z M37.5,35.1l-5.9,3v-6.3l1.6,2.4l4.3-2.4V35.1z M33.4,33l-1.2-1.8l5.6-2.9l1.1,1.7L33.4,33z"/>
	<path fill="#0CB20F" d="M34.1,25.7L34.1,25.7l-0.6-0.8l-1.6,1.6v-1.7c0-2.8-1.2-4.1-3.9-4.1v1c2.2,0,2.9,0.8,2.9,3v1.7v0l-1.7-1.7
		l-0.7,0.7l0.2,0.2l2.7,2.7L34.1,25.7z"/>
	<path fill="#FFFFFF" d="M40.3,30.3"/>
	<path fill="#3D6480" d="M40.3,30.3"/>
	<path fill="#FFFFFF" d="M16.2,15.9V17h1.7v2.6c-0.7,0.1-1.4,0.2-2,0.2c-1.8,0-2.2-0.6-2.2-2v-4.5c0-1.4,0.5-2,2.3-2
		c0.9,0,1.8,0.1,2.9,0.3l0.2-1.2c-1-0.2-2-0.3-3-0.3c-2.7,0-3.7,1-3.7,3.2v4.7c0,2,0.8,3.1,3.6,3.1c1.1,0,2.3-0.2,3.4-0.5V17v-1
		v-0.1H16.2z"/>
</g>
</svg>
