<?xml version="1.0" encoding="utf-8"?>
<!-- Generator: Adobe Illustrator 17.0.0, SVG Export Plug-In . SVG Version: 6.00 Build 0)  -->
<!DOCTYPE svg PUBLIC "-//W3C//DTD SVG 1.1//EN" "http://www.w3.org/Graphics/SVG/1.1/DTD/svg11.dtd">
<svg version="1.1" id="Layer_1" xmlns="http://www.w3.org/2000/svg" xmlns:xlink="http://www.w3.org/1999/xlink" x="0px" y="0px"
	 width="42px" height="42px" viewBox="0 0 42 42" enable-background="new 0 0 42 42" xml:space="preserve">
<g>
	<rect x="20.286" y="31.952" fill="none" width="4.172" height="1.932"/>
	<rect x="13.281" y="26.13" fill="none" width="1.931" height="2.256"/>
	<path fill="none" d="M23.007,3.679c0.152,0.021,0.326-0.055,0.554,0c0.229,0.055,0.229,0.055,0.229,0.055s0-0.065-0.056-0.175
		c-0.054-0.108-0.271-0.304-0.348-0.293c-0.075,0.011-0.401,0.195-0.445,0.261C22.941,3.526,22.854,3.657,23.007,3.679z"/>
	<rect x="4.481" y="31.952" fill="none" width="3.726" height="1.932"/>
	<path fill="none" d="M27.396,3.189c0.087-0.087,0.228-0.325,0.142-0.325c-0.087,0-0.076-0.033-0.186,0.064
		c0,0-0.098,0.055-0.119,0.207C27.212,3.287,27.31,3.276,27.396,3.189z"/>
	<path fill="none" d="M27.081,4.059c-0.206,0-0.336,0.033-0.456,0.065c-0.119,0.033-0.229,0.163-0.229,0.163l-0.021,0.956l0.37-0.88
		l0.543,0.021l0.021,0.88c0,0,0.282-0.771,0.315-0.858c0.032-0.086,0.064-0.151,0.021-0.206C27.603,4.146,27.288,4.059,27.081,4.059
		z"/>
	<path fill="none" d="M26.332,6.406l-0.065-0.695L26.027,6.58h1.119l0.011-0.837c0,0-0.141,0.5-0.261,0.598
		C26.777,6.438,26.332,6.406,26.332,6.406z"/>
	<rect x="9.906" y="30.085" fill="none" width="8.681" height="5.666"/>
	<path fill="#3D6480" d="M38.423,27.394l-6.919-2.84l-1.841,0.746l-0.296,0.12l-4.875,1.974l-2.106,2.859h-2.099v-1.867h-3.375
		v-3.955h-5.329v3.955H8.207v1.867H2.782v5.33h5.425v1.867h12.079v-1.867h4.172v-1.699h-4.172v-1.932h4.172v-0.424l0.033,0.017
		v4.092l6.967,3.518l6.965-3.518v-4.406l0.033-0.019l1.824-1.009L38.423,27.394z M8.207,33.884H4.481v-1.932h3.726V33.884z
		 M13.281,26.13h1.931v2.256h-1.931V26.13z M18.587,35.751H9.906v-5.666h8.681V35.751z M23.702,30.083l1.391-1.789l5.582,2.818
		l-1.381,1.883L23.702,30.083z M31.12,37.938l-5.695-2.875v-3.031l4.148,2.162l1.547-2.109V37.938z M31.454,30.46l-5.379-2.715
		l5.426-2.184l5.268,2.153L31.454,30.46z M37.489,35.063l-5.93,2.992v-6.268l1.59,2.361l4.34-2.402V35.063z M33.446,32.917
		l-1.217-1.807l5.574-2.879l1.127,1.652L33.446,32.917z"/>
	<path fill="#3D6480" d="M12.461,21.926c0,0-0.039-0.368,0.093-1.053s0.527-3.066,0.527-3.066l-4.015-0.895l0.237,4.619
		c0,0,0.145,0.618,0.474,0.895s1.763,1.079,2.054,1.197c0.289,0.118,0.512,0.211,0.512,0.211l-0.289-0.526l0.816,0.46l-0.303-0.526
		l0.842,0.448l-0.211-0.408l0.764,0.355l-0.29-0.421l0.724,0.118L12.461,21.926z"/>
	<path fill="#3D6480" d="M5.035,24.323l0.619,0.369l-0.108-0.38l0.739,0.348l-0.229-0.37l0.674,0.25l-0.305-0.369l0.761,0.239
		l-1.825-1.152c0,0,1.25-4.14,1.912-4.954c0.663-0.815,1.967-2.228,3.151-1.793s4.303,1.543,4.303,1.543l1.836-4.922
		c0,0-1.13,4.248-0.761,5.933c0.37,1.684,1.532,3.194,1.532,3.194s-0.129,0.391,0.294,0.793s1.662,1.348,2.021,1.467
		s0.619,0.282,0.619,0.282l-0.206-0.467l0.901,0.576l-0.25-0.544l0.729,0.576l-0.12-0.457l0.826,0.468l-0.229-0.479l0.718,0.283
		l-1.858-1.739l-0.479-3.64l-1.249-0.913l-1.282-4.215l1.608,3.324c0,0,0.554,1.239,1.651,1.217
		c1.098-0.021,1.488-0.054,2.173-0.706c0.685-0.651,1.021-1.087,1.021-1.087l-0.88,1.706c0,0-0.174,0.175,0,0.608
		c0.174,0.435,1.108,1.848,1.38,2.141c0.271,0.294,0.587,0.826,0.651,1.032c0.065,0.207,0.587,0.956,1.271,1.25
		c0.685,0.293,1.642,0.685,1.642,0.685l-0.283-0.511l0.869,0.478l-0.239-0.499l0.75,0.499l-0.239-0.511l0.782,0.337l-0.282-0.391
		l0.75,0.152l-1.891-1.413l-1.88-8.214c0,0-0.098-0.413-0.044-0.913c0.055-0.5,0.087-0.63-0.021-1.064s-0.229-0.576-0.229-0.576
		s-0.162,0.805-0.336,1.174c-0.175,0.369-0.565,0.924-0.565,0.924s0.44-1.767,0.244-2.886c-0.195-1.119-1.103-2.048-1.103-2.048
		s-0.304,0.935-0.663,1.391c-0.358,0.457-0.424,0.555-0.424,0.555s0.435-0.892,0.544-1.391c0.108-0.5,0.174-0.945,0.174-0.945
		s1.173,0.011,1.836-0.195c0.663-0.207,1.087-0.772,1.207-0.989c0.119-0.218,0.119-0.521,0.119-0.521s-0.348,0.326-0.968,0.271
		c-0.619-0.054-1.151-0.532-1.401-0.967s-0.174-0.402-0.305-0.652c-0.13-0.25-0.217-0.304-0.26-0.412
		c-0.044-0.109,0-0.315,0.217-0.718c0.217-0.401,0.478-0.685,1.032-0.717c0.554-0.032,1.271-0.076,1.445-0.131
		c0.174-0.054,0.608,0.099,0.717,0.207s0.098,0.195,0.098,0.195S27.19,3.732,26.81,3.82c-0.38,0.087-1.348,0.586-1.521,0.869
		c-0.174,0.282-0.314,0.706,0,1.228c0.315,0.521,0.729,0.978,1.207,0.989c0.478,0.011,0.857-0.131,0.944-0.25
		c0.088-0.12,0.065-0.25-0.032-0.5s-0.195-0.5-0.131-0.652c0.065-0.152,0.055-0.326,0.512-0.761s0.641-0.511,0.63-0.782
		s-0.087-0.478-0.239-0.5c-0.152-0.021-0.511,0.055-0.511-0.032s0.011-0.467,0.12-0.467c0.108,0,0.13,0.141,0.075,0.174
		c-0.054,0.032,0.021,0.293,0.185,0.098c0.163-0.196,0.218-0.532-0.217-0.685c0,0-0.424-0.185-1.151,0.261
		c-0.729,0.445-1.924,0.239-2.597,0.044c-0.674-0.196-1.555-0.109-1.913,0.021c-0.358,0.13-0.814,0.151-1.086,0.021
		c-0.271-0.131-0.826-0.282-0.945-0.065c-0.12,0.218-0.12,0.913-0.044,1.054c0.076,0.142,0.402,0.511,0.402,0.511
		s-1.674,0.729-2.173,1.479c-0.5,0.749-0.729,1.89-0.729,1.89S16.9,7.492,15.868,8.058c-1.032,0.564-2.173,1.478-2.173,1.478
		s0.391-0.685,0.576-0.924c0.185-0.238,0.336-0.423,0.336-0.423S11.055,8.024,9.295,8.72c-1.761,0.696-3.651,1.619-4.716,3.456
		c-1.064,1.836-1.478,4.313-1.685,5.812c-0.206,1.5-0.63,4.324-0.63,4.411s-0.152,0.979,0.142,1.185
		c0.293,0.206,2.824,1.185,2.824,1.185L5.035,24.323z M27.146,6.58h-1.119l0.239-0.869l0.065,0.695c0,0,0.445,0.032,0.564-0.065
		c0.12-0.098,0.261-0.598,0.261-0.598L27.146,6.58z M27.625,4.406c-0.033,0.087-0.315,0.858-0.315,0.858l-0.021-0.88l-0.543-0.021
		l-0.37,0.88l0.021-0.956c0,0,0.109-0.13,0.229-0.163c0.12-0.032,0.25-0.065,0.456-0.065c0.207,0,0.521,0.088,0.565,0.142
		C27.689,4.255,27.657,4.32,27.625,4.406z M27.353,2.929c0.109-0.098,0.099-0.064,0.186-0.064c0.086,0-0.055,0.238-0.142,0.325
		s-0.185,0.098-0.163-0.054C27.255,2.983,27.353,2.929,27.353,2.929z M22.941,3.526c0.044-0.065,0.37-0.25,0.445-0.261
		c0.076-0.011,0.294,0.185,0.348,0.293c0.056,0.109,0.056,0.175,0.056,0.175s0,0-0.229-0.055c-0.228-0.055-0.401,0.021-0.554,0
		S22.941,3.526,22.941,3.526z"/>
	<polygon fill="#FFEBCD" points="29.645,25.302 29.367,25.419 29.663,25.299 	"/>
	<polygon fill="#FFEBCD" points="30.675,31.112 25.093,28.294 23.702,30.083 29.294,32.995 	"/>
	<polygon fill="#FFEBCD" points="38.423,35.638 31.458,39.155 24.491,35.638 24.491,31.546 24.458,31.529 24.458,31.952 
		24.458,33.884 24.458,35.583 24.458,35.659 31.458,39.192 38.456,35.659 38.456,31.213 38.423,31.231 	"/>
	<polygon fill="#FFEBCD" points="37.804,28.231 32.229,31.11 33.446,32.917 38.931,29.884 	"/>
	<polygon fill="#FFEBCD" points="31.501,25.561 26.075,27.745 31.454,30.46 36.769,27.714 	"/>
	<polygon fill="#FFEBCD" points="31.56,31.788 31.56,38.056 37.489,35.063 37.489,31.747 33.149,34.149 	"/>
	<polygon fill="#FFEBCD" points="25.425,32.032 25.425,35.063 31.12,37.938 31.12,32.085 29.573,34.194 	"/>
</g>
</svg>
