<?xml version="1.0" encoding="utf-8"?>
<!-- Generator: Adobe Illustrator 18.0.0, SVG Export Plug-In . SVG Version: 6.00 Build 0)  -->
<!DOCTYPE svg PUBLIC "-//W3C//DTD SVG 1.1//EN" "http://www.w3.org/Graphics/SVG/1.1/DTD/svg11.dtd">
<svg version="1.1" id="Layer_1" xmlns="http://www.w3.org/2000/svg" xmlns:xlink="http://www.w3.org/1999/xlink" x="0px" y="0px"
	 viewBox="0 0 42 42" enable-background="new 0 0 42 42" xml:space="preserve">
<g>
	<g>
		<path fill="#3D6480" d="M7.4,16.3h2.9V17H6.5v-6.7h0.9V16.3z"/>
		<path fill="#3D6480" d="M11.7,12.2v3.7c0,0.3,0.2,0.4,0.5,0.4c0.4,0,1.1-0.2,1.6-0.5v-3.7h0.8V17H14l-0.1-0.4
			c-0.5,0.3-1.4,0.5-2,0.5c-0.8,0-1.1-0.5-1.1-1.2v-3.7H11.7z"/>
		<path fill="#3D6480" d="M15.5,15.4v-1.5c0-1.1,0.4-1.8,1.9-1.8c0.4,0,0.9,0.1,1.2,0.1l-0.1,0.7c-0.4-0.1-0.7-0.1-1.1-0.1
			c-0.8,0-1.1,0.2-1.1,1v1.6c0,0.8,0.3,1,1.1,1c0.3,0,0.7,0,1.1-0.1l0.1,0.7c-0.3,0.1-0.7,0.1-1.2,0.1
			C15.8,17.1,15.5,16.5,15.5,15.4z"/>
		<path fill="#3D6480" d="M19.4,11.4v-1.2h0.8v1.2H19.4z M19.4,17v-4.9h0.8V17H19.4z"/>
		<path fill="#3D6480" d="M21.1,13.6c0-1,0.4-1.6,1.6-1.6c0.4,0,1,0.1,1.4,0.1v-2l0.8-0.1v7h-0.7l-0.1-0.4c-0.4,0.3-1,0.5-1.6,0.5
			c-1,0-1.4-0.5-1.4-1.5V13.6z M24.1,12.9c-0.5-0.1-1-0.1-1.3-0.1c-0.6,0-0.8,0.3-0.8,0.8v2c0,0.5,0.2,0.7,0.8,0.7
			c0.5,0,1-0.3,1.4-0.6V12.9z"/>
		<path fill="#3D6480" d="M28.4,10.4c1.6,0,2.1,0.8,2.1,1.9v2.8c0,1.1-0.5,1.9-2.1,1.9h-2.3v-6.7H28.4z M26.9,16.3h1.4
			c1,0,1.3-0.4,1.3-1.2v-2.7c0-0.8-0.3-1.2-1.3-1.2h-1.4V16.3z"/>
		<path fill="#3D6480" d="M31.5,17v-6.7h2.6c1,0,1.6,0.5,1.6,1.3v0.8c0,0.5-0.2,0.9-0.8,1.1c0.6,0.1,1,0.5,1,1.2v0.8
			c0,0.9-0.6,1.4-1.6,1.4H31.5z M34.8,11.7c0-0.4-0.2-0.6-0.8-0.6h-1.7v2.2h1.5c0.6,0,0.9-0.3,0.9-0.8V11.7z M35,14.8
			c0-0.5-0.3-0.8-1-0.8h-1.7v2.3h1.7c0.6,0,0.9-0.3,0.9-0.8V14.8z"/>
	</g>
	<g>
		<rect x="20.3" y="31.7" fill="none" width="4.2" height="1.9"/>
		<rect x="4.5" y="31.7" fill="none" width="3.7" height="1.9"/>
		<rect x="9.9" y="29.8" fill="none" width="8.7" height="5.7"/>
		<path fill="#3D6480" d="M38.4,27.1l-6.9-2.8l-1.8,0.7l-0.3,0.1l-4.9,2L22.4,30h-2.1v-1.9h-3.4v-4h-5.3v4H8.2V30H2.8v5.3h5.4v1.9
			h12.1v-1.9h4.2v-1.7h-4.2v-1.9h4.2v-0.4l0,0v4.1l7,3.5l7-3.5V31l0,0l1.8-1L38.4,27.1z M8.2,33.6H4.5v-1.9h3.7V33.6z M13.3,25.9
			h1.9v2.3h-1.9V25.9z M18.6,35.5H9.9v-5.7h8.7V35.5z M23.7,29.8l1.4-1.8l5.6,2.8l-1.4,1.9L23.7,29.8z M31.1,37.7l-5.7-2.9v-3
			l4.1,2.2l1.5-2.1V37.7z M31.5,30.2l-5.4-2.7l5.4-2.2l5.3,2.2L31.5,30.2z M37.5,34.8l-5.9,3v-6.3l1.6,2.4l4.3-2.4V34.8z M33.4,32.7
			l-1.2-1.8l5.6-2.9l1.1,1.7L33.4,32.7z"/>
		<polygon fill="#FFEBCD" points="30.7,30.9 25.1,28 23.7,29.8 29.3,32.7 		"/>
		<polygon fill="#FFEBCD" points="38.4,35.4 31.5,38.9 24.5,35.4 24.5,31.3 24.5,31.3 24.5,31.7 24.5,33.6 24.5,35.3 24.5,35.4 
			31.5,38.9 38.5,35.4 38.5,31 38.4,31 		"/>
		<polygon fill="#FFEBCD" points="37.8,28 32.2,30.9 33.4,32.7 38.9,29.6 		"/>
		<polygon fill="#FFEBCD" points="31.5,25.3 26.1,27.5 31.5,30.2 36.8,27.5 		"/>
		<polygon fill="#FFEBCD" points="31.6,31.5 31.6,37.8 37.5,34.8 37.5,31.5 33.1,33.9 		"/>
		<polygon fill="#FFEBCD" points="25.4,31.8 25.4,34.8 31.1,37.7 31.1,31.8 29.6,33.9 		"/>
	</g>
</g>
</svg>
