<?xml version="1.0" encoding="utf-8"?>
<!-- Generator: Adobe Illustrator 18.0.0, SVG Export Plug-In . SVG Version: 6.00 Build 0)  -->
<!DOCTYPE svg PUBLIC "-//W3C//DTD SVG 1.1//EN" "http://www.w3.org/Graphics/SVG/1.1/DTD/svg11.dtd">
<svg version="1.1" id="Layer_1" xmlns="http://www.w3.org/2000/svg" xmlns:xlink="http://www.w3.org/1999/xlink" x="0px" y="0px"
	 viewBox="0 0 42 42" enable-background="new 0 0 42 42" xml:space="preserve">
<g>
	<g>
		<polygon fill="#FFEBCD" points="39.6,30.1 38.5,28.4 38.5,27.5 33.2,25.3 31.4,27.1 29.6,25.3 24.5,27.5 24.5,28.4 23,30.3 
			24.5,31 24.5,35.7 31.5,39.2 38.5,35.7 38.5,30.7 		"/>
		<path fill="#3D6480" d="M38.4,27.4l-4-1.7l-0.4,0.9l2.7,1.1l-5.3,2.7l-5.4-2.7l2.6-1.1l-0.4-0.9l-3.8,1.6l-2.2,3l2.2,1.2v4.1
			l7,3.5l7-3.5v-4.4l1.9-1L38.4,27.4z M25,27.7L25,27.7L25,27.7L25,27.7L25,27.7z M23.7,30.1l1.4-1.8l5.6,2.8L29.3,33L23.7,30.1z
			 M25.4,32l4.1,2.2l1.5-2.1V38l-5.7-2.9V32z M37.5,35.1l-5.9,3v-6.3l1.6,2.4l4.3-2.4V35.1z M33.4,32.9l-1.2-1.8l5.6-2.9l1.1,1.7
			L33.4,32.9z"/>
		<path fill="#0CB20F" d="M33.5,24.9l-1.6,1.6v-1.7c0-2.8-1.2-4.1-3.9-4.1v1c2.2,0,2.9,0.8,2.9,3v1.7l-1.7-1.7l-0.7,0.7l2.9,2.9
			l2.8-2.8L33.5,24.9z"/>
	</g>
	<g>
		<path fill="#E67C25" d="M5,11.6L4.9,17H4l0.2-6.7h1.1l1.9,5.1l1.9-5.1h1.1l0.2,6.7H9.7l-0.1-5.4l-1.7,4.5H6.7L5,11.6z"/>
		<path fill="#E67C25" d="M13.3,17.1c-1.4,0-2-0.8-2-1.8v-1.4c0-1,0.6-1.8,2-1.8s2,0.8,2,1.8v1.4C15.3,16.3,14.7,17.1,13.3,17.1z
			 M13.3,12.8c-0.8,0-1.1,0.4-1.1,1.1v1.5c0,0.7,0.4,1.1,1.1,1.1s1.1-0.4,1.1-1.1v-1.5C14.4,13.1,14,12.8,13.3,12.8z"/>
		<path fill="#E67C25" d="M19,17v-3.7c0-0.3-0.2-0.4-0.5-0.4c-0.4,0-1.1,0.2-1.6,0.5V17h-0.8v-4.9h0.7l0.1,0.4
			c0.5-0.3,1.4-0.5,2-0.5c0.8,0,1.1,0.5,1.1,1.2V17H19z"/>
		<path fill="#E67C25" d="M22.7,16.4c0.5,0,1-0.1,1.5-0.2l0.1,0.7c-0.5,0.2-1.1,0.3-1.7,0.3c-1.4,0-1.9-0.7-1.9-1.8v-1.5
			c0-1,0.5-1.8,1.9-1.8c1.4,0,1.8,0.8,1.8,1.8v1h-2.9v0.4C21.5,16.1,21.7,16.4,22.7,16.4z M21.5,14.2h2.1v-0.4c0-0.7-0.2-1.1-1-1.1
			c-0.8,0-1.1,0.4-1.1,1.1V14.2z"/>
		<path fill="#E67C25" d="M27.8,16.9c-0.3,0.1-0.7,0.2-1,0.2c-0.8,0-1.2-0.3-1.2-1.1v-3.2h-0.9v-0.7h0.9V11l0.8-0.1v1.3h1.4
			l-0.1,0.7h-1.3v3c0,0.4,0.1,0.5,0.5,0.5c0.2,0,0.5,0,0.8-0.1L27.8,16.9z"/>
		<path fill="#E67C25" d="M30.8,10.4c1.6,0,2.1,0.8,2.1,1.9v2.8c0,1.1-0.5,1.9-2.1,1.9h-2.3v-6.7H30.8z M29.3,16.3h1.4
			c1,0,1.3-0.4,1.3-1.2v-2.7c0-0.8-0.3-1.2-1.3-1.2h-1.4V16.3z"/>
		<path fill="#E67C25" d="M34,17v-6.7h2.6c1,0,1.6,0.5,1.6,1.3v0.8c0,0.5-0.2,0.9-0.8,1.1c0.6,0.1,1,0.5,1,1.2v0.8
			c0,0.9-0.6,1.4-1.6,1.4H34z M37.2,11.7c0-0.4-0.2-0.6-0.8-0.6h-1.7v2.2h1.5c0.6,0,0.9-0.3,0.9-0.8V11.7z M37.5,14.8
			c0-0.5-0.3-0.8-1-0.8h-1.7v2.3h1.7c0.6,0,0.9-0.3,0.9-0.8V14.8z"/>
	</g>
</g>
</svg>
