<?xml version="1.0" encoding="utf-8"?>
<!-- Generator: Adobe Illustrator 17.0.0, SVG Export Plug-In . SVG Version: 6.00 Build 0)  -->
<!DOCTYPE svg PUBLIC "-//W3C//DTD SVG 1.1//EN" "http://www.w3.org/Graphics/SVG/1.1/DTD/svg11.dtd">
<svg version="1.1" id="Layer_1" xmlns="http://www.w3.org/2000/svg" xmlns:xlink="http://www.w3.org/1999/xlink" x="0px" y="0px"
	 width="42px" height="42px" viewBox="0 0 42 42" enable-background="new 0 0 42 42" xml:space="preserve">
<g>
	<polygon fill="#FFEBCD" points="32.172,26.068 31.821,26.068 31.821,26.419 	"/>
	<polygon fill="#FFEBCD" points="30.777,26.068 30.421,26.068 30.777,26.424 	"/>
	<polygon fill="#FFEBCD" points="25.961,27.762 31.342,30.477 36.657,27.731 33.961,26.606 34.185,26.068 34.185,26.068 
		33.647,26.068 31.297,28.419 28.945,26.068 28.378,26.297 28.54,26.686 	"/>
	<polygon fill="#FFEBCD" points="25.313,32.051 25.313,35.081 31.008,37.955 31.008,32.103 29.462,34.211 	"/>
	<polygon fill="#FFEBCD" points="31.447,31.804 31.447,38.074 37.377,35.081 37.377,31.765 33.037,34.166 	"/>
	<path fill="#FFFFFF" d="M33.561,23.625l0.653-0.28l-2.479,0.217c0.015,0.098,0.028,0.198,0.038,0.301L33.561,23.625z"/>
	<path fill="#FFFFFF" d="M30.204,24.071l0.556,0.233c-0.004-0.102-0.006-0.21-0.014-0.305L30.204,24.071z"/>
	<polygon fill="#FFEBCD" points="29.183,33.012 30.563,31.13 24.979,28.31 23.591,30.1 	"/>
	<polygon fill="#FFEBCD" points="37.692,28.248 32.117,31.128 33.334,32.934 38.819,29.901 	"/>
	<path fill="#3D6480" d="M38.311,27.501v-0.035v-0.055l-3.991-1.666l-0.018,0.042l-0.117,0.281l-0.224,0.538l2.697,1.125
		l-5.315,2.746l-5.382-2.715l2.579-1.076l-0.162-0.389l-0.158-0.378l-0.039-0.094l-3.801,1.586v0.152l-0.007,0.009l-2.205,2.841
		l2.212,1.152v4.09l6.966,3.518l6.965-3.518v-4.406l1.857-1.027L38.311,27.501z M31.008,37.955l-5.695-2.875v-3.03l4.149,2.161
		l1.546-2.109V37.955z M37.377,35.081l-5.93,2.993v-6.27l1.589,2.362l4.34-2.401V35.081z M23.591,30.1l1.388-1.79l5.584,2.82
		l-1.381,1.882L23.591,30.1z M33.334,32.934l-1.217-1.806l5.575-2.88l1.127,1.652L33.334,32.934z"/>
	<path fill="#FDE7EA" d="M13.777,11.901c-1.321,1.323-1.321,3.476,0,4.799c0.27,0.269,0.577,0.488,0.91,0.65l0.282,0.137v3.203
		l1.062,1.131l-0.941,1.78l0.939,0.878l-0.959,2.044l0.724,0.729l1.278-1.276v-8.385l0.321-0.123c0.444-0.17,0.842-0.429,1.184-0.77
		c0.547-0.548,0.879-1.251,0.96-2.034c0.118-1.03-0.232-2.036-0.96-2.765C17.293,10.62,15.059,10.62,13.777,11.901z M16.949,14.017
		c-0.224,0.224-0.521,0.347-0.838,0.347c-0.316,0-0.614-0.123-0.837-0.347c-0.223-0.223-0.346-0.52-0.346-0.836
		c0-0.316,0.123-0.613,0.346-0.837c0.447-0.448,1.228-0.448,1.675,0c0.12,0.122,0.209,0.26,0.268,0.412
		C17.385,13.192,17.279,13.688,16.949,14.017z"/>
	<path fill="#FDE7EA" d="M16.523,12.765c-0.108-0.108-0.255-0.169-0.412-0.169c-0.156,0-0.303,0.061-0.413,0.171
		c-0.11,0.11-0.171,0.257-0.171,0.414s0.061,0.303,0.17,0.412c0.221,0.222,0.605,0.221,0.827,0c0.163-0.163,0.214-0.407,0.132-0.622
		C16.628,12.895,16.584,12.827,16.523,12.765z"/>
	<path fill="#FDE7EA" d="M24.959,10.237h-4.257V5.98H7.323v24.411h10.56l7.114-7.114L24.959,10.237z M20.53,14.774
		c-0.104,1.007-0.536,1.919-1.247,2.632c-0.358,0.357-0.765,0.645-1.211,0.858v8.126l-2.281,2.279l-1.923-1.938l0.947-2.018
		l-0.966-0.903l0.965-1.825l-0.844-0.9v-2.986c-0.324-0.188-0.625-0.42-0.898-0.691c-1.712-1.714-1.712-4.501-0.001-6.214
		c0.831-0.83,1.934-1.286,3.107-1.286s2.276,0.457,3.106,1.286C20.228,12.14,20.683,13.445,20.53,14.774z"/>
	<polygon fill="#3D6480" points="7.323,5.98 20.702,5.98 20.702,10.237 24.959,10.237 24.997,23.277 26.692,21.582 26.659,10.248 
		24.948,8.537 22.402,8.537 22.402,5.991 20.69,4.279 5.623,4.279 5.623,32.091 16.183,32.091 17.883,30.391 7.323,30.391 	"/>
	<path fill="#3D6480" d="M16.949,12.343c-0.447-0.448-1.228-0.448-1.675,0c-0.223,0.224-0.346,0.521-0.346,0.837
		c0,0.317,0.123,0.614,0.346,0.836c0.224,0.224,0.521,0.347,0.837,0.347c0.316,0,0.614-0.123,0.838-0.347
		c0.33-0.33,0.436-0.825,0.268-1.262C17.158,12.603,17.069,12.465,16.949,12.343z M16.526,13.593c-0.222,0.221-0.606,0.221-0.827,0
		c-0.11-0.109-0.17-0.256-0.17-0.412s0.061-0.303,0.171-0.414c0.11-0.11,0.257-0.171,0.413-0.171c0.156,0,0.303,0.061,0.412,0.169
		c0.061,0.062,0.105,0.13,0.134,0.206C16.74,13.186,16.688,13.43,16.526,13.593z"/>
	<path fill="#3D6480" d="M16.176,9.908c-1.173,0-2.276,0.457-3.107,1.286c-1.71,1.713-1.71,4.5,0.001,6.214
		c0.273,0.271,0.574,0.503,0.898,0.691v2.986l0.844,0.9l-0.965,1.825l0.966,0.903l-0.947,2.018l1.923,1.938l2.281-2.279v-8.126
		c0.447-0.214,0.853-0.501,1.211-0.858c0.711-0.713,1.143-1.625,1.247-2.632c0.153-1.329-0.302-2.634-1.248-3.581
		C18.452,10.364,17.349,9.908,16.176,9.908z M19.536,14.666c-0.081,0.783-0.413,1.486-0.96,2.034c-0.342,0.341-0.74,0.6-1.184,0.77
		l-0.321,0.123v8.385l-1.278,1.276l-0.724-0.729l0.959-2.044l-0.939-0.878l0.941-1.78l-1.062-1.131v-3.203l-0.282-0.137
		c-0.333-0.162-0.64-0.381-0.91-0.65c-1.322-1.323-1.322-3.476,0-4.799c1.282-1.281,3.517-1.281,4.799,0
		C19.304,12.63,19.654,13.636,19.536,14.666z"/>
	<path fill="#0CB20F" d="M33.647,26.068l0.391-0.391l0.084-0.084l-0.738-0.738l-0.387,0.387l-0.827,0.827l-0.351,0.351v-0.351v-1.32
		v-0.07c0-0.292-0.021-0.557-0.048-0.816c-0.01-0.103-0.023-0.203-0.038-0.301c-0.307-2.014-1.52-2.938-3.839-2.938v1.045
		c1.781,0,2.577,0.534,2.802,1.984c0.018,0.112,0.037,0.223,0.048,0.346c0.008,0.095,0.01,0.203,0.014,0.305
		c0.005,0.125,0.017,0.239,0.017,0.375v0.142v1.247v0.356l-0.356-0.356l-0.766-0.766l-0.529-0.529l-0.738,0.738l0.234,0.234
		l0.322,0.322l2.352,2.351L33.647,26.068z"/>
</g>
</svg>
