<?xml version="1.0" encoding="utf-8"?>
<!-- Generator: Adobe Illustrator 17.0.0, SVG Export Plug-In . SVG Version: 6.00 Build 0)  -->
<!DOCTYPE svg PUBLIC "-//W3C//DTD SVG 1.1//EN" "http://www.w3.org/Graphics/SVG/1.1/DTD/svg11.dtd">
<svg version="1.1" id="Layer_1" xmlns="http://www.w3.org/2000/svg" xmlns:xlink="http://www.w3.org/1999/xlink" x="0px" y="0px"
	 width="42px" height="42px" viewBox="0 0 42 42" enable-background="new 0 0 42 42" xml:space="preserve">
<g>
	<polygon fill="#FFEBCD" points="39.344,30.06 38.196,28.377 38.196,27.48 32.96,25.313 31.165,27.122 29.384,25.318 24.198,27.511 
		24.198,28.364 22.731,30.255 24.198,31.019 24.198,35.675 31.197,39.208 38.196,35.675 38.196,30.695 	"/>
	<path fill="#3D6480" d="M38.163,27.409l-3.991-1.666l-0.359,0.862l2.696,1.125l-5.315,2.745l-5.38-2.715l2.577-1.076l-0.359-0.861
		l-3.801,1.586l-2.212,3.002l2.212,1.151v4.092l6.966,3.517l6.966-3.517v-4.407l1.856-1.027L38.163,27.409z M24.698,27.72
		L24.698,27.72L24.698,27.72L24.698,27.72L24.698,27.72z M23.442,30.099l1.39-1.788l5.583,2.818l-1.381,1.882L23.442,30.099z
		 M25.165,32.049l4.149,2.161l1.547-2.109v5.854l-5.695-2.875V32.049z M37.229,35.079l-5.93,2.993v-6.268l1.589,2.36l4.341-2.401
		V35.079z M33.185,32.934l-1.217-1.807l5.574-2.88l1.128,1.652L33.185,32.934z"/>
	<path fill="#0CB20F" d="M33.237,24.854l-1.565,1.564v-1.74c0-2.804-1.211-4.056-3.926-4.056v1.045c2.155,0,2.882,0.76,2.882,3.011
		v1.745l-1.65-1.65l-0.737,0.738l2.907,2.907l2.827-2.827L33.237,24.854z"/>
</g>
<g>
	<path fill="#8F8F8F" d="M17.303,15.587l0.086,2.109l-2.118-1.464c-0.116,0.039-0.228,0.079-0.339,0.119l2.232,1.627l-2.887,1.565
		c0,0,0.225-0.846,0.289-1.628c0.043-0.532,0.042-1.122,0.038-1.445c-0.146,0.055-0.288,0.109-0.425,0.163
		c0.011,0.264,0.018,0.735-0.045,1.251c-0.096,0.783-0.385,1.612-0.385,1.612s-0.53-0.485-0.914-0.971
		c-0.273-0.343-0.513-0.843-0.629-1.106c-0.116,0.046-0.231,0.093-0.346,0.139c0.105,0.267,0.316,0.775,0.51,1.077
		c0.273,0.423,1.042,1.174,1.042,1.174s-0.93,0.489-1.635,0.683c-0.706,0.194-1.86,0.523-1.86,0.523s0.706-1.112,1.026-1.785
		c0.231-0.487,0.504-1.2,0.638-1.56c-0.195,0.08-0.386,0.16-0.575,0.239c-0.142,0.302-0.401,0.835-0.689,1.336
		c-0.433,0.751-1.107,1.816-1.107,1.816s-0.367-0.578-0.367-1.189c0-0.388,0.038-0.769,0.066-0.996
		c-0.265,0.13-0.516,0.255-0.753,0.375c-0.022,0.214-0.033,0.527,0.028,0.887c0.112,0.657,0.417,1.251,0.417,1.251l-3.704,1.065
		c0,0,0.369-0.861,0.625-1.221c0.185-0.259,0.458-0.685,0.598-0.905c-0.095,0.053-0.168,0.094-0.216,0.121
		c-0.616,0.558-1.931,1.901-1.63,2.975c1.184,4.226,10.998,4.226,10.998,4.226s2.181-3.393,2.566-7.159
		c0.293-2.86,0.141-4.466,0.051-5.075C17.691,15.474,17.496,15.53,17.303,15.587z M14.086,20.249c0,0,0.593,0.329,1.299,0.657
		c0.705,0.329,1.603,0.531,1.603,0.531s-1.748,0.737-2.357,1.018c-0.609,0.282-1.988,0.815-1.988,0.815s0.529-1.065,0.786-1.534
		C13.685,21.266,14.086,20.249,14.086,20.249z M11.6,21.031c0.626-0.175,1.829-0.611,1.829-0.611s-0.434,0.846-0.658,1.347
		c-0.225,0.501-1.026,1.644-1.026,1.644s-0.658-0.408-1.09-0.721c-0.433-0.313-1.075-1.048-1.075-1.048S10.975,21.206,11.6,21.031z
		 M5.315,24.158c-0.476-0.61-0.462-1.169-0.462-1.169l3.797-1.098l-2.403,3.116C6.247,25.008,5.689,24.637,5.315,24.158z
		 M9.131,22.095c0,0,0.465,0.532,0.866,0.892c0.401,0.36,1.123,0.72,1.123,0.72l-4.431,1.498L9.131,22.095z M8.329,26.041
		c-0.642-0.267-1.255-0.567-1.255-0.567l4.302-1.296l-1.528,2.335C9.848,26.513,8.97,26.306,8.329,26.041z M12.113,24.099
		c0,0,0.746,0.388,1.427,0.563c0.512,0.132,2.102,0.361,2.102,0.361s-1.886,0.633-2.88,0.914c-0.994,0.282-2.16,0.67-2.16,0.67
		L12.113,24.099z M15.476,26.417c-0.259,0.488-0.44,0.754-0.44,0.754s-0.8-0.026-1.762-0.135c-0.962-0.11-1.936-0.291-1.936-0.291
		s1.127-0.329,1.897-0.548c0.77-0.219,2.698-0.861,2.698-0.861C15.697,25.959,15.714,25.969,15.476,26.417z M16.689,23.145
		c-0.145,0.532-0.535,1.549-0.535,1.549s-1.443-0.141-2.212-0.329s-1.443-0.626-1.443-0.626s1.635-0.673,2.316-0.97
		c0.682-0.297,2.286-1.096,2.286-1.096S16.834,22.612,16.689,23.145z M17.357,19.684c-0.032,0.439-0.176,1.46-0.176,1.46
		s-1.139-0.332-1.62-0.566c-0.481-0.235-1.171-0.673-1.171-0.673s1.299-0.72,1.684-0.923c0.385-0.204,1.283-0.767,1.283-0.767
		S17.389,19.247,17.357,19.684z"/>
	<path fill="#8F8F8F" d="M8.806,6.644c0.052-0.149,0.138-0.345,0.271-0.493c0.242-0.27,0.611-0.496,0.611-0.496l0.956,1.418
		c0.256,0.041,0.541,0.086,0.851,0.135L9.974,5.607c0,0,1.196,0.254,1.877,0.355c0.68,0.102,2.156,0.304,2.156,0.304l-1.721,1.068
		c0.191,0.03,0.387,0.062,0.589,0.094l1.301-0.93l0.669,1.247c0.22,0.038,0.381,0.076,0.603,0.116
		c-0.235-0.389-0.845-1.417-1.103-2.037c-0.323-0.776-0.888-2.092-0.888-2.092S11.658,4.314,10.296,4.9
		C9.173,5.383,8.35,6.13,8.226,6.246C8.27,6.312,8.413,6.475,8.806,6.644z M11.77,4.633c0.784-0.315,1.467-0.489,1.467-0.489
		s0.217,0.463,0.332,0.812c0.115,0.349,0.395,1.026,0.395,1.026l-3.793-0.597C10.171,5.386,10.987,4.948,11.77,4.633z"/>
	<path fill="#EA102A" d="M10.369,15.959c0.926-1.263,1.159-2.608,1.281-3.569c0.347-2.735-3.042-5.236-3.335-5.575
		c-0.293-0.339-0.107-0.6-0.107-0.6s0.214,0.495,1.827,0.76c2.018,0.331,7.955,1.204,10.636,2.002
		c4.376,1.303,6.031,4.455,6.031,4.455s-2.217,0.359-4.927,0.986c-2.674,0.617-5.827,1.495-7.802,2.297
		c-1.236,0.502-2.659,1.036-3.8,1.563c-2.531,1.167-4.339,2.215-4.339,2.215S8.656,18.294,10.369,15.959z M9.328,7.207
		c0,0,0.538,0.495,0.843,0.834c0.304,0.338,1.039,1.302,1.039,1.302s-0.188-0.784-0.361-1.276c-0.121-0.342-0.213-0.495-0.213-0.495
		L9.328,7.207z M11.169,7.701l0.56,1.954l1.975-1.538L11.169,7.701z M14.105,8.292l-1.956,1.674l2.278,0.657
		c0,0,0.055-0.785-0.041-1.307C14.291,8.794,14.105,8.292,14.105,8.292z M14.591,8.257c0,0,0.173,0.65,0.222,1.059
		c0.047,0.409,0.047,1.307,0.047,1.307l2.828-1.682c0,0-1.042-0.286-1.742-0.413C15.246,8.4,14.591,8.257,14.591,8.257z
		 M18.251,9.109l-2.985,1.749c0,0,0.515,0.282,0.92,0.503c0.405,0.221,0.903,0.671,0.903,0.671s0.45-0.851,0.697-1.414
		C18.032,10.055,18.251,9.109,18.251,9.109z M18.629,9.109c0,0-0.187,0.972-0.379,1.548c-0.192,0.576-0.369,1.085-0.369,1.085
		s1.366-0.57,1.949-0.764c1.315-0.437,2.471-0.644,2.471-0.644s-1.064-0.549-1.745-0.764C19.877,9.356,18.629,9.109,18.629,9.109z
		 M22.595,10.624c0,0-1.846,0.542-2.573,0.783c-0.728,0.242-2.197,0.904-2.197,0.904s0.533,0.309,0.897,0.69
		c0.364,0.382,1.018,1.18,1.018,1.18s1.16-1.326,1.703-2.03C21.985,11.447,22.595,10.624,22.595,10.624z M23.051,10.735
		c0,0-0.811,1.174-1.278,1.838c-0.63,0.897-1.366,1.627-1.366,1.627s1.833-0.435,3.191-0.663c1.359-0.227,2.309-0.439,2.309-0.439
		s-0.585-0.802-1.272-1.345C23.949,11.21,23.051,10.735,23.051,10.735z M11.96,10.624c0,0,0.114,0.453,0.14,1.119
		c0.019,0.496-0.089,1.229-0.089,1.229l2.002-1.809c0,0-0.558-0.204-1.026-0.34C12.517,10.687,11.96,10.624,11.96,10.624z
		 M14.221,11.62l-2.071,1.735c0,0,0.338,0.171,0.537,0.366c0.199,0.194,0.448,0.46,0.448,0.46s0.498-0.731,0.707-1.28
		C14.041,12.382,14.221,11.62,14.221,11.62z M14.739,11.455c0,0-0.08,0.529-0.229,0.984c-0.149,0.455-0.498,1.253-0.498,1.253
		l2.371-1.362L14.739,11.455z M16.359,12.904l-2.908,1.708c0,0,0.227,0.442,0.327,0.715c0.1,0.272,0.193,0.601,0.193,0.601
		s0.736-0.745,1.225-1.377C15.684,13.92,16.359,12.904,16.359,12.904z M17.23,12.816c0,0-0.757,1.021-1.225,1.527
		c-0.468,0.506-1.455,1.585-1.455,1.585l4.633-1.486c0,0-0.338-0.489-0.827-0.878C17.867,13.176,17.23,12.816,17.23,12.816z
		 M11.441,14.791c-0.209,0.379-0.587,0.982-0.587,0.982l1.733-1.206c0,0-0.199-0.272-0.378-0.386
		c-0.179-0.114-0.409-0.197-0.409-0.197S11.65,14.412,11.441,14.791z M12.268,15.297l-1.753,1.04l-1.166,1.42
		c0,0,0.899-0.572,1.436-1.049C11.324,16.233,12.268,15.297,12.268,15.297z M12.986,15.034c0,0-0.608,0.769-1.076,1.206
		c-0.469,0.438-1.843,1.518-1.843,1.518s1.833-0.798,2.202-0.983c0.369-0.185,1.255-0.555,1.255-0.555s-0.09-0.381-0.229-0.71
		C13.161,15.194,12.986,15.034,12.986,15.034z"/>
</g>
</svg>
