<?xml version="1.0" encoding="utf-8"?>
<!-- Generator: Adobe Illustrator 17.0.0, SVG Export Plug-In . SVG Version: 6.00 Build 0)  -->
<!DOCTYPE svg PUBLIC "-//W3C//DTD SVG 1.1//EN" "http://www.w3.org/Graphics/SVG/1.1/DTD/svg11.dtd">
<svg version="1.1" id="Layer_1" xmlns="http://www.w3.org/2000/svg" xmlns:xlink="http://www.w3.org/1999/xlink" x="0px" y="0px"
	 width="42px" height="42px" viewBox="0 0 42 42" enable-background="new 0 0 42 42" xml:space="preserve">
<g>
	<path fill="none" d="M37.604,16.97c0-0.108-0.113-0.126-0.206-0.126h-0.179v0.266h0.166C37.501,17.109,37.604,17.099,37.604,16.97z
		"/>
	<path fill="none" d="M37.388,16.536c-0.353,0-0.628,0.274-0.628,0.641s0.275,0.64,0.628,0.64c0.347,0,0.627-0.273,0.627-0.64
		S37.734,16.536,37.388,16.536z M37.604,17.639l-0.241-0.399h-0.145v0.399h-0.155v-0.924h0.36c0.229,0,0.347,0.077,0.347,0.265
		c0,0.169-0.107,0.238-0.25,0.253l0.266,0.406H37.604z"/>
	<path fill="none" d="M27.04,17.216h0.998l-0.916-0.827h1.274l0.799,0.722c0.146-0.079,0.243-0.199,0.278-0.354
		c0.01-0.034,0.01-0.069,0.01-0.105v-2.502c0-0.028,0-0.063-0.01-0.1c-0.064-0.281-0.35-0.443-0.772-0.443H27.04
		c-0.485,0-0.803,0.211-0.803,0.543v2.481c0,0.035,0.01,0.07,0.021,0.112C26.321,17.047,26.607,17.216,27.04,17.216z"/>
	<polygon fill="#FFEBCD" points="38.931,29.601 37.804,27.948 32.229,30.827 33.446,32.634 	"/>
	<polygon fill="#FFEBCD" points="37.489,31.464 33.149,33.866 31.56,31.505 31.56,37.772 37.489,34.78 	"/>
	<polygon fill="#FFEBCD" points="38.423,30.948 38.423,35.354 31.458,38.872 24.491,35.354 24.491,31.263 24.458,31.245 
		24.458,35.376 31.458,38.909 38.456,35.376 38.456,30.93 	"/>
	<polygon fill="#FFEBCD" points="26.075,27.462 31.454,30.177 36.769,27.431 34.073,26.306 34.408,25.504 34.136,25.391 
		31.409,28.118 28.705,25.416 28.315,25.581 28.651,26.386 	"/>
	<polygon fill="#FFEBCD" points="25.425,31.749 25.425,34.78 31.12,37.655 31.12,31.802 29.573,33.911 	"/>
	<polygon fill="#FFEBCD" points="30.675,30.829 25.093,28.011 23.702,29.8 29.294,32.712 	"/>
	<path fill="#3D6480" d="M24.491,35.354l6.967,3.518l6.965-3.518v-4.406l0.033-0.019l1.824-1.009l-1.857-2.811l-3.99-1.666
		l-0.025,0.06l-0.334,0.802l2.695,1.125l-5.314,2.746l-5.379-2.715l2.576-1.076l-0.336-0.805l-0.023-0.056l-3.801,1.586
		l-2.211,3.002l2.178,1.133l0.033,0.017V35.354z M37.804,27.948l1.127,1.652l-5.484,3.033l-1.217-1.807L37.804,27.948z
		 M31.56,31.505l1.59,2.361l4.34-2.402v3.316l-5.93,2.992V31.505z M31.12,37.655l-5.695-2.875v-3.031l4.148,2.162l1.547-2.109
		V37.655z M23.702,29.8l1.391-1.789l5.582,2.818l-1.381,1.883L23.702,29.8z"/>
	<path fill="#0CB20F" d="M34.136,25.391l0.099-0.099l-0.738-0.738l-1.564,1.564v-1.74c0-2.803-1.211-4.055-3.926-4.055v1.045
		c2.156,0,2.883,0.76,2.883,3.01v1.746l-1.65-1.65l-0.738,0.738l0.204,0.204l2.704,2.702L34.136,25.391z"/>
	<path fill="#00557C" d="M26.651,4.687c0.066,0.145,0.077,0.287,0.134,0.44c0.14,0.375,0.261,0.784,0.441,1.132
		c0.091,0.176,0.192,0.361,0.308,0.519c0.07,0.096,0.191,0.139,0.211,0.287c-0.119,0.166-0.125,0.423-0.192,0.633
		c-0.3,0.946-0.187,2.121,0.25,2.82c0.134,0.215,0.448,0.675,0.882,0.499c0.379-0.155,0.294-0.633,0.403-1.057
		c0.024-0.095,0.009-0.165,0.057-0.229c0,0.007,0,0.014,0,0.02c0.115,0.229,0.231,0.461,0.346,0.69
		c0.255,0.411,0.709,0.841,1.093,1.132c0.2,0.151,0.356,0.41,0.614,0.498c0-0.006,0-0.013,0-0.019c-0.007,0-0.013,0-0.02,0
		c-0.049-0.077-0.128-0.11-0.191-0.173c-0.15-0.147-0.317-0.33-0.441-0.499c-0.35-0.474-0.658-0.993-0.939-1.534
		c-0.135-0.258-0.252-0.543-0.364-0.806c-0.044-0.102-0.043-0.255-0.135-0.307C28.983,8.927,28.8,9.082,28.704,9.31
		c-0.153,0.363-0.174,0.807-0.23,1.267c-0.033,0.012-0.018,0.004-0.038,0.019c-0.268-0.064-0.361-0.339-0.461-0.575
		c-0.251-0.597-0.298-1.558-0.076-2.244c0.058-0.178,0.315-0.737,0.211-0.901c-0.05-0.164-0.215-0.259-0.307-0.384
		c-0.114-0.155-0.229-0.359-0.308-0.538c-0.205-0.464-0.302-0.986-0.518-1.457c-0.104-0.225-0.278-0.452-0.423-0.653
		c-0.158-0.221-0.336-0.384-0.46-0.651c-0.044-0.095-0.103-0.247-0.038-0.345c0.021-0.066,0.05-0.094,0.115-0.115
		c0.111-0.087,0.421,0.029,0.537,0.077c0.307,0.127,0.564,0.249,0.825,0.421c0.125,0.084,0.251,0.244,0.402,0.288
		c0.059,0,0.115,0,0.173,0c0.27,0.063,0.572,0.02,0.824,0.096c0.446,0.136,0.846,0.347,1.209,0.575
		c1.106,0.699,2.009,1.692,2.628,2.878c0.1,0.19,0.143,0.374,0.229,0.575c0.177,0.408,0.399,0.829,0.576,1.229
		c0.175,0.397,0.346,0.8,0.595,1.131c0.131,0.175,0.635,0.268,0.862,0.365c0.16,0.067,0.424,0.138,0.576,0.229
		c0.291,0.176,0.571,0.384,0.845,0.576c0.135,0.096,0.554,0.306,0.574,0.479c-0.674-0.019-1.189,0.044-1.63,0.229
		c-0.125,0.054-0.325,0.055-0.346,0.211c0.069,0.072,0.079,0.181,0.135,0.269c0.104,0.171,0.282,0.398,0.441,0.519
		c0.173,0.131,0.352,0.271,0.536,0.384c0.332,0.201,0.699,0.315,1.018,0.518c0.188,0.118,0.373,0.269,0.556,0.402
		c0.091,0.066,0.151,0.169,0.269,0.212c0-0.007,0-0.014,0-0.02c-0.062-0.079-0.077-0.187-0.133-0.27
		c-0.084-0.082-0.167-0.166-0.25-0.249c-0.244-0.322-0.555-0.607-0.883-0.844c-0.263-0.188-0.85-0.442-0.959-0.748
		c-0.007-0.006-0.013-0.013-0.02-0.02c0.187-0.021,0.403-0.088,0.575-0.134c0.288-0.077,0.547-0.058,0.845-0.134
		c0.134-0.039,0.268-0.078,0.402-0.116c0-0.024,0-0.05,0-0.076c-0.15-0.154-0.258-0.359-0.422-0.499
		c-0.43-0.365-0.899-0.73-1.381-1.036c-0.269-0.168-0.599-0.277-0.883-0.422c-0.096-0.048-0.264-0.073-0.326-0.153
		c-0.148-0.189-0.23-0.431-0.345-0.651c-0.241-0.464-0.478-0.971-0.69-1.459c-0.146-0.332-0.241-0.66-0.423-0.958
		c-0.87-1.433-1.808-2.296-3.26-3.146c-0.31-0.181-0.682-0.252-1.075-0.345c-0.211-0.013-0.422-0.026-0.633-0.039
		c-0.129-0.054-0.263-0.211-0.383-0.287c-0.482-0.305-1.716-0.966-2.072-0.096c-0.226,0.548,0.336,1.083,0.536,1.361
		C26.37,4.249,26.551,4.468,26.651,4.687z"/>
	<path fill="#00557C" d="M28.109,4.38c0,0.006,0,0.013,0,0.02c0.007,0,0.013,0,0.019,0c0.067,0.138,0.186,0.227,0.27,0.346
		c0.063,0.134,0.127,0.268,0.191,0.402c0.007-0.007,0.013-0.014,0.02-0.02c0.118-0.084,0.172-0.218,0.172-0.422
		c-0.048-0.05-0.055-0.113-0.096-0.173c-0.055-0.079-0.161-0.125-0.23-0.191C28.313,4.34,28.215,4.357,28.109,4.38z"/>
	<path fill="#E67C25" d="M11.976,12.87c-0.833-0.26-1.393-0.034-1.645,0.528l-1.668,3.729l-1.614-3.729
		c-0.243-0.563-0.813-0.788-1.647-0.528c-0.348,0.106-0.517,0.31-0.517,0.731v4.327h1.098v-4.334l1.699,3.778
		c0.2,0.457,0.475,0.618,1.013,0.618s0.803-0.161,1.002-0.618l1.699-3.778v4.334h1.098v-4.327
		C12.493,13.18,12.324,12.977,11.976,12.87z"/>
	<path fill="#E67C25" d="M17.532,14.39v2.844c-0.02,0-2.08,0.004-2.387,0c-0.601-0.011-0.653-0.314-0.644-0.444v-2.388h-1.096
		c0.023,0.023-0.001,2.412,0,2.463c0.009,0.545,0.699,1.019,1.785,1.028h2.332v0.288c0,0.117,0.084,0.469-0.623,0.544
		c-0.008,0-3.465,0-3.471,0v0.738h3.465c0.55-0.016,1.742-0.224,1.735-1.18c0-0.017,0.007-3.894,0.002-3.894H17.532z"/>
	<path fill="#E67C25" d="M23.646,17.718c0.475-0.218,0.707-0.514,0.707-0.901v-0.801c0-0.317-0.264-0.613-0.78-0.81
		c-0.275-0.105-0.613-0.161-0.94-0.161h-1.329c-0.442,0-0.654-0.135-0.707-0.43c-0.011-0.035-0.011-0.063-0.011-0.099v-0.499
		c0-0.028,0-0.057,0.011-0.091c0.053-0.227,0.169-0.289,0.56-0.325c0.031,0,0.074-0.007,0.105-0.007h3.134v-0.731h-3.081
		c-0.443,0-0.675,0.028-0.887,0.092c-0.654,0.203-0.938,0.528-0.938,1.091v0.64c0,0.493,0.56,0.915,1.498,1.013
		c0.105,0.008,0.212,0.015,0.316,0.015h1.14c0.042,0,0.084,0,0.116,0.007c0.349,0.028,0.496,0.092,0.602,0.218
		c0.063,0.063,0.085,0.127,0.085,0.197v0.641c0,0.078-0.054,0.176-0.159,0.26c-0.095,0.084-0.253,0.141-0.464,0.155
		c-0.041,0-0.074,0.007-0.116,0.007h-3.029v0.731h3.155C23.001,17.929,23.36,17.851,23.646,17.718z"/>
	<path fill="#E67C25" d="M31.198,12.863v3.792c0,0.752,0.56,1.175,1.689,1.26c0.104,0.007,0.21,0.014,0.316,0.014h2.858v-0.731
		h-2.88c-0.645,0-0.887-0.162-0.887-0.549v-3.785H31.198z"/>
	<path fill="#E67C25" d="M26.089,17.856c0.232,0.064,0.444,0.092,0.646,0.092h1.173l0.881-0.056l0.875,0.79h1.274l-1.081-0.976
		c0.455-0.188,0.652-0.476,0.652-1.014v-2.607c0-0.663-0.465-1.064-1.385-1.192c-0.105-0.013-0.201-0.021-0.307-0.021h-2.083
		c-0.095,0-0.201,0.008-0.297,0.021c-0.92,0.128-1.384,0.529-1.384,1.192v2.607C25.054,17.301,25.392,17.667,26.089,17.856z
		 M26.237,14.149c0-0.332,0.317-0.543,0.803-0.543h1.661c0.423,0,0.708,0.162,0.772,0.443c0.01,0.036,0.01,0.071,0.01,0.1v2.502
		c0,0.036,0,0.071-0.01,0.105c-0.035,0.154-0.132,0.274-0.278,0.354l-0.799-0.722h-1.274l0.916,0.827H27.04
		c-0.433,0-0.719-0.169-0.781-0.473c-0.012-0.042-0.021-0.077-0.021-0.112V14.149z"/>
	<path fill="#E67C25" d="M37.388,16.367c-0.428,0-0.809,0.326-0.809,0.81c0,0.482,0.381,0.809,0.809,0.809
		c0.426,0,0.808-0.326,0.808-0.809C38.195,16.693,37.813,16.367,37.388,16.367z M37.388,17.816c-0.353,0-0.628-0.273-0.628-0.64
		s0.275-0.641,0.628-0.641c0.347,0,0.627,0.274,0.627,0.641S37.734,17.816,37.388,17.816z"/>
	<path fill="#E67C25" d="M37.771,16.979c0-0.188-0.117-0.265-0.347-0.265h-0.36v0.924h0.155v-0.399h0.145l0.241,0.399h0.182
		l-0.266-0.406C37.663,17.218,37.771,17.148,37.771,16.979z M37.219,17.109v-0.266h0.179c0.093,0,0.206,0.018,0.206,0.126
		c0,0.129-0.103,0.14-0.219,0.14H37.219z"/>
</g>
</svg>
