<?xml version="1.0" encoding="utf-8"?>
<!-- Generator: Adobe Illustrator 18.0.0, SVG Export Plug-In . SVG Version: 6.00 Build 0)  -->
<!DOCTYPE svg PUBLIC "-//W3C//DTD SVG 1.1//EN" "http://www.w3.org/Graphics/SVG/1.1/DTD/svg11.dtd">
<svg version="1.1" id="Layer_1" xmlns="http://www.w3.org/2000/svg" xmlns:xlink="http://www.w3.org/1999/xlink" x="0px" y="0px"
	 viewBox="0 0 42 42" enable-background="new 0 0 42 42" xml:space="preserve">
<g>
	<g>
		<polygon fill="#FFEBCD" points="39.6,30.1 38.5,28.4 38.5,27.5 33.2,25.3 31.4,27.1 29.6,25.3 24.5,27.5 24.5,28.4 23,30.3 
			24.5,31 24.5,35.7 31.5,39.2 38.5,35.7 38.5,30.7 		"/>
		<path fill="#3D6480" d="M38.4,27.4l-4-1.7l-0.4,0.9l2.7,1.1l-5.3,2.7l-5.4-2.7l2.6-1.1l-0.4-0.9l-3.8,1.6l-2.2,3l2.2,1.2v4.1
			l7,3.5l7-3.5v-4.4l1.9-1L38.4,27.4z M25,27.7L25,27.7L25,27.7L25,27.7L25,27.7z M23.7,30.1l1.4-1.8l5.6,2.8L29.3,33L23.7,30.1z
			 M25.4,32l4.1,2.2l1.5-2.1V38l-5.7-2.9V32z M37.5,35.1l-5.9,3v-6.3l1.6,2.4l4.3-2.4V35.1z M33.4,32.9l-1.2-1.8l5.6-2.9l1.1,1.7
			L33.4,32.9z"/>
		<path fill="#0CB20F" d="M33.5,24.9l-1.6,1.6v-1.7c0-2.8-1.2-4.1-3.9-4.1v1c2.2,0,2.9,0.8,2.9,3v1.7l-1.7-1.7l-0.7,0.7l2.9,2.9
			l2.8-2.8L33.5,24.9z"/>
	</g>
	<g>
		<path fill="#EA102A" d="M10.7,15.1c0,1.1-0.7,2-2.4,2c-1.7,0-2.4-0.9-2.4-2v-2.8c0-1.1,0.7-2,2.4-2c1.7,0,2.4,0.9,2.4,2V15.1z
			 M6.7,15.1c0,0.8,0.5,1.3,1.5,1.3c1,0,1.5-0.5,1.5-1.3v-2.8c0-0.8-0.5-1.3-1.5-1.3c-1,0-1.5,0.5-1.5,1.3V15.1z"/>
		<path fill="#EA102A" d="M14.2,14.6h-1.6V17h-0.9v-6.7h2.5c1.4,0,1.9,0.6,1.9,1.6v1c0,0.8-0.3,1.3-1.1,1.5l1.7,2.5h-1L14.2,14.6z
			 M14.2,11.1h-1.6v2.7h1.6c0.8,0,1.1-0.2,1.1-0.9v-1C15.3,11.4,15,11.1,14.2,11.1z"/>
		<path fill="#EA102A" d="M22.7,17h-0.9l-0.5-1.6h-2.8L17.9,17H17l2.2-6.7h1.2L22.7,17z M19.9,11l-1.2,3.7h2.4L19.9,11z"/>
		<path fill="#EA102A" d="M24,15.1c0,0.9,0.4,1.2,1.4,1.2c0.4,0,1,0,1.6-0.1l0.1,0.7c-0.5,0.1-1.2,0.2-1.7,0.2c-1.6,0-2.3-0.7-2.3-2
			v-2.9c0-1.3,0.6-2,2.3-2c0.5,0,1.2,0.1,1.7,0.2L27,11.2c-0.5-0.1-1.2-0.1-1.6-0.1c-1.1,0-1.4,0.3-1.4,1.2V15.1z"/>
		<path fill="#EA102A" d="M28.8,16.3h2.9V17h-3.7v-6.7h0.9V16.3z"/>
		<path fill="#EA102A" d="M32.4,10.4h3.9v0.8h-3.1v2.1h2.8V14h-2.8v2.3h3.1V17h-3.9V10.4z"/>
	</g>
</g>
</svg>
