<?xml version="1.0" encoding="utf-8"?>
<!-- Generator: Adobe Illustrator 18.0.0, SVG Export Plug-In . SVG Version: 6.00 Build 0)  -->
<!DOCTYPE svg PUBLIC "-//W3C//DTD SVG 1.1//EN" "http://www.w3.org/Graphics/SVG/1.1/DTD/svg11.dtd">
<svg version="1.1" id="Layer_1" xmlns="http://www.w3.org/2000/svg" xmlns:xlink="http://www.w3.org/1999/xlink" x="0px" y="0px"
	 viewBox="0 0 42 42" enable-background="new 0 0 42 42" xml:space="preserve">
<g>
	<g>
		<path fill="none" d="M33,14c0-0.7-0.3-1.2-1.1-1.2s-1.2,0.4-1.2,1.2v0.4H33V14z"/>
		<path fill="none" d="M11.2,11c-1.2,0-1.7,0.5-1.7,1.4v3.1c0,0.9,0.5,1.4,1.7,1.4s1.7-0.5,1.7-1.4v-3.1C12.9,11.5,12.4,11,11.2,11z
			"/>
		<path fill="none" d="M19,16.1c0,0.5,0.1,0.8,0.8,0.8c0.5,0,1-0.2,1.4-0.4v-1h-1.4C19.2,15.4,19,15.6,19,16.1z"/>
		<polygon fill="#FFEBCD" points="37.5,31.8 33.1,34.2 31.6,31.8 31.6,38.1 37.5,35.1 		"/>
		<polygon fill="#FFEBCD" points="26.1,27.8 31.5,30.5 36.8,27.7 34.1,26.6 34.4,25.8 34.1,25.7 31.4,28.4 28.7,25.7 28.3,25.9 
			28.7,26.7 		"/>
		<polygon fill="#FFEBCD" points="25.4,32 25.4,35.1 31.1,38 31.1,32.1 29.6,34.2 		"/>
		<rect x="25" y="27.7" fill="#FFEBCD" width="0" height="0"/>
		<polygon fill="#FFEBCD" points="30.7,31.1 25.1,28.3 23.7,30.1 29.3,33 		"/>
		<polygon fill="#FFEBCD" points="38.4,31.2 38.4,35.7 31.5,39.2 24.5,35.7 24.5,31.6 24.5,31.5 24.5,35.7 31.5,39.2 38.5,35.7 
			38.5,31.2 		"/>
		<polygon fill="#FFEBCD" points="38.9,29.9 37.8,28.2 32.2,31.1 33.4,32.9 		"/>
		<path fill="#3D6480" d="M24.5,35.7l7,3.5l7-3.5v-4.4l0,0l1.8-1l-1.9-2.8l-4-1.7l0,0.1l-0.3,0.8l2.7,1.1l-5.3,2.7l-5.4-2.7l2.6-1.1
			l-0.3-0.8l0-0.1l-3.8,1.6l-2.2,3l2.2,1.1l0,0V35.7z M37.8,28.2l1.1,1.7l-5.5,3l-1.2-1.8L37.8,28.2z M31.6,31.8l1.6,2.4l4.3-2.4
			v3.3l-5.9,3V31.8z M31.1,38l-5.7-2.9v-3l4.1,2.2l1.5-2.1V38z M25,27.7L25,27.7L25,27.7L25,27.7L25,27.7z M23.7,30.1l1.4-1.8
			l5.6,2.8L29.3,33L23.7,30.1z"/>
		<path fill="#0CB20F" d="M34.1,25.7l0.1-0.1l-0.7-0.7l-1.6,1.6v-1.7c0-2.8-1.2-4.1-3.9-4.1v1c2.2,0,2.9,0.8,2.9,3v1.7l-1.7-1.7
			l-0.7,0.7l0.2,0.2l2.7,2.7L34.1,25.7z"/>
		<path fill="#3D6480" d="M11.2,10.1c-1.9,0-2.7,1-2.7,2.2v3.1c0,1.2,0.8,2.2,2.7,2.2c1.9,0,2.7-1,2.7-2.2v-3.1
			C13.9,11.1,13.1,10.1,11.2,10.1z M12.9,15.4c0,0.9-0.6,1.4-1.7,1.4s-1.7-0.5-1.7-1.4v-3.1c0-0.9,0.5-1.4,1.7-1.4s1.7,0.5,1.7,1.4
			V15.4z"/>
		<path fill="#3D6480" d="M16.1,13L16,12.2h-0.8v5.4h0.9v-3.7c0.4-0.3,1-0.7,1.5-0.9l-0.1-0.8C17,12.3,16.5,12.7,16.1,13z"/>
		<path fill="#3D6480" d="M20.1,12.1c-0.6,0-1.3,0.1-1.8,0.2l0.1,0.7c0.4-0.1,1.1-0.2,1.6-0.2c0.9,0,1.2,0.2,1.2,0.9v0.8h-1.4
			c-1.1,0-1.6,0.4-1.6,1.5c0,0.9,0.4,1.5,1.4,1.5c0.6,0,1.3-0.2,1.7-0.5l0.1,0.4h0.8v-3.7C22.1,12.7,21.6,12.1,20.1,12.1z
			 M21.2,16.5c-0.4,0.3-0.9,0.4-1.4,0.4c-0.7,0-0.8-0.2-0.8-0.8c0-0.5,0.2-0.7,0.8-0.7h1.4V16.5z"/>
		<path fill="#3D6480" d="M25.3,17.7c0.5,0,1-0.1,1.3-0.2l-0.1-0.8c-0.4,0.1-0.8,0.1-1.2,0.1c-0.9,0-1.2-0.3-1.2-1.1V14
			c0-0.8,0.3-1.1,1.2-1.1c0.4,0,0.8,0,1.2,0.1l0.1-0.8c-0.3-0.1-0.8-0.2-1.3-0.2c-1.7,0-2.1,0.7-2.1,1.9v1.7
			C23.1,17,23.5,17.7,25.3,17.7z"/>
		<polygon fill="#3D6480" points="28.6,9.9 27.7,10 27.7,17.6 28.6,17.6 		"/>
		<path fill="#3D6480" d="M31.9,17.7c0.7,0,1.4-0.1,1.9-0.3l-0.1-0.7c-0.6,0.2-1.2,0.3-1.7,0.3c-1,0-1.3-0.3-1.3-1.2v-0.5h3.2v-1.1
			c0-1.1-0.4-2-2-2c-1.6,0-2.1,0.9-2.1,2v1.6C29.8,16.9,30.4,17.7,31.9,17.7z M30.7,14c0-0.7,0.3-1.2,1.2-1.2S33,13.3,33,14v0.4
			h-2.3V14z"/>
	</g>
</g>
</svg>
