<?xml version="1.0" encoding="utf-8"?>
<!-- Generator: Adobe Illustrator 18.0.0, SVG Export Plug-In . SVG Version: 6.00 Build 0)  -->
<!DOCTYPE svg PUBLIC "-//W3C//DTD SVG 1.1//EN" "http://www.w3.org/Graphics/SVG/1.1/DTD/svg11.dtd">
<svg version="1.1" id="Layer_1" xmlns="http://www.w3.org/2000/svg" xmlns:xlink="http://www.w3.org/1999/xlink" x="0px" y="0px"
	 viewBox="0 0 42 42" enable-background="new 0 0 42 42" xml:space="preserve">
<g>
	<g>
		<path fill="#EFF9FE" d="M14.9,25.8c-0.7-0.2-1.4-0.4-1.8-0.6v4.9c0,0.6,2.7,1.7,7.5,1.7l6.7-6c-2.3,0.6-5.2,0.6-6.1,0.6
			C18.7,26.4,16.5,26.2,14.9,25.8z"/>
		<path fill="#EFF9FE" d="M27,25c1-0.2,1.6-0.5,2-0.8v-5.1c-2.2,1.1-6.7,1.2-7.9,1.2c-2.4,0-4.6-0.2-6.2-0.6
			c-0.7-0.2-1.4-0.4-1.8-0.6v5.1c1,0.7,4,1.3,8,1.3C23.4,25.5,25.4,25.3,27,25z"/>
		<path fill="#EFF9FE" d="M27,18.9c1-0.2,1.6-0.5,2-0.8v-4.8c-2.2,1.1-6.7,1.2-7.9,1.2c-2.4,0-4.6-0.2-6.2-0.6
			c-0.7-0.2-1.4-0.4-1.8-0.6v4.8c1,0.7,4,1.3,8,1.3C23.4,19.4,25.4,19.2,27,18.9z"/>
		<path fill="#EFF9FE" d="M29,12.3v-0.7c-0.2-0.5-3.1-1.5-8.1-1.5c-5,0-7.7,1-7.9,1.5v0.7c1,0.7,4,1.3,8.1,1.3
			C25.1,13.6,28,13,29,12.3z"/>
		<path fill="#3D6480" d="M13,30.1v-4.9c0.5,0.2,1.1,0.4,1.8,0.6c1.7,0.4,3.9,0.6,6.2,0.6c0.9,0,3.8,0,6.1-0.6l3.4-3.1V11.6
			c0-3-7.5-3.2-9.8-3.2c-2.9,0-9.6,0.3-9.6,3.2v18.6c0,2.4,4.5,3.1,7.4,3.3l1.8-1.6C15.7,31.8,13,30.7,13,30.1z M13,11.6
			c0.1-0.5,2.9-1.5,7.9-1.5c5,0,7.9,1,8.1,1.5v0.7c-1,0.7-3.8,1.3-7.9,1.3c-4,0-7-0.6-8.1-1.3V11.6z M13,13.3
			c0.5,0.2,1.1,0.4,1.8,0.6c1.7,0.4,3.9,0.6,6.2,0.6c1.1,0,5.6-0.1,7.9-1.2v4.8c-0.4,0.3-1,0.5-2,0.8c-1.5,0.4-3.6,0.6-5.9,0.6
			c-4,0-7-0.6-8-1.3V13.3z M13,19.1c0.5,0.2,1.1,0.4,1.8,0.6c1.7,0.4,3.9,0.6,6.2,0.6c1.1,0,5.6-0.1,7.9-1.2v5.1
			c-0.4,0.3-1,0.5-2,0.8c-1.5,0.4-3.6,0.6-5.9,0.6c-4,0-7-0.6-8-1.3V19.1z"/>
	</g>
	<polygon fill="#FFEBCD" points="39.6,30.4 38.4,28.8 38.4,27.9 33.2,25.7 31.4,27.5 29.6,25.7 24.4,27.9 24.4,28.7 22.9,30.6 
		24.4,31.4 24.4,36.1 31.4,39.6 38.4,36.1 38.4,31.1 	"/>
	<path fill="#3D6480" d="M38.4,27.8l-4-1.7L34,27l2.7,1.1l-5.3,2.7L26,28.1l2.6-1.1l-0.4-0.9l-3.8,1.6l-2.2,3l2.2,1.2V36l7,3.5
		l7-3.5v-4.4l1.9-1L38.4,27.8z M24.9,28.1L24.9,28.1L24.9,28.1L24.9,28.1L24.9,28.1z M23.7,30.5l1.4-1.8l5.6,2.8l-1.4,1.9L23.7,30.5
		z M25.4,32.4l4.1,2.2l1.5-2.1v5.9l-5.7-2.9V32.4z M37.4,35.5l-5.9,3v-6.3l1.6,2.4l4.3-2.4V35.5z M33.4,33.3l-1.2-1.8l5.6-2.9
		l1.1,1.7L33.4,33.3z"/>
	<path fill="#0CB20F" d="M33.4,25.2l-1.6,1.6v-1.7c0-2.8-1.2-4.1-3.9-4.1v1c2.2,0,2.9,0.8,2.9,3v1.7l-1.7-1.7l-0.7,0.7l2.9,2.9
		l2.8-2.8L33.4,25.2z"/>
</g>
</svg>
