<?xml version="1.0" encoding="utf-8"?>
<!-- Generator: Adobe Illustrator 17.0.0, SVG Export Plug-In . SVG Version: 6.00 Build 0)  -->
<!DOCTYPE svg PUBLIC "-//W3C//DTD SVG 1.1//EN" "http://www.w3.org/Graphics/SVG/1.1/DTD/svg11.dtd">
<svg version="1.1" id="Layer_1" xmlns="http://www.w3.org/2000/svg" xmlns:xlink="http://www.w3.org/1999/xlink" x="0px" y="0px"
	 width="42px" height="42px" viewBox="0 0 42 42" enable-background="new 0 0 42 42" xml:space="preserve">
<g>
	<path fill="none" d="M25.243,12.556v-0.952c0-1.151-0.377-1.764-1.429-1.764h-0.891v4.431h0.924
		C24.866,14.27,25.243,13.706,25.243,12.556z"/>
	<polygon fill="#FFEBCD" points="26.075,28.061 31.454,30.776 36.769,28.03 34.073,26.905 34.408,26.103 34.136,25.991 
		31.409,28.718 28.705,26.015 28.315,26.18 28.651,26.985 	"/>
	<polygon fill="#FFEBCD" points="37.489,32.063 33.149,34.466 31.56,32.104 31.56,38.372 37.489,35.38 	"/>
	<polygon fill="#FFEBCD" points="38.931,30.2 37.804,28.548 32.229,31.427 33.446,33.233 	"/>
	<polygon fill="#FFEBCD" points="30.675,31.429 25.093,28.61 23.702,30.399 29.294,33.311 	"/>
	<polygon fill="#FFEBCD" points="38.423,31.548 38.423,35.954 31.458,39.472 24.491,35.954 24.491,31.862 24.458,31.845 
		24.458,35.976 31.458,39.509 38.456,35.976 38.456,31.529 	"/>
	<polygon fill="#FFEBCD" points="25.425,32.349 25.425,35.38 31.12,38.255 31.12,32.401 29.573,34.511 	"/>
	<path fill="#3D6480" d="M24.491,35.954l6.967,3.518l6.965-3.518v-4.406l0.033-0.019l1.824-1.009l-1.857-2.811l-3.99-1.666
		l-0.025,0.06l-0.334,0.802l2.695,1.125l-5.314,2.746l-5.379-2.715l2.576-1.076l-0.336-0.805l-0.023-0.056l-3.801,1.586
		l-2.211,3.002l2.178,1.133l0.033,0.017V35.954z M37.804,28.548l1.127,1.652l-5.484,3.033l-1.217-1.807L37.804,28.548z
		 M31.56,32.104l1.59,2.361l4.34-2.402v3.316l-5.93,2.992V32.104z M31.12,38.255l-5.695-2.875v-3.031l4.148,2.162l1.547-2.109
		V38.255z M23.702,30.399l1.391-1.789l5.582,2.818l-1.381,1.883L23.702,30.399z"/>
	<path fill="#0CB20F" d="M34.136,25.991l0.1-0.099l-0.738-0.738l-1.564,1.564v-1.74c0-2.803-1.211-4.055-3.926-4.055v1.045
		c2.156,0,2.883,0.76,2.883,3.01v1.746l-1.65-1.65l-0.738,0.738l0.204,0.204l2.704,2.702L34.136,25.991z"/>
	<path fill="#EB881D" d="M9.095,7.352H2.829L2.607,8.069h2.877v7.183c0,0.379,0.228,0.572,0.663,0.572h0.381V8.069h2.346
		L9.095,7.352z"/>
	<path fill="#EB881D" d="M18.871,9.136c-0.257,0-0.464,0.082-0.514,0.209l-2.004,5.337l-1.492-2.269
		c0.781-0.136,1.241-0.557,1.241-1.26v-0.499c0-1.024-0.947-1.444-2.21-1.444h-1.764v5.061H9.854c-0.899,0-1.101-0.201-1.101-1.126
		v-1.001h1.688l0.186-0.629H8.753V9.84h2.479l0.195-0.63H7.719v3.935c0,1.318,0.312,1.747,2.11,1.747l3.334-0.017V9.84h0.729
		c0.8,0,1.202,0.277,1.202,0.823v0.49c0,0.553-0.504,0.729-1.117,0.729h-0.461l1.563,2.674c0.176,0.311,0.261,0.336,0.674,0.336
		h0.907c0.419,0,0.603-0.034,0.729-0.378l0.466-1.305h1.259l-0.186-0.622h-0.87l0.777-2.191l1.403,4.118
		c0.116,0.344,0.318,0.378,0.772,0.378h0.49l-2.12-5.547C19.332,9.218,19.105,9.136,18.871,9.136z"/>
	<path fill="#EB881D" d="M23.814,14.892l0.214-0.004c1.534-0.056,2.247-0.73,2.247-2.332v-0.959c0-1.597-0.813-2.387-2.461-2.387
		h-1.923v5.11c0,0.377,0.209,0.571,0.645,0.571H23.814z M22.924,9.84h0.891c1.052,0,1.429,0.612,1.429,1.764v0.952
		c0,1.15-0.377,1.715-1.396,1.715h-0.924V9.84z"/>
	<path fill="#EB881D" d="M26.656,14.892c0.419,0,0.605-0.034,0.731-0.378l0.467-1.305h1.257l-0.186-0.622h-0.87l0.775-2.191
		l1.404,4.118c0.116,0.344,0.319,0.378,0.771,0.378h0.49l-2.119-5.547c-0.049-0.127-0.278-0.209-0.512-0.209
		c-0.253,0-0.462,0.082-0.514,0.209l-2.085,5.547H26.656z"/>
	<path fill="#EB881D" d="M34.549,14.892c0.422,0,0.607-0.034,0.732-0.378l0.468-1.305h1.258l-0.187-0.622h-0.87l0.78-2.191
		l1.4,4.118c0.118,0.344,0.319,0.378,0.772,0.378h0.487l-2.116-5.547c-0.05-0.127-0.277-0.209-0.515-0.209
		c-0.253,0-0.462,0.082-0.511,0.209l-2.086,5.547H34.549z"/>
	<path fill="#EB881D" d="M32.358,14.327c0,0.38,0.229,0.574,0.663,0.574H33.4V9.845h1.748l0.187-0.631h-4.718l-0.192,0.631h1.934
		V14.327z"/>
</g>
</svg>
