<?xml version="1.0" encoding="utf-8"?>
<!-- Generator: Adobe Illustrator 18.0.0, SVG Export Plug-In . SVG Version: 6.00 Build 0)  -->
<!DOCTYPE svg PUBLIC "-//W3C//DTD SVG 1.1//EN" "http://www.w3.org/Graphics/SVG/1.1/DTD/svg11.dtd">
<svg version="1.1" id="Layer_1" xmlns="http://www.w3.org/2000/svg" xmlns:xlink="http://www.w3.org/1999/xlink" x="0px" y="0px"
	 viewBox="0 0 42 42" enable-background="new 0 0 42 42" xml:space="preserve">
<g>
	
		<rect x="8.4" y="10.7" transform="matrix(0.7071 0.7071 -0.7071 0.7071 12.2327 -3.6829)" fill="#939FB2" width="4.4" height="4.4"/>
	
		<rect x="3.6" y="15.5" transform="matrix(0.7071 -0.7071 0.7071 0.7071 -10.8485 9.2644)" fill="#3E6480" width="4.4" height="4.4"/>
	
		<rect x="13.3" y="15.6" transform="matrix(-0.7071 -0.7071 0.7071 -0.7071 13.7674 41.3061)" fill="#939FB2" width="4.4" height="4.4"/>
	<rect x="13.3" y="2.8" transform="matrix(0.707 0.7072 -0.7072 0.707 8.0548 -9.4554)" fill="#CCD0D9" width="4.4" height="4.4"/>
	
		<rect x="8.5" y="20.4" transform="matrix(0.7071 -0.7071 0.7071 0.7071 -12.8682 14.1403)" fill="#3E6480" width="4.4" height="4.4"/>
	
		<rect x="18.1" y="10.7" transform="matrix(-0.7071 0.7071 -0.7071 -0.7071 43.8195 7.698)" fill="#939FB2" width="4.4" height="4.4"/>
	
		<rect x="18.1" y="20.4" transform="matrix(0.707 -0.7072 0.7072 0.707 -10.0545 20.9386)" fill="#3E6480" width="4.4" height="4.4"/>
	
		<rect x="13.3" y="25.2" transform="matrix(-0.7071 -0.7071 0.7071 -0.7071 6.9753 57.7037)" fill="#3E6480" width="4.4" height="4.4"/>
	
		<rect x="22.9" y="15.5" transform="matrix(-0.7071 0.7071 -0.7071 -0.7071 55.4146 12.5015)" fill="#3E6480" width="4.4" height="4.4"/>
	<polygon fill="#FFE8CB" points="30.7,31.2 25.1,28.3 23.7,30.1 29.3,33 	"/>
	<polygon fill="#FFE8CB" points="26.1,27.8 31.5,30.5 36.8,27.8 34.1,26.6 34.4,25.8 34.1,25.7 31.4,28.5 28.7,25.8 28.3,25.9 
		28.7,26.7 	"/>
	<polygon fill="#FFE8CB" points="38.4,31.3 38.4,35.7 31.5,39.2 24.5,35.7 24.5,31.6 24.5,31.6 24.5,35.7 31.5,39.2 38.5,35.7 
		38.5,31.3 	"/>
	<polygon fill="#FFE8CB" points="25.4,32.1 25.4,35.1 31.1,38 31.1,32.1 29.6,34.2 	"/>
	<polygon fill="#FFE8CB" points="37.5,31.8 33.1,34.2 31.6,31.8 31.6,38.1 37.5,35.1 	"/>
	<polygon fill="#FFE8CB" points="38.9,29.9 37.8,28.3 32.2,31.2 33.4,33 	"/>
	<path fill="#3E6480" d="M24.5,35.7l7,3.5l7-3.5v-4.4l0,0l1.8-1l-1.9-2.8l-4-1.7l0,0.1l-0.3,0.8l2.7,1.1l-5.3,2.7l-5.4-2.7l2.6-1.1
		l-0.3-0.8l0-0.1l-3.8,1.6l-2.2,3l2.2,1.1l0,0V35.7z M37.8,28.3l1.1,1.7l-5.5,3l-1.2-1.8L37.8,28.3z M31.6,31.8l1.6,2.4l4.3-2.4v3.3
		l-5.9,3V31.8z M31.1,38l-5.7-2.9v-3l4.1,2.2l1.5-2.1V38z M23.7,30.1l1.4-1.8l5.6,2.8L29.3,33L23.7,30.1z"/>
	<path fill="#1CB24B" d="M34.1,25.7L34.1,25.7l-0.6-0.8l-1.6,1.6v-1.7c0-2.8-1.2-4.1-3.9-4.1v1c2.2,0,2.9,0.8,2.9,3v1.7l-1.7-1.7
		l-0.7,0.7l0.2,0.2l2.7,2.7L34.1,25.7z"/>
</g>
</svg>
