<?xml version="1.0" encoding="utf-8"?>
<!-- Generator: Adobe Illustrator 18.0.0, SVG Export Plug-In . SVG Version: 6.00 Build 0)  -->
<!DOCTYPE svg PUBLIC "-//W3C//DTD SVG 1.1//EN" "http://www.w3.org/Graphics/SVG/1.1/DTD/svg11.dtd">
<svg version="1.1" id="Layer_1" xmlns="http://www.w3.org/2000/svg" xmlns:xlink="http://www.w3.org/1999/xlink" x="0px" y="0px"
	 viewBox="0 0 16 16" enable-background="new 0 0 16 16" xml:space="preserve">
<circle fill="#FFFFFF" cx="8" cy="8" r="8"/>
<g>
	<path opacity="0.6" fill="#0C5DA5" d="M7.3,12.5c0-0.4,0.3-0.7,0.7-0.7l0,0c0.4,0,0.7,0.3,0.7,0.7v2.3c0,0.4-0.3,0.7-0.7,0.7l0,0
		c-0.4,0-0.7-0.3-0.7-0.7V12.5z"/>
	<path fill="#0C5DA5" d="M7.3,1.2c0-0.4,0.3-0.7,0.7-0.7l0,0c0.4,0,0.7,0.3,0.7,0.7v2.3c0,0.4-0.3,0.7-0.7,0.7l0,0
		c-0.4,0-0.7-0.3-0.7-0.7V1.2z"/>
	<path opacity="0.3" fill="#0C5DA5" d="M12.5,8.7c-0.4,0-0.7-0.3-0.7-0.7l0,0c0-0.4,0.3-0.7,0.7-0.7h2.3c0.4,0,0.7,0.3,0.7,0.7l0,0
		c0,0.4-0.3,0.7-0.7,0.7H12.5z"/>
	<path opacity="0.8" fill="#0C5DA5" d="M1.2,8.7C0.8,8.7,0.5,8.4,0.5,8l0,0c0-0.4,0.3-0.7,0.7-0.7h2.3c0.4,0,0.7,0.3,0.7,0.7l0,0
		c0,0.4-0.3,0.7-0.7,0.7H1.2z"/>
	<path opacity="0.2" fill="#0C5DA5" d="M12.3,6.4c-0.4,0.2-0.8,0.1-1-0.3l0,0c-0.2-0.4-0.1-0.8,0.3-1l2-1.1c0.4-0.2,0.8-0.1,1,0.3
		l0,0c0.2,0.4,0.1,0.8-0.3,1L12.3,6.4z"/>
	<path opacity="0.7" fill="#0C5DA5" d="M2.5,12c-0.4,0.2-0.8,0.1-1-0.3l0,0c-0.2-0.4-0.1-0.8,0.3-1l2-1.1c0.4-0.2,0.8-0.1,1,0.3l0,0
		c0.2,0.4,0.1,0.8-0.3,1L2.5,12z"/>
	<path opacity="0.95" fill="#0C5DA5" d="M6.4,3.7c0.2,0.4,0.1,0.8-0.3,1l0,0C5.8,5,5.3,4.8,5.1,4.5L4,2.5c-0.2-0.4-0.1-0.8,0.3-1
		l0,0c0.4-0.2,0.8-0.1,1,0.3L6.4,3.7z"/>
	<path opacity="0.5" fill="#0C5DA5" d="M12,13.5c0.2,0.4,0.1,0.8-0.3,1l0,0c-0.4,0.2-0.8,0.1-1-0.3l-1.1-2c-0.2-0.4-0.1-0.8,0.3-1
		l0,0c0.4-0.2,0.8-0.1,1,0.3L12,13.5z"/>
	<path opacity="0.15" fill="#0C5DA5" d="M10.9,4.5c-0.2,0.4-0.7,0.5-1,0.3l0,0c-0.4-0.2-0.5-0.7-0.3-1l1.1-2c0.2-0.4,0.7-0.5,1-0.3
		l0,0c0.4,0.2,0.5,0.7,0.3,1L10.9,4.5z"/>
	<path opacity="0.65" fill="#0C5DA5" d="M5.3,14.2c-0.2,0.4-0.7,0.5-1,0.3l0,0c-0.4-0.2-0.5-0.7-0.3-1l1.1-2c0.2-0.4,0.7-0.5,1-0.3
		l0,0c0.4,0.2,0.5,0.7,0.3,1L5.3,14.2z"/>
	<path opacity="0.9" fill="#0C5DA5" d="M4.5,5.1c0.4,0.2,0.5,0.7,0.3,1l0,0c-0.2,0.4-0.7,0.5-1,0.3l-2-1.1c-0.4-0.2-0.5-0.7-0.3-1
		l0,0c0.2-0.4,0.7-0.5,1-0.3L4.5,5.1z"/>
	<path opacity="0.4" fill="#0C5DA5" d="M14.2,10.7c0.4,0.2,0.5,0.7,0.3,1l0,0c-0.2,0.4-0.7,0.5-1,0.3l-2-1.1c-0.4-0.2-0.5-0.7-0.3-1
		l0,0c0.2-0.4,0.7-0.5,1-0.3L14.2,10.7z"/>
</g>
</svg>
