<?xml version="1.0" encoding="utf-8"?>
<!-- Generator: Adobe Illustrator 18.0.0, SVG Export Plug-In . SVG Version: 6.00 Build 0)  -->
<!DOCTYPE svg PUBLIC "-//W3C//DTD SVG 1.1//EN" "http://www.w3.org/Graphics/SVG/1.1/DTD/svg11.dtd">
<svg version="1.1" xmlns="http://www.w3.org/2000/svg" xmlns:xlink="http://www.w3.org/1999/xlink" x="0px" y="0px"
	 viewBox="0 0 16 16" enable-background="new 0 0 16 16" xml:space="preserve">
<g id="Layer_2">
	<g id="Layer_2_1_">
		<rect fill="none" width="16" height="16"/>
	</g>
</g>
<g id="art">
	<g>
		<path fill="#FFFFFF" d="M11.9,3.3h-1.5V2.4H5.6v0.9H4.1V2.4H2.3v12.1h11.4V2.4h-1.8V3.3z M5.6,11H4.1V9.4h1.5V11z M5.6,7.9H4.1
			V6.4h1.5V7.9z M8.8,11H7.2V9.4h1.5V11z M8.8,7.9H7.2V6.4h1.5V7.9z M11.9,11h-1.5V9.4h1.5V11z M11.9,7.9h-1.5V6.4h1.5V7.9z"/>
		<rect x="10.4" y="6.4" fill="#3D6480" width="1.5" height="1.6"/>
		<path fill="#3D6480" d="M11.9,0.9V0h-1.5v0.9H5.6V0H4.1v0.9H0.8V16h12.9h1.5v-1.5V0.9H11.9z M13.7,14.5H2.3V2.4h1.8v0.9h1.5V2.4
			h4.8v0.9h1.5V2.4h1.8V14.5z"/>
		<rect x="4.1" y="6.4" fill="#3D6480" width="1.5" height="1.6"/>
		<rect x="7.2" y="6.4" fill="#3D6480" width="1.5" height="1.6"/>
		<rect x="10.4" y="9.4" fill="#3D6480" width="1.5" height="1.6"/>
		<rect x="4.1" y="9.4" fill="#3D6480" width="1.5" height="1.6"/>
		<rect x="7.2" y="9.4" fill="#3D6480" width="1.5" height="1.6"/>
	</g>
</g>
</svg>
