<?xml version="1.0" encoding="utf-8"?>
<!-- Generator: Adobe Illustrator 17.0.0, SVG Export Plug-In . SVG Version: 6.00 Build 0)  -->
<!DOCTYPE svg PUBLIC "-//W3C//DTD SVG 1.1//EN" "http://www.w3.org/Graphics/SVG/1.1/DTD/svg11.dtd">
<svg version="1.1" id="Layer_1" xmlns="http://www.w3.org/2000/svg" xmlns:xlink="http://www.w3.org/1999/xlink" x="0px" y="0px"
	 width="42px" height="42px" viewBox="0 0 42 42" enable-background="new 0 0 42 42" xml:space="preserve">
<g>
	<polygon fill="#0CB20F" points="37.782,29.456 30.859,36.379 28.528,34.047 27.184,35.391 30.859,39.065 39.126,30.8 	"/>
	<path fill="#EFF9FE" d="M23.879,18.194c0-1.521-1.191-2.757-2.656-2.757s-2.656,1.237-2.656,2.757v1.83h5.312V18.194z"/>
	<path fill="#EFF9FE" d="M30.012,13.043h-4.258V8.785H12.375v24.41l10.917-0.001l6.758-6.758L30.012,13.043z M25.724,27.342h-9.001
		v-7.318h1.045v-1.83c0-1.961,1.55-3.557,3.456-3.557s3.456,1.596,3.456,3.557v1.83h1.045V27.342z"/>
	<path fill="#EFF9FE" d="M17.523,26.543h7.401v-5.719h-7.401V26.543z M20.823,23h0.8v1.339h-0.8V23z"/>
	<polygon fill="#3D6480" points="12.375,8.785 25.753,8.785 25.753,13.043 30.012,13.043 30.05,26.436 31.745,24.741 31.712,13.053 
		30.002,11.342 27.453,11.342 27.453,8.794 25.744,7.085 10.675,7.085 10.675,34.895 21.592,34.895 23.292,33.194 12.375,33.195 	
		"/>
	<rect x="20.823" y="23" fill="#3D6480" width="0.8" height="1.339"/>
	<path fill="#3D6480" d="M24.679,18.194c0-1.961-1.55-3.557-3.456-3.557s-3.456,1.596-3.456,3.557v1.83h-1.045v7.318h9.001v-7.318
		h-1.045V18.194z M18.568,18.194c0-1.521,1.191-2.757,2.656-2.757s2.656,1.237,2.656,2.757v1.83h-5.312V18.194z M24.924,20.824
		v5.719h-7.401v-5.719H24.924z"/>
</g>
</svg>
