<?xml version="1.0" encoding="utf-8"?>
<!-- Generator: Adobe Illustrator 18.0.0, SVG Export Plug-In . SVG Version: 6.00 Build 0)  -->
<!DOCTYPE svg PUBLIC "-//W3C//DTD SVG 1.1//EN" "http://www.w3.org/Graphics/SVG/1.1/DTD/svg11.dtd">
<svg version="1.1" id="Layer_1" xmlns="http://www.w3.org/2000/svg" xmlns:xlink="http://www.w3.org/1999/xlink" x="0px" y="0px"
	 viewBox="0 0 16 16" enable-background="new 0 0 16 16" xml:space="preserve">
<g>
	<path fill="#3D6480" d="M15,1.1v10.8l-0.1,0.1c0,0-1.2,0.7-3.1,0.7c-1.1,0-2.2-0.2-3.3-0.7c-0.9-0.4-1.9-0.6-2.9-0.6
		c-1.1,0-1.9,0.2-2.6,0.4V16H1V0h2v1c0.5-0.2,1.3-0.4,2.3-0.4c1.1,0,2.2,0.3,3.3,0.7c1,0.5,2.1,0.7,3.1,0.7c1.7,0,2.8-0.7,2.8-0.7
		L15,1.1z"/>
	<path fill="#FFFFFF" d="M10.4,2.9C9.8,2.8,9.2,2.6,8.5,2.3C7.9,2,7.3,1.9,6.7,1.7l0,0v2.9c-2-0.4-3.6,0.2-3.6,0.2l0,3l0,0
		c0,0,1.4-0.7,3.6-0.3v2.9c0.6,0.1,1.2,0.3,1.8,0.6c0.6,0.3,1.2,0.5,1.8,0.6v0V8.7C12.5,9.1,14,8.4,14,8.4l0,0v-3l0,0
		c0,0-1.4,0.7-3.6,0.3V2.9L10.4,2.9L10.4,2.9z"/>
	<path fill="#3D6480" d="M6.7,4.6v2.9c0.6,0.1,1.2,0.3,1.8,0.6c0.6,0.3,1.3,0.5,1.8,0.6V5.8C9.8,5.7,9.2,5.5,8.5,5.2
		C7.9,4.9,7.3,4.7,6.7,4.6L6.7,4.6L6.7,4.6z"/>
</g>
</svg>
