<?xml version="1.0" encoding="utf-8"?>
<!-- Generator: Adobe Illustrator 18.0.0, SVG Export Plug-In . SVG Version: 6.00 Build 0)  -->
<!DOCTYPE svg PUBLIC "-//W3C//DTD SVG 1.1//EN" "http://www.w3.org/Graphics/SVG/1.1/DTD/svg11.dtd">
<svg version="1.1" xmlns="http://www.w3.org/2000/svg" xmlns:xlink="http://www.w3.org/1999/xlink" x="0px" y="0px"
	 viewBox="0 0 16 16" enable-background="new 0 0 16 16" xml:space="preserve">
<g id="Layer_2">
	<g id="Layer_2_1_">
		<rect fill="none" width="16" height="16"/>
	</g>
</g>
<g id="art">
	<g>
		<polygon fill="#3D6480" points="11,7 11,5.3 13,5.3 9,1.2 10.2,0 14.2,4 14.2,2.1 16,2.1 16,7 		"/>
		<polygon fill="#3D6480" points="9,11 10.7,11 10.7,13 14.8,9 16,10.2 12,14.2 13.9,14.2 13.9,16 9,16 		"/>
		<polygon fill="#3D6480" points="5,9 5,10.7 3,10.7 7,14.8 5.8,16 1.8,12 1.8,13.9 0,13.9 0,9 		"/>
		<polygon fill="#3D6480" points="7,5 5.3,5 5.3,3 1.2,7 0,5.8 4,1.8 2.1,1.8 2.1,0 7,0 		"/>
	</g>
</g>
</svg>
