<?xml version="1.0" encoding="utf-8"?>
<!-- Generator: Adobe Illustrator 18.0.0, SVG Export Plug-In . SVG Version: 6.00 Build 0)  -->
<!DOCTYPE svg PUBLIC "-//W3C//DTD SVG 1.1//EN" "http://www.w3.org/Graphics/SVG/1.1/DTD/svg11.dtd">
<svg version="1.1" id="Layer_1" xmlns="http://www.w3.org/2000/svg" xmlns:xlink="http://www.w3.org/1999/xlink" x="0px" y="0px"
	 viewBox="0 0 16 16" enable-background="new 0 0 16 16" xml:space="preserve">
<g>
	<polygon fill="#FFFFFF" points="2.6,2.1 2.6,13.8 5,15.3 10.4,15.3 13.4,13.8 13.1,1.9 10.2,0.7 5,0.7 	"/>
	<path fill="none" stroke="#3D6380" stroke-width="0.55" stroke-miterlimit="10" d="M4.3,3.6C3.8,3.5,3.4,3.4,3.1,3.3l0,3
		c0.6,0.4,2.4,0.8,4.9,0.8c1.4,0,2.7-0.1,3.6-0.3c0.5-0.1,1-0.3,1.2-0.5v-3C11.5,4,8.8,4,8.1,4C6.6,4,5.3,3.9,4.3,3.6z"/>
	<path fill="none" stroke="#3D6380" stroke-width="0.55" stroke-miterlimit="10" d="M8.1,3.5c2.5,0,4.2-0.4,4.8-0.8V2.2
		C12.8,1.9,11,1.3,7.9,1.3c-3,0-4.7,0.6-4.8,0.9v0.5C3.8,3.1,5.5,3.5,8.1,3.5z"/>
	<path fill="none" stroke="#3D6380" stroke-width="0.55" stroke-miterlimit="10" d="M11.7,10.5c0.5-0.1,1-0.3,1.2-0.5V6.8
		c-1.4,0.7-4.1,0.7-4.8,0.7c-1.4,0-2.8-0.1-3.8-0.4C3.8,7.1,3.4,6.9,3.1,6.8V10c0.6,0.4,2.4,0.8,4.9,0.8
		C9.4,10.8,10.7,10.7,11.7,10.5z"/>
	<path fill="none" stroke="#3D6380" stroke-width="0.55" stroke-miterlimit="10" d="M8.1,11.3c-1.4,0-2.8-0.1-3.8-0.4
		c-0.5-0.1-0.8-0.2-1.1-0.4l0,3c0,0.4,1.7,1.1,4.9,1.1h0c1.4,0,2.6-0.1,3.5-0.4c1-0.3,1.3-0.6,1.3-0.7v-3
		C11.5,11.3,8.7,11.3,8.1,11.3z"/>
	<path fill="#3D6480" stroke="#3D6380" stroke-width="0.55" stroke-miterlimit="10" d="M7.9,0.3c-1.8,0-5.9,0.2-5.9,1.9v11.4
		c0,2,5,2.1,6,2.1h0c1.4,0,2.8-0.1,3.8-0.4c1.4-0.4,2.1-0.9,2.1-1.7V2.2C13.9,0.4,9.3,0.3,7.9,0.3z M12.9,6.3
		c-0.2,0.2-0.7,0.3-1.2,0.5c-0.9,0.2-2.2,0.3-3.6,0.3c-2.5,0-4.3-0.4-4.9-0.8l0-3c0.3,0.1,0.7,0.3,1.1,0.4C5.3,3.9,6.6,4,8.1,4
		c0.7,0,3.5,0,4.8-0.7V6.3z M3.1,6.8c0.3,0.1,0.7,0.3,1.1,0.4c1,0.2,2.4,0.4,3.8,0.4c0.7,0,3.5,0,4.8-0.7V10
		c-0.2,0.2-0.7,0.3-1.2,0.5c-0.9,0.2-2.2,0.3-3.6,0.3c-2.5,0-4.3-0.4-4.9-0.8V6.8z M7.9,1.3c3.1,0,4.8,0.6,4.9,0.9v0.5
		c-0.6,0.4-2.4,0.8-4.8,0.8c-2.5,0-4.3-0.4-4.9-0.8V2.2C3.2,1.9,4.9,1.3,7.9,1.3z M11.6,14.3c-0.9,0.2-2.2,0.4-3.5,0.4h0
		c-3.2,0-4.9-0.7-4.9-1.1l0-3c0.3,0.1,0.7,0.3,1.1,0.4c1,0.2,2.4,0.4,3.8,0.4c0.7,0,3.5,0,4.8-0.7v3C12.9,13.7,12.6,14,11.6,14.3z"
		/>
</g>
</svg>
