<?xml version="1.0" encoding="utf-8"?>
<!-- Generator: Adobe Illustrator 18.0.0, SVG Export Plug-In . SVG Version: 6.00 Build 0)  -->
<!DOCTYPE svg PUBLIC "-//W3C//DTD SVG 1.1//EN" "http://www.w3.org/Graphics/SVG/1.1/DTD/svg11.dtd">
<svg version="1.1" id="Layer_1" xmlns="http://www.w3.org/2000/svg" xmlns:xlink="http://www.w3.org/1999/xlink" x="0px" y="0px"
	 viewBox="0 0 24 24" enable-background="new 0 0 24 24" xml:space="preserve">
<g>
	<path fill="#3E6481" d="M11.9,4C9.7,4,5.8,4.3,5.8,6.2v11.4c0,2.2,4.8,2.4,6.3,2.4s2.9-0.1,3.9-0.4c1.5-0.4,2.3-1.1,2.3-1.9V6.2
		C18.2,4.2,13.8,4,11.9,4z M16.6,17.5c-0.1,0.1-0.3,0.3-1.1,0.5c-0.9,0.3-2.1,0.4-3.5,0.4c-3.1,0-4.5-0.7-4.7-0.8v-2.7
		c0.3,0.1,0.5,0.1,0.8,0.2c1.1,0.3,2.4,0.4,3.9,0.4c0.7,0,3.1-0.1,4.5-0.6V17.5z M16.7,13.9c-0.3,0.1-0.6,0.3-1,0.3
		c-0.9,0.2-2.2,0.3-3.5,0.3c-2.3,0-4-0.3-4.7-0.7v-2.6c0.2,0.1,0.5,0.1,0.8,0.2c1,0.3,2.4,0.4,3.9,0.4c0.7,0,3.1-0.1,4.5-0.6V13.9z
		 M16.7,10.1c-0.2,0.1-0.6,0.3-1,0.3c-0.9,0.2-2.2,0.3-3.5,0.3c-2.3,0-4-0.3-4.7-0.7V7.7C7.7,7.7,8,7.8,8.3,7.9
		c1.1,0.3,2.4,0.4,3.9,0.4c0.7,0,3.1-0.1,4.5-0.6V10.1z M16.7,6.5c-0.7,0.3-2.3,0.7-4.5,0.7c-2.3,0-4-0.3-4.7-0.7V6.3
		C7.7,6.1,9.1,5.6,12,5.6c2.8,0,4.4,0.5,4.7,0.7V6.5z"/>
	<path fill="#FFFFFF" d="M8.2,15.2c-0.3-0.1-0.5-0.1-0.8-0.2v2.7c0.1,0.1,1.5,0.8,4.7,0.8c1.3,0,2.6-0.1,3.5-0.4
		c0.8-0.2,1-0.4,1.1-0.5v-2.5c-1.5,0.5-3.8,0.6-4.5,0.6C10.6,15.6,9.2,15.5,8.2,15.2z"/>
	<path fill="#FFFFFF" d="M8.2,11.5c-0.3-0.1-0.5-0.1-0.8-0.2v2.6c0.7,0.3,2.3,0.7,4.7,0.7c1.4,0,2.6-0.1,3.5-0.3
		c0.4-0.1,0.7-0.2,1-0.3v-2.6c-1.5,0.5-3.8,0.6-4.5,0.6C10.6,11.8,9.3,11.7,8.2,11.5z"/>
	<path fill="#FFFFFF" d="M8.2,7.9C7.9,7.8,7.7,7.7,7.4,7.7v2.4c0.7,0.3,2.3,0.7,4.7,0.7c1.4,0,2.7-0.1,3.5-0.3
		c0.4-0.1,0.7-0.2,1-0.3V7.7c-1.5,0.5-3.8,0.6-4.5,0.6C10.6,8.3,9.3,8.1,8.2,7.9z"/>
	<path fill="#FFFFFF" d="M7.4,6.3v0.2c0.7,0.3,2.3,0.7,4.7,0.7c2.3,0,3.9-0.3,4.5-0.7V6.3c-0.3-0.2-1.9-0.7-4.7-0.7
		C9.1,5.6,7.7,6.1,7.4,6.3z"/>
</g>
</svg>
