<?xml version="1.0" encoding="utf-8"?>
<!-- Generator: Adobe Illustrator 20.1.0, SVG Export Plug-In . SVG Version: 6.00 Build 0)  -->
<svg version="1.1" id="Layer_1" xmlns="http://www.w3.org/2000/svg" xmlns:xlink="http://www.w3.org/1999/xlink" x="0px" y="0px"
	 width="24px" height="24px" viewBox="0 0 24 24" style="enable-background:new 0 0 24 24;" xml:space="preserve">
<style type="text/css">
	.st0{fill:#FFFFFF;}
	.st1{fill:#3D6380;}
</style>
<g>
	<path class="st0" d="M16.2,15.2v2c0,0.1-0.3,0.3-1,0.5C14.4,17.9,13.3,18,12,18c-2.8,0-4.1-0.6-4.2-0.7v-2.1
		c0.5,0.3,2.1,0.6,4.3,0.6C14.3,15.8,15.6,15.5,16.2,15.2z"/>
	<path class="st0" d="M16.2,11.6v2.1c-0.2,0.1-0.5,0.2-0.9,0.3c-0.8,0.2-2,0.3-3.2,0.3c-2.1,0-3.6-0.3-4.2-0.6v-2.1
		c0.5,0.3,2.1,0.6,4.2,0.6C14.3,12.2,15.7,11.9,16.2,11.6z"/>
	<path class="st0" d="M16.2,8.3v1.9c-0.2,0.1-0.5,0.2-0.9,0.3c-0.8,0.2-2,0.3-3.2,0.3c-2.1,0-3.6-0.3-4.2-0.7V8.3
		c0.5,0.3,2.1,0.6,4.2,0.6C14.3,8.9,15.7,8.5,16.2,8.3z"/>
	<path class="st0" d="M16.2,6.7v0.2c-0.6,0.3-2,0.6-4.1,0.6c-2.1,0-3.6-0.3-4.2-0.7V6.7C8.1,6.5,9.4,6,12,6C14.5,6,16,6.5,16.2,6.7z
		"/>
	<path class="st1" d="M12,4.5c-2.1,0-5.6,0.3-5.6,2.1v10.7c0,2.1,4.3,2.2,5.7,2.2c1.3,0,2.6-0.1,3.5-0.4c1.4-0.4,2.1-1,2.1-1.8V6.6
		C17.6,4.7,13.7,4.5,12,4.5z M7.8,6.7C8.1,6.5,9.4,6,12,6c2.5,0,4,0.5,4.2,0.7v0.2c-0.6,0.3-2,0.6-4.1,0.6c-2.1,0-3.6-0.3-4.2-0.7
		V6.7z M7.8,8.3c0.5,0.3,2.1,0.6,4.2,0.6c2.2,0,3.6-0.4,4.1-0.6v1.9c-0.2,0.1-0.5,0.2-0.9,0.3c-0.8,0.2-2,0.3-3.2,0.3
		c-2.1,0-3.6-0.3-4.2-0.7V8.3z M7.8,11.6c0.5,0.3,2.1,0.6,4.2,0.6c2.2,0,3.6-0.4,4.1-0.6v2.1c-0.2,0.1-0.5,0.2-0.9,0.3
		c-0.8,0.2-2,0.3-3.2,0.3c-2.1,0-3.6-0.3-4.2-0.6V11.6z M16.2,17.2c0,0.1-0.3,0.3-1,0.5C14.4,17.9,13.3,18,12,18
		c-2.8,0-4.1-0.6-4.2-0.7v-2.1c0.5,0.3,2.1,0.6,4.3,0.6c2.2,0,3.6-0.3,4.1-0.6V17.2z"/>
</g>
</svg>
