<?xml version="1.0" encoding="utf-8"?>
<!-- Generator: Adobe Illustrator 18.0.0, SVG Export Plug-In . SVG Version: 6.00 Build 0)  -->
<!DOCTYPE svg PUBLIC "-//W3C//DTD SVG 1.1//EN" "http://www.w3.org/Graphics/SVG/1.1/DTD/svg11.dtd">
<svg version="1.1" xmlns="http://www.w3.org/2000/svg" xmlns:xlink="http://www.w3.org/1999/xlink" x="0px" y="0px"
	 viewBox="0 0 16 16" enable-background="new 0 0 16 16" xml:space="preserve">
<g id="Layer_2">
	<g id="Layer_2_1_">
		<rect fill="none" width="16" height="16"/>
	</g>
</g>
<g id="art">
	<g>
		<path fill="#FFFFFF" d="M8,12.6c2.5,0,4.6-2.1,4.6-4.6S10.5,3.4,8,3.4C5.5,3.4,3.4,5.5,3.4,8S5.5,12.6,8,12.6z"/>
		<path fill="#3D6380" d="M16,9.3V6.6L14.2,6c-0.1-0.4-0.3-0.8-0.5-1.1l0.9-1.7l-1.9-1.9l-1.7,0.9c-0.4-0.2-0.7-0.3-1.1-0.4L9.4,0
			H6.7L6.2,1.8C5.8,1.9,5.4,2.1,5.1,2.3L3.4,1.3L1.5,3.2l0.9,1.7C2.2,5.3,2,5.7,1.9,6L0,6.6v2.7l1.9,0.5c0.1,0.4,0.3,0.8,0.5,1.1
			l-0.9,1.7l1.9,1.9l1.7-0.9c0.4,0.2,0.7,0.4,1.1,0.5L6.7,16h2.7l0.5-1.9c0.4-0.1,0.8-0.3,1.1-0.5l1.7,0.9l1.9-1.9l-0.9-1.7
			c0.2-0.4,0.3-0.7,0.4-1.1L16,9.3z M8,3.4c2.5,0,4.6,2.1,4.6,4.6s-2.1,4.6-4.6,4.6c-2.5,0-4.6-2.1-4.6-4.6S5.5,3.4,8,3.4z"/>
	</g>
</g>
</svg>
