<?xml version="1.0" encoding="utf-8"?>
<!-- Generator: Adobe Illustrator 17.0.0, SVG Export Plug-In . SVG Version: 6.00 Build 0)  -->
<!DOCTYPE svg PUBLIC "-//W3C//DTD SVG 1.1//EN" "http://www.w3.org/Graphics/SVG/1.1/DTD/svg11.dtd">
<svg version="1.1" id="Layer_1" xmlns="http://www.w3.org/2000/svg" xmlns:xlink="http://www.w3.org/1999/xlink" x="0px" y="0px"
	 width="42px" height="42px" viewBox="0 0 42 42" enable-background="new 0 0 42 42" xml:space="preserve">
<g>
	<path fill="none" d="M17.978,26.52c0,0-0.048-0.49-0.079-0.734C17.93,26.03,17.947,26.276,17.978,26.52z"/>
	<path fill="none" d="M17.988,26.602l-0.003-0.081c-0.001,0-0.007-0.001-0.007-0.001C17.981,26.547,17.985,26.575,17.988,26.602z"/>
	<path fill="none" d="M13.57,26.003c-0.214-0.913-0.443-1.821-0.661-2.732c0.126,0.526,0.4,1.676,0.652,2.731
		C13.564,26.002,13.567,26.002,13.57,26.003z"/>
	<path fill="none" d="M21.317,13.527c0.217,0.181,0.482,0.401,0.657,0.54C21.752,13.89,21.539,13.702,21.317,13.527z"/>
	<path fill="none" d="M17.673,23.684l-0.024-0.31c-0.01,0.006-0.02,0.013-0.03,0.019c0.004,0.808,0.151,1.601,0.28,2.393
		c-0.065-0.528-0.161-1.605-0.203-2.104C17.692,23.683,17.673,23.684,17.673,23.684z"/>
	<path fill="none" d="M26.855,22.869c0.12-0.008,0.294-0.023,0.503-0.042C27.191,22.841,27.023,22.857,26.855,22.869z"/>
	<path fill="none" d="M35.831,18.89l-0.683-0.008c0.229,0.006,0.444,0.012,0.683,0.012V18.89z"/>
	<path fill="none" d="M22.101,13.23c-0.014,0-0.027,0-0.041,0c-0.024,0.279-0.053,0.558-0.087,0.836
		c0.025,0.021,0.075,0.063,0.101,0.085C22.081,13.897,22.099,13.291,22.101,13.23z"/>
	<path fill="none" d="M7.012,21.325c-0.458-0.202-0.912-0.417-1.393-0.561v0.101C6.092,21,6.655,21.168,7.012,21.325z"/>
	<polygon fill="#3D6480" points="36.839,32.836 36.839,35.919 31.614,30.694 30.27,32.038 35.495,37.263 32.35,37.263 32.35,39.164 
		38.739,39.163 38.739,32.836 	"/>
	<path fill="#FF0000" d="M5.619,29.005c0,0,2.276-0.004,3.414,0c0.037-1.304-0.026-2.607,0.035-3.91
		c1.511,0.234,2.968,0.744,4.492,0.907c-0.252-1.055-0.526-2.205-0.652-2.731c-0.348-0.08-0.688-0.188-1.028-0.292
		c-0.905-0.256-1.813-0.5-2.71-0.782c-0.052-1.099-0.033-2.199,0.001-3.298c-0.498-0.004-0.993-0.001-1.491,0
		c0.005,0.388,0.007,0.776,0,1.165c-0.206-0.152-0.409-0.306-0.613-0.457c-0.083,0.57-0.045,1.146-0.055,1.719
		C6.655,21.168,6.092,21,5.619,20.865V29.005z"/>
	<path fill="#FF0000" d="M8.455,14.287c-0.046-0.317-0.022-0.639-0.024-0.959c-0.22,0.02-0.652,0-0.652,0v2.756
		c0.522-0.181,1.059-0.318,1.569-0.537C9.049,15.128,8.696,14.743,8.455,14.287z"/>
	<path fill="#FF0000" d="M12.321,13.227c-0.034,0.414-0.042,0.834,0.053,1.241c0.606-0.399,1.217-0.791,1.83-1.176
		C13.58,13.194,12.948,13.211,12.321,13.227z"/>
	<path fill="#FF0000" d="M35.149,18.883l-1.438-0.016V13.23c0,0-10.332,0.011-9.672-0.002c-0.646,0.012-1.292,0.011-1.938,0.002
		c-0.002,0.061-0.021,0.667-0.027,0.921c-0.025-0.021-0.075-0.064-0.101-0.085c-0.175-0.139-0.44-0.358-0.657-0.54
		c-0.119-0.094-0.234-0.191-0.367-0.265c-0.601-0.062-1.208-0.004-1.81-0.025c-0.312,0.017-0.688-0.085-0.914,0.191
		c-0.835,0.854-1.688,1.691-2.511,2.558c0.604,0.776,1.189,1.568,1.794,2.345c1.941-0.77,3.904-1.485,5.857-2.229
		c1.7,1.396,3.412,2.779,5.119,4.166c0.277,0.237,0.645,0.31,0.986,0.402c0.885-0.6,1.767-1.206,2.698-1.732
		c0.026,1.104,0.032,2.209-0.026,3.312c0.004,0.045,0.011,0.137,0.015,0.182c-0.158-0.001-0.314,0.008-0.471,0.015
		c-0.157,0.009-0.336,0.021-0.529,0.035c-0.58,0.052-1.159,0.13-1.74,0.174c-0.688,0.049-1.374,0.116-2.061,0.173
		c-0.209,0.019-0.384,0.034-0.503,0.042c-1.647,0.131-8.919,0.792-9.159,0.813c0.042,0.498,0.138,1.576,0.203,2.104
		c0.031,0.244,0.079,0.734,0.079,0.734s0.006,0,0.007,0.001l-0.004-0.119l13.268-1.378l4.583-4.582v-1.547
		C35.593,18.895,35.378,18.889,35.149,18.883z"/>
	<path fill="#FFFFFF" d="M17.988,26.602c-0.003-0.027-0.007-0.054-0.01-0.082c-0.031-0.244-0.048-0.49-0.079-0.734
		c-0.129-0.792-0.276-1.585-0.28-2.393c0.01-0.006,0.02-0.013,0.03-0.019l-0.004-0.048c0,0,3.539-2.231,5.322-3.38
		c0.968,0.833,1.955,1.642,2.925,2.474c0.234-0.091,0.467-0.189,0.7-0.284c0.092,0.242,0.179,0.488,0.263,0.733
		c0.168-0.011,0.336-0.028,0.503-0.042c0.688-0.056,1.374-0.124,2.061-0.173c0.582-0.043,1.16-0.122,1.74-0.174
		c0.192-0.014,0.372-0.026,0.529-0.035c0.157-0.007,0.313-0.017,0.471-0.015c-0.004-0.045-0.011-0.137-0.015-0.182
		c-0.139-0.349-0.249-0.721-0.474-1.023c-0.705-0.281-1.469-0.358-2.198-0.556c-0.342-0.093-0.709-0.165-0.986-0.402
		c-1.707-1.387-3.419-2.77-5.119-4.166c-1.953,0.743-3.916,1.459-5.857,2.229c-0.604-0.776-1.189-1.568-1.794-2.345
		c0.823-0.866,1.676-1.704,2.511-2.558c0.227-0.276,0.603-0.175,0.914-0.191c0.602,0.021,1.209-0.036,1.81,0.025
		c0.132,0.074,0.248,0.171,0.367,0.265c0.222,0.176,0.435,0.364,0.657,0.54c0.034-0.278,0.063-0.557,0.087-0.836
		c0.014,0,0.027,0,0.041,0c0.646,0.009,1.292,0.01,1.938-0.002c-0.001-0.003-0.003-0.006-0.004-0.01
		c-0.138-0.381-0.29-0.759-0.463-1.127c-1.981-0.377-3.992-0.596-5.973-0.98c-0.48,0.356-1.013,0.633-1.504,0.973
		c-0.63,0.404-1.257,0.813-1.893,1.209c-0.613,0.385-1.224,0.776-1.83,1.176c-0.027,0.017-0.083,0.054-0.109,0.071
		c-0.005-0.802-0.002-1.603-0.005-2.404c0.019-0.445-0.008-0.89-0.018-1.334c-0.553,0.055-1.077,0.241-1.616,0.362
		c-0.728,0.202-1.464,0.365-2.195,0.55c0,0.123,0,0.247,0,0.37c0.002,0.385,0.003,0.86,0.002,1.244c0,0,0,0-0.001,0
		c0.002,0.32-0.022,0.642,0.024,0.959c0.24,0.456,0.594,0.841,0.893,1.26c-0.511,0.219-1.047,0.356-1.569,0.537
		c-0.396,0.131-0.795,0.253-1.181,0.406c-0.272,0.206-0.455,0.506-0.716,0.726c-0.114,0.146-0.32,0.255-0.346,0.447h0.083v3.101
		c0.48,0.143,0.934,0.359,1.393,0.561c0.01-0.573-0.028-1.148,0.055-1.719c0.204,0.151,0.407,0.305,0.613,0.457
		c0.007-0.389,0.005-0.777,0-1.165c0.498-0.001,0.993-0.004,1.491,0c0.9,1.36,1.813,2.715,2.709,4.08
		c0.341,0.104,0.681,0.212,1.028,0.292c0.218,0.911,0.447,1.819,0.661,2.732c0.229,0.972,0.48,1.938,0.688,2.915
		c0.253,0.105,0.505,0.217,0.757,0.325c0.043,0.301,0.089,0.601,0.134,0.901c0.075,0.484,0.186,0.964,0.255,1.45
		c1.075-0.002,2.152,0.024,3.227-0.014c-0.023-0.089-0.07-0.266-0.094-0.354c-0.037-0.36-0.081-0.721-0.122-1.081h-0.296
		L17.988,26.602z"/>
	<path fill="#BD101D" d="M12.373,14.469c-0.095-0.407-0.087-0.827-0.053-1.241c0.628-0.017,1.26-0.033,1.883,0.065
		c0.636-0.396,1.263-0.805,1.893-1.209c-1.272,0-2.547-0.011-3.817,0l-0.02,0.052c0.003,0.802,0,1.603,0.005,2.404
		C12.29,14.522,12.346,14.485,12.373,14.469z"/>
	<path fill="#BD101D" d="M33.711,13.23v5.637l1.438,0.016l0.683,0.008v0.005v1.547l1.153-1.153v-1.558L34.939,17.7v-5.616H23.572
		c0,0,0.323,0.747,0.463,1.135c0.001,0.003,0.003,0.006,0.004,0.01C23.379,13.241,33.711,13.23,33.711,13.23z"/>
	<polygon fill="#BD101D" points="31.249,25.024 17.981,26.402 17.985,26.521 17.988,26.602 18.117,30.146 18.414,30.146 
		26.127,30.146 	"/>
	<path fill="#BD101D" d="M8.431,13.328C8.431,13.328,8.432,13.328,8.431,13.328c0.002-0.384,0.001-0.859-0.001-1.244
		c-0.614-0.019-1.843,0-1.843,0v4.406l1.191-0.406v-2.756C7.779,13.328,8.211,13.347,8.431,13.328z"/>
	<path fill="#BD101D" d="M13.57,26.003c-0.003,0-0.006-0.001-0.009-0.001c-1.524-0.163-2.981-0.673-4.492-0.907
		c-0.062,1.303,0.002,2.606-0.035,3.91c-1.138-0.004-3.414,0-3.414,0v-8.139v-0.101v-3.101H5.536H4.463v12.483h10.685
		c0,0-0.091-0.603-0.134-0.903c-0.252-0.108-0.504-0.22-0.757-0.325C14.05,27.94,13.798,26.974,13.57,26.003z"/>
	<path fill="#BD101D" d="M9.17,22.196c0.896,0.282,1.805,0.526,2.71,0.782c-0.896-1.365-1.809-2.72-2.709-4.08
		C9.137,19.997,9.118,21.097,9.17,22.196z"/>
	<path fill="#BD101D" d="M32.171,18.937c-0.932,0.526-1.813,1.133-2.698,1.732c0.729,0.197,1.493,0.274,2.198,0.556
		c0.225,0.303,0.335,0.675,0.474,1.023C32.203,21.146,32.197,20.041,32.171,18.937z"/>
	<path fill="#BD101D" d="M17.696,23.682c0.24-0.022,7.512-0.683,9.159-0.813c-0.084-0.245-0.171-0.491-0.263-0.733
		c-0.233,0.095-0.466,0.193-0.7,0.284c-0.97-0.832-1.957-1.641-2.925-2.474c-1.783,1.148-5.322,3.38-5.322,3.38l0.004,0.048
		l0.024,0.31C17.673,23.684,17.692,23.683,17.696,23.682z"/>
</g>
</svg>
