<?xml version="1.0" encoding="utf-8"?>
<!-- Generator: Adobe Illustrator 18.0.0, SVG Export Plug-In . SVG Version: 6.00 Build 0)  -->
<!DOCTYPE svg PUBLIC "-//W3C//DTD SVG 1.1//EN" "http://www.w3.org/Graphics/SVG/1.1/DTD/svg11.dtd">
<svg version="1.1" xmlns="http://www.w3.org/2000/svg" xmlns:xlink="http://www.w3.org/1999/xlink" x="0px" y="0px"
	 viewBox="0 0 16 16" enable-background="new 0 0 16 16" xml:space="preserve">
<g id="Layer_2">
	<g id="Layer_2_1_">
		<rect fill="none" width="16" height="16"/>
	</g>
</g>
<g id="art">
	<g>
		<polygon fill="#FFFFFF" points="6.1,2.5 3.8,8.9 5,12.2 7.4,13.6 9.3,12.9 12.2,10.6 10.3,3.8 9.6,2.4 		"/>
		<path fill="#3D6480" d="M16,11.7V9.2c0-0.9-0.7-1.7-1.7-1.7h-1.6c-0.1-0.3-0.3-0.5-0.5-0.8l1.4-1.5C13.8,5,14,4.5,14,4.2V1.7
			l-1.7-1v3.1c0,0.1,0,0.3-0.1,0.4l-0.9,1c-0.4-0.7-0.6-1.5-0.6-2.6c0-1.2-0.8-2.3-2-2.6v1.6c0,0.4-0.3,0.7-0.7,0.7
			c-0.4,0-0.7-0.3-0.7-0.7V0c-1.1,0.3-2,1.3-2,2.6c0,1.1-0.3,1.9-0.6,2.6L3.8,4.2C3.7,4.1,3.7,4,3.7,3.8V0.7L2,1.7v2.5
			c0,0.3,0.1,0.8,0.3,1l1.4,1.5C3.6,7,3.4,7.3,3.3,7.5H1.7C0.8,7.5,0,8.3,0,9.2v2.5l1.7-1V9.9c0-0.4,0.3-0.7,0.7-0.7h0.3
			c0,0.2,0,0.3,0,0.5c0,0.6,0.1,1.3,0.3,1.8l-1,1.1c-0.2,0.2-0.3,0.6-0.3,0.9V16l1.7-1v-1c0-0.1,0-0.3,0.1-0.4L4,13
			c0.6,0.7,1.4,1.5,2.4,1.7c0,0,0,0,0.1,0c0.1,0,0.1,0,0.2,0c0,0,1.2,0.6,2.7,0c0.1,0,0.1,0,0.2,0l0.1,0c1-0.3,1.8-1,2.4-1.7
			l0.5,0.5c0.1,0.1,0.1,0.3,0.1,0.4v1l1.7,1v-2.5c0-0.3-0.1-0.7-0.3-0.9l-1-1.1c0.2-0.6,0.3-1.2,0.3-1.8c0-0.2,0-0.3,0-0.5h0.3
			c0.4,0,0.7,0.3,0.7,0.7v0.8L16,11.7z M11.2,10.1c0,1.6-1.4,2.9-3.1,2.9c-1.7,0-3.1-1.3-3.1-2.9c0-0.1,0-0.2,0-0.4h0L5,9.4
			c0,0,0-0.1,0-0.1l0.8-3c0-0.3,0.1-0.6,0.2-0.8l0,0l0,0c0.4-0.7,1.1-1.1,2-1.1c1,0,1.8,0.6,2.1,1.4l0,0l0,0.1c0,0.1,0,0.1,0.1,0.2
			l0.9,3.3c0,0,0,0,0,0l0.1,0.4h0C11.1,9.9,11.2,10,11.2,10.1z"/>
	</g>
</g>
</svg>
