<?xml version="1.0" encoding="utf-8"?>
<!-- Generator: Adobe Illustrator 17.0.0, SVG Export Plug-In . SVG Version: 6.00 Build 0)  -->
<!DOCTYPE svg PUBLIC "-//W3C//DTD SVG 1.1//EN" "http://www.w3.org/Graphics/SVG/1.1/DTD/svg11.dtd">
<svg version="1.1" id="Layer_1" xmlns="http://www.w3.org/2000/svg" xmlns:xlink="http://www.w3.org/1999/xlink" x="0px" y="0px"
	 width="42px" height="42px" viewBox="0 0 42 42" enable-background="new 0 0 42 42" xml:space="preserve">
<g>
	<path fill="#3D6480" d="M35.374,27.393v-2.126c0-1.818-1.479-3.298-3.298-3.298h-1.722v1.699h1.722
		c0.881,0,1.599,0.718,1.599,1.599v2.862l1.605,1.504l-1.605,1.502v3.056c0,0.882-0.718,1.6-1.599,1.6L15.819,35.79
		c-0.881,0-1.599-0.718-1.599-1.599V21.149l-1.605-1.502l1.605-1.502v-3.474c0-0.881,0.718-1.599,1.599-1.599h3.703v-1.699h-3.703
		c-1.818,0-3.298,1.479-3.298,3.298v2.735l-2.395,2.24l2.395,2.24v12.304c0,1.818,1.479,3.298,3.298,3.298l16.257,0.001
		c1.818,0,3.298-1.479,3.298-3.299v-2.317l2.395-2.24L35.374,27.393z"/>
	<path fill="#FFFFFF" d="M25.495,21.532c2.359,0,4.278-1.92,4.278-4.279s-1.919-4.279-4.278-4.279c-2.36,0-4.28,1.92-4.28,4.279
		S23.135,21.532,25.495,21.532z"/>
	<path fill="#0CB20F" d="M21.747,21.644l-2.946,4.242l1.396,0.969l2.99-4.306c0.708,0.309,1.487,0.484,2.308,0.484
		c3.187,0,5.778-2.593,5.778-5.779s-2.592-5.779-5.778-5.779c-3.188,0-5.78,2.593-5.78,5.779
		C19.715,19.01,20.505,20.583,21.747,21.644z M25.495,12.974c2.359,0,4.278,1.92,4.278,4.279s-1.919,4.279-4.278,4.279
		c-2.36,0-4.28-1.92-4.28-4.279S23.135,12.974,25.495,12.974z"/>
	<polygon fill="#3D6480" points="5.343,12.007 11.732,12.004 11.732,5.679 9.832,5.679 9.832,8.761 4.606,3.536 3.263,4.88 
		8.489,10.106 5.343,10.106 	"/>
</g>
</svg>
