<?xml version="1.0" encoding="utf-8"?>
<!-- Generator: Adobe Illustrator 17.0.0, SVG Export Plug-In . SVG Version: 6.00 Build 0)  -->
<!DOCTYPE svg PUBLIC "-//W3C//DTD SVG 1.1//EN" "http://www.w3.org/Graphics/SVG/1.1/DTD/svg11.dtd">
<svg version="1.1" id="Layer_1" xmlns="http://www.w3.org/2000/svg" xmlns:xlink="http://www.w3.org/1999/xlink" x="0px" y="0px"
	 width="42px" height="42px" viewBox="0 0 42 42" enable-background="new 0 0 42 42" xml:space="preserve">
<g>
	<path fill="none" d="M11.002,23.503c-0.02,0.011-0.04,0.031-0.06,0.043c1.558,2.709,2.825,4.725,3.38,5.583
		c0.605-0.465,1.268-0.968,2.108-1.583c0.914-0.656,1.845-1.203,2.759-1.662c-0.713-1.11-1.456-2.38-2.052-3.698
		c-0.214-0.477-0.407-0.914-0.593-1.337c-0.554,0.262-0.974,0.423-1.373,0.573C14.307,21.748,13.413,22.084,11.002,23.503z"/>
	<path fill="none" d="M9.066,18.433c0.382,1.668,0.925,3.435,1.527,4.506c0.021,0.036,0.04,0.068,0.06,0.104
		c1.723-1.232,4.255-2.454,5.554-2.971c-1.215-2.813-1.756-4.337-1.987-5.144c-0.442,0.229-0.883,0.43-1.312,0.614
		C11.54,16.127,10.246,16.694,9.066,18.433z"/>
	<path fill="none" d="M8.527,14.387c0,0.002,0,0.004,0,0.006c0,0.093,0.006,0.482,0.016,0.995c0.044,0.499,0.135,1.122,0.261,1.8
		c0.549-0.524,1.22-1.078,2.045-1.69c0.764-0.598,1.774-1.023,2.752-1.435c0.08-0.034,0.153-0.066,0.231-0.099
		c-0.105-0.179-0.218-0.347-0.33-0.509c-0.555-0.801-1.076-1.573-0.492-3.647c-1.659,1.059-3.251,2.519-4.484,4.532
		c0,0.003,0.002,0.005,0.002,0.007c0,0.005-0.001,0.009-0.002,0.013C8.526,14.369,8.526,14.378,8.527,14.387z"/>
	<path fill="none" d="M16.714,19.882c1.244-0.466,2.151-0.698,3.26-0.972c0.457-0.113,0.946-0.234,1.507-0.386
		c0.543-0.131,1.197-0.263,1.906-0.383c-1.295-1.87-2.383-3.92-2.888-4.874l-0.195-0.366c-0.012-0.023-0.022-0.04-0.034-0.061
		c-0.268,0.071-0.544,0.142-0.824,0.214c-1.64,0.425-3.489,0.905-4.663,1.579c0.009,0.021,0.023,0.042,0.031,0.063
		C15.162,15.883,15.948,17.91,16.714,19.882z"/>
	<path fill="none" d="M20.912,11.53c0.138-0.024,0.272-0.046,0.375-0.053c0.834-0.088,1.83-0.133,2.952-0.133
		c0.749,0,1.472,0.021,2.118,0.048c-0.447-0.452-0.538-0.56-0.504-0.692c0.032-0.102,0.115-0.159,0.218-0.159
		c0.254,0,0.866,0.467,1.385,0.908c0.317,0.02,0.593,0.039,0.807,0.055c0.299,0.023,0.539,0.043,0.754,0.061
		c-2.295-1.77-5.52-3.309-8.562-3.309c-0.892,0-1.724,0.141-2.487,0.407c0.306,0.208,0.72,0.626,1.399,1.357l0.17,0.183
		c0.115,0.108,0.224,0.218,0.324,0.326C20.152,10.692,20.512,11.053,20.912,11.53z"/>
	<path fill="none" d="M26.591,11.981c-1.378,0-3.447,0.173-4.939,0.497c0.694,0.95,1.473,2.142,2.275,3.389
		c0.327,0.509,0.592,0.922,0.755,1.154c0.216,0.303,0.402,0.579,0.591,0.858c0.836-0.089,1.696-0.146,2.522-0.146
		c1.59,0,2.801,0.209,3.634,0.605c-0.063-0.225-0.126-0.438-0.194-0.631c-1.26-2.499-3.131-4.532-4.293-5.721
		C26.828,11.984,26.716,11.981,26.591,11.981z"/>
	<path fill="none" d="M15.807,29.151c-0.35,0.308-0.664,0.558-0.963,0.784c0.372,0.555,0.998,1.275,1.661,1.897l1.37,0.909
		c0.196,0.13,0.394,0.261,0.591,0.393c1.102-0.828,2.666-1.689,4.014-2.249c-0.481-0.677-1.236-1.869-1.894-2.944
		c-0.243-0.341-0.513-0.727-0.797-1.145C18.254,27.474,16.83,28.264,15.807,29.151z"/>
	<path fill="none" d="M23.889,18.839c-0.337,0.075-0.667,0.144-1.025,0.232l-0.177,0.041c-3.026,0.693-4.925,1.203-5.681,1.524
		l0.098,0.252c0.363,0.952,1.402,2.862,2.528,4.791c2.553-1.208,4.928-1.741,6.348-1.959c0.283-0.044,0.531-0.068,0.792-0.099
		c-0.676-1.49-1.586-3.089-2.73-4.573C23.991,18.981,23.941,18.908,23.889,18.839z"/>
	<path fill="none" d="M6.995,19.645c0.192-0.452,0.454-0.889,0.793-1.333c-0.016-0.649-0.039-1.667-0.055-2.47
		c-0.14,0.305-0.285,0.604-0.409,0.931c-0.284,0.735-0.453,1.84-0.496,3.108C6.836,19.792,6.897,19.718,6.995,19.645z"/>
	<path fill="none" d="M18.203,34.819c0.522,0.085,1.04,0.142,1.551,0.177c-0.316-0.197-0.716-0.442-1.178-0.722
		C18.441,34.443,18.324,34.633,18.203,34.819z"/>
	<path fill="none" d="M15.994,32.476c-0.904-0.602-1.343-0.899-1.464-0.994c-0.15-0.108-0.423-0.401-0.764-0.818
		c-0.838,0.488-1.387,0.62-1.687,0.688c-0.067,0.016-0.12,0.027-0.161,0.041c-0.018,0.006-0.036,0.009-0.053,0.009
		c-0.062,0-0.121-0.034-0.151-0.092c-0.038-0.074-0.018-0.165,0.049-0.216c0.528-0.396,0.996-0.757,1.465-1.12
		c-1.038-1.384-2.406-3.495-3.306-5.531c-0.309,0.347-0.593,0.715-0.82,1.01c-0.416,0.543-0.531,0.686-0.686,0.686
		c-0.026,0-0.058-0.009-0.087-0.022c-0.01-0.005-0.02-0.011-0.03-0.018c-0.013-0.009-0.024-0.018-0.032-0.027l0-0.001
		c-0.024-0.027-0.044-0.062-0.05-0.093c-0.055-0.26,0.485-1.094,0.97-1.61c0.126-0.17,0.293-0.346,0.481-0.524
		c-0.078-0.197-0.153-0.393-0.22-0.586c-0.662-1.87-0.985-2.463-1.179-2.816c-0.176-0.322-0.267-0.512-0.371-1.005
		c-0.045,0.031-0.078,0.053-0.127,0.086c-0.192,0.129-0.371,0.25-0.499,0.342l-0.058,0.146l-0.073,0.026
		c-0.07,0.025-0.114,0.036-0.153,0.036H6.867l-0.044-0.105c-0.064,2.201,0.255,4.883,1.043,7.013
		c1.699,4.431,5.442,6.734,9.231,7.62c0.083-0.248,0.303-0.535,0.622-0.841c-0.134-0.08-0.25-0.15-0.394-0.236
		C16.844,33.232,16.34,32.798,15.994,32.476z"/>
	<polygon fill="#3D6480" points="36.761,33.148 36.761,36.231 31.537,31.006 30.193,32.35 35.418,37.575 32.273,37.575 
		32.273,39.476 38.662,39.475 38.662,33.148 	"/>
	<path fill="#3D6480" d="M31.936,24.711l0.375-0.375c-0.301-0.08-0.586-0.171-0.864-0.272c-0.757-0.277-1.541-0.563-2.975-0.563
		c-0.092,0-0.2,0.012-0.295,0.014c-0.408-1.267-1.016-2.752-2.497-5.025c1.031-0.169,1.943-0.262,2.702-0.262
		c1.512,0,2.229,0.333,2.753,0.576c0.162,0.075,0.31,0.137,0.458,0.188c0.071,0.308,0.141,0.64,0.216,1.034
		c0.188,0.859,0.341,1.379,0.503,1.929c0.15,0.508,0.307,1.051,0.499,1.883l0.321-0.321c-0.129-0.53-0.234-1.021-0.263-1.428
		c-0.067-0.958-0.297-1.945-0.657-2.946c0.375,0.069,0.809,0.129,1.015,0.129c0.165,0,0.254-0.057,0.268-0.17
		c0.019-0.166,0.006-0.235-1.531-0.605c-0.128-0.306-0.26-0.612-0.415-0.92c-0.418-1.179-1.006-2.039-2.173-3.747
		c-0.324-0.475-0.694-1.016-1.141-1.676c-0.007-0.006-0.02-0.019-0.028-0.026c0.181,0.047,0.728,0.08,1.134,0.08
		c0.184,0,0.319-0.007,0.434-0.018c0.816,0.714,1.469,1.44,1.882,2.098c2.051,3.203,2.91,5.941,2.562,8.142l1.286-1.286
		c0.006-2.862-0.811-5.529-2.432-7.724c-1.777-2.74-6.053-5.689-11.242-5.689c-0.478,0-0.958,0.026-1.412,0.078
		c-2.017-0.059-3.258,0.661-3.426,0.953c-0.042,0.073-0.023,0.128-0.008,0.154c0.007,0.013,0.029,0.028,0.06,0.04
		c-0.005,0.042-0.016,0.079-0.013,0.125c0.013,0.199,0.095,0.259,0.4,0.481c0.349,0.256,0.998,0.729,1.523,1.223
		c0.15,0.16,0.274,0.287,0.353,0.357c0.258,0.289,0.329,0.451,0.339,0.484c0.013,0.078,0.027,0.141,0.042,0.199
		c-1.311,0.366-3.058,0.968-4.583,1.558c-0.243,0.129-0.51,0.253-0.791,0.377c-0.078-0.127-0.152-0.252-0.235-0.383
		c-0.386-0.609-0.785-1.239-0.9-1.836c-0.067-0.423,0.125-1.273,0.312-2.036c3.062-1.803,6.224-2.307,7.592-2.443
		c0.144-0.015,0.209-0.021,0.217-0.115l0.007-0.112l-0.112-0.008c-0.295-0.021-0.595-0.03-0.89-0.03
		c-2.434,0-4.657,0.707-6.588,1.775c0-0.002,0.001-0.004,0.001-0.006c0.139-0.61,0.151-0.836,0.05-0.962
		c-0.042-0.054-0.104-0.084-0.2-0.084c-0.001,0-0.002,0-0.004,0c-0.122,0-0.191,0.054-0.227,0.099
		c-0.097,0.12-0.063,0.278-0.02,0.479c0.028,0.13,0.06,0.277,0.061,0.429c-0.02,0.087-0.045,0.187-0.068,0.282
		c-3.734,2.213-6.288,5.767-6.936,8.126c-0.088,0.304-2.111,7.483,1.847,12.98c2.849,3.922,6.305,5.911,10.877,6.26
		c0.46,0.03,0.898,0.045,1.321,0.053l1.229-1.229c-0.117,0.005-0.229,0.024-0.347,0.027c-0.151-0.103-0.343-0.229-0.597-0.392
		c-0.429-0.289-0.965-0.647-1.531-1.024c1.094-1.089,2.432-1.787,3.681-2.24c0.001,0.001,0.004,0.005,0.005,0.006
		c0.337,0.313,0.692,0.791,1.032,1.379l0.275-0.275c-0.129-0.316-0.408-0.753-0.79-1.294c0.238-0.075,0.472-0.145,0.697-0.204
		c0.784-0.322,1.569-0.57,2.354-0.762l0.568-0.568c-1.212,0.231-2.391,0.534-3.359,0.813c-0.195,0.058-0.406,0.132-0.623,0.212
		c-0.207-0.282-0.434-0.588-0.678-0.917c-0.45-0.606-0.951-1.28-1.467-2.004c-0.224-0.366-0.453-0.747-0.683-1.132
		c1.932-0.82,4.002-1.458,5.686-1.847c0.276-0.063,0.529-0.123,0.767-0.181c0.175-0.042,0.335-0.08,0.495-0.117
		c0.515,1.275,0.852,2.435,0.976,3.304c0.021,0.233,0.04,0.467,0.057,0.7l0.76-0.76c-0.002-0.012-0.001-0.021-0.003-0.032
		c-0.136-1.525-0.315-2.666-0.527-3.437c0.194-0.019,0.393-0.03,0.603-0.03C29.766,24.22,30.694,24.377,31.936,24.711z
		 M31.236,17.708c0.068,0.193,0.132,0.406,0.194,0.631c-0.833-0.397-2.045-0.605-3.634-0.605c-0.826,0-1.686,0.056-2.522,0.146
		c-0.19-0.279-0.376-0.555-0.591-0.858c-0.163-0.232-0.429-0.646-0.755-1.154c-0.802-1.246-1.581-2.438-2.275-3.389
		c1.493-0.324,3.561-0.497,4.939-0.497c0.125,0,0.237,0.003,0.352,0.006C28.105,13.176,29.975,15.209,31.236,17.708z M19.537,10.202
		l-0.17-0.183c-0.679-0.731-1.093-1.148-1.399-1.357c0.763-0.266,1.594-0.407,2.487-0.407c3.042,0,6.267,1.54,8.562,3.309
		c-0.215-0.019-0.455-0.038-0.754-0.061c-0.214-0.016-0.491-0.035-0.807-0.055c-0.52-0.441-1.131-0.908-1.385-0.908
		c-0.103,0-0.186,0.058-0.218,0.159c-0.034,0.132,0.057,0.24,0.504,0.692c-0.646-0.028-1.369-0.048-2.118-0.048
		c-1.123,0-2.118,0.045-2.952,0.133c-0.103,0.007-0.236,0.029-0.375,0.053c-0.4-0.477-0.759-0.838-1.051-1.002
		C19.761,10.42,19.652,10.311,19.537,10.202z M19.445,13.054c0.28-0.072,0.556-0.143,0.824-0.214
		c0.012,0.021,0.022,0.038,0.034,0.061l0.195,0.366c0.505,0.954,1.593,3.003,2.888,4.874c-0.709,0.12-1.362,0.252-1.906,0.383
		c-0.561,0.151-1.05,0.272-1.507,0.386c-1.109,0.274-2.016,0.506-3.26,0.972c-0.766-1.972-1.552-3.999-1.901-5.185
		c-0.008-0.021-0.022-0.042-0.031-0.063C15.957,13.959,17.805,13.479,19.445,13.054z M17.137,22.187
		c0.597,1.318,1.339,2.587,2.052,3.698c-0.914,0.458-1.845,1.006-2.759,1.662c-0.839,0.615-1.502,1.118-2.108,1.583
		c-0.555-0.858-1.823-2.874-3.38-5.583c0.02-0.012,0.04-0.032,0.06-0.043c2.411-1.419,3.305-1.755,4.169-2.08
		c0.399-0.15,0.819-0.311,1.373-0.573C16.73,21.273,16.923,21.71,17.137,22.187z M14.22,14.929c0.231,0.807,0.772,2.331,1.987,5.144
		c-1.299,0.517-3.831,1.739-5.554,2.971c-0.021-0.036-0.039-0.068-0.06-0.104c-0.602-1.071-1.145-2.838-1.527-4.506
		c1.18-1.739,2.474-2.307,3.842-2.891C13.337,15.359,13.777,15.157,14.22,14.929z M8.525,14.341
		c1.233-2.013,2.826-3.473,4.484-4.532c-0.584,2.074-0.063,2.846,0.492,3.647c0.113,0.162,0.225,0.33,0.33,0.509
		c-0.078,0.033-0.151,0.065-0.231,0.099c-0.978,0.411-1.988,0.837-2.752,1.435c-0.824,0.612-1.496,1.165-2.045,1.69
		c-0.126-0.678-0.217-1.302-0.261-1.8c-0.01-0.513-0.017-0.902-0.016-0.995c0-0.002,0-0.004,0-0.006c0-0.009,0-0.018-0.001-0.026
		c0.001-0.004,0.001-0.008,0.002-0.013C8.527,14.345,8.526,14.343,8.525,14.341z M7.324,16.773c0.124-0.327,0.269-0.625,0.409-0.931
		c0.016,0.803,0.039,1.821,0.055,2.47c-0.339,0.443-0.601,0.881-0.793,1.333c-0.099,0.073-0.159,0.147-0.168,0.236
		C6.87,18.612,7.04,17.508,7.324,16.773z M17.098,34.6c-3.789-0.886-7.532-3.189-9.231-7.62c-0.788-2.131-1.107-4.813-1.043-7.013
		l0.044,0.105h0.124c0.039,0,0.083-0.011,0.153-0.036l0.073-0.026l0.058-0.146c0.128-0.092,0.307-0.213,0.499-0.342
		c0.049-0.033,0.082-0.056,0.127-0.086c0.104,0.493,0.195,0.683,0.371,1.005c0.193,0.354,0.517,0.946,1.179,2.816
		c0.067,0.193,0.142,0.389,0.22,0.586c-0.188,0.178-0.356,0.355-0.481,0.524c-0.484,0.517-1.025,1.351-0.97,1.61
		c0.006,0.031,0.026,0.065,0.05,0.093l0,0.001c0.008,0.01,0.02,0.019,0.032,0.027c0.01,0.007,0.02,0.013,0.03,0.018
		c0.029,0.014,0.061,0.022,0.087,0.022c0.155,0,0.27-0.143,0.686-0.686c0.226-0.296,0.51-0.664,0.82-1.01
		c0.9,2.036,2.268,4.148,3.306,5.531c-0.47,0.363-0.938,0.724-1.465,1.12c-0.067,0.051-0.087,0.142-0.049,0.216
		c0.03,0.058,0.089,0.092,0.151,0.092c0.018,0,0.036-0.003,0.053-0.009c0.041-0.014,0.094-0.025,0.161-0.041
		c0.3-0.069,0.849-0.2,1.687-0.688c0.341,0.417,0.614,0.711,0.764,0.818c0.121,0.095,0.56,0.393,1.464,0.994
		c0.346,0.322,0.85,0.756,1.331,1.047c0.144,0.086,0.26,0.156,0.394,0.236C17.401,34.065,17.181,34.352,17.098,34.6z M19.754,34.996
		c-0.511-0.035-1.029-0.092-1.551-0.177c0.122-0.185,0.238-0.375,0.373-0.545C19.038,34.554,19.438,34.799,19.754,34.996z
		 M20.586,27.94c0.658,1.075,1.413,2.268,1.894,2.944c-1.349,0.56-2.912,1.421-4.014,2.249c-0.197-0.131-0.396-0.263-0.591-0.393
		l-1.37-0.909c-0.663-0.622-1.289-1.342-1.661-1.897c0.299-0.226,0.614-0.476,0.963-0.784c1.023-0.886,2.448-1.677,3.982-2.356
		C20.072,27.213,20.342,27.598,20.586,27.94z M25.981,23.721c-1.419,0.218-3.795,0.751-6.348,1.959
		c-1.126-1.929-2.165-3.84-2.528-4.791l-0.098-0.252c0.756-0.321,2.654-0.831,5.681-1.524l0.177-0.041
		c0.358-0.088,0.688-0.158,1.025-0.232c0.052,0.069,0.101,0.142,0.153,0.21c1.144,1.484,2.054,3.083,2.73,4.573
		C26.512,23.653,26.264,23.677,25.981,23.721z"/>
</g>
</svg>
