<?xml version="1.0" encoding="utf-8"?>
<!-- Generator: Adobe Illustrator 17.0.0, SVG Export Plug-In . SVG Version: 6.00 Build 0)  -->
<!DOCTYPE svg PUBLIC "-//W3C//DTD SVG 1.1//EN" "http://www.w3.org/Graphics/SVG/1.1/DTD/svg11.dtd">
<svg version="1.1" id="Layer_1" xmlns="http://www.w3.org/2000/svg" xmlns:xlink="http://www.w3.org/1999/xlink" x="0px" y="0px"
	 width="42px" height="42px" viewBox="0 0 42 42" enable-background="new 0 0 42 42" xml:space="preserve">
<g>
	<polygon fill="#3D6480" points="37.061,32.635 37.061,35.717 31.835,30.492 30.491,31.836 35.718,37.062 32.571,37.063 
		32.572,38.963 38.961,38.96 38.961,32.635 	"/>
	<path fill="#EFF9FE" d="M32.095,9.85h-22.3V32.15h14.441l7.859-7.859V9.85z M27.305,23.486c-0.132,0.113-0.151,0.151-0.188,0.302
		c-0.02,0.17-0.037,0.716-0.037,0.904v2.299h-0.001l-2.694,0.622c-1.093,0.17-2.072,0.32-3.109,0.32c-5.2,0-7.178-3.825-7.178-6.821
		c0-3.655,2.807-7.047,7.611-7.047c1.018,0,1.998,0.151,2.883,0.396c1.414,0.396,2.073,0.887,2.487,1.169l-1.563,1.489l-0.66,0.149
		l0.472-0.754c-0.64-0.621-1.81-1.771-4.032-1.771c-2.977,0-5.22,2.262-5.22,5.559c0,3.542,2.563,6.877,6.671,6.877
		c1.205,0,1.827-0.244,2.393-0.471v-3.034l-2.846,0.151l1.508-0.811h3.994L27.305,23.486z"/>
	<polygon fill="#3D6480" points="9.796,9.85 32.095,9.85 32.095,24.292 33.796,22.591 33.796,8.15 8.095,8.15 8.095,33.85 
		22.537,33.85 24.237,32.15 9.796,32.15 	"/>
	<path fill="#3D6480" d="M22.292,23.826l2.846-0.151v3.034c-0.565,0.227-1.188,0.471-2.393,0.471c-4.107,0-6.671-3.335-6.671-6.877
		c0-3.297,2.243-5.559,5.22-5.559c2.223,0,3.393,1.149,4.032,1.771l-0.472,0.754l0.66-0.149l1.563-1.489
		c-0.414-0.282-1.073-0.772-2.487-1.169c-0.885-0.244-1.865-0.396-2.883-0.396c-4.805,0-7.611,3.392-7.611,7.047
		c0,2.996,1.978,6.821,7.178,6.821c1.037,0,2.017-0.15,3.109-0.32l2.694-0.622h0.001v-2.299c0-0.188,0.018-0.734,0.037-0.904
		c0.037-0.15,0.057-0.188,0.188-0.302l0.489-0.471H23.8L22.292,23.826z"/>
</g>
</svg>
