<?xml version="1.0" encoding="utf-8"?>
<!-- Generator: Adobe Illustrator 18.0.0, SVG Export Plug-In . SVG Version: 6.00 Build 0)  -->
<!DOCTYPE svg PUBLIC "-//W3C//DTD SVG 1.1//EN" "http://www.w3.org/Graphics/SVG/1.1/DTD/svg11.dtd">
<svg version="1.1" xmlns="http://www.w3.org/2000/svg" xmlns:xlink="http://www.w3.org/1999/xlink" x="0px" y="0px"
	 viewBox="0 0 16 16" enable-background="new 0 0 16 16" xml:space="preserve">
<g id="Layer_2">
	<g id="Layer_2_1_">
		<rect fill="none" width="16" height="16"/>
	</g>
</g>
<g id="art">
	<g>
		<path fill="#3D6480" d="M8,0C3.6,0,0,3.6,0,8c0,2,0.8,3.9,2,5.3l-1.3,1.3H3h1.7v-0.4v-3.6l-1.2,1.2C2.5,10.8,2,9.5,2,8
			c0-3.3,2.7-6,6-6s6,2.7,6,6s-2.7,6-6,6c0,0-0.1,0-0.1,0v2c0,0,0.1,0,0.1,0c4.4,0,8-3.6,8-8S12.4,0,8,0z"/>
		<polygon fill="#3D6480" points="9.6,4.7 7.6,4.7 7.6,8.4 5,9.4 5.8,11.3 9.6,9.8 		"/>
	</g>
</g>
</svg>
