<?xml version="1.0" encoding="utf-8"?>
<!-- Generator: Adobe Illustrator 18.0.0, SVG Export Plug-In . SVG Version: 6.00 Build 0)  -->
<!DOCTYPE svg PUBLIC "-//W3C//DTD SVG 1.1//EN" "http://www.w3.org/Graphics/SVG/1.1/DTD/svg11.dtd">
<svg version="1.1" xmlns="http://www.w3.org/2000/svg" xmlns:xlink="http://www.w3.org/1999/xlink" x="0px" y="0px"
	 viewBox="0 0 16 16" enable-background="new 0 0 16 16" xml:space="preserve">
<g id="Layer_2">
	<g id="Layer_2_1_">
		<rect fill="none" width="16" height="16"/>
	</g>
</g>
<g id="art">
	<g>
		<rect x="9.6" y="1.1" fill="#FFFFFF" width="5.3" height="2.9"/>
		<polygon fill="#FFFFFF" points="14.9,11.5 14.9,8.3 9.6,8.3 9.6,11.5 9.6,11.5 14.9,11.5 		"/>
		<rect x="9.6" y="12" fill="#FFFFFF" width="5.3" height="2.9"/>
		<rect x="9.6" y="4.6" fill="#FFFFFF" width="5.3" height="3.2"/>
		<path fill="#3D6480" d="M8.5,0v16H16V0H8.5z M14.9,12v2.9H9.6V12H14.9z M9.6,11.5L9.6,11.5V8.3h5.3v3.2v0H9.6z M14.9,7.8H9.6V4.6
			h5.3V7.8z M14.9,4.1H9.6V1.1h5.3V4.1z"/>
		<polygon fill="#3D6480" points="5.4,4.3 1.1,0 0,1.1 4.3,5.4 1.7,5.4 1.7,7 7,7 7,1.8 5.4,1.8 		"/>
	</g>
</g>
</svg>
