<?xml version="1.0" encoding="utf-8"?>
<!-- Generator: Adobe Illustrator 18.0.0, SVG Export Plug-In . SVG Version: 6.00 Build 0)  -->
<!DOCTYPE svg PUBLIC "-//W3C//DTD SVG 1.1//EN" "http://www.w3.org/Graphics/SVG/1.1/DTD/svg11.dtd">
<svg version="1.1" id="Layer_1" xmlns="http://www.w3.org/2000/svg" xmlns:xlink="http://www.w3.org/1999/xlink" x="0px" y="0px"
	 viewBox="0 0 42 42" enable-background="new 0 0 42 42" xml:space="preserve">
<g>
	<g>
		<g>
			<path fill="#EFF9FE" d="M34,10.7c0-1.1-0.9-1.9-1.9-1.9H17.5c-2.4,0-3.7,1.3-3.7,3.7v15.3h6.2v1.7h-9.4c-1.1,0-1.9,0.9-1.9,1.9
				c0,1.1,0.9,1.9,1.9,1.9h15.1c2.4,0,3.7-1.3,3.7-3.7V11.5H31v1.1h1.1C33.2,12.6,34,11.7,34,10.7z"/>
			<path fill="#3D6480" d="M32.1,7H17.5C14.1,7,12,9.1,12,12.5v15.3h-1.6c-2,0-3.6,1.6-3.6,3.6c0,2,1.6,3.6,3.6,3.6h15.1
				c3.4,0,5.4-2.1,5.4-5.4V14.3h1.1c2,0,3.6-1.6,3.6-3.6C35.7,8.7,34.1,7,32.1,7z M31,12.6v-1.1h-1.7v18.1c0,2.4-1.3,3.7-3.7,3.7
				H10.4c-1.1,0-1.9-0.9-1.9-1.9c0-1.1,0.9-1.9,1.9-1.9h9.4v-1.7h-6.2V12.5c0-2.4,1.3-3.7,3.7-3.7h14.7c1.1,0,1.9,0.9,1.9,1.9
				c0,1.1-0.9,1.9-1.9,1.9H31z"/>
		</g>
	</g>
	<g>
		<path fill="#3D6480" d="M22.3,16.2v6.9c0,1.1-0.2,1.2-1.8,2.7L19.7,25c1.3-1.2,1.3-1.3,1.3-1.9v-6.9H22.3z"/>
	</g>
</g>
</svg>
