<?xml version="1.0" encoding="utf-8"?>
<!-- Generator: Adobe Illustrator 17.0.0, SVG Export Plug-In . SVG Version: 6.00 Build 0)  -->
<!DOCTYPE svg PUBLIC "-//W3C//DTD SVG 1.1//EN" "http://www.w3.org/Graphics/SVG/1.1/DTD/svg11.dtd">
<svg version="1.1" id="Layer_1" xmlns="http://www.w3.org/2000/svg" xmlns:xlink="http://www.w3.org/1999/xlink" x="0px" y="0px"
	 width="42px" height="42px" viewBox="0 0 42 42" enable-background="new 0 0 42 42" xml:space="preserve">
<path fill="#E92D2F" stroke="#E92D2F" stroke-width="0.0072" stroke-miterlimit="10" d="M23.613,4.742
	c0.718,0.817,0.955,1.986,0.749,3.041c-0.222,1.184-0.879,2.231-1.65,3.132c-0.619,0.726-1.329,1.367-2.07,1.963
	c-0.863,0.695-1.711,1.444-2.254,2.422c-0.458,0.794-0.565,1.772-0.252,2.636c0.512,1.482,1.704,2.582,2.353,3.98
	c-0.718-0.634-1.421-1.291-2.078-1.986c-0.688-0.733-1.337-1.513-1.765-2.429c-0.29-0.642-0.42-1.39-0.199-2.07
	c0.222-0.695,0.718-1.253,1.215-1.772c1.383-1.383,3.086-2.399,4.439-3.804c0.749-0.772,1.367-1.696,1.581-2.758
	C23.857,6.315,23.773,5.513,23.613,4.742L23.613,4.742z"/>
<path fill="#E92D2F" stroke="#E92D2F" stroke-width="0.0072" stroke-miterlimit="10" d="M22.482,13.443
	c1.482-1.092,3.216-1.788,4.973-2.292c-1.39,0.886-2.842,1.696-4.041,2.834c-0.435,0.42-0.848,0.901-1.039,1.49
	c-0.145,0.435-0.084,0.917,0.092,1.329c0.321,0.733,0.863,1.329,1.276,2.002c0.351,0.573,0.413,1.306,0.145,1.925
	c-0.405,0.909-1.199,1.574-2.024,2.101c-0.107,0.061-0.199,0.176-0.329,0.191c0.55-0.497,0.978-1.199,0.963-1.956
	c-0.015-0.565-0.328-1.062-0.695-1.467c-0.756-0.901-1.39-2.047-1.26-3.262C20.671,15.124,21.542,14.146,22.482,13.443
	L22.482,13.443z"/>
<path fill="#0774BA" stroke="#0774BA" stroke-width="0.0072" stroke-miterlimit="10" d="M27.738,22.274
	c0.321-0.39,0.833-0.489,1.299-0.55c0.81-0.107,1.673,0.099,2.284,0.657c0.504,0.451,0.787,1.154,0.68,1.833
	c-0.115,0.787-0.642,1.444-1.238,1.94c-1.077,0.863-2.406,1.367-3.736,1.704c0.076-0.084,0.16-0.161,0.26-0.222
	c1.008-0.542,2.009-1.177,2.75-2.063c0.451-0.55,0.802-1.268,0.657-1.994c-0.153-0.84-0.97-1.451-1.803-1.497
	C28.494,22.045,28.12,22.198,27.738,22.274L27.738,22.274z"/>
<path fill="#0774BA" stroke="#0774BA" stroke-width="0.0072" stroke-miterlimit="10" d="M12.383,22.969
	c1.406-0.604,2.934-0.993,4.469-0.97c-0.894,0.26-1.811,0.481-2.651,0.879c-0.199,0.107-0.428,0.206-0.542,0.413
	c-0.061,0.16,0.107,0.267,0.229,0.321c0.519,0.214,1.092,0.244,1.65,0.298c1.956,0.13,3.919,0.053,5.867-0.069
	c1.925-0.122,3.835-0.382,5.737-0.688c-0.42,0.199-0.848,0.397-1.238,0.649c-0.199,0.138-0.443,0.176-0.665,0.229
	c-2.338,0.519-4.736,0.68-7.12,0.718c-0.924,0.008-1.841-0.008-2.758-0.069c-1.024-0.069-2.055-0.145-3.056-0.413
	c-0.29-0.084-0.596-0.176-0.825-0.382c-0.115-0.092-0.115-0.275-0.015-0.382C11.718,23.244,12.069,23.122,12.383,22.969
	L12.383,22.969z"/>
<path fill="#0774BA" stroke="#0774BA" stroke-width="0.0072" stroke-miterlimit="10" d="M14.186,26.231
	c0.397-0.313,0.871-0.489,1.345-0.657c-0.153,0.183-0.367,0.359-0.382,0.611c-0.008,0.16,0.122,0.283,0.252,0.359
	c0.252,0.13,0.535,0.176,0.817,0.214c1.467,0.153,2.949,0.237,4.431,0.138c1.352-0.069,2.697-0.29,4.034-0.527
	c0.367,0.344,0.802,0.581,1.261,0.787c-1.612,0.474-3.27,0.749-4.935,0.879c-1.574,0.107-3.17,0.099-4.736-0.153
	c-0.619-0.115-1.253-0.244-1.818-0.535c-0.229-0.122-0.489-0.283-0.558-0.55C13.849,26.567,14.017,26.361,14.186,26.231
	L14.186,26.231z"/>
<path fill="#0774BA" stroke="#0774BA" stroke-width="0.0072" stroke-miterlimit="10" d="M15.072,29.562
	c0.351-0.283,0.787-0.428,1.215-0.55c-0.137,0.13-0.382,0.29-0.275,0.512c0.206,0.267,0.588,0.298,0.894,0.367
	c1.291,0.16,2.597,0.267,3.888,0.168c0.978-0.061,1.94-0.237,2.895-0.405c0.55,0.321,1.123,0.596,1.711,0.84
	c-0.901,0.405-1.872,0.665-2.842,0.848c-1.635,0.29-3.323,0.328-4.966,0.069c-0.726-0.13-1.467-0.298-2.124-0.657
	c-0.252-0.145-0.519-0.313-0.626-0.596C14.758,29.936,14.896,29.7,15.072,29.562L15.072,29.562z"/>
<path fill="#0774BA" stroke="#0774BA" stroke-width="0.0072" stroke-miterlimit="10" d="M10.832,31.724
	c0.703-0.237,1.429-0.428,2.17-0.451c0.298-0.008,0.604,0.008,0.863,0.16c-0.886,0.054-1.772,0.275-2.567,0.68
	c-0.176,0.099-0.374,0.214-0.443,0.42c0,0.237,0.267,0.313,0.443,0.39c1.108,0.413,2.292,0.542,3.453,0.665
	c3.461,0.29,6.944,0.214,10.405-0.099c1.306-0.145,2.62-0.29,3.888-0.649c0.405-0.138,0.863-0.275,1.131-0.634
	c0.161-0.214,0.054-0.481-0.107-0.665c0.26,0.145,0.626,0.329,0.573,0.68c-0.099,0.367-0.474,0.558-0.779,0.733
	c-0.978,0.497-2.055,0.749-3.125,0.97c-3.109,0.611-6.295,0.749-9.458,0.657c-2.384-0.084-4.767-0.313-7.12-0.718
	c-0.42-0.099-0.894-0.183-1.199-0.512c-0.199-0.229-0.023-0.55,0.168-0.718C9.61,32.19,10.228,31.946,10.832,31.724L10.832,31.724z"
	/>
<path fill="#0774BA" stroke="#0774BA" stroke-width="0.0072" stroke-miterlimit="10" d="M29.869,34.337
	c0.772-0.267,1.597-0.55,2.17-1.161c-0.099,0.665-0.672,1.123-1.238,1.421c-1.085,0.565-2.299,0.825-3.507,1.039
	c-2.552,0.405-5.141,0.504-7.731,0.458c-1.765-0.053-3.545-0.122-5.279-0.489c-0.413-0.115-0.856-0.191-1.215-0.435
	c1.543,0.26,3.109,0.367,4.675,0.428c2.574,0.076,5.157-0.023,7.716-0.344C26.943,35.047,28.433,34.795,29.869,34.337L29.869,34.337
	z"/>
</svg>
