<?xml version="1.0" encoding="utf-8"?>
<!-- Generator: Adobe Illustrator 18.0.0, SVG Export Plug-In . SVG Version: 6.00 Build 0)  -->
<!DOCTYPE svg PUBLIC "-//W3C//DTD SVG 1.1//EN" "http://www.w3.org/Graphics/SVG/1.1/DTD/svg11.dtd">
<svg version="1.1" id="Layer_1" xmlns="http://www.w3.org/2000/svg" xmlns:xlink="http://www.w3.org/1999/xlink" x="0px" y="0px"
	 viewBox="-9 -9 42 42" enable-background="new -9 -9 42 42" xml:space="preserve">
<g>
	<g>
		<path fill="#EFF9FE" d="M22.9-0.3H8.3C5.9-0.3,4.5,1,4.5,3.5v15.3h6.2v1.7H1.3c-1.1,0-1.9,0.9-1.9,1.9c0,1.1,0.9,1.9,1.9,1.9h15.1
			c2.4,0,3.7-1.3,3.7-3.7V2.5h1.7v1.1h1.1c1.1,0,1.9-0.9,1.9-1.9C24.9,0.6,24-0.3,22.9-0.3z"/>
		<path fill="#3D6480" d="M23.1-2H8.5C5.1-2,3,0.1,3,3.5v15.3H1.4c-2,0-3.6,1.6-3.6,3.6c0,2,1.6,3.6,3.6,3.6h15.1
			c3.4,0,5.4-2.1,5.4-5.4V5.3h1.1c2,0,3.6-1.6,3.6-3.6C26.7-0.3,25.1-2,23.1-2z M23.1,3.6H22V2.5h-1.7v18.1c0,2.4-1.3,3.7-3.7,3.7
			H1.4c-1.1,0-1.9-0.9-1.9-1.9c0-1.1,0.9-1.9,1.9-1.9h9.4v-1.7H4.7V3.5C4.7,1,6-0.3,8.5-0.3h14.7c1.1,0,1.9,0.9,1.9,1.9
			C25,2.7,24.2,3.6,23.1,3.6z"/>
	</g>
	<path fill="#3D6480" d="M12.9,6.9v6.7c0,0.8-0.1,0.9-1.3,1.9l-0.5-0.6C12,14,12,14,12,13.6V6.9H12.9z"/>
</g>
</svg>
