<?xml version="1.0" encoding="utf-8"?>
<!-- Generator: Adobe Illustrator 17.0.0, SVG Export Plug-In . SVG Version: 6.00 Build 0)  -->
<!DOCTYPE svg PUBLIC "-//W3C//DTD SVG 1.1//EN" "http://www.w3.org/Graphics/SVG/1.1/DTD/svg11.dtd">
<svg version="1.1" id="Layer_1" xmlns="http://www.w3.org/2000/svg" xmlns:xlink="http://www.w3.org/1999/xlink" x="0px" y="0px"
	 width="42px" height="42px" viewBox="0 0 42 42" enable-background="new 0 0 42 42" xml:space="preserve">
<g>
	<polygon fill="#3D6480" points="33.152,23.778 25.045,31.883 25.045,27.258 23.345,27.258 23.345,34.786 30.874,34.786 
		30.874,33.086 26.248,33.086 34.354,24.98 	"/>
	<polygon fill="#3D6480" points="14.927,25.229 14.927,23.529 7.397,23.529 7.397,31.057 9.097,31.057 9.097,26.431 17.204,34.537 
		18.406,33.335 10.299,25.229 	"/>
	<polygon fill="#3D6480" points="11.126,8.916 15.752,8.916 7.646,17.021 8.848,18.223 16.955,10.118 16.955,14.743 18.655,14.743 
		18.655,7.215 11.126,7.215 	"/>
	<polygon fill="#3D6480" points="32.903,10.943 32.903,15.57 24.796,7.464 23.594,8.667 31.701,16.772 27.074,16.772 27.074,18.472 
		34.603,18.472 34.603,10.943 	"/>
</g>
</svg>
