<?xml version="1.0" encoding="utf-8"?>
<!-- Generator: Adobe Illustrator 18.0.0, SVG Export Plug-In . SVG Version: 6.00 Build 0)  -->
<!DOCTYPE svg PUBLIC "-//W3C//DTD SVG 1.1//EN" "http://www.w3.org/Graphics/SVG/1.1/DTD/svg11.dtd">
<svg version="1.1" id="Layer_1" xmlns="http://www.w3.org/2000/svg" xmlns:xlink="http://www.w3.org/1999/xlink" x="0px" y="0px"
	 viewBox="0 0 24 24" enable-background="new 0 0 24 24" xml:space="preserve">
<g id="art">
	<g>
		<polygon fill="#3D6480" points="15,11 15,9.3 17,9.3 13,5.2 14.2,4 18.2,8 18.2,6.1 20,6.1 20,11 		"/>
		<polygon fill="#3D6480" points="13,15 14.7,15 14.7,17 18.8,13 20,14.2 16,18.2 17.9,18.2 17.9,20 13,20 		"/>
		<polygon fill="#3D6480" points="9,13 9,14.7 7,14.7 11,18.8 9.8,20 5.8,16 5.8,17.9 4,17.9 4,13 		"/>
		<polygon fill="#3D6480" points="11,9 9.3,9 9.3,7 5.2,11 4,9.8 8,5.8 6.1,5.8 6.1,4 11,4 		"/>
	</g>
</g>
</svg>
