<?xml version="1.0" encoding="UTF-8" standalone="no"?>
<!-- Generator: Adobe Illustrator 19.1.0, SVG Export Plug-In . SVG Version: 6.00 Build 0)  -->

<svg
   xmlns:dc="http://purl.org/dc/elements/1.1/"
   xmlns:cc="http://creativecommons.org/ns#"
   xmlns:rdf="http://www.w3.org/1999/02/22-rdf-syntax-ns#"
   xmlns:svg="http://www.w3.org/2000/svg"
   xmlns="http://www.w3.org/2000/svg"
   xmlns:sodipodi="http://sodipodi.sourceforge.net/DTD/sodipodi-0.dtd"
   xmlns:inkscape="http://www.inkscape.org/namespaces/inkscape"
   version="1.1"
   id="Layer_1"
   x="0px"
   y="0px"
   viewBox="-284 376 42 42"
   style="enable-background:new -284 376 42 42;"
   xml:space="preserve"
   inkscape:version="0.48.4 r9939"
   width="100%"
   height="100%"
   sodipodi:docname="JOBEx.svg"><metadata
     id="metadata21"><rdf:RDF><cc:Work
         rdf:about=""><dc:format>image/svg+xml</dc:format><dc:type
           rdf:resource="http://purl.org/dc/dcmitype/StillImage" /></cc:Work></rdf:RDF></metadata><defs
     id="defs19" /><sodipodi:namedview
     pagecolor="#ffffff"
     bordercolor="#666666"
     borderopacity="1"
     objecttolerance="10"
     gridtolerance="10"
     guidetolerance="10"
     inkscape:pageopacity="0"
     inkscape:pageshadow="2"
     inkscape:window-width="747"
     inkscape:window-height="657"
     id="namedview17"
     showgrid="false"
     inkscape:zoom="5.6190476"
     inkscape:cx="22.073552"
     inkscape:cy="21"
     inkscape:window-x="276"
     inkscape:window-y="101"
     inkscape:window-maximized="0"
     inkscape:current-layer="Layer_1" /><style
     type="text/css"
     id="style3">
	.st0{fill:none;}
	.st1{fill:#F99C1C;}
	.st2{fill:#0CB20F;}
</style><polygon
     style="fill:#f99c1c"
     id="polygon9"
     points="-276.1,399.5 -276.1,407.1 -274.4,407.1 -274.4,402.4 -266.3,410.5 -265.1,409.3 -273.2,401.2 -268.6,401.2 -268.6,399.5 "
     class="st1" /><path
     style="fill:#0cb20f"
     inkscape:connector-curvature="0"
     id="path15"
     d="m -259.9,399.5 v 11.1 l 11.9,-5.6 -11.9,-5.5 z m 1.9,2.9 5.7,2.7 -5.7,2.7 v -5.4 z"
     class="st2" /><polygon
     style="fill:none"
     id="polygon7"
     points="-248.5,409.5 -254.2,406.8 -254.2,412.1 "
     class="st0" /><polygon
     style="fill:#f99c1c"
     id="polygon11"
     points="-275.9,393 -274.7,394.2 -266.6,386.1 -266.6,390.7 -264.9,390.7 -264.9,383.2 -272.4,383.2 -272.4,384.9 -267.8,384.9 "
     class="st1" /><polygon
     style="fill:#f99c1c"
     id="polygon13"
     points="-248.9,386.9 -250.6,386.9 -250.6,391.6 -258.7,383.5 -259.9,384.7 -251.8,392.8 -256.4,392.8 -256.4,394.5 -248.9,394.5 "
     class="st1" /></svg>