<?xml version="1.0" encoding="utf-8"?>
<!-- Generator: Adobe Illustrator 19.1.0, SVG Export Plug-In . SVG Version: 6.00 Build 0)  -->
<svg version="1.1" id="Layer_1" xmlns="http://www.w3.org/2000/svg" xmlns:xlink="http://www.w3.org/1999/xlink" x="0px" y="0px"
	 viewBox="-284 376 42 42" style="enable-background:new -284 376 42 42;" xml:space="preserve">
<style type="text/css">
	.st0{fill:none;}
	.st1{fill:#F99C1C;}
	.st2{fill:#0CB20F;}
</style>
<g>
	<polygon class="st0" points="-254.2,406.8 -254.2,412.1 -248.5,409.5 	"/>
	<polygon class="st1" points="-268.6,401.2 -268.6,399.5 -276.1,399.5 -276.1,407.1 -274.4,407.1 -274.4,402.4 -266.3,410.5 
		-265.1,409.3 -273.2,401.2 	"/>
	<polygon class="st1" points="-272.4,384.9 -267.8,384.9 -275.9,393 -274.7,394.2 -266.6,386.1 -266.6,390.7 -264.9,390.7 
		-264.9,383.2 -272.4,383.2 	"/>
	<polygon class="st1" points="-256.4,394.5 -248.9,394.5 -248.9,386.9 -250.6,386.9 -250.6,391.6 -258.7,383.5 -259.9,384.7 
		-251.8,392.8 -256.4,392.8 	"/>
	<path class="st2" d="M-256.1,403.9V415l11.9-5.6L-256.1,403.9z M-254.2,406.8l5.7,2.7l-5.7,2.7V406.8z"/>
</g>
</svg>
