<?xml version="1.0" encoding="utf-8"?>
<!-- Generator: Adobe Illustrator 18.0.0, SVG Export Plug-In . SVG Version: 6.00 Build 0)  -->
<!DOCTYPE svg PUBLIC "-//W3C//DTD SVG 1.1//EN" "http://www.w3.org/Graphics/SVG/1.1/DTD/svg11.dtd">
<svg version="1.1" id="Layer_1" xmlns="http://www.w3.org/2000/svg" xmlns:xlink="http://www.w3.org/1999/xlink" x="0px" y="0px"
	 viewBox="0 0 24 24" enable-background="new 0 0 24 24" xml:space="preserve">
<g>
	<g>
		<polygon fill="#FFFFFF" points="11.4,6.8 11.4,3.8 5.3,3.8 5.3,16.8 7.6,16.8 7.6,9.3 14.4,9.3 14.4,6.8 		"/>
		<polygon fill="#3D6480" points="5.3,16.8 5.3,3.8 11.4,3.8 11.4,6.8 14.4,6.8 14.4,9.3 15.9,9.3 15.9,6.8 14.4,5.3 14.4,5.3 
			12.9,5.3 12.9,3.8 12.9,3.8 11.4,2.3 3.8,2.3 3.8,18.3 7.6,18.3 7.6,16.8 		"/>
		<polygon fill="#FFFFFF" points="15.9,9.3 14.4,9.3 7.6,9.3 7.6,16.8 7.6,18.3 7.6,18.5 16.1,18.5 16.1,9.3 		"/>
	</g>
	<g>
		<polygon fill="#3D6480" points="16.5,15.4 16.5,14.1 17.9,14.1 14.9,11.1 15.9,10.2 18.9,13.2 18.9,11.7 20.2,11.7 20.2,15.4 		
			"/>
		<polygon fill="#3D6480" points="14.9,18 16.2,18 16.2,19.4 19.3,16.4 20.2,17.3 17.2,20.3 18.6,20.3 18.6,21.7 14.9,21.7 		"/>
		<polygon fill="#3D6480" points="12.6,16.4 12.6,17.7 11.2,17.7 14.2,20.7 13.3,21.7 10.2,18.7 10.2,20.1 8.9,20.1 8.9,16.4 		"/>
		<polygon fill="#3D6480" points="14.2,13.9 12.9,13.9 12.9,12.4 9.9,15.4 8.9,14.5 11.9,11.5 10.5,11.5 10.5,10.2 14.2,10.2 		"/>
	</g>
</g>
</svg>
