<?xml version="1.0" encoding="utf-8"?>
<!-- Generator: Adobe Illustrator 18.0.0, SVG Export Plug-In . SVG Version: 6.00 Build 0)  -->
<!DOCTYPE svg PUBLIC "-//W3C//DTD SVG 1.1//EN" "http://www.w3.org/Graphics/SVG/1.1/DTD/svg11.dtd">
<svg version="1.1" xmlns="http://www.w3.org/2000/svg" xmlns:xlink="http://www.w3.org/1999/xlink" x="0px" y="0px"
	 viewBox="0 0 16 16" enable-background="new 0 0 16 16" xml:space="preserve">
<g id="Layer_2">
	<g id="Layer_2_1_">
		<rect fill="none" width="16" height="16"/>
	</g>
</g>
<g id="art">
	<g>
		<circle fill="#005CA7" cx="8" cy="8" r="8"/>
		<path fill="#FFFFFF" d="M13.6,3.3c-0.5,0-1,0.4-1,1c0,0.1,0,0.1,0,0.2L8.4,7.6c-0.3-0.2-0.6-0.4-1-0.4L7.3,5.9
			c0,0,0.1-0.1,0.1-0.1c0.2-0.2,0.2-0.6,0-0.8C7.2,4.8,6.8,4.8,6.6,5c-0.2,0.2-0.2,0.6,0,0.8C6.7,5.9,6.7,5.9,6.8,6l0.1,1.3
			C6.7,7.3,6.5,7.4,6.3,7.5L3.8,5.4c0-0.1,0-0.2,0-0.2c0-0.5-0.4-1-1-1s-1,0.4-1,1c0,0.5,0.4,1,1,1c0.2,0,0.3,0,0.4-0.1l2.6,2.2
			c0,0.1-0.1,0.2-0.1,0.3L5.4,8.4c0-0.1-0.1-0.2-0.2-0.3C5,7.8,4.6,7.8,4.4,8.1c-0.2,0.2-0.2,0.6,0,0.8c0.2,0.2,0.6,0.2,0.8,0
			c0,0,0,0,0.1-0.1l0.5,0.1c0,0.2,0.1,0.4,0.2,0.6l-1.5,1.1c-0.2-0.1-0.3-0.2-0.5-0.2c-0.5,0-1,0.4-1,1c0,0.5,0.4,1,1,1
			c0.5,0,1-0.4,1-1c0-0.1,0-0.1,0-0.2l1.6-1.2c0.1,0.1,0.3,0.1,0.4,0.2l-0.1,1c-0.1,0-0.2,0.1-0.3,0.2c-0.3,0.3-0.3,0.7,0,0.9
			c0.3,0.3,0.7,0.3,0.9,0c0.3-0.3,0.3-0.7,0-0.9c0,0-0.1-0.1-0.1-0.1l0.1-1c0.2,0,0.4,0,0.5-0.1l1.7,2.2c-0.1,0.2-0.2,0.4-0.2,0.6
			c0,0.6,0.5,1.1,1.1,1.1c0.6,0,1.1-0.5,1.1-1.1c0-0.6-0.5-1.1-1.1-1.1c-0.1,0-0.2,0-0.3,0L8.6,9.8c0.1-0.1,0.2-0.3,0.3-0.5l2.5,0.4
			c0,0.1,0.1,0.2,0.2,0.3c0.2,0.2,0.6,0.2,0.8,0c0.2-0.2,0.2-0.6,0-0.8c-0.2-0.2-0.6-0.2-0.8,0c0,0,0,0-0.1,0.1L8.9,8.8
			c0,0,0,0,0-0.1c0-0.2,0-0.4-0.1-0.5l4.2-3.1c0.2,0.1,0.3,0.2,0.5,0.2c0.5,0,1-0.4,1-1C14.6,3.8,14.1,3.3,13.6,3.3z"/>
	</g>
</g>
</svg>
