<?xml version="1.0" encoding="utf-8"?>
<!-- Generator: Adobe Illustrator 18.0.0, SVG Export Plug-In . SVG Version: 6.00 Build 0)  -->
<!DOCTYPE svg PUBLIC "-//W3C//DTD SVG 1.1//EN" "http://www.w3.org/Graphics/SVG/1.1/DTD/svg11.dtd">
<svg version="1.1" id="Layer_1" xmlns="http://www.w3.org/2000/svg" xmlns:xlink="http://www.w3.org/1999/xlink" x="0px" y="0px"
	 viewBox="0 0 19 16" enable-background="new 0 0 19 16" xml:space="preserve">
<g>
	<g>
		<path fill="#FFFFFF" d="M8.4,4.7C8.4,3.2,7.3,2,5.8,2C4.4,2,3.2,3.2,3.2,4.7v1.7h5.3V4.7z"/>
		<path fill="#FFFFFF" d="M1.9,14h7.7V8.3H1.9V14z M4.8,9.9h1.9v2.6H4.8V9.9z"/>
		<rect x="4.8" y="9.9" fill="#3D6380" width="1.9" height="2.6"/>
		<path fill="#3D6380" d="M10.4,6.4V4.7C10.4,2.1,8.3,0,5.8,0C3.3,0,1.2,2.1,1.2,4.7v1.7H0V16h11.6V6.4H10.4z M3.2,4.7
			C3.2,3.2,4.4,2,5.8,2c1.5,0,2.6,1.2,2.6,2.8v1.7H3.2V4.7z M9.7,14H1.9V8.3h7.7V14z"/>
	</g>
	<path fill="#3E6480" d="M14,6.8h5l-2.5,2.5L14,6.8z M14,6.8"/>
</g>
</svg>
