<?xml version="1.0" encoding="utf-8"?>
<!-- Generator: Adobe Illustrator 18.0.0, SVG Export Plug-In . SVG Version: 6.00 Build 0)  -->
<!DOCTYPE svg PUBLIC "-//W3C//DTD SVG 1.1//EN" "http://www.w3.org/Graphics/SVG/1.1/DTD/svg11.dtd">
<svg version="1.1" id="Layer_1" xmlns="http://www.w3.org/2000/svg" xmlns:xlink="http://www.w3.org/1999/xlink" x="0px" y="0px"
	 viewBox="0 0 16 16" enable-background="new 0 0 16 16" xml:space="preserve">
<g id="Layer_2">
	<g id="Layer_2_1_">
		<rect fill="none" width="16" height="16"/>
	</g>
</g>
<g id="art">
	<g>
		<path fill="#FFFFFF" d="M4.1,14h7.7V8.3H4.1V14z M7,9.9h2v2.6H7V9.9z"/>
		<rect x="7" y="9.9" fill="#3D6380" width="1.9" height="2.6"/>
		<path fill="#3D6380" d="M12.6,6.4V4.7C12.6,2.1,10.5,0,8,0S3.4,2.1,3.4,4.7v1.7H2.2V16h11.6V6.4H12.6z M5.4,4.7
			c0-1.5,1.2-2.8,2.6-2.8c1.5,0,2.6,1.2,2.6,2.8v1.7H5.4V4.7z M11.9,14H4.1V8.3h7.7V14H11.9z"/>
	</g>
</g>
</svg>
