<?xml version="1.0" encoding="utf-8"?>
<!-- Generator: Adobe Illustrator 18.0.0, SVG Export Plug-In . SVG Version: 6.00 Build 0)  -->
<!DOCTYPE svg PUBLIC "-//W3C//DTD SVG 1.1//EN" "http://www.w3.org/Graphics/SVG/1.1/DTD/svg11.dtd">
<svg version="1.1" id="Layer_1" xmlns="http://www.w3.org/2000/svg" xmlns:xlink="http://www.w3.org/1999/xlink" x="0px" y="0px"
	 viewBox="0 0 24 24" enable-background="new 0 0 24 24" xml:space="preserve">
<g id="Layer_2">
	<g id="Layer_2_1_">
		<rect x="2" y="2" fill="none" width="20" height="20"/>
	</g>
</g>
<g id="art">
	<g>
		<path fill="#FFFFFF" d="M7.1,19.5h9.6v-7.1H7.1V19.5z M10.8,14.4h2.5v3.3h-2.5V14.4z"/>
		<rect x="10.8" y="14.4" fill="#3D6380" width="2.4" height="3.3"/>
		<path fill="#3D6380" d="M17.8,10V7.9C17.8,4.6,15.1,2,12,2S6.3,4.6,6.3,7.9V10H4.8v12h14.5V10H17.8z M8.8,7.9
			c0-1.9,1.5-3.5,3.3-3.5c1.9,0,3.3,1.5,3.3,3.5V10H8.8V7.9z M16.9,19.5H7.1v-7.1h9.6v7.1H16.9z"/>
	</g>
</g>
</svg>
