<?xml version="1.0" encoding="utf-8"?>
<!-- Generator: Adobe Illustrator 18.0.0, SVG Export Plug-In . SVG Version: 6.00 Build 0)  -->
<!DOCTYPE svg PUBLIC "-//W3C//DTD SVG 1.1//EN" "http://www.w3.org/Graphics/SVG/1.1/DTD/svg11.dtd">
<svg version="1.1" id="Layer_1" xmlns="http://www.w3.org/2000/svg" xmlns:xlink="http://www.w3.org/1999/xlink" x="0px" y="0px"
	 viewBox="0 0 42 42" enable-background="new 0 0 42 42" xml:space="preserve">
<g>
	<g>
		<polygon fill="none" points="25.3,35.6 25.3,37.5 27.2,37.5 35,29.6 33.1,27.8 		"/>
		
			<rect x="34" y="26.6" transform="matrix(-0.7071 -0.7071 0.7071 -0.7071 40.9819 71.8223)" fill="none" width="2.6" height="1.6"/>
		<rect x="18.9" y="21" fill="#EFF9FE" width="10.7" height="4.7"/>
		<rect x="18.9" y="26.5" fill="#FFFFFF" width="4.7" height="5"/>
		<polygon fill="#FFFFFF" points="24.8,26.5 24.8,30.9 29.6,26.5 29.6,26.5 		"/>
		<path fill="#3D6480" d="M24.8,26.5h4.8v0.1l1.7-1.5v-5.8H17.2v13.9h5l2.6-2.3V26.5z M18.9,21h10.7v4.7H18.9V21z M23.6,31.5h-4.7
			v-5h4.7V31.5z"/>
		<path fill="#3D6480" d="M37.9,26.7l-1.9-1.9L35,23.8l-1.1,1.1l-8.6,8.6L23.8,35v2.1V39h1.9h2.1l1.5-1.5l8.7-8.7l1.1-1.1L37.9,26.7
			z M27.2,37.5h-1.9v-1.9l7.8-7.8l1.9,1.9L27.2,37.5z M35.7,28.9l-1.9-1.9l1.2-1.2l1.9,1.9L35.7,28.9z"/>
	</g>
	<g>
		<path fill="#E67C25" d="M5.2,9.8l-0.1,5.4H4.2l0.2-6.7h1.1l1.9,5.1l1.9-5.1h1.1l0.2,6.7H9.9L9.8,9.8l-1.7,4.5H6.9L5.2,9.8z"/>
		<path fill="#E67C25" d="M13.5,15.3c-1.4,0-2-0.8-2-1.8V12c0-1,0.6-1.8,2-1.8s2,0.8,2,1.8v1.4C15.5,14.5,14.9,15.3,13.5,15.3z
			 M13.5,10.9c-0.8,0-1.1,0.4-1.1,1.1v1.5c0,0.7,0.4,1.1,1.1,1.1s1.1-0.4,1.1-1.1V12C14.6,11.3,14.2,10.9,13.5,10.9z"/>
		<path fill="#E67C25" d="M19.2,15.2v-3.7c0-0.3-0.2-0.4-0.5-0.4c-0.4,0-1.1,0.2-1.6,0.5v3.7h-0.8v-4.9H17l0.1,0.4
			c0.5-0.3,1.4-0.5,2-0.5c0.8,0,1.1,0.5,1.1,1.2v3.7H19.2z"/>
		<path fill="#E67C25" d="M22.9,14.6c0.5,0,1-0.1,1.5-0.2l0.1,0.7c-0.5,0.2-1.1,0.3-1.7,0.3c-1.4,0-1.9-0.7-1.9-1.8V12
			c0-1,0.5-1.8,1.9-1.8c1.4,0,1.8,0.8,1.8,1.8v1h-2.9v0.4C21.7,14.3,21.9,14.6,22.9,14.6z M21.7,12.4h2.1V12c0-0.7-0.2-1.1-1-1.1
			c-0.8,0-1.1,0.4-1.1,1.1V12.4z"/>
		<path fill="#E67C25" d="M28,15.1c-0.3,0.1-0.7,0.2-1,0.2c-0.8,0-1.2-0.3-1.2-1.1V11h-0.9v-0.7h0.9V9.1L26.6,9v1.3H28L27.9,11h-1.3
			v3c0,0.4,0.1,0.5,0.5,0.5c0.2,0,0.5,0,0.8-0.1L28,15.1z"/>
		<path fill="#E67C25" d="M31,8.5c1.6,0,2.1,0.8,2.1,1.9v2.8c0,1.1-0.5,1.9-2.1,1.9h-2.3V8.5H31z M29.5,14.4H31c1,0,1.3-0.4,1.3-1.2
			v-2.7c0-0.8-0.3-1.2-1.3-1.2h-1.4V14.4z"/>
		<path fill="#E67C25" d="M34.2,15.2V8.5h2.6c1,0,1.6,0.5,1.6,1.3v0.8c0,0.5-0.2,0.9-0.8,1.1c0.6,0.1,1,0.5,1,1.2v0.8
			c0,0.9-0.6,1.4-1.6,1.4H34.2z M37.4,9.9c0-0.4-0.2-0.6-0.8-0.6H35v2.2h1.5c0.6,0,0.9-0.3,0.9-0.8V9.9z M37.7,13
			c0-0.5-0.3-0.8-1-0.8H35v2.3h1.7c0.6,0,0.9-0.3,0.9-0.8V13z"/>
	</g>
</g>
</svg>
