<?xml version="1.0" encoding="utf-8"?>
<!-- Generator: Adobe Illustrator 17.0.0, SVG Export Plug-In . SVG Version: 6.00 Build 0)  -->
<!DOCTYPE svg PUBLIC "-//W3C//DTD SVG 1.1//EN" "http://www.w3.org/Graphics/SVG/1.1/DTD/svg11.dtd">
<svg version="1.1" id="Layer_1" xmlns="http://www.w3.org/2000/svg" xmlns:xlink="http://www.w3.org/1999/xlink" x="0px" y="0px"
	 width="42px" height="42px" viewBox="0 0 42 42" enable-background="new 0 0 42 42" xml:space="preserve">
<g>
	
		<rect x="34.145" y="26.798" transform="matrix(-0.7071 -0.7071 0.7071 -0.7071 41.022 72.2189)" fill="none" width="2.646" height="1.632"/>
	<polygon fill="none" points="25.408,35.801 25.408,37.69 27.263,37.69 35.119,29.833 33.248,27.962 	"/>
	<path fill="#3D6480" d="M38.041,26.912l-1.872-1.872l-1.061-1.061l-1.062,1.061l-8.639,8.639l-1.5,1.5v2.122v1.89h1.854h2.121
		l1.5-1.5l8.657-8.657l1.061-1.061L38.041,26.912z M27.263,37.69h-1.854v-1.89l7.84-7.839l1.871,1.871L27.263,37.69z M35.826,29.126
		l-1.871-1.871l1.153-1.154l1.872,1.872L35.826,29.126z"/>
	<path fill="#FFECCE" d="M5.857,7.886v0.746C6.28,8.919,7,9.19,7.979,9.412c0.511-0.848,1.204-1.822,2.11-2.814
		C7.427,6.904,5.963,7.503,5.857,7.886z"/>
	<path fill="#FFECCE" d="M7.702,22.081c-0.752-0.176-1.366-0.384-1.846-0.623v4.978c0,0.589,2.838,1.734,8.04,1.734
		c0.001,0,0.001,0,0.001,0c1.205,0,2.35-0.069,3.396-0.19v-5.466c-1.491,0.145-2.836,0.164-3.387,0.164
		C11.556,22.677,9.353,22.466,7.702,22.081z"/>
	<path fill="#FFECCE" d="M21.775,8.562c-1.213,0.185-2.285,0.592-3.182,1.066c1.526-0.246,2.617-0.603,3.182-0.99V8.562z"/>
	<path fill="#FFECCE" d="M5.857,14.419c1.053,0.714,3.932,1.331,8.05,1.331c2.264,0,4.362-0.202,5.906-0.567
		c0.886-0.21,1.554-0.473,1.962-0.753V9.573c-1.211,0.608-3.098,0.905-4.753,1.051c-0.929,0.698-1.454,1.298-1.466,1.311
		c-0.363,0.423-0.92,0.597-1.44,0.492c-0.197,0.199-0.443,0.348-0.72,0.41L8.475,13.95c-0.11,0.025-0.221,0.037-0.331,0.037
		c-0.416,0-0.82-0.174-1.107-0.488c-0.363-0.398-0.485-0.961-0.319-1.474C6.747,11.93,7,11.188,7.569,10.13
		C6.88,9.962,6.306,9.767,5.857,9.543V14.419z"/>
	<path fill="#FFECCE" d="M21.775,15.36c-2.221,1.115-6.732,1.19-7.868,1.19c-2.351,0-4.554-0.212-6.204-0.597
		c-0.752-0.176-1.366-0.384-1.846-0.623v5.217c1.053,0.714,3.932,1.331,8.05,1.331c1.197,0,2.34-0.06,3.387-0.167v-2.252h4.481
		V15.36z"/>
	<path fill="#9EB1C0" d="M8.144,12.487l4.921-1.113c0,0,1.113-3.808,7.383-6.209c6.269-2.403,12.362-0.177,15.175,3.162
		c0,0-4.571-9.256-16.991-5.39C10.405,5.498,8.144,12.487,8.144,12.487z"/>
	<path fill="#3D6480" d="M24.874,26.674H29.6l1.815-1.815v-3.154v-1.563c0.969-0.618,7.196-4.844,4.382-9.822
		c-1.495-2.646-5.077-5.718-11.718-4.921c-7.323,0.878-9.667,5.565-9.667,5.565s2.812-3.34,7.382-3.925
		c4.57-0.587,8.086,0,11.132,3.983c2.754,3.602-0.801,8.196-1.511,9.047v-0.611h-1.393h-6.549V8.384
		c-0.466,0.03-0.955,0.073-1.488,0.142c-0.072,0.009-0.14,0.025-0.211,0.036v0.077c-0.565,0.387-1.656,0.744-3.182,0.99
		c-0.607,0.321-1.134,0.667-1.571,0.995c1.655-0.146,3.542-0.442,4.753-1.051v4.856c-0.408,0.281-1.076,0.543-1.962,0.753
		c-1.544,0.365-3.643,0.567-5.906,0.567c-4.118,0-6.997-0.617-8.05-1.331V9.543C6.306,9.767,6.88,9.962,7.569,10.13
		c0.122-0.226,0.258-0.466,0.41-0.719C7,9.19,6.28,8.919,5.857,8.632V7.886c0.106-0.383,1.571-0.982,4.232-1.289
		c0.572-0.626,1.234-1.253,1.989-1.86c-3.215,0.133-7.92,0.737-7.92,3.144v18.555c0,3.269,8.113,3.435,9.739,3.435
		c0.001,0,0.001,0,0.001,0c1.189,0,2.337-0.061,3.396-0.175v3.711h5.573l2.008-2.008V26.674z M29.716,21.158v4.715H18.992v-4.715
		H29.716z M17.293,27.98c-1.045,0.122-2.19,0.19-3.396,0.19c0,0,0,0-0.001,0c-5.202,0-8.04-1.146-8.04-1.734v-4.978
		c0.479,0.239,1.093,0.447,1.846,0.623c1.65,0.385,3.854,0.597,6.204,0.597c0.55,0,1.896-0.019,3.387-0.164V27.98z M17.293,21.711
		c-1.047,0.107-2.19,0.167-3.387,0.167c-4.118,0-6.997-0.617-8.05-1.331V15.33c0.479,0.239,1.093,0.447,1.846,0.623
		c1.65,0.385,3.854,0.597,6.204,0.597c1.136,0,5.647-0.075,7.868-1.19v4.099h-4.481V21.711z M23.675,31.708h-4.683v-5.034h4.683
		V31.708z"/>
	<rect x="18.992" y="21.158" fill="#EFF9FE" width="10.724" height="4.715"/>
	<rect x="18.992" y="26.674" fill="#FFFFFF" width="4.683" height="5.034"/>
	<polygon fill="#FFFFFF" points="24.874,31.399 29.6,26.674 24.874,26.674 	"/>
</g>
</svg>
