<?xml version="1.0" encoding="utf-8"?>
<!-- Generator: Adobe Illustrator 18.0.0, SVG Export Plug-In . SVG Version: 6.00 Build 0)  -->
<!DOCTYPE svg PUBLIC "-//W3C//DTD SVG 1.1//EN" "http://www.w3.org/Graphics/SVG/1.1/DTD/svg11.dtd">
<svg version="1.1" id="Layer_1" xmlns="http://www.w3.org/2000/svg" xmlns:xlink="http://www.w3.org/1999/xlink" x="0px" y="0px"
	 viewBox="0 0 42 42" enable-background="new 0 0 42 42" xml:space="preserve">
<g>
	<g>
		<path fill="none" d="M23.8,12c0-0.7-0.2-1.1-1-1.1c-0.8,0-1.1,0.4-1.1,1.1v0.4h2.1V12z"/>
		<path fill="none" d="M13.5,10.9c-0.8,0-1.1,0.4-1.1,1.1v1.5c0,0.7,0.4,1.1,1.1,1.1s1.1-0.4,1.1-1.1V12
			C14.6,11.3,14.2,10.9,13.5,10.9z"/>
		<path fill="none" d="M37.4,10.6V9.9c0-0.4-0.2-0.6-0.8-0.6H35v2.2h1.5C37.2,11.4,37.4,11.1,37.4,10.6z"/>
		<path fill="none" d="M32.3,13.2v-2.7c0-0.8-0.3-1.2-1.3-1.2h-1.4v5.1H31C32,14.4,32.3,14,32.3,13.2z"/>
		<polygon fill="none" points="25.3,35.6 25.3,37.5 27.2,37.5 35,29.6 33.1,27.8 		"/>
		
			<rect x="34" y="26.6" transform="matrix(-0.7071 -0.7071 0.7071 -0.7071 40.9827 71.8222)" fill="none" width="2.6" height="1.6"/>
		<path fill="none" d="M37.7,13.7V13c0-0.5-0.3-0.8-1-0.8H35v2.3h1.7C37.4,14.4,37.7,14.2,37.7,13.7z"/>
		<rect x="18.9" y="21" fill="#EFF9FE" width="10.7" height="4.7"/>
		<rect x="18.9" y="26.5" fill="#FFFFFF" width="4.7" height="5"/>
		<polygon fill="#FFFFFF" points="24.8,26.5 24.8,30.9 29.6,26.5 29.6,26.5 		"/>
		<path fill="#3D6480" d="M24.8,26.5h4.8v0.1l1.7-1.5v-5.8H17.2v13.9h5l2.6-2.3V26.5z M18.9,21h10.7v4.7H18.9V21z M23.6,31.5h-4.7
			v-5h4.7V31.5z"/>
		<path fill="#3D6480" d="M37.9,26.7l-1.9-1.9L35,23.8l-1.1,1.1l-8.6,8.6L23.8,35v2.1V39h1.9h2.1l1.5-1.5l8.7-8.7l1.1-1.1L37.9,26.7
			z M27.2,37.5h-1.9v-1.9l7.8-7.8l1.9,1.9L27.2,37.5z M35.7,28.9l-1.9-1.9l1.2-1.2l1.9,1.9L35.7,28.9z"/>
		<polygon fill="#3D6480" points="9.4,8.5 7.5,13.7 5.6,8.5 4.5,8.5 4.2,15.2 5.1,15.2 5.2,9.8 6.9,14.3 8.1,14.3 9.8,9.8 9.9,15.2 
			10.7,15.2 10.5,8.5 		"/>
		<path fill="#3D6480" d="M13.5,10.2c-1.4,0-2,0.8-2,1.8v1.4c0,1,0.6,1.8,2,1.8s2-0.8,2-1.8V12C15.5,11,14.9,10.2,13.5,10.2z
			 M14.6,13.5c0,0.7-0.4,1.1-1.1,1.1s-1.1-0.4-1.1-1.1V12c0-0.7,0.4-1.1,1.1-1.1s1.1,0.4,1.1,1.1V13.5z"/>
		<path fill="#3D6480" d="M19.2,11.5v3.7h0.8v-3.7c0-0.7-0.3-1.2-1.1-1.2c-0.6,0-1.4,0.3-2,0.5L17,10.3h-0.7v4.9h0.8v-3.7
			c0.5-0.3,1.3-0.5,1.6-0.5C19.1,11,19.2,11.1,19.2,11.5z"/>
		<path fill="#3D6480" d="M22.8,15.3c0.6,0,1.3-0.1,1.7-0.3l-0.1-0.7c-0.5,0.1-1.1,0.2-1.5,0.2c-0.9,0-1.2-0.3-1.2-1.1v-0.4h2.9v-1
			c0-1-0.4-1.8-1.8-1.8c-1.4,0-1.9,0.8-1.9,1.8v1.5C20.9,14.6,21.4,15.3,22.8,15.3z M21.7,12c0-0.7,0.3-1.1,1.1-1.1
			c0.8,0,1,0.4,1,1.1v0.4h-2.1V12z"/>
		<path fill="#3D6480" d="M25.8,14.2c0,0.8,0.4,1.1,1.2,1.1c0.4,0,0.7-0.1,1-0.2l-0.1-0.6c-0.3,0.1-0.5,0.1-0.8,0.1
			c-0.4,0-0.5-0.2-0.5-0.5v-3h1.3l0.1-0.7h-1.4V9l-0.8,0.1v1.2h-0.9V11h0.9V14.2z"/>
		<path fill="#3D6480" d="M33.2,13.3v-2.8c0-1.1-0.5-1.9-2.1-1.9h-2.3v6.7H31C32.6,15.2,33.2,14.3,33.2,13.3z M29.5,14.4V9.3H31
			c1,0,1.3,0.4,1.3,1.2v2.7c0,0.8-0.3,1.2-1.3,1.2H29.5z"/>
		<path fill="#3D6480" d="M38.5,13.8V13c0-0.7-0.4-1.1-1-1.2c0.6-0.2,0.8-0.6,0.8-1.1V9.9c0-0.9-0.5-1.3-1.6-1.3h-2.6v6.7h2.7
			C37.9,15.2,38.5,14.7,38.5,13.8z M35,9.3h1.7c0.5,0,0.8,0.2,0.8,0.6v0.7c0,0.5-0.3,0.8-0.9,0.8H35V9.3z M35,14.4v-2.3h1.7
			c0.7,0,1,0.3,1,0.8v0.7c0,0.5-0.3,0.8-0.9,0.8H35z"/>
	</g>
</g>
</svg>
