<?xml version="1.0" encoding="utf-8"?>
<!-- Generator: Adobe Illustrator 18.0.0, SVG Export Plug-In . SVG Version: 6.00 Build 0)  -->
<!DOCTYPE svg PUBLIC "-//W3C//DTD SVG 1.1//EN" "http://www.w3.org/Graphics/SVG/1.1/DTD/svg11.dtd">
<svg version="1.1" id="Layer_1" xmlns="http://www.w3.org/2000/svg" xmlns:xlink="http://www.w3.org/1999/xlink" x="0px" y="0px"
	 viewBox="0 0 42 42" enable-background="new 0 0 42 42" xml:space="preserve">
<g>
	<g>
		<polygon fill-rule="evenodd" clip-rule="evenodd" fill="#EEF8FD" points="26.5,27.7 15.3,22.9 15.3,9.2 26.5,5.1 37.6,9.2 
			37.6,22.9 		"/>
		<path fill="#3D6480" d="M26.5,28.5l-11.9-5.1V8.7l11.9-4.4l11.8,4.4v14.7L26.5,28.5z M16.1,22.4l10.4,4.5l10.3-4.5V9.7L26.5,5.9
			L16.1,9.7V22.4z"/>
	</g>
	<rect x="26.2" y="14" fill="#3D6480" width="0.7" height="13.8"/>
	<g>
		<rect x="30" y="12.2" fill="#3D6480" width="0.7" height="13.8"/>
		<rect x="33.6" y="10.7" fill="#3D6480" width="0.7" height="13.8"/>
	</g>
	<g>
		<rect x="22.3" y="12.1" fill="#3D6480" width="0.7" height="13.8"/>
		<rect x="18.7" y="10.6" fill="#3D6480" width="0.7" height="13.8"/>
	</g>
	<polygon fill="#3D6480" points="26.5,14.4 15.3,9.7 15.5,9 26.5,13.6 37.5,9 37.8,9.7 	"/>
	
		<rect x="27.9" y="4.2" transform="matrix(0.3417 0.9398 -0.9398 0.3417 28.2573 -19.8459)" fill="#3D6480" width="0.7" height="12.1"/>
	
		<rect x="24.3" y="3" transform="matrix(0.3345 0.9424 -0.9424 0.3345 24.8151 -17.3272)" fill="#3D6480" width="0.7" height="11.9"/>
	<rect x="18.7" y="10" transform="matrix(0.9383 0.3459 -0.3459 0.9383 5.1012 -7.962)" fill="#3D6480" width="12.3" height="0.7"/>
	
		<rect x="22.2" y="8.4" transform="matrix(0.9331 0.3596 -0.3596 0.9331 5.0241 -9.5935)" fill="#3D6480" width="12.1" height="0.7"/>
	<polygon fill="#3D6480" points="26.5,18.8 15.3,14.1 15.5,13.4 26.5,18.1 37.5,13.4 37.8,14.1 	"/>
	<polygon fill="#3D6480" points="26.5,23.3 15.3,18.5 15.5,17.9 26.5,22.5 37.5,17.9 37.8,18.5 	"/>
</g>
<polygon fill="#0CB20F" points="18.7,27.7 17.1,28.2 18,31.2 8.3,26.9 8.3,13.3 10.5,15.5 11.7,14.3 7.5,10.1 3.2,14.3 4.4,15.5 
	6.6,13.3 6.6,27.4 6.6,27.9 7.1,28.2 17.2,32.7 14.2,33.6 14.6,35.2 20.4,33.5 "/>
<path fill-rule="evenodd" clip-rule="evenodd" fill="#3D6480" d="M21.1,37.5c0,0,0.1,0,0.1,0c0,0,0.1,0,0.1,0l0.2,0.1l0.1,0
	c0.1,0,0.1,0,0.1,0c0,0,0.1-0.1,0.3-0.3c0.1-0.1,0.4-0.4,0.8-0.9c0,0,0-0.2-0.1-0.4c-0.1-0.3-0.1-0.5-0.2-0.7
	c-0.1-0.2-0.1-0.3-0.1-0.4c0,0-0.1-0.1-0.2-0.1c0,0-0.1,0-0.2,0l-0.3,0.1l-0.1-0.2l0.6-0.2c0.1,0,0.3-0.1,0.4-0.1c0.1,0,0.2,0,0.3,0
	c0.1,0,0.3,0,0.3,0.1c0.1,0.1,0.2,0.3,0.3,0.7l0.1,0.3c0.2-0.3,0.4-0.5,0.6-0.7c0.1-0.1,0.3-0.2,0.4-0.3c0.1-0.1,0.3-0.1,0.4-0.1
	c0.1,0,0.2,0,0.3,0c0.1,0.1,0.2,0.2,0.2,0.3c0,0.1,0,0.2-0.1,0.3c-0.1,0.1-0.2,0.1-0.3,0.1c0,0-0.1,0-0.1,0c0,0-0.1,0-0.1,0l-0.1,0
	c0,0-0.1,0-0.1,0c0,0,0,0,0,0c-0.1,0-0.3,0.1-0.5,0.4c-0.3,0.3-0.4,0.5-0.4,0.5c0,0,0,0.2,0.1,0.4l0.2,0.7c0.1,0.2,0.1,0.4,0.2,0.5
	c0.1,0.1,0.1,0.2,0.2,0.2c0.1,0,0.1,0,0.2-0.1c0.1-0.1,0.2-0.2,0.4-0.4l0,0l0.2,0.1l0,0c-0.1,0.2-0.3,0.4-0.4,0.5
	c-0.3,0.3-0.5,0.4-0.8,0.4c-0.2,0-0.3-0.1-0.4-0.2c-0.1-0.1-0.1-0.2-0.2-0.4l-0.3-0.9l-0.9,1c-0.2,0.2-0.3,0.3-0.4,0.4
	c-0.1,0.1-0.3,0.1-0.4,0.1c-0.2,0-0.4-0.1-0.5-0.2c0-0.1-0.1-0.1-0.1-0.2c0-0.1,0-0.2,0.1-0.3C20.9,37.5,21,37.5,21.1,37.5z"/>
<path fill-rule="evenodd" clip-rule="evenodd" fill="#3D6480" d="M6.8,7.4l-1,1.1C5.7,8.7,5.5,8.8,5.4,8.9C5.3,9,5.1,9,4.9,9
	C4.7,9,4.5,9,4.4,8.8C4.4,8.8,4.3,8.7,4.3,8.6c0-0.1,0-0.2,0.2-0.3c0.1-0.1,0.2-0.1,0.3-0.1c0,0,0.1,0,0.1,0c0,0,0.1,0,0.1,0.1
	l0.2,0.1l0.1,0c0.1,0,0.1,0,0.1,0c0,0,0.2-0.2,0.3-0.4c0.1-0.1,0.4-0.5,0.8-1c0,0,0-0.2-0.1-0.4C6.5,6.2,6.5,5.9,6.4,5.7
	C6.3,5.5,6.3,5.4,6.2,5.3c0,0-0.1-0.1-0.2-0.1c0,0-0.1,0-0.3,0L5.4,5.4L5.3,5.1l0.6-0.2c0.1,0,0.3-0.1,0.4-0.1c0.1,0,0.2,0,0.3,0
	c0.2,0,0.3,0,0.4,0.1c0.1,0.1,0.2,0.4,0.3,0.7L7.4,6C7.7,5.7,7.9,5.4,8,5.3C8.2,5.1,8.4,5,8.5,4.9c0.1-0.1,0.3-0.1,0.4-0.1
	c0.1,0,0.2,0,0.3,0.1C9.4,4.9,9.5,5,9.5,5.2c0,0.1,0,0.2-0.1,0.3C9.3,5.6,9.2,5.6,9.1,5.6c0,0-0.1,0-0.1,0c0,0-0.1,0-0.1,0l-0.1,0
	c0,0-0.1,0-0.1,0c0,0,0,0,0,0c-0.1,0-0.3,0.1-0.6,0.5C7.7,6.3,7.6,6.5,7.6,6.5"/>
</svg>
