<?xml version="1.0" encoding="utf-8"?>
<!-- Generator: Adobe Illustrator 17.0.0, SVG Export Plug-In . SVG Version: 6.00 Build 0)  -->
<!DOCTYPE svg PUBLIC "-//W3C//DTD SVG 1.1//EN" "http://www.w3.org/Graphics/SVG/1.1/DTD/svg11.dtd">
<svg version="1.1" id="Layer_1" xmlns="http://www.w3.org/2000/svg" xmlns:xlink="http://www.w3.org/1999/xlink" x="0px" y="0px"
	 width="42px" height="42px" viewBox="0 0 42 42" enable-background="new 0 0 42 42" xml:space="preserve">
<g>
	<path fill="#5FB34F" d="M18.653,28.045c0.271-0.734,0.605-1.445,0.812-2.201c0.741-1.891,1.333-3.837,1.936-5.775
		c0.286-1.128,0.712-2.215,1.026-3.334c0.813-2.491,1.619-4.986,2.361-7.501c0.353-1.133,0.655-2.281,0.938-3.434
		c0.001-0.128-0.003-0.255-0.013-0.381c-0.14,0.287-0.251,0.601-0.486,0.827c-0.27,0.26-0.602,0.448-0.95,0.579
		c-0.695,0.271-1.361,0.609-2.006,0.984c-1.084,0.636-2.094,1.396-3.017,2.248c-1.358,1.261-2.52,2.731-3.453,4.333
		c-1.335,2.313-2.325,4.891-2.44,7.583c-0.172,3.369,0.845,6.734,2.595,9.595c0.181,0.281,0.376,0.553,0.532,0.849
		c0.818-1.041,1.245-2.317,1.83-3.491C18.437,28.635,18.546,28.34,18.653,28.045z"/>
	
		<linearGradient id="SVGID_1_" gradientUnits="userSpaceOnUse" x1="3434.9417" y1="-12595.5625" x2="3436.6597" y2="-12595.0039" gradientTransform="matrix(1 0 0 1 -3418.4856 12628)">
		<stop  offset="0" style="stop-color:#B3B193"/>
		<stop  offset="0.9961" style="stop-color:#E0DFCD"/>
		<stop  offset="1" style="stop-color:#E0DFCD"/>
	</linearGradient>
	<path fill="url(#SVGID_1_)" d="M18.318,28.926c-0.585,1.174-1.012,2.45-1.83,3.491l-0.031,0.04
		c0.014,0.621-0.079,1.236-0.193,1.844c-0.117,0.576-0.304,1.133-0.45,1.701l0.074,0.11c0.227,0.144,0.438,0.31,0.652,0.47
		c0.166-0.712,0.389-1.408,0.607-2.105c0.271-0.651,0.51-1.377,1.133-1.785c-0.097-0.151-0.192-0.305-0.277-0.464
		C17.737,31.129,18.024,29.988,18.318,28.926z"/>
	<path fill="#45A136" d="M28.633,17.48c0.016-2.759-0.575-5.522-1.753-8.019c-0.225-0.497-0.486-0.976-0.7-1.476
		c-0.267-0.701-0.344-1.451-0.453-2.187c-0.283,1.152-0.586,2.301-0.938,3.434c-0.742,2.515-1.548,5.01-2.361,7.501
		c-0.314,1.119-0.74,2.206-1.026,3.334c-0.603,1.938-1.194,3.885-1.936,5.775c-0.206,0.756-0.541,1.467-0.812,2.201
		c-0.107,0.295-0.217,0.59-0.335,0.881c-0.294,1.063-0.581,2.203-0.315,3.302c0.085,0.159,0.181,0.313,0.277,0.464
		c2.246-0.76,4.291-2.077,5.952-3.766c2.418-2.459,3.884-5.763,4.318-9.166c0.075-0.757,0.083-1.518,0.106-2.277L28.633,17.48z"/>
	<polygon fill="#3D6480" points="9.832,8.541 4.606,3.315 3.263,4.659 8.489,9.885 5.343,9.886 5.343,11.786 11.732,11.785 
		11.732,5.458 9.832,5.458 	"/>
</g>
</svg>
