<?xml version="1.0" encoding="utf-8"?>
<!-- Generator: Adobe Illustrator 18.0.0, SVG Export Plug-In . SVG Version: 6.00 Build 0)  -->
<!DOCTYPE svg PUBLIC "-//W3C//DTD SVG 1.1//EN" "http://www.w3.org/Graphics/SVG/1.1/DTD/svg11.dtd">
<svg version="1.1" id="Layer_1" xmlns="http://www.w3.org/2000/svg" xmlns:xlink="http://www.w3.org/1999/xlink" x="0px" y="0px"
	 viewBox="0 0 42 42" enable-background="new 0 0 42 42" xml:space="preserve">
<g>
	<g>
		<path fill="#3D6480" d="M3.9,30.9l-0.1,5.4H3l0.2-6.7h1.1l1.9,5.1l1.9-5.1h1.1l0.2,6.7H8.6l-0.1-5.4l-1.7,4.5H5.6L3.9,30.9z"/>
		<path fill="#3D6480" d="M12.2,36.4c-1.4,0-2-0.8-2-1.8v-1.4c0-1,0.6-1.8,2-1.8c1.4,0,2,0.8,2,1.8v1.4
			C14.2,35.6,13.6,36.4,12.2,36.4z M12.2,32.1c-0.8,0-1.1,0.4-1.1,1.1v1.5c0,0.7,0.4,1.1,1.1,1.1c0.8,0,1.1-0.4,1.1-1.1v-1.5
			C13.3,32.4,13,32.1,12.2,32.1z"/>
		<path fill="#3D6480" d="M18,36.3v-3.7c0-0.3-0.2-0.4-0.5-0.4c-0.4,0-1.1,0.2-1.6,0.5v3.7H15v-4.9h0.7l0.1,0.4
			c0.5-0.3,1.4-0.5,2-0.5c0.8,0,1.1,0.5,1.1,1.2v3.7H18z"/>
		<path fill="#3D6480" d="M23.6,31.9L23.1,32c0.2,0.3,0.3,0.6,0.3,1v0.2c0,1-0.6,1.7-1.9,1.7c-0.2,0-0.3,0-0.5,0
			c-0.2,0.1-0.4,0.3-0.4,0.5c0,0.2,0.1,0.3,0.3,0.3c0.5,0.1,0.8,0.1,1.4,0.1c0.9,0.1,1.2,0.4,1.2,1.2c0,1.1-0.4,1.4-2.1,1.4
			c-0.4,0-1.2-0.1-1.8-0.2l0.1-0.7c0.5,0.1,1.1,0.2,1.6,0.2c1.2,0,1.4-0.2,1.4-0.7c0-0.4-0.1-0.5-0.7-0.5c-0.5-0.1-0.7-0.1-1.3-0.1
			c-0.7-0.1-0.9-0.4-0.9-0.9c0-0.4,0.2-0.7,0.5-0.9c-0.5-0.3-0.7-0.7-0.7-1.4V33c0-1.1,0.5-1.7,1.9-1.7c0.3,0,0.6,0,0.8,0.1h1.4
			V31.9z M21.4,32c-0.8,0-1.1,0.3-1.1,1v0.2c0,0.7,0.3,1,1.1,1c0.8,0,1.1-0.3,1.1-1V33C22.5,32.3,22.2,32,21.4,32z"/>
		<path fill="#3D6480" d="M26,36.4c-1.4,0-2-0.8-2-1.8v-1.4c0-1,0.6-1.8,2-1.8c1.4,0,2,0.8,2,1.8v1.4C28,35.6,27.4,36.4,26,36.4z
			 M26,32.1c-0.8,0-1.1,0.4-1.1,1.1v1.5c0,0.7,0.4,1.1,1.1,1.1c0.8,0,1.1-0.4,1.1-1.1v-1.5C27.1,32.4,26.8,32.1,26,32.1z"/>
		<path fill="#3D6480" d="M31.2,29.7c1.6,0,2.1,0.8,2.1,1.9v2.8c0,1.1-0.5,1.9-2.1,1.9h-2.3v-6.7H31.2z M29.7,35.5h1.4
			c1,0,1.3-0.4,1.3-1.2v-2.7c0-0.8-0.3-1.2-1.3-1.2h-1.4V35.5z"/>
		<path fill="#3D6480" d="M34.3,36.3v-6.7h2.6c1,0,1.6,0.5,1.6,1.3v0.8c0,0.5-0.2,0.9-0.8,1.1c0.6,0.1,1,0.5,1,1.2v0.8
			c0,0.9-0.6,1.4-1.6,1.4H34.3z M37.6,31c0-0.4-0.2-0.6-0.8-0.6h-1.7v2.2h1.5c0.6,0,0.9-0.3,0.9-0.8V31z M37.8,34.1
			c0-0.5-0.3-0.8-1-0.8h-1.7v2.3h1.7c0.6,0,0.9-0.3,0.9-0.8V34.1z"/>
	</g>
	<g>
		<path fill="#FFECCE" d="M14.9,20.3c-0.8-0.2-1.4-0.4-1.8-0.6l0,5c0,0.6,2.8,1.7,8,1.7h0c2.2,0,4.3-0.2,5.8-0.6
			c1.7-0.5,2.1-1,2.1-1.1v-4.9c-2.2,1.1-6.7,1.2-7.9,1.2C18.7,20.9,16.5,20.7,14.9,20.3z"/>
		<path fill="#FFECCE" d="M13,18.8c1.1,0.7,3.9,1.3,8,1.3c4,0,6.8-0.6,7.9-1.3v-5.2c-2.2,1.1-6.7,1.2-7.9,1.2
			c-2.3,0-4.5-0.2-6.2-0.6L13,16L13,18.8z"/>
		<path fill="#FFECCE" d="M21.1,14c0.9,0,1.7,0,2.5-0.1c0.1,0,0.2,0,0.4,0c0.3,0,0.6-0.1,0.9-0.1c0.1,0,0.2,0,0.3,0
			c0.3,0,0.6-0.1,0.9-0.1c0,0,0.1,0,0.1,0c1.3-0.2,2.2-0.6,2.8-0.9v-0.8c-0.2-0.5-3-1.5-8-1.5c-0.8,0-1.5,0-2.2,0.1l-3.1,3
			C17,13.8,18.9,14,21.1,14z"/>
		<path fill="#3D6480" d="M20.9,8.7c-0.1,0-0.3,0-0.4,0l-1.8,1.8c0.7,0,1.4-0.1,2.2-0.1c5,0,7.9,1,8,1.5v0.8
			c-0.5,0.3-1.5,0.7-2.8,0.9c0,0-0.1,0-0.1,0c-0.3,0.1-0.6,0.1-0.9,0.1c-0.1,0-0.2,0-0.3,0c-0.3,0-0.6,0.1-0.9,0.1
			c-0.1,0-0.2,0-0.4,0C22.8,14,22,14,21.1,14c-2.2,0-4.1-0.2-5.5-0.5l-0.7,0.7c1.6,0.4,3.8,0.6,6.2,0.6c1.1,0,5.6-0.1,7.9-1.2v5.2
			c-1,0.7-3.9,1.3-7.9,1.3c-4.1,0-7-0.6-8-1.3l0-2.8l-1.7,1.7v7c0,3.3,8.1,3.4,9.7,3.4h0c2.4,0,4.6-0.2,6.2-0.7
			c2.2-0.6,3.4-1.5,3.4-2.8V11.9C30.7,9,23.2,8.7,20.9,8.7z M29,24.7c0,0.2-0.4,0.7-2.1,1.1c-1.5,0.4-3.6,0.6-5.8,0.6h0
			c-5.2,0-8-1.1-8-1.7l0-5c0.5,0.2,1.1,0.4,1.8,0.6c1.7,0.4,3.9,0.6,6.2,0.6c1.1,0,5.6-0.1,7.9-1.2V24.7z"/>
	</g>
	<polygon fill="#3D6480" points="9.8,5.5 9.8,8.5 4.6,3.3 3.3,4.7 8.5,9.9 5.3,9.9 5.3,11.8 11.7,11.8 11.7,5.5 	"/>
	<g>
		<path fill="#FFECCE" d="M14.9,20.3c-0.8-0.2-1.4-0.4-1.8-0.6l0,5c0,0.6,2.8,1.7,8,1.7h0c2.2,0,4.3-0.2,5.8-0.6
			c1.7-0.5,2.1-1,2.1-1.1v-4.9c-2.2,1.1-6.7,1.2-7.9,1.2C18.7,20.9,16.5,20.7,14.9,20.3z"/>
		<path fill="#FFECCE" d="M13,18.8c1.1,0.7,3.9,1.3,8,1.3c4,0,6.8-0.6,7.9-1.3v-5.2c-2.2,1.1-6.7,1.2-7.9,1.2
			c-2.3,0-4.5-0.2-6.2-0.6L13,16L13,18.8z"/>
		<path fill="#FFECCE" d="M21.1,14c0.9,0,1.7,0,2.5-0.1c0.1,0,0.2,0,0.4,0c0.3,0,0.6-0.1,0.9-0.1c0.1,0,0.2,0,0.3,0
			c0.3,0,0.6-0.1,0.9-0.1c0,0,0.1,0,0.1,0c1.3-0.2,2.2-0.6,2.8-0.9v-0.8c-0.2-0.5-3-1.5-8-1.5c-0.8,0-1.5,0-2.2,0.1l-3.1,3
			C17,13.8,18.9,14,21.1,14z"/>
		<path fill="#3D6480" d="M20.9,8.7c-0.1,0-0.3,0-0.4,0l-1.8,1.8c0.7,0,1.4-0.1,2.2-0.1c5,0,7.9,1,8,1.5v0.8
			c-0.5,0.3-1.5,0.7-2.8,0.9c0,0-0.1,0-0.1,0c-0.3,0.1-0.6,0.1-0.9,0.1c-0.1,0-0.2,0-0.3,0c-0.3,0-0.6,0.1-0.9,0.1
			c-0.1,0-0.2,0-0.4,0C22.8,14,22,14,21.1,14c-2.2,0-4.1-0.2-5.5-0.5l-0.7,0.7c1.6,0.4,3.8,0.6,6.2,0.6c1.1,0,5.6-0.1,7.9-1.2v5.2
			c-1,0.7-3.9,1.3-7.9,1.3c-4.1,0-7-0.6-8-1.3l0-2.8l-1.7,1.7v7c0,3.3,8.1,3.4,9.7,3.4h0c2.4,0,4.6-0.2,6.2-0.7
			c2.2-0.6,3.4-1.5,3.4-2.8V11.9C30.7,9,23.2,8.7,20.9,8.7z M29,24.7c0,0.2-0.4,0.7-2.1,1.1c-1.5,0.4-3.6,0.6-5.8,0.6h0
			c-5.2,0-8-1.1-8-1.7l0-5c0.5,0.2,1.1,0.4,1.8,0.6c1.7,0.4,3.9,0.6,6.2,0.6c1.1,0,5.6-0.1,7.9-1.2V24.7z"/>
	</g>
	<polygon fill="#3D6480" points="9.8,5.5 9.8,8.5 4.6,3.3 3.3,4.7 8.5,9.9 5.3,9.9 5.3,11.8 11.7,11.8 11.7,5.5 	"/>
</g>
</svg>
