<?xml version="1.0" encoding="utf-8"?>
<!-- Generator: Adobe Illustrator 17.0.0, SVG Export Plug-In . SVG Version: 6.00 Build 0)  -->
<!DOCTYPE svg PUBLIC "-//W3C//DTD SVG 1.1//EN" "http://www.w3.org/Graphics/SVG/1.1/DTD/svg11.dtd">
<svg version="1.1" id="Layer_1" xmlns="http://www.w3.org/2000/svg" xmlns:xlink="http://www.w3.org/1999/xlink" x="0px" y="0px"
	 width="42px" height="42px" viewBox="0 0 42 42" enable-background="new 0 0 42 42" xml:space="preserve">
<g>
	<path fill="#5FB34F" d="M18.653,28.045c0.271-0.734,0.605-1.444,0.812-2.201c0.741-1.891,1.333-3.837,1.936-5.775
		c0.286-1.128,0.712-2.214,1.026-3.334c0.813-2.491,1.619-4.986,2.361-7.501c0.353-1.133,0.655-2.281,0.938-3.434
		c0.001-0.128-0.003-0.255-0.013-0.381c-0.14,0.287-0.251,0.602-0.486,0.827c-0.27,0.26-0.602,0.448-0.95,0.58
		c-0.695,0.27-1.361,0.608-2.006,0.983c-1.084,0.636-2.094,1.396-3.017,2.248c-1.358,1.262-2.52,2.731-3.453,4.333
		c-1.335,2.313-2.325,4.891-2.44,7.584c-0.172,3.368,0.845,6.733,2.595,9.594c0.181,0.281,0.376,0.554,0.532,0.849
		c0.818-1.041,1.245-2.316,1.83-3.49C18.437,28.635,18.546,28.34,18.653,28.045z"/>
	
		<linearGradient id="SVGID_1_" gradientUnits="userSpaceOnUse" x1="3434.9409" y1="-12595.5625" x2="3436.6587" y2="-12595.0039" gradientTransform="matrix(1 0 0 1 -3418.4856 12628)">
		<stop  offset="0" style="stop-color:#B3B193"/>
		<stop  offset="0.9922" style="stop-color:#E0DFCD"/>
		<stop  offset="1" style="stop-color:#E0DFCD"/>
	</linearGradient>
	<path fill="url(#SVGID_1_)" d="M18.318,28.927c-0.585,1.174-1.012,2.449-1.83,3.49l-0.031,0.041
		c0.014,0.62-0.079,1.235-0.193,1.843c-0.117,0.576-0.304,1.134-0.45,1.701l0.074,0.11c0.227,0.144,0.437,0.31,0.652,0.47
		c0.166-0.712,0.389-1.408,0.607-2.105c0.271-0.651,0.51-1.377,1.133-1.785c-0.097-0.151-0.192-0.305-0.277-0.464
		C17.737,31.129,18.024,29.989,18.318,28.927z"/>
	<path fill="#45A136" d="M26.88,9.462c-0.225-0.496-0.486-0.976-0.7-1.476c-0.267-0.7-0.344-1.451-0.453-2.187
		c-0.283,1.152-0.586,2.301-0.938,3.434c-0.742,2.515-1.548,5.01-2.361,7.501c-0.314,1.12-0.74,2.206-1.026,3.334
		c-0.603,1.938-1.194,3.885-1.936,5.775c-0.206,0.757-0.541,1.467-0.812,2.201c-0.107,0.295-0.217,0.59-0.335,0.882
		c-0.294,1.063-0.581,2.202-0.315,3.301c0.085,0.159,0.181,0.313,0.277,0.464c2.246-0.76,4.291-2.077,5.952-3.766
		c2.418-2.459,3.884-5.763,4.318-9.166c0.075-0.757,0.083-1.517,0.106-2.277l-0.024-0.002C28.648,14.722,28.058,11.958,26.88,9.462z
		"/>
	<polygon fill="#3D6480" points="37.115,32.635 37.115,35.718 31.89,30.493 30.546,31.837 35.771,37.062 32.626,37.062 
		32.626,38.963 39.016,38.962 39.016,32.635 	"/>
</g>
</svg>
