<?xml version="1.0" encoding="utf-8"?>
<!-- Generator: Adobe Illustrator 18.0.0, SVG Export Plug-In . SVG Version: 6.00 Build 0)  -->
<!DOCTYPE svg PUBLIC "-//W3C//DTD SVG 1.1//EN" "http://www.w3.org/Graphics/SVG/1.1/DTD/svg11.dtd">
<svg version="1.1" id="Layer_1" xmlns="http://www.w3.org/2000/svg" xmlns:xlink="http://www.w3.org/1999/xlink" x="0px" y="0px"
	 viewBox="0 0 42 42" enable-background="new 0 0 42 42" xml:space="preserve">
<path fill="#FFECCE" d="M13,19.2c0.1-0.5,2.9-1.5,7.9-1.5c5,0,7.9,1,8,1.5v0.8c-1,0.7-3.9,1.3-7.9,1.3c-4.1,0-7-0.6-8.1-1.3V19.2z"
	/>
<path fill="#FFECCE" d="M27,26.8c0.9-0.2,1.6-0.5,2-0.8v-5.2c-2.2,1.1-6.7,1.2-7.9,1.2c-2.3,0-4.6-0.2-6.2-0.6
	c-0.8-0.2-1.4-0.4-1.8-0.6v5.2c1.1,0.7,3.9,1.3,8,1.3C23.4,27.4,25.5,27.2,27,26.8z"/>
<path fill="#FFECCE" d="M21.1,28.2c-2.3,0-4.6-0.2-6.2-0.6c-0.8-0.2-1.4-0.4-1.8-0.6v5c0,0.6,2.8,1.7,8,1.7h0c1.5,0,2.9-0.1,4.1-0.3
	l3.7-3.7V27C26.7,28.1,22.2,28.2,21.1,28.2z"/>
<path fill="#3D6480" d="M21.1,33.7L21.1,33.7c-5.2,0-8-1.1-8-1.7v-5c0.5,0.2,1.1,0.4,1.8,0.6c1.7,0.4,3.9,0.6,6.2,0.6
	c1.1,0,5.6-0.1,7.9-1.2v2.6l1.7-1.7v-8.5c0-3-7.5-3.2-9.8-3.2c-2.9,0-9.6,0.3-9.6,3.2v12.5c0,3.3,8.1,3.4,9.7,3.4h0
	c0.8,0,1.5,0,2.2-0.1l1.9-1.9C24,33.6,22.6,33.7,21.1,33.7z M13,19.2c0.1-0.5,2.9-1.5,7.9-1.5c5,0,7.9,1,8,1.5v0.8
	c-1,0.7-3.9,1.3-7.9,1.3c-4.1,0-7-0.6-8.1-1.3V19.2z M13,20.8c0.5,0.2,1.1,0.4,1.8,0.6c1.7,0.4,3.9,0.6,6.2,0.6
	c1.1,0,5.6-0.1,7.9-1.2v5.2c-0.4,0.3-1.1,0.5-2,0.8c-1.5,0.4-3.6,0.6-5.9,0.6c-4.1,0-7-0.6-8-1.3V20.8z"/>
<g>
	<polygon fill="#3D6480" points="37.2,32.7 37.2,35.8 32,30.6 30.7,31.9 35.9,37.2 32.7,37.2 32.7,39.1 39.1,39.1 39.1,32.7 	"/>
</g>
<g>
	<path fill="#3D6480" d="M3.9,7.1l-0.1,5.4H3l0.2-6.7h1.1L6.2,11l1.9-5.1h1.1l0.2,6.7H8.6L8.5,7.1l-1.7,4.5H5.6L3.9,7.1z"/>
	<path fill="#3D6480" d="M12.2,12.6c-1.4,0-2-0.8-2-1.8V9.4c0-1,0.6-1.8,2-1.8c1.4,0,2,0.8,2,1.8v1.4C14.2,11.8,13.6,12.6,12.2,12.6
		z M12.2,8.3c-0.8,0-1.1,0.4-1.1,1.1v1.5c0,0.7,0.4,1.1,1.1,1.1c0.8,0,1.1-0.4,1.1-1.1V9.3C13.3,8.6,13,8.3,12.2,8.3z"/>
	<path fill="#3D6480" d="M18,12.5V8.8c0-0.3-0.2-0.5-0.5-0.5c-0.4,0-1.1,0.2-1.6,0.5v3.7H15V7.6h0.7L15.8,8c0.5-0.3,1.4-0.5,2-0.5
		c0.8,0,1.1,0.5,1.1,1.2v3.7H18z"/>
	<path fill="#3D6480" d="M23.6,8.1l-0.6,0.1c0.2,0.3,0.3,0.6,0.3,1v0.2c0,1-0.6,1.7-1.9,1.7c-0.2,0-0.3,0-0.5,0
		c-0.2,0.1-0.4,0.3-0.4,0.5c0,0.2,0.1,0.3,0.3,0.3c0.5,0,0.8,0.1,1.4,0.1c0.9,0.1,1.2,0.4,1.2,1.2c0,1.1-0.4,1.4-2.1,1.4
		c-0.4,0-1.2-0.1-1.8-0.2l0.1-0.7c0.5,0.1,1.1,0.2,1.6,0.2c1.2,0,1.4-0.2,1.4-0.7c0-0.4-0.1-0.5-0.7-0.5c-0.5,0-0.7-0.1-1.3-0.1
		c-0.7-0.1-0.9-0.4-0.9-0.9c0-0.4,0.2-0.7,0.5-0.9c-0.5-0.3-0.7-0.7-0.7-1.4V9.2c0-1.1,0.5-1.7,1.9-1.7c0.3,0,0.6,0,0.8,0.1h1.4V8.1
		z M21.4,8.2c-0.8,0-1.1,0.3-1.1,1v0.2c0,0.7,0.3,1,1.1,1c0.8,0,1.1-0.3,1.1-1V9.2C22.5,8.5,22.2,8.2,21.4,8.2z"/>
	<path fill="#3D6480" d="M26,12.6c-1.4,0-2-0.8-2-1.8V9.4c0-1,0.6-1.8,2-1.8c1.4,0,2,0.8,2,1.8v1.4C28,11.8,27.4,12.6,26,12.6z
		 M26,8.3c-0.8,0-1.1,0.4-1.1,1.1v1.5c0,0.7,0.4,1.1,1.1,1.1c0.8,0,1.1-0.4,1.1-1.1V9.3C27.1,8.6,26.8,8.3,26,8.3z"/>
	<path fill="#3D6480" d="M31.2,5.8c1.6,0,2.1,0.8,2.1,1.9v2.8c0,1.1-0.5,1.9-2.1,1.9h-2.3V5.8H31.2z M29.7,11.7h1.4
		c1,0,1.3-0.4,1.3-1.2V7.8c0-0.8-0.3-1.2-1.3-1.2h-1.4V11.7z"/>
	<path fill="#3D6480" d="M34.3,12.5V5.8h2.6c1,0,1.6,0.5,1.6,1.3V8c0,0.5-0.2,0.9-0.8,1.1c0.6,0.1,1,0.5,1,1.2v0.8
		c0,0.9-0.6,1.4-1.6,1.4H34.3z M37.6,7.2c0-0.4-0.2-0.6-0.8-0.6h-1.7v2.2h1.5c0.6,0,0.9-0.3,0.9-0.8V7.2z M37.8,10.3
		c0-0.5-0.3-0.8-1-0.8h-1.7v2.3h1.7c0.6,0,0.9-0.3,0.9-0.8V10.3z"/>
</g>
</svg>
