<?xml version="1.0" encoding="utf-8"?>
<!-- Generator: Adobe Illustrator 18.0.0, SVG Export Plug-In . SVG Version: 6.00 Build 0)  -->
<!DOCTYPE svg PUBLIC "-//W3C//DTD SVG 1.1//EN" "http://www.w3.org/Graphics/SVG/1.1/DTD/svg11.dtd">
<svg version="1.1" id="Layer_1" xmlns="http://www.w3.org/2000/svg" xmlns:xlink="http://www.w3.org/1999/xlink" x="0px" y="0px"
	 viewBox="0 0 42 42" enable-background="new 0 0 42 42" xml:space="preserve">
<g>
	<path fill="#EFF9FE" d="M31.7,10.4H9.4v22.3h13.6l8.7-8.1V10.4z M29.3,24.8h-1.6l-2.2-6.4l-2.8,11.5l-1.5-9.4l-2.9,5.1l-2-8.6
		l-2,9.6h-2.5v-0.9h1.8l2.7-12.7l2.4,10.3l3-5.3l1.2,7.6l2.5-10.2l3,8.7h0.9V24.8z"/>
	<polygon fill="#3D6480" points="9.4,10.4 31.7,10.4 31.7,24.6 33.4,23 33.4,8.7 7.7,8.7 7.7,34.4 21.1,34.4 22.9,32.7 9.4,32.7 	
		"/>
	<polygon fill="#3D6380" points="25.4,15.2 22.9,25.4 21.7,17.9 18.7,23.2 16.3,12.9 13.5,25.6 11.8,25.6 11.8,26.5 14.3,26.5 
		16.3,17 18.3,25.6 21.2,20.5 22.7,29.9 25.6,18.4 27.8,24.8 29.3,24.8 29.3,23.9 28.4,23.9 	"/>
	<polygon fill="#0CB20F" points="37.6,29.5 30.6,36.4 28.3,34.1 27,35.4 30.6,39.1 38.9,30.8 	"/>
</g>
</svg>
