<?xml version="1.0" encoding="utf-8"?>
<!-- Generator: Adobe Illustrator 17.0.0, SVG Export Plug-In . SVG Version: 6.00 Build 0)  -->
<!DOCTYPE svg PUBLIC "-//W3C//DTD SVG 1.1//EN" "http://www.w3.org/Graphics/SVG/1.1/DTD/svg11.dtd">
<svg version="1.1" id="Layer_1" xmlns="http://www.w3.org/2000/svg" xmlns:xlink="http://www.w3.org/1999/xlink" x="0px" y="0px"
	 width="42px" height="42px" viewBox="0 0 42 42" enable-background="new 0 0 42 42" xml:space="preserve">
<g>
	<path fill="#3D6480" d="M32.068,17.565c-0.228-2.565,0.19-5.169-0.249-7.718c-0.19-1.269-1.301-2.284-2.607-2.222
		c-1.016,0-2.549-0.377-3.059,0.804c-0.854,3.346,0.39,6.914-0.684,10.201c-2.615-1.948-3.677-5.256-5.865-7.607
		c-0.568-0.518-1.492-0.688-1.778-1.476c-0.468-0.924-0.759-2.42-2.106-2.309c-1.38,0.41-2.785,0.655-4.223,0.696
		c-0.809,0.606-0.469,1.795-0.514,2.661c0.207,2.102-0.527,4.249,0.145,6.305c0.253,1.04,1.073,1.811,1.422,2.807
		c0.066,1.354-1.621,1.943-1.638,3.258c0.009,1.72-0.137,3.515,0.298,5.189c1.111,1.476,3.313,1.351,4.892,0.846
		c1.016-0.357,0.323-1.497,0.303-2.234c0.741-2.728,0.257-5.621,0.783-8.381c0.796-0.676,1.318,0.236,1.642,0.883
		c0.938,1.877,2.761,3.112,3.652,5.023c1.023,1.852,2.051,4.244,4.377,4.671c1.45,0.153,3.133,0.858,4.439-0.107
		c1.072-1.107,0.804-2.818,0.662-4.215C31.55,22.287,32.28,19.932,32.068,17.565z"/>
	<path fill="#3D6480" d="M26.651,32.413c-3.457-0.792-6.932,0.352-10.417,0.074c-1.832,0.087-3.851-0.774-5.529,0.253
		c-0.733,0.36-0.733,1.235-0.813,1.932c1.666,0.568,3.433,0.162,5.144,0.369c2.09,0.228,4.203,0.178,6.284-0.12
		c3.146-0.465,6.3,0.414,9.45,0.144c0.805-0.178,1.658-1.106,1.074-1.923C30.319,32.11,28.355,32.806,26.651,32.413z"/>
</g>
</svg>
