<?xml version="1.0" encoding="utf-8"?>
<!-- Generator: Adobe Illustrator 18.0.0, SVG Export Plug-In . SVG Version: 6.00 Build 0)  -->
<!DOCTYPE svg PUBLIC "-//W3C//DTD SVG 1.1//EN" "http://www.w3.org/Graphics/SVG/1.1/DTD/svg11.dtd">
<svg version="1.1" id="Layer_1" xmlns="http://www.w3.org/2000/svg" xmlns:xlink="http://www.w3.org/1999/xlink" x="0px" y="0px"
	 viewBox="0 0 42 42" enable-background="new 0 0 42 42" xml:space="preserve">
<g>
	<line fill="none" x1="18.3" y1="28.7" x2="18" y2="26"/>
	<g>
		<polygon fill="#EFF9FE" points="13.5,27.2 15.8,25.8 15.5,23.2 17.1,22.3 13.9,20.2 17.6,19.8 17.1,18.1 22.9,19 24.6,14.3 
			27.4,14.8 27.4,11.8 23.4,11.8 23.4,7.8 14,7.8 12.9,7.8 10.8,7.8 10.8,30.7 11.5,30.7 14.3,29.1 		"/>
		<polygon fill="#EFF9FE" points="13.5,30.7 13.6,30.6 13.4,30.7 		"/>
		<polygon fill="#8699A3" points="24.6,14.3 22.9,19 17.1,18.1 17.6,19.8 13.9,20.2 17.1,22.3 15.5,23.2 15.8,25.8 13.5,27.2 
			14.3,29.1 11.5,30.7 13.4,30.7 13.6,30.6 15.4,29.7 15.9,29.5 15.1,27.7 17.2,26.6 16.9,23.9 19.7,22.4 17.7,21.1 19.4,20.9 
			19,19.8 23.8,20.5 25.5,15.6 27.4,15.9 27.4,14.8 		"/>
		<polygon fill="#3D6480" points="27.3,10.2 25,10.2 25,7.8 23.3,6.2 9.2,6.2 9.2,32.3 11.3,32.3 13.5,30.7 13.4,30.7 11.5,30.7 
			10.8,30.7 10.8,7.8 12.9,7.8 14,7.8 23.4,7.8 23.4,11.8 27.4,11.8 27.4,14.8 27.4,15.9 28.9,16.4 28.9,11.8 		"/>
	</g>
	<g>
		<polygon fill="#EFF9FE" points="28.6,23.7 24.1,23.4 25.3,24.7 22.5,25.4 24.1,26.9 21.4,27.7 21.7,30.2 19.6,31.3 21.3,33.3 
			20.9,33.6 20,34.3 32.2,34.3 32.2,20.9 29.4,20.2 		"/>
		<polygon fill="#EFF9FE" points="19.5,32.6 19.7,32.9 19.7,32.8 		"/>
		<polygon fill="#8699A3" points="20,34.3 20.9,33.6 21.3,33.3 19.6,31.3 21.7,30.2 21.4,27.7 24.1,26.9 22.5,25.4 25.3,24.7 
			24.1,23.4 28.6,23.7 29.4,20.2 32.2,20.9 32.2,19.7 32.2,19.7 28.4,18.5 27.6,22.3 21,21.9 22.8,23.9 19.8,24.7 21.4,26.3 
			20,26.7 20.3,29.4 18,30.7 19.5,32.6 19.7,32.8 19.7,32.9 18,34.3 18.3,34.3 		"/>
		<polygon fill="#3D6480" points="32.2,19.7 32.2,19.7 32.2,20.9 32.2,34.3 20,34.3 18.3,34.3 18,34.3 16,35.7 33.7,35.8 33.7,20.1 
					"/>
	</g>
</g>
</svg>
