<?xml version="1.0" encoding="utf-8"?>
<!-- Generator: Adobe Illustrator 18.0.0, SVG Export Plug-In . SVG Version: 6.00 Build 0)  -->
<!DOCTYPE svg PUBLIC "-//W3C//DTD SVG 1.1//EN" "http://www.w3.org/Graphics/SVG/1.1/DTD/svg11.dtd">
<svg version="1.1" id="Layer_1" xmlns="http://www.w3.org/2000/svg" xmlns:xlink="http://www.w3.org/1999/xlink" x="0px" y="0px"
	 viewBox="0 0 42 42" enable-background="new 0 0 42 42" xml:space="preserve">
<g>
	<g>
		<defs>
			<polygon id="SVGID_1_" points="24.2,24.3 22.6,22.6 28.2,23 29.3,18.9 33.8,20.1 33.7,35.8 16,35.7 19.7,33 18.9,31 21.1,29.8 
				20.8,27.2 22.9,26.6 21.2,25.1 			"/>
		</defs>
		<clipPath id="SVGID_2_">
			<use xlink:href="#SVGID_1_"  overflow="visible"/>
		</clipPath>
		<g clip-path="url(#SVGID_2_)">
			<polyline fill="#EFF9FE" points="17.9,11.6 15.8,11.6 15.8,34.3 32.2,34.3 32.2,15.6 28.2,15.6 28.2,11.6 19,11.6 			"/>
			<path fill="#3D6480" d="M29.8,14v-2.4L28.2,10h-14v25.8h19.5V15.6L32.2,14H29.8z M19,11.6h9.2v4h4v18.7H15.8V11.6h2.1H19z
				 M17.9,13"/>
		</g>
	</g>
	<g>
		<defs>
			<polygon id="SVGID_3_" points="18.6,20.3 18.2,18.9 23.5,19.8 25.1,15.1 30.4,16.7 29.7,6.2 9.6,6.2 8.2,34.5 15.2,29.4 
				14.4,27.4 16.6,26.2 16.3,23.5 18.6,22.3 15.9,20.6 			"/>
		</defs>
		<clipPath id="SVGID_4_">
			<use xlink:href="#SVGID_3_"  overflow="visible"/>
		</clipPath>
		<path clip-path="url(#SVGID_4_)" fill="#EFF9FE" d="M14.9,28.8H16c0.2,0,0.3-0.1,0.3-0.3v-0.5c0-0.2-0.1-0.3-0.3-0.3h-1.1
			c-0.2,0-0.3,0.1-0.3,0.3v0.5C14.6,28.7,14.7,28.8,14.9,28.8z"/>
		<g clip-path="url(#SVGID_4_)">
			<polyline fill="#EFF9FE" points="13.4,7.8 11.2,7.8 11.2,30.7 27.8,30.7 27.8,11.8 23.8,11.8 23.8,7.8 14.5,7.8 			"/>
			<path fill="#3D6480" d="M25.4,10.2V7.8l-1.6-1.6H9.6v26.1h19.8V11.8l-1.6-1.6H25.4z M14.5,7.8h9.3v4h4v18.9H11.2V7.8h2.1H14.5z
				 M13.4,9.2"/>
		</g>
	</g>
	<line fill="none" x1="18.4" y1="28.7" x2="18.1" y2="26"/>
	<polygon opacity="0.6" fill="#3D6480" points="11.1,32.5 11.1,32.5 14.9,29.5 14.1,27.5 16.3,26.3 16,23.6 18.1,22.5 15.3,20.7 
		18.3,20.4 17.8,18.9 23.2,19.8 24.9,15.1 29.3,16.5 29.3,16.5 25.1,15.5 23.5,20.1 18.3,19.3 18.7,20.6 16.3,20.9 18.7,22.5 
		16.4,23.8 16.7,26.5 14.5,27.7 15.3,29.6 15.2,29.7 	"/>
	<polygon opacity="0.6" fill="#3D6480" points="15.9,35.9 15.9,35.9 19.4,33.1 18.6,31.1 20.8,29.9 20.5,27.2 22.4,26.7 20.8,25.1 
		23.7,24.4 22.1,22.6 28,23 29.1,18.8 33.7,20.3 33.7,20.3 29.3,19.2 28.3,23.3 22.9,23 24.3,24.6 21.5,25.3 23.1,26.8 20.9,27.5 
		21.2,30.1 19,31.3 19.8,33.2 19.7,33.2 	"/>
</g>
</svg>
