<?xml version="1.0" encoding="utf-8"?>
<!-- Generator: Adobe Illustrator 18.0.0, SVG Export Plug-In . SVG Version: 6.00 Build 0)  -->
<!DOCTYPE svg PUBLIC "-//W3C//DTD SVG 1.1//EN" "http://www.w3.org/Graphics/SVG/1.1/DTD/svg11.dtd">
<svg version="1.1" xmlns="http://www.w3.org/2000/svg" xmlns:xlink="http://www.w3.org/1999/xlink" x="0px" y="0px"
	 viewBox="0 0 16 16" enable-background="new 0 0 16 16" xml:space="preserve">
<g id="Layer_2">
	<g id="Layer_2_1_">
		<rect fill="none" width="16" height="16"/>
	</g>
</g>
<g id="Layer_1">
	<g>
		<defs>
			<rect id="SVGID_1_" x="0" width="16" height="16"/>
		</defs>
		<clipPath id="SVGID_2_">
			<use xlink:href="#SVGID_1_"  overflow="visible"/>
		</clipPath>
		<g clip-path="url(#SVGID_2_)">
			<polygon fill="#FFFFFF" points="0.4,3.7 0.4,15.5 11.5,15.3 15,7.8 13,7.9 10.1,4.9 5.6,4.6 3.9,3.7 			"/>
			<polygon fill="#3D6480" points="11.4,0 11.4,1.3 13.8,1.3 11.3,3.8 12.2,4.7 14.7,2.2 14.7,4.6 16,4.6 16,0 			"/>
			<polygon fill="#FFFFFF" stroke="#3D6480" stroke-width="1.2" stroke-miterlimit="10" points="11.5,15.5 0.5,15.5 3.9,8.1 
				15.1,8.1 			"/>
			<polygon fill="#3D6480" stroke="#3D6480" stroke-width="0.4" stroke-miterlimit="3.8637" points="1.6,11.8 1.4,12.9 1.4,4.2 
				4.1,4.2 6.5,5.7 7.9,5.7 9,5.7 10.7,5.7 9.3,4.4 7.1,4.4 4.7,2.9 0,2.9 0,15.9 1.6,15.9 			"/>
		</g>
	</g>
</g>
</svg>
