<?xml version="1.0" encoding="utf-8"?>
<!-- Generator: Adobe Illustrator 17.0.0, SVG Export Plug-In . SVG Version: 6.00 Build 0)  -->
<!DOCTYPE svg PUBLIC "-//W3C//DTD SVG 1.1//EN" "http://www.w3.org/Graphics/SVG/1.1/DTD/svg11.dtd">
<svg version="1.1" id="Layer_1" xmlns="http://www.w3.org/2000/svg" xmlns:xlink="http://www.w3.org/1999/xlink" x="0px" y="0px"
	 width="42px" height="42px" viewBox="0 0 42 42" enable-background="new 0 0 42 42" xml:space="preserve">
<g>
	<polygon fill="none" points="21.533,16.17 16.579,18.825 15.637,23.82 20.781,21.524 	"/>
	<polygon fill="none" points="27.59,19.377 23.246,16.2 22.442,21.922 27.578,25.654 	"/>
	<polygon fill="none" points="16.555,25.271 20.765,27.862 26.121,26.697 21.265,23.169 	"/>
	<polygon fill="none" points="33.936,16.191 24.409,7.927 23.372,15.3 28.127,18.778 	"/>
	<polygon fill="none" points="21.047,28.619 20.146,35.031 33.09,31.76 26.987,27.326 	"/>
	<polygon fill="none" points="28.389,19.536 28.377,26.235 34.164,30.439 34.147,16.973 	"/>
	<polygon fill="none" points="15.67,25.666 9.285,28.516 19.357,34.888 20.257,28.488 	"/>
	<polygon fill="#3D6480" points="5.534,11.803 11.924,11.802 11.924,5.475 10.023,5.475 10.023,8.559 4.798,3.334 3.454,4.677 
		8.679,9.903 5.534,9.903 	"/>
	<path fill="#3D6480" d="M35.845,15.595L23.889,5.226l-3.185,1.796l-4.473,4.473l6.472-3.649l-1.032,7.343l-5.332,2.857
		l-3.857-2.802l-0.573,0.573l3.89,2.825l-1.052,5.574l-6.388,2.85l1.787-9.487L8.016,19.71L6.33,28.659l13.122,8.301l16.415-4.147
		L35.845,15.595z M24.409,7.927l9.527,8.264l-5.81,2.587L23.372,15.3L24.409,7.927z M23.246,16.2l4.344,3.177l-0.011,6.277
		l-5.136-3.732L23.246,16.2z M26.121,26.697l-5.355,1.166l-4.21-2.591l4.71-2.102L26.121,26.697z M16.579,18.825l4.955-2.655
		l-0.752,5.354l-5.144,2.295L16.579,18.825z M19.357,34.888L9.285,28.516l6.385-2.85l4.586,2.822L19.357,34.888z M20.146,35.031
		l0.901-6.412l5.94-1.293l6.103,4.434L20.146,35.031z M28.377,26.235l0.012-6.698l5.758-2.563l0.017,13.467L28.377,26.235z"/>
</g>
</svg>
