<?xml version="1.0" encoding="utf-8"?>
<!-- Generator: Adobe Illustrator 18.0.0, SVG Export Plug-In . SVG Version: 6.00 Build 0)  -->
<!DOCTYPE svg PUBLIC "-//W3C//DTD SVG 1.1//EN" "http://www.w3.org/Graphics/SVG/1.1/DTD/svg11.dtd">
<svg version="1.1" id="Layer_1" xmlns="http://www.w3.org/2000/svg" xmlns:xlink="http://www.w3.org/1999/xlink" x="0px" y="0px"
	 viewBox="0 0 42 42" enable-background="new 0 0 42 42" xml:space="preserve">
<g>
	<polygon fill="none" points="31.7,31.5 31.1,31.5 30.7,31.1 30.3,31.5 29.8,31.5 29.8,32 29.4,32.4 29.8,32.8 29.8,33.4 30.3,33.4 
		30.7,33.8 31.1,33.4 31.7,33.4 31.7,32.8 32.1,32.4 31.7,32 	"/>
	<polygon fill="#EEF8FD" points="18.2,28.4 18.2,20.2 8.6,24.2 	"/>
	<polygon fill="#EEF8FD" points="7.8,23.7 18.2,19.3 18.2,15.6 7.8,11.2 	"/>
	<polygon fill="#EEF8FD" points="20,28.3 27.5,25.1 28.7,23.9 20,20.2 	"/>
	<polygon fill="#EEF8FD" points="19.5,6.4 19.5,13.7 28.7,9.8 	"/>
	<polygon fill="#EEF8FD" points="20,15.4 20,19.4 29.3,23.3 30.1,22.5 30.1,11.1 	"/>
	<polygon fill="#EEF8FD" points="18.7,13.9 18.7,6.4 9.2,9.8 	"/>
	<path fill="#3D6480" d="M20,28.3v-8.1l8.7,3.7l0.6-0.6L20,19.4v-3.9l10.1-4.3v11.3l1.6-1.6V9.2l-0.8-0.3l0,0l0,0L19,4.5L7.1,8.9
		l0,0l0,0L6.2,9.2V25L19,30.5l5.4-2.3l3.1-3.1L20,28.3z M18.2,28.4l-9.7-4.2l9.7-4.1V28.4z M18.2,19.3L7.8,23.7V11.2l10.4,4.4V19.3z
		 M18.7,13.9L9.2,9.8l9.5-3.5V13.9z M19.5,6.4l9.2,3.4l-9.2,3.9V6.4z"/>
	<path fill="#FF9C04" d="M35.8,31.5H33l1-1l-1.3-1.3l-1,1v-2.8h-1.9v2.8l-1-1l-1.3,1.3l1,1h-2.8v1.9h2.8l-1,1l1.3,1.3l1-1v2.8h1.9
		v-2.8l1,1l1.3-1.3l-1-1h2.8V31.5z M31.7,32.8v0.6h-0.6l-0.4,0.4l-0.4-0.4h-0.6v-0.6l-0.4-0.4l0.4-0.4v-0.6h0.6l0.4-0.4l0.4,0.4h0.6
		V32l0.4,0.4L31.7,32.8z"/>
</g>
</svg>
