<?xml version="1.0" encoding="utf-8"?>
<!-- Generator: Adobe Illustrator 17.0.0, SVG Export Plug-In . SVG Version: 6.00 Build 0)  -->
<!DOCTYPE svg PUBLIC "-//W3C//DTD SVG 1.1//EN" "http://www.w3.org/Graphics/SVG/1.1/DTD/svg11.dtd">
<svg version="1.1" id="Layer_1" xmlns="http://www.w3.org/2000/svg" xmlns:xlink="http://www.w3.org/1999/xlink" x="0px" y="0px"
	 width="42px" height="42px" viewBox="0 0 42 42" enable-background="new 0 0 42 42" xml:space="preserve">
<path fill="#FF9C04" d="M32.158,35.273h0.557l0.394,0.394l0.393-0.394h0.556v-0.556l0.394-0.394l-0.394-0.393v-0.557h-0.556
	l-0.393-0.394l-0.394,0.394h-0.557v0.557l-0.394,0.393l0.394,0.393V35.273z M36.37,32.405l-0.969,0.969h2.756v1.899h-2.756
	l0.961,0.961l-1.344,1.344l-0.961-0.961v2.756h-1.899v-2.756l-0.959,0.959l-1.344-1.343l0.96-0.96H28.06v-1.899h2.756l-0.968-0.967
	l1.344-1.344l0.967,0.967v-2.756h1.899v2.756l0.969-0.968L36.37,32.405z"/>
<g>
	<polygon fill="none" points="26.6,26.132 26.612,19.853 22.268,16.677 21.464,22.4 	"/>
	<polygon fill="none" points="15.601,19.302 14.66,24.296 19.803,22.001 20.555,16.648 	"/>
	<polygon fill="none" points="32.959,16.669 23.431,8.405 22.394,15.779 27.149,19.255 	"/>
	<polygon fill="none" points="15.577,25.748 19.788,28.339 25.142,27.174 20.287,23.647 	"/>
	<polygon fill="none" points="20.069,29.097 19.167,35.509 21.442,34.934 27.494,28.883 26.008,27.804 	"/>
	<polygon fill="none" points="27.412,20.014 27.399,26.712 28.711,27.665 33.176,23.2 33.169,17.451 	"/>
	<polygon fill="none" points="14.692,26.143 8.306,28.993 18.379,35.367 19.279,28.965 	"/>
	<polygon fill="none" points="20.693,15.667 21.726,8.324 10.239,14.801 15.362,18.522 	"/>
	<polygon fill="none" points="14.821,19.119 9.674,15.38 7.382,27.543 13.77,24.693 	"/>
	<path fill="#3D6480" d="M19.167,35.509l0.902-6.413l5.939-1.293l1.485,1.079l1.217-1.217l-1.312-0.953l0.013-6.698l5.757-2.563
		l0.007,5.749l1.698-1.698l-0.007-5.43L22.911,5.704L8.206,13.996l-2.854,15.14l13.122,8.303l0.622-0.157l2.347-2.347L19.167,35.509
		z M19.788,28.339l-4.211-2.59l4.71-2.102l4.855,3.527L19.788,28.339z M14.66,24.296l0.941-4.994l4.955-2.654l-0.753,5.353
		L14.66,24.296z M23.431,8.405l9.528,8.263l-5.81,2.587l-4.755-3.477L23.431,8.405z M26.612,19.853L26.6,26.132L21.464,22.4
		l0.804-5.723L26.612,19.853z M21.726,8.324l-1.032,7.343l-5.332,2.855l-5.123-3.721L21.726,8.324z M9.674,15.38l5.147,3.739
		l-1.051,5.573l-6.388,2.851L9.674,15.38z M18.379,35.367L8.306,28.993l6.386-2.85l4.587,2.822L18.379,35.367z"/>
</g>
</svg>
