<?xml version="1.0" encoding="utf-8"?>
<!-- Generator: Adobe Illustrator 17.0.0, SVG Export Plug-In . SVG Version: 6.00 Build 0)  -->
<!DOCTYPE svg PUBLIC "-//W3C//DTD SVG 1.1//EN" "http://www.w3.org/Graphics/SVG/1.1/DTD/svg11.dtd">
<svg version="1.1" id="Layer_1" xmlns="http://www.w3.org/2000/svg" xmlns:xlink="http://www.w3.org/1999/xlink" x="0px" y="0px"
	 width="42px" height="42px" viewBox="0 0 42 42" enable-background="new 0 0 42 42" xml:space="preserve">
<g>
	<polygon fill="none" points="9.412,28.547 19.484,34.92 20.384,28.519 15.797,25.697 	"/>
	<polygon fill="none" points="16.682,25.302 20.893,27.893 26.248,26.728 21.393,23.2 	"/>
	<polygon fill="none" points="15.927,18.673 10.779,14.933 8.487,27.098 14.875,24.247 	"/>
	<polygon fill="none" points="21.798,15.22 22.831,7.877 11.343,14.354 16.467,18.077 	"/>
	<polygon fill="none" points="20.908,21.555 21.661,16.202 16.706,18.856 15.764,23.851 	"/>
	<polygon fill="none" points="22.569,21.953 27.706,25.685 27.717,19.408 23.373,16.231 	"/>
	<polygon fill="none" points="24.536,7.958 23.499,15.331 28.254,18.809 34.063,16.222 	"/>
	<polygon fill="#3D6480" points="37.434,32.683 37.434,35.766 32.208,30.542 30.864,31.885 36.09,37.11 32.944,37.111 
		32.944,39.011 39.334,39.01 39.334,32.683 	"/>
	<path fill="#3D6480" d="M28.517,19.567l5.758-2.563l0.006,4.989l1.698-1.698l-0.006-4.668L24.017,5.257L9.311,13.549L6.457,28.69
		l12.813,8.106l0.597-0.945l0.289,0.041l1.018-7.242l5.941-1.293l1.043,0.758l1.217-1.217l-0.871-0.633L28.517,19.567z
		 M22.831,7.877l-1.032,7.343l-5.332,2.857l-5.124-3.722L22.831,7.877z M21.661,16.202l-0.752,5.354l-5.144,2.295l0.942-4.995
		L21.661,16.202z M10.779,14.933l5.148,3.74l-1.052,5.574l-6.388,2.85L10.779,14.933z M19.484,34.92L9.412,28.547l6.385-2.85
		l4.586,2.822L19.484,34.92z M20.893,27.893l-4.21-2.591l4.71-2.102l4.855,3.528L20.893,27.893z M27.706,25.685l-5.136-3.732
		l0.804-5.722l4.344,3.177L27.706,25.685z M23.499,15.331l1.036-7.374l9.528,8.264l-5.81,2.587L23.499,15.331z"/>
	<polygon fill="#3D6480" points="21.563,34.711 21.65,34.624 21.548,34.648 	"/>
	<polygon fill="#3D6480" points="9.163,34.169 8.456,33.462 3.818,38.099 3.818,31.049 2.818,31.049 2.818,39.549 11.39,39.549 
		11.39,38.549 4.782,38.549 	"/>
</g>
</svg>
