<?xml version="1.0" encoding="utf-8"?>
<!-- Generator: Adobe Illustrator 17.0.0, SVG Export Plug-In . SVG Version: 6.00 Build 0)  -->
<!DOCTYPE svg PUBLIC "-//W3C//DTD SVG 1.1//EN" "http://www.w3.org/Graphics/SVG/1.1/DTD/svg11.dtd">
<svg version="1.1" id="Layer_1" xmlns="http://www.w3.org/2000/svg" xmlns:xlink="http://www.w3.org/1999/xlink" x="0px" y="0px"
	 width="42px" height="42px" viewBox="0 0 42 42" enable-background="new 0 0 42 42" xml:space="preserve">
<g>
	<polygon fill="none" points="27.251,18.882 22.907,15.705 22.103,21.427 27.239,25.159 	"/>
	<polygon fill="none" points="33.598,15.695 24.07,7.431 23.033,14.805 27.788,18.282 	"/>
	<polygon fill="none" points="21.195,15.675 16.24,18.329 15.298,23.324 20.442,21.029 	"/>
	<polygon fill="none" points="16.216,24.776 20.426,27.366 25.781,26.201 20.926,22.674 	"/>
	<polygon fill="none" points="28.051,19.041 28.038,25.739 33.825,29.943 33.808,16.478 	"/>
	<polygon fill="none" points="15.331,25.171 8.945,28.02 19.018,34.393 19.918,27.991 	"/>
	<polygon fill="none" points="20.708,28.123 19.807,34.536 32.751,31.264 26.648,26.83 	"/>
	<polygon fill="#3D6480" points="5.195,9.408 5.195,11.308 11.585,11.307 11.585,4.98 9.684,4.98 9.684,8.063 4.459,2.839 
		3.115,4.182 8.341,9.407 	"/>
	<path fill="#3D6480" d="M35.507,15.099L23.551,4.731l-2.408,1.357l-4.472,4.473l5.694-3.211l-1.032,7.343l-5.333,2.856
		l-3.659-2.658l-0.572,0.573l3.693,2.683l-1.052,5.574l-6.388,2.85l1.708-9.068l-2.131,2.131l-1.608,8.531l13.122,8.302
		l16.415-4.149L35.507,15.099z M24.07,7.431l9.529,8.264l-5.811,2.587l-4.754-3.477L24.07,7.431z M22.907,15.705l4.344,3.177
		l-0.011,6.277l-5.136-3.732L22.907,15.705z M25.781,26.201l-5.354,1.165l-4.21-2.59l4.71-2.102L25.781,26.201z M16.24,18.329
		l4.955-2.654l-0.752,5.354l-5.144,2.295L16.24,18.329z M19.018,34.393L8.945,28.02l6.386-2.85l4.586,2.821L19.018,34.393z
		 M19.807,34.536l0.901-6.413l5.94-1.293l6.103,4.434L19.807,34.536z M28.038,25.739l0.012-6.698l5.758-2.563l0.017,13.466
		L28.038,25.739z"/>
	<polygon fill="#3D6480" points="8.697,33.642 7.99,32.935 3.352,37.573 3.352,30.522 2.352,30.522 2.352,39.022 10.924,39.022 
		10.924,38.022 4.317,38.022 	"/>
</g>
</svg>
