<?xml version="1.0" encoding="utf-8"?>
<!-- Generator: Adobe Illustrator 18.0.0, SVG Export Plug-In . SVG Version: 6.00 Build 0)  -->
<!DOCTYPE svg PUBLIC "-//W3C//DTD SVG 1.1//EN" "http://www.w3.org/Graphics/SVG/1.1/DTD/svg11.dtd">
<svg version="1.1" id="Layer_1" xmlns="http://www.w3.org/2000/svg" xmlns:xlink="http://www.w3.org/1999/xlink" x="0px" y="0px"
	 viewBox="0 0 42 42" enable-background="new 0 0 42 42" xml:space="preserve">
<g>
	<g>
		<polygon fill="#EEF8FD" points="10.1,25.6 20.5,21.2 20.5,17.5 10.1,13.1 		"/>
		<polygon fill="#EEF8FD" points="22.3,30.2 29.8,27 31,25.8 22.3,22.1 		"/>
		<polygon fill="#EEF8FD" points="20.5,30.3 20.5,22.1 10.8,26.1 		"/>
		<polygon fill="#EEF8FD" points="22.3,17.3 22.3,21.3 31.6,25.2 32.4,24.4 32.4,13 		"/>
		<polygon fill="#EEF8FD" points="21,15.8 21,8.3 11.5,11.7 		"/>
		<polygon fill="#EEF8FD" points="21.8,8.3 21.8,15.6 31,11.7 		"/>
		<path fill="#3D6480" d="M22.3,30.2v-8.1l8.7,3.7l0.6-0.6l-9.3-3.9v-3.9L32.4,13v11.3l1.6-1.6V11.1l-0.8-0.3l0,0l0,0L21.3,6.4
			L9.3,10.8l0,0l0,0l-0.8,0.3v15.8l12.8,5.5l5.4-2.3l3.1-3.1L22.3,30.2z M20.5,30.3l-9.7-4.2l9.7-4.1V30.3z M20.5,21.2l-10.4,4.4
			V13.1l10.4,4.4V21.2z M21,15.8l-9.5-4.1L21,8.3V15.8z M21.8,8.3l9.2,3.4l-9.2,3.9V8.3z"/>
	</g>
	<polygon fill="#EA102A" points="38.9,32.7 37.6,31.4 34.7,34.3 31.8,31.4 30.4,32.7 33.3,35.6 30.4,38.5 31.8,39.9 34.7,37 
		37.6,39.9 38.9,38.5 36,35.6 	"/>
</g>
</svg>
