<?xml version="1.0" encoding="utf-8"?>
<!-- Generator: Adobe Illustrator 17.0.0, SVG Export Plug-In . SVG Version: 6.00 Build 0)  -->
<!DOCTYPE svg PUBLIC "-//W3C//DTD SVG 1.1//EN" "http://www.w3.org/Graphics/SVG/1.1/DTD/svg11.dtd">
<svg version="1.1" id="Layer_1" xmlns="http://www.w3.org/2000/svg" xmlns:xlink="http://www.w3.org/1999/xlink" x="0px" y="0px"
	 width="42px" height="42px" viewBox="0 0 42 42" enable-background="new 0 0 42 42" xml:space="preserve">
<g>
	<polygon fill="none" points="8.946,27.994 19.018,34.367 19.918,27.966 15.331,25.144 	"/>
	<polygon fill="none" points="22.103,21.4 27.239,25.132 27.251,18.855 22.907,15.678 	"/>
	<polygon fill="none" points="16.216,24.749 20.426,27.34 25.782,26.175 20.926,22.647 	"/>
	<polygon fill="none" points="15.461,18.12 10.313,14.38 8.021,26.545 14.409,23.694 	"/>
	<polygon fill="none" points="21.332,14.667 22.364,7.324 10.877,13.801 16.001,17.524 	"/>
	<polygon fill="none" points="20.442,21.002 21.195,15.649 16.24,18.303 15.298,23.298 	"/>
	<polygon fill="none" points="24.07,7.405 23.033,14.778 27.788,18.256 33.597,15.669 	"/>
	<polygon fill="#EA102A" points="38.96,37.089 38.868,36.997 38.868,37.181 	"/>
	<polygon fill="#EA102A" points="36.968,35.097 31.818,29.949 31.76,30.007 36.968,35.213 	"/>
	<polygon fill="#3D6480" points="38.868,36.997 38.868,32.13 36.968,32.13 36.968,35.097 36.968,35.213 31.76,30.007 31.742,29.989 
		30.398,31.332 35.624,36.557 32.478,36.558 32.478,38.458 38.868,38.457 38.868,37.181 	"/>
	<path fill="#3D6480" d="M28.051,19.014l5.758-2.563l0.008,6.006l1.697-1.698l-0.007-5.686L23.551,4.704L8.844,12.996L5.991,28.137
		l12.813,8.106l0.597-0.945l0.289,0.041l1.018-7.242l5.941-1.293l1.633,1.187l1.217-1.217l-1.461-1.062L28.051,19.014z
		 M22.364,7.324l-1.032,7.343l-5.332,2.857l-5.124-3.722L22.364,7.324z M21.195,15.649l-0.752,5.354l-5.144,2.295l0.942-4.995
		L21.195,15.649z M10.313,14.38l5.148,3.74l-1.052,5.574l-6.388,2.85L10.313,14.38z M19.018,34.367L8.946,27.994l6.385-2.85
		l4.586,2.822L19.018,34.367z M20.426,27.34l-4.21-2.591l4.71-2.102l4.855,3.528L20.426,27.34z M27.239,25.132L22.103,21.4
		l0.804-5.722l4.344,3.177L27.239,25.132z M23.033,14.778l1.036-7.374l9.528,8.264l-5.81,2.587L23.033,14.778z"/>
</g>
</svg>
