<?xml version="1.0" encoding="utf-8"?>
<!-- Generator: Adobe Illustrator 18.0.0, SVG Export Plug-In . SVG Version: 6.00 Build 0)  -->
<!DOCTYPE svg PUBLIC "-//W3C//DTD SVG 1.1//EN" "http://www.w3.org/Graphics/SVG/1.1/DTD/svg11.dtd">
<svg version="1.1" xmlns="http://www.w3.org/2000/svg" xmlns:xlink="http://www.w3.org/1999/xlink" x="0px" y="0px"
	 viewBox="0 0 16 16" enable-background="new 0 0 16 16" xml:space="preserve">
<g id="Layer_2">
	<g id="Layer_2_1_">
		<rect fill="none" width="16" height="16"/>
	</g>
</g>
<g id="art">
	<g>
		<polygon fill="#3D6480" stroke="#3D6380" stroke-miterlimit="10" points="1.9,1.5 4,1.5 4,0.5 0.6,0.5 0.6,15.5 4,15.5 4,14.5 
			1.9,14.5 		"/>
		<polygon fill="#3D6480" stroke="#3D6380" stroke-miterlimit="10" points="12,0.5 12,1.5 14.1,1.5 14.1,14.5 12,14.5 12,15.5 
			15.4,15.5 15.4,0.5 		"/>
		<polygon fill="#3D6480" stroke="#3D6380" stroke-width="0.25" stroke-miterlimit="10" points="3.4,3.5 8.7,12.8 9.6,12.8 4.2,3.5 
					"/>
		<polygon fill="#3D6480" points="10.7,6 12.6,6.2 12.6,5.3 10.7,5.6 10.7,5.6 11.9,4 11.2,3.5 10.4,5.3 10.3,5.3 9.5,3.5 8.8,4 
			10,5.6 10,5.6 8.1,5.3 8.1,6.2 10,6 10,6 8.8,7.6 9.5,8 10.3,6.2 10.4,6.2 11.1,8 11.9,7.5 10.7,6 		"/>
	</g>
</g>
</svg>
