<?xml version="1.0" encoding="utf-8"?>
<!-- Generator: Adobe Illustrator 18.0.0, SVG Export Plug-In . SVG Version: 6.00 Build 0)  -->
<!DOCTYPE svg PUBLIC "-//W3C//DTD SVG 1.1//EN" "http://www.w3.org/Graphics/SVG/1.1/DTD/svg11.dtd">
<svg version="1.1" xmlns="http://www.w3.org/2000/svg" xmlns:xlink="http://www.w3.org/1999/xlink" x="0px" y="0px"
	 viewBox="0 0 16 16" enable-background="new 0 0 16 16" xml:space="preserve">
<g id="Layer_2">
	<g id="Layer_2_1_">
		<rect fill="none" width="16" height="16"/>
	</g>
</g>
<g id="art">
	<g>
		<path fill="#FFFFFF" d="M11.5,2.1H9.9v0.8H8.5V2.1H4.3v0.8H2.9V2.1H1.3v10.7h5.1v-1.6H5V9.9h1.4V8.7H5V7.3h1.4V6.2H5V4.8h1.4v1.4
			h1.2V4.8h1.4v1.4h3.2l-0.7,0V2.1z M4.3,11.2H2.9V9.9h1.4V11.2z M4.3,8.7H2.9V7.3h1.4V8.7z M4.3,6.2H2.9V4.8h1.4V6.2z"/>
		<rect x="2.9" y="7.3" fill="#3D6480" width="1.4" height="1.4"/>
		<rect x="5" y="7.3" fill="#3D6480" width="1.4" height="1.4"/>
		<rect x="2.9" y="4.8" fill="#3D6480" width="1.4" height="1.4"/>
		<rect x="5" y="4.8" fill="#3D6480" width="1.4" height="1.4"/>
		<rect x="7.6" y="4.8" fill="#3D6480" width="1.4" height="1.4"/>
		<rect x="2.9" y="9.9" fill="#3D6480" width="1.4" height="1.4"/>
		<rect x="5" y="9.9" fill="#3D6480" width="1.4" height="1.4"/>
		<polygon fill="#3D6480" points="9.9,0.8 9.9,0 8.5,0 8.5,0.8 4.3,0.8 4.3,0 2.9,0 2.9,0.8 0,0.8 0,14.2 6.4,14.2 6.4,12.8 
			6.4,12.8 1.3,12.8 1.3,2.1 2.9,2.1 2.9,2.9 4.3,2.9 4.3,2.1 8.5,2.1 8.5,2.9 9.9,2.9 9.9,2.1 11.5,2.1 11.5,6.2 12.1,6.2 
			12.8,6.2 12.8,0.8 		"/>
	</g>
	<g>
		<polygon fill="#FFFFFF" points="9.1,13.4 12.8,11.7 9.1,9.9 		"/>
		<path fill="#3D6380" d="M7.6,7.3V16l8.2-4.2l0.2-0.1L7.6,7.3z M9.1,13.4V9.9l3.7,1.7L9.1,13.4z"/>
	</g>
</g>
</svg>
