<?xml version="1.0" encoding="utf-8"?>
<!-- Generator: Adobe Illustrator 17.0.0, SVG Export Plug-In . SVG Version: 6.00 Build 0)  -->
<!DOCTYPE svg PUBLIC "-//W3C//DTD SVG 1.1//EN" "http://www.w3.org/Graphics/SVG/1.1/DTD/svg11.dtd">
<svg version="1.1" id="Layer_1" xmlns="http://www.w3.org/2000/svg" xmlns:xlink="http://www.w3.org/1999/xlink" x="0px" y="0px"
	 width="42px" height="42px" viewBox="0 0 42 42" enable-background="new 0 0 42 42" xml:space="preserve">
<g>
	<polygon fill="#3D6480" points="37.231,32.635 37.231,35.717 32.007,30.492 30.663,31.836 35.888,37.062 32.743,37.062 
		32.743,38.963 39.131,38.962 39.131,32.635 	"/>
	<path fill="#FF9C04" d="M16.737,19.994h1.109l1.483,5.697l0.587-2.483v-6.06L8.61,13.429v15.853l11.307,4.074v-6.221h-1.303
		L16.737,19.994z M15.473,27.135l-0.571-1.66H12.13l-0.561,1.66h-1.145l2.412-7.141h1.368l2.412,7.141H15.473z"/>
	<polygon fill="#FF9C04" points="12.444,24.467 14.598,24.467 13.521,21.128 	"/>
	<path fill="#FF9C04" d="M26.611,26.867l-0.089-0.036l0.189-0.945l0.122,0.038c0.622,0.194,1.274,0.296,1.896,0.296
		c1.062,0,1.224-0.253,1.224-0.964c0-0.486-0.011-0.681-0.149-0.817c-0.15-0.148-0.467-0.245-1.193-0.409
		c-1.718-0.384-1.957-0.748-1.957-2.239c0-1.28,0.564-1.899,2.325-1.899c0.61,0,1.336,0.084,1.897,0.232l0.094,0.024l-0.094,0.985
		l-0.128-0.029c-0.542-0.123-1.187-0.194-1.749-0.194c-1.091,0-1.223,0.198-1.223,0.912c0,0.499,0.008,0.687,0.137,0.818
		c0.143,0.144,0.443,0.233,1.145,0.409c1.861,0.462,2.014,0.773,2.017,2.15l2.548-2.548v-9.262l-11.307,3.818v3.684l1.134,4.8
		l1.483-5.697h1.109l-1.877,7.141H22.73l-0.414-1.786v7.711l1.345-0.447l5.392-5.392c-0.114,0.006-0.218,0.018-0.345,0.018
		C28.034,27.238,27.22,27.112,26.611,26.867z"/>
	<polygon fill="#FF9C04" points="31.607,11.845 20.988,8.644 10.232,11.707 21.265,15.347 	"/>
	<path fill="#FF9C04" d="M12.837,19.994l-2.412,7.141h1.145l0.561-1.66h2.771l0.571,1.66h1.145l-2.412-7.141H12.837z M12.444,24.467
		l1.076-3.339l1.077,3.339H12.444z"/>
	<path fill="#231F20" d="M12.837,19.994l-2.412,7.141h1.145l0.561-1.66h2.771l0.571,1.66h1.145l-2.412-7.141H12.837z M12.444,24.467
		l1.076-3.339l1.077,3.339H12.444z"/>
	<polygon fill="#231F20" points="22.104,19.994 20.677,19.994 19.917,23.208 19.917,27.135 20.05,27.135 21.39,21.355 
		22.316,25.349 22.316,20.891 	"/>
	<polygon fill="#FF9C04" points="19.33,25.691 17.847,19.994 16.737,19.994 18.614,27.135 19.917,27.135 19.917,23.208 	"/>
	<polygon fill="#231F20" points="19.33,25.691 17.847,19.994 16.737,19.994 18.614,27.135 19.917,27.135 19.917,23.208 	"/>
	<polygon fill="#FF9C04" points="24.165,27.135 26.042,19.994 24.933,19.994 23.449,25.691 22.316,20.891 22.316,25.349 
		22.73,27.135 	"/>
	<polygon fill="#231F20" points="24.165,27.135 26.042,19.994 24.933,19.994 23.449,25.691 22.316,20.891 22.316,25.349 
		22.73,27.135 	"/>
	<path fill="#FF9C04" d="M29.058,23.049c-0.701-0.176-1.002-0.266-1.145-0.409c-0.129-0.132-0.137-0.319-0.137-0.818
		c0-0.714,0.132-0.912,1.223-0.912c0.563,0,1.207,0.071,1.749,0.194l0.128,0.029l0.094-0.985l-0.094-0.024
		c-0.562-0.148-1.287-0.232-1.897-0.232c-1.761,0-2.325,0.619-2.325,1.899c0,1.491,0.239,1.855,1.957,2.239
		c0.727,0.164,1.043,0.261,1.193,0.409c0.139,0.137,0.149,0.331,0.149,0.817c0,0.711-0.162,0.964-1.224,0.964
		c-0.621,0-1.273-0.102-1.896-0.296l-0.122-0.038l-0.189,0.945l0.089,0.036c0.608,0.245,1.423,0.371,2.097,0.371
		c0.127,0,0.23-0.011,0.345-0.018l2.022-2.022C31.072,23.822,30.919,23.511,29.058,23.049z"/>
	<path fill="#231F20" d="M29.058,23.049c-0.701-0.176-1.002-0.266-1.145-0.409c-0.129-0.132-0.137-0.319-0.137-0.818
		c0-0.714,0.132-0.912,1.223-0.912c0.563,0,1.207,0.071,1.749,0.194l0.128,0.029l0.094-0.985l-0.094-0.024
		c-0.562-0.148-1.287-0.232-1.897-0.232c-1.761,0-2.325,0.619-2.325,1.899c0,1.491,0.239,1.855,1.957,2.239
		c0.727,0.164,1.043,0.261,1.193,0.409c0.139,0.137,0.149,0.331,0.149,0.817c0,0.711-0.162,0.964-1.224,0.964
		c-0.621,0-1.273-0.102-1.896-0.296l-0.122-0.038l-0.189,0.945l0.089,0.036c0.608,0.245,1.423,0.371,2.097,0.371
		c0.127,0,0.23-0.011,0.345-0.018l2.022-2.022C31.072,23.822,30.919,23.511,29.058,23.049z"/>
</g>
</svg>
