<?xml version="1.0" encoding="utf-8"?>
<!-- Generator: Adobe Illustrator 17.0.0, SVG Export Plug-In . SVG Version: 6.00 Build 0)  -->
<!DOCTYPE svg PUBLIC "-//W3C//DTD SVG 1.1//EN" "http://www.w3.org/Graphics/SVG/1.1/DTD/svg11.dtd">
<svg version="1.1" id="Layer_1" xmlns="http://www.w3.org/2000/svg" xmlns:xlink="http://www.w3.org/1999/xlink" x="0px" y="0px"
	 width="42px" height="42px" viewBox="0 0 42 42" enable-background="new 0 0 42 42" xml:space="preserve">
<g>
	<polygon fill="#3D6480" points="11.883,5.475 9.983,5.475 9.983,8.557 4.759,3.333 3.415,4.676 8.64,9.903 5.495,9.903 
		5.496,11.803 11.883,11.8 	"/>
	<polygon fill="#FF9C04" points="12.48,24.483 14.633,24.483 13.556,21.144 	"/>
	<path fill="#FF9C04" d="M16.773,20.011h1.109l1.483,5.697l0.587-2.483v-6.06l-7.096-2.334l-4.211,4.211v10.256l11.307,4.074v-6.221
		H18.65L16.773,20.011z M15.508,27.152l-0.571-1.66h-2.771l-0.561,1.66H10.46l2.412-7.141h1.368l2.412,7.141H15.508z"/>
	<path fill="#FF9C04" d="M22.351,17.224v3.684l1.134,4.8l1.483-5.697h1.109L24.2,27.152h-1.436l-0.414-1.786v7.711l11.307-3.756
		V13.406L22.351,17.224z M28.743,27.256c-0.674,0-1.488-0.126-2.097-0.371l-0.089-0.036l0.189-0.945l0.122,0.038
		c0.622,0.194,1.274,0.296,1.896,0.296c1.062,0,1.224-0.253,1.224-0.964c0-0.486-0.011-0.681-0.149-0.817
		c-0.15-0.148-0.467-0.245-1.193-0.409c-1.718-0.384-1.957-0.748-1.957-2.239c0-1.281,0.564-1.899,2.325-1.899
		c0.61,0,1.336,0.084,1.897,0.232l0.094,0.024l-0.094,0.985l-0.128-0.029c-0.542-0.123-1.187-0.194-1.749-0.194
		c-1.091,0-1.223,0.198-1.223,0.912c0,0.499,0.008,0.687,0.137,0.817c0.143,0.145,0.443,0.234,1.145,0.409
		c1.879,0.467,2.018,0.776,2.018,2.188C31.111,26.52,30.704,27.256,28.743,27.256z"/>
	<polygon fill="#FF9C04" points="31.642,11.862 21.024,8.662 18.231,9.457 14.55,13.137 21.3,15.364 	"/>
	<path fill="#FF9C04" d="M12.872,20.011l-2.412,7.141h1.145l0.561-1.66h2.771l0.571,1.66h1.145l-2.412-7.141H12.872z M12.48,24.483
		l1.076-3.339l1.077,3.339H12.48z"/>
	<path fill="#231F20" d="M12.872,20.011l-2.412,7.141h1.145l0.561-1.66h2.771l0.571,1.66h1.145l-2.412-7.141H12.872z M12.48,24.483
		l1.076-3.339l1.077,3.339H12.48z"/>
	<polygon fill="#231F20" points="22.139,20.011 20.712,20.011 19.952,23.226 19.952,27.152 20.085,27.152 21.425,21.373 
		22.351,25.366 22.351,20.909 	"/>
	<polygon fill="#FF9C04" points="19.365,25.709 17.882,20.011 16.773,20.011 18.65,27.152 19.952,27.152 19.952,23.226 	"/>
	<polygon fill="#231F20" points="19.365,25.709 17.882,20.011 16.773,20.011 18.65,27.152 19.952,27.152 19.952,23.226 	"/>
	<polygon fill="#FF9C04" points="24.2,27.152 26.077,20.011 24.968,20.011 23.485,25.709 22.351,20.909 22.351,25.366 
		22.765,27.152 	"/>
	<polygon fill="#231F20" points="24.2,27.152 26.077,20.011 24.968,20.011 23.485,25.709 22.351,20.909 22.351,25.366 
		22.765,27.152 	"/>
	<path fill="#FF9C04" d="M29.093,23.065c-0.701-0.175-1.002-0.265-1.145-0.409c-0.129-0.131-0.137-0.318-0.137-0.817
		c0-0.714,0.132-0.912,1.223-0.912c0.563,0,1.207,0.071,1.749,0.194l0.128,0.029l0.094-0.985l-0.094-0.024
		c-0.562-0.148-1.287-0.232-1.897-0.232c-1.761,0-2.325,0.618-2.325,1.899c0,1.491,0.239,1.855,1.957,2.239
		c0.727,0.164,1.043,0.261,1.193,0.409c0.139,0.137,0.149,0.331,0.149,0.817c0,0.711-0.162,0.964-1.224,0.964
		c-0.621,0-1.273-0.102-1.896-0.296l-0.122-0.038l-0.189,0.945l0.089,0.036c0.608,0.245,1.423,0.371,2.097,0.371
		c1.961,0,2.367-0.735,2.367-2.003C31.111,23.842,30.972,23.532,29.093,23.065z"/>
	<path fill="#231F20" d="M29.093,23.065c-0.701-0.175-1.002-0.265-1.145-0.409c-0.129-0.131-0.137-0.318-0.137-0.817
		c0-0.714,0.132-0.912,1.223-0.912c0.563,0,1.207,0.071,1.749,0.194l0.128,0.029l0.094-0.985l-0.094-0.024
		c-0.562-0.148-1.287-0.232-1.897-0.232c-1.761,0-2.325,0.618-2.325,1.899c0,1.491,0.239,1.855,1.957,2.239
		c0.727,0.164,1.043,0.261,1.193,0.409c0.139,0.137,0.149,0.331,0.149,0.817c0,0.711-0.162,0.964-1.224,0.964
		c-0.621,0-1.273-0.102-1.896-0.296l-0.122-0.038l-0.189,0.945l0.089,0.036c0.608,0.245,1.423,0.371,2.097,0.371
		c1.961,0,2.367-0.735,2.367-2.003C31.111,23.842,30.972,23.532,29.093,23.065z"/>
</g>
</svg>
