<?xml version="1.0" encoding="utf-8"?>
<!-- Generator: Adobe Illustrator 18.0.0, SVG Export Plug-In . SVG Version: 6.00 Build 0)  -->
<!DOCTYPE svg PUBLIC "-//W3C//DTD SVG 1.1//EN" "http://www.w3.org/Graphics/SVG/1.1/DTD/svg11.dtd">
<svg version="1.1" id="Layer_1" xmlns="http://www.w3.org/2000/svg" xmlns:xlink="http://www.w3.org/1999/xlink" x="0px" y="0px"
	 viewBox="-9 -9 42 42" enable-background="new -9 -9 42 42" xml:space="preserve">
<g>
	<g>
		<polygon fill="#3D6480" points="0.9,23.1 0.9,0.9 23.2,0.9 23.2,13.9 24.9,12.2 24.9,-0.9 -0.8,-0.9 -0.8,24.9 11.8,24.9 
			13.6,23.1 		"/>
		<polygon fill="#EFF9FE" points="0.9,0.9 0.9,23.1 13.6,23.1 23.2,13.9 23.2,0.9 		"/>
		<polygon fill="#3D6480" points="28.1,23.6 28.1,26.7 22.9,21.5 21.5,22.8 26.8,28.1 23.6,28.1 23.6,30 30,30 30,23.6 		"/>
	</g>
	<g>
		<path fill="#3D6480" d="M6.5,14.9c-0.6,0-1.4-0.1-2-0.4l0.1-0.7c0.6,0.2,1.2,0.3,1.9,0.3c1.1,0,1.3-0.3,1.3-1c0-0.9,0-1-1.4-1.3
			c-1.6-0.4-1.8-0.7-1.8-2C4.6,8.6,5.1,8,6.7,8C7.3,8,8,8.1,8.5,8.2L8.4,9C7.9,8.8,7.3,8.8,6.7,8.8c-1.1,0-1.3,0.2-1.3,1
			c0,0.9,0,1,1.3,1.3c1.8,0.4,1.9,0.7,1.9,2C8.6,14.2,8.3,14.9,6.5,14.9z"/>
		<path fill="#3D6480" d="M14.9,14.8h-0.9l-0.5-1.6h-2.8l-0.5,1.6H9.3l2.2-6.7h1.2L14.9,14.8z M12.1,8.7l-1.2,3.7h2.4L12.1,8.7z"/>
		<path fill="#3D6480" d="M17.5,14.9c-0.6,0-1.4-0.1-2-0.4l0.1-0.7c0.6,0.2,1.2,0.3,1.9,0.3c1.1,0,1.3-0.3,1.3-1c0-0.9,0-1-1.4-1.3
			c-1.6-0.4-1.8-0.7-1.8-2c0-1.2,0.5-1.7,2.1-1.7c0.6,0,1.3,0.1,1.8,0.2L19.5,9c-0.5-0.1-1.2-0.2-1.7-0.2c-1.1,0-1.3,0.2-1.3,1
			c0,0.9,0,1,1.3,1.3c1.8,0.4,1.9,0.7,1.9,2C19.7,14.2,19.4,14.9,17.5,14.9z"/>
	</g>
</g>
</svg>
