<?xml version="1.0" encoding="utf-8"?>
<!-- Generator: Adobe Illustrator 17.0.0, SVG Export Plug-In . SVG Version: 6.00 Build 0)  -->
<!DOCTYPE svg PUBLIC "-//W3C//DTD SVG 1.1//EN" "http://www.w3.org/Graphics/SVG/1.1/DTD/svg11.dtd">
<svg version="1.1" id="Layer_1" xmlns="http://www.w3.org/2000/svg" xmlns:xlink="http://www.w3.org/1999/xlink" x="0px" y="0px"
	 width="42px" height="42px" viewBox="0 0 42 42" enable-background="new 0 0 42 42" xml:space="preserve">
<g>
	<polygon fill="#3D6480" points="37.231,32.635 37.231,35.718 32.007,30.493 30.663,31.837 35.887,37.062 32.743,37.063 
		32.743,38.963 39.131,38.962 39.131,32.635 	"/>
	<path fill="#EFF9FE" d="M32.266,9.85h-22.3V32.15h14.156l8.143-8.143V9.85z M18.931,14.13c0.46-0.233,0.967-0.401,1.507-0.489
		c0.153-0.024,0.312-0.043,0.47-0.055c0.201-0.008,0.402-0.004,0.605,0.01c1.828,0.15,3.379,1.223,4.135,2.724
		c0.076,0.168,0.148,0.343,0.22,0.526c-0.075-0.081-0.154-0.16-0.236-0.236c-0.146-0.136-0.301-0.265-0.466-0.386
		c-1.208-0.885-2.661-1.133-3.895-0.787c-0.774,0.217-1.463,0.668-1.948,1.342c-0.661,0.916-0.817,2.063-0.532,3.154
		c0.067,0.11,0.143,0.219,0.225,0.324l2.238,2.576c0.843,0.969-0.611,2.232-1.453,1.264l-2.255-2.594
		c-0.036-0.041-0.067-0.083-0.095-0.125C15.319,18.544,16.456,15.386,18.931,14.13z M23.302,27.871
		c-0.46,0.233-0.967,0.401-1.507,0.488c-0.153,0.025-0.312,0.044-0.47,0.055c-0.201,0.008-0.402,0.005-0.605-0.01
		c-1.828-0.15-3.379-1.223-4.135-2.724c-0.076-0.167-0.148-0.342-0.22-0.526c0.075,0.081,0.154,0.16,0.236,0.237
		c0.146,0.136,0.301,0.265,0.466,0.385c1.208,0.885,2.661,1.133,3.895,0.788c0.774-0.217,1.463-0.668,1.948-1.342
		c0.661-0.917,0.817-2.063,0.532-3.154c-0.067-0.11-0.143-0.219-0.225-0.325l-2.238-2.575c-0.843-0.97,0.611-2.233,1.453-1.264
		l2.255,2.594c0.036,0.041,0.067,0.083,0.095,0.125C26.913,23.456,25.776,26.615,23.302,27.871z"/>
	<polygon fill="#3D6480" points="9.966,9.85 32.266,9.85 32.266,24.007 33.966,22.307 33.966,8.15 8.266,8.15 8.266,33.85 
		22.424,33.85 24.123,32.15 9.966,32.15 	"/>
	<path fill="#3D6480" d="M17.545,21.503l2.255,2.594c0.842,0.969,2.296-0.295,1.453-1.264l-2.238-2.576
		c-0.082-0.105-0.157-0.214-0.225-0.324c-0.285-1.092-0.129-2.238,0.532-3.154c0.485-0.674,1.174-1.125,1.948-1.342
		c1.233-0.346,2.687-0.098,3.895,0.787c0.165,0.121,0.32,0.25,0.466,0.386c0.082,0.076,0.161,0.155,0.236,0.236
		c-0.071-0.184-0.144-0.358-0.22-0.526c-0.756-1.501-2.307-2.573-4.135-2.724c-0.203-0.014-0.404-0.018-0.605-0.01
		c-0.158,0.012-0.316,0.03-0.47,0.055c-0.54,0.088-1.047,0.256-1.507,0.489c-2.475,1.256-3.611,4.414-1.48,7.248
		C17.478,21.42,17.509,21.462,17.545,21.503z"/>
	<path fill="#3D6480" d="M24.688,20.498l-2.255-2.594c-0.842-0.97-2.296,0.294-1.453,1.264l2.238,2.575
		c0.082,0.106,0.157,0.215,0.225,0.325c0.285,1.091,0.129,2.237-0.532,3.154c-0.485,0.674-1.174,1.125-1.948,1.342
		c-1.233,0.345-2.687,0.097-3.895-0.788c-0.165-0.12-0.32-0.249-0.466-0.385c-0.082-0.077-0.161-0.156-0.236-0.237
		c0.071,0.185,0.144,0.359,0.22,0.526c0.756,1.501,2.307,2.573,4.135,2.724c0.203,0.015,0.404,0.018,0.605,0.01
		c0.158-0.011,0.316-0.029,0.47-0.055c0.54-0.087,1.047-0.255,1.507-0.488c2.475-1.256,3.611-4.415,1.48-7.248
		C24.755,20.581,24.724,20.539,24.688,20.498z"/>
</g>
</svg>
