<?xml version="1.0" encoding="utf-8"?>
<!-- Generator: Adobe Illustrator 18.0.0, SVG Export Plug-In . SVG Version: 6.00 Build 0)  -->
<!DOCTYPE svg PUBLIC "-//W3C//DTD SVG 1.1//EN" "http://www.w3.org/Graphics/SVG/1.1/DTD/svg11.dtd">
<svg version="1.1" xmlns="http://www.w3.org/2000/svg" xmlns:xlink="http://www.w3.org/1999/xlink" x="0px" y="0px"
	 viewBox="0 0 16 16" enable-background="new 0 0 16 16" xml:space="preserve">
<g id="Layer_2">
	<g id="Layer_2_1_">
		<rect fill="none" width="16" height="16"/>
	</g>
</g>
<g id="art">
	<polygon fill="#FFFFFF" points="1.2,14.6 1.2,0.8 13.4,0.8 13.4,5 3.6,14.8 	"/>
	<rect x="3.6" y="3.6" fill="#3D6480" width="2.6" height="2.4"/>
	<polygon fill="#3D6480" points="10.2,8.1 3.6,8.1 3.6,13.6 1.8,13.6 1.8,1.8 12.2,1.8 12.2,6.2 14,4.4 14,0 0,0 0,15.4 3,15.4 
		3,15.4 	"/>
	<g>
		<polygon fill="#FFFFFF" points="7.8,15.3 8,12.7 12.8,8 14.9,10.1 9.7,15.3 		"/>
		<path fill="#3D6480" d="M12.9,7L7,12.9V16l3.1,0l5.9-5.9L12.9,7z M13.9,10.1l-0.5,0.5l-1-1l0.5-0.5L13.9,10.1z M9.5,14.5l-1,0v-1
			l3.4-3.4l1,1L9.5,14.5z"/>
	</g>
</g>
</svg>
