<?xml version="1.0" encoding="utf-8"?>
<!-- Generator: Adobe Illustrator 18.0.0, SVG Export Plug-In . SVG Version: 6.00 Build 0)  -->
<!DOCTYPE svg PUBLIC "-//W3C//DTD SVG 1.1//EN" "http://www.w3.org/Graphics/SVG/1.1/DTD/svg11.dtd">
<svg version="1.1" xmlns="http://www.w3.org/2000/svg" xmlns:xlink="http://www.w3.org/1999/xlink" x="0px" y="0px"
	 viewBox="0 0 16 16" enable-background="new 0 0 16 16" xml:space="preserve">
<g id="Layer_2">
	<g id="Layer_2_1_">
		<rect fill="none" width="16" height="16"/>
	</g>
</g>
<g id="art">
	<g>
		<path fill="#FFFFFF" d="M14.7,9.8L14.7,9.8L12.4,5L10,9.7l0,0c-0.2,0.4-0.3,0.8-0.3,1.2H15C15,10.5,14.9,10.1,14.7,9.8z"/>
		<path fill="#FFFFFF" d="M6,9.8L6,9.8L3.6,5L1.3,9.7l0,0C1.1,10.1,1,10.5,1,11h5.3C6.3,10.5,6.2,10.1,6,9.8z"/>
		<path fill="#3D6480" d="M15.6,9.3l-2.5-5.1h0.4c0.2,0,0.4-0.2,0.4-0.4V3c0-0.2-0.2-0.4-0.4-0.4h-3.2c-0.1-0.7-1.1-1.3-2.4-1.3
			S5.6,1.9,5.5,2.6H2.4C2.1,2.6,1.9,2.8,1.9,3v0.7c0,0.2,0.2,0.4,0.4,0.4h0.5L0.4,9.3C0.1,9.8,0,10.4,0,11c0,1,0.4,1.9,1.1,2.6
			c0.7,0.7,1.6,1.1,2.6,1.1c1,0,1.9-0.4,2.6-1.1C6.9,12.9,7.3,12,7.3,11c0-0.6-0.1-1.2-0.4-1.7L4.4,4.2h2.9v3.1h1V4.2h3.3L9.1,9.3
			C8.8,9.8,8.7,10.4,8.7,11c0,1,0.4,1.9,1.1,2.6c0.7,0.7,1.6,1.1,2.6,1.1s1.9-0.4,2.6-1.1C15.6,12.9,16,12,16,11
			C16,10.4,15.9,9.8,15.6,9.3z M1.3,9.8L1.3,9.8L3.6,5L6,9.7l0,0c0.2,0.4,0.3,0.8,0.3,1.2H1C1,10.5,1.1,10.1,1.3,9.8z M10,9.8
			L10,9.8L12.4,5l2.3,4.8l0,0c0.2,0.4,0.3,0.8,0.3,1.2H9.7C9.7,10.5,9.8,10.1,10,9.8z"/>
	</g>
</g>
</svg>
