<?xml version="1.0" encoding="utf-8"?>
<!-- Generator: Adobe Illustrator 17.0.0, SVG Export Plug-In . SVG Version: 6.00 Build 0)  -->
<!DOCTYPE svg PUBLIC "-//W3C//DTD SVG 1.1//EN" "http://www.w3.org/Graphics/SVG/1.1/DTD/svg11.dtd">
<svg version="1.1" id="Layer_1" xmlns="http://www.w3.org/2000/svg" xmlns:xlink="http://www.w3.org/1999/xlink" x="0px" y="0px"
	 width="42px" height="42px" viewBox="0 0 42 42" enable-background="new 0 0 42 42" xml:space="preserve">
<g>
	<polygon fill="none" points="29.573,29.753 29.573,35.074 35.278,32.417 	"/>
	<path fill="#0CB20F" d="M27.724,26.847v11.129l11.931-5.557L27.724,26.847z M29.573,29.753l5.704,2.664l-5.704,2.656V29.753z"/>
	<path fill="#EFF9FE" d="M29.267,10.412h1.7v1.116h1.128c1.067,0,1.936-0.869,1.936-1.936s-0.869-1.936-1.936-1.936H17.444
		c-2.408,0-3.734,1.326-3.734,3.734v15.25h6.162v1.7h-9.439c-1.067,0-1.936,0.869-1.936,1.937c0,1.067,0.869,1.936,1.936,1.936
		H22.06l7.208-7.208V10.412z M19.746,21.022c0,0.352-0.023,0.574-0.193,0.827c-0.082,0.121-0.195,0.247-0.347,0.398l-0.6,0.565
		l-0.091,0.084l-0.631-0.712l0.084-0.08c0.408-0.39,0.601-0.577,0.697-0.717c0.082-0.121,0.088-0.195,0.088-0.393V15.06h0.992
		V21.022z M22.625,21.21c-0.571,0-1.261-0.107-1.776-0.315l-0.093-0.037l0.168-0.842l0.128,0.04c0.522,0.162,1.07,0.248,1.591,0.248
		c0.885,0,1.007-0.206,1.007-0.789c0-0.188,0-0.334-0.019-0.45c-0.018-0.105-0.047-0.169-0.1-0.221
		c-0.121-0.12-0.38-0.2-0.994-0.339c-1.457-0.326-1.668-0.642-1.668-1.909c0-1.096,0.489-1.625,1.982-1.625
		c0.516,0,1.13,0.071,1.604,0.196l0.099,0.026l-0.084,0.877l-0.133-0.03c-0.455-0.104-0.996-0.163-1.469-0.163
		c-0.91,0-1.007,0.16-1.007,0.744c0,0.193-0.001,0.341,0.017,0.457c0.016,0.106,0.045,0.167,0.093,0.216
		c0.114,0.115,0.358,0.189,0.953,0.338c1.591,0.396,1.718,0.664,1.718,1.866C24.643,20.581,24.289,21.21,22.625,21.21z"/>
	<path fill="#3D6480" d="M8.496,30.278c0-1.068,0.869-1.937,1.936-1.937h9.439v-1.7H13.71V11.39c0-2.408,1.326-3.734,3.734-3.734
		h14.652c1.067,0,1.936,0.869,1.936,1.936s-0.869,1.936-1.936,1.936h-1.128v-1.116h-1.7v14.594l1.7-1.7V13.228h1.128
		c2.005,0,3.636-1.631,3.636-3.636s-1.631-3.636-3.636-3.636H17.444c-3.352,0-5.434,2.083-5.434,5.434v15.25h-1.578
		c-2.005,0-3.636,1.632-3.636,3.637c0,2.005,1.631,3.636,3.636,3.636h9.928l1.7-1.7H10.432C9.365,32.214,8.496,31.345,8.496,30.278z
		"/>
	<path fill="#3D6480" d="M18.754,20.995c0,0.197-0.006,0.271-0.088,0.393c-0.097,0.14-0.289,0.327-0.697,0.717l-0.084,0.08
		l0.631,0.712l0.091-0.084l0.6-0.565c0.151-0.151,0.265-0.277,0.347-0.398c0.17-0.253,0.193-0.476,0.193-0.827V15.06h-0.992V20.995z
		"/>
	<path fill="#3D6480" d="M22.925,17.633c-0.595-0.148-0.839-0.223-0.953-0.338c-0.048-0.049-0.077-0.11-0.093-0.216
		c-0.018-0.116-0.017-0.264-0.017-0.457c0-0.584,0.097-0.744,1.007-0.744c0.473,0,1.014,0.06,1.469,0.163l0.133,0.03l0.084-0.877
		l-0.099-0.026c-0.475-0.125-1.089-0.196-1.604-0.196c-1.493,0-1.982,0.529-1.982,1.625c0,1.268,0.211,1.583,1.668,1.909
		c0.614,0.139,0.873,0.219,0.994,0.339c0.053,0.052,0.082,0.115,0.1,0.221c0.019,0.116,0.019,0.262,0.019,0.45
		c0,0.583-0.122,0.789-1.007,0.789c-0.521,0-1.068-0.086-1.591-0.248l-0.128-0.04l-0.168,0.842l0.093,0.037
		c0.516,0.208,1.205,0.315,1.776,0.315c1.664,0,2.018-0.629,2.018-1.711C24.643,18.297,24.516,18.029,22.925,17.633z"/>
</g>
</svg>
