<?xml version="1.0" encoding="utf-8"?>
<!-- Generator: Adobe Illustrator 17.0.0, SVG Export Plug-In . SVG Version: 6.00 Build 0)  -->
<!DOCTYPE svg PUBLIC "-//W3C//DTD SVG 1.1//EN" "http://www.w3.org/Graphics/SVG/1.1/DTD/svg11.dtd">
<svg version="1.1" id="Layer_1" xmlns="http://www.w3.org/2000/svg" xmlns:xlink="http://www.w3.org/1999/xlink" x="0px" y="0px"
	 width="42px" height="42px" viewBox="0 0 42 42" enable-background="new 0 0 42 42" xml:space="preserve">
<g>
	<polygon fill="#EA102A" points="38.894,32.233 37.55,30.889 34.651,33.787 31.753,30.889 30.409,32.233 33.308,35.131 
		30.409,38.03 31.753,39.373 34.651,36.475 37.55,39.373 38.894,38.03 35.995,35.131 	"/>
	<path fill="#FDE7EA" d="M31.936,10.287h-22.3v22.301h14.05l8.25-8.25V10.287z M18.626,30.121l-5.835-12.607l10.155-4.76
		l5.835,12.606L18.626,30.121z"/>
	<path fill="#FDE7EA" d="M21.233,19.949l-1.256,0.264c-0.39,0.084-0.715,0.046-0.92-0.041c-0.201-0.085-0.339-0.257-0.412-0.458
		c-0.193-0.53-0.002-1.158,0.935-1.499c0.649-0.236,1.362-0.4,2.126-0.065l0.236-2.463c-0.984-0.248-1.979-0.139-3.117,0.276
		c-2.301,0.838-3.287,2.729-2.57,4.701c0.33,0.904,0.854,1.536,1.592,1.88c0.686,0.307,1.488,0.338,2.436,0.144l1.281-0.273
		c0.469-0.095,0.67-0.069,0.865,0.013c0.193,0.083,0.36,0.271,0.474,0.582c0.216,0.592-0.058,1.147-1.173,1.553
		c-0.902,0.329-1.766,0.41-2.547,0.046l-0.18,2.558c1.141,0.304,2.266,0.139,3.525-0.319c2.195-0.799,3.583-2.625,2.797-4.784
		c-0.342-0.939-0.895-1.664-1.711-2.018C22.975,19.771,22.237,19.733,21.233,19.949z"/>
	<polygon fill="#3D6480" points="9.636,10.287 31.936,10.287 31.936,24.338 33.636,22.637 33.636,8.587 7.936,8.587 7.936,34.287 
		21.987,34.287 23.686,32.587 9.636,32.587 	"/>
	<path fill="#3D6480" d="M12.791,17.513l5.835,12.607l10.155-4.761l-5.835-12.606L12.791,17.513z M25.325,22.061
		c0.786,2.159-0.602,3.985-2.797,4.784c-1.26,0.458-2.385,0.623-3.525,0.319l0.18-2.558c0.781,0.364,1.645,0.283,2.547-0.046
		c1.115-0.405,1.389-0.961,1.173-1.553c-0.113-0.312-0.28-0.499-0.474-0.582c-0.195-0.082-0.396-0.107-0.865-0.013l-1.281,0.273
		c-0.947,0.194-1.75,0.163-2.436-0.144c-0.738-0.344-1.262-0.976-1.592-1.88c-0.717-1.973,0.27-3.863,2.57-4.701
		c1.139-0.415,2.133-0.524,3.117-0.276l-0.236,2.463c-0.764-0.335-1.477-0.171-2.126,0.065c-0.937,0.341-1.128,0.969-0.935,1.499
		c0.073,0.201,0.211,0.373,0.412,0.458c0.205,0.087,0.53,0.125,0.92,0.041l1.256-0.264c1.004-0.216,1.741-0.178,2.381,0.095
		C24.431,20.397,24.983,21.121,25.325,22.061z"/>
</g>
</svg>
