<?xml version="1.0" encoding="utf-8"?>
<!-- Generator: Adobe Illustrator 17.0.0, SVG Export Plug-In . SVG Version: 6.00 Build 0)  -->
<!DOCTYPE svg PUBLIC "-//W3C//DTD SVG 1.1//EN" "http://www.w3.org/Graphics/SVG/1.1/DTD/svg11.dtd">
<svg version="1.1" id="Layer_1" xmlns="http://www.w3.org/2000/svg" xmlns:xlink="http://www.w3.org/1999/xlink" x="0px" y="0px"
	 width="42px" height="42px" viewBox="0 0 42 42" enable-background="new 0 0 42 42" xml:space="preserve">
<g>
	<polygon fill="#3D6480" points="36.8,32.512 36.8,35.595 31.576,30.371 30.232,31.714 35.456,36.939 32.312,36.94 32.312,38.84 
		38.7,38.839 38.7,32.512 	"/>
	<path fill="#FDE7EA" d="M21.133,19.39l-1.256,0.264c-0.39,0.084-0.715,0.046-0.92-0.041c-0.201-0.086-0.339-0.258-0.412-0.459
		c-0.193-0.529-0.002-1.157,0.935-1.499c0.649-0.236,1.362-0.4,2.126-0.065l0.236-2.463c-0.984-0.247-1.979-0.138-3.117,0.277
		c-2.301,0.837-3.287,2.729-2.57,4.701c0.33,0.903,0.854,1.535,1.592,1.88c0.686,0.306,1.488,0.338,2.436,0.144l1.281-0.274
		c0.469-0.094,0.67-0.069,0.865,0.014c0.193,0.082,0.36,0.271,0.474,0.581c0.216,0.593-0.058,1.147-1.173,1.554
		c-0.902,0.328-1.766,0.41-2.547,0.046l-0.18,2.558c1.141,0.304,2.266,0.139,3.525-0.32c2.195-0.798,3.583-2.624,2.797-4.783
		c-0.342-0.939-0.895-1.664-1.711-2.019C22.874,19.212,22.136,19.174,21.133,19.39z"/>
	<path fill="#FDE7EA" d="M31.835,9.727h-22.3v22.301h14.71l7.59-7.59V9.727z M18.525,29.562L12.69,16.955l10.155-4.761l5.835,12.607
		L18.525,29.562z"/>
	<polygon fill="#3D6480" points="9.535,9.727 31.835,9.727 31.835,24.438 33.535,22.738 33.535,8.028 7.835,8.028 7.835,33.727 
		22.546,33.727 24.246,32.028 9.535,32.028 	"/>
	<path fill="#3D6480" d="M12.69,16.955l5.835,12.607l10.155-4.761l-5.835-12.607L12.69,16.955z M25.224,21.502
		c0.786,2.159-0.602,3.985-2.797,4.783c-1.26,0.459-2.385,0.624-3.525,0.32l0.18-2.558c0.781,0.364,1.645,0.282,2.547-0.046
		c1.115-0.406,1.389-0.961,1.173-1.554c-0.113-0.311-0.28-0.499-0.474-0.581c-0.195-0.083-0.396-0.107-0.865-0.014l-1.281,0.274
		c-0.947,0.194-1.75,0.162-2.436-0.144c-0.738-0.345-1.262-0.977-1.592-1.88c-0.717-1.973,0.27-3.864,2.57-4.701
		c1.139-0.415,2.133-0.524,3.117-0.277l-0.236,2.463c-0.764-0.335-1.477-0.171-2.126,0.065c-0.937,0.342-1.128,0.97-0.935,1.499
		c0.073,0.201,0.211,0.373,0.412,0.459c0.205,0.087,0.53,0.125,0.92,0.041l1.256-0.264c1.004-0.216,1.741-0.178,2.381,0.094
		C24.33,19.838,24.883,20.563,25.224,21.502z"/>
</g>
</svg>
