<?xml version="1.0" encoding="utf-8"?>
<!-- Generator: Adobe Illustrator 17.0.0, SVG Export Plug-In . SVG Version: 6.00 Build 0)  -->
<!DOCTYPE svg PUBLIC "-//W3C//DTD SVG 1.1//EN" "http://www.w3.org/Graphics/SVG/1.1/DTD/svg11.dtd">
<svg version="1.1" id="Layer_1" xmlns="http://www.w3.org/2000/svg" xmlns:xlink="http://www.w3.org/1999/xlink" x="0px" y="0px"
	 width="42px" height="42px" viewBox="0 0 42 42" enable-background="new 0 0 42 42" xml:space="preserve">
<g>
	<path fill="#0CB20F" d="M5.88,10.868l-1.344,1.344l4.247,4.248l4.248-4.248l-1.344-1.344l-1.954,1.954V8.29
		c0-2.953-2.402-5.356-5.355-5.356H3.741v1.9h0.638c1.905,0,3.455,1.55,3.455,3.456v4.532L5.88,10.868z"/>
	<path fill="#FDE7EA" d="M20.35,22.643l1.281-0.274c0.469-0.094,0.67-0.069,0.865,0.014c0.193,0.082,0.36,0.271,0.474,0.581
		c0.216,0.592-0.058,1.147-1.173,1.554c-0.902,0.328-1.766,0.41-2.547,0.046l-0.18,2.558c1.141,0.304,2.266,0.139,3.525-0.32
		c2.195-0.799,3.583-2.625,2.797-4.783c-0.342-0.939-0.895-1.664-1.711-2.019c-0.64-0.272-1.377-0.31-2.381-0.095l-1.256,0.265
		c-0.39,0.084-0.715,0.045-0.92-0.041c-0.201-0.086-0.339-0.258-0.412-0.459c-0.193-0.529-0.002-1.157,0.935-1.499
		c0.649-0.236,1.362-0.4,2.126-0.065l0.236-2.463c-0.984-0.247-1.979-0.138-3.117,0.276c-2.301,0.838-3.287,2.729-2.57,4.701
		c0.33,0.904,0.854,1.536,1.592,1.881C18.6,22.805,19.403,22.838,20.35,22.643z"/>
	<path fill="#FDE7EA" d="M32.254,32.793V9.992H17.735l-8.281,8.281v14.52H32.254z M23.014,12.709l5.835,12.607l-10.155,4.761
		l-5.835-12.607L23.014,12.709z"/>
	<polygon fill="#3D6480" points="18.934,8.793 17.735,9.992 32.254,9.992 32.254,32.793 9.454,32.793 9.454,18.272 8.254,19.473 
		8.254,33.992 33.454,33.992 33.454,8.793 	"/>
	<path fill="#3D6480" d="M28.849,25.316l-5.835-12.607l-10.155,4.761l5.835,12.607L28.849,25.316z M16.323,20.619
		c-0.717-1.973,0.27-3.863,2.57-4.701c1.139-0.414,2.133-0.523,3.117-0.276l-0.236,2.463c-0.764-0.335-1.477-0.171-2.126,0.065
		c-0.937,0.342-1.128,0.97-0.935,1.499c0.073,0.201,0.211,0.373,0.412,0.459c0.205,0.086,0.53,0.125,0.92,0.041l1.256-0.265
		c1.004-0.215,1.741-0.178,2.381,0.095c0.816,0.354,1.369,1.079,1.711,2.019c0.786,2.158-0.602,3.984-2.797,4.783
		c-1.26,0.459-2.385,0.624-3.525,0.32l0.18-2.558c0.781,0.364,1.645,0.282,2.547-0.046c1.115-0.406,1.389-0.962,1.173-1.554
		c-0.113-0.311-0.28-0.499-0.474-0.581c-0.195-0.083-0.396-0.107-0.865-0.014l-1.281,0.274c-0.947,0.194-1.75,0.162-2.436-0.144
		C17.176,22.155,16.653,21.523,16.323,20.619z"/>
</g>
</svg>
