<?xml version="1.0" encoding="utf-8"?>
<!-- Generator: Adobe Illustrator 17.0.0, SVG Export Plug-In . SVG Version: 6.00 Build 0)  -->
<!DOCTYPE svg PUBLIC "-//W3C//DTD SVG 1.1//EN" "http://www.w3.org/Graphics/SVG/1.1/DTD/svg11.dtd">
<svg version="1.1" id="Layer_1" xmlns="http://www.w3.org/2000/svg" xmlns:xlink="http://www.w3.org/1999/xlink" x="0px" y="0px"
	 width="42px" height="42px" viewBox="0 0 42 42" enable-background="new 0 0 42 42" xml:space="preserve">
<g>
	<path fill="#0CB20F" d="M22.789,32.424h1.656c0.076,3.74,3.133,6.748,6.891,6.748c1.574,0,3.025-0.527,4.186-1.414l-1.109-1.451
		c-0.854,0.652-1.918,1.039-3.076,1.039c-2.754,0-4.996-2.199-5.111-4.922h1.784l-2.567-3.592l-0.302,0.302L22.789,32.424z"/>
	<path fill="#0CB20F" d="M36.918,36.316l2.609-3.652h-1.654c-0.078-3.74-3.135-6.748-6.893-6.748c-1.394,0-2.681,0.432-3.767,1.144
		l-0.354,0.354l1.045,1.367c0.854-0.652,1.918-1.039,3.076-1.039c2.756,0,4.996,2.199,5.112,4.922h-1.784L36.918,36.316z"/>
	<path fill="#FDE7EA" d="M32.182,22.092V10.125h-22.3v22.301h11.966l3.292-3.292l0.302-0.302l1.418-1.418l0.354-0.354L32.182,22.092
		z M18.872,29.959l-5.835-12.607l10.155-4.761l5.835,12.607L18.872,29.959z"/>
	<path fill="#FDE7EA" d="M25.571,21.899c-0.342-0.939-0.895-1.664-1.711-2.018c-0.64-0.272-1.377-0.311-2.381-0.095l-1.256,0.264
		c-0.39,0.084-0.715,0.046-0.92-0.041c-0.201-0.085-0.339-0.257-0.412-0.458c-0.193-0.53-0.002-1.158,0.935-1.499
		c0.649-0.236,1.362-0.4,2.126-0.065l0.236-2.464c-0.984-0.247-1.979-0.138-3.117,0.277c-2.301,0.838-3.287,2.729-2.57,4.701
		c0.33,0.904,0.854,1.535,1.592,1.88c0.686,0.307,1.488,0.338,2.436,0.144l1.281-0.273c0.469-0.095,0.67-0.069,0.865,0.013
		c0.193,0.083,0.36,0.271,0.474,0.581c0.216,0.593-0.058,1.147-1.173,1.554c-0.902,0.329-1.766,0.41-2.547,0.046l-0.18,2.558
		c1.141,0.304,2.266,0.139,3.525-0.319C24.969,25.885,26.357,24.058,25.571,21.899z"/>
	<polygon fill="#3D6480" points="9.882,10.125 32.182,10.125 32.182,22.092 33.882,20.392 33.882,8.426 8.182,8.426 8.182,34.125 
		20.148,34.125 21.848,32.426 9.882,32.426 	"/>
	<path fill="#3D6480" d="M23.192,12.591l-10.155,4.761l5.835,12.607l10.155-4.761L23.192,12.591z M22.774,26.683
		c-1.26,0.458-2.385,0.623-3.525,0.319l0.18-2.558c0.781,0.364,1.645,0.283,2.547-0.046c1.115-0.406,1.389-0.961,1.173-1.554
		c-0.113-0.311-0.28-0.498-0.474-0.581c-0.195-0.082-0.396-0.107-0.865-0.013l-1.281,0.273c-0.947,0.194-1.75,0.163-2.436-0.144
		c-0.738-0.345-1.262-0.976-1.592-1.88c-0.717-1.973,0.27-3.863,2.57-4.701c1.139-0.415,2.133-0.524,3.117-0.277l-0.236,2.464
		c-0.764-0.335-1.477-0.171-2.126,0.065c-0.937,0.341-1.128,0.969-0.935,1.499c0.073,0.201,0.211,0.373,0.412,0.458
		c0.205,0.087,0.53,0.125,0.92,0.041l1.256-0.264c1.004-0.216,1.741-0.178,2.381,0.095c0.816,0.354,1.369,1.078,1.711,2.018
		C26.357,24.058,24.969,25.885,22.774,26.683z"/>
</g>
</svg>
