<?xml version="1.0" encoding="utf-8"?>
<!-- Generator: Adobe Illustrator 18.0.0, SVG Export Plug-In . SVG Version: 6.00 Build 0)  -->
<!DOCTYPE svg PUBLIC "-//W3C//DTD SVG 1.1//EN" "http://www.w3.org/Graphics/SVG/1.1/DTD/svg11.dtd">
<svg version="1.1" id="Layer_1" xmlns="http://www.w3.org/2000/svg" xmlns:xlink="http://www.w3.org/1999/xlink" x="0px" y="0px"
	 viewBox="13 13 16 16" enable-background="new 13 13 16 16" xml:space="preserve">
<g>
	<path fill="#FFFFFF" d="M14.4,18.5h13.2v-4.1H14.4V18.5z M21.3,15.5H26v1.9h-4.7V15.5z M15.7,15.5h4.7v1.9h-4.7V15.5z"/>
	<path fill="#FFFFFF" d="M27.6,23.5H14.4v4.1h13.2V23.5z M20.4,26.5h-4.7v-1.9h4.7V26.5z M26,26.5h-4.7v-1.9H26V26.5z"/>
	<path fill="#3D6380" d="M13,13v6.9h16V13H13z M27.6,18.5H14.4v-4.1h13.2V18.5z"/>
	<rect x="15.7" y="15.5" fill="#3D6380" width="4.7" height="1.9"/>
	<rect x="21.3" y="15.5" fill="#3D6380" width="4.7" height="1.9"/>
	<path fill="#3D6380" d="M13,29h16v-6.9H13V29z M14.4,23.5h13.2v4.1H14.4V23.5z"/>
	<rect x="15.7" y="24.6" fill="#3D6380" width="4.7" height="1.9"/>
	<rect x="21.3" y="24.6" fill="#3D6380" width="4.7" height="1.9"/>
</g>
</svg>
