<?xml version="1.0" encoding="utf-8"?>
<!-- Generator: Adobe Illustrator 18.0.0, SVG Export Plug-In . SVG Version: 6.00 Build 0)  -->
<!DOCTYPE svg PUBLIC "-//W3C//DTD SVG 1.1//EN" "http://www.w3.org/Graphics/SVG/1.1/DTD/svg11.dtd">
<svg version="1.1" xmlns="http://www.w3.org/2000/svg" xmlns:xlink="http://www.w3.org/1999/xlink" x="0px" y="0px"
	 viewBox="0 0 16 16" enable-background="new 0 0 16 16" xml:space="preserve">
<g id="Layer_2">
	<g id="Layer_2_1_">
		<rect fill="none" width="16" height="16"/>
	</g>
</g>
<g id="art">
	<g>
		<path fill="#3D6480" d="M1.4,5.9h0.9V0H1.6c0,0.3,0,0.6-0.2,0.7C1.2,0.9,0.8,1,0.4,1H0.3v0.8h1.1V5.9z"/>
		<path fill="#3D6480" d="M1.1,14.9l1.2-1.1c0.4-0.3,0.7-0.7,0.8-1c0.1-0.3,0.2-0.6,0.2-1c0-0.6-0.1-1-0.5-1.3
			C2.5,10.2,2.1,10,1.6,10c-0.5,0-0.8,0.2-1.1,0.5c-0.3,0.3-0.4,0.9-0.4,1.6H1c0-0.4,0.1-0.7,0.2-0.9C1.3,11.1,1.4,11,1.6,11
			c0.2,0,0.4,0.1,0.5,0.2c0.1,0.2,0.2,0.4,0.2,0.6c0,0.2-0.1,0.5-0.2,0.7c-0.1,0.2-0.4,0.5-0.9,1c-0.4,0.4-1,0.9-1.2,1.2l0,1.2h3.3
			v-1H1.1z"/>
		<path fill="#3D6480" d="M1.1,14.9"/>
		<rect x="5.1" y="0.5" fill="#3D6480" width="10.9" height="1.4"/>
		<rect x="5.1" y="4.1" fill="#3D6480" width="7.5" height="1.4"/>
		<rect x="5.1" y="11" fill="#3D6480" width="10.9" height="1.4"/>
		<rect x="5.1" y="14.6" fill="#3D6480" width="7.5" height="1.4"/>
	</g>
</g>
</svg>
