<?xml version="1.0" encoding="utf-8"?>
<!-- Generator: Adobe Illustrator 18.0.0, SVG Export Plug-In . SVG Version: 6.00 Build 0)  -->
<!DOCTYPE svg PUBLIC "-//W3C//DTD SVG 1.1//EN" "http://www.w3.org/Graphics/SVG/1.1/DTD/svg11.dtd">
<svg version="1.1" xmlns="http://www.w3.org/2000/svg" xmlns:xlink="http://www.w3.org/1999/xlink" x="0px" y="0px"
	 viewBox="0 0 16 16" enable-background="new 0 0 16 16" xml:space="preserve">
<g id="Layer_2">
	<g id="Layer_2_1_">
		<rect fill="none" width="16" height="16"/>
	</g>
</g>
<g id="art">
	<g>
		<rect x="0.4" y="0.7" fill="#FFFFFF" width="15" height="5.2"/>
		<rect x="0.4" y="10.1" fill="#FFFFFF" width="15" height="5.2"/>
		<rect x="2.3" y="2.4" fill="#3D6380" width="4.7" height="1.9"/>
		<rect x="9.2" y="2.4" fill="#3D6380" width="4.7" height="1.9"/>
		<rect x="2.3" y="11.8" fill="#3D6380" width="4.7" height="1.9"/>
		<rect x="9.2" y="11.8" fill="#3D6380" width="4.4" height="1.9"/>
		<line fill="#3D6380" x1="7" y1="4.2" x2="2.3" y2="4.2"/>
		<g>
			<path fill="#3D6380" d="M16,6.6H0V0h16V6.6z M0.9,5.6h14.1V0.9H0.9V5.6z"/>
			<path fill="#3D6380" d="M16,0H0v6.6h16V0L16,0z M0.9,5.6V0.9h14.1v4.7H0.9L0.9,5.6z"/>
		</g>
		<g>
			<path fill="#3D6380" d="M16,16H0V9.4h16V16z M0.9,15.1h14.1v-4.7H0.9V15.1z"/>
			<path fill="#3D6380" d="M16,9.4H0V16h16V9.4L16,9.4z M0.9,15.1v-4.7h14.1v4.7H0.9L0.9,15.1z"/>
		</g>
	</g>
</g>
</svg>
