<?xml version="1.0" encoding="utf-8"?>
<!-- Generator: Adobe Illustrator 17.0.0, SVG Export Plug-In . SVG Version: 6.00 Build 0)  -->
<!DOCTYPE svg PUBLIC "-//W3C//DTD SVG 1.1//EN" "http://www.w3.org/Graphics/SVG/1.1/DTD/svg11.dtd">
<svg version="1.1" id="Layer_1" xmlns="http://www.w3.org/2000/svg" xmlns:xlink="http://www.w3.org/1999/xlink" x="0px" y="0px"
	 width="42px" height="42px" viewBox="0 0 42 42" enable-background="new 0 0 42 42" xml:space="preserve">
<g>
	<polygon fill="#3D6480" points="37.231,32.919 37.231,36.001 32.007,30.776 30.663,32.12 35.888,37.346 32.743,37.346 
		32.744,39.247 39.131,39.244 39.131,32.919 	"/>
	<path fill="#EFF9FE" d="M32.254,16.557c-3.383,3.383-6.766,6.764-10.146,10.149c-3.468,0.001-8.496,0-12.154,0v5.729h13.967
		l8.333-8.333V16.557z"/>
	<path fill="#EFF9FE" d="M26.505,18.625c-0.216-0.218-0.488-0.373-0.775-0.479c-0.361-0.133-0.745-0.195-1.128-0.226
		c-0.378-0.03-0.757-0.017-1.136-0.02c-0.529-0.004-1.059-0.002-1.589-0.002c0,1.707,0,3.414,0,5.121
		c-0.628-1.707-1.255-3.414-1.882-5.121c-0.623-0.001-1.245,0.002-1.867-0.002c-0.186,0.48-0.362,0.964-0.545,1.446
		c-0.354,0.946-0.711,1.894-1.065,2.842c-0.056-0.37-0.255-0.71-0.536-0.953c-0.274-0.24-0.605-0.405-0.941-0.539
		c-0.518-0.209-1.079-0.317-1.561-0.609c-0.124-0.079-0.257-0.172-0.311-0.314c-0.047-0.142,0.045-0.284,0.158-0.361
		c0.199-0.134,0.449-0.164,0.685-0.166c0.306,0.008,0.613,0.034,0.908,0.119c0.273,0.076,0.534,0.19,0.792,0.31
		c0.248-0.436,0.5-0.87,0.75-1.307c-0.131-0.066-0.266-0.126-0.402-0.18c-0.615-0.235-1.268-0.374-1.926-0.397
		c-0.688-0.02-1.404,0.124-1.975,0.524c-0.402,0.278-0.705,0.71-0.791,1.196c-0.066,0.392-0.037,0.81,0.135,1.172
		c0.17,0.354,0.477,0.619,0.809,0.816c0.331,0.196,0.69,0.339,1.055,0.46c0.295,0.098,0.598,0.175,0.88,0.309
		c0.124,0.062,0.251,0.135,0.327,0.253c0.053,0.079,0.063,0.179,0.043,0.269c-0.031,0.164-0.151,0.302-0.301,0.371
		c-0.188,0.088-0.398,0.099-0.602,0.099c-0.276,0.004-0.555-0.025-0.82-0.104c-0.314-0.091-0.608-0.242-0.891-0.407
		c-0.223,0.442-0.445,0.884-0.667,1.326c0.783,0.444,1.688,0.674,2.587,0.648c0.416-0.01,0.833-0.086,1.215-0.253
		c0.249-0.108,0.482-0.253,0.686-0.434c-0.071,0.191-0.143,0.383-0.214,0.574c0.653,0,1.308,0,1.962,0
		c0.109-0.333,0.22-0.666,0.328-0.999c0.732,0.239,1.541,0.242,2.275,0.009c0.105,0.33,0.211,0.66,0.316,0.99
		c1.065,0.001,2.131,0,3.197,0c0-0.689,0-1.38,0-2.07c0.321-0.003,0.644,0.007,0.965-0.009c0.545-0.031,1.101-0.164,1.553-0.482
		c0.241-0.17,0.445-0.394,0.588-0.653c0.189-0.342,0.271-0.735,0.273-1.124c0.002-0.335-0.035-0.675-0.151-0.99
		C26.827,19.034,26.689,18.808,26.505,18.625z M18.36,22.169c0.217-0.686,0.436-1.37,0.652-2.056
		c0.012-0.037,0.021-0.074,0.04-0.107c0.228,0.722,0.448,1.445,0.673,2.169C19.289,22.33,18.797,22.329,18.36,22.169z M25.28,20.386
		c-0.035,0.196-0.152,0.377-0.322,0.482c-0.24,0.15-0.533,0.181-0.811,0.183c-0.154,0-0.307,0-0.459,0c0-0.579,0-1.158,0-1.736
		c0.326,0.007,0.66-0.029,0.98,0.057c0.196,0.051,0.389,0.153,0.503,0.326C25.306,19.897,25.321,20.154,25.28,20.386z"/>
	<rect x="9.955" y="10.134" fill="#EFF9FE" width="22.3" height="5.729"/>
	<path fill="#3D6480" d="M9.955,26.706c3.657,0,8.686,0.001,12.154,0c3.38-3.385,6.763-6.766,10.146-10.149v7.545l1.7-1.7V8.434
		h-25.7v25.699h13.968l1.699-1.699H9.955V26.706z M26.794,21.391c-0.143,0.26-0.347,0.483-0.588,0.653
		c-0.452,0.318-1.008,0.451-1.553,0.482c-0.321,0.016-0.644,0.006-0.965,0.009c0,0.69,0,1.381,0,2.07c-1.066,0-2.132,0.001-3.197,0
		c-0.105-0.33-0.211-0.66-0.316-0.99c-0.734,0.233-1.543,0.23-2.275-0.009c-0.108,0.333-0.219,0.666-0.328,0.999
		c-0.654,0-1.309,0-1.962,0c0.071-0.191,0.143-0.383,0.214-0.574c-0.203,0.181-0.437,0.325-0.686,0.434
		c-0.382,0.167-0.799,0.243-1.215,0.253c-0.899,0.025-1.804-0.204-2.587-0.648c0.222-0.442,0.444-0.884,0.667-1.326
		c0.282,0.165,0.576,0.316,0.891,0.407c0.266,0.078,0.544,0.107,0.82,0.104c0.203,0,0.414-0.011,0.602-0.099
		c0.149-0.069,0.27-0.207,0.301-0.371c0.02-0.09,0.01-0.189-0.043-0.269c-0.076-0.118-0.203-0.191-0.327-0.253
		c-0.282-0.134-0.585-0.211-0.88-0.309c-0.364-0.121-0.724-0.264-1.055-0.46c-0.332-0.197-0.639-0.463-0.809-0.816
		c-0.172-0.362-0.201-0.78-0.135-1.172c0.086-0.486,0.389-0.918,0.791-1.196c0.57-0.4,1.287-0.544,1.975-0.524
		c0.658,0.023,1.311,0.162,1.926,0.397c0.137,0.054,0.271,0.113,0.402,0.18c-0.25,0.437-0.502,0.871-0.75,1.307
		c-0.258-0.119-0.519-0.233-0.792-0.31c-0.295-0.085-0.603-0.111-0.908-0.119c-0.235,0.002-0.485,0.032-0.685,0.166
		c-0.113,0.077-0.205,0.22-0.158,0.361c0.054,0.143,0.187,0.235,0.311,0.314c0.481,0.292,1.043,0.4,1.561,0.609
		c0.336,0.134,0.667,0.299,0.941,0.539c0.281,0.243,0.48,0.583,0.536,0.953c0.354-0.948,0.711-1.896,1.065-2.842
		c0.183-0.482,0.359-0.966,0.545-1.446c0.622,0.004,1.244,0.001,1.867,0.002c0.627,1.707,1.254,3.414,1.882,5.121
		c0-1.707,0-3.414,0-5.121c0.53,0,1.06-0.002,1.589,0.002c0.379,0.003,0.758-0.011,1.136,0.02c0.383,0.03,0.767,0.093,1.128,0.226
		c0.287,0.106,0.56,0.262,0.775,0.479c0.184,0.184,0.322,0.409,0.411,0.652c0.116,0.315,0.153,0.655,0.151,0.99
		C27.065,20.656,26.983,21.05,26.794,21.391z M9.955,10.134h22.3v5.729h-22.3V10.134z"/>
	<path fill="#3D6480" d="M24.669,19.371c-0.32-0.086-0.654-0.05-0.98-0.057c0,0.578,0,1.157,0,1.736c0.152,0,0.305,0,0.459,0
		c0.277-0.002,0.57-0.032,0.811-0.183c0.17-0.105,0.287-0.286,0.322-0.482c0.041-0.231,0.025-0.488-0.108-0.688
		C25.058,19.524,24.865,19.422,24.669,19.371z"/>
	<path fill="#3D6480" d="M19.013,20.113c-0.217,0.686-0.436,1.37-0.652,2.056c0.437,0.16,0.929,0.161,1.365,0.006
		c-0.225-0.724-0.445-1.447-0.673-2.169C19.034,20.039,19.024,20.076,19.013,20.113z"/>
</g>
</svg>
