<?xml version="1.0" encoding="utf-8"?>
<!-- Generator: Adobe Illustrator 20.1.0, SVG Export Plug-In . SVG Version: 6.00 Build 0)  -->
<svg version="1.1" id="Layer_1" xmlns="http://www.w3.org/2000/svg" xmlns:xlink="http://www.w3.org/1999/xlink" x="0px" y="0px"
	 width="16px" height="16px" viewBox="0 0 16 16" style="enable-background:new 0 0 16 16;" xml:space="preserve">
<style type="text/css">
	.st0{fill:#FFFFFF;}
	.st1{fill:#3D6380;}
</style>
<g>
	<rect x="3" y="0.5" class="st0" width="10" height="15"/>
	<g>
		<path class="st0" d="M10.3,12.9H8.5v-1.3h1.8V12.9z M5.7,3.2h4.6v1.1H5.7V3.2z M5.7,5.6h4.6v1.1H5.7V5.6z M5.7,8h4.6v1.1H5.7V8z"
			/>
		<path class="st1" d="M3,0.5v15h10v-15H3z M11.5,13.7H4.6V2.3h6.9V13.7z"/>
		<rect x="5.7" y="3.2" class="st1" width="4.6" height="1.1"/>
		<rect x="5.7" y="5.6" class="st1" width="4.6" height="1.1"/>
		<rect x="5.7" y="8" class="st1" width="4.6" height="1.1"/>
		<rect x="8.5" y="11.6" class="st1" width="1.8" height="1.3"/>
	</g>
</g>
</svg>
