<?xml version="1.0" encoding="utf-8"?>
<!-- Generator: Adobe Illustrator 18.0.0, SVG Export Plug-In . SVG Version: 6.00 Build 0)  -->
<!DOCTYPE svg PUBLIC "-//W3C//DTD SVG 1.1//EN" "http://www.w3.org/Graphics/SVG/1.1/DTD/svg11.dtd">
<svg version="1.1" xmlns="http://www.w3.org/2000/svg" xmlns:xlink="http://www.w3.org/1999/xlink" x="0px" y="0px"
	 viewBox="0 0 16 16" enable-background="new 0 0 16 16" xml:space="preserve">
<g id="Layer_2">
	<g id="Layer_2_1_">
		<rect fill="none" width="16" height="16"/>
	</g>
</g>
<g id="art">
	<path fill="none" d="M4.6,14.7h6.8V1.3H4.6V14.7z M10.3,13.2H9.1v-0.7h1.3V13.2z M5.7,3h4.7v0.5H5.7V3z M5.7,5.4h4.7v0.5H5.7V5.4z
		 M5.7,7.8h4.7v0.5H5.7V7.8z"/>
	<g>
		<path fill="#FFFFFF" d="M4.9,14.2h6.3V1.8H4.9V14.2z M10.3,13.4H8.5v-1.3h1.8V13.4z M5.7,2.7h4.5v1.1H5.7V2.7z M5.7,5.1h4.5v1.1
			H5.7V5.1z M5.7,7.5h4.5v1.1H5.7V7.5z"/>
		<path fill="#3D6380" d="M3.1,0v16h9.9V0H3.1z M11.1,14.2H4.9V1.8h6.3V14.2z"/>
		<rect x="5.7" y="2.7" fill="#3D6380" width="4.5" height="1.1"/>
		<rect x="5.7" y="5.1" fill="#3D6380" width="4.5" height="1.1"/>
		<rect x="5.7" y="7.5" fill="#3D6380" width="4.5" height="1.1"/>
		<rect x="8.5" y="12.1" fill="#3D6380" width="1.8" height="1.3"/>
	</g>
</g>
</svg>
