<?xml version="1.0" encoding="utf-8"?>
<!-- Generator: Adobe Illustrator 18.0.0, SVG Export Plug-In . SVG Version: 6.00 Build 0)  -->
<!DOCTYPE svg PUBLIC "-//W3C//DTD SVG 1.1//EN" "http://www.w3.org/Graphics/SVG/1.1/DTD/svg11.dtd">
<svg version="1.1" xmlns="http://www.w3.org/2000/svg" xmlns:xlink="http://www.w3.org/1999/xlink" x="0px" y="0px"
	 viewBox="0 0 16 16" enable-background="new 0 0 16 16" xml:space="preserve">
<g id="Layer_2">
	<g id="Layer_2_1_">
		<rect fill="none" width="16" height="16"/>
	</g>
</g>
<g id="art">
	<g>
		<polygon fill="#3D6480" points="13.8,10.7 13.8,9 8.9,9 8.9,13.9 10.6,13.9 10.6,12 14.7,16 15.9,14.8 11.9,10.7 		"/>
		<polygon fill="#3D6480" points="7.1,13.9 5.4,13.9 5.4,12 1.3,16 0.1,14.8 4.1,10.7 2.2,10.7 2.2,9 7.1,9 		"/>
		<polygon fill="#3D6480" points="8.9,7 13.8,7 13.8,5.3 11.9,5.3 15.9,1.2 14.7,0 10.6,4 10.6,2.1 8.9,2.1 		"/>
		<polygon fill="#3D6480" points="2.2,7 2.2,5.3 4.1,5.3 0.1,1.2 1.3,0 5.4,4 5.4,2.1 7.1,2.1 7.1,7 		"/>
	</g>
</g>
</svg>
