<?xml version="1.0" encoding="utf-8"?>
<!-- Generator: Adobe Illustrator 17.0.0, SVG Export Plug-In . SVG Version: 6.00 Build 0)  -->
<!DOCTYPE svg PUBLIC "-//W3C//DTD SVG 1.1//EN" "http://www.w3.org/Graphics/SVG/1.1/DTD/svg11.dtd">
<svg version="1.1" id="Layer_1" xmlns="http://www.w3.org/2000/svg" xmlns:xlink="http://www.w3.org/1999/xlink" x="0px" y="0px"
	 width="42px" height="42px" viewBox="0 0 42 42" enable-background="new 0 0 42 42" xml:space="preserve">
<g>
	<polygon fill="none" points="29.009,31.068 29.009,36.388 34.713,33.732 	"/>
	<path fill="#0CB20F" d="M27.159,28.162v11.129l11.931-5.557L27.159,28.162z M29.009,31.068l5.704,2.664l-5.704,2.656V31.068z"/>
	<path fill="#EFF9FE" d="M21.432,17.533c-0.786,0-1.113,0.33-1.113,0.9v2.197c0,0.57,0.327,0.9,1.113,0.9s1.113-0.33,1.113-0.9
		v-2.197C22.545,17.863,22.218,17.533,21.432,17.533z"/>
	<path fill="#EFF9FE" d="M28.703,11.644h1.7v1.117h1.128c1.067,0,1.936-0.869,1.936-1.937c0-1.067-0.869-1.936-1.936-1.936H16.879
		c-2.408,0-3.734,1.326-3.734,3.734v15.251h6.162v1.7H9.867c-1.067,0-1.936,0.869-1.936,1.936c0,1.068,0.869,1.937,1.936,1.937
		H20.76l7.943-7.943V11.644z M16.745,22.354c-0.517,0-1.14-0.097-1.606-0.285l-0.086-0.034l0.153-0.766l0.118,0.037
		c0.472,0.147,0.967,0.225,1.437,0.225c0.799,0,0.909-0.186,0.909-0.711c0-0.171,0-0.302-0.018-0.407
		c-0.016-0.095-0.043-0.152-0.09-0.198c-0.109-0.107-0.342-0.18-0.896-0.306c-1.319-0.295-1.51-0.581-1.51-1.729
		c0-0.992,0.443-1.471,1.795-1.471c0.467,0,1.021,0.063,1.451,0.178l0.091,0.023l-0.076,0.798l-0.124-0.028
		c-0.41-0.093-0.9-0.148-1.326-0.148c-0.823,0-0.908,0.145-0.908,0.671c0,0.175-0.001,0.308,0.015,0.413
		c0.015,0.095,0.04,0.149,0.083,0.193c0.104,0.104,0.322,0.171,0.861,0.306c1.439,0.357,1.555,0.601,1.555,1.688
		C18.573,21.784,18.252,22.354,16.745,22.354z M23.448,20.646c0,0.764-0.397,1.427-1.328,1.632l0.432,0.977l-0.813,0.369
		l-0.563-1.282c-1.232-0.088-1.76-0.811-1.76-1.695v-2.229c0-0.945,0.602-1.708,2.016-1.708c1.415,0,2.016,0.763,2.016,1.708V20.646
		z M27.637,22.275H24.45v-5.486h0.902v4.655h2.284V22.275z"/>
	<path fill="#3D6480" d="M7.931,31.509c0-1.067,0.869-1.936,1.936-1.936h9.439v-1.7h-6.162V12.622c0-2.408,1.326-3.734,3.734-3.734
		h14.652c1.067,0,1.936,0.869,1.936,1.936c0,1.068-0.869,1.937-1.936,1.937h-1.128v-1.117h-1.7v13.86l1.7-1.7v-9.343h1.128
		c2.005,0,3.636-1.632,3.636-3.637c0-2.005-1.631-3.636-3.636-3.636H16.879c-3.352,0-5.434,2.083-5.434,5.434v15.251H9.867
		c-2.005,0-3.636,1.631-3.636,3.636c0,2.005,1.631,3.637,3.636,3.637h9.193l1.7-1.7H9.867C8.8,33.446,7.931,32.578,7.931,31.509z"/>
	<path fill="#3D6480" d="M17.018,19.116c-0.539-0.135-0.758-0.202-0.861-0.306c-0.043-0.044-0.068-0.099-0.083-0.193
		c-0.016-0.105-0.015-0.238-0.015-0.413c0-0.526,0.085-0.671,0.908-0.671c0.426,0,0.916,0.055,1.326,0.148l0.124,0.028l0.076-0.798
		l-0.091-0.023c-0.43-0.114-0.984-0.178-1.451-0.178c-1.352,0-1.795,0.479-1.795,1.471c0,1.148,0.19,1.434,1.51,1.729
		c0.555,0.126,0.787,0.198,0.896,0.306c0.047,0.046,0.074,0.104,0.09,0.198c0.018,0.105,0.018,0.236,0.018,0.407
		c0,0.525-0.11,0.711-0.909,0.711c-0.47,0-0.965-0.077-1.437-0.225l-0.118-0.037l-0.153,0.766l0.086,0.034
		c0.467,0.188,1.09,0.285,1.606,0.285c1.507,0,1.827-0.57,1.827-1.55C18.573,19.716,18.457,19.473,17.018,19.116z"/>
	<path fill="#3D6480" d="M21.432,16.71c-1.414,0-2.016,0.763-2.016,1.708v2.229c0,0.884,0.527,1.607,1.76,1.695l0.563,1.282
		l0.813-0.369l-0.432-0.977c0.931-0.205,1.328-0.868,1.328-1.632v-2.229C23.448,17.472,22.847,16.71,21.432,16.71z M22.545,20.63
		c0,0.57-0.327,0.9-1.113,0.9s-1.113-0.33-1.113-0.9v-2.197c0-0.57,0.327-0.9,1.113-0.9s1.113,0.33,1.113,0.9V20.63z"/>
	<polygon fill="#3D6480" points="25.353,16.789 24.45,16.789 24.45,22.275 27.637,22.275 27.637,21.444 25.353,21.444 	"/>
</g>
</svg>
