<?xml version="1.0" encoding="utf-8"?>
<!-- Generator: Adobe Illustrator 18.0.0, SVG Export Plug-In . SVG Version: 6.00 Build 0)  -->
<!DOCTYPE svg PUBLIC "-//W3C//DTD SVG 1.1//EN" "http://www.w3.org/Graphics/SVG/1.1/DTD/svg11.dtd">
<svg version="1.1" xmlns="http://www.w3.org/2000/svg" xmlns:xlink="http://www.w3.org/1999/xlink" x="0px" y="0px"
	 viewBox="0 0 16 16" enable-background="new 0 0 16 16" xml:space="preserve">
<g id="Layer_2">
	<g id="Layer_2_1_">
		<rect fill="none" width="16" height="16"/>
	</g>
</g>
<g id="art">
	<g>
		<g>
			<polygon fill="#FFFFFF" points="3.1,12.3 2.8,2.6 4.8,0.4 14.6,0.8 15.6,2.1 14.6,4.1 12.6,4.1 12.5,14.1 9.7,15.2 2.1,15.7 
				0.9,14.2 0.9,13.5 2.1,12.6 			"/>
			<g>
				<path fill="#3D6480" stroke="#3D6380" stroke-width="0.75" stroke-miterlimit="10" d="M3.6,12h-1V3.4c0-1.9,1.2-3.1,3.1-3.1h7.8
					c1.1,0,2.1,0.9,2.1,2.1c0,1.1-0.9,2.1-2.1,2.1h-1.2v-1h1.2c0.6,0,1.1-0.5,1.1-1.1c0-0.6-0.5-1.1-1.1-1.1H5.7
					c-1.4,0-2.1,0.8-2.1,2.1V12z"/>
				<path fill="#3D6480" stroke="#3D6380" stroke-width="0.75" stroke-miterlimit="10" d="M10.1,15.7H2.4c-1.1,0-2.1-0.9-2.1-2.1
					c0-1.1,0.9-2.1,2.1-2.1h3.4v1H2.4c-0.6,0-1.1,0.5-1.1,1.1c0,0.6,0.5,1.1,1.1,1.1h7.6c1.4,0,2.1-0.8,2.1-2.1V3.1h1v9.5
					C13.2,14.5,12,15.7,10.1,15.7z"/>
			</g>
		</g>
		<polygon fill="#3D6380" points="5.5,4.9 10.5,7.3 5.5,9.7 		"/>
	</g>
</g>
</svg>
