<?xml version="1.0" encoding="utf-8"?>
<!-- Generator: Adobe Illustrator 17.0.0, SVG Export Plug-In . SVG Version: 6.00 Build 0)  -->
<!DOCTYPE svg PUBLIC "-//W3C//DTD SVG 1.1//EN" "http://www.w3.org/Graphics/SVG/1.1/DTD/svg11.dtd">
<svg version="1.1" id="Layer_1" xmlns="http://www.w3.org/2000/svg" xmlns:xlink="http://www.w3.org/1999/xlink" x="0px" y="0px"
	 width="42px" height="42px" viewBox="0 0 42 42" enable-background="new 0 0 42 42" xml:space="preserve">
<g>
	<path fill="#EFF9FE" d="M31.831,8.721H17.18c-2.408,0-3.734,1.326-3.734,3.734v15.252h6.161v1.699h-9.438
		c-1.068,0-1.938,0.869-1.938,1.937c0,1.068,0.869,1.938,1.938,1.938h15.101c2.408,0,3.735-1.327,3.735-3.735V11.478h1.699v1.117
		h1.127c1.068,0,1.937-0.869,1.937-1.938C33.768,9.59,32.899,8.721,31.831,8.721z M25.049,18.367
		c0.375-0.049,0.773,0.046,1.056,0.304c0.233,0.208,0.364,0.534,0.314,0.848c-0.053,0.364-0.297,0.668-0.572,0.897
		c-0.498,0.399-1.113,0.632-1.728,0.788c0.036-0.039,0.074-0.074,0.12-0.102c0.466-0.251,0.929-0.544,1.272-0.954
		c0.208-0.254,0.371-0.586,0.304-0.922c-0.071-0.389-0.449-0.671-0.833-0.692c-0.184-0.018-0.357,0.053-0.534,0.088
		C24.597,18.441,24.834,18.396,25.049,18.367z M22.449,14.789c-0.201,0.194-0.392,0.417-0.48,0.689
		c-0.067,0.201-0.039,0.424,0.042,0.615c0.148,0.339,0.399,0.615,0.59,0.926c0.163,0.265,0.191,0.604,0.067,0.89
		c-0.188,0.42-0.555,0.728-0.936,0.971c-0.05,0.028-0.092,0.081-0.152,0.088c0.254-0.229,0.452-0.555,0.445-0.904
		c-0.007-0.261-0.152-0.491-0.321-0.678c-0.35-0.417-0.643-0.947-0.583-1.509c0.06-0.562,0.463-1.014,0.897-1.339
		c0.685-0.505,1.487-0.827,2.299-1.06C23.675,13.888,23.004,14.262,22.449,14.789z M19.227,15.456
		c0.103-0.322,0.332-0.579,0.562-0.82c0.639-0.639,1.427-1.109,2.052-1.759c0.346-0.357,0.632-0.784,0.731-1.275
		c0.082-0.36,0.042-0.731-0.032-1.088c0.332,0.378,0.442,0.918,0.346,1.406c-0.103,0.548-0.406,1.031-0.763,1.448
		c-0.286,0.335-0.615,0.632-0.958,0.908c-0.399,0.322-0.792,0.668-1.042,1.12c-0.212,0.367-0.262,0.82-0.117,1.219
		c0.237,0.685,0.788,1.194,1.088,1.841c-0.332-0.293-0.657-0.597-0.961-0.918c-0.318-0.339-0.618-0.699-0.816-1.124
		C19.185,16.117,19.125,15.771,19.227,15.456z M16.924,19.19c0.117-0.12,0.279-0.177,0.424-0.247
		c0.65-0.279,1.356-0.459,2.066-0.449c-0.413,0.12-0.837,0.222-1.226,0.406c-0.092,0.05-0.198,0.095-0.251,0.191
		c-0.028,0.074,0.05,0.124,0.106,0.148c0.24,0.099,0.505,0.113,0.763,0.138c0.904,0.06,1.813,0.025,2.713-0.032
		c0.891-0.056,1.773-0.177,2.653-0.318c-0.194,0.092-0.392,0.184-0.572,0.3c-0.092,0.063-0.205,0.081-0.308,0.106
		c-1.081,0.24-2.19,0.314-3.292,0.332c-0.428,0.003-0.852-0.003-1.275-0.032c-0.474-0.032-0.95-0.067-1.413-0.191
		c-0.134-0.039-0.275-0.081-0.382-0.177C16.878,19.325,16.878,19.24,16.924,19.19z M19.026,21.974
		c0.095,0.124,0.272,0.138,0.413,0.169c0.597,0.074,1.201,0.124,1.798,0.078c0.452-0.028,0.897-0.109,1.339-0.187
		c0.254,0.148,0.519,0.275,0.791,0.388c-0.417,0.187-0.865,0.307-1.314,0.392c-0.756,0.134-1.537,0.152-2.296,0.032
		c-0.335-0.06-0.678-0.138-0.982-0.304c-0.117-0.067-0.24-0.145-0.29-0.275c-0.039-0.103,0.024-0.212,0.106-0.276
		c0.163-0.131,0.364-0.198,0.562-0.254C19.09,21.797,18.976,21.872,19.026,21.974z M21.336,21.285
		c-0.728,0.049-1.466,0.046-2.19-0.071c-0.286-0.053-0.58-0.113-0.841-0.247c-0.106-0.057-0.226-0.131-0.258-0.254
		c-0.021-0.106,0.056-0.201,0.134-0.261c0.184-0.145,0.402-0.226,0.622-0.304c-0.071,0.085-0.169,0.166-0.177,0.282
		c-0.003,0.074,0.057,0.131,0.117,0.166c0.117,0.06,0.247,0.081,0.378,0.099c0.678,0.071,1.364,0.109,2.049,0.063
		c0.625-0.032,1.247-0.134,1.865-0.244c0.17,0.159,0.371,0.268,0.583,0.364C22.873,21.098,22.107,21.225,21.336,21.285z
		 M15.765,23.744c-0.092-0.106-0.011-0.254,0.078-0.332c0.223-0.205,0.509-0.318,0.788-0.42c0.325-0.11,0.66-0.198,1.003-0.208
		c0.138-0.003,0.279,0.004,0.399,0.074c-0.41,0.025-0.82,0.127-1.187,0.314c-0.082,0.046-0.173,0.099-0.205,0.194
		c0,0.109,0.124,0.145,0.205,0.18c0.512,0.191,1.06,0.251,1.597,0.308c1.6,0.134,3.211,0.099,4.812-0.046
		c0.604-0.067,1.211-0.134,1.798-0.3c0.188-0.064,0.399-0.127,0.523-0.293c0.074-0.099,0.025-0.222-0.049-0.307
		c0.12,0.067,0.29,0.152,0.265,0.314c-0.046,0.169-0.219,0.258-0.361,0.339c-0.452,0.23-0.95,0.346-1.445,0.449
		c-1.438,0.283-2.911,0.346-4.373,0.304c-1.103-0.039-2.205-0.145-3.292-0.332C16.126,23.935,15.907,23.896,15.765,23.744z
		 M25.865,24.32c-0.501,0.261-1.063,0.381-1.622,0.48c-1.18,0.187-2.377,0.233-3.575,0.212c-0.816-0.025-1.639-0.057-2.441-0.226
		c-0.191-0.053-0.396-0.088-0.562-0.201c0.714,0.12,1.438,0.169,2.162,0.198c1.19,0.035,2.384-0.01,3.568-0.159
		c0.686-0.095,1.375-0.212,2.039-0.424c0.357-0.124,0.738-0.254,1.003-0.537C26.391,23.97,26.127,24.182,25.865,24.32z"/>
	<path fill="#3D6480" d="M31.831,7.021H17.18c-3.352,0-5.434,2.082-5.434,5.434v15.252h-1.577c-2.006,0-3.637,1.631-3.637,3.636
		c0,2.006,1.631,3.637,3.637,3.637h15.101c3.353,0,5.435-2.082,5.435-5.435V14.294h1.127c2.006,0,3.637-1.631,3.637-3.637
		C35.468,8.652,33.837,7.021,31.831,7.021z M31.831,12.595h-1.127v-1.117h-1.699v18.067c0,2.408-1.327,3.735-3.735,3.735H10.169
		c-1.068,0-1.938-0.869-1.938-1.938c0-1.067,0.869-1.937,1.938-1.937h9.438v-1.699h-6.161V12.455c0-2.408,1.326-3.734,3.734-3.734
		h14.651c1.068,0,1.937,0.869,1.937,1.937C33.768,11.726,32.899,12.595,31.831,12.595z"/>
	<path fill="#E92D2F" d="M20.135,17.537c0.304,0.321,0.629,0.625,0.961,0.918c-0.3-0.646-0.851-1.155-1.088-1.841
		c-0.145-0.399-0.095-0.851,0.117-1.219c0.25-0.452,0.643-0.798,1.042-1.12c0.343-0.275,0.671-0.572,0.958-0.908
		c0.356-0.417,0.66-0.901,0.763-1.448c0.096-0.488-0.014-1.028-0.346-1.406c0.074,0.357,0.113,0.728,0.032,1.088
		c-0.099,0.491-0.385,0.918-0.731,1.275c-0.625,0.65-1.413,1.12-2.052,1.759c-0.23,0.24-0.459,0.498-0.562,0.82
		c-0.103,0.314-0.042,0.661,0.092,0.957C19.517,16.838,19.817,17.198,20.135,17.537z"/>
	<path fill="#E92D2F" d="M21.121,15.877c-0.06,0.562,0.233,1.092,0.583,1.509c0.169,0.187,0.314,0.417,0.321,0.678
		c0.007,0.35-0.191,0.675-0.445,0.904c0.06-0.007,0.102-0.06,0.152-0.088c0.381-0.244,0.749-0.551,0.936-0.971
		c0.124-0.286,0.095-0.625-0.067-0.89c-0.19-0.311-0.441-0.586-0.59-0.926c-0.081-0.191-0.109-0.413-0.042-0.615
		c0.088-0.272,0.279-0.495,0.48-0.689c0.555-0.526,1.226-0.901,1.869-1.311c-0.813,0.233-1.614,0.555-2.299,1.06
		C21.584,14.863,21.181,15.315,21.121,15.877z"/>
	<path fill="#0774BA" d="M25.816,19.226c0.067,0.336-0.095,0.668-0.304,0.922c-0.343,0.41-0.806,0.703-1.272,0.954
		c-0.046,0.028-0.084,0.063-0.12,0.102c0.615-0.156,1.229-0.388,1.728-0.788c0.275-0.229,0.52-0.533,0.572-0.897
		c0.049-0.314-0.081-0.639-0.314-0.848c-0.283-0.258-0.682-0.353-1.056-0.304c-0.215,0.028-0.452,0.074-0.601,0.254
		c0.177-0.035,0.35-0.106,0.534-0.088C25.367,18.554,25.745,18.837,25.816,19.226z"/>
	<path fill="#0774BA" d="M17.313,19.543c0.463,0.124,0.939,0.159,1.413,0.191c0.424,0.028,0.848,0.035,1.275,0.032
		c1.102-0.018,2.211-0.092,3.292-0.332c0.103-0.025,0.216-0.042,0.308-0.106c0.18-0.117,0.378-0.208,0.572-0.3
		c-0.88,0.141-1.763,0.261-2.653,0.318c-0.9,0.057-1.809,0.092-2.713,0.032c-0.258-0.025-0.523-0.039-0.763-0.138
		c-0.057-0.025-0.135-0.074-0.106-0.148c0.053-0.095,0.159-0.141,0.251-0.191c0.389-0.184,0.813-0.286,1.226-0.406
		c-0.71-0.01-1.417,0.17-2.066,0.449c-0.145,0.071-0.307,0.127-0.424,0.247c-0.046,0.049-0.046,0.134,0.007,0.177
		C17.037,19.462,17.179,19.505,17.313,19.543z"/>
	<path fill="#0774BA" d="M23.035,20.515c-0.618,0.109-1.24,0.212-1.865,0.244c-0.685,0.046-1.371,0.007-2.049-0.063
		c-0.131-0.018-0.261-0.039-0.378-0.099c-0.06-0.035-0.12-0.092-0.117-0.166c0.007-0.116,0.106-0.198,0.177-0.282
		c-0.219,0.078-0.438,0.159-0.622,0.304c-0.078,0.06-0.156,0.156-0.134,0.261c0.032,0.124,0.152,0.198,0.258,0.254
		c0.261,0.134,0.555,0.194,0.841,0.247c0.724,0.117,1.462,0.12,2.19,0.071c0.771-0.06,1.537-0.187,2.282-0.406
		C23.407,20.783,23.205,20.674,23.035,20.515z"/>
	<path fill="#0774BA" d="M19.153,21.737c-0.198,0.057-0.399,0.124-0.562,0.254c-0.082,0.063-0.145,0.173-0.106,0.276
		c0.049,0.131,0.173,0.208,0.29,0.275c0.304,0.166,0.646,0.244,0.982,0.304c0.76,0.12,1.541,0.102,2.296-0.032
		c0.449-0.085,0.897-0.205,1.314-0.392c-0.272-0.113-0.537-0.24-0.791-0.388c-0.442,0.078-0.887,0.159-1.339,0.187
		c-0.597,0.046-1.201-0.003-1.798-0.078c-0.141-0.032-0.318-0.046-0.413-0.169C18.976,21.872,19.09,21.797,19.153,21.737z"/>
	<path fill="#0774BA" d="M23.986,24.009c0.495-0.103,0.993-0.219,1.445-0.449c0.142-0.081,0.314-0.169,0.361-0.339
		c0.024-0.163-0.145-0.248-0.265-0.314c0.074,0.085,0.124,0.208,0.049,0.307c-0.124,0.166-0.335,0.23-0.523,0.293
		c-0.586,0.166-1.194,0.233-1.798,0.3c-1.601,0.145-3.211,0.18-4.812,0.046c-0.537-0.057-1.084-0.117-1.597-0.308
		c-0.082-0.035-0.205-0.071-0.205-0.18c0.032-0.095,0.124-0.148,0.205-0.194c0.367-0.187,0.777-0.29,1.187-0.314
		c-0.12-0.071-0.262-0.078-0.399-0.074c-0.343,0.011-0.678,0.099-1.003,0.208c-0.279,0.102-0.565,0.216-0.788,0.42
		c-0.088,0.078-0.169,0.226-0.078,0.332c0.141,0.152,0.36,0.191,0.555,0.237c1.088,0.187,2.19,0.293,3.292,0.332
		C21.075,24.355,22.548,24.292,23.986,24.009z"/>
	<path fill="#0774BA" d="M23.396,24.624c-1.184,0.148-2.377,0.194-3.568,0.159c-0.724-0.028-1.448-0.078-2.162-0.198
		c0.166,0.113,0.371,0.148,0.562,0.201c0.802,0.17,1.625,0.201,2.441,0.226c1.198,0.021,2.395-0.025,3.575-0.212
		c0.559-0.099,1.12-0.219,1.622-0.48c0.262-0.138,0.526-0.35,0.572-0.657c-0.265,0.283-0.646,0.413-1.003,0.537
		C24.77,24.412,24.081,24.528,23.396,24.624z"/>
</g>
</svg>
