<?xml version="1.0" encoding="utf-8"?>
<!-- Generator: Adobe Illustrator 18.0.0, SVG Export Plug-In . SVG Version: 6.00 Build 0)  -->
<!DOCTYPE svg PUBLIC "-//W3C//DTD SVG 1.1//EN" "http://www.w3.org/Graphics/SVG/1.1/DTD/svg11.dtd">
<svg version="1.1" xmlns="http://www.w3.org/2000/svg" xmlns:xlink="http://www.w3.org/1999/xlink" x="0px" y="0px"
	 viewBox="0 0 16 16" enable-background="new 0 0 16 16" xml:space="preserve">
<g id="Layer_2">
	<g id="Layer_2_1_">
		<rect fill="none" width="16" height="16"/>
	</g>
</g>
<g id="art">
	<g>
		<polygon fill="#FFFFFF" points="6.4,13.5 6.4,6.2 14.1,6.2 14.1,1.6 0.7,1.6 0.7,13.5 		"/>
		<g>
			<rect x="2.9" y="7.3" fill="#3D6480" width="1.4" height="1.4"/>
			<rect x="5" y="7.3" fill="#3D6480" width="1.4" height="1.4"/>
			<rect x="2.9" y="4.8" fill="#3D6480" width="1.4" height="1.4"/>
			<rect x="5" y="4.8" fill="#3D6480" width="1.4" height="1.4"/>
			<rect x="7.2" y="4.8" fill="#3D6480" width="1.4" height="1.4"/>
			<rect x="9.5" y="4.8" fill="#3D6480" width="1.4" height="1.4"/>
			<rect x="2.9" y="9.9" fill="#3D6480" width="1.4" height="1.4"/>
			<polygon fill="#3D6480" points="5,11.2 6.4,11.2 6.4,11.2 6.4,9.9 6.4,9.9 5,9.9 			"/>
			<polygon fill="#3D6480" points="11.9,0.8 11.9,0 10.5,0 10.5,0.8 4.3,0.8 4.3,0 2.9,0 2.9,0.8 0,0.8 0,14.2 6.4,14.2 6.4,12.8 
				6.4,12.8 1.3,12.8 1.3,2.1 2.9,2.1 2.9,2.9 4.3,2.9 4.3,2.1 10.5,2.1 10.5,2.9 11.9,2.9 11.9,2.1 13.5,2.1 13.5,6.2 14.3,6.2 
				14.8,6.2 14.8,0.8 			"/>
		</g>
	</g>
	<g>
		<path fill="#3D6380" d="M7.2,7.2V16H16V7.2H7.2z M14.6,14.6h-6v-6h6V14.6z"/>
		<rect x="8.6" y="8.6" fill="#FFFFFF" width="6" height="6"/>
	</g>
</g>
</svg>
