<?xml version="1.0" encoding="utf-8"?>
<!-- Generator: Adobe Illustrator 18.0.0, SVG Export Plug-In . SVG Version: 6.00 Build 0)  -->
<!DOCTYPE svg PUBLIC "-//W3C//DTD SVG 1.1//EN" "http://www.w3.org/Graphics/SVG/1.1/DTD/svg11.dtd">
<svg version="1.1" id="Layer_1" xmlns="http://www.w3.org/2000/svg" xmlns:xlink="http://www.w3.org/1999/xlink" x="0px" y="0px"
	 viewBox="0 0 42 42" enable-background="new 0 0 42 42" xml:space="preserve">
<g>
	<path fill="#F7F7F7" d="M34.5,19.3L21,5.8L19.9,7h2.2v5.9c0.5,0,1.1,0,1.6,0.1c0.5,0.1,1,0.1,1,0.7v0.6c0,0.6-0.1,0.9-0.7,0.9
		c-0.7,0-1.4-0.1-2.1-0.1h-0.4v3.1c1,0.4,2.8,1,3.3,2.1c0.2,0.5,0.2,1,0.2,1.5c0,0.8,0,2-0.4,2.7c-0.6,1.1-2,1.3-3.1,1.4V27
		c0,0.3,0,0.6-0.4,0.6h-0.3c-0.4,0-0.4-0.2-0.4-0.6v-1.2c-0.8,0-1.6,0-2.4-0.1c-0.5-0.1-1-0.1-1-0.7v-0.6c0-0.6,0.1-0.9,0.7-0.9
		c0.9,0,1.8,0.1,2.7,0.2v-3.5c-0.3-0.2-0.7-0.3-1-0.5c-1.9-0.8-2.4-1.4-2.4-3.5c0-0.7,0.1-1.3,0.4-1.9h-4.9l-5,5L21,32.8l4.1-4.1
		v-2.5h2.5L34.5,19.3z"/>
	<path fill="#F7F7F7" d="M22.6,22.5v-0.4c0-1-0.2-1-1.1-1.4v3C22.4,23.6,22.6,23.3,22.6,22.5z"/>
	<path fill="#F7F7F7" d="M19.4,16.1v0.3c0,0.9,0.3,1,1.1,1.3V15C19.6,15,19.4,15.2,19.4,16.1z"/>
	<path fill="#3D6480" d="M7.5,19.3l5-5h4.9c-0.3,0.5-0.4,1.1-0.4,1.9c0,2.1,0.5,2.7,2.4,3.5c0.3,0.2,0.7,0.3,1,0.5v3.5
		c-0.9,0-1.8-0.2-2.7-0.2c-0.7,0-0.7,0.3-0.7,0.9v0.6c0,0.6,0.5,0.6,1,0.7c0.8,0.1,1.6,0.1,2.4,0.1V27c0,0.4-0.1,0.6,0.4,0.6h0.3
		c0.4,0,0.4-0.2,0.4-0.6v-1.2c1.1-0.1,2.5-0.3,3.1-1.4c0.3-0.7,0.4-1.9,0.4-2.7c0-0.5,0-1-0.2-1.5c-0.4-1.1-2.3-1.7-3.3-2.1V15h0.4
		c0.7,0,1.4,0.1,2.1,0.1c0.7,0,0.7-0.3,0.7-0.9v-0.6c0-0.6-0.6-0.6-1-0.7c-0.5-0.1-1.1-0.1-1.6-0.1V7h-2.2L21,5.8l13.5,13.5
		l-6.9,6.9H30l6.9-6.9L21,3.4L17.5,7H3.4v7.4h6.7l-5,5L21,35.3l4.1-4.1v-2.4L21,32.8L7.5,19.3z M21.5,20.7c0.9,0.4,1.1,0.4,1.1,1.4
		v0.4c0,0.9-0.2,1.1-1.1,1.2V20.7z M20.4,17.7c-0.8-0.3-1.1-0.4-1.1-1.3v-0.3c0-0.8,0.2-1,1.1-1V17.7z M5.1,12.7v-4h15.3v4H5.1z"/>
	<rect x="5.1" y="8.7" fill="#FFFFFF" width="15.3" height="4"/>
	<path fill="#FFFFFF" d="M27,39h10.8V28.1H27V39z M28.8,33.3l1.8,1.8l5.5-5.5l1.3,1.3l-6.9,6.9l-3.1-3.1L28.8,33.3z"/>
	<path fill="#3D6480" d="M26.2,27.3v12.4h12.4V27.3H26.2z M37.8,39H27V28.1h10.8V39z"/>
	<polygon fill="#3D6480" points="37.4,30.9 36.1,29.6 30.5,35.1 28.8,33.3 27.4,34.6 30.5,37.8 	"/>
</g>
</svg>
