<?xml version="1.0" encoding="utf-8"?>
<!-- Generator: Adobe Illustrator 17.0.0, SVG Export Plug-In . SVG Version: 6.00 Build 0)  -->
<!DOCTYPE svg PUBLIC "-//W3C//DTD SVG 1.1//EN" "http://www.w3.org/Graphics/SVG/1.1/DTD/svg11.dtd">
<svg version="1.1" id="Layer_1" xmlns="http://www.w3.org/2000/svg" xmlns:xlink="http://www.w3.org/1999/xlink" x="0px" y="0px"
	 width="42px" height="42px" viewBox="0 0 42 42" enable-background="new 0 0 42 42" xml:space="preserve">
<g>
	<polygon fill="#0CB20F" points="37.559,29.926 30.636,36.849 28.305,34.517 26.961,35.861 30.636,39.535 38.902,31.27 	"/>
	<path fill="#F7F7F7" d="M19.387,17.245v0.344c0,0.896,0.268,0.992,1.05,1.316v-2.71C19.597,16.195,19.387,16.424,19.387,17.245z"/>
	<path fill="#F7F7F7" d="M21.525,21.845v2.977c0.878-0.039,1.088-0.306,1.088-1.184v-0.362
		C22.613,22.245,22.441,22.226,21.525,21.845z"/>
	<path fill="#F7F7F7" d="M21,7.024L7.498,20.526L21,34.029l13.502-13.503L21,7.024z M21.525,27.035v1.183
		c0,0.344-0.038,0.554-0.42,0.554H20.8c-0.42,0-0.363-0.191-0.363-0.554v-1.164c-0.801-0.02-1.622-0.039-2.423-0.134
		c-0.458-0.057-0.993-0.095-0.993-0.667v-0.649c0-0.591,0.058-0.917,0.725-0.917c0.897,0,1.794,0.134,2.691,0.153v-3.455
		c-0.344-0.152-0.687-0.305-1.031-0.458c-1.927-0.84-2.385-1.393-2.385-3.512c0-1.469,0.439-2.576,1.89-3.111
		c0.496-0.171,0.992-0.286,1.526-0.305v-1.202c0-0.573,0.191-0.515,0.668-0.515c0.305,0,0.42,0.248,0.42,0.515V14
		c0.725,0,1.47,0.02,2.195,0.095c0.458,0.058,1.011,0.077,1.011,0.668v0.629c0,0.611-0.076,0.916-0.744,0.916
		c-0.687,0-1.374-0.114-2.061-0.114h-0.401v3.149c0.973,0.401,2.825,1.05,3.263,2.119c0.172,0.458,0.191,1.011,0.191,1.488
		c0,0.764-0.019,2.004-0.362,2.672C24.044,26.73,22.651,26.959,21.525,27.035z"/>
	<path fill="#3D6480" d="M21,4.62L5.093,20.526L21,36.434l15.906-15.907L21,4.62z M7.498,20.526L21,7.024l13.502,13.502L21,34.029
		L7.498,20.526z"/>
	<path fill="#3D6480" d="M24.788,21.463c-0.438-1.069-2.29-1.718-3.263-2.119v-3.149h0.401c0.687,0,1.374,0.114,2.061,0.114
		c0.668,0,0.744-0.305,0.744-0.916v-0.629c0-0.592-0.553-0.611-1.011-0.668C22.995,14.02,22.25,14,21.525,14v-1.202
		c0-0.267-0.115-0.515-0.42-0.515c-0.477,0-0.668-0.058-0.668,0.515V14c-0.535,0.02-1.031,0.134-1.526,0.305
		c-1.451,0.535-1.89,1.642-1.89,3.111c0,2.119,0.458,2.672,2.385,3.512c0.344,0.153,0.687,0.306,1.031,0.458v3.455
		c-0.897-0.019-1.794-0.153-2.691-0.153c-0.667,0-0.725,0.325-0.725,0.917v0.649c0,0.572,0.534,0.611,0.993,0.667
		c0.801,0.096,1.622,0.115,2.423,0.134v1.164c0,0.363-0.057,0.554,0.363,0.554h0.305c0.382,0,0.42-0.209,0.42-0.554v-1.183
		c1.126-0.076,2.519-0.305,3.092-1.412c0.343-0.668,0.362-1.908,0.362-2.672C24.979,22.474,24.96,21.92,24.788,21.463z
		 M20.437,18.905c-0.782-0.325-1.05-0.42-1.05-1.316v-0.344c0-0.82,0.21-1.049,1.05-1.049V18.905z M22.613,23.638
		c0,0.878-0.21,1.145-1.088,1.184v-2.977c0.916,0.381,1.088,0.4,1.088,1.431V23.638z"/>
</g>
</svg>
