<?xml version="1.0" encoding="utf-8"?>
<!-- Generator: Adobe Illustrator 17.0.0, SVG Export Plug-In . SVG Version: 6.00 Build 0)  -->
<!DOCTYPE svg PUBLIC "-//W3C//DTD SVG 1.1//EN" "http://www.w3.org/Graphics/SVG/1.1/DTD/svg11.dtd">
<svg version="1.1" id="Layer_1" xmlns="http://www.w3.org/2000/svg" xmlns:xlink="http://www.w3.org/1999/xlink" x="0px" y="0px"
	 width="42px" height="42px" viewBox="0 0 42 42" enable-background="new 0 0 42 42" xml:space="preserve">
<g>
	<path fill="#3D6480" d="M29.249,8.09c0.663-0.08,1.333-0.084,1.997-0.013c0.024,0.847,0.057,1.692,0.083,2.539
		c0.833-0.296,1.626-0.698,2.481-0.936c0.227,0.645,0.494,1.274,0.754,1.907c-0.816,0.353-1.639,0.694-2.472,1.008
		c0.339,0.842,0.918,1.558,1.264,2.394c-0.496,0.477-1.183,0.715-1.753,1.096c-0.449-0.783-0.903-1.561-1.347-2.347
		c-0.507,0.753-0.954,1.542-1.421,2.32c-0.618-0.355-1.242-0.704-1.808-1.144c0.495-0.76,1.007-1.515,1.396-2.337
		c-0.836-0.335-1.682-0.64-2.488-1.037c0.287-0.605,0.535-1.229,0.756-1.862c0.856,0.229,1.641,0.647,2.475,0.941
		C29.178,9.774,29.191,8.932,29.249,8.09z"/>
	<path fill="#3D6480" d="M11.723,26.307c0.199,2.219,2.394,4.003,4.606,3.727c1.934-0.165,3.603-1.813,3.776-3.748
		c0.122-1.54-0.051-3.085-0.009-4.628c-1.487,0.003-2.976-0.002-4.46-0.028C13.321,21.726,11.395,24.005,11.723,26.307z
		 M20.267,9.01c1.386-0.349,2.774-0.696,4.177-0.983c-0.002,8.645-0.006,17.288,0.002,25.932c-1.416,0.026-2.834,0.009-4.252,0.011
		c-0.006-0.596-0.008-1.191,0.006-1.786c-1.736,1.354-4.005,2.03-6.195,1.713c-2.496-0.296-4.785-1.854-6.014-4.041
		c-1.29-2.235-1.42-5.109-0.301-7.438c1.195-2.539,3.767-4.318,6.535-4.68c1.988-0.241,3.977-0.465,5.966-0.705
		c-0.007-2.401,0.007-4.805-0.009-7.205C20.21,9.558,20.129,9.255,20.267,9.01z"/>
</g>
<path fill="#0CB20F" d="M27.207,39.04V27.913l11.931,5.571L27.207,39.04z M29.057,30.818v5.32l5.704-2.656L29.057,30.818z"/>
</svg>
