<?xml version="1.0" encoding="utf-8"?>
<!-- Generator: Adobe Illustrator 18.0.0, SVG Export Plug-In . SVG Version: 6.00 Build 0)  -->
<!DOCTYPE svg PUBLIC "-//W3C//DTD SVG 1.1//EN" "http://www.w3.org/Graphics/SVG/1.1/DTD/svg11.dtd">
<svg version="1.1" id="Layer_1" xmlns="http://www.w3.org/2000/svg" xmlns:xlink="http://www.w3.org/1999/xlink" x="0px" y="0px"
	 viewBox="0 0 24 24" enable-background="new 0 0 24 24" xml:space="preserve">
<g>
	<g>
		<polygon fill="#FFFFFF" points="11.3,6.8 11.3,3.8 5.2,3.8 5.2,16.8 7.4,16.8 7.4,9.9 14.2,9.9 14.2,6.8 		"/>
		<polygon fill="#3D6480" points="5.2,16.8 5.2,3.8 11.3,3.8 11.3,6.8 14.2,6.8 14.2,9.9 15.7,9.9 15.7,6.8 14.2,5.3 14.2,5.3 
			12.8,5.3 12.8,3.8 12.8,3.8 11.3,2.3 3.7,2.3 3.7,18.3 7.4,18.3 7.4,16.8 		"/>
		<polygon fill="#FFFFFF" points="15.7,9.9 14.2,9.9 7.4,9.9 7.4,16.8 7.4,18.3 7.4,18.6 15.9,18.6 15.9,9.9 		"/>
	</g>
	<g>
		<polygon fill="#3D6480" points="18.8,17.7 18.8,16.4 15.1,16.4 15.1,20.1 16.4,20.1 16.4,18.7 19.4,21.7 20.3,20.7 17.3,17.7 		
			"/>
		<polygon fill="#3D6480" points="13.8,20.1 12.4,20.1 12.4,18.7 9.4,21.7 8.5,20.7 11.5,17.7 10.1,17.7 10.1,16.4 13.8,16.4 		"/>
		<polygon fill="#3D6480" points="15.1,14.9 18.8,14.9 18.8,13.6 17.3,13.6 20.3,10.6 19.4,9.7 16.4,12.7 16.4,11.2 15.1,11.2 		"/>
		<polygon fill="#3D6480" points="10.1,14.9 10.1,13.6 11.5,13.6 8.5,10.6 9.4,9.7 12.4,12.7 12.4,11.2 13.8,11.2 13.8,14.9 		"/>
	</g>
</g>
</svg>
