<?xml version="1.0" encoding="utf-8"?>
<!-- Generator: Adobe Illustrator 18.0.0, SVG Export Plug-In . SVG Version: 6.00 Build 0)  -->
<!DOCTYPE svg PUBLIC "-//W3C//DTD SVG 1.1//EN" "http://www.w3.org/Graphics/SVG/1.1/DTD/svg11.dtd">
<svg version="1.1" id="Layer_1" xmlns="http://www.w3.org/2000/svg" xmlns:xlink="http://www.w3.org/1999/xlink" x="0px" y="0px"
	 viewBox="0 0 24 24" enable-background="new 0 0 24 24" xml:space="preserve">
<g id="Layer_2">
	<g id="Layer_2_1_">
		<rect x="2" y="2" fill="none" width="20" height="20"/>
	</g>
</g>
<g id="art">
	<g>
		<polygon fill="#FFFFFF" points="12.8,7.8 11.1,7.8 11.4,20 12.6,20 		"/>
		<polygon fill="#FFFFFF" points="9.3,7.8 7.5,7.8 8.3,20 9.5,20 		"/>
		<polygon fill="#FFFFFF" points="14.4,20 15.6,20 16.5,7.8 14.6,7.8 		"/>
		<polygon fill="#3D6480" points="18.4,3 13.4,3 13.4,2 10.6,2 10.6,3 5.6,3 5.6,5 18.4,5 		"/>
		<path fill="#3D6480" d="M4.3,5.8v2h1.3L6.4,22h11.1l0.9-14.3h1.4v-2H4.3V5.8z M7.5,7.8h1.8L9.5,20H8.3L7.5,7.8z M11.1,7.8h1.8
			L12.6,20h-1.3L11.1,7.8z M15.6,20h-1.3l0.2-12.3h1.7L15.6,20z"/>
	</g>
</g>
</svg>
