<?xml version="1.0" encoding="utf-8"?>
<!-- Generator: Adobe Illustrator 17.0.0, SVG Export Plug-In . SVG Version: 6.00 Build 0)  -->
<!DOCTYPE svg PUBLIC "-//W3C//DTD SVG 1.1//EN" "http://www.w3.org/Graphics/SVG/1.1/DTD/svg11.dtd">
<svg version="1.1" id="Layer_1" xmlns="http://www.w3.org/2000/svg" xmlns:xlink="http://www.w3.org/1999/xlink" x="0px" y="0px"
	 width="42px" height="42px" viewBox="0 0 42 42" enable-background="new 0 0 42 42" xml:space="preserve">
<g>
	<polygon fill="#3D6480" points="30.874,25.228 30.874,23.528 23.345,23.528 23.345,31.057 25.045,31.057 25.045,26.43 
		33.152,34.537 34.354,33.335 26.248,25.228 	"/>
	<polygon fill="#3D6480" points="11.126,25.228 15.752,25.228 7.646,33.335 8.848,34.537 16.955,26.43 16.955,31.057 18.655,31.057 
		18.655,23.528 11.126,23.528 	"/>
	<polygon fill="#3D6480" points="30.874,16.771 26.248,16.771 34.354,8.666 33.152,7.463 25.045,15.569 25.045,10.943 
		23.345,10.943 23.345,18.471 30.874,18.471 	"/>
	<polygon fill="#3D6480" points="16.955,15.569 8.848,7.463 7.646,8.666 15.752,16.771 11.126,16.771 11.126,18.471 18.655,18.471 
		18.655,10.943 16.955,10.943 	"/>
</g>
</svg>
