<?xml version="1.0" encoding="utf-8"?>
<!-- Generator: Adobe Illustrator 19.1.0, SVG Export Plug-In . SVG Version: 6.00 Build 0)  -->
<svg version="1.1" id="Layer_1" xmlns="http://www.w3.org/2000/svg" xmlns:xlink="http://www.w3.org/1999/xlink" x="0px" y="0px"
	 viewBox="-284 376 42 42" style="enable-background:new -284 376 42 42;" xml:space="preserve">
<style type="text/css">
	.st0{fill:none;}
	.st1{fill:#0CB20F;}
	.st2{fill:#1CB24B;}
</style>
<g>
	<polygon class="st0" points="-254.8,406.8 -254.8,412.1 -249.1,409.5 	"/>
	<path class="st1" d="M-244.7,409.5l-11.2-5.2l-0.7,0.7l-0.1-0.1V415L-244.7,409.5z M-254.8,406.8l5.7,2.7l-5.7,2.7
		C-254.8,412.1-254.8,406.8-254.8,406.8z"/>
	<polygon class="st2" points="-273,401.2 -268.3,401.2 -276.4,409.3 -275.2,410.5 -267.1,402.4 -267.1,407.1 -265.4,407.1 
		-265.4,399.5 -273,399.5 	"/>
	<polygon class="st2" points="-253.2,392.8 -257.8,392.8 -249.7,384.7 -250.9,383.5 -259,391.6 -259,386.9 -260.7,386.9 
		-260.7,394.5 -253.2,394.5 	"/>
	<polygon class="st2" points="-267.1,391.6 -275.2,383.5 -276.4,384.7 -268.3,392.8 -273,392.8 -273,394.5 -265.4,394.5 
		-265.4,386.9 -267.1,386.9 	"/>
</g>
</svg>
