<?xml version="1.0" encoding="UTF-8" standalone="no"?>
<!-- Generator: Adobe Illustrator 19.1.0, SVG Export Plug-In . SVG Version: 6.00 Build 0)  -->

<svg
   xmlns:dc="http://purl.org/dc/elements/1.1/"
   xmlns:cc="http://creativecommons.org/ns#"
   xmlns:rdf="http://www.w3.org/1999/02/22-rdf-syntax-ns#"
   xmlns:svg="http://www.w3.org/2000/svg"
   xmlns="http://www.w3.org/2000/svg"
   xmlns:sodipodi="http://sodipodi.sourceforge.net/DTD/sodipodi-0.dtd"
   xmlns:inkscape="http://www.inkscape.org/namespaces/inkscape"
   version="1.1"
   id="Layer_1"
   x="0px"
   y="0px"
   viewBox="-284 376 42 42"
   style="enable-background:new -284 376 42 42;"
   xml:space="preserve"
   inkscape:version="0.48.4 r9939"
   width="100%"
   height="100%"
   sodipodi:docname="TRNEx.svg"><metadata
     id="metadata3017"><rdf:RDF><cc:Work
         rdf:about=""><dc:format>image/svg+xml</dc:format><dc:type
           rdf:resource="http://purl.org/dc/dcmitype/StillImage" /></cc:Work></rdf:RDF></metadata><defs
     id="defs3015" /><sodipodi:namedview
     pagecolor="#ffffff"
     bordercolor="#666666"
     borderopacity="1"
     objecttolerance="10"
     gridtolerance="10"
     guidetolerance="10"
     inkscape:pageopacity="0"
     inkscape:pageshadow="2"
     inkscape:window-width="1280"
     inkscape:window-height="1000"
     id="namedview3013"
     showgrid="false"
     inkscape:zoom="5.6190476"
     inkscape:cx="-0.71186441"
     inkscape:cy="21"
     inkscape:window-x="1280"
     inkscape:window-y="0"
     inkscape:window-maximized="1"
     inkscape:current-layer="Layer_1" /><style
     type="text/css"
     id="style2999">
	.st0{fill:none;}
	.st1{fill:#0CB20F;}
	.st2{fill:#1CB24B;}
</style><polygon
     style="fill:none"
     id="polygon3003"
     points="-249.1,409.5 -254.8,406.8 -254.8,412.1 "
     class="st0" /><polygon
     style="fill:#1cb24b"
     id="polygon3007"
     points="-276.4,409.3 -275.2,410.5 -267.1,402.4 -267.1,407.1 -265.4,407.1 -265.4,399.5 -273,399.5 -273,401.2 -268.3,401.2 "
     class="st2" /><polygon
     style="fill:#1cb24b"
     id="polygon3009"
     points="-249.7,384.7 -250.9,383.5 -259,391.6 -259,386.9 -260.7,386.9 -260.7,394.5 -253.2,394.5 -253.2,392.8 -257.8,392.8 "
     class="st2" /><polygon
     style="fill:#1cb24b"
     id="polygon3011"
     points="-276.4,384.7 -268.3,392.8 -273,392.8 -273,394.5 -265.4,394.5 -265.4,386.9 -267.1,386.9 -267.1,391.6 -275.2,383.5 "
     class="st2" /><path
     style="fill:#0cb20f"
     inkscape:connector-curvature="0"
     id="path15"
     d="m -260.7,399.5 v 11.1 l 11.9,-5.6 -11.9,-5.5 z m 1.9,2.9 5.7,2.7 -5.7,2.7 v -5.4 z"
     class="st2" /></svg>