<?xml version="1.0" encoding="utf-8"?>
<!-- Generator: Adobe Illustrator 18.0.0, SVG Export Plug-In . SVG Version: 6.00 Build 0)  -->
<!DOCTYPE svg PUBLIC "-//W3C//DTD SVG 1.1//EN" "http://www.w3.org/Graphics/SVG/1.1/DTD/svg11.dtd">
<svg version="1.1" xmlns="http://www.w3.org/2000/svg" xmlns:xlink="http://www.w3.org/1999/xlink" x="0px" y="0px"
	 viewBox="0 0 16 16" enable-background="new 0 0 16 16" xml:space="preserve">
<g id="Layer_2">
	<g id="Layer_2_1_">
		<rect fill="none" width="16" height="16"/>
	</g>
</g>
<g id="art">
	<g>
		<path fill="#FFFFFF" d="M11.2,4.3c-0.1-0.1-0.2-0.1-0.3,0L7.1,8.2C7,8.3,6.8,8.3,6.7,8.2L5.1,6.5C5,6.4,4.9,6.4,4.8,6.5L3.4,7.9
			C3.3,8,3.3,8.1,3.4,8.2l3.4,3.4c0.1,0.1,0.2,0.1,0.3,0L12.6,6c0.1-0.1,0.1-0.2,0-0.3L11.2,4.3z"/>
		<path fill="#0CB20F" d="M13.7,2.3c-3.1-3.1-8.2-3.1-11.3,0c-3.1,3.1-3.1,8.2,0,11.3c3.1,3.1,8.2,3.1,11.3,0
			C16.8,10.5,16.8,5.5,13.7,2.3z M12.6,6l-5.6,5.6c-0.1,0.1-0.2,0.1-0.3,0L3.4,8.2C3.3,8.1,3.3,8,3.4,7.9l1.4-1.4
			c0.1-0.1,0.2-0.1,0.3,0l1.7,1.7c0.1,0.1,0.2,0.1,0.3,0l3.9-3.8c0.1-0.1,0.2-0.1,0.3,0l1.4,1.4C12.7,5.8,12.7,5.9,12.6,6z"/>
	</g>
</g>
</svg>
