<?xml version="1.0" encoding="utf-8"?>
<!-- Generator: Adobe Illustrator 18.0.0, SVG Export Plug-In . SVG Version: 6.00 Build 0)  -->
<!DOCTYPE svg PUBLIC "-//W3C//DTD SVG 1.1//EN" "http://www.w3.org/Graphics/SVG/1.1/DTD/svg11.dtd">
<svg version="1.1" xmlns="http://www.w3.org/2000/svg" xmlns:xlink="http://www.w3.org/1999/xlink" x="0px" y="0px"
	 viewBox="0 0 16 16" enable-background="new 0 0 16 16" xml:space="preserve">
<g id="Layer_2">
	<g id="Layer_2_1_">
		<rect fill="none" width="16" height="16"/>
	</g>
</g>
<g id="art">
	<g>
		<path fill="#3D6480" d="M8,1L1,8l7,7l7-7L8,1z M9.6,11.1c-0.3,0.2-0.8,0.3-1.3,0.4v0.9H7.8v-0.9c-0.9-0.1-1.6-0.4-1.9-1
			c-0.2-0.3-0.3-0.8-0.3-1.3h0.9c0,0.4,0.1,0.8,0.2,1c0.1,0.3,0.4,0.4,0.7,0.5v0.1c0.1,0,0.2,0,0.3,0c0,0,0.1,0,0.1,0v0
			c0.3-0.1,0.6-0.3,0.7-0.5C8.6,10,8.7,9.7,8.7,9.5c0-0.4-0.1-0.7-0.4-0.9C8.1,8.5,8,8.4,7.8,8.4V8.1C7.1,8,6.6,7.8,6.2,7.4
			C5.9,7.1,5.7,6.7,5.7,6.2c0-0.5,0.2-0.9,0.5-1.3c0.4-0.4,0.9-0.6,1.5-0.6V3.6h0.5v0.6c0.6,0,1.1,0.2,1.5,0.6
			c0.3,0.3,0.5,0.8,0.5,1.3H9.4c0-0.2-0.1-0.5-0.2-0.6C9.1,5.2,8.9,5.1,8.6,5V5C8.5,5,8.5,5,8.4,5C8.4,5,8.3,5,8.2,5V5
			C8,5.1,7.8,5.2,7.7,5.3C7.5,5.6,7.4,5.8,7.4,6.1c0,0.3,0.1,0.6,0.3,0.7C7.9,7,8,7,8.2,7.1v0.2C9,7.5,9.5,7.7,9.8,7.9
			c0.4,0.3,0.7,0.8,0.7,1.3C10.4,10.1,10.1,10.7,9.6,11.1z"/>
		<path fill="#FFFFFF" d="M9.8,7.9C9.5,7.7,9,7.5,8.2,7.3V7.1C8,7,7.9,7,7.7,6.8C7.5,6.7,7.4,6.4,7.4,6.1c0-0.3,0.1-0.5,0.3-0.8
			C7.8,5.2,8,5.1,8.2,5V5c0.1,0,0.1,0,0.2,0c0.1,0,0.1,0,0.2,0V5c0.3,0.1,0.5,0.2,0.6,0.5c0.1,0.2,0.2,0.4,0.2,0.6h0.8
			c0-0.5-0.2-1-0.5-1.3C9.4,4.5,8.9,4.3,8.2,4.2V3.6H7.8v0.6c-0.6,0-1.2,0.2-1.5,0.6C5.9,5.2,5.7,5.7,5.7,6.2c0,0.5,0.2,1,0.5,1.3
			C6.6,7.8,7.1,8,7.8,8.1v0.3C8,8.4,8.1,8.5,8.2,8.6c0.3,0.2,0.4,0.5,0.4,0.9c0,0.3-0.1,0.5-0.2,0.7c-0.2,0.3-0.4,0.4-0.7,0.5v0
			c0,0-0.1,0-0.1,0c-0.1,0-0.2,0-0.3,0v-0.1c-0.3-0.1-0.5-0.3-0.7-0.5c-0.1-0.2-0.2-0.5-0.2-1H5.6c0,0.6,0.1,1,0.3,1.3
			c0.3,0.6,1,0.9,1.9,1v0.9h0.5v-0.9c0.6-0.1,1-0.2,1.3-0.4c0.6-0.4,0.8-1,0.8-1.8C10.4,8.7,10.2,8.2,9.8,7.9z"/>
	</g>
</g>
</svg>
