<?xml version="1.0" encoding="utf-8"?>
<!-- Generator: Adobe Illustrator 17.0.0, SVG Export Plug-In . SVG Version: 6.00 Build 0)  -->
<!DOCTYPE svg PUBLIC "-//W3C//DTD SVG 1.1//EN" "http://www.w3.org/Graphics/SVG/1.1/DTD/svg11.dtd">
<svg version="1.1" id="Layer_1" xmlns="http://www.w3.org/2000/svg" xmlns:xlink="http://www.w3.org/1999/xlink" x="0px" y="0px"
	 width="42px" height="42px" viewBox="0 0 42 42" enable-background="new 0 0 42 42" xml:space="preserve">
<g>
	<polygon fill="#0CB20F" points="37.29,29.259 30.367,36.181 28.036,33.849 26.693,35.193 30.367,38.868 38.634,30.603 	"/>
	<path fill="#EFF9FE" d="M18.11,14.095c1.22,0.269,2.473,0.42,3.743,0.446V9.836c-0.419,0.014-0.832,0.051-1.239,0.108
		C19.592,11.203,18.753,12.598,18.11,14.095z"/>
	<path fill="#EFF9FE" d="M19.402,10.181c-1.892,0.475-3.599,1.408-5.002,2.678c0.939,0.429,1.915,0.783,2.921,1.051
		C17.876,12.588,18.563,11.333,19.402,10.181z"/>
	<path fill="#EFF9FE" d="M17.006,14.651c-1.113-0.303-2.195-0.699-3.228-1.192c-1.923,2.015-3.131,4.709-3.232,7.683h5.255
		C15.847,18.883,16.25,16.688,17.006,14.651z"/>
	<path fill="#EFF9FE" d="M14.366,30.196c1.393,1.271,3.089,2.208,4.97,2.692c-0.828-1.142-1.507-2.393-2.053-3.716
		C16.274,29.435,15.298,29.776,14.366,30.196z"/>
	<path fill="#EFF9FE" d="M15.8,21.943h-5.254c0.101,2.962,1.299,5.645,3.208,7.657c1.026-0.484,2.104-0.877,3.222-1.174
		C16.238,26.399,15.843,24.207,15.8,21.943z"/>
	<path fill="#EFF9FE" d="M20.547,33.132c0.429,0.063,0.864,0.103,1.306,0.118v-4.702c-1.285,0.024-2.554,0.17-3.784,0.435
		C18.704,30.489,19.534,31.885,20.547,33.132z"/>
	<path fill="#EFF9FE" d="M16.602,21.142h5.252v-5.8c-1.379-0.027-2.739-0.196-4.06-0.498C17.049,16.818,16.647,18.947,16.602,21.142
		z"/>
	<path fill="#EFF9FE" d="M17.76,28.231c1.329-0.297,2.703-0.458,4.093-0.482v-5.805H16.6C16.643,24.143,17.036,26.268,17.76,28.231z
		"/>
	<circle fill="#EFF9FE" cx="30.934" cy="14.991" r="1.12"/>
	<path fill="#3D6480" d="M29.949,21.585c0-1.06-0.861-1.922-1.92-1.922c-0.906,0-1.662,0.633-1.864,1.479h-3.512v-5.787h6.398
		c0.171,0.885,0.949,1.557,1.883,1.557c1.059,0,1.92-0.862,1.92-1.922c0-1.059-0.861-1.92-1.92-1.92
		c-0.908,0-1.667,0.636-1.865,1.484h-6.416V9.816h4.702c0.311,0.642,0.963,1.09,1.723,1.09c1.059,0,1.919-0.862,1.919-1.922
		c0-1.059-0.861-1.92-1.919-1.92c-0.745,0-1.385,0.431-1.704,1.053h-5.121c-7.404,0-13.427,6.022-13.427,13.426
		c0,7.099,5.541,12.914,12.523,13.382l1.304-1.304V21.943h3.491c0.168,0.888,0.948,1.563,1.884,1.563
		C29.088,23.505,29.949,22.644,29.949,21.585z M30.934,13.87c0.618,0,1.121,0.502,1.121,1.119c0,0.618-0.503,1.121-1.121,1.121
		c-0.617,0-1.12-0.503-1.12-1.121C29.814,14.372,30.317,13.87,30.934,13.87z M29.078,7.865c0.617,0,1.12,0.502,1.12,1.119
		c0,0.618-0.502,1.121-1.12,1.121c-0.618,0-1.121-0.503-1.121-1.121C27.958,8.367,28.461,7.865,29.078,7.865z M19.402,10.181
		c-0.839,1.152-1.526,2.407-2.081,3.728c-1.006-0.268-1.982-0.621-2.921-1.051C15.803,11.589,17.51,10.656,19.402,10.181z
		 M13.779,13.459c1.032,0.493,2.114,0.888,3.228,1.192c-0.756,2.038-1.16,4.232-1.205,6.491h-5.255
		C10.647,18.168,11.856,15.474,13.779,13.459z M10.546,21.943H15.8c0.042,2.264,0.438,4.456,1.175,6.483
		c-1.117,0.297-2.196,0.69-3.222,1.174C11.846,27.588,10.647,24.905,10.546,21.943z M14.366,30.196
		c0.932-0.421,1.908-0.762,2.917-1.024c0.547,1.323,1.225,2.575,2.053,3.716C17.455,32.404,15.759,31.468,14.366,30.196z
		 M21.853,33.251c-0.442-0.015-0.877-0.055-1.306-0.118c-1.014-1.248-1.844-2.643-2.478-4.148c1.23-0.265,2.499-0.411,3.784-0.435
		V33.251z M21.853,27.748c-1.391,0.025-2.764,0.186-4.093,0.482c-0.724-1.963-1.117-4.088-1.16-6.288h5.253V27.748z M21.853,21.142
		h-5.252c0.046-2.195,0.447-4.324,1.191-6.298c1.321,0.302,2.682,0.471,4.06,0.498V21.142z M21.853,14.541
		c-1.27-0.026-2.524-0.177-3.743-0.446c0.643-1.498,1.482-2.893,2.504-4.151c0.407-0.057,0.82-0.094,1.239-0.108V14.541z
		 M26.908,21.585c0-0.618,0.503-1.121,1.121-1.121s1.121,0.503,1.121,1.121c0,0.617-0.503,1.119-1.121,1.119
		S26.908,22.202,26.908,21.585z"/>
	<circle fill="#EFF9FE" cx="29.078" cy="8.985" r="1.12"/>
	<circle fill="#EFF9FE" cx="28.029" cy="21.585" r="1.121"/>
</g>
</svg>
