<?xml version="1.0" encoding="utf-8"?>
<!-- Generator: Adobe Illustrator 17.0.0, SVG Export Plug-In . SVG Version: 6.00 Build 0)  -->
<!DOCTYPE svg PUBLIC "-//W3C//DTD SVG 1.1//EN" "http://www.w3.org/Graphics/SVG/1.1/DTD/svg11.dtd">
<svg version="1.1" id="Layer_1" xmlns="http://www.w3.org/2000/svg" xmlns:xlink="http://www.w3.org/1999/xlink" x="0px" y="0px"
	 width="42px" height="42px" viewBox="0 0 42 42" enable-background="new 0 0 42 42" xml:space="preserve">
<g>
	<polygon fill="#3D6480" points="37.073,32.148 37.073,35.231 31.848,30.006 30.504,31.35 35.73,36.575 32.584,36.575 
		32.584,38.476 38.974,38.475 38.974,32.148 	"/>
	<path fill="#DBF3DB" d="M25.488,12.566V8.308H12.11v24.411h11.402l6.273-6.273l-0.04-13.88H25.488z M15.593,23.832l2.942-2.941
		l2.941,2.941H15.593z M23.299,24.121l-7.216-7.216h3.024l1.703,1.703l1.709-1.703h2.887l-3.148,3.149l1.466,1.467h1.683
		l-0.842,0.841l1.759,1.759H23.299z"/>
	<polygon fill="#3D6480" points="31.446,12.576 29.736,10.867 27.188,10.867 27.188,8.318 25.479,6.609 10.41,6.609 10.41,34.418 
		21.813,34.418 23.512,32.719 12.11,32.719 12.11,8.308 25.488,8.308 25.488,12.566 29.746,12.566 29.786,26.446 31.481,24.75 	"/>
	<polygon fill="#3D6480" points="15.593,23.832 21.477,23.832 18.535,20.891 	"/>
	<polygon fill="#3D6480" points="25.406,21.522 23.724,21.522 22.258,20.055 25.406,16.906 22.52,16.906 20.811,18.609 
		19.107,16.906 16.083,16.906 23.299,24.121 26.323,24.121 24.564,22.363 	"/>
</g>
</svg>
