<?xml version="1.0" encoding="utf-8"?>
<!-- Generator: Adobe Illustrator 17.0.0, SVG Export Plug-In . SVG Version: 6.00 Build 0)  -->
<!DOCTYPE svg PUBLIC "-//W3C//DTD SVG 1.1//EN" "http://www.w3.org/Graphics/SVG/1.1/DTD/svg11.dtd">
<svg version="1.1" id="Layer_1" xmlns="http://www.w3.org/2000/svg" xmlns:xlink="http://www.w3.org/1999/xlink" x="0px" y="0px"
	 width="42px" height="42px" viewBox="0 0 42 42" enable-background="new 0 0 42 42" xml:space="preserve">
<g>
	<polygon fill="#3D6480" points="12.345,5.512 10.445,5.512 10.445,8.593 5.221,3.369 3.877,4.713 9.102,9.939 5.957,9.939 
		5.958,11.84 12.345,11.837 	"/>
	<path fill="#DBF3DB" d="M30.459,33.259l-0.058-20.152h-4.257V8.849h-6.806l-6.573,6.572v17.838H30.459z M21.966,30.958h-2.514
		v-4.283h0.7v3.683h1.813V30.958z M24.761,30.691c-0.275,0.217-0.655,0.325-1.14,0.325s-0.881-0.075-1.189-0.226v-0.662
		c0.195,0.092,0.403,0.164,0.623,0.217s0.424,0.079,0.614,0.079c0.277,0,0.482-0.053,0.614-0.158s0.198-0.247,0.198-0.425
		c0-0.16-0.061-0.296-0.182-0.407s-0.371-0.243-0.75-0.396c-0.391-0.158-0.666-0.339-0.826-0.542s-0.24-0.447-0.24-0.732
		c0-0.357,0.127-0.639,0.381-0.844s0.595-0.308,1.022-0.308c0.41,0,0.818,0.09,1.225,0.27l-0.223,0.571
		c-0.381-0.16-0.721-0.24-1.02-0.24c-0.227,0-0.398,0.05-0.516,0.147c-0.117,0.1-0.176,0.229-0.176,0.392
		c0,0.111,0.023,0.206,0.07,0.286c0.047,0.078,0.124,0.153,0.231,0.224s0.301,0.163,0.58,0.278c0.314,0.131,0.545,0.253,0.691,0.366
		s0.254,0.241,0.322,0.384s0.103,0.311,0.103,0.504C25.174,30.176,25.036,30.475,24.761,30.691z M28.3,26.675h0.756l-1.339,2.074
		l1.441,2.209h-0.806l-1.072-1.752l-1.081,1.752h-0.75l1.421-2.221l-1.33-2.063h0.779l0.99,1.62L28.3,26.675z M19.764,17.446
		l1.703,1.703l1.708-1.703h2.887l-3.149,3.149l1.467,1.466h1.683l-0.841,0.842l1.758,1.758h-3.024l-7.216-7.215H19.764z
		 M19.19,21.431l2.942,2.942h-5.884L19.19,21.431z M15.257,26.675h0.779l0.99,1.62l0.99-1.62h0.756l-1.339,2.074l1.441,2.209h-0.806
		l-1.072-1.752l-1.081,1.752h-0.75l1.421-2.221L15.257,26.675z"/>
	<polygon fill="#3D6480" points="32.102,13.116 30.393,11.407 27.845,11.407 27.845,8.859 26.134,7.149 21.037,7.149 19.338,8.849 
		26.144,8.849 26.144,13.106 30.402,13.106 30.459,33.259 12.766,33.259 12.766,15.421 11.065,17.121 11.065,34.958 32.164,34.958 	
		"/>
	<polygon fill="#3D6480" points="19.19,21.431 16.248,24.373 22.132,24.373 	"/>
	<polygon fill="#3D6480" points="26.979,24.661 25.221,22.903 26.062,22.061 24.379,22.061 22.913,20.596 26.062,17.446 
		23.175,17.446 21.467,19.149 19.764,17.446 16.739,17.446 23.955,24.661 	"/>
	<polygon fill="#3D6480" points="15.916,30.958 16.997,29.206 18.069,30.958 18.875,30.958 17.434,28.749 18.772,26.675 
		18.017,26.675 17.026,28.295 16.036,26.675 15.257,26.675 16.587,28.737 15.166,30.958 	"/>
	<polygon fill="#3D6480" points="20.152,26.675 19.452,26.675 19.452,30.958 21.966,30.958 21.966,30.357 20.152,30.357 	"/>
	<path fill="#3D6480" d="M24.749,28.907c-0.146-0.113-0.377-0.235-0.691-0.366c-0.279-0.115-0.473-0.208-0.58-0.278
		s-0.185-0.146-0.231-0.224c-0.047-0.08-0.07-0.175-0.07-0.286c0-0.162,0.059-0.292,0.176-0.392
		c0.117-0.098,0.289-0.147,0.516-0.147c0.299,0,0.639,0.08,1.02,0.24l0.223-0.571c-0.406-0.18-0.814-0.27-1.225-0.27
		c-0.428,0-0.769,0.103-1.022,0.308s-0.381,0.486-0.381,0.844c0,0.285,0.08,0.529,0.24,0.732s0.436,0.384,0.826,0.542
		c0.379,0.152,0.629,0.284,0.75,0.396s0.182,0.247,0.182,0.407c0,0.178-0.066,0.319-0.198,0.425s-0.336,0.158-0.614,0.158
		c-0.189,0-0.394-0.026-0.614-0.079s-0.427-0.125-0.623-0.217v0.662c0.309,0.15,0.705,0.226,1.189,0.226s0.864-0.108,1.14-0.325
		s0.413-0.516,0.413-0.896c0-0.193-0.034-0.361-0.103-0.504S24.895,29.02,24.749,28.907z"/>
	<polygon fill="#3D6480" points="25.54,26.675 26.87,28.737 25.449,30.958 26.199,30.958 27.28,29.206 28.352,30.958 29.158,30.958 
		27.717,28.749 29.056,26.675 28.3,26.675 27.309,28.295 26.319,26.675 	"/>
</g>
</svg>
