<?xml version="1.0" encoding="utf-8"?>
<!-- Generator: Adobe Illustrator 17.0.0, SVG Export Plug-In . SVG Version: 6.00 Build 0)  -->
<!DOCTYPE svg PUBLIC "-//W3C//DTD SVG 1.1//EN" "http://www.w3.org/Graphics/SVG/1.1/DTD/svg11.dtd">
<svg version="1.1" id="Layer_1" xmlns="http://www.w3.org/2000/svg" xmlns:xlink="http://www.w3.org/1999/xlink" x="0px" y="0px"
	 width="42px" height="42px" viewBox="0 0 42 42" enable-background="new 0 0 42 42" xml:space="preserve">
<g>
	<polygon fill="#3D6480" points="12.345,6.178 10.445,6.178 10.445,9.259 5.221,4.035 3.877,5.379 9.102,10.605 5.957,10.605 
		5.958,12.506 12.345,12.503 	"/>
	<path fill="#DBF3DB" d="M30.459,33.925l-0.058-20.152h-4.257V9.515h-6.991l-6.387,6.387v18.023H30.459z M24.12,31.958h-2.933
		v-4.997h0.817v4.297h2.116V31.958z M25.613,28.552c0.055,0.093,0.145,0.18,0.27,0.262s0.351,0.19,0.677,0.325
		c0.367,0.152,0.636,0.295,0.807,0.427s0.296,0.281,0.376,0.448c0.08,0.166,0.12,0.361,0.12,0.588c0,0.443-0.161,0.793-0.482,1.045
		c-0.321,0.254-0.765,0.38-1.33,0.38s-1.028-0.088-1.388-0.263V30.99c0.228,0.107,0.47,0.191,0.727,0.254
		c0.256,0.061,0.495,0.092,0.716,0.092c0.324,0,0.563-0.062,0.716-0.185c0.154-0.123,0.231-0.288,0.231-0.495
		c0-0.188-0.071-0.346-0.212-0.476s-0.433-0.284-0.875-0.462c-0.456-0.184-0.777-0.395-0.964-0.632s-0.28-0.522-0.28-0.854
		c0-0.417,0.148-0.745,0.444-0.984s0.694-0.359,1.193-0.359c0.479,0,0.955,0.105,1.429,0.314l-0.26,0.667
		c-0.444-0.187-0.841-0.28-1.189-0.28c-0.264,0-0.465,0.058-0.602,0.173c-0.137,0.114-0.205,0.267-0.205,0.456
		C25.531,28.349,25.559,28.46,25.613,28.552z M19.764,18.112l1.703,1.703l1.708-1.703h2.887l-3.149,3.149l1.467,1.466h1.683
		l-0.841,0.842l1.758,1.758h-3.024l-7.216-7.215H19.764z M19.19,22.097l2.942,2.942h-5.884L19.19,22.097z M17.844,29.367
		l-1.552-2.406h0.909l1.155,1.891l1.155-1.891h0.882l-1.562,2.42l1.682,2.577h-0.94l-1.251-2.044l-1.261,2.044h-0.875L17.844,29.367
		z"/>
	<polygon fill="#3D6480" points="32.102,13.782 30.393,12.073 27.845,12.073 27.845,9.525 26.134,7.815 20.852,7.815 19.153,9.515 
		26.144,9.515 26.144,13.772 30.402,13.772 30.459,33.925 12.766,33.925 12.766,15.902 11.065,17.602 11.065,35.624 32.164,35.624 	
		"/>
	<polygon fill="#3D6480" points="19.19,22.097 16.248,25.039 22.132,25.039 	"/>
	<polygon fill="#3D6480" points="26.979,25.327 25.221,23.569 26.062,22.727 24.379,22.727 22.913,21.262 26.062,18.112 
		23.175,18.112 21.467,19.815 19.764,18.112 16.739,18.112 23.955,25.327 	"/>
	<polygon fill="#3D6480" points="18.323,29.914 19.574,31.958 20.514,31.958 18.832,29.381 20.394,26.961 19.512,26.961 
		18.357,28.852 17.202,26.961 16.292,26.961 17.844,29.367 16.186,31.958 17.061,31.958 	"/>
	<polygon fill="#3D6480" points="22.004,26.961 21.187,26.961 21.187,31.958 24.12,31.958 24.12,31.258 22.004,31.258 	"/>
	<path fill="#3D6480" d="M26.338,27.59c0.349,0,0.745,0.094,1.189,0.28l0.26-0.667c-0.474-0.209-0.95-0.314-1.429-0.314
		c-0.499,0-0.896,0.12-1.193,0.359s-0.444,0.567-0.444,0.984c0,0.332,0.093,0.617,0.28,0.854s0.508,0.448,0.964,0.632
		c0.442,0.178,0.734,0.332,0.875,0.462s0.212,0.288,0.212,0.476c0,0.207-0.077,0.372-0.231,0.495
		c-0.153,0.123-0.392,0.185-0.716,0.185c-0.221,0-0.46-0.031-0.716-0.092c-0.257-0.063-0.499-0.146-0.727-0.254v0.773
		c0.36,0.175,0.823,0.263,1.388,0.263s1.008-0.126,1.33-0.38c0.321-0.252,0.482-0.602,0.482-1.045c0-0.227-0.04-0.422-0.12-0.588
		c-0.08-0.167-0.205-0.316-0.376-0.448s-0.44-0.274-0.807-0.427c-0.326-0.135-0.551-0.243-0.677-0.325s-0.215-0.169-0.27-0.262
		c-0.055-0.092-0.082-0.203-0.082-0.333c0-0.189,0.068-0.342,0.205-0.456C25.873,27.647,26.074,27.59,26.338,27.59z"/>
</g>
</svg>
