<?xml version="1.0" encoding="utf-8"?>
<!-- Generator: Adobe Illustrator 17.0.0, SVG Export Plug-In . SVG Version: 6.00 Build 0)  -->
<!DOCTYPE svg PUBLIC "-//W3C//DTD SVG 1.1//EN" "http://www.w3.org/Graphics/SVG/1.1/DTD/svg11.dtd">
<svg version="1.1" id="Layer_1" xmlns="http://www.w3.org/2000/svg" xmlns:xlink="http://www.w3.org/1999/xlink" x="0px" y="0px"
	 width="42px" height="42px" viewBox="0 0 42 42" enable-background="new 0 0 42 42" xml:space="preserve">
<g>
	<path fill="none" d="M23.476,22.25c-0.237-0.158-0.595-0.236-1.072-0.236H21.71v2.1h0.729c0.489,0,0.844-0.09,1.063-0.271
		s0.33-0.451,0.33-0.809C23.832,22.67,23.713,22.408,23.476,22.25z"/>
	<path fill="none" d="M16.992,22.559c-0.078-0.252-0.131-0.438-0.16-0.555c-0.079,0.361-0.195,0.755-0.347,1.183l-0.58,1.675h1.872
		l-0.602-1.75C17.13,22.994,17.069,22.811,16.992,22.559z"/>
	<rect x="30.203" y="30.978" fill="none" width="6.414" height="6.414"/>
	<path fill="#F2F100" d="M23.002,10.845c-0.089-0.026-0.187-0.025-0.277,0.018C22.815,10.82,22.913,10.819,23.002,10.845z"/>
	<path fill="#F2F100" d="M28.004,9.041c0.065,0.064,0.118,0.143,0.154,0.229c0.021-0.02,0.042-0.037,0.064-0.053l-0.083-0.18
		L28.004,9.041z"/>
	<path fill="#F2F100" d="M22.895,18.572c0.42,0.373,0.807,0.756,1.416,0.766c0.66,0.012,1.406-0.492,1.598-1.117l0.222-0.723
		c-0.131-0.031-0.259-0.066-0.382-0.105c-0.137,0.33-0.126,0.457-0.191,0.699c-0.11,0.412-0.679,0.699-1.275,0.557
		c-0.211-0.051-0.336-0.082-0.412-0.137c0.061,0.164,0.176,0.303,0.395,0.342c0.24,0.045,0.416,0.064,0.766-0.016
		c-0.432,0.223-0.57,0.232-0.877,0.166c-0.804-0.18-0.521-1.148-0.346-1.74c0.111-0.375,0.073-0.77-0.01-1.145
		c0.305,0.193,0.547,0.363,0.893,0.48c1.626,0.547,3.555,1.105,5.19,0.191c1.283-0.715,1.985-2.305,2.144-3.76
		c0.141-1.295-0.102-3.32-0.633-4.605c-0.123-0.297-0.613-0.742-0.926-0.439c-0.314,0.307-0.551,0.738-0.893,1.008
		c-0.467,0.367-1.27,0.24-1.124,1.021c0.106,0.568,0.137,1.203,0.016,1.732c-0.116,0.508-0.237,1.229-0.503,1.57
		c0.079-0.289,0.211-1.041,0.248-1.549c0.02-0.277-0.012-0.613-0.063-0.951l-0.177,0.004c-0.214,0.006-0.563,0.313-0.656,0.504
		c-0.262,0.533-0.279,1.027-0.572,1.535c0.236-0.566,0.103-1.078,0.318-1.686c0.076-0.217,0.268-0.402,0.49-0.514
		c-0.123-0.017-0.248,0.035-0.43,0.078c-0.784,0.185-0.748,0.801-1.229,1.389c0.463-0.852,0.226-1.416,1.232-1.645
		c0.331-0.076,0.574-0.105,0.791,0.068l0.185-0.014c-0.028-0.156-0.06-0.311-0.089-0.455c-0.46-0.061-0.885-0.049-1.355,0.023
		c0.102-0.045,0.2-0.084,0.297-0.121c-0.029-0.029-0.057-0.072-0.076-0.117c-0.061-0.117-0.088-0.252-0.074-0.391
		c0.01-0.107,0.043-0.205,0.094-0.291c-0.016,0.004-0.031,0.008-0.047,0.014c-0.111,0.045-0.351,0.031-0.458-0.006
		c0.212-0.035,0.526-0.146,0.73-0.246c0.142-0.086,0.295-0.125,0.454-0.109c0.08,0.008,0.156,0.029,0.227,0.061
		c0.094,0.027,0.201,0.066,0.327,0.111c-0.193-0.404-0.413-0.77-0.677-1.137c-0.248-0.348-0.457-0.467-0.826-0.684
		c-0.08-0.047-0.158-0.096-0.235-0.146c-0.272-0.049-0.575-0.098-0.837-0.049c0.215-0.084,0.378-0.117,0.567-0.135
		c-0.522-0.373-0.972-0.793-1.485-1.225c-1.986-1.67-3.592-1.551-6.118-0.453c-1.026,0.445-1.394,0.896-2.025,1.703
		c0.662-0.016,1.3-0.039,1.96-0.102c-0.683,0.16-1.336,0.287-2.004,0.389c-0.74,0.113-0.967,0.094-1.525,0.637
		c-1.027,0.998-1.889,2.129-2.828,3.143c-0.544,0.588-0.814,1.176-1.135,1.846c-0.317,0.666-0.273,0.918,0.152,1.494
		c0.435,0.59,0.697,0.855,0.881,1.379c0.48-0.742,1.06-1.357,1.67-2.094c-0.498,0.797-0.953,1.553-1.365,2.365
		c-0.256,0.504-0.381,0.762-0.374,1.32c0.481,0.557,0.784,0.852,1.231,0.975c0.481,0.133,0.935,0.109,1.37-0.115
		c1.083-0.561,2.113-1.293,3.315-1.385c0.62-1.105,0.446-2.496,0.224-3.756c-0.185-1.045-0.138-1.967,0.11-3.016
		c0.063,1.02,0.145,1.965,0.346,2.963c0.215,1.066,0.303,2.026,0.099,3.053c0.267,0.059,0.771,0.24,1.362,0.8
		c0.704,0.521,1.311,0.8,2.068,1.04L22.895,18.572z M28.52,9.59c0.4,0.037,0.629,0.1,0.987-0.078
		c0.668-0.33,1.159-0.871,1.479-1.516c-0.194,0.77-0.587,1.424-1.401,1.715C29.184,9.853,28.926,9.707,28.52,9.59z M16.794,8.389
		c-0.438,0.578-0.706,0.875-0.808,1.648c-0.119-0.76-0.144-0.9,0.195-1.469c-0.098,0.049-0.189,0.119-0.32,0.23
		c-0.473,0.404-1.09,1.994-1.336,2.563c0.156-0.686,0.646-2.395,1.15-2.893c0.331-0.328,0.406-0.32,0.874-0.365
		c0.557-0.053,1.112-0.109,1.669-0.172C17.725,8.123,17.275,8.268,16.794,8.389z M23.66,15.807
		c-0.223,0.121-0.281,0.143-0.387,0.373c-0.1,0.217-0.201,0.48-0.287,0.709c0.032-0.201,0.076-0.451,0.107-0.652
		c0.068-0.428,0.119-0.533,0.553-0.605c0.163-0.027,0.455-0.088,0.617-0.115C24.106,15.602,23.818,15.721,23.66,15.807z
		 M20.836,9.664c-0.177-0.887,0.081-1.465,1.456-1.809C21.254,8.353,20.986,8.996,20.836,9.664z M22.713,9.953
		c0.385-0.26,0.906-0.209,1.355-0.416c-0.153,0.139-0.35,0.25-0.549,0.358c0.219,0.08,0.41,0.242,0.518,0.471
		c0.047,0.096,0.074,0.195,0.084,0.297c0.302-0.1,0.598-0.146,0.848-0.142c-0.894,0.25-1.845,0.838-2.5,1.613
		c0.074-0.201,0.176-0.385,0.301-0.547c-0.055-0.023-0.106-0.055-0.148-0.098c-0.032-0.031-0.059-0.068-0.079-0.109
		c0.021,0.041,0.046,0.078,0.077,0.107c-0.105-0.084-0.194-0.193-0.256-0.322c-0.061-0.127-0.09-0.26-0.09-0.391
		c-0.221,0.178-0.461,0.344-0.711,0.441C21.906,10.906,22.375,10.182,22.713,9.953z"/>
	<path fill="#3D6480" d="M17.79,3.689c-1.415,0.346-1.83,0.592-2.3,2.232C16.088,4.721,16.539,4.279,17.79,3.689z"/>
	<path fill="#3D6480" d="M16.666,3.791c-0.714,0.172-0.85,0.303-1.063,1.002C15.943,4.281,16.141,4.115,16.666,3.791z"/>
	<path fill="#3D6480" d="M30.065,17.195c1.515-0.809,2.224-2.434,2.397-4.152c0.141-1.391-0.13-3.729-0.794-4.996
		c-0.194-0.373-1.074-0.846-1.46-0.455c-0.29,0.295-0.491,0.744-0.804,1.012c-0.244,0.209-0.545,0.311-0.809,0.42
		c-0.205-0.553-0.498-0.98-0.857-1.408c-0.285-0.34-0.555-0.51-0.932-0.746c-0.745-0.467-1.323-1.055-2.001-1.615
		c-2.052-1.689-3.813-1.639-6.368-0.563C17.219,5.205,16.631,5.9,15.883,6.9c-0.452,0.023-0.762,0.111-1.24,0.533
		c-0.353,0.311-0.682,0.631-1.006,0.965l-0.571,0.625c-0.465,0.52-0.925,1.07-1.426,1.66c-0.507,0.598-0.81,1.201-1.132,1.854
		c-0.444,0.902-0.436,1.246,0.154,2.039c0.51,0.682,0.783,0.99,1.006,1.658c-0.184,0.377-0.25,0.697-0.312,1.213
		c0.622,0.68,1.085,1.146,1.689,1.291c0.593,0.141,1.089,0.113,1.618-0.158c1.179-0.604,2.27-1.381,3.598-1.412
		c0.167-0.411,0.281-0.802,0.356-1.185c0.204-1.027,0.116-1.988-0.099-3.053c-0.201-0.998-0.282-1.943-0.346-2.963
		c-0.248,1.049-0.295,1.971-0.11,3.016c0.223,1.26,0.396,2.65-0.224,3.756c-1.202,0.092-2.232,0.824-3.315,1.385
		c-0.436,0.225-0.889,0.248-1.37,0.115c-0.447-0.123-0.75-0.418-1.231-0.975c-0.007-0.559,0.118-0.816,0.374-1.32
		c0.412-0.813,0.867-1.568,1.365-2.365c-0.61,0.736-1.189,1.352-1.67,2.094c-0.184-0.523-0.446-0.789-0.881-1.379
		c-0.426-0.576-0.47-0.828-0.152-1.494c0.32-0.67,0.591-1.258,1.135-1.846c0.939-1.014,1.801-2.145,2.828-3.143
		c0.559-0.543,0.785-0.523,1.525-0.637c0.668-0.102,1.321-0.229,2.004-0.389c-0.66,0.063-1.298,0.086-1.96,0.102
		c0.632-0.807,0.999-1.258,2.025-1.703c2.526-1.098,4.132-1.217,6.118,0.453c0.514,0.432,0.963,0.852,1.485,1.225
		c-0.189,0.018-0.353,0.051-0.567,0.135c0.262-0.049,0.564,0,0.837,0.049c0.077,0.051,0.155,0.1,0.235,0.146
		c0.369,0.217,0.578,0.336,0.826,0.684c0.264,0.367,0.483,0.732,0.677,1.137c-0.126-0.045-0.233-0.084-0.327-0.111
		c-0.07-0.031-0.146-0.053-0.227-0.061c-0.159-0.016-0.313,0.023-0.454,0.109c-0.204,0.1-0.519,0.211-0.73,0.246
		c0.107,0.037,0.347,0.051,0.458,0.006c0.016-0.006,0.031-0.01,0.047-0.014c-0.051,0.086-0.084,0.184-0.094,0.291
		c-0.014,0.139,0.014,0.273,0.074,0.391c-0.018-0.042-0.022-0.086-0.023-0.128c0-0.009-0.006-0.019-0.005-0.028
		c0.016-0.158,0.151-0.275,0.311-0.26c0.042,0.004,0.069,0.035,0.104,0.055c0.031,0.018,0.07,0.022,0.092,0.049
		c0.047,0.057,0.073,0.132,0.065,0.213c-0.003,0.033-0.012,0.064-0.025,0.094c-0.146,0.025-0.291,0.068-0.441,0.123
		c-0.097,0.037-0.195,0.076-0.297,0.121c0.471-0.072,0.896-0.084,1.355-0.023c0.029,0.145,0.061,0.299,0.089,0.455l-0.185,0.014
		c-0.217-0.174-0.46-0.145-0.791-0.068c-1.007,0.229-0.77,0.793-1.232,1.645c0.48-0.588,0.444-1.203,1.229-1.389
		c0.182-0.043,0.307-0.096,0.43-0.078c-0.223,0.111-0.414,0.297-0.49,0.514c-0.216,0.607-0.082,1.119-0.318,1.686
		c0.293-0.508,0.311-1.002,0.572-1.535c0.094-0.191,0.442-0.498,0.656-0.504l0.177-0.004c0.052,0.338,0.083,0.674,0.063,0.951
		c-0.037,0.508-0.169,1.26-0.248,1.549c0.266-0.342,0.387-1.063,0.503-1.57c0.121-0.529,0.091-1.164-0.016-1.732
		c-0.146-0.781,0.657-0.654,1.124-1.021c0.342-0.27,0.578-0.701,0.893-1.008c0.313-0.303,0.803,0.143,0.926,0.439
		c0.531,1.285,0.773,3.311,0.633,4.605c-0.158,1.455-0.86,3.045-2.144,3.76c-1.636,0.914-3.564,0.355-5.19-0.191
		c-0.346-0.117-0.588-0.287-0.893-0.48c0.083,0.375,0.121,0.77,0.01,1.145c-0.175,0.592-0.458,1.561,0.346,1.74
		c0.307,0.066,0.445,0.057,0.877-0.166c-0.35,0.08-0.525,0.061-0.766,0.016c-0.219-0.039-0.334-0.178-0.395-0.342
		c0.076,0.055,0.201,0.086,0.412,0.137c0.597,0.143,1.165-0.145,1.275-0.557c0.065-0.242,0.055-0.369,0.191-0.699
		c0.123,0.039,0.251,0.074,0.382,0.105l-0.222,0.723c-0.191,0.625-0.938,1.129-1.598,1.117c-0.609-0.01-0.996-0.393-1.416-0.766
		l-0.846-0.75c-0.757-0.24-1.364-0.519-2.068-1.04c-0.001,0-0.001-0.001-0.002-0.001c0.488,0.574,0.824,0.898,1.487,1.186
		l0.435,0.168l0.057,0.082l0.719,0.693c0.494,0.475,0.902,0.863,1.654,0.828c0.784-0.037,1.682-0.654,1.912-1.41l0.229-0.758
		C27.654,17.795,29.035,17.744,30.065,17.195z M28.158,9.27c-0.036-0.086-0.089-0.164-0.154-0.229l0.136-0.004l0.083,0.18
		C28.2,9.232,28.179,9.25,28.158,9.27z"/>
	<path fill="#3D6480" d="M23.094,16.236c-0.031,0.201-0.075,0.451-0.107,0.652c0.086-0.229,0.188-0.492,0.287-0.709
		c0.105-0.23,0.164-0.252,0.387-0.373c0.158-0.086,0.445-0.205,0.604-0.291c-0.162,0.027-0.454,0.088-0.617,0.115
		C23.213,15.703,23.162,15.809,23.094,16.236z"/>
	<path fill="#3D6480" d="M20.836,9.664c0.15-0.668,0.418-1.311,1.456-1.809C20.917,8.199,20.659,8.777,20.836,9.664z"/>
	<path fill="#3D6480" d="M22.363,11.164c0.062,0.129,0.15,0.238,0.256,0.322c-0.031-0.029-0.057-0.066-0.077-0.107
		c-0.018-0.038-0.025-0.079-0.029-0.119c-0.001-0.01-0.007-0.02-0.007-0.03c-0.006-0.15,0.076-0.298,0.219-0.367
		c0.09-0.043,0.188-0.045,0.277-0.018c0.034,0.01,0.064,0.028,0.094,0.047c0.018,0.011,0.038,0.017,0.053,0.031
		c0.038,0.033,0.07,0.074,0.093,0.122c0.008,0.02,0.016,0.039,0.021,0.057c-0.184,0.137-0.353,0.297-0.493,0.484
		c-0.125,0.162-0.227,0.346-0.301,0.547c0.655-0.775,1.606-1.363,2.5-1.613c-0.25-0.004-0.546,0.043-0.848,0.142
		c-0.01-0.102-0.037-0.201-0.084-0.297c-0.107-0.229-0.299-0.391-0.518-0.471c0.199-0.108,0.396-0.219,0.549-0.358
		c-0.449,0.207-0.971,0.156-1.355,0.416c-0.338,0.229-0.807,0.953-1.15,1.262c0.25-0.098,0.49-0.264,0.711-0.441
		C22.273,10.904,22.303,11.037,22.363,11.164z"/>
	<path fill="#3D6480" d="M15.676,8.469c-0.504,0.498-0.994,2.207-1.15,2.893c0.246-0.568,0.863-2.158,1.336-2.563
		c0.131-0.111,0.223-0.182,0.32-0.23c-0.339,0.568-0.314,0.709-0.195,1.469c0.102-0.773,0.369-1.07,0.808-1.648
		c0.481-0.121,0.931-0.266,1.425-0.457c-0.557,0.063-1.112,0.119-1.669,0.172C16.082,8.148,16.007,8.141,15.676,8.469z"/>
	<path fill="#3D6480" d="M29.584,9.711c0.814-0.291,1.207-0.945,1.401-1.715c-0.319,0.645-0.811,1.186-1.479,1.516
		C29.148,9.689,28.92,9.627,28.52,9.59C28.926,9.707,29.184,9.853,29.584,9.711z"/>
	<path fill="#FFFFCD" d="M23.242,11.045c-0.023-0.048-0.055-0.089-0.093-0.122c-0.016-0.014-0.036-0.02-0.053-0.031
		c-0.03-0.019-0.06-0.036-0.094-0.047c-0.089-0.026-0.187-0.025-0.277,0.018c-0.144,0.069-0.226,0.217-0.219,0.367
		c0,0.01,0.006,0.02,0.007,0.03c0.005,0.04,0.011,0.081,0.029,0.119c0.021,0.041,0.047,0.078,0.079,0.109
		c0.042,0.043,0.094,0.074,0.148,0.098c0.141-0.188,0.31-0.348,0.493-0.484C23.258,11.084,23.25,11.064,23.242,11.045z"/>
	<path fill="#FFFFCD" d="M27.393,9.863c0.014-0.029,0.022-0.06,0.025-0.094c0.008-0.08-0.018-0.155-0.065-0.213
		c-0.022-0.027-0.061-0.031-0.092-0.049c-0.035-0.02-0.062-0.051-0.104-0.055c-0.159-0.016-0.295,0.102-0.311,0.26
		c-0.001,0.009,0.005,0.019,0.005,0.028c0.001,0.042,0.006,0.086,0.023,0.128c0.02,0.045,0.047,0.088,0.076,0.117
		C27.102,9.932,27.246,9.889,27.393,9.863z"/>
	<polygon fill="#3D6480" points="12.718,21.125 11.198,24.057 9.677,21.125 8.535,21.125 10.666,25.094 10.666,27.551 
		11.721,27.551 11.721,25.059 13.861,21.125 	"/>
	<path fill="#3D6480" d="M16.265,21.1l-2.404,6.451h1.107l0.628-1.785h2.457l0.642,1.785h1.116L17.407,21.1H16.265z M15.904,24.861
		l0.58-1.675c0.152-0.428,0.268-0.821,0.347-1.183c0.029,0.117,0.083,0.303,0.16,0.555s0.139,0.436,0.183,0.553l0.602,1.75H15.904z"
		/>
	<path fill="#3D6480" d="M24.913,22.998c0-0.627-0.199-1.096-0.598-1.406s-1.012-0.467-1.841-0.467h-1.815v6.426h1.05v-2.566h1.037
		l1.538,2.566h1.195l-1.815-2.844C24.497,24.367,24.913,23.797,24.913,22.998z M22.439,24.113H21.71v-2.1h0.694
		c0.478,0,0.835,0.078,1.072,0.236s0.356,0.42,0.356,0.783c0,0.357-0.11,0.627-0.33,0.809S22.928,24.113,22.439,24.113z"/>
	<path fill="#3D6480" d="M27.282,22.431h0.035l3.16,5.12h1.288v-6.426h-0.962v3.367c0,0.236,0.009,0.567,0.026,0.99
		c0.018,0.424,0.029,0.669,0.035,0.736h-0.026l-3.151-5.094h-1.274v6.426h0.954v-3.34c0-0.451-0.021-0.949-0.062-1.494
		L27.282,22.431z"/>
	<path fill="#E9102A" d="M28.617,29.392v9.586h9.586v-9.586H28.617z M36.617,37.392h-6.414v-6.414h6.414V37.392z"/>
</g>
</svg>
