<?xml version="1.0" encoding="utf-8"?>
<!-- Generator: Adobe Illustrator 17.0.0, SVG Export Plug-In . SVG Version: 6.00 Build 0)  -->
<!DOCTYPE svg PUBLIC "-//W3C//DTD SVG 1.1//EN" "http://www.w3.org/Graphics/SVG/1.1/DTD/svg11.dtd">
<svg version="1.1" id="Layer_1" xmlns="http://www.w3.org/2000/svg" xmlns:xlink="http://www.w3.org/1999/xlink" x="0px" y="0px"
	 width="42px" height="42px" viewBox="0 0 42 42" enable-background="new 0 0 42 42" xml:space="preserve">
<text transform="matrix(1 0 0 1 7.9811 27.6116)" fill="#3D6480" font-family="'OpenSans-Semibold'" font-size="9">YARN</text>
<text transform="matrix(1 0 0 1 7.9811 27.6116)" fill="#3D6480" font-family="'OpenSans-Semibold'" font-size="9">YARN</text>
<text transform="matrix(1 0 0 1 7.9811 27.6116)" fill="#3D6480" font-family="'OpenSans-Semibold'" font-size="9">YARN</text>
<g>
	<path fill="none" d="M16.438,22.62c-0.078-0.252-0.131-0.437-0.16-0.554c-0.079,0.36-0.195,0.754-0.347,1.182l-0.58,1.675h1.872
		l-0.602-1.749C16.577,23.056,16.516,22.872,16.438,22.62z"/>
	<polygon fill="none" points="29.31,30.818 29.31,36.138 35.014,33.482 	"/>
	<path fill="none" d="M22.922,22.312c-0.237-0.158-0.595-0.237-1.072-0.237h-0.694v2.101h0.729c0.489,0,0.844-0.091,1.063-0.272
		s0.33-0.451,0.33-0.809C23.278,22.731,23.16,22.47,22.922,22.312z"/>
	<polygon fill="#3D6480" points="12.165,21.187 10.644,24.118 9.124,21.187 7.981,21.187 10.112,25.155 10.112,27.612 
		11.167,27.612 11.167,25.12 13.307,21.187 	"/>
	<path fill="#3D6480" d="M15.711,21.161l-2.404,6.451h1.107l0.628-1.784H17.5l0.642,1.784h1.116l-2.404-6.451H15.711z
		 M15.351,24.922l0.58-1.675c0.152-0.428,0.268-0.821,0.347-1.182c0.029,0.117,0.083,0.302,0.16,0.554s0.139,0.437,0.183,0.554
		l0.602,1.749H15.351z"/>
	<path fill="#3D6480" d="M24.359,23.059c0-0.627-0.199-1.096-0.598-1.406s-1.012-0.466-1.841-0.466h-1.815v6.425h1.05v-2.566h1.037
		l1.538,2.566h1.195l-1.815-2.844C23.943,24.428,24.359,23.859,24.359,23.059z M21.885,24.175h-0.729v-2.101h0.694
		c0.478,0,0.835,0.079,1.072,0.237s0.356,0.419,0.356,0.782c0,0.357-0.11,0.627-0.33,0.809S22.375,24.175,21.885,24.175z"/>
	<path fill="#3D6480" d="M26.728,22.492h0.035l3.16,5.12h1.288v-6.425h-0.962v3.366c0,0.237,0.009,0.567,0.026,0.991
		c0.018,0.423,0.029,0.668,0.035,0.735h-0.026l-3.151-5.093h-1.274v6.425h0.954v-3.34c0-0.451-0.021-0.949-0.062-1.494
		L26.728,22.492z"/>
	<path fill="#0CB20F" d="M27.46,27.912v11.129l11.931-5.557L27.46,27.912z M29.31,30.818l5.704,2.664l-5.704,2.656V30.818z"/>
	<path fill="#F2F100" d="M27.45,9.102c0.065,0.064,0.118,0.143,0.154,0.229c0.021-0.02,0.042-0.037,0.064-0.053l-0.083-0.18
		L27.45,9.102z"/>
	<path fill="#F2F100" d="M22.341,18.633c0.42,0.373,0.807,0.756,1.416,0.766c0.66,0.012,1.406-0.492,1.598-1.117l0.222-0.723
		c-0.131-0.031-0.259-0.066-0.382-0.105c-0.137,0.33-0.126,0.457-0.191,0.699c-0.11,0.412-0.679,0.699-1.275,0.557
		c-0.211-0.051-0.336-0.082-0.412-0.137c0.061,0.164,0.176,0.303,0.395,0.342c0.24,0.045,0.416,0.064,0.766-0.016
		c-0.432,0.223-0.57,0.232-0.877,0.166c-0.804-0.18-0.521-1.148-0.346-1.74c0.111-0.375,0.073-0.769-0.01-1.144
		c0.305,0.193,0.547,0.363,0.893,0.48c1.626,0.547,3.555,1.105,5.19,0.191c1.283-0.715,1.985-2.305,2.144-3.76
		c0.141-1.295-0.102-3.32-0.633-4.605c-0.123-0.297-0.613-0.742-0.926-0.439c-0.314,0.307-0.551,0.738-0.893,1.008
		c-0.467,0.367-1.27,0.24-1.124,1.021c0.106,0.568,0.137,1.203,0.016,1.732c-0.116,0.508-0.237,1.229-0.503,1.57
		c0.079-0.289,0.211-1.041,0.248-1.549c0.02-0.278-0.012-0.614-0.063-0.951l-0.177,0.004c-0.214,0.006-0.563,0.313-0.656,0.504
		c-0.262,0.533-0.279,1.027-0.572,1.535c0.236-0.566,0.103-1.078,0.318-1.686c0.076-0.217,0.268-0.402,0.49-0.514
		c-0.123-0.017-0.248,0.035-0.43,0.078c-0.784,0.185-0.748,0.801-1.229,1.388c0.463-0.852,0.226-1.416,1.232-1.645
		c0.331-0.076,0.574-0.105,0.791,0.069l0.185-0.014c-0.028-0.156-0.06-0.311-0.089-0.455c-0.46-0.06-0.885-0.049-1.355,0.023
		c0.102-0.045,0.2-0.084,0.297-0.121c-0.029-0.029-0.057-0.072-0.076-0.117c-0.061-0.117-0.088-0.252-0.074-0.391
		c0.01-0.107,0.043-0.205,0.094-0.291c-0.016,0.004-0.031,0.008-0.047,0.014c-0.111,0.045-0.351,0.031-0.458-0.006
		c0.212-0.035,0.526-0.146,0.73-0.246c0.142-0.086,0.295-0.125,0.454-0.109c0.08,0.008,0.156,0.03,0.227,0.061
		c0.094,0.028,0.201,0.066,0.327,0.111c-0.193-0.404-0.413-0.77-0.677-1.137c-0.248-0.348-0.457-0.467-0.826-0.684
		c-0.08-0.047-0.158-0.096-0.235-0.146c-0.272-0.049-0.575-0.098-0.837-0.049c0.215-0.084,0.378-0.117,0.567-0.135
		c-0.522-0.373-0.972-0.793-1.485-1.225c-1.986-1.67-3.592-1.551-6.118-0.453c-1.026,0.445-1.394,0.896-2.025,1.703
		c0.662-0.016,1.3-0.039,1.96-0.102c-0.683,0.16-1.336,0.287-2.004,0.389c-0.74,0.113-0.967,0.094-1.525,0.637
		c-1.027,0.998-1.889,2.129-2.828,3.143c-0.544,0.588-0.814,1.176-1.135,1.846c-0.317,0.666-0.273,0.918,0.152,1.494
		c0.435,0.59,0.697,0.856,0.881,1.379c0.48-0.742,1.06-1.357,1.67-2.094c-0.498,0.797-0.953,1.553-1.365,2.365
		c-0.256,0.504-0.381,0.762-0.374,1.32c0.481,0.557,0.784,0.852,1.231,0.975c0.481,0.133,0.935,0.109,1.37-0.115
		c1.083-0.561,2.113-1.293,3.315-1.385c0.62-1.105,0.446-2.496,0.224-3.756c-0.185-1.045-0.138-1.967,0.11-3.016
		c0.063,1.02,0.145,1.965,0.346,2.963c0.215,1.065,0.303,2.026,0.099,3.053c0.267,0.059,0.771,0.24,1.362,0.8
		c0.704,0.521,1.312,0.8,2.068,1.04L22.341,18.633z M27.966,9.651c0.4,0.037,0.629,0.1,0.987-0.078
		c0.668-0.33,1.159-0.871,1.479-1.516c-0.194,0.77-0.587,1.424-1.401,1.715C28.63,9.915,28.372,9.768,27.966,9.651z M16.24,8.45
		c-0.438,0.578-0.706,0.875-0.808,1.648c-0.119-0.76-0.144-0.9,0.195-1.469c-0.098,0.049-0.189,0.119-0.32,0.23
		c-0.473,0.404-1.09,1.994-1.336,2.563c0.156-0.686,0.646-2.395,1.15-2.893c0.331-0.328,0.406-0.32,0.874-0.365
		c0.557-0.053,1.112-0.109,1.669-0.172C17.171,8.184,16.722,8.329,16.24,8.45z M23.107,15.868c-0.223,0.121-0.281,0.142-0.387,0.373
		c-0.1,0.217-0.201,0.48-0.287,0.709c0.032-0.201,0.076-0.451,0.107-0.652c0.068-0.428,0.119-0.533,0.553-0.605
		c0.163-0.027,0.455-0.088,0.617-0.115C23.552,15.663,23.265,15.782,23.107,15.868z M20.282,9.725
		c-0.177-0.887,0.081-1.465,1.456-1.809C20.7,8.415,20.433,9.057,20.282,9.725z M22.159,10.014c0.385-0.26,0.906-0.209,1.355-0.416
		c-0.153,0.139-0.35,0.25-0.549,0.358c0.219,0.08,0.41,0.242,0.518,0.471c0.047,0.096,0.074,0.195,0.084,0.297
		c0.302-0.1,0.598-0.146,0.848-0.142c-0.894,0.25-1.845,0.838-2.5,1.613c0.074-0.201,0.176-0.385,0.301-0.547
		c-0.055-0.024-0.106-0.055-0.148-0.098c-0.032-0.031-0.059-0.068-0.079-0.109c0.021,0.041,0.046,0.078,0.077,0.107
		c-0.105-0.084-0.194-0.193-0.256-0.322c-0.061-0.127-0.09-0.26-0.09-0.39c-0.221,0.177-0.461,0.344-0.711,0.441
		C21.353,10.967,21.822,10.243,22.159,10.014z"/>
	<path fill="#F2F100" d="M22.596,10.984c-0.113-0.1-0.28-0.128-0.425-0.06C22.316,10.856,22.483,10.885,22.596,10.984z"/>
	<path fill="#3D6480" d="M29.511,17.256c1.515-0.809,2.224-2.434,2.397-4.152c0.141-1.391-0.13-3.729-0.794-4.996
		c-0.194-0.373-1.074-0.846-1.46-0.455c-0.29,0.295-0.491,0.744-0.804,1.012c-0.244,0.209-0.545,0.311-0.809,0.42
		c-0.205-0.553-0.498-0.981-0.857-1.408c-0.285-0.34-0.555-0.51-0.932-0.746c-0.745-0.467-1.323-1.055-2.001-1.615
		C22.2,3.626,20.44,3.677,17.884,4.753c-1.219,0.514-1.807,1.209-2.555,2.209c-0.452,0.023-0.762,0.111-1.24,0.533
		c-0.353,0.311-0.682,0.631-1.006,0.965l-0.571,0.625c-0.465,0.519-0.925,1.07-1.426,1.66c-0.507,0.598-0.81,1.201-1.132,1.854
		c-0.444,0.902-0.436,1.246,0.154,2.039c0.51,0.682,0.783,0.99,1.006,1.658c-0.184,0.377-0.25,0.698-0.312,1.213
		c0.622,0.68,1.085,1.146,1.689,1.291c0.593,0.141,1.089,0.113,1.618-0.158c1.179-0.604,2.27-1.381,3.598-1.412
		c0.167-0.411,0.28-0.802,0.356-1.185c0.204-1.027,0.116-1.988-0.099-3.053c-0.201-0.998-0.282-1.943-0.346-2.963
		c-0.248,1.049-0.295,1.971-0.11,3.016c0.223,1.26,0.396,2.65-0.224,3.756c-1.202,0.092-2.232,0.824-3.315,1.385
		c-0.436,0.225-0.889,0.248-1.37,0.115c-0.447-0.123-0.75-0.418-1.231-0.975c-0.007-0.559,0.118-0.816,0.374-1.32
		c0.412-0.813,0.867-1.568,1.365-2.365c-0.61,0.736-1.189,1.352-1.67,2.094c-0.184-0.523-0.446-0.789-0.881-1.379
		c-0.426-0.576-0.47-0.828-0.152-1.494c0.32-0.67,0.591-1.258,1.135-1.846c0.939-1.014,1.801-2.145,2.828-3.143
		c0.559-0.543,0.785-0.523,1.525-0.637c0.668-0.102,1.321-0.229,2.004-0.389c-0.66,0.063-1.298,0.086-1.96,0.102
		c0.632-0.807,0.999-1.258,2.025-1.703c2.526-1.097,4.132-1.217,6.118,0.453c0.514,0.432,0.963,0.852,1.485,1.225
		c-0.189,0.018-0.353,0.051-0.567,0.135c0.262-0.049,0.564,0,0.837,0.049c0.077,0.051,0.155,0.1,0.235,0.146
		c0.369,0.217,0.578,0.336,0.826,0.684c0.264,0.367,0.483,0.732,0.677,1.137c-0.126-0.045-0.233-0.084-0.327-0.111
		c-0.07-0.031-0.146-0.053-0.227-0.061c-0.159-0.016-0.313,0.023-0.454,0.109c-0.204,0.1-0.519,0.211-0.73,0.246
		c0.107,0.037,0.347,0.051,0.458,0.006c0.016-0.006,0.031-0.01,0.047-0.014c-0.051,0.086-0.084,0.184-0.094,0.291
		c-0.014,0.139,0.014,0.273,0.074,0.391c-0.019-0.044-0.024-0.091-0.024-0.134c0-0.007-0.004-0.015-0.004-0.022
		c0.016-0.158,0.151-0.275,0.311-0.26c0.08,0.008,0.148,0.047,0.196,0.104s0.073,0.132,0.065,0.213
		c-0.001,0.011-0.006,0.021-0.008,0.031c-0.004,0.021-0.008,0.043-0.017,0.062c-0.146,0.025-0.291,0.069-0.441,0.123
		c-0.097,0.037-0.195,0.076-0.297,0.121c0.471-0.072,0.896-0.084,1.355-0.023c0.029,0.145,0.061,0.299,0.089,0.455l-0.185,0.014
		c-0.217-0.174-0.46-0.145-0.791-0.069c-1.007,0.229-0.77,0.793-1.232,1.645c0.48-0.588,0.444-1.203,1.229-1.388
		c0.182-0.043,0.307-0.096,0.43-0.078c-0.223,0.112-0.414,0.297-0.49,0.514c-0.216,0.607-0.082,1.119-0.318,1.686
		c0.293-0.508,0.311-1.002,0.572-1.535c0.094-0.191,0.442-0.498,0.656-0.504l0.177-0.004c0.052,0.338,0.083,0.674,0.063,0.951
		c-0.037,0.508-0.169,1.26-0.248,1.549c0.266-0.342,0.387-1.063,0.503-1.57c0.121-0.529,0.091-1.164-0.016-1.732
		c-0.146-0.781,0.657-0.654,1.124-1.021c0.342-0.27,0.578-0.701,0.893-1.008c0.313-0.303,0.803,0.143,0.926,0.439
		c0.531,1.285,0.773,3.311,0.633,4.605c-0.158,1.455-0.86,3.045-2.144,3.76c-1.636,0.914-3.564,0.355-5.19-0.191
		c-0.346-0.117-0.588-0.287-0.893-0.48c0.083,0.375,0.121,0.769,0.01,1.144c-0.175,0.592-0.458,1.561,0.346,1.74
		c0.307,0.066,0.445,0.057,0.877-0.166c-0.35,0.08-0.525,0.061-0.766,0.016c-0.219-0.039-0.334-0.178-0.395-0.342
		c0.076,0.055,0.201,0.086,0.412,0.137c0.597,0.142,1.165-0.145,1.275-0.557c0.065-0.242,0.055-0.369,0.191-0.699
		c0.123,0.039,0.251,0.074,0.382,0.105l-0.222,0.723c-0.191,0.625-0.938,1.129-1.598,1.117c-0.609-0.01-0.996-0.393-1.416-0.766
		l-0.846-0.75c-0.757-0.24-1.364-0.519-2.068-1.04c0,0-0.001-0.001-0.002-0.001c0.488,0.574,0.824,0.898,1.487,1.186l0.435,0.168
		l0.057,0.082l0.719,0.693c0.494,0.475,0.902,0.864,1.654,0.828c0.784-0.037,1.682-0.654,1.912-1.41l0.229-0.758
		C27.101,17.856,28.482,17.805,29.511,17.256z M27.605,9.331c-0.036-0.086-0.089-0.164-0.154-0.229l0.136-0.004l0.083,0.18
		C27.647,9.294,27.625,9.311,27.605,9.331z"/>
	<path fill="#3D6480" d="M17.237,3.751c-1.415,0.346-1.83,0.592-2.3,2.232C15.534,4.782,15.986,4.34,17.237,3.751z"/>
	<path fill="#3D6480" d="M16.113,3.852c-0.714,0.172-0.85,0.303-1.063,1.002C15.39,4.342,15.587,4.177,16.113,3.852z"/>
	<path fill="#3D6480" d="M20.282,9.725c0.15-0.668,0.418-1.311,1.456-1.809C20.364,8.26,20.106,8.838,20.282,9.725z"/>
	<path fill="#3D6480" d="M15.122,8.53c-0.504,0.498-0.994,2.207-1.15,2.893c0.246-0.568,0.863-2.158,1.336-2.563
		c0.131-0.111,0.223-0.182,0.32-0.23c-0.339,0.568-0.314,0.709-0.195,1.469c0.102-0.773,0.369-1.07,0.808-1.648
		c0.481-0.121,0.931-0.266,1.425-0.457c-0.557,0.063-1.112,0.119-1.669,0.172C15.529,8.21,15.453,8.202,15.122,8.53z"/>
	<path fill="#3D6480" d="M22.54,16.297c-0.031,0.201-0.075,0.451-0.107,0.652c0.086-0.229,0.188-0.492,0.287-0.709
		c0.105-0.23,0.164-0.252,0.387-0.373c0.158-0.086,0.445-0.205,0.604-0.291c-0.162,0.027-0.454,0.088-0.617,0.115
		C22.659,15.764,22.609,15.87,22.54,16.297z"/>
	<path fill="#3D6480" d="M21.81,11.225c0.062,0.129,0.15,0.238,0.256,0.322c-0.031-0.029-0.057-0.066-0.077-0.107
		c-0.091-0.191-0.009-0.424,0.183-0.516c0.145-0.069,0.312-0.04,0.425,0.06c0.038,0.033,0.07,0.074,0.093,0.122
		c0.008,0.02,0.016,0.039,0.021,0.057c-0.183,0.136-0.351,0.296-0.491,0.482c0,0.001-0.001,0.001-0.002,0.002
		c-0.125,0.162-0.227,0.346-0.301,0.547c0.655-0.775,1.606-1.363,2.5-1.613c-0.25-0.004-0.546,0.043-0.848,0.142
		c-0.01-0.102-0.037-0.201-0.084-0.297c-0.107-0.229-0.299-0.391-0.518-0.471c0.199-0.108,0.396-0.219,0.549-0.358
		c-0.449,0.207-0.971,0.156-1.355,0.416c-0.338,0.229-0.807,0.953-1.15,1.262c0.25-0.098,0.49-0.264,0.711-0.441
		C21.72,10.965,21.749,11.098,21.81,11.225z"/>
	<path fill="#3D6480" d="M29.031,9.772c0.814-0.291,1.207-0.946,1.401-1.715c-0.319,0.645-0.811,1.186-1.479,1.516
		c-0.358,0.178-0.587,0.115-0.987,0.078C28.372,9.768,28.63,9.915,29.031,9.772z"/>
	<path fill="#FFFFCD" d="M22.709,11.163c-0.005-0.018-0.013-0.037-0.021-0.057c-0.023-0.048-0.055-0.089-0.093-0.122
		c-0.113-0.099-0.28-0.128-0.425-0.06c-0.191,0.092-0.273,0.324-0.183,0.516c0.021,0.041,0.047,0.078,0.079,0.109
		c0.042,0.043,0.094,0.074,0.148,0.098c0-0.001,0.001-0.001,0.002-0.002C22.359,11.459,22.527,11.299,22.709,11.163z"/>
	<path fill="#FFFFCD" d="M26.839,9.924c0.009-0.02,0.013-0.041,0.017-0.062c0.002-0.011,0.007-0.02,0.008-0.031
		c0.008-0.08-0.018-0.156-0.065-0.213s-0.116-0.096-0.196-0.104c-0.159-0.016-0.295,0.102-0.311,0.26
		c0,0.007,0.004,0.015,0.004,0.022c0,0.043,0.006,0.09,0.024,0.134c0.02,0.045,0.047,0.088,0.076,0.117
		C26.548,9.993,26.693,9.95,26.839,9.924z"/>
</g>
</svg>
