<?xml version="1.0" encoding="utf-8"?>
<!-- Generator: Adobe Illustrator 17.0.0, SVG Export Plug-In . SVG Version: 6.00 Build 0)  -->
<!DOCTYPE svg PUBLIC "-//W3C//DTD SVG 1.1//EN" "http://www.w3.org/Graphics/SVG/1.1/DTD/svg11.dtd">
<svg version="1.1" id="Layer_1" xmlns="http://www.w3.org/2000/svg" xmlns:xlink="http://www.w3.org/1999/xlink" x="0px" y="0px"
	 width="42px" height="42px" viewBox="0 0 42 42" enable-background="new 0 0 42 42" xml:space="preserve">
<g>
	<rect x="26.157" y="26.376" fill="none" width="3.012" height="2.605"/>
	<rect x="26.157" y="13.384" fill="none" width="3.012" height="2.606"/>
	<rect x="26.157" y="10.735" fill="none" width="3.012" height="1.443"/>
	<polygon fill="none" points="30.374,12.078 30.374,13.484 30.374,15.89 30.374,17.195 24.952,17.195 24.952,15.89 24.952,13.484 
		24.952,12.078 24.952,10.735 21.509,10.735 21.509,31.855 29.169,31.855 29.169,30.187 24.952,30.187 24.952,25.17 29.069,25.17 
		30.374,25.17 30.374,26.476 30.374,28.881 30.374,30.287 30.374,31.855 33.295,31.855 33.295,10.735 30.374,10.735 	"/>
	<path fill="#EFF9FE" d="M21.309,10.735H8.929v21.12h12.38V10.735z M12.355,24.967h-1.205v-7.828h1.205V24.967z M13.414,24.967
		v-7.828h5.423v7.828H13.414z"/>
	<rect x="14.62" y="18.345" fill="#EFF9FE" width="3.011" height="5.417"/>
	<rect x="11.149" y="17.139" fill="#3D6480" width="1.205" height="7.828"/>
	<path fill="#3D6480" d="M13.414,17.139v7.828h5.423v-7.828H13.414z M17.631,23.762H14.62v-5.417h3.011V23.762z"/>
	<path fill="#3D6480" d="M7.229,9.036v24.519h27.767V9.036H7.229z M26.157,13.384h3.012v2.606h-3.012V13.384z M26.157,12.179v-1.443
		h3.012v1.443H26.157z M8.929,10.735h12.38v21.12H8.929V10.735z M29.169,28.981h-3.012v-2.605h3.012V28.981z M33.295,31.855h-2.921
		v-1.568v-1.406v-2.405V25.17h-1.305h-4.117v5.017h4.217v1.669h-7.66v-21.12h3.443v1.343v1.406v2.405v1.306h5.422V15.89v-2.405
		v-1.406v-1.343h2.921V31.855z"/>
</g>
</svg>
