<?xml version="1.0" encoding="UTF-8" standalone="no"?>
<svg
   xmlns:dc="http://purl.org/dc/elements/1.1/"
   xmlns:cc="http://creativecommons.org/ns#"
   xmlns:rdf="http://www.w3.org/1999/02/22-rdf-syntax-ns#"
   xmlns:svg="http://www.w3.org/2000/svg"
   xmlns="http://www.w3.org/2000/svg"
   xmlns:sodipodi="http://sodipodi.sourceforge.net/DTD/sodipodi-0.dtd"
   xmlns:inkscape="http://www.inkscape.org/namespaces/inkscape"
   id="Layer_1"
   data-name="Layer 1"
   viewBox="0 0 32.000001 16"
   version="1.1"
   sodipodi:docname="image.svg"
   width="32"
   height="16"
   inkscape:version="0.92.2 5c3e80d, 2017-08-06">
  <metadata
     id="metadata29">
    <rdf:RDF>
      <cc:Work
         rdf:about="">
        <dc:format>image/svg+xml</dc:format>
        <dc:type
           rdf:resource="http://purl.org/dc/dcmitype/StillImage" />
        <dc:title>ico_Image_File</dc:title>
      </cc:Work>
    </rdf:RDF>
  </metadata>
  <sodipodi:namedview
     pagecolor="#ffffff"
     bordercolor="#666666"
     borderopacity="1"
     objecttolerance="10"
     gridtolerance="10"
     guidetolerance="10"
     inkscape:pageopacity="0"
     inkscape:pageshadow="2"
     inkscape:window-width="921"
     inkscape:window-height="604"
     id="namedview27"
     showgrid="false"
     inkscape:zoom="7.5058642"
     inkscape:cx="19.184999"
     inkscape:cy="8"
     inkscape:window-x="681"
     inkscape:window-y="50"
     inkscape:window-maximized="0"
     inkscape:current-layer="Layer_1" />
  <defs
     id="defs4">
    <style
       id="style2">.cls-1{fill:#676767;}.cls-2{fill:#205eaa;}.cls-3{fill:#cccccb;}</style>
  </defs>
  <title
     id="title6">ico_Image_File</title>
  <g
     id="g3727"
     transform="translate(-24.305)">
    <path
       style="fill:#205eaa"
       inkscape:connector-curvature="0"
       id="path14"
       d="M 38.37,3.72 37.1,2.46 h -1.19 v -1.19 0 L 34.65,0 h -8.41 v 16 h 12.13 v -12.27 0 z m -1.27,11 H 27.51 V 1.27 h 7.14 v 2.45 h 2.45 z"
       class="cls-2" />
    <a
       id="a3720">
      <polyline
         class="cls-2"
         points="29.2 10.4 29.2 12.81 29.2 12.99 29.38 12.99 35.41 12.99 35.41 9.9 34.05 7.78 31.99 10.66 30.39 9.41"
         id="polyline16"
         style="fill:#205eaa" />
    </a>
    <circle
       style="fill:#205eaa"
       id="circle18"
       r="0.91000003"
       cy="7.0700002"
       cx="30.889999"
       class="cls-2" />
  </g>
  <g
     id="g3732"
     transform="translate(17.935)"
     style="fill:#ffffff">
    <path
       style="fill:#ffffff"
       inkscape:connector-curvature="0"
       id="path20"
       d="M 12.13,3.72 10.86,2.46 H 9.67 v -1.19 0 L 8.4,0 H 0 v 16 h 12.13 v -12.27 0 z m -1.27,11 H 1.27 V 1.27 H 8.4 v 2.45 h 2.46 z"
       class="cls-3" />
    <polyline
       style="fill:#ffffff"
       id="polyline22"
       points="2.96 10.4 2.96 12.81 2.96 12.99 3.14 12.99 9.16 12.99 9.16 9.9 7.81 7.78 5.75 10.66 4.14 9.41"
       class="cls-3" />
    <circle
       style="fill:#ffffff"
       id="circle24"
       r="0.91000003"
       cy="7.0700002"
       cx="4.6500001"
       class="cls-3" />
  </g>
</svg>
