<?xml version="1.0" encoding="UTF-8" standalone="no"?>
<!-- Generator: Adobe Illustrator 20.1.0, SVG Export Plug-In . SVG Version: 6.00 Build 0)  -->

<svg
   xmlns:dc="http://purl.org/dc/elements/1.1/"
   xmlns:cc="http://creativecommons.org/ns#"
   xmlns:rdf="http://www.w3.org/1999/02/22-rdf-syntax-ns#"
   xmlns:svg="http://www.w3.org/2000/svg"
   xmlns="http://www.w3.org/2000/svg"
   xmlns:sodipodi="http://sodipodi.sourceforge.net/DTD/sodipodi-0.dtd"
   xmlns:inkscape="http://www.inkscape.org/namespaces/inkscape"
   version="1.1"
   id="Layer_1"
   x="0px"
   y="0px"
   width="32"
   height="16"
   viewBox="0 0 32 16"
   xml:space="preserve"
   sodipodi:docname="job.svg"
   inkscape:version="0.92.2 5c3e80d, 2017-08-06"><metadata
     id="metadata4020"><rdf:RDF><cc:Work
         rdf:about=""><dc:format>image/svg+xml</dc:format><dc:type
           rdf:resource="http://purl.org/dc/dcmitype/StillImage" /><dc:title /></cc:Work></rdf:RDF></metadata><defs
     id="defs4018" /><sodipodi:namedview
     pagecolor="#ffffff"
     bordercolor="#666666"
     borderopacity="1"
     objecttolerance="10"
     gridtolerance="10"
     guidetolerance="10"
     inkscape:pageopacity="0"
     inkscape:pageshadow="2"
     inkscape:window-width="1323"
     inkscape:window-height="740"
     id="namedview4016"
     showgrid="false"
     inkscape:zoom="9.2903226"
     inkscape:cx="-13.993056"
     inkscape:cy="7.5"
     inkscape:window-x="256"
     inkscape:window-y="118"
     inkscape:window-maximized="0"
     inkscape:current-layer="Layer_1"
     showguides="true"
     inkscape:guide-bbox="true"><sodipodi:guide
       position="16,18.190972"
       orientation="1,0"
       id="guide4272"
       inkscape:locked="false"
       inkscape:label=""
       inkscape:color="rgb(0,0,255)" /></sodipodi:namedview><style
     type="text/css"
     id="style3981">
	.st0{fill:#FF9C04;}
	.st1{fill:#FFFFFF;}
</style><g
     id="g3997"
     transform="scale(1.0666667)"><g
       id="g3985"><polygon
         class="st0"
         points="4.8,5 4.8,3 1.2,6.5 0,5.3 3.5,1.8 1.6,1.8 1.6,0 6.5,0 6.5,5 "
         id="polygon3983"
         style="fill:#ff9c04" /></g><g
       id="g3989"><polygon
         class="st0"
         points="5,10.2 3,10.2 6.5,13.8 5.3,15 1.8,11.5 1.8,13.4 0,13.4 0,8.5 5,8.5 "
         id="polygon3987"
         style="fill:#ff9c04" /></g><polygon
       class="st0"
       points="13.2,1.6 13.2,3.5 9.7,0 8.5,1.2 12,4.8 10,4.8 10,6.5 15,6.5 15,1.6 "
       id="polygon3991"
       style="fill:#ff9c04" /><g
       id="g3995"><polygon
         class="st0"
         points="13.4,13.2 11.5,13.2 15,9.7 13.8,8.5 10.2,12 10.2,10 8.5,10 8.5,15 13.4,15 "
         id="polygon3993"
         style="fill:#ff9c04" /></g></g><g
     id="g4013"
     transform="matrix(1.0666667,0,0,1.0666667,-1.0666677,-2.5e-7)"><g
       id="g4001"><polygon
         class="st1"
         points="20.8,5 20.8,3 17.2,6.5 16,5.3 19.5,1.8 17.6,1.8 17.6,0 22.5,0 22.5,5 "
         id="polygon3999"
         style="fill:#ffffff" /></g><g
       id="g4005"><polygon
         class="st1"
         points="21,10.2 19,10.2 22.5,13.8 21.3,15 17.8,11.5 17.8,13.4 16,13.4 16,8.5 21,8.5 "
         id="polygon4003"
         style="fill:#ffffff" /></g><polygon
       class="st1"
       points="29.2,1.6 29.2,3.5 25.7,0 24.5,1.2 28,4.8 26,4.8 26,6.5 31,6.5 31,1.6 "
       id="polygon4007"
       style="fill:#ffffff" /><g
       id="g4011"><polygon
         class="st1"
         points="29.4,13.2 27.5,13.2 31,9.7 29.8,8.5 26.2,12 26.2,10 24.5,10 24.5,15 29.4,15 "
         id="polygon4009"
         style="fill:#ffffff" /></g></g></svg>