<?xml version="1.0" encoding="utf-8"?>
<!-- Generator: Adobe Illustrator 23.1.1, SVG Export Plug-In . SVG Version: 6.00 Build 0)  -->
<svg version="1.1" id="Layer_1" xmlns="http://www.w3.org/2000/svg" xmlns:xlink="http://www.w3.org/1999/xlink" x="0px" y="0px"
	 viewBox="0 0 32 32" style="enable-background:new 0 0 32 32;" xml:space="preserve">
<style type="text/css">
	.st0{clip-path:url(#SVGID_2_);}
	.st1{fill:none;}
	.st2{fill:#FF9C04;}
</style>
<g>
	<defs>
		<rect id="SVGID_1_" width="32" height="32"/>
	</defs>
	<clipPath id="SVGID_2_">
		<use xlink:href="#SVGID_1_"  style="overflow:visible;"/>
	</clipPath>
	<g id="Fullscreen.S_D" class="st0">
		<rect id="Rectangle_1010" class="st1" width="32" height="32"/>
		<g id="Group_3970" transform="translate(-695.5 -990.5)">
			<path id="Path_2028" class="st2" d="M708,999.6l-4.6,4.6l0.7,0.7l4.7-4.7v3.3h1v-5h-5v1h3.2L708,999.6z"/>
			<path id="Path_2029" class="st2" d="M715,1013.4l4.6-4.6l-0.7-0.7l-4.7,4.7v-3.3h-1v5h5v-1H715L715,1013.4z"/>
			<path id="Path_2030" class="st2" d="M719.4,999.8h-1v3.2l-4.6-4.6l-0.7,0.7l4.7,4.7h-3.3v1h5v-5L719.4,999.8z"/>
			<path id="Path_2031" class="st2" d="M709.8,1013.9l-4.7-4.7h3.3v-1h-5v5h1v-3.2l4.6,4.6L709.8,1013.9z"/>
		</g>
	</g>
</g>
</svg>
