<?xml version="1.0" encoding="UTF-8" standalone="no"?>
<!-- Generator: Adobe Illustrator 20.1.0, SVG Export Plug-In . SVG Version: 6.00 Build 0)  -->

<svg
   xmlns:dc="http://purl.org/dc/elements/1.1/"
   xmlns:cc="http://creativecommons.org/ns#"
   xmlns:rdf="http://www.w3.org/1999/02/22-rdf-syntax-ns#"
   xmlns:svg="http://www.w3.org/2000/svg"
   xmlns="http://www.w3.org/2000/svg"
   xmlns:sodipodi="http://sodipodi.sourceforge.net/DTD/sodipodi-0.dtd"
   xmlns:inkscape="http://www.inkscape.org/namespaces/inkscape"
   version="1.1"
   id="Layer_1"
   x="0px"
   y="0px"
   width="32"
   height="16"
   viewBox="0 0 32 16"
   xml:space="preserve"
   sodipodi:docname="trans.svg"
   inkscape:version="0.92.2 5c3e80d, 2017-08-06"><metadata
     id="metadata49"><rdf:RDF><cc:Work
         rdf:about=""><dc:format>image/svg+xml</dc:format><dc:type
           rdf:resource="http://purl.org/dc/dcmitype/StillImage" /><dc:title></dc:title></cc:Work></rdf:RDF></metadata><defs
     id="defs47" /><sodipodi:namedview
     pagecolor="#ffffff"
     bordercolor="#666666"
     borderopacity="1"
     objecttolerance="10"
     gridtolerance="10"
     guidetolerance="10"
     inkscape:pageopacity="0"
     inkscape:pageshadow="2"
     inkscape:window-width="1399"
     inkscape:window-height="872"
     id="namedview45"
     showgrid="false"
     inkscape:zoom="9.2903226"
     inkscape:cx="0.75347222"
     inkscape:cy="7.5"
     inkscape:window-x="0"
     inkscape:window-y="0"
     inkscape:window-maximized="0"
     inkscape:current-layer="Layer_1" /><style
     type="text/css"
     id="style2">
	.st0{fill:#0CB20F;}
	.st1{fill:#FFFFFF;}
</style><g
     id="g22"
     transform="scale(1.0666667)"><g
       id="g6"><polygon
         class="st0"
         points="6.5,6.5 1.6,6.5 1.6,4.8 3.5,4.8 0,1.2 1.2,0 4.8,3.5 4.8,1.6 6.5,1.6 "
         id="polygon4"
         style="fill:#0cb20f" /></g><g
       id="g10"><polygon
         class="st0"
         points="6.5,8.5 6.5,13.4 4.8,13.4 4.8,11.5 1.2,15 0,13.8 3.5,10.2 1.6,10.2 1.6,8.5 "
         id="polygon8"
         style="fill:#0cb20f" /></g><g
       id="g20"><g
         id="g14"><polygon
           class="st0"
           points="8.5,6.5 13.4,6.5 13.4,4.8 11.5,4.8 15,1.2 13.8,0 10.2,3.5 10.2,1.6 8.5,1.6 "
           id="polygon12"
           style="fill:#0cb20f" /></g><g
         id="g18"><polygon
           class="st0"
           points="8.5,8.5 8.5,13.4 10.2,13.4 10.2,11.5 13.8,15 15,13.8 11.5,10.2 13.4,10.2 13.4,8.5 "
           id="polygon16"
           style="fill:#0cb20f" /></g></g></g><g
     id="g42"
     transform="matrix(1.0666667,0,0,1.0666667,-1.0666667,0)"><g
       id="g26"><polygon
         class="st1"
         points="20.8,1.6 22.5,1.6 22.5,6.5 17.6,6.5 17.6,4.8 19.5,4.8 16,1.2 17.2,0 20.8,3.5 "
         id="polygon24"
         style="fill:#ffffff" /></g><g
       id="g30"><polygon
         class="st1"
         points="17.6,10.2 17.6,8.5 22.5,8.5 22.5,13.4 20.8,13.4 20.8,11.5 17.2,15 16,13.8 19.5,10.2 "
         id="polygon28"
         style="fill:#ffffff" /></g><g
       id="g40"><g
         id="g34"><polygon
           class="st1"
           points="26.2,1.6 24.5,1.6 24.5,6.5 29.4,6.5 29.4,4.8 27.5,4.8 31,1.2 29.8,0 26.2,3.5 "
           id="polygon32"
           style="fill:#ffffff" /></g><g
         id="g38"><polygon
           class="st1"
           points="29.4,10.2 29.4,8.5 24.5,8.5 24.5,13.4 26.2,13.4 26.2,11.5 29.8,15 31,13.8 27.5,10.2 "
           id="polygon36"
           style="fill:#ffffff" /></g></g></g></svg>