<?xml version="1.0" encoding="utf-8"?>
<!-- Generator: Adobe Illustrator 17.0.0, SVG Export Plug-In . SVG Version: 6.00 Build 0)  -->
<!DOCTYPE svg PUBLIC "-//W3C//DTD SVG 1.1//EN" "http://www.w3.org/Graphics/SVG/1.1/DTD/svg11.dtd">
<svg version="1.1" id="Layer_1" xmlns="http://www.w3.org/2000/svg" xmlns:xlink="http://www.w3.org/1999/xlink" x="0px" y="0px"
	 width="42px" height="42px" viewBox="0 0 42 42" enable-background="new 0 0 42 42" xml:space="preserve">
<g>
	<polygon fill="#EFF9FE" points="28.752,18.221 28.753,9.808 13.246,9.808 13.246,17.969 21.101,25.848 	"/>
	<polygon fill="#FFFFFF" points="21.099,26.98 9.83,15.675 9.83,30.633 25.347,30.633 32.37,23.61 32.37,15.744 	"/>
	<path fill="#3D6480" d="M9.83,30.633V15.675L21.099,26.98L32.37,15.744v7.866l1.7-1.7v-7.633v-0.6h-3.617l0-5.569H11.546v5.569
		H8.13v0.6v18.056h15.517l1.7-1.7H9.83z M13.246,9.808h15.507l0,8.413l-7.651,7.627l-7.855-7.879V9.808z"/>
</g>
<polygon fill="#3D6480" points="37.235,31.855 37.235,34.937 32.011,29.713 30.667,31.057 35.892,36.282 32.747,36.283 
	32.748,38.184 39.135,38.181 39.135,31.855 "/>
</svg>
