<svg xmlns="http://www.w3.org/2000/svg" viewBox="0 0 25.08 21.34"><defs><style>.cls-1{fill:#3e6380;}</style></defs><title>Asset 1</title><g id="Layer_2" data-name="Layer 2"><g id="Layer_1-2" data-name="Layer 1"><path class="cls-1" d="M17.43,13.44h7.65V2H16L16,2l-2-2H8.15V5L5.83,4.74A3,3,0,0,0,2.91,2.12a2.91,2.91,0,0,0,0,5.82A2.89,2.89,0,0,0,5.54,6.19l2.61.44v5.94L6.27,14.34a3,3,0,0,0-1.61-.43,2.92,2.92,0,1,0,2.92,2.92,2.7,2.7,0,0,0-.44-1.46l2.25-1.93h4.54l.79,0v2.19a2.8,2.8,0,0,0-2.19,2.76,2.92,2.92,0,1,0,5.83,0,2.81,2.81,0,0,0-2.19-2.76V13.47ZM9.7,1.57h3.62l.3.3.91.88H9.7Zm0,10.32V3.59H23.52v8.3Z"/></g></g></svg>