<?xml version="1.0" encoding="utf-8"?>
<!-- Generator: Adobe Illustrator 18.0.0, SVG Export Plug-In . SVG Version: 6.00 Build 0)  -->
<!DOCTYPE svg PUBLIC "-//W3C//DTD SVG 1.1//EN" "http://www.w3.org/Graphics/SVG/1.1/DTD/svg11.dtd">
<svg version="1.1" id="Layer_1" xmlns="http://www.w3.org/2000/svg" xmlns:xlink="http://www.w3.org/1999/xlink" x="0px" y="0px"
	 viewBox="0 0 42 42" enable-background="new 0 0 42 42" xml:space="preserve">
<polygon fill="#3D6480" points="5.7,10.9 12.1,10.9 12.1,4.5 10.2,4.5 10.2,7.6 5,2.4 3.6,3.7 8.8,9 5.7,9 "/>
<path fill="#EFF9FE" d="M30.2,32.3l-0.1-20.2h-4.3V7.9h-6.3L12.5,15v17.3H30.2z"/>
<polygon fill="#3D6480" points="31.8,12.1 30.1,10.4 27.6,10.4 27.6,7.9 25.9,6.2 21.3,6.2 19.6,7.9 25.9,7.9 25.9,12.1 30.1,12.1 
	30.2,32.3 12.5,32.3 12.5,15 10.8,16.7 10.8,34 31.9,34 "/>
<path fill="#3D6480" d="M18.2,24.2c-0.8,0-1.7-0.1-2.4-0.4l0.2-0.8c0.7,0.2,1.5,0.3,2.2,0.3c1.3,0,1.5-0.3,1.5-1.2
	c0-1.1,0-1.2-1.7-1.5C16.2,20.1,16,19.7,16,18c0-1.4,0.6-2.1,2.6-2.1c0.7,0,1.5,0.1,2.2,0.3l-0.1,0.9c-0.6-0.1-1.4-0.2-2.1-0.2
	c-1.3,0-1.5,0.3-1.5,1.2c0,1.1,0,1.2,1.6,1.5c2.1,0.5,2.2,0.8,2.2,2.4C20.8,23.4,20.4,24.2,18.2,24.2z"/>
<path fill="#3D6480" d="M22.2,23.1c0.6,0.1,1.2,0.2,1.8,0.2c1.1,0,1.5-0.3,1.5-1v-0.6c0-0.8-0.4-1-1.2-1h-1.6v-0.9h1.5
	c0.9,0,1.2-0.4,1.2-1v-0.7c0-0.7-0.3-1-1.3-1c-0.5,0-1.1,0.1-1.7,0.2l-0.1-0.9c0.5-0.1,1.2-0.2,1.8-0.2c1.7,0,2.3,0.6,2.3,1.7v0.7
	c0,0.7-0.2,1.2-0.9,1.5c0.7,0.2,1.1,0.6,1.1,1.4v0.8c0,1.2-0.7,1.8-2.5,1.8c-0.6,0-1.4-0.1-1.9-0.2L22.2,23.1z"/>
</svg>
