<?xml version="1.0" encoding="utf-8"?>
<!-- Generator: Adobe Illustrator 18.0.0, SVG Export Plug-In . SVG Version: 6.00 Build 0)  -->
<!DOCTYPE svg PUBLIC "-//W3C//DTD SVG 1.1//EN" "http://www.w3.org/Graphics/SVG/1.1/DTD/svg11.dtd">
<svg version="1.1" id="Layer_1" xmlns="http://www.w3.org/2000/svg" xmlns:xlink="http://www.w3.org/1999/xlink" x="0px" y="0px"
	 viewBox="0 0 42 42" enable-background="new 0 0 42 42" xml:space="preserve">
<g>
	<g>
		<path fill="#EFF9FE" d="M32.8,30.8V15.4H11.4l-1.8,2v13.3H32.8z M25.4,17.6h4.1v4.1h-4.1V17.6z M25.4,23.6h4.1v4.1h-4.1V23.6z
			 M19.4,17.6h4.1v4.1h-4.1V17.6z M19.4,23.6h4.1v4.1h-4.1V23.6z M13.4,17.6h4.1v4.1h-4.1V17.6z M13.4,23.6h4.1v4.1h-4.1V23.6z"/>
		<polygon fill="#3D6480" points="15.7,10.4 14.6,11.6 32.8,11.6 32.8,14.2 12.4,14.2 11.4,15.4 32.8,15.4 32.8,30.8 9.6,30.8 
			9.6,17.4 8.4,18.8 8.4,32 34,32 34,10.4 		"/>
		<rect x="29.1" y="12.3" fill="#3D6480" width="2.4" height="1.2"/>
		<rect x="14.2" y="18.4" fill="#FFFFFF" width="2.5" height="2.5"/>
		<path fill="#3D6480" d="M17.5,17.6h-4.1v4.1h4.1V17.6z M16.7,20.9h-2.5v-2.5h2.5V20.9z"/>
		<rect x="20.2" y="18.4" fill="#FFFFFF" width="2.5" height="2.5"/>
		<path fill="#3D6480" d="M23.5,17.6h-4.1v4.1h4.1V17.6z M22.7,20.9h-2.5v-2.5h2.5V20.9z"/>
		<rect x="26.2" y="18.4" fill="#FFFFFF" width="2.5" height="2.5"/>
		<path fill="#3D6480" d="M29.5,17.6h-4.1v4.1h4.1V17.6z M28.7,20.9h-2.5v-2.5h2.5V20.9z"/>
		<rect x="14.2" y="24.4" fill="#FFFFFF" width="2.5" height="2.5"/>
		<path fill="#3D6480" d="M17.5,23.6h-4.1v4.1h4.1V23.6z M16.7,26.9h-2.5v-2.5h2.5V26.9z"/>
		<rect x="20.2" y="24.4" fill="#FFFFFF" width="2.5" height="2.5"/>
		<path fill="#3D6480" d="M23.5,23.6h-4.1v4.1h4.1V23.6z M22.7,26.9h-2.5v-2.5h2.5V26.9z"/>
		<rect x="26.2" y="24.4" fill="#FFFFFF" width="2.5" height="2.5"/>
		<path fill="#3D6480" d="M29.5,23.6h-4.1v4.1h4.1V23.6z M28.7,26.9h-2.5v-2.5h2.5V26.9z"/>
		<polygon fill="#3D6480" points="5.3,11.8 11.7,11.8 11.7,5.5 9.8,5.5 9.8,8.5 4.6,3.3 3.3,4.7 8.5,9.9 5.3,9.9 		"/>
	</g>
</g>
</svg>
