<?xml version="1.0" encoding="utf-8"?>
<!-- Generator: Adobe Illustrator 17.0.0, SVG Export Plug-In . SVG Version: 6.00 Build 0)  -->
<!DOCTYPE svg PUBLIC "-//W3C//DTD SVG 1.1//EN" "http://www.w3.org/Graphics/SVG/1.1/DTD/svg11.dtd">
<svg version="1.1" id="Layer_1" xmlns="http://www.w3.org/2000/svg" xmlns:xlink="http://www.w3.org/1999/xlink" x="0px" y="0px"
	 width="42px" height="42px" viewBox="0 0 42 42" enable-background="new 0 0 42 42" xml:space="preserve">
<g>
	<path fill="none" d="M15.625,20.39c0,0,0.039-0.229,0.173-0.555l-2.246-0.976l-0.421,0.422c0.956,0.481,1.529,1.021,1.562,1.325
		c0.012,0.11,0.436,0.193,0.889,0.305C15.59,20.618,15.625,20.39,15.625,20.39z"/>
	<polygon fill="#EA102A" points="39.107,31.796 37.764,30.452 34.864,33.351 31.965,30.452 30.621,31.796 33.521,34.694 
		30.621,37.593 31.965,38.937 34.864,36.038 37.764,38.937 39.107,37.593 36.208,34.694 	"/>
	<path fill="#3D6480" d="M24.004,20.176c0.789,0.357,4.656,2.363,5.658,2.578s2.076,0.501,2.793,0.143
		c0.628-0.313-0.505-2.278-1.132-3.192c0.213-0.396,0.491-0.827,0.771-1.002c0.574-0.357,4.656,4.011,4.799,4.369
		s0.43,1.074,0.932,1.002c0.502-0.07,0.215-1.145,0.072-1.504c-0.145-0.357-4.799-4.583-5.301-5.084s-1.074-0.287-1.361,0.215
		c-0.145,0.254-0.399,0.782-0.615,1.243c-0.536-0.419-1.365-0.88-2.283-1.164c0.017-0.475,0.087-1.395,0.373-1.794
		c0.395-0.548,5.83,1.942,6.1,2.219c0.268,0.277,0.805,0.831,1.242,0.573c0.438-0.255-0.236-1.141-0.506-1.418
		c-0.268-0.276-6.18-2.417-6.834-2.689c-0.654-0.273-1.104,0.142-1.176,0.715c-0.065,0.487-0.119,1.804-0.134,2.188
		c-0.106-0.016-0.211-0.038-0.317-0.047c-1.345-0.112-2.677,1.037-3.198,1.547c-0.161-0.376-0.394-0.782-0.597-1.19
		c-0.43-0.858-1.146-1.217-1.863-1.073c-0.717,0.143-2.578,0.43-4.082,1.289c-0.498,0.285-0.845,0.631-1.099,0.969l-2.655-0.916
		l-1.284,0.774c-0.995-0.37-2.246-0.641-3.701-0.613c-3.58,0.072-4.654,4.942-4.654,4.942c-0.145,0.859-0.072,1.074,0.715,1.146
		c0.789,0.072,5.443-0.573,6.518-0.787c0.527-0.106,3.607-0.844,4.818-1.441c0.069,0.051,0.148,0.101,0.24,0.151
		c-0.833,0.385-2.593,0.902-2.779,1.102c-0.242,0.262-3.631,3.95-3.631,3.95s0.863,0.131,0.881-0.075
		c0.02-0.206,3.031-2.87,3.182-3.132c0.111-0.197,2.167-1.069,3.182-1.49c0.544,0.185,1.14,0.325,1.557,0.363
		c0.483,0.044,1.316-0.29,2.087-0.637c0.57,0.213,1.365,0.53,1.458,0.668c0.287,0.424,1.271,3.208,1.51,3.327
		c0.111,0.057,0.58,0,0.58-0.15c0-0.149-1.287-3.03-1.455-3.367c-0.147-0.294-1-0.64-1.342-0.822
		c0.194-0.09,0.377-0.173,0.528-0.236c0.039-0.016,0.077-0.042,0.116-0.06c0.71,0.249,2.697,1.195,2.697,1.195
		c0.131,0.084,1.75,2.708,1.826,2.777c0.211,0.192,0.955,0.188,0.955-0.038c0-0.225-1.93-2.877-2.273-3.194
		c-0.476-0.439-1.672-0.935-2.4-1.211C23.408,20.944,23.824,20.536,24.004,20.176z M14.693,20.605
		c-0.033-0.304-0.606-0.844-1.562-1.325l0.421-0.422l2.246,0.976c-0.135,0.326-0.173,0.555-0.173,0.555s-0.035,0.228-0.042,0.521
		C15.129,20.798,14.706,20.716,14.693,20.605z"/>
</g>
</svg>
