<?xml version="1.0" encoding="utf-8"?>
<!-- Generator: Adobe Illustrator 18.0.0, SVG Export Plug-In . SVG Version: 6.00 Build 0)  -->
<!DOCTYPE svg PUBLIC "-//W3C//DTD SVG 1.1//EN" "http://www.w3.org/Graphics/SVG/1.1/DTD/svg11.dtd">
<svg version="1.1" id="Layer_1" xmlns="http://www.w3.org/2000/svg" xmlns:xlink="http://www.w3.org/1999/xlink" x="0px" y="0px"
	 viewBox="0 0 42 42" enable-background="new 0 0 42 42" xml:space="preserve">
<g>
	<g>
		<path fill="none" d="M32.9,11.3H9.7V14h23.2V11.3z M31.6,13.2h-2.4V12h2.4V13.2z"/>
		<path fill="#EFF9FE" d="M9.7,15.2v15.4h14.8l3.2-3.1h-2.3v-4.1h4.1v2.3l3.4-3.3v-7.2H9.7z M17.5,27.4h-4.1v-4.1h4.1V27.4z
			 M17.5,21.4h-4.1v-4.1h4.1V21.4z M23.5,27.4h-4.1v-4.1h4.1V27.4z M23.5,21.4h-4.1v-4.1h4.1V21.4z M25.5,21.4v-4.1h4.1v4.1H25.5z"
			/>
		<path fill="#3D6480" d="M9.7,30.5V15.2h23.2v7.2l1.2-1.2V10.1H8.5v21.6h14.8l1.2-1.2H9.7z M9.7,11.3h23.2V14H9.7V11.3z"/>
		<rect x="29.2" y="12" fill="#3D6480" width="2.4" height="1.2"/>
		<rect x="14.3" y="18.1" fill="#FFFFFF" width="2.5" height="2.5"/>
		<path fill="#3D6480" d="M13.5,21.4h4.1v-4.1h-4.1V21.4z M14.3,18.1h2.5v2.5h-2.5V18.1z"/>
		<rect x="20.3" y="18.1" fill="#FFFFFF" width="2.5" height="2.5"/>
		<path fill="#3D6480" d="M19.5,21.4h4.1v-4.1h-4.1V21.4z M20.3,18.1h2.5v2.5h-2.5V18.1z"/>
		<rect x="26.3" y="18.1" fill="#FFFFFF" width="2.5" height="2.5"/>
		<path fill="#3D6480" d="M25.5,17.3v4.1h4.1v-4.1H25.5z M28.7,20.6h-2.5v-2.5h2.5V20.6z"/>
		<rect x="14.3" y="24.1" fill="#FFFFFF" width="2.5" height="2.5"/>
		<path fill="#3D6480" d="M13.5,27.4h4.1v-4.1h-4.1V27.4z M14.3,24.1h2.5v2.5h-2.5V24.1z"/>
		<rect x="20.3" y="24.1" fill="#FFFFFF" width="2.5" height="2.5"/>
		<path fill="#3D6480" d="M19.5,27.4h4.1v-4.1h-4.1V27.4z M20.3,24.1h2.5v2.5h-2.5V24.1z"/>
		<polygon fill="#FFFFFF" points="26.3,24.1 26.3,26.6 28.5,26.6 28.7,26.4 28.7,24.1 		"/>
		<polygon fill="#3D6480" points="25.5,23.3 25.5,27.4 27.7,27.4 28.5,26.6 26.3,26.6 26.3,24.1 28.7,24.1 28.7,26.4 29.5,25.7 
			29.5,23.3 		"/>
	</g>
	<polygon fill="#EA102A" points="39.1,31.8 37.8,30.5 34.9,33.4 32,30.5 30.6,31.8 33.5,34.7 30.6,37.6 32,38.9 34.9,36 37.8,38.9 
		39.1,37.6 36.2,34.7 	"/>
</g>
</svg>
