<?xml version="1.0" encoding="utf-8"?>
<!-- Generator: Adobe Illustrator 17.0.0, SVG Export Plug-In . SVG Version: 6.00 Build 0)  -->
<!DOCTYPE svg PUBLIC "-//W3C//DTD SVG 1.1//EN" "http://www.w3.org/Graphics/SVG/1.1/DTD/svg11.dtd">
<svg version="1.1" id="Layer_1" xmlns="http://www.w3.org/2000/svg" xmlns:xlink="http://www.w3.org/1999/xlink" x="0px" y="0px"
	 width="42px" height="42px" viewBox="0 0 42 42" enable-background="new 0 0 42 42" xml:space="preserve">
<g>
	<path fill="none" d="M15.625,20.39c0,0,0.039-0.229,0.173-0.555l-2.246-0.976l-0.421,0.422c0.956,0.481,1.529,1.021,1.562,1.325
		c0.012,0.11,0.436,0.193,0.889,0.305C15.59,20.618,15.625,20.39,15.625,20.39z"/>
	<polygon fill="#3D6480" points="37.115,32.635 37.115,35.717 31.89,30.492 30.546,31.836 35.772,37.062 32.626,37.063 
		32.626,38.963 39.016,38.96 39.016,32.635 	"/>
	<path fill="#3D6480" d="M24.004,20.176c0.789,0.357,4.656,2.363,5.658,2.578s2.076,0.501,2.793,0.143
		c0.628-0.313-0.505-2.278-1.132-3.192c0.213-0.396,0.491-0.827,0.771-1.002c0.574-0.357,4.656,4.011,4.8,4.369
		c0.142,0.358,0.429,1.074,0.931,1.002c0.502-0.07,0.215-1.145,0.072-1.504c-0.145-0.357-4.799-4.583-5.301-5.084
		s-1.074-0.287-1.361,0.215c-0.145,0.254-0.399,0.782-0.615,1.243c-0.536-0.419-1.365-0.88-2.283-1.164
		c0.017-0.475,0.087-1.395,0.373-1.794c0.395-0.548,5.83,1.942,6.101,2.219c0.267,0.277,0.804,0.831,1.241,0.573
		c0.438-0.255-0.236-1.141-0.506-1.418c-0.268-0.276-6.18-2.417-6.834-2.689c-0.653-0.273-1.104,0.142-1.176,0.715
		c-0.065,0.487-0.119,1.804-0.134,2.188c-0.106-0.016-0.211-0.038-0.317-0.047c-1.345-0.112-2.677,1.037-3.198,1.547
		c-0.161-0.376-0.394-0.782-0.597-1.19c-0.43-0.858-1.146-1.217-1.863-1.073c-0.717,0.143-2.578,0.43-4.082,1.289
		c-0.498,0.285-0.845,0.631-1.099,0.969l-2.655-0.916l-1.284,0.773c-0.995-0.37-2.246-0.641-3.701-0.612
		c-3.58,0.072-4.654,4.942-4.654,4.942c-0.144,0.859-0.072,1.074,0.715,1.146c0.789,0.072,5.443-0.573,6.519-0.787
		c0.526-0.106,3.606-0.844,4.817-1.441c0.069,0.051,0.148,0.101,0.24,0.151c-0.833,0.384-2.592,0.902-2.779,1.102
		c-0.242,0.262-3.631,3.95-3.631,3.95s0.863,0.131,0.881-0.075c0.02-0.206,3.031-2.87,3.182-3.132
		c0.111-0.197,2.167-1.069,3.182-1.49c0.544,0.185,1.14,0.325,1.557,0.363c0.483,0.044,1.316-0.29,2.087-0.637
		c0.57,0.213,1.365,0.53,1.458,0.668c0.287,0.424,1.271,3.208,1.51,3.327c0.111,0.057,0.581,0,0.581-0.15
		c0-0.149-1.288-3.03-1.456-3.367c-0.147-0.294-1-0.64-1.342-0.822c0.194-0.09,0.377-0.173,0.528-0.236
		c0.039-0.016,0.077-0.042,0.116-0.06c0.71,0.249,2.697,1.195,2.697,1.195c0.131,0.084,1.75,2.708,1.826,2.777
		c0.211,0.192,0.955,0.188,0.955-0.038c0-0.225-1.93-2.877-2.273-3.194c-0.476-0.439-1.672-0.935-2.4-1.211
		C23.408,20.944,23.824,20.536,24.004,20.176z M14.693,20.605c-0.033-0.304-0.606-0.844-1.562-1.325l0.421-0.422l2.246,0.976
		c-0.135,0.326-0.173,0.555-0.173,0.555s-0.035,0.228-0.042,0.521C15.129,20.798,14.706,20.716,14.693,20.605z"/>
</g>
</svg>
