<?xml version="1.0" encoding="utf-8"?>
<!-- Generator: Adobe Illustrator 19.2.0, SVG Export Plug-In . SVG Version: 6.00 Build 0)  -->
<!DOCTYPE svg PUBLIC "-//W3C//DTD SVG 1.1//EN" "http://www.w3.org/Graphics/SVG/1.1/DTD/svg11.dtd">
<svg version="1.1" id="Layer_1" xmlns="http://www.w3.org/2000/svg" xmlns:xlink="http://www.w3.org/1999/xlink" x="0px" y="0px"
	 viewBox="0 0 9 9" style="enable-background:new 0 0 9 9;" xml:space="preserve">
<style type="text/css">
	.st0{fill:#CAC7B6;}
</style>
<g>
	<path class="st0" d="M8.6,7.6l-1,1C7.5,8.7,7.3,8.8,7.1,8.8c-0.2,0-0.4-0.1-0.5-0.2L4.5,6.5L2.4,8.6C2.2,8.7,2.1,8.8,1.9,8.8
		c-0.2,0-0.4-0.1-0.5-0.2l-1-1C0.3,7.5,0.2,7.3,0.2,7.1c0-0.2,0.1-0.4,0.2-0.5l2.1-2.1L0.4,2.4C0.3,2.2,0.2,2.1,0.2,1.9
		c0-0.2,0.1-0.4,0.2-0.5l1-1c0.1-0.1,0.3-0.2,0.5-0.2c0.2,0,0.4,0.1,0.5,0.2l2.1,2.1l2.1-2.1c0.1-0.1,0.3-0.2,0.5-0.2
		c0.2,0,0.4,0.1,0.5,0.2l1,1c0.1,0.1,0.2,0.3,0.2,0.5c0,0.2-0.1,0.4-0.2,0.5L6.5,4.5l2.1,2.1c0.1,0.1,0.2,0.3,0.2,0.5
		C8.8,7.3,8.7,7.5,8.6,7.6z"/>
</g>
</svg>
