<?xml version="1.0" encoding="utf-8"?>
<!-- Generator: Adobe Illustrator 20.1.0, SVG Export Plug-In . SVG Version: 6.00 Build 0)  -->
<svg version="1.1" id="Layer_1" xmlns="http://www.w3.org/2000/svg" xmlns:xlink="http://www.w3.org/1999/xlink" x="0px" y="0px"
	 viewBox="0 0 58.9 58.9" style="enable-background:new 0 0 58.9 58.9;" xml:space="preserve">
<style type="text/css">
	.st0{fill:#005DA6;}
</style>
<g>
	<polygon class="st0" points="41.1,33.7 41.1,37.5 25.8,37.5 25.8,9.4 29.5,9.4 29.5,33.7 	"/>
	<path class="st0" d="M29.5,3.5c14.3,0,26,11.6,26,26s-11.6,26-26,26s-26-11.6-26-26S15.1,3.5,29.5,3.5 M29.5,0
		C13.2,0,0,13.2,0,29.5c0,16.3,13.2,29.5,29.5,29.5s29.5-13.2,29.5-29.5C58.9,13.2,45.7,0,29.5,0L29.5,0z"/>
</g>
</svg>
