<?xml version="1.0" encoding="utf-8"?>
<!-- Generator: Adobe Illustrator 17.0.0, SVG Export Plug-In . SVG Version: 6.00 Build 0)  -->
<!DOCTYPE svg PUBLIC "-//W3C//DTD SVG 1.1//EN" "http://www.w3.org/Graphics/SVG/1.1/DTD/svg11.dtd">
<svg version="1.1" id="Layer_1" xmlns="http://www.w3.org/2000/svg" xmlns:xlink="http://www.w3.org/1999/xlink" x="0px" y="0px"
	 width="42px" height="42px" viewBox="0 0 42 42" enable-background="new 0 0 42 42" xml:space="preserve">
<polygon fill="#3D6480" points="9.719,4.933 9.719,8.016 4.494,2.791 3.15,4.134 8.376,9.36 5.23,9.361 5.23,11.261 11.62,11.259 
	11.62,4.933 "/>
<g>
	<path fill="#3D6480" d="M28.733,32.68H11.039V17.163L9.34,18.862V34.38h21.072v-9.216l-0.011-3.712
		c-0.584-0.034-1.152-0.122-1.701-0.263L28.733,32.68z"/>
	<path fill="#3D6480" d="M23.036,8.271c0.333-0.615,0.742-1.182,1.204-1.7h-2.608l-1.7,1.7H23.036z"/>
	<path fill="#3D6480" d="M22.999,16.693h-9.063v0.8h9.538C23.301,17.235,23.145,16.967,22.999,16.693z"/>
	<rect x="13.936" y="20.075" fill="#3D6480" width="11.903" height="0.8"/>
	<rect x="13.936" y="23.458" fill="#3D6480" width="3.202" height="0.8"/>
	<path fill="#EFF9FE" d="M22.962,12.519c0-2.395,1.068-4.541,2.747-6.001h-1.421c-0.016,0.018-0.032,0.035-0.048,0.052
		c-0.462,0.518-0.871,1.085-1.204,1.7h-3.104l-8.893,8.893V32.68h17.694L28.7,21.189c0.549,0.141,1.117,0.229,1.701,0.263
		c0.004,0,0.007,0,0.011,0.001v-1C26.26,20.188,22.962,16.736,22.962,12.519z M13.936,16.693h9.063
		c0.146,0.275,0.302,0.543,0.475,0.8h-9.538V16.693z M17.138,24.258h-3.202v-0.8h3.202V24.258z M25.84,20.875H13.936v-0.8H25.84
		V20.875z"/>
	<path fill="#FFECCE" d="M28.502,16.332c0.628-0.125,1.269-0.199,1.919-0.224v-3.238H27.87
		C27.905,14.077,28.115,15.247,28.502,16.332z"/>
	<path fill="#FFECCE" d="M26.338,17.749c0.822,0.722,1.816,1.25,2.911,1.521c-0.471-0.656-0.858-1.374-1.174-2.13
		C27.473,17.293,26.895,17.501,26.338,17.749z"/>
	<path fill="#FFECCE" d="M27.837,8.554c-0.697-0.186-1.363-0.452-2.008-0.763c-1.08,1.162-1.765,2.69-1.849,4.378h3.192
		C27.208,10.915,27.432,9.696,27.837,8.554z"/>
	<path fill="#FFECCE" d="M28.798,8.039c0.533,0.102,1.074,0.167,1.623,0.192V5.586c-0.034,0.002-0.069,0.002-0.103,0.005
		C29.699,6.33,29.189,7.153,28.798,8.039z"/>
	<path fill="#FFECCE" d="M29.293,5.76c-1.102,0.266-2.102,0.791-2.93,1.513c0.559,0.253,1.133,0.475,1.733,0.631
		C28.418,7.146,28.814,6.425,29.293,5.76z"/>
	<path fill="#FFECCE" d="M27.171,12.869h-3.192c0.084,1.673,0.755,3.193,1.82,4.352c0.642-0.306,1.318-0.551,2.02-0.734
		C27.423,15.349,27.205,14.129,27.171,12.869z"/>
	<path fill="#FFECCE" d="M30.278,19.444c0.048,0.004,0.094,0.014,0.142,0.017v-0.814v-1.838c-0.558,0.023-1.109,0.086-1.649,0.187
		C29.158,17.886,29.663,18.711,30.278,19.444z"/>
	<path fill="#FFECCE" d="M27.871,12.169h2.55V8.93c-0.642-0.027-1.275-0.106-1.896-0.233C28.126,9.791,27.908,10.963,27.871,12.169z
		"/>
	<circle fill="#FFECCE" cx="36.483" cy="8.604" r="0.586"/>
	<path fill="#FF9C04" d="M36.483,7.388c-0.55,0-0.997,0.373-1.147,0.874h-0.419h-3.496V5.56h2.165
		c0.182,0.442,0.616,0.754,1.123,0.754c0.074,0,0.138-0.029,0.208-0.042c0.568-0.102,1.01-0.577,1.01-1.174
		c0-0.671-0.547-1.216-1.218-1.216c-0.231,0-0.436,0.082-0.62,0.195c-0.194,0.118-0.354,0.279-0.457,0.483h-2.112h-0.599
		c-1.994,0-3.814,0.742-5.212,1.958c-1.679,1.46-2.747,3.606-2.747,6.001c0,4.217,3.299,7.669,7.45,7.933
		c0.169,0.011,0.337,0.026,0.509,0.026h0.5v-0.5v-1.332v-5.777h1.743c0.159,0.487,0.602,0.847,1.141,0.847
		c0.228,0,0.43-0.08,0.612-0.189c0.355-0.213,0.605-0.584,0.605-1.027s-0.25-0.814-0.605-1.027
		c-0.183-0.109-0.384-0.189-0.612-0.189c-0.553,0-1.002,0.379-1.149,0.886h-1.735V8.962h3.496h0.422
		c0.155,0.493,0.6,0.858,1.144,0.858c0.671,0,1.217-0.545,1.217-1.216S37.154,7.388,36.483,7.388z M34.709,4.512
		c0.324,0,0.587,0.263,0.587,0.586s-0.263,0.586-0.587,0.586c-0.323,0-0.586-0.263-0.586-0.586S34.385,4.512,34.709,4.512z
		 M29.293,5.76c-0.479,0.665-0.875,1.386-1.198,2.143c-0.6-0.155-1.174-0.378-1.733-0.631C27.192,6.552,28.191,6.026,29.293,5.76z
		 M25.829,7.792c0.645,0.31,1.311,0.576,2.008,0.763c-0.405,1.142-0.629,2.36-0.665,3.615h-3.192
		C24.064,10.482,24.749,8.954,25.829,7.792z M23.979,12.869h3.192c0.035,1.26,0.252,2.48,0.648,3.618
		c-0.702,0.183-1.378,0.428-2.02,0.734C24.734,16.063,24.062,14.543,23.979,12.869z M26.338,17.749
		c0.557-0.248,1.135-0.457,1.737-0.609c0.316,0.756,0.703,1.474,1.174,2.13C28.155,18.999,27.16,18.471,26.338,17.749z
		 M30.421,18.646v0.814c-0.048-0.003-0.094-0.013-0.142-0.017c-0.616-0.733-1.12-1.557-1.507-2.449
		c0.541-0.101,1.091-0.164,1.649-0.187V18.646z M30.421,16.108c-0.65,0.025-1.291,0.099-1.919,0.224
		c-0.387-1.085-0.597-2.255-0.632-3.463h2.551V16.108z M30.421,12.169h-2.55c0.037-1.206,0.255-2.378,0.654-3.471
		c0.622,0.127,1.254,0.206,1.896,0.233V12.169z M30.421,8.23c-0.549-0.024-1.09-0.089-1.623-0.192
		c0.392-0.885,0.901-1.708,1.521-2.448c0.034-0.003,0.069-0.003,0.103-0.005V8.23z M34.304,11.913c0.324,0,0.587,0.263,0.587,0.586
		s-0.263,0.586-0.587,0.586c-0.323,0-0.585-0.263-0.585-0.586S33.981,11.913,34.304,11.913z M36.483,9.191
		c-0.323,0-0.586-0.263-0.586-0.586s0.263-0.586,0.586-0.586s0.586,0.263,0.586,0.586S36.806,9.191,36.483,9.191z"/>
	<circle fill="#FFECCE" cx="34.709" cy="5.098" r="0.586"/>
	<circle fill="#FFECCE" cx="34.304" cy="12.5" r="0.586"/>
</g>
</svg>
