<?xml version="1.0" encoding="utf-8"?>
<!-- Generator: Adobe Illustrator 20.1.0, SVG Export Plug-In . SVG Version: 6.00 Build 0)  -->
<svg version="1.1" id="Layer_1" xmlns="http://www.w3.org/2000/svg" xmlns:xlink="http://www.w3.org/1999/xlink" x="0px" y="0px"
	 width="71px" height="19px" viewBox="0 0 71 19" style="enable-background:new 0 0 71 19;" xml:space="preserve">
<style type="text/css">
	.st0{fill:#666666;}
	.st1{fill:#CCCCCC;}
	.st2{fill:#005DA6;}
</style>
<g>
	<path class="st0" d="M26,14.1v-10h16v6l2-2v-6H33.5l-1.9-2l0,0l0,0l0,0H24v16h12l2-2H26z M25.9,2.1h4.9l0.9,1h-5.8V2.1z"/>
	<polygon class="st0" points="46.8,14.1 44,14.1 44,11.2 42,11.2 42,14.1 39.1,14.1 39.1,16.1 42,16.1 42,18.9 44,18.9 44,16.1 
		46.8,16.1 	"/>
</g>
<g>
	<path class="st1" d="M2,14.1v-10h16v6l2-2v-6H9.5l-1.9-2l0,0l0,0l0,0H0v16h12l2-2H2z M1.9,2.1h4.9l0.9,1H1.9V2.1z"/>
	<polygon class="st1" points="22.8,14.1 20,14.1 20,11.2 18,11.2 18,14.1 15.1,14.1 15.1,16.1 18,16.1 18,18.9 20,18.9 20,16.1 
		22.8,16.1 	"/>
</g>
<g>
	<path class="st2" d="M50.2,14.1v-10h16v6l2-2v-6H57.7l-1.9-2l0,0l0,0l0,0h-7.6v16h12l2-2H50.2z M50.1,2.1H55l0.9,1h-5.8
		C50.1,3.1,50.1,2.1,50.1,2.1z"/>
	<polygon class="st2" points="71,14.1 68.1,14.1 68.1,11.2 66.1,11.2 66.1,14.1 63.3,14.1 63.3,16.1 66.1,16.1 66.1,18.9 68.1,18.9 
		68.1,16.1 71,16.1 	"/>
</g>
</svg>
