<?xml version="1.0" encoding="utf-8"?>
<!-- Generator: Adobe Illustrator 20.1.0, SVG Export Plug-In . SVG Version: 6.00 Build 0)  -->
<svg version="1.1" id="Layer_1" xmlns="http://www.w3.org/2000/svg" xmlns:xlink="http://www.w3.org/1999/xlink" x="0px" y="0px"
	 width="44px" height="14px" viewBox="0 0 44 14" style="enable-background:new 0 0 44 14;" xml:space="preserve">
<style type="text/css">
	.st0{fill:#666666;}
	.st1{fill:#EA102A;}
	.st2{fill:#CCCCCC;}
</style>
<g>
	<polygon class="st0" points="29,12.6 23.4,7 29,1.4 27.6,0 22,5.6 16.4,0 15,1.4 20.6,7 15,12.6 16.4,14 22,8.4 27.6,14 	"/>
</g>
<g>
	<polygon class="st1" points="44,12.6 38.4,7 44,1.4 42.6,0 37,5.6 31.4,0 30,1.4 35.6,7 30,12.6 31.4,14 37,8.4 42.6,14 	"/>
</g>
<g>
	<polygon class="st2" points="14,12.6 8.4,7 14,1.4 12.6,0 7,5.6 1.4,0 0,1.4 5.6,7 0,12.6 1.4,14 7,8.4 12.6,14 	"/>
</g>
</svg>
