<?xml version="1.0" encoding="utf-8"?>
<!-- Generator: Adobe Illustrator 20.1.0, SVG Export Plug-In . SVG Version: 6.00 Build 0)  -->
<svg version="1.1" id="Layer_1" xmlns="http://www.w3.org/2000/svg" xmlns:xlink="http://www.w3.org/1999/xlink" x="0px" y="0px"
	 width="33px" height="15px" viewBox="0 0 33 15" style="enable-background:new 0 0 33 15;" xml:space="preserve">
<style type="text/css">
	.st0{fill:#666666;}
	.st1{fill:#FFFFFF;}
</style>
<g>
	<path class="st0" d="M8,4.3L2.5,9c0,0,0,0,0,0c0,0,0,0,0,0V15h0.6h3.7v-4.3h2.4V15h3.7h0.6V9.1c0,0,0,0,0-0.1L8,4.3z"/>
	<polygon class="st0" points="13.6,4.9 13.6,0 11.6,0 11.6,3.2 8,0 0,7.1 1.3,8.6 8,2.7 14.7,8.6 16,7.1 	"/>
</g>
<g>
	<path class="st1" d="M25,4.3L19.5,9c0,0,0,0,0,0c0,0,0,0,0,0V15h0.6h3.7v-4.3h2.4V15h3.7h0.6V9.1c0,0,0,0,0-0.1L25,4.3z"/>
	<polygon class="st1" points="30.6,4.9 30.6,0 28.6,0 28.6,3.2 25,0 17,7.1 18.3,8.6 25,2.7 31.7,8.6 33,7.1 	"/>
</g>
</svg>
