<?xml version="1.0" encoding="utf-8"?>
<!-- Generator: Adobe Illustrator 22.0.1, SVG Export Plug-In . SVG Version: 6.00 Build 0)  -->
<svg version="1.1" id="Layer_1" xmlns="http://www.w3.org/2000/svg" xmlns:xlink="http://www.w3.org/1999/xlink" x="0px" y="0px"
	 viewBox="0 0 36.4 16.5" style="enable-background:new 0 0 36.4 16.5;" xml:space="preserve">
<style type="text/css">
	.st0{fill:#666666;}
	.st1{fill:#FFFFFF;}
</style>
<path class="st0" d="M17.3,8.4l-3.4-3.2v-4h-2v2l-3.2-3L0,8.4l1.4,1.5l0.8-0.8v7.1h13V9.1l0.7,0.7L17.3,8.4z M13.2,14.2h-3V8.9h-3
	v5.4h-3v-7l4.5-4.2l4.5,4.2V14.2z"/>
<path class="st1" d="M36.3,8.4l-3.4-3.2v-4h-2v2l-3.2-3L19,8.4l1.4,1.5l0.8-0.8v7.1h13V9.1l0.7,0.7L36.3,8.4z M32.2,14.2h-3V8.9h-3
	v5.4h-3v-7l4.5-4.2l4.5,4.2V14.2z"/>
</svg>
