<?xml version="1.0" encoding="utf-8"?>
<!-- Generator: Adobe Illustrator 20.1.0, SVG Export Plug-In . SVG Version: 6.00 Build 0)  -->
<svg version="1.1" id="Layer_1" xmlns="http://www.w3.org/2000/svg" xmlns:xlink="http://www.w3.org/1999/xlink" x="0px" y="0px"
	 width="31px" height="15px" viewBox="0 0 31 15" style="enable-background:new 0 0 31 15;" xml:space="preserve">
<style type="text/css">
	.st0{fill:#FF9C04;}
	.st1{fill:#FFFFFF;}
</style>
<g>
	<g>
		<polygon class="st0" points="6.5,5 4.8,5 4.8,3 1.2,6.5 0,5.3 3.5,1.8 1.6,1.8 1.6,0 6.5,0 		"/>
	</g>
	<g>
		<polygon class="st0" points="5,8.5 5,10.2 3,10.2 6.5,13.8 5.3,15 1.8,11.5 1.8,13.4 0,13.4 0,8.5 		"/>
	</g>
	<polygon class="st0" points="15,1.6 13.2,1.6 13.2,3.5 9.7,0 8.5,1.2 12,4.8 10,4.8 10,6.5 15,6.5 	"/>
	<g>
		<polygon class="st0" points="13.4,15 13.4,13.2 11.5,13.2 15,9.7 13.8,8.5 10.2,12 10.2,10 8.5,10 8.5,15 		"/>
	</g>
</g>
<g>
	<g>
		<polygon class="st1" points="22.5,5 20.8,5 20.8,3 17.2,6.5 16,5.3 19.5,1.8 17.6,1.8 17.6,0 22.5,0 		"/>
	</g>
	<g>
		<polygon class="st1" points="21,8.5 21,10.2 19,10.2 22.5,13.8 21.3,15 17.8,11.5 17.8,13.4 16,13.4 16,8.5 		"/>
	</g>
	<polygon class="st1" points="31,1.6 29.2,1.6 29.2,3.5 25.7,0 24.5,1.2 28,4.8 26,4.8 26,6.5 31,6.5 	"/>
	<g>
		<polygon class="st1" points="29.4,15 29.4,13.2 27.5,13.2 31,9.7 29.8,8.5 26.2,12 26.2,10 24.5,10 24.5,15 		"/>
	</g>
</g>
</svg>
