<?xml version="1.0" encoding="utf-8"?>
<!-- Generator: Adobe Illustrator 22.0.1, SVG Export Plug-In . SVG Version: 6.00 Build 0)  -->
<svg version="1.1" id="Layer_1" xmlns="http://www.w3.org/2000/svg" xmlns:xlink="http://www.w3.org/1999/xlink" x="0px" y="0px"
	 viewBox="0 0 38.1 16.5" style="enable-background:new 0 0 38.1 16.5;" xml:space="preserve">
<style type="text/css">
	.st0{fill:#666666;}
	.st1{fill:#FFFFFF;}
</style>
<path class="st0" d="M15.5,7.6c0.3-1,0.5-2,0.5-3.1c0-2.4-1.9-4.4-4.2-4.4c-1.4,0-2.6,0.7-3.4,1.8C7.9,1.8,7.5,1.7,7.1,1.7
	c-2.5,0-4.5,2.1-4.5,4.6c0,1.2,0.2,2.3,0.6,3.4c-2,0.8-3.2,2.2-3.2,3.9v2.8h14.1V14h4.3v-2.7C18.5,9.7,17.4,8.4,15.5,7.6z M11.5,6.3
	C11.5,5,11,3.8,10,2.9c0.5-0.5,1.1-0.8,1.8-0.8C13,2.1,14,3.2,14,4.5c0,2-0.7,3.3-1,3.9c0,0.1-0.1,0.1-0.1,0.2l-0.1,0.1L14,9.2
	c1.2,0.4,2.4,1.1,2.4,2.1V12h-2.7c-0.5-1-1.5-1.7-2.8-2.3C11.3,8.6,11.5,7.5,11.5,6.3z M5.8,10.8l-0.1-0.1c-0.1-0.1-0.2-0.3-0.3-0.6
	c-0.3-0.8-0.8-2-0.8-3.8c0-1.4,1.1-2.6,2.5-2.6c0.2,0,0.4,0,0.6,0.1C8.4,4,8.9,4.4,9.3,5.1l0,0c0.2,0.4,0.3,0.8,0.3,1.2
	c0,0.2,0,0.3,0,0.5c0,0.8-0.2,1.6-0.5,2.3c-0.2,0.6-0.5,1.1-0.6,1.4c0,0.1-0.1,0.2-0.1,0.2l-0.1,0.1l1.2,0.4
	c0.7,0.2,1.4,0.5,1.8,0.9c0.5,0.4,0.8,0.9,0.8,1.4v0.8H2v-0.8c0-1.4,2-2.1,2.6-2.3L5.8,10.8z"/>
<path class="st1" d="M35.3,7.6c0.3-1,0.5-2,0.5-3.1c0-2.4-1.9-4.4-4.3-4.4c-1.4,0-2.6,0.7-3.4,1.8c-0.4-0.1-0.9-0.2-1.3-0.2
	c-2.5,0-4.5,2.1-4.5,4.6c0,1.2,0.2,2.3,0.6,3.4c-2,0.8-3.2,2.2-3.2,3.9v2.8h14.1V14h4.3v-2.7C38.2,9.7,37.2,8.4,35.3,7.6z M31.3,6.3
	c0-1.3-0.5-2.5-1.5-3.4c0.5-0.5,1.1-0.8,1.7-0.8c1.3,0,2.3,1.1,2.3,2.4c0,2-0.7,3.3-1,3.9c0,0.1-0.1,0.1-0.1,0.2l-0.1,0.1l1.2,0.4
	c1.2,0.4,2.4,1.1,2.4,2.1v0.7h-2.7c-0.5-1-1.5-1.7-2.8-2.3C31.1,8.6,31.3,7.5,31.3,6.3z M25.6,10.8l-0.1-0.1
	c-0.1-0.1-0.2-0.3-0.3-0.6c-0.4-0.8-0.9-2-0.9-3.8c0-1.4,1.1-2.6,2.5-2.6c0.2,0,0.4,0,0.6,0.1C28.1,4,28.6,4.4,29,5.1l0,0
	c0.2,0.4,0.3,0.8,0.3,1.2c0,0.2,0,0.3,0,0.5c0,0.8-0.2,1.6-0.5,2.3c-0.2,0.6-0.5,1.1-0.6,1.4c0,0.1-0.1,0.2-0.1,0.2L28,10.8l1.2,0.4
	c0.7,0.2,1.4,0.5,1.8,0.9c0.5,0.4,0.8,0.9,0.8,1.4v0.8h-10v-0.8c0-1.4,2-2.1,2.6-2.3L25.6,10.8z"/>
</svg>
