<?xml version="1.0" encoding="utf-8"?>
<!-- Generator: Adobe Illustrator 20.1.0, SVG Export Plug-In . SVG Version: 6.00 Build 0)  -->
<svg version="1.1" id="Layer_1" xmlns="http://www.w3.org/2000/svg" xmlns:xlink="http://www.w3.org/1999/xlink" x="0px" y="0px"
	 width="31px" height="15px" viewBox="0 0 31 15" style="enable-background:new 0 0 31 15;" xml:space="preserve">
<style type="text/css">
	.st0{fill:#0CB20F;}
	.st1{fill:#FFFFFF;}
</style>
<g>
	<g>
		<polygon class="st0" points="1.6,6.5 1.6,4.8 3.5,4.8 0,1.2 1.2,0 4.8,3.5 4.8,1.6 6.5,1.6 6.5,6.5 		"/>
	</g>
	<g>
		<polygon class="st0" points="6.5,13.4 4.8,13.4 4.8,11.5 1.2,15 0,13.8 3.5,10.2 1.6,10.2 1.6,8.5 6.5,8.5 		"/>
	</g>
	<g>
		<g>
			<polygon class="st0" points="13.4,6.5 13.4,4.8 11.5,4.8 15,1.2 13.8,0 10.2,3.5 10.2,1.6 8.5,1.6 8.5,6.5 			"/>
		</g>
		<g>
			<polygon class="st0" points="8.5,13.4 10.2,13.4 10.2,11.5 13.8,15 15,13.8 11.5,10.2 13.4,10.2 13.4,8.5 8.5,8.5 			"/>
		</g>
	</g>
</g>
<g>
	<g>
		<polygon class="st1" points="17.6,6.5 17.6,4.8 19.5,4.8 16,1.2 17.2,0 20.8,3.5 20.8,1.6 22.5,1.6 22.5,6.5 		"/>
	</g>
	<g>
		<polygon class="st1" points="22.5,13.4 20.8,13.4 20.8,11.5 17.2,15 16,13.8 19.5,10.2 17.6,10.2 17.6,8.5 22.5,8.5 		"/>
	</g>
	<g>
		<g>
			<polygon class="st1" points="29.4,6.5 29.4,4.8 27.5,4.8 31,1.2 29.8,0 26.2,3.5 26.2,1.6 24.5,1.6 24.5,6.5 			"/>
		</g>
		<g>
			<polygon class="st1" points="24.5,13.4 26.2,13.4 26.2,11.5 29.8,15 31,13.8 27.5,10.2 29.4,10.2 29.4,8.5 24.5,8.5 			"/>
		</g>
	</g>
</g>
</svg>
