<?xml version="1.0" encoding="utf-8"?>
<!-- Generator: Adobe Illustrator 17.0.0, SVG Export Plug-In . SVG Version: 6.00 Build 0)  -->
<!DOCTYPE svg PUBLIC "-//W3C//DTD SVG 1.1//EN" "http://www.w3.org/Graphics/SVG/1.1/DTD/svg11.dtd">
<svg version="1.1" id="Layer_1" xmlns="http://www.w3.org/2000/svg" xmlns:xlink="http://www.w3.org/1999/xlink" x="0px" y="0px"
	 width="42px" height="42px" viewBox="0 0 42 42" enable-background="new 0 0 42 42" xml:space="preserve">
<g>
	<polygon fill="#FFFFFF" points="601.448,195.795 590.179,184.49 590.179,199.449 612.719,199.449 612.719,184.559 	"/>
	<polygon fill="#FFFFFF" points="612.204,183.943 590.762,183.943 601.45,194.664 	"/>
	<path fill="#3D6480" d="M588.479,182.243v18.906h25.94v-18.906H588.479z M590.179,199.449V184.49l11.269,11.305l11.271-11.236
		v14.889H590.179z M612.204,183.943l-10.755,10.721l-10.688-10.721H612.204z"/>
</g>
<g>
	<polygon fill="#FFFFFF" points="601.448,195.795 590.179,184.49 590.179,199.449 612.719,199.449 612.719,184.559 	"/>
	<polygon fill="#FFFFFF" points="612.204,183.943 590.762,183.943 601.45,194.664 	"/>
	<path fill="#3D6480" d="M588.479,182.243v18.906h25.94v-18.906H588.479z M590.179,199.449V184.49l11.269,11.305l11.271-11.236
		v14.889H590.179z M612.204,183.943l-10.755,10.721l-10.688-10.721H612.204z"/>
</g>
<g>
	<polygon fill="#FFFFFF" points="601.448,195.795 590.179,184.49 590.179,199.449 612.719,199.449 612.719,184.559 	"/>
	<polygon fill="#FFFFFF" points="612.204,183.943 590.762,183.943 601.45,194.664 	"/>
	<path fill="#3D6480" d="M588.479,182.243v18.906h25.94v-18.906H588.479z M590.179,199.449V184.49l11.269,11.305l11.271-11.236
		v14.889H590.179z M612.204,183.943l-10.755,10.721l-10.688-10.721H612.204z"/>
</g>
<path fill-rule="evenodd" clip-rule="evenodd" fill="none" stroke="#3D6480" stroke-miterlimit="3.8637" d="M580.469,173.692
	c0-1.656,1.344-3,3-3h36c1.656,0,3,1.344,3,3v36c0,1.657-1.344,3-3,3h-36c-1.656,0-3-1.343-3-3V173.692z"/>
<g>
	<polygon fill="#FFFFFF" points="601.448,195.795 590.179,184.49 590.179,199.449 612.719,199.449 612.719,184.559 	"/>
	<polygon fill="#FFFFFF" points="612.204,183.943 590.762,183.943 601.45,194.664 	"/>
	<path fill="#3D6480" d="M588.479,182.243v18.906h25.94v-18.906H588.479z M590.179,199.449V184.49l11.269,11.305l11.271-11.236
		v14.889H590.179z M612.204,183.943l-10.755,10.721l-10.688-10.721H612.204z"/>
</g>
<g>
	<polygon fill="#0CB20F" points="37.929,29.326 31.007,36.249 28.675,33.917 27.332,35.261 31.007,38.935 39.273,30.67 	"/>
	<polygon fill="#EFF9FE" points="29.003,18.86 29.003,10.447 13.496,10.447 13.496,18.608 21.351,26.487 	"/>
	<polygon fill="#FFFFFF" points="32.62,16.383 21.349,27.619 10.08,16.314 10.08,31.272 25.292,31.272 32.62,23.945 	"/>
	<path fill="#3D6480" d="M10.08,16.314l11.269,11.305L32.62,16.383v7.562l1.7-1.7v-7.328v-0.6h-3.617l0-5.569H11.796v5.569H8.38v0.6
		v18.056h15.212l1.7-1.7H10.08V16.314z M13.496,10.447h15.507l0,8.413l-7.651,7.627l-7.855-7.879V10.447z"/>
</g>
</svg>
