<?xml version="1.0" encoding="utf-8"?>
<!-- Generator: Adobe Illustrator 18.0.0, SVG Export Plug-In . SVG Version: 6.00 Build 0)  -->
<!DOCTYPE svg PUBLIC "-//W3C//DTD SVG 1.1//EN" "http://www.w3.org/Graphics/SVG/1.1/DTD/svg11.dtd">
<svg version="1.1" id="Layer_1" xmlns="http://www.w3.org/2000/svg" xmlns:xlink="http://www.w3.org/1999/xlink" x="0px" y="0px"
	 viewBox="0 0 42 42" enable-background="new 0 0 42 42" xml:space="preserve">
<g>
	<polygon fill="#FFEBCD" points="32.2,26.1 31.8,26.1 31.8,26.4 	"/>
	<polygon fill="#FFEBCD" points="30.8,26.1 30.4,26.1 30.8,26.4 	"/>
	<polygon fill="#FFEBCD" points="26,27.8 31.3,30.5 36.7,27.7 34,26.6 34.2,26.1 33.6,26.1 31.3,28.4 28.9,26.1 28.4,26.3 
		28.5,26.7 	"/>
	<polygon fill="#FFEBCD" points="25.3,32.1 25.3,35.1 31,38 31,32.1 29.5,34.2 	"/>
	<polygon fill="#FFEBCD" points="31.4,31.8 31.4,38.1 37.4,35.1 37.4,31.8 33,34.2 	"/>
	<polygon fill="#FFEBCD" points="30.6,31.1 25,28.3 23.6,30.1 29.2,33 	"/>
	<polygon fill="#FFEBCD" points="37.7,28.2 32.1,31.1 33.3,32.9 38.8,29.9 	"/>
	<path fill="#3D6480" d="M38.3,27.5L38.3,27.5L38.3,27.5l-4-1.8l0,0l-0.1,0.3L34,26.6l2.7,1.1l-5.3,2.7L26,27.8l2.6-1.1l-0.2-0.4
		l-0.2-0.4l0-0.1l-3.8,1.6v0.2l0,0l-2.2,2.8l2.2,1.2v4.1l7,3.5l7-3.5v-4.4l1.9-1L38.3,27.5z M23.6,30.1l1.4-1.8l5.6,2.8L29.2,33
		L23.6,30.1z M31,38l-5.7-2.9v-3l4.1,2.2l1.5-2.1V38z M37.4,35.1l-5.9,3v-6.3l1.6,2.4l4.3-2.4V35.1z M33.3,32.9l-1.2-1.8l5.6-2.9
		l1.1,1.7L33.3,32.9z"/>
	<path fill="#0CB20F" d="M33.6,26.1l0.4-0.4l0.1-0.1l-0.7-0.7L33,25.2l-0.8,0.8l-0.4,0.4v-0.4v-1.3v-0.1c0-0.3,0-0.6,0-0.8
		c0-0.1,0-0.2,0-0.3c-0.3-2-1.5-2.9-3.8-2.9v1c1.8,0,2.6,0.5,2.8,2c0,0.1,0,0.2,0,0.3c0,0.1,0,0.2,0,0.3c0,0.1,0,0.2,0,0.4v0.1v1.2
		v0.4l-0.4-0.4l-0.8-0.8l-0.5-0.5l-0.7,0.7l0.2,0.2l0.3,0.3l2.4,2.4L33.6,26.1z"/>
	<path fill="#FDE7EA" d="M25,23.8l0-13.6h-4.3V6H7.3v24.4l11.1,0l7.3-7.3L25,23.8z M19.9,23.7L19,21.2h-4.5l-0.9,2.6h-1.4l3.6-10.7
		h1.9l3.6,10.7H19.9z"/>
	<polygon fill="#FDE7EA" points="14.9,20 18.7,20 16.8,14 	"/>
	<polygon fill="#FDE7EA" points="17.9,30.9 18.3,30.5 17.9,30.9 	"/>
	<polygon fill="#3D6480" points="7.3,6 20.7,6 20.7,10.2 25,10.2 25,23.8 25.7,23.1 26.7,22.1 26.7,10.2 24.9,8.5 22.4,8.5 22.4,6 
		20.7,4.3 5.6,4.3 5.6,32.1 16.7,32.1 17.9,30.9 18.3,30.5 18.4,30.4 7.3,30.4 	"/>
	<path fill="#3D6480" d="M15.8,13.1l-3.6,10.7h1.4l0.9-2.6H19l0.9,2.6h1.4l-3.6-10.7H15.8z M14.9,20l1.9-5.9l1.9,5.9H14.9z"/>
</g>
</svg>
