<?xml version="1.0" encoding="utf-8"?>
<!-- Generator: Adobe Illustrator 17.0.0, SVG Export Plug-In . SVG Version: 6.00 Build 0)  -->
<!DOCTYPE svg PUBLIC "-//W3C//DTD SVG 1.1//EN" "http://www.w3.org/Graphics/SVG/1.1/DTD/svg11.dtd">
<svg version="1.1" id="Layer_1" xmlns="http://www.w3.org/2000/svg" xmlns:xlink="http://www.w3.org/1999/xlink" x="0px" y="0px"
	 width="42px" height="42px" viewBox="0 0 42 42" enable-background="new 0 0 42 42" xml:space="preserve">
<g>
	<path fill="none" d="M21,9.35C14.576,9.35,9.35,14.576,9.35,21S14.576,32.65,21,32.65S32.65,27.424,32.65,21S27.424,9.35,21,9.35z
		 M21.85,27.684H20.15V14.316h1.699V27.684z"/>
	<path fill="#EC0800" d="M21,7.65C13.639,7.65,7.65,13.639,7.65,21S13.639,34.35,21,34.35S34.35,28.361,34.35,21
		S28.361,7.65,21,7.65z M21,32.65c-6.424,0-11.65-5.227-11.65-11.65S14.576,9.35,21,9.35S32.65,14.576,32.65,21
		S27.424,32.65,21,32.65z"/>
	<rect x="20.15" y="14.316" fill="#EC0800" width="1.699" height="13.367"/>
</g>
</svg>
