<?xml version="1.0" encoding="utf-8"?>
<!-- Generator: Adobe Illustrator 17.0.0, SVG Export Plug-In . SVG Version: 6.00 Build 0)  -->
<!DOCTYPE svg PUBLIC "-//W3C//DTD SVG 1.1//EN" "http://www.w3.org/Graphics/SVG/1.1/DTD/svg11.dtd">
<svg version="1.1" id="Layer_1" xmlns="http://www.w3.org/2000/svg" xmlns:xlink="http://www.w3.org/1999/xlink" x="0px" y="0px"
	 width="42px" height="42px" viewBox="0 0 42 42" enable-background="new 0 0 42 42" xml:space="preserve">
<g>
	<path fill="#DBF3DB" d="M25.53,13.348V9.09H12.152V33.5h17.694l-0.058-20.152H25.53z M17.315,23.996l-1.287-2.009l-1.279,2.009
		h-0.973l1.75-2.739l-1.695-2.661h0.973l1.225,1.931l1.232-1.931h0.974l-1.704,2.661l1.759,2.739H17.315z M23.2,23.996l-0.09-3.75
		l-1.154,3.08h-1.053l-1.153-3.08l-0.091,3.75h-0.863l0.188-5.4h1.027l1.42,3.807l1.418-3.807h1.028l0.187,5.4H23.2z M28.224,23.996
		h-3.135v-5.4h0.886v4.584h2.249V23.996z"/>
	<path fill="#3D6480" d="M29.778,11.649H27.23V9.101l-1.709-1.709H10.452V35.2h21.099l-0.063-21.841L29.778,11.649z M12.152,33.5
		V9.09H25.53v4.258h4.258L29.846,33.5H12.152z"/>
	<polygon fill="#3D6480" points="18.234,18.595 17.261,18.595 16.028,20.526 14.804,18.595 13.831,18.595 15.526,21.256 
		13.776,23.996 14.749,23.996 16.028,21.987 17.315,23.996 18.289,23.996 16.53,21.256 	"/>
	<polygon fill="#3D6480" points="22.849,18.595 21.431,22.402 20.011,18.595 18.983,18.595 18.796,23.996 19.659,23.996 
		19.75,20.246 20.903,23.326 21.956,23.326 23.11,20.246 23.2,23.996 24.064,23.996 23.877,18.595 	"/>
	<polygon fill="#3D6480" points="25.975,18.595 25.089,18.595 25.089,23.996 28.224,23.996 28.224,23.179 25.975,23.179 	"/>
</g>
</svg>
