<?xml version="1.0" encoding="utf-8"?>
<!-- Generator: Adobe Illustrator 17.0.0, SVG Export Plug-In . SVG Version: 6.00 Build 0)  -->
<!DOCTYPE svg PUBLIC "-//W3C//DTD SVG 1.1//EN" "http://www.w3.org/Graphics/SVG/1.1/DTD/svg11.dtd">
<svg version="1.1" id="Layer_1" xmlns="http://www.w3.org/2000/svg" xmlns:xlink="http://www.w3.org/1999/xlink" x="0px" y="0px"
	 width="42px" height="42px" viewBox="0 0 42 42" enable-background="new 0 0 42 42" xml:space="preserve">
<g>
	<polygon fill="#3D6480" points="31.779,10.353 29.231,10.353 29.231,7.806 27.52,6.095 12.452,6.095 12.452,28.134 14.152,28.134 
		14.152,7.795 27.531,7.795 27.531,12.053 31.788,12.053 31.846,32.205 23.973,32.205 23.973,33.905 33.551,33.905 33.488,12.063 	
		"/>
	<rect x="17.049" y="16.217" fill="#3D6480" width="11.902" height="0.8"/>
	<rect x="17.049" y="19.6" fill="#3D6480" width="11.902" height="0.8"/>
	<rect x="17.049" y="22.983" fill="#3D6480" width="3.201" height="0.8"/>
	<path fill="#EFF9FE" d="M31.846,32.205l-0.058-20.151h-4.257V7.795H14.152v20.338h-1.7h-0.006v1.203h9.218v4.569h2.31v-0.001v-1.7
		H31.846z M17.049,16.217h11.902v0.8H17.049V16.217z M20.25,23.783h-3.201v-0.8h3.201V23.783z M17.049,20.4v-0.8h11.902v0.8H17.049z
		"/>
	<path fill="#EFF9FE" d="M7.25,35.75h13.413v-5.413H7.25V35.75z M8.656,32.643h10.601v0.8H8.656V32.643z"/>
	<path fill="#3D6480" d="M12.445,29.337H6.25v7.413h15.413v-2.844v-4.569H12.445z M20.663,35.75H7.25v-5.413h13.413V35.75z"/>
	<rect x="8.656" y="32.643" fill="#3D6480" width="10.601" height="0.8"/>
</g>
</svg>
