<?xml version="1.0" encoding="utf-8"?>
<!-- Generator: Adobe Illustrator 18.0.0, SVG Export Plug-In . SVG Version: 6.00 Build 0)  -->
<!DOCTYPE svg PUBLIC "-//W3C//DTD SVG 1.1//EN" "http://www.w3.org/Graphics/SVG/1.1/DTD/svg11.dtd">
<svg version="1.1" id="Layer_1" xmlns="http://www.w3.org/2000/svg" xmlns:xlink="http://www.w3.org/1999/xlink" x="0px" y="0px"
	 viewBox="0 0 42 42" enable-background="new 0 0 42 42" xml:space="preserve">
<g>
	<rect x="5.6" y="6.2" fill="#EFF9FE" width="15.5" height="4.2"/>
	<path fill="#3D6480" d="M4.1,4.7v7.2h18.5V4.7H4.1z M21.2,10.4H5.6V6.2h15.5V10.4z"/>
	<rect x="5.6" y="16.2" fill="#EFF9FE" width="15.5" height="4.2"/>
	<path fill="#3D6480" d="M4.1,14.7v7.2h18.5v-7.2H4.1z M21.2,20.4H5.6v-4.2h15.5V20.4z"/>
	<path fill="#3D6480" d="M22.4,26.8"/>
	<path fill="#3D6480" d="M28,21.3h-6.1v6.1l9.9,9.9l6.1-6.1L28,21.3z M22.9,22.4h4.6l8.8,8.8l-4.6,4.6L22.9,27V22.4z"/>
	<circle fill="#FFFFFF" cx="26" cy="25.1" r="1"/>
	<circle fill="none" cx="26" cy="25.1" r="1"/>
	<path fill="#EEF8FD" d="M27.5,22.4h-4.6V27l8.8,8.8l4.6-4.6L27.5,22.4z M26,27.1c-1.1,0-2-0.9-2-2s0.9-2,2-2c1.1,0,2,0.9,2,2
		S27.1,27.1,26,27.1z"/>
	<path fill="#3D6480" d="M26,23.1c-1.1,0-2,0.9-2,2s0.9,2,2,2c1.1,0,2-0.9,2-2S27.1,23.1,26,23.1z M26,26c-0.5,0-1-0.4-1-1
		s0.4-1,1-1c0.5,0,1,0.4,1,1S26.5,26,26,26z"/>
	<path fill="#3D6480" d="M4.1,4.7v7.2h18.5V4.7H4.1z M21.2,10.4H5.6V6.2h15.5V10.4z"/>
	<rect x="5.6" y="16.2" fill="#EFF9FE" width="15.5" height="4.2"/>
	<path fill="#3D6480" d="M4.1,14.7v7.2h18.5v-7.2H4.1z M21.2,20.4H5.6v-4.2h15.5V20.4z"/>
	<path fill="#3D6480" d="M22.4,26.8"/>
	<path fill="#3D6480" d="M28,21.3h-6.1v6.1l9.9,9.9l6.1-6.1L28,21.3z M22.9,22.4h4.6l8.8,8.8l-4.6,4.6L22.9,27V22.4z"/>
	<circle fill="#FFFFFF" cx="26" cy="25.1" r="1"/>
	<circle fill="none" cx="26" cy="25.1" r="1"/>
	<path fill="#EEF8FD" d="M27.5,22.4h-4.6V27l8.8,8.8l4.6-4.6L27.5,22.4z M26,27.1c-1.1,0-2-0.9-2-2s0.9-2,2-2c1.1,0,2,0.9,2,2
		S27.1,27.1,26,27.1z"/>
	<path fill="#3D6480" d="M26,23.1c-1.1,0-2,0.9-2,2s0.9,2,2,2c1.1,0,2-0.9,2-2S27.1,23.1,26,23.1z M26,26c-0.5,0-1-0.4-1-1
		s0.4-1,1-1c0.5,0,1,0.4,1,1S26.5,26,26,26z"/>
</g>
</svg>
