<?xml version="1.0" encoding="utf-8"?>
<!-- Generator: Adobe Illustrator 17.0.0, SVG Export Plug-In . SVG Version: 6.00 Build 0)  -->
<!DOCTYPE svg PUBLIC "-//W3C//DTD SVG 1.1//EN" "http://www.w3.org/Graphics/SVG/1.1/DTD/svg11.dtd">
<svg version="1.1" id="Layer_1" xmlns="http://www.w3.org/2000/svg" xmlns:xlink="http://www.w3.org/1999/xlink" x="0px" y="0px"
	 width="42px" height="42px" viewBox="0 0 42 42" enable-background="new 0 0 42 42" xml:space="preserve">
<g>
	<rect x="5.229" y="11.316" fill="none" width="3.726" height="1.932"/>
	<rect x="14.029" y="16.814" fill="none" width="1.932" height="15.737"/>
	<rect x="21.034" y="11.316" fill="none" width="15.737" height="1.932"/>
	<path fill="#3D6480" d="M21.034,9.617V7.75H8.955v1.867H3.529v5.33h5.426v1.867h3.375v17.437h5.33V16.814h3.374v-1.867h17.437
		v-5.33H21.034z M8.955,13.248H5.229v-1.932h3.726V13.248z M15.961,32.552h-1.932V16.814h1.932V32.552z M19.335,15.115h-8.681V9.449
		h8.681V15.115z M36.771,13.248H21.034v-1.932h15.737V13.248z"/>
	<rect x="10.654" y="9.449" fill="#FFFFFF" width="8.681" height="5.666"/>
</g>
</svg>
