<?xml version="1.0" encoding="utf-8"?>
<!-- Generator: Adobe Illustrator 17.0.0, SVG Export Plug-In . SVG Version: 6.00 Build 0)  -->
<!DOCTYPE svg PUBLIC "-//W3C//DTD SVG 1.1//EN" "http://www.w3.org/Graphics/SVG/1.1/DTD/svg11.dtd">
<svg version="1.1" id="Layer_1" xmlns="http://www.w3.org/2000/svg" xmlns:xlink="http://www.w3.org/1999/xlink" x="0px" y="0px"
	 width="42px" height="42px" viewBox="0 0 42 42" enable-background="new 0 0 42 42" xml:space="preserve">
<g>
	<rect x="7.943" y="14.803" fill="none" width="11.396" height="5.824"/>
	<rect x="7.943" y="8.617" fill="none" width="11.396" height="5.385"/>
	<rect x="7.943" y="21.428" fill="none" width="11.396" height="5.708"/>
	<rect x="7.943" y="27.936" fill="none" width="11.396" height="5.131"/>
	<polygon fill="none" points="29.772,30.818 29.772,36.138 35.477,33.481 	"/>
	<polygon fill="#3D6480" points="33.224,14.678 32.376,13.83 29.413,16.792 29.413,7.205 28.214,7.205 28.214,16.848 25.255,13.834 
		24.399,14.674 28.772,19.13 	"/>
	<path fill="#3D6480" d="M6.244,34.767h14.795V6.918H6.244V34.767z M7.943,33.067v-5.131H19.34v5.131H7.943z M19.34,21.428v5.708
		H7.943v-5.708H19.34z M7.943,20.627v-5.824H19.34v5.824H7.943z M19.34,8.617v5.385H7.943V8.617H19.34z"/>
	<path fill="#0CB20F" d="M27.923,27.912V39.04l11.931-5.557L27.923,27.912z M29.772,30.818l5.704,2.663l-5.704,2.656V30.818z"/>
</g>
</svg>
