<?xml version="1.0" encoding="utf-8"?>
<!-- Generator: Adobe Illustrator 17.0.0, SVG Export Plug-In . SVG Version: 6.00 Build 0)  -->
<!DOCTYPE svg PUBLIC "-//W3C//DTD SVG 1.1//EN" "http://www.w3.org/Graphics/SVG/1.1/DTD/svg11.dtd">
<svg version="1.1" id="Layer_1" xmlns="http://www.w3.org/2000/svg" xmlns:xlink="http://www.w3.org/1999/xlink" x="0px" y="0px"
	 width="42px" height="42px" viewBox="0 0 42 42" enable-background="new 0 0 42 42" xml:space="preserve">
<g>
	<path fill="#3D6480" d="M37.443,33.716c0.02-0.374-0.003-0.754-0.071-1.138l1.308-0.956l-0.177-0.464
		c-0.078-0.205-0.171-0.4-0.268-0.596l-0.228-0.455l-1.553,0.355c-0.104-0.133-0.223-0.264-0.346-0.396
		c-0.142-0.151-0.278-0.287-0.433-0.421l0.383-1.557l-0.432-0.242c-0.198-0.11-0.397-0.209-0.604-0.298l-0.469-0.203l-0.952,1.265
		c-0.366-0.083-0.742-0.126-1.119-0.127l-0.711-1.435l-0.48,0.086c-0.219,0.039-0.439,0.085-0.653,0.147l-0.489,0.143l0.067,1.594
		c-0.317,0.163-0.627,0.373-0.926,0.626l-1.475-0.646l-0.312,0.384c-0.142,0.175-0.272,0.357-0.394,0.545l-0.276,0.425l1.079,1.163
		c-0.148,0.351-0.256,0.712-0.318,1.07l-1.549,0.458l0.005,0.491c0.002,0.221,0.016,0.439,0.041,0.658l0.059,0.508l1.591,0.197
		c0.111,0.37,0.261,0.718,0.447,1.04l-0.909,1.351l0.982,1.053l1.376-0.644l0.146-0.089c0.312,0.203,0.652,0.372,1.018,0.506
		l0.176,1.61l0.488,0.079c0.215,0.035,0.43,0.053,0.648,0.065l0.509,0.027l0.464-1.52c0.404-0.049,0.785-0.14,1.096-0.266
		l1.179,1.121l0.425-0.26c0.188-0.114,0.371-0.244,0.551-0.381l0.406-0.309l-0.625-1.438c0.253-0.272,0.473-0.572,0.667-0.91
		l1.602,0.098l0.162-0.465c0.074-0.211,0.138-0.426,0.19-0.643l0.12-0.502L37.443,33.716z M28.804,33.497c0-1.987,1.611-3.6,3.6-3.6
		s3.601,1.612,3.601,3.6c0,1.988-1.612,3.601-3.601,3.601S28.804,35.485,28.804,33.497z"/>
	<path fill="#EFF9FE" d="M18.839,9.675c-0.893-0.3-1.656-0.452-2.334-0.465c-1.997-0.038-4.009-0.043-5.884-0.043L7.85,9.168
		L7.002,9.167v17.275l4.578-0.002c1.339,0,2.677,0.001,4.015,0.008c0.624,0.003,1.307,0.047,2.087,0.137
		c0.832,0.095,1.591,0.307,2.298,0.641v-3.852c-0.002-3.982-0.003-7.965,0.004-11.947C19.985,10.507,19.611,9.935,18.839,9.675z
		 M17.748,23.215H9.217V22.14h8.531V23.215z M17.748,19.79H9.217v-1.074h8.531V19.79z M17.748,16.048H9.217v-1.074h8.531V16.048z
		 M17.748,12.624H9.217v-1.075h8.531V12.624z"/>
	<path fill="#EFF9FE" d="M32.468,9.171c-2.461,0.002-5.006,0.004-7.507,0.041c-0.556,0.008-1.193,0.129-1.951,0.37
		c-0.988,0.316-1.356,0.838-1.356,1.928l-0.001,15.724c0.017-0.006,0.032-0.012,0.048-0.018c0.569-0.204,1.157-0.414,1.766-0.538
		c0.917-0.189,1.855-0.22,2.57-0.227c1.266-0.01,2.532-0.012,3.799-0.012l4.786-4.786V9.173L32.468,9.171z M32.748,23.215h-8.531
		V22.14h8.531V23.215z M32.748,19.79h-8.531v-1.074h8.531V19.79z M32.748,16.048h-8.531v-1.074h8.531V16.048z M32.748,12.624h-8.531
		v-1.075h8.531V12.624z"/>
	<path fill="#3D6480" d="M28.757,27.517l1.078-1.078c-1.266,0-2.532,0.003-3.799,0.012c-0.715,0.007-1.653,0.037-2.57,0.227
		c-0.608,0.124-1.196,0.334-1.766,0.538c-0.016,0.006-0.031,0.012-0.048,0.018l0.001-15.724c0-1.09,0.368-1.611,1.356-1.928
		c0.758-0.241,1.396-0.362,1.951-0.37c2.501-0.037,5.046-0.039,7.507-0.041l2.153,0.002v12.479l1.075-1.075V8.661l-0.056-0.468
		l-0.45-0.074c-0.058-0.012-0.13-0.026-0.22-0.026l-2.504,0.003c-2.465,0.002-5.013,0.004-7.521,0.041
		c-0.662,0.009-1.402,0.147-2.263,0.422c-0.95,0.303-1.557,0.821-1.864,1.584c-0.292-0.706-0.846-1.221-1.637-1.487
		c-0.998-0.335-1.867-0.505-2.656-0.52c-2.007-0.039-4.023-0.044-5.904-0.044L7.85,8.093l-1.11-0.001
		c-0.093,0-0.186,0.015-0.282,0.033L5.928,8.206v19.312l5.652-0.002c1.336,0,2.673,0.001,4.01,0.008
		c0.585,0.003,1.229,0.045,1.97,0.13c0.998,0.113,1.87,0.42,2.663,0.939l0.832,0.543v-0.561l0.228-0.075
		c0.265-0.087,0.524-0.18,0.781-0.272c0.558-0.199,1.085-0.389,1.618-0.497c0.827-0.171,1.697-0.198,2.363-0.204
		C26.949,27.52,27.853,27.519,28.757,27.517z M19.979,23.374v3.852c-0.707-0.334-1.466-0.546-2.298-0.641
		c-0.78-0.09-1.463-0.134-2.087-0.137c-1.338-0.007-2.676-0.008-4.015-0.008l-4.578,0.002V9.167L7.85,9.168l2.771-0.001
		c1.875,0,3.887,0.005,5.884,0.043c0.678,0.013,1.441,0.165,2.334,0.465c0.772,0.26,1.146,0.832,1.145,1.752
		C19.977,15.409,19.978,19.392,19.979,23.374z"/>
	<rect x="9.217" y="11.549" fill="#3D6480" width="8.531" height="1.075"/>
	<rect x="9.217" y="14.974" fill="#3D6480" width="8.531" height="1.074"/>
	<rect x="9.217" y="18.716" fill="#3D6480" width="8.531" height="1.074"/>
	<rect x="9.217" y="22.14" fill="#3D6480" width="8.531" height="1.075"/>
	<rect x="24.217" y="11.549" fill="#3D6480" width="8.531" height="1.075"/>
	<rect x="24.217" y="14.974" fill="#3D6480" width="8.531" height="1.074"/>
	<rect x="24.217" y="18.716" fill="#3D6480" width="8.531" height="1.074"/>
	<rect x="24.217" y="22.14" fill="#3D6480" width="8.531" height="1.075"/>
</g>
</svg>
