<?xml version="1.0" encoding="utf-8"?>
<!-- Generator: Adobe Illustrator 17.0.0, SVG Export Plug-In . SVG Version: 6.00 Build 0)  -->
<!DOCTYPE svg PUBLIC "-//W3C//DTD SVG 1.1//EN" "http://www.w3.org/Graphics/SVG/1.1/DTD/svg11.dtd">
<svg version="1.1" id="Layer_1" xmlns="http://www.w3.org/2000/svg" xmlns:xlink="http://www.w3.org/1999/xlink" x="0px" y="0px"
	 width="42px" height="42px" viewBox="0 0 42 42" enable-background="new 0 0 42 42" xml:space="preserve">
<g>
	<path fill="none" d="M28.428,27.636c-0.127-0.161-0.281-0.297-0.463-0.298c-0.52-0.026-1.04-0.004-1.56-0.012
		c-0.219,0.003-0.505,0.02-0.624,0.312c-0.026,0.221-0.029,0.451,0.007,0.671c0.099,0.23,0.314,0.275,0.496,0.274
		c0.504,0.002,1.006-0.005,1.509,0.003c0.166-0.005,0.347,0.001,0.495-0.124C28.511,28.303,28.4,27.908,28.428,27.636z"/>
	<path fill="#3D6480" d="M39.235,12.77c-3.574-0.001-7.137,0.432-10.695,0.844c-0.438,0.064-0.885,0.065-1.31,0.237
		c-0.286,0.111-0.526,0.365-0.727,0.653c-0.263,0.373-0.392,0.867-0.595,1.296c-0.259,0.566-0.51,1.168-0.898,1.594
		c-0.302,0.357-0.729,0.177-1.091,0.221c-0.374-0.595-0.736-1.202-1.104-1.804c-1.252-0.004-2.505-0.001-3.757-0.002
		c-0.306,0.533-0.611,1.067-0.909,1.606c-0.054,0.075-0.093,0.199-0.183,0.196c-0.44,0.045-0.906-0.175-1.195-0.634
		c-0.432-0.673-0.738-1.464-1.056-2.236c-0.302-0.688-0.862-1.127-1.454-1.167c-3.788-0.455-7.581-0.925-11.387-0.946
		c-0.187,0.019-0.418-0.021-0.554,0.191c0.066,0.198,0.248,0.188,0.384,0.219c0.481,0.063,0.967,0.069,1.45,0.111
		c2.626,0.141,5.238,0.558,7.854,0.901c0.698,0.101,1.4,0.188,2.091,0.365c0.303,0.091,0.641,0.172,0.857,0.499
		c0.283,0.425,0.385,0.992,0.557,1.5c0.226,0.664,0.396,1.38,0.74,1.958c0.228,0.385,0.554,0.625,0.873,0.847
		c-0.128,0.215-0.252,0.434-0.372,0.655c0.323,0.388,0.764,0.475,1.174,0.582c1.226,0.284,2.489,0.126,3.694-0.259
		c0.759-0.265,1.497-0.731,2.296-0.702c0.457,0.008,0.862,0.313,1.28,0.521c0.135,0.065,0.264,0.153,0.375,0.275
		c0.272,0.293,0.586,0.544,0.939,0.598c0.047-0.556-0.116-1.088-0.138-1.639c-0.124-0.084-0.246-0.174-0.366-0.268
		c-0.178,0.2-0.368,0.381-0.559,0.56c-0.092,0.07-0.123,0.211-0.168,0.331c-0.108-0.192-0.222-0.378-0.332-0.567
		c0.195-0.138,0.391-0.279,0.561-0.471c0.5-0.563,0.695-1.431,0.954-2.201c0.178-0.511,0.282-1.078,0.546-1.526
		c0.198-0.343,0.529-0.446,0.829-0.534c0.71-0.193,1.432-0.278,2.151-0.384c1.844-0.245,3.687-0.516,5.534-0.717
		c1.235-0.137,2.474-0.181,3.71-0.287c0.148-0.041,0.361,0.001,0.44-0.213C39.601,12.765,39.383,12.795,39.235,12.77z"/>
	<path fill="#3D6480" d="M9.552,15.608c-0.206-0.224-0.406-0.464-0.553-0.763c-0.125-0.232-0.187-0.509-0.291-0.756
		c-1.863-0.206-3.73-0.395-5.6-0.513c0.176,0.531,0.445,1.031,0.829,1.318c0.392,0.254,0.839,0.196,1.258,0.262
		C6.646,15.336,8.104,15.395,9.552,15.608z"/>
	<path fill="#3D6480" d="M38.9,13.717c-1.873,0.107-3.742,0.32-5.612,0.504c-0.153,0.61-0.445,1.146-0.831,1.527
		c1.732-0.247,3.478-0.314,5.211-0.551C38.263,15.104,38.671,14.402,38.9,13.717z"/>
	<path fill="#3D6480" d="M11.863,14.426c-0.934-0.101-1.864-0.253-2.799-0.325c0.09,0.286,0.194,0.572,0.367,0.784
		c0.274,0.354,0.654,0.486,1.016,0.585c0.757,0.197,1.529,0.264,2.3,0.282c-0.206-0.198-0.421-0.385-0.595-0.633
		C12.016,14.923,11.942,14.668,11.863,14.426z"/>
	<path fill="#3D6480" d="M29.874,15.232c-0.176,0.262-0.399,0.45-0.608,0.655c0.765-0.015,1.531-0.084,2.284-0.275
		c0.372-0.1,0.767-0.238,1.043-0.613c0.165-0.208,0.265-0.486,0.35-0.764c-0.937,0.083-1.869,0.22-2.804,0.336
		C30.068,14.803,30,15.043,29.874,15.232z"/>
	<path fill="#3D6480" d="M14.634,15.114c-0.189-0.252-0.462-0.332-0.719-0.365c-0.529-0.068-1.056-0.166-1.584-0.239
		c0.078,0.209,0.154,0.433,0.29,0.589c0.131,0.155,0.295,0.237,0.45,0.333c0.049,0.201,0.072,0.443,0.214,0.571
		c0.138,0.146,0.319,0.154,0.486,0.188c0.038,0.168,0.047,0.372,0.164,0.48c0.158,0.177,0.369,0.195,0.566,0.203
		c0.114,0.171,0.22,0.369,0.377,0.476c0.189,0.134,0.406,0.146,0.614,0.175c-0.123-0.476-0.26-0.943-0.386-1.418
		C15.011,15.731,14.843,15.394,14.634,15.114z"/>
	<path fill="#3D6480" d="M27.391,15.232c-0.223,0.285-0.396,0.641-0.496,1.032c-0.124,0.467-0.257,0.929-0.38,1.396
		c0.205-0.023,0.417-0.039,0.604-0.166c0.166-0.1,0.272-0.308,0.387-0.487c0.324,0.043,0.735-0.165,0.721-0.683
		c0.18-0.025,0.378-0.04,0.521-0.209c0.127-0.131,0.142-0.358,0.188-0.548c0.162-0.097,0.334-0.184,0.466-0.349
		c0.128-0.156,0.201-0.371,0.28-0.573c-0.516,0.07-1.028,0.17-1.544,0.234C27.875,14.917,27.591,14.979,27.391,15.232z"/>
	<path fill="#3D6480" d="M7.161,17.299c1.137,0.019,2.273-0.019,3.408-0.1c-0.283-0.38-0.579-0.747-0.811-1.189
		c-1.387-0.05-2.775-0.082-4.155-0.299c-0.244-0.026-0.492-0.111-0.736-0.058c-0.153,0.034-0.144,0.284-0.088,0.431
		c0.194,0.521,0.543,0.954,0.968,1.115C6.208,17.362,6.689,17.28,7.161,17.299z"/>
	<path fill="#3D6480" d="M13.656,17.045c-0.116-0.094-0.118-0.297-0.161-0.452c-0.23-0.022-0.42-0.19-0.563-0.424
		c-0.96-0.082-1.921-0.164-2.871-0.37c0.406,0.822,1.128,1.299,1.854,1.339c0.728,0.045,1.452,0.155,2.181,0.197
		C13.948,17.241,13.794,17.164,13.656,17.045z"/>
	<path fill="#3D6480" d="M36.985,16.707c0.132-0.225,0.301-0.473,0.279-0.78c-0.094-0.223-0.313-0.145-0.468-0.138
		c-1.509,0.258-3.029,0.317-4.547,0.354c-0.227,0.449-0.54,0.796-0.815,1.187c1.442,0.133,2.888,0.108,4.332,0.104
		C36.225,17.432,36.69,17.189,36.985,16.707z"/>
	<path fill="#3D6480" d="M31.947,15.942c-0.839,0.164-1.684,0.275-2.53,0.331c-0.149,0.021-0.327-0.012-0.435,0.161
		c-0.121,0.189-0.296,0.264-0.475,0.295c-0.038,0.147-0.037,0.336-0.138,0.439c-0.154,0.143-0.337,0.218-0.508,0.315
		c0.759-0.059,1.516-0.16,2.275-0.211C30.847,17.217,31.546,16.743,31.947,15.942z"/>
	<path fill="#3D6480" d="M11.572,18.357c-0.237-0.222-0.451-0.484-0.642-0.775C9.653,17.634,8.378,17.78,7.1,17.766
		c-0.158,0.008-0.358-0.011-0.465,0.182c-0.101,0.298,0.105,0.565,0.28,0.708c0.421,0.328,0.903,0.546,1.394,0.53
		c0.448-0.002,0.885-0.151,1.323-0.254C10.284,18.776,10.93,18.577,11.572,18.357z"/>
	<path fill="#3D6480" d="M14.807,17.916c-0.158-0.07-0.312-0.175-0.483-0.172c-0.965-0.035-1.93-0.095-2.895-0.133
		c0.198,0.486,0.541,0.832,0.913,1.052c0.548,0.326,1.161,0.374,1.752,0.336c0.576-0.043,1.166-0.185,1.667-0.588
		c-0.055-0.124-0.111-0.246-0.166-0.37C15.331,18.028,15.06,18.035,14.807,17.916z"/>
	<path fill="#3D6480" d="M35.114,18.773c0.166-0.145,0.333-0.385,0.269-0.674c-0.107-0.208-0.316-0.19-0.482-0.199
		c-1.216,0.021-2.43-0.115-3.645-0.174c-0.074,0.008-0.165-0.021-0.22,0.064c-0.193,0.247-0.381,0.506-0.604,0.706
		c0.937,0.321,1.885,0.577,2.838,0.786C33.905,19.418,34.57,19.233,35.114,18.773z"/>
	<path fill="#3D6480" d="M26.252,18.56c0.722,0.552,1.583,0.629,2.396,0.567c0.745-0.071,1.547-0.474,1.939-1.379
		c-0.972,0.045-1.944,0.094-2.916,0.139c-0.186,0.001-0.351,0.124-0.523,0.191c-0.241,0.096-0.495,0.088-0.742,0.102
		C26.353,18.306,26.302,18.433,26.252,18.56z"/>
	<path fill="#3D6480" d="M12.579,19.234c-0.24-0.145-0.486-0.275-0.699-0.487c-0.953,0.286-1.912,0.539-2.875,0.764
		c-0.135,0.043-0.303,0.069-0.383,0.246c-0.036,0.155,0.072,0.275,0.146,0.373c0.273,0.321,0.611,0.612,0.992,0.585
		c0.4-0.025,0.802-0.136,1.17-0.353c0.563-0.326,1.132-0.646,1.657-1.073C12.585,19.274,12.581,19.248,12.579,19.234z"/>
	<path fill="#3D6480" d="M15.739,20.688c0.326-0.167,0.637-0.416,0.879-0.758c0.099-0.122,0.11-0.366-0.011-0.469
		c-0.203-0.206-0.416-0.395-0.61-0.616c-0.12,0.091-0.241,0.18-0.364,0.263c-0.028,0.496-0.143,0.979-0.159,1.475
		C15.468,20.788,15.646,20.74,15.739,20.688z"/>
	<path fill="#3D6480" d="M30.122,18.889c-0.229,0.223-0.487,0.377-0.752,0.504c0.561,0.441,1.154,0.796,1.754,1.133
		c0.334,0.192,0.697,0.288,1.06,0.324c0.461,0.055,0.896-0.315,1.183-0.77c0.105-0.271-0.166-0.387-0.315-0.418
		C32.07,19.433,31.095,19.173,30.122,18.889z"/>
	<path fill="#3D6480" d="M13.601,21.14c-0.023,0.183,0.167,0.193,0.261,0.178c0.379-0.07,0.812-0.212,1.038-0.664
		c0.194-0.442,0.259-0.96,0.332-1.457c-0.244,0.127-0.498,0.218-0.758,0.261c-0.174,0.445-0.382,0.869-0.642,1.232
		C13.749,20.83,13.625,20.954,13.601,21.14z"/>
	<path fill="#3D6480" d="M13.988,19.517c-0.348-0.018-0.694-0.057-1.034-0.144c-0.464,0.642-1.096,0.979-1.713,1.263
		c-0.117,0.054-0.302,0.206-0.215,0.4c0.122,0.227,0.345,0.289,0.531,0.375c0.302,0.124,0.641,0.15,0.931-0.044
		C13.114,20.972,13.591,20.26,13.988,19.517z"/>
	<path fill="#3D6480" d="M28.359,21.43c0.127-0.146-0.021-0.352-0.097-0.474c-0.29-0.402-0.536-0.859-0.727-1.357
		c-0.262-0.042-0.517-0.14-0.762-0.268c0.109,0.633,0.156,1.417,0.601,1.805C27.672,21.347,28.021,21.508,28.359,21.43z"/>
	<path fill="#3D6480" d="M30.999,21.041c-0.041-0.188-0.198-0.247-0.318-0.311c-0.595-0.265-1.184-0.621-1.637-1.219
		c-0.338,0.085-0.682,0.131-1.025,0.144c0.311,0.577,0.666,1.127,1.102,1.541c0.257,0.231,0.545,0.461,0.865,0.451
		c0.286-0.008,0.569-0.117,0.828-0.281C30.901,21.303,31.028,21.201,30.999,21.041z"/>
	<path fill="#3D6480" d="M28.657,25.403c-0.775-1.288-1.563-2.563-2.339-3.85c-0.08-0.126-0.148-0.277-0.259-0.357
		c-0.651-0.323-1.369-0.649-2.061-0.347c-1.247,0.563-2.249,1.813-3.504,2.351c-0.975,0.378-2.012,0.271-2.993,0.012
		c-0.753-0.227-1.233-1.172-1.443-2.111c-0.815,1.433-1.628,2.868-2.438,4.305c0.791,0.005,1.584,0.002,2.375,0.002
		c0.194-0.328,0.383-0.662,0.579-0.986c1.274-0.001,2.55-0.001,3.823,0c0.139,0.326,0.272,0.654,0.408,0.983
		C23.423,25.409,26.04,25.411,28.657,25.403z"/>
	<path fill="#3D6480" d="M13.696,26.595c-0.146,0.243-0.295,0.487-0.44,0.731c0.254,0.002,0.508,0,0.763,0.003
		c0.067,0.105,0.134,0.213,0.2,0.319c-0.381,0.007-0.762-0.002-1.144,0.007c-0.336,0.572-0.681,1.136-1.019,1.707
		c0.217,0.002,0.433,0.002,0.649,0.001c0.209-0.298,0.41-0.605,0.616-0.906c0.055-0.063,0.104-0.166,0.188-0.153
		c0.383-0.014,0.767-0.003,1.15,0.002c0.227,0.36,0.465,0.704,0.695,1.059c0.217,0,0.435-0.001,0.65-0.002
		c-0.547-0.915-1.077-1.85-1.641-2.744C14.149,26.542,13.918,26.6,13.696,26.595z"/>
	<path fill="#3D6480" d="M18.382,28.596c-0.432-0.668-0.865-1.333-1.293-2.004c-0.224-0.006-0.447-0.008-0.671-0.004
		c0.546,0.93,1.096,1.857,1.65,2.779c0.214-0.004,0.429-0.004,0.645-0.004c0.546-0.926,1.099-1.844,1.642-2.772
		c-0.221-0.005-0.439-0.006-0.661-0.006C19.255,27.253,18.822,27.93,18.382,28.596z"/>
	<path fill="#3D6480" d="M24.665,27.937c0.06-0.292,0.059-0.614,0-0.907c-0.131-0.365-0.473-0.44-0.744-0.444
		c-1.046,0.003-2.092-0.001-3.139,0.003c-0.001,0.246-0.001,0.492,0,0.739c1.088,0,2.175-0.002,3.263,0.001
		c-0.001,0.096-0.002,0.191-0.003,0.288c-1.086,0.002-2.172-0.002-3.26,0.001c-0.001,0.582-0.001,1.164,0,1.746
		c0.215,0.001,0.427,0.001,0.64-0.002c0-0.353,0-0.707,0.001-1.06c0.599-0.003,1.197-0.002,1.794-0.002
		c0.266,0.336,0.504,0.711,0.782,1.029c0.229,0.082,0.478,0.02,0.716,0.029c-0.255-0.353-0.516-0.696-0.774-1.043
		C24.192,28.272,24.527,28.285,24.665,27.937z"/>
	<path fill="#3D6480" d="M28.37,26.592c-0.753-0.016-1.505,0.003-2.257-0.008c-0.205,0-0.417-0.013-0.61,0.094
		c-0.154,0.093-0.327,0.24-0.36,0.481c-0.014,0.562-0.036,1.134,0.013,1.693c0.123,0.363,0.448,0.507,0.726,0.511
		c0.752,0.006,1.506-0.004,2.258,0.004c0.221,0,0.454-0.008,0.649-0.165c0.149-0.108,0.278-0.307,0.271-0.548
		c0.007-0.445,0.005-0.89,0.002-1.335C29.069,26.844,28.672,26.608,28.37,26.592z M28.288,28.462
		c-0.148,0.125-0.329,0.119-0.495,0.124c-0.503-0.008-1.005-0.001-1.509-0.003c-0.182,0.001-0.397-0.044-0.496-0.274
		c-0.036-0.22-0.033-0.45-0.007-0.671c0.119-0.292,0.405-0.309,0.624-0.312c0.52,0.008,1.04-0.015,1.56,0.012
		c0.182,0.001,0.336,0.137,0.463,0.298C28.4,27.908,28.511,28.303,28.288,28.462z"/>
	<polygon fill="#3D6480" points="37.115,35.717 31.89,30.492 30.546,31.836 35.772,37.062 32.626,37.062 32.626,38.963 
		39.016,38.96 39.016,32.635 37.115,32.635 	"/>
</g>
</svg>
