<?xml version="1.0" encoding="utf-8"?>
<!-- Generator: Adobe Illustrator 17.0.0, SVG Export Plug-In . SVG Version: 6.00 Build 0)  -->
<!DOCTYPE svg PUBLIC "-//W3C//DTD SVG 1.1//EN" "http://www.w3.org/Graphics/SVG/1.1/DTD/svg11.dtd">
<svg version="1.1" id="Layer_1" xmlns="http://www.w3.org/2000/svg" xmlns:xlink="http://www.w3.org/1999/xlink" x="0px" y="0px"
	 width="42px" height="42px" viewBox="0 0 42 42" enable-background="new 0 0 42 42" xml:space="preserve">
<polygon fill="#3D6480" points="33.858,28.544 32.515,29.888 35.28,32.652 27.462,32.652 30.228,29.888 28.884,28.544 
	23.843,33.585 28.901,38.644 30.245,37.3 27.498,34.553 35.28,34.553 32.532,37.3 33.876,38.644 38.916,33.603 "/>
<polygon fill="#EFF9FE" points="26.534,12.288 26.534,8.758 15.736,8.758 15.736,11.069 22.515,11.069 24.223,12.777 24.223,14.597 
	26.043,14.597 27.752,16.306 27.788,28.486 30.102,26.171 30.062,12.288 "/>
<polygon fill="#3D6480" points="11.726,12.769 22.523,12.769 22.523,16.297 26.052,16.297 26.092,30.181 27.788,28.486 
	27.752,16.306 26.043,14.597 24.223,14.597 24.223,12.777 22.515,11.069 15.736,11.069 15.736,8.758 26.534,8.758 26.534,12.288 
	30.062,12.288 30.102,26.171 31.798,24.476 31.763,12.296 30.054,10.587 28.234,10.587 28.234,8.767 26.525,7.058 14.036,7.058 
	14.036,11.069 10.026,11.069 10.026,34.41 21.864,34.41 23.564,32.71 11.726,32.71 "/>
<path fill="#EFF9FE" d="M26.052,16.297h-3.529v-3.528H11.726v19.94h11.838l2.528-2.528L26.052,16.297z M17.12,25.917h-3.092v-0.8
	h3.092V25.917z M23.8,23.139h-9.771v-0.8H23.8V23.139z M23.8,20.362h-9.771v-0.8H23.8V20.362z"/>
<rect x="14.028" y="19.562" fill="#3D6480" width="9.771" height="0.8"/>
<rect x="14.028" y="22.339" fill="#3D6480" width="9.771" height="0.8"/>
<rect x="14.028" y="25.117" fill="#3D6480" width="3.092" height="0.8"/>
</svg>
