<?xml version="1.0" encoding="utf-8"?>
<!-- Generator: Adobe Illustrator 17.0.0, SVG Export Plug-In . SVG Version: 6.00 Build 0)  -->
<!DOCTYPE svg PUBLIC "-//W3C//DTD SVG 1.1//EN" "http://www.w3.org/Graphics/SVG/1.1/DTD/svg11.dtd">
<svg version="1.1" id="Layer_1" xmlns="http://www.w3.org/2000/svg" xmlns:xlink="http://www.w3.org/1999/xlink" x="0px" y="0px"
	 width="42px" height="42px" viewBox="0 0 42 42" enable-background="new 0 0 42 42" xml:space="preserve">
<g>
	<g>
		<path fill="#00557C" d="M37.028,11.987c-0.674-0.019-1.189,0.044-1.63,0.229c-0.125,0.054-0.325,0.055-0.346,0.211
			c0.069,0.072,0.079,0.181,0.135,0.268c0.104,0.171,0.282,0.399,0.441,0.519c0.173,0.131,0.352,0.271,0.536,0.384
			c0.331,0.201,0.699,0.315,1.018,0.518c0.188,0.118,0.373,0.269,0.556,0.402c0.091,0.066,0.151,0.169,0.269,0.212
			c0-0.007,0-0.014,0-0.02c-0.062-0.079-0.077-0.186-0.134-0.27c-0.084-0.082-0.166-0.166-0.25-0.249
			c-0.243-0.322-0.554-0.607-0.882-0.844c-0.263-0.188-0.85-0.442-0.959-0.748c-0.007-0.006-0.013-0.013-0.02-0.02
			c0.187-0.021,0.403-0.088,0.575-0.134c0.288-0.077,0.547-0.058,0.845-0.134c0.134-0.039,0.267-0.078,0.402-0.116
			c0-0.024,0-0.05,0-0.076c-0.15-0.154-0.258-0.359-0.422-0.499c-0.43-0.365-0.899-0.731-1.381-1.036
			c-0.269-0.168-0.599-0.277-0.883-0.422c-0.096-0.048-0.264-0.073-0.326-0.153c-0.148-0.189-0.23-0.431-0.345-0.651
			c-0.241-0.464-0.478-0.971-0.69-1.459c-0.146-0.332-0.241-0.66-0.423-0.958c-0.871-1.433-1.808-2.296-3.26-3.147
			c-0.31-0.181-0.682-0.252-1.075-0.345c-0.211-0.013-0.422-0.026-0.633-0.039c-0.129-0.054-0.263-0.211-0.383-0.287
			c-0.482-0.305-1.716-0.966-2.072-0.096c-0.226,0.548,0.336,1.083,0.536,1.361c0.142,0.195,0.322,0.414,0.423,0.634
			c0.066,0.144,0.077,0.287,0.134,0.44c0.14,0.375,0.261,0.784,0.441,1.132c0.091,0.176,0.192,0.361,0.308,0.519
			c0.07,0.096,0.191,0.139,0.211,0.287c-0.119,0.166-0.126,0.423-0.192,0.633c-0.3,0.946-0.186,2.121,0.25,2.82
			c0.134,0.215,0.448,0.675,0.882,0.499c0.379-0.155,0.294-0.633,0.403-1.057c0.024-0.095,0.009-0.165,0.057-0.23
			c0,0.007,0,0.014,0,0.02c0.115,0.229,0.231,0.461,0.346,0.69c0.255,0.411,0.709,0.841,1.093,1.132
			c0.2,0.151,0.356,0.41,0.614,0.498c0-0.006,0-0.013,0-0.019c-0.007,0-0.013,0-0.02,0c-0.049-0.077-0.128-0.11-0.191-0.173
			c-0.15-0.147-0.317-0.33-0.441-0.499c-0.35-0.474-0.658-0.993-0.94-1.534c-0.135-0.258-0.252-0.543-0.364-0.806
			c-0.044-0.102-0.043-0.255-0.135-0.307c-0.123,0.192-0.307,0.348-0.402,0.575c-0.153,0.363-0.174,0.807-0.23,1.267
			c-0.033,0.012-0.019,0.004-0.038,0.019c-0.268-0.064-0.361-0.339-0.461-0.575c-0.251-0.597-0.298-1.558-0.076-2.244
			c0.058-0.178,0.315-0.737,0.211-0.901c-0.05-0.164-0.215-0.259-0.307-0.384c-0.114-0.155-0.228-0.359-0.308-0.538
			c-0.205-0.464-0.302-0.986-0.518-1.457c-0.104-0.225-0.278-0.452-0.423-0.653c-0.158-0.221-0.336-0.384-0.46-0.651
			c-0.044-0.095-0.103-0.247-0.038-0.345c0.021-0.066,0.05-0.094,0.115-0.115c0.111-0.087,0.421,0.029,0.537,0.077
			c0.307,0.127,0.565,0.249,0.825,0.421c0.125,0.084,0.251,0.244,0.402,0.288c0.058,0,0.115,0,0.173,0
			c0.27,0.063,0.572,0.02,0.824,0.096c0.446,0.136,0.846,0.347,1.209,0.575c1.106,0.699,2.009,1.692,2.628,2.878
			c0.099,0.19,0.142,0.374,0.229,0.575c0.177,0.408,0.4,0.829,0.576,1.228c0.175,0.398,0.346,0.8,0.595,1.131
			c0.131,0.175,0.635,0.267,0.862,0.365c0.16,0.067,0.424,0.138,0.576,0.229c0.291,0.176,0.571,0.384,0.844,0.576
			C36.589,11.604,37.008,11.813,37.028,11.987L37.028,11.987z"/>
		<path fill="#00557C" d="M28.454,4.679c-0.141-0.002-0.239,0.016-0.345,0.038c0,0.006,0,0.013,0,0.02c0.007,0,0.013,0,0.019,0
			c0.067,0.138,0.185,0.227,0.269,0.346c0.063,0.134,0.127,0.268,0.191,0.402c0.007-0.007,0.013-0.014,0.02-0.019
			c0.118-0.084,0.172-0.218,0.172-0.422c-0.048-0.05-0.055-0.113-0.096-0.173C28.63,4.791,28.524,4.745,28.454,4.679L28.454,4.679z"
			/>
	</g>
	<g>
		<path fill="#E67C25" d="M4.885,18.266h1.098v-4.334l1.699,3.778c0.2,0.457,0.475,0.618,1.013,0.618s0.803-0.161,1.002-0.618
			l1.699-3.778v4.334h1.098v-4.327c0-0.422-0.169-0.625-0.518-0.731c-0.833-0.26-1.392-0.034-1.646,0.528l-1.668,3.728l-1.613-3.728
			c-0.243-0.563-0.814-0.788-1.648-0.528c-0.348,0.106-0.517,0.309-0.517,0.731V18.266L4.885,18.266z"/>
		<path fill="#E67C25" d="M13.406,14.738h1.096v2.388c-0.01,0.13,0.043,0.434,0.644,0.444c0.307,0.004,2.367,0,2.387,0v-2.844h1.1
			c0.005,0-0.002,3.877-0.002,3.894c0.007,0.956-1.185,1.164-1.735,1.18H13.43v-0.738c0.006,0,3.463,0,3.471,0
			c0.707-0.075,0.623-0.427,0.623-0.544v-0.288h-2.332c-1.086-0.01-1.777-0.483-1.785-1.028
			C13.405,17.15,13.43,14.762,13.406,14.738L13.406,14.738z"/>
		<path fill="#E67C25" d="M19.477,18.266h3.155c0.369,0,0.728-0.078,1.014-0.211c0.475-0.218,0.707-0.514,0.707-0.901v-0.801
			c0-0.317-0.264-0.613-0.78-0.81c-0.275-0.106-0.613-0.161-0.94-0.161h-1.329c-0.442,0-0.654-0.135-0.707-0.43
			c-0.011-0.035-0.011-0.063-0.011-0.099v-0.499c0-0.028,0-0.057,0.011-0.091c0.053-0.226,0.169-0.289,0.56-0.325
			c0.031,0,0.074-0.007,0.105-0.007h3.134V13.2h-3.081c-0.443,0-0.675,0.028-0.887,0.092c-0.654,0.203-0.938,0.528-0.938,1.091v0.64
			c0,0.493,0.56,0.915,1.498,1.013c0.105,0.008,0.212,0.015,0.316,0.015h1.14c0.042,0,0.084,0,0.116,0.007
			c0.349,0.028,0.496,0.092,0.602,0.218c0.063,0.063,0.085,0.127,0.085,0.197v0.641c0,0.078-0.054,0.176-0.159,0.26
			c-0.095,0.084-0.253,0.141-0.464,0.155c-0.042,0-0.074,0.007-0.116,0.007h-3.029V18.266L19.477,18.266z"/>
		<path fill="#E67C25" d="M31.198,16.992c0,0.752,0.56,1.175,1.689,1.26c0.104,0.007,0.21,0.014,0.316,0.014h2.859v-0.731h-2.88
			c-0.645,0-0.887-0.162-0.887-0.549V13.2h-1.098V16.992L31.198,16.992z"/>
		<path fill="#E67C25" d="M25.054,17.03v-2.607c0-0.663,0.464-1.065,1.384-1.192c0.096-0.013,0.202-0.021,0.297-0.021h2.083
			c0.105,0,0.201,0.008,0.307,0.021c0.92,0.128,1.385,0.529,1.385,1.192v2.607c0,0.538-0.197,0.825-0.652,1.014l1.081,0.976h-1.274
			l-0.875-0.79l-0.881,0.056h-1.173c-0.201,0-0.413-0.027-0.646-0.092C25.392,18.004,25.054,17.638,25.054,17.03L25.054,17.03z
			 M26.237,16.968c0,0.035,0.01,0.07,0.021,0.112c0.063,0.304,0.349,0.473,0.781,0.473h0.998l-0.916-0.827h1.274l0.799,0.722
			c0.146-0.079,0.243-0.199,0.278-0.354c0.01-0.034,0.01-0.069,0.01-0.105v-2.502c0-0.028,0-0.063-0.01-0.1
			c-0.064-0.281-0.35-0.443-0.772-0.443H27.04c-0.485,0-0.803,0.211-0.803,0.543V16.968L26.237,16.968z"/>
		<path fill="#E67C25" d="M36.578,17.514c0,0.482,0.382,0.809,0.809,0.809c0.426,0,0.808-0.326,0.808-0.809
			c0-0.483-0.382-0.81-0.808-0.81C36.96,16.704,36.578,17.03,36.578,17.514L36.578,17.514z M38.015,17.514
			c0,0.366-0.28,0.64-0.627,0.64c-0.353,0-0.628-0.274-0.628-0.64c0-0.366,0.275-0.641,0.628-0.641
			C37.734,16.873,38.015,17.147,38.015,17.514L38.015,17.514z M37.604,17.976h0.182l-0.266-0.406c0.143-0.015,0.25-0.084,0.25-0.253
			c0-0.188-0.117-0.265-0.347-0.265h-0.36v0.924h0.155v-0.399h0.145L37.604,17.976L37.604,17.976z M37.219,17.446v-0.266h0.179
			c0.093,0,0.206,0.018,0.206,0.126c0,0.129-0.103,0.14-0.219,0.14H37.219L37.219,17.446z"/>
	</g>
</g>
<g>
	<polygon fill="#0CB20F" points="20.576,30.185 17.67,33.093 16.931,32.355 19.101,30.185 17.011,28.096 17.75,27.358 	"/>
	<path fill="#0CB20F" d="M19.285,29.654H18.53c-2.155,0-2.881-0.76-2.881-3.011v-2.72h-1.044v2.72c0,2.804,1.211,4.055,3.925,4.055
		h0.755V29.654z"/>
</g>
<g>
	<polygon fill="#FFEBCD" points="31.56,31.806 31.56,38.073 37.49,35.08 37.49,31.765 33.149,34.166 	"/>
	<polygon fill="#FFEBCD" points="35.959,27.394 35.96,28.15 36.769,27.731 	"/>
	<polygon fill="#FFEBCD" points="37.803,28.248 32.229,31.128 33.446,32.935 38.931,29.9 	"/>
	<polygon fill="#FFEBCD" points="38.423,31.248 38.423,35.655 31.458,39.172 24.492,35.655 24.492,31.563 24.459,31.546 
		24.459,35.676 31.458,39.209 38.457,35.676 38.457,31.23 	"/>
	<polygon fill="#FFEBCD" points="25.425,32.05 25.425,35.08 31.121,37.955 31.121,32.102 29.574,34.211 	"/>
	<polygon fill="#FFEBCD" points="26.075,27.762 26.84,28.148 26.84,27.442 	"/>
	<rect x="24.958" y="27.721" fill="#FFEBCD" width="0.001" height="0.001"/>
	<polygon fill="#FFEBCD" points="30.675,31.13 25.092,28.312 23.703,30.1 29.294,33.012 	"/>
	<path fill="#3D6480" d="M24.492,35.655l6.966,3.517l6.966-3.517v-4.407l0.033-0.018l1.823-1.009l-1.856-2.81l-2.464-1.029l0-1.347
		l-0.987-0.986h-1.484v-1.485l-0.988-0.988H26.84v4.855l-2.349,0.98l-2.212,3.002l2.179,1.134l0.033,0.017V35.655z M31.121,37.955
		l-5.695-2.875v-3.03l4.148,2.161l1.547-2.109V37.955z M37.49,35.08l-5.93,2.993v-6.268l1.589,2.36l4.341-2.401V35.08z
		 M33.446,32.935l-1.217-1.807l5.574-2.88l1.128,1.652L33.446,32.935z M35.96,28.15l0-0.756l0.81,0.338L35.96,28.15z M27.84,22.575
		h4.647v2.474h2.472v3.888l-3.504,1.818l-3.614-1.875V22.575z M24.96,27.721L24.96,27.721l-0.002,0.001L24.96,27.721L24.96,27.721z
		 M26.075,27.762l0.766-0.32v0.706L26.075,27.762z M23.703,30.1l1.39-1.788l5.583,2.818l-1.381,1.882L23.703,30.1z"/>
	<path fill="#EFF9FE" d="M27.84,28.879l3.614,1.875l3.504-1.818v-3.888h-2.472v-2.474H27.84V28.879z M29.5,26.871v-0.5h3.8v0.5H29.5
		z M33.3,28.337v0.5h-3.8v-0.5H33.3z M29.5,24.407h0.746v0.5H29.5V24.407z"/>
	<rect x="29.5" y="26.371" fill="#3D6480" width="3.8" height="0.5"/>
	<rect x="29.5" y="28.337" fill="#3D6480" width="3.8" height="0.5"/>
	<rect x="29.5" y="24.407" fill="#3D6480" width="0.746" height="0.5"/>
</g>
</svg>
