<?xml version="1.0" encoding="utf-8"?>
<!-- Generator: Adobe Illustrator 17.0.0, SVG Export Plug-In . SVG Version: 6.00 Build 0)  -->
<!DOCTYPE svg PUBLIC "-//W3C//DTD SVG 1.1//EN" "http://www.w3.org/Graphics/SVG/1.1/DTD/svg11.dtd">
<svg version="1.1" id="Layer_1" xmlns="http://www.w3.org/2000/svg" xmlns:xlink="http://www.w3.org/1999/xlink" x="0px" y="0px"
	 width="42px" height="42px" viewBox="0 0 42 42" enable-background="new 0 0 42 42" xml:space="preserve">
<g>
	
		<rect x="8.383" y="10.542" transform="matrix(0.7071 0.7071 -0.7071 0.7071 12.0884 -3.7427)" fill="#9EB1C0" width="4.357" height="4.357"/>
	
		<rect x="3.581" y="15.345" transform="matrix(0.7071 -0.7071 0.7071 0.7071 -10.7042 9.2046)" fill="#3D6480" width="4.356" height="4.356"/>
	
		<rect x="13.261" y="15.42" transform="matrix(-0.7071 -0.7071 0.7071 -0.7071 13.9117 40.9576)" fill="#9EB1C0" width="4.356" height="4.356"/>
	
		<rect x="13.26" y="2.611" transform="matrix(0.707 0.7072 -0.7072 0.707 7.9104 -9.5152)" fill="#D8E0E6" width="4.357" height="4.357"/>
	
		<rect x="8.457" y="20.221" transform="matrix(0.7071 -0.7071 0.7071 0.7071 -12.7239 14.0805)" fill="#3D6480" width="4.356" height="4.356"/>
	
		<rect x="18.137" y="10.542" transform="matrix(-0.7071 0.7071 -0.7071 -0.7071 43.6751 7.3495)" fill="#9EB1C0" width="4.356" height="4.357"/>
	
		<rect x="18.065" y="20.222" transform="matrix(0.707 -0.7072 0.7072 0.707 -9.9102 20.8788)" fill="#3D6480" width="4.355" height="4.355"/>
	
		<rect x="13.261" y="25.025" transform="matrix(-0.7071 -0.7071 0.7071 -0.7071 7.1197 57.3552)" fill="#3D6480" width="4.356" height="4.356"/>
	
		<rect x="22.94" y="15.345" transform="matrix(-0.7071 0.7071 -0.7071 -0.7071 55.2703 12.1531)" fill="#3D6480" width="4.356" height="4.356"/>
	<polygon fill="#FFEBCD" points="30.675,30.962 25.093,28.144 23.702,29.933 29.294,32.845 	"/>
	<polygon fill="#FFEBCD" points="26.075,27.595 31.454,30.31 36.769,27.563 34.073,26.438 34.408,25.637 34.136,25.524 
		31.409,28.251 28.705,25.549 28.315,25.713 28.651,26.519 	"/>
	<polygon fill="#FFEBCD" points="38.423,31.081 38.423,35.487 31.458,39.005 24.491,35.487 24.491,31.395 24.458,31.378 
		24.458,35.509 31.458,39.042 38.456,35.509 38.456,31.062 	"/>
	<polygon fill="#FFEBCD" points="25.425,31.882 25.425,34.913 31.12,37.788 31.12,31.935 29.573,34.044 	"/>
	<polygon fill="#FFEBCD" points="37.489,31.597 33.149,33.999 31.56,31.638 31.56,37.905 37.489,34.913 	"/>
	<polygon fill="#FFEBCD" points="38.931,29.733 37.804,28.081 32.229,30.96 33.446,32.767 	"/>
	<path fill="#3D6480" d="M24.491,35.487l6.967,3.518l6.965-3.518v-4.406l0.033-0.019l1.824-1.009l-1.857-2.811l-3.99-1.666
		l-0.025,0.06l-0.334,0.802l2.695,1.125l-5.314,2.746l-5.379-2.715l2.576-1.076l-0.336-0.805l-0.023-0.056l-3.801,1.586
		l-2.211,3.002l2.178,1.133l0.033,0.017V35.487z M37.804,28.081l1.127,1.652l-5.484,3.033l-1.217-1.807L37.804,28.081z
		 M31.56,31.638l1.59,2.361l4.34-2.402v3.316l-5.93,2.992V31.638z M31.12,37.788l-5.695-2.875v-3.031l4.148,2.162l1.547-2.109
		V37.788z M23.702,29.933l1.391-1.789l5.582,2.818l-1.381,1.883L23.702,29.933z"/>
	<path fill="#0CB20F" d="M34.136,25.524l0.1-0.099l-0.738-0.738l-1.564,1.564v-1.74c0-2.803-1.211-4.055-3.926-4.055v1.045
		c2.156,0,2.883,0.76,2.883,3.01v1.746l-1.65-1.65l-0.738,0.738l0.204,0.204l2.704,2.702L34.136,25.524z"/>
</g>
</svg>
