<?xml version="1.0" encoding="utf-8"?>
<!-- Generator: Adobe Illustrator 17.0.0, SVG Export Plug-In . SVG Version: 6.00 Build 0)  -->
<!DOCTYPE svg PUBLIC "-//W3C//DTD SVG 1.1//EN" "http://www.w3.org/Graphics/SVG/1.1/DTD/svg11.dtd">
<svg version="1.1" id="Layer_1" xmlns="http://www.w3.org/2000/svg" xmlns:xlink="http://www.w3.org/1999/xlink" x="0px" y="0px"
	 width="42px" height="42px" viewBox="0 0 42 42" enable-background="new 0 0 42 42" xml:space="preserve">
<g>
	<path fill="none" stroke="#3D6480" stroke-width="0" stroke-linecap="round" stroke-linejoin="round" d="M31.337,12.132
		c0.017-0.024,0.027-0.039,0.027-0.039"/>
	<path fill="#3D6480" d="M32.824,12.576c0.14-0.188,0.132-0.219,0.132-0.219S32.905,12.442,32.824,12.576z"/>
	
		<line fill="none" stroke="#3D6480" stroke-width="0" stroke-linecap="round" stroke-linejoin="round" x1="35.727" y1="19.869" x2="35.742" y2="19.874"/>
	<path fill="#3D6480" d="M27.168,23.938c1.063-0.044,3.623,3.536,3.623,3.536s-2.434-4.374-1.899-4.374
		c0.533,0,1.899,1.455,1.899,1.455s-0.753-0.882-0.842-1.19c-0.088-0.309-0.132-0.754,0.089-0.754c0.22,0,3.271,3.228,3.271,3.228
		s-1.322-1.944-1.724-2.474c-0.401-0.528-0.661-1.106-0.44-1.238c0.22-0.133,2.12,0.93,2.12,0.93s-1.988-1.282-2.12-2.036
		c-0.133-0.754,3.183,0.798,3.183,0.798s-0.794-0.71-0.975-0.931s0-0.529,0-0.529l2.742,1.769l-2.516-2.474
		c0,0,1.936,0.183,2.148,0.215c-0.223-0.031-2.375-1.278-2.375-1.278l1.724,0.044c0,0-1.014-0.353-1.768-0.573
		c-0.754-0.22-0.97,0.177-0.97,0.177c-1.944,3.359-4.465,4.951-9.24,6.186c-4.774,1.234-9.461-1.504-15.778-1.103
		c-3.888,0.247-4.29-0.666-4.29-0.666c0.163,0.128-0.665,1.813,7.426,1.371c0.709-0.038-1.324,2.033-1.324,2.033
		s3.095-1.9,3.492-1.769c0.396,0.133-0.666,1.993-0.666,1.993s0.357-0.578,1.194-1.195c0.838-0.617,1.283-0.665,1.9-0.176
		s-1.19,2.693-1.19,2.693s2.385-2.253,2.693-2.253s0,1.988,0,1.988s0.975-2.032,1.327-1.988s-1.415,4.687-1.415,4.687
		s2.611-4.598,3.007-4.598c0.396,0,0.882,3.006,0.882,3.006s-0.044-0.842-0.044-1.943c0-1.103,0.356-1.416,1.194-1.107
		s0.221,4.467,0.221,4.467c1.278-0.971,0.842-4.422,0.842-4.422c2.165,1.635,2.165,4.906,2.165,4.906
		c0.617-2.698-1.856-5.304-1.151-5.215c0.707,0.088,2.302,2.473,2.214,2.297c-0.089-0.177-1.327-2.826,0.132-2.782
		s2.297,4.197,2.297,4.197c0.132-1.151-0.485-3.051-0.926-4.021C26.859,23.854,27.168,23.938,27.168,23.938z"/>
	<path fill="#3D6480" d="M14.063,17.593c0,2.957,2.644,5.354,5.903,5.354c3.261,0,5.903-2.397,5.903-5.354
		c0-1.151-0.408-2.213-1.09-3.086c1.747,0.277,3.358,0.787,4.773,1.519c5.039,2.962,7.546,0.995,9.417-1.415
		c0,0-1.636,1.86-3.668,1.86c-0.27,0,2.029-1.973,2.297-2.875c0,0-2.032,2.077-3.095,2.386s-1.416,0-1.416,0
		c1.371-1.106,2.346-3.624,2.346-3.624c-2.297,3.491-3.403,3.359-3.403,3.359c1.106-1.019,2.032-3.271,2.032-3.271
		c-1.944,2.698-3.139,2.875-2.963,2.786c0.147-0.073,1.327-2.001,1.724-2.656c-0.124,0.167-0.362,0.456-0.837,0.976
		c-1.014,1.106-2.39,1.944-2.61,1.813c-0.206-0.124,1.711-2.876,1.961-3.232c-0.229,0.326-1.92,2.697-2.578,2.61
		c-0.705-0.093,0.353-1.499,0.221-1.322c-0.132,0.176-1.592,0.838-1.371,0.705c0.221-0.132,1.637-2.473,1.637-2.473
		s-0.089,0.044-0.618,0.661s-2.081,1.768-2.169,1.591c-0.088-0.176,1.15-2.341,0.489-1.371c-0.661,0.971-1.729,1.151-1.948,1.107
		c-0.221-0.045,0.666-1.327,0.666-1.327c-0.706,0.93-1.856,1.238-2.214,1.194s0.044-0.975,0.044-0.975
		c-0.577,0.706-1.636,0.573-1.636,0.573l0.133-0.837c-0.534,1.106-1.367,1.282-1.367,1.282s0.441-1.68,0.309-1.238
		c-0.132,0.44-1.019,1.327-1.371,1.371s0.177-1.68-0.176-0.931c-0.353,0.75-0.843,0.71-0.843,0.71s0.045-1.019-0.131-0.533
		c-0.178,0.484-0.486,0.842-0.486,0.842c-9.151,1.636-14.588,8.398-14.588,8.398c3.759-3.277,7.563-5.416,11.182-6.635
		C14.229,16.17,14.063,16.863,14.063,17.593z M23.997,20.111l-1.745-0.438l1.158,1.377l-1.523-0.956l0.676,1.667l-1.154-1.379
		l0.128,1.794l-0.672-1.669l-0.433,1.746l-0.123-1.795l-0.951,1.527l0.438-1.745l-1.376,1.158l0.955-1.524l-1.667,0.677l1.38-1.154
		l-1.795,0.128l1.669-0.672l-1.746-0.433l1.795-0.123l-1.527-0.951l1.745,0.438l-1.158-1.377l1.524,0.956l-0.676-1.667l1.154,1.379
		l-0.128-1.794l0.671,1.669l0.433-1.746l0.123,1.795l0.951-1.527l-0.438,1.745l1.377-1.158l-0.955,1.524l1.666-0.677l-1.379,1.155
		l1.794-0.128l-1.669,0.671l1.746,0.433l-1.794,0.123L23.997,20.111z"/>
	<polygon fill="#FFFFFF" points="22.519,18.604 24.188,17.934 22.394,18.061 23.772,16.906 22.106,17.583 23.062,16.059 
		21.685,17.217 22.122,15.472 21.171,16.999 21.048,15.204 20.615,16.95 19.944,15.281 20.072,17.075 18.918,15.696 19.594,17.363 
		18.069,16.407 19.228,17.784 17.482,17.347 19.01,18.298 17.215,18.421 18.961,18.853 17.292,19.525 19.087,19.397 17.707,20.552 
		19.374,19.875 18.419,21.399 19.795,20.241 19.357,21.986 20.309,20.459 20.432,22.254 20.864,20.508 21.536,22.177 21.408,20.383 
		22.563,21.762 21.887,20.095 23.41,21.051 22.252,19.674 23.997,20.111 22.471,19.16 24.265,19.037 	"/>
	<polygon fill="#3D6480" points="37.115,32.635 37.115,35.718 31.89,30.493 30.546,31.837 35.771,37.062 32.626,37.062 
		32.626,38.963 39.016,38.962 39.016,32.635 	"/>
</g>
</svg>
