<?xml version="1.0" encoding="utf-8"?>
<!-- Generator: Adobe Illustrator 17.0.0, SVG Export Plug-In . SVG Version: 6.00 Build 0)  -->
<!DOCTYPE svg PUBLIC "-//W3C//DTD SVG 1.1//EN" "http://www.w3.org/Graphics/SVG/1.1/DTD/svg11.dtd">
<svg version="1.1" id="Layer_1" xmlns="http://www.w3.org/2000/svg" xmlns:xlink="http://www.w3.org/1999/xlink" x="0px" y="0px"
	 width="42px" height="42px" viewBox="0 0 42 42" enable-background="new 0 0 42 42" xml:space="preserve">
<g>
	<path fill="none" stroke="#3D6480" stroke-width="0" stroke-linecap="round" stroke-linejoin="round" d="M31.337,12.132
		c0.017-0.024,0.027-0.039,0.027-0.039"/>
	<path fill="#3D6480" d="M35.302,16.47c-0.27,0,2.029-1.973,2.297-2.874c0,0-2.032,2.076-3.095,2.385c-1.063,0.309-1.416,0-1.416,0
		c1.371-1.107,2.346-3.624,2.346-3.624c-2.297,3.492-3.403,3.359-3.403,3.359c1.106-1.018,2.032-3.271,2.032-3.271
		c-1.944,2.698-3.139,2.874-2.963,2.786c0.147-0.073,1.324-1.997,1.723-2.654c-0.124,0.167-0.362,0.457-0.836,0.974
		c-1.014,1.106-2.39,1.944-2.61,1.811c-0.205-0.123,1.711-2.875,1.961-3.231c-0.229,0.326-1.92,2.697-2.578,2.61
		c-0.705-0.093,0.353-1.499,0.221-1.323c-0.132,0.177-1.592,0.838-1.371,0.706c0.221-0.133,1.637-2.474,1.637-2.474
		s-0.089,0.044-0.618,0.661s-2.081,1.769-2.169,1.592c-0.088-0.177,1.15-2.341,0.489-1.371c-0.661,0.97-1.729,1.15-1.948,1.107
		c-0.221-0.044,0.666-1.327,0.666-1.327c-0.706,0.931-1.856,1.239-2.214,1.195c-0.357-0.044,0.044-0.975,0.044-0.975
		c-0.577,0.705-1.636,0.573-1.636,0.573l0.133-0.838c-0.534,1.106-1.367,1.283-1.367,1.283s0.441-1.68,0.309-1.239
		c-0.132,0.441-1.019,1.327-1.371,1.371c-0.352,0.044,0.177-1.68-0.176-0.93c-0.353,0.749-0.843,0.71-0.843,0.71
		s0.045-1.019-0.131-0.534c-0.178,0.485-0.486,0.843-0.486,0.843C8.775,15.407,3.339,22.17,3.339,22.17
		c3.759-3.277,7.562-5.416,11.182-6.635c-0.292,0.634-0.457,1.328-0.457,2.058c0,2.957,2.643,5.354,5.903,5.354
		c3.261,0,5.903-2.396,5.903-5.354c0-1.152-0.408-2.214-1.091-3.087c1.747,0.277,3.359,0.787,4.773,1.518
		c5.039,2.963,7.546,0.995,9.417-1.415C38.97,14.609,37.334,16.47,35.302,16.47z M23.997,20.111l-1.745-0.438l1.158,1.376
		l-1.523-0.955l0.676,1.667l-1.154-1.38l0.128,1.795l-0.672-1.669l-0.433,1.746l-0.123-1.795l-0.951,1.526l0.438-1.744l-1.376,1.158
		l0.955-1.524l-1.667,0.676l1.38-1.154l-1.795,0.128l1.669-0.672l-1.746-0.433l1.795-0.123l-1.527-0.951l1.745,0.438l-1.158-1.376
		l1.525,0.955l-0.676-1.667l1.154,1.38l-0.128-1.794l0.671,1.668l0.433-1.745l0.123,1.794l0.951-1.526l-0.438,1.744l1.377-1.157
		l-0.955,1.523l1.666-0.676l-1.379,1.154l1.794-0.128l-1.669,0.672l1.746,0.433l-1.794,0.123L23.997,20.111z"/>
	<path fill="#3D6480" d="M32.822,12.577c0.141-0.19,0.134-0.221,0.134-0.221S32.904,12.442,32.822,12.577z"/>
	
		<line fill="none" stroke="#3D6480" stroke-width="0" stroke-linecap="round" stroke-linejoin="round" x1="35.727" y1="19.868" x2="35.742" y2="19.873"/>
	<path fill="#3D6480" d="M36.095,22.126l-2.516-2.473c0,0,1.937,0.182,2.148,0.214c-0.222-0.031-2.375-1.277-2.375-1.277
		l1.724,0.044c0,0-1.014-0.353-1.768-0.573s-0.97,0.177-0.97,0.177c-1.944,3.359-4.465,4.95-9.24,6.185
		c-4.774,1.234-9.461-1.503-15.778-1.102c-3.888,0.246-4.29-0.666-4.29-0.666c0.163,0.128-0.665,1.812,7.426,1.371
		c0.709-0.039-1.324,2.032-1.324,2.032s3.095-1.9,3.492-1.768c0.396,0.132-0.666,1.992-0.666,1.992s0.357-0.577,1.194-1.194
		c0.838-0.617,1.283-0.666,1.9-0.177c0.617,0.49-1.19,2.694-1.19,2.694s2.385-2.253,2.693-2.253c0.309,0,0,1.988,0,1.988
		s0.975-2.032,1.327-1.988c0.353,0.044-1.415,4.687-1.415,4.687s2.611-4.599,3.007-4.599c0.396,0,0.882,3.007,0.882,3.007
		s-0.044-0.842-0.044-1.944c0-1.102,0.357-1.415,1.194-1.106c0.838,0.309,0.221,4.466,0.221,4.466
		c1.278-0.97,0.842-4.422,0.842-4.422c2.165,1.636,2.165,4.907,2.165,4.907c0.617-2.698-1.856-5.304-1.151-5.216
		c0.707,0.088,2.302,2.474,2.214,2.297c-0.089-0.176-1.327-2.826,0.132-2.781c1.459,0.044,2.297,4.196,2.297,4.196
		c0.132-1.15-0.485-3.051-0.926-4.021c-0.44-0.97-0.132-0.886-0.132-0.886c1.063-0.044,3.623,3.535,3.623,3.535
		s-2.434-4.373-1.899-4.373c0.533,0,1.899,1.455,1.899,1.455s-0.753-0.882-0.842-1.19c-0.088-0.309-0.132-0.754,0.089-0.754
		c0.22,0,3.271,3.227,3.271,3.227s-1.322-1.943-1.724-2.473c-0.401-0.529-0.661-1.107-0.441-1.239c0.22-0.132,2.12,0.931,2.12,0.931
		s-1.988-1.283-2.12-2.037c-0.133-0.754,3.183,0.798,3.183,0.798s-0.794-0.71-0.975-0.93c-0.181-0.221,0-0.529,0-0.529
		L36.095,22.126z"/>
	<polygon fill="#FFFFFF" points="22.519,18.604 24.188,17.933 22.394,18.061 23.773,16.906 22.107,17.582 23.062,16.059 
		21.685,17.216 22.122,15.472 21.171,16.998 21.048,15.204 20.615,16.949 19.944,15.281 20.072,17.075 18.918,15.695 19.594,17.362 
		18.069,16.407 19.227,17.783 17.482,17.346 19.01,18.297 17.215,18.42 18.961,18.853 17.292,19.524 19.087,19.396 17.707,20.551 
		19.374,19.875 18.419,21.399 19.795,20.241 19.357,21.985 20.309,20.459 20.432,22.254 20.864,20.508 21.536,22.177 21.408,20.382 
		22.563,21.762 21.887,20.095 23.41,21.05 22.252,19.674 23.997,20.111 22.471,19.16 24.265,19.037 	"/>
	<polygon fill="#3D6480" points="5.343,9.886 5.343,11.786 11.732,11.783 11.732,5.458 9.832,5.458 9.832,8.54 4.606,3.315 
		3.263,4.659 8.489,9.885 	"/>
</g>
</svg>
