<?xml version="1.0" encoding="utf-8"?>
<!-- Generator: Adobe Illustrator 17.0.0, SVG Export Plug-In . SVG Version: 6.00 Build 0)  -->
<!DOCTYPE svg PUBLIC "-//W3C//DTD SVG 1.1//EN" "http://www.w3.org/Graphics/SVG/1.1/DTD/svg11.dtd">
<svg version="1.1" id="Layer_1" xmlns="http://www.w3.org/2000/svg" xmlns:xlink="http://www.w3.org/1999/xlink" x="0px" y="0px"
	 width="42px" height="42px" viewBox="0 0 42 42" enable-background="new 0 0 42 42" xml:space="preserve">
<g>
	<path fill="#3D6480" d="M36.906,33.018c0.02-0.375-0.003-0.755-0.071-1.138l1.308-0.956l-0.177-0.464
		c-0.078-0.205-0.171-0.4-0.268-0.596l-0.228-0.455l-1.553,0.355c-0.104-0.132-0.224-0.264-0.347-0.396
		c-0.142-0.152-0.278-0.288-0.433-0.421l0.383-1.557l-0.432-0.242c-0.198-0.11-0.397-0.209-0.604-0.298l-0.469-0.203l-0.952,1.265
		c-0.364-0.084-0.74-0.126-1.119-0.127l-0.711-1.435l-0.48,0.086c-0.22,0.039-0.441,0.085-0.656,0.148l-0.486,0.144l0.067,1.591
		c-0.317,0.164-0.627,0.374-0.926,0.627l-1.475-0.646l-0.312,0.384c-0.142,0.175-0.271,0.356-0.393,0.542l-0.278,0.426l1.08,1.165
		c-0.148,0.351-0.256,0.712-0.318,1.07l-1.549,0.458l0.005,0.491c0.002,0.22,0.016,0.439,0.041,0.658l0.059,0.508l1.591,0.197
		c0.111,0.37,0.261,0.718,0.447,1.04l-0.909,1.351l0.982,1.054l1.464-0.695l0.058-0.039c0.313,0.204,0.652,0.373,1.018,0.506
		l0.176,1.613l0.491,0.078c0.214,0.033,0.428,0.052,0.646,0.064l0.509,0.027l0.464-1.52c0.404-0.049,0.785-0.14,1.096-0.266
		l1.179,1.121l0.425-0.26c0.188-0.114,0.37-0.244,0.549-0.379l0.409-0.309l-0.625-1.44c0.253-0.272,0.473-0.572,0.667-0.911
		l1.602,0.1l0.162-0.466c0.074-0.211,0.138-0.426,0.19-0.643l0.12-0.502L36.906,33.018z M31.865,36.4c-1.988,0-3.6-1.612-3.6-3.601
		s1.611-3.6,3.6-3.6s3.601,1.611,3.601,3.6S33.854,36.4,31.865,36.4z"/>
	<circle fill="#FFFFFF" cx="31.865" cy="32.8" r="3.6"/>
	<polygon fill="#FFEBCD" points="26.167,17.145 26.167,23.344 29.804,23.344 30.117,23.032 31.417,21.732 31.417,17.145 	"/>
	<polygon fill="#FFEBCD" points="17.167,26.419 17.167,31.669 21.479,31.669 23.367,29.782 23.367,26.419 	"/>
	<path fill="#FFEBCD" d="M24.167,25.618h0.6c0.331,0,0.6-0.269,0.6-0.6v-9c0-0.331-0.269-0.6-0.6-0.6h-9c-0.331,0-0.6,0.269-0.6,0.6
		v9c0,0.331,0.269,0.6,0.6,0.6h0.6v-0.043h0.8v0.043h6.2v-0.043h0.8V25.618z"/>
	<path fill="#FFEBCD" d="M26.167,16.019v0.325h5.25V9.368h-7.25v5.25h0.6C25.539,14.618,26.167,15.247,26.167,16.019z"/>
	<rect x="9.117" y="17.145" fill="#FFEBCD" width="5.25" height="6.199"/>
	<path fill="#FFEBCD" d="M14.367,25.019v-0.874h-5.25v7.524h7.25v-5.25h-0.6C14.995,26.419,14.367,25.79,14.367,25.019z"/>
	<path fill="#FFEBCD" d="M29.004,24.145h-2.837v0.874c0,0.771-0.628,1.4-1.4,1.4h-0.6v2.563l4.25-4.25L29.004,24.145z"/>
	<rect x="17.167" y="9.368" fill="#FFEBCD" width="6.2" height="5.25"/>
	<path fill="#FFEBCD" d="M14.367,16.019c0-0.771,0.628-1.4,1.4-1.4h0.6v-5.25h-7.25v6.976h5.25V16.019z"/>
	<path fill="#3D6480" d="M24.767,26.419c0.772,0,1.4-0.629,1.4-1.4v-0.874h2.837l0.801-0.801h-3.638v-6.199h5.25v4.587l1.7-1.7
		V7.669h-25.7v25.699H19.78l1.699-1.699h-4.313v-5.25h6.2v3.362l0.8-0.8v-2.563H24.767z M24.167,9.368h7.25v6.976h-5.25v-0.325
		c0-0.771-0.628-1.4-1.4-1.4h-0.6V9.368z M17.167,9.368h6.2v5.25h-6.2V9.368z M9.117,9.368h7.25v5.25h-0.6
		c-0.772,0-1.4,0.629-1.4,1.4v0.325h-5.25V9.368z M9.117,17.145h5.25v6.199h-5.25V17.145z M16.367,31.669h-7.25v-7.524h5.25v0.874
		c0,0.771,0.628,1.4,1.4,1.4h0.6V31.669z M23.367,25.576v0.043h-6.2v-0.043h-0.8v0.043h-0.6c-0.331,0-0.6-0.269-0.6-0.6v-9
		c0-0.331,0.269-0.6,0.6-0.6h9c0.331,0,0.6,0.269,0.6,0.6v9c0,0.331-0.269,0.6-0.6,0.6h-0.6v-0.043H23.367z"/>
</g>
</svg>
