<?xml version="1.0" encoding="utf-8"?>
<!-- Generator: Adobe Illustrator 17.0.0, SVG Export Plug-In . SVG Version: 6.00 Build 0)  -->
<!DOCTYPE svg PUBLIC "-//W3C//DTD SVG 1.1//EN" "http://www.w3.org/Graphics/SVG/1.1/DTD/svg11.dtd">
<svg version="1.1" id="Layer_1" xmlns="http://www.w3.org/2000/svg" xmlns:xlink="http://www.w3.org/1999/xlink" x="0px" y="0px"
	 width="42px" height="42px" viewBox="0 0 42 42" enable-background="new 0 0 42 42" xml:space="preserve">
<g>
	<polygon fill="#0CB20F" points="37.782,28.971 30.859,35.893 28.528,33.562 27.184,34.905 30.859,38.58 39.125,30.314 	"/>
	<path fill="#FFECCE" d="M29.181,24.705c-2.221,1.115-6.732,1.19-7.868,1.19c-2.35,0-4.553-0.212-6.203-0.597
		c-0.753-0.176-1.366-0.384-1.846-0.623l0,4.978c0,0.588,2.837,1.734,8.04,1.734h0c1.378,0,2.673-0.093,3.831-0.251l4.045-4.045
		V24.705z"/>
	<path fill="#FFECCE" d="M27.22,24.527c0.885-0.21,1.553-0.472,1.961-0.752v-5.198c-2.221,1.115-6.732,1.19-7.868,1.19
		c-2.35,0-4.553-0.212-6.203-0.597c-0.753-0.176-1.367-0.384-1.846-0.623v5.218c1.054,0.713,3.932,1.33,8.049,1.33
		C23.578,25.095,25.676,24.893,27.22,24.527z"/>
	<path fill="#FFECCE" d="M29.181,11.856v-0.758c-0.192-0.52-3.048-1.479-8.048-1.479c-4.965,0-7.721,0.952-7.868,1.484v0.746
		c1.054,0.713,3.932,1.329,8.049,1.329C25.33,13.179,28.142,12.567,29.181,11.856z"/>
	<path fill="#FFECCE" d="M21.314,18.967c2.264,0,4.362-0.202,5.907-0.568c0.885-0.21,1.553-0.472,1.961-0.752v-4.857
		c-2.221,1.115-6.732,1.19-7.868,1.19c-2.35,0-4.553-0.212-6.203-0.597c-0.753-0.176-1.367-0.384-1.846-0.623l0,4.877
		C14.319,18.35,17.197,18.967,21.314,18.967z"/>
	<path fill="#3D6480" d="M21.305,31.388c-5.202,0-8.04-1.146-8.04-1.734l0-4.978c0.479,0.239,1.093,0.447,1.846,0.623
		c1.65,0.385,3.853,0.597,6.203,0.597c1.135,0,5.647-0.074,7.868-1.19v2.387l1.7-1.7V11.099c0-2.95-7.461-3.18-9.749-3.18
		c-2.877,0-9.568,0.31-9.568,3.18v18.555c0,3.269,8.113,3.435,9.74,3.435h0c0.664,0,1.31-0.023,1.94-0.06l1.891-1.891
		C23.978,31.295,22.684,31.388,21.305,31.388L21.305,31.388z M13.265,11.104c0.147-0.533,2.903-1.484,7.868-1.484
		c5,0,7.856,0.959,8.048,1.479v0.758c-1.04,0.71-3.851,1.322-7.868,1.322c-4.117,0-6.995-0.616-8.049-1.329V11.104z M15.111,13.382
		c1.65,0.385,3.853,0.597,6.203,0.597c1.135,0,5.647-0.075,7.868-1.19v4.857c-0.408,0.28-1.076,0.543-1.961,0.752
		c-1.544,0.366-3.643,0.568-5.907,0.568c-4.116,0-6.995-0.616-8.049-1.33l0-4.877C13.744,12.998,14.358,13.207,15.111,13.382z
		 M13.265,18.547c0.479,0.239,1.093,0.447,1.846,0.623c1.65,0.385,3.853,0.597,6.203,0.597c1.135,0,5.647-0.074,7.868-1.19v5.198
		c-0.408,0.28-1.076,0.543-1.961,0.752c-1.544,0.366-3.643,0.568-5.907,0.568c-4.116,0-6.994-0.616-8.049-1.33V18.547z"/>
</g>
</svg>
