<?xml version="1.0" encoding="utf-8"?>
<!-- Generator: Adobe Illustrator 17.0.0, SVG Export Plug-In . SVG Version: 6.00 Build 0)  -->
<!DOCTYPE svg PUBLIC "-//W3C//DTD SVG 1.1//EN" "http://www.w3.org/Graphics/SVG/1.1/DTD/svg11.dtd">
<svg version="1.1" id="Layer_1" xmlns="http://www.w3.org/2000/svg" xmlns:xlink="http://www.w3.org/1999/xlink" x="0px" y="0px"
	 width="42px" height="42px" viewBox="0 0 42 42" enable-background="new 0 0 42 42" xml:space="preserve">
<g>
	<path fill-rule="evenodd" clip-rule="evenodd" fill="#3D6480" d="M25.976,33.221c-1.52,0-2.031-0.722-2.031-1.711v-3.099
		c0-0.989,0.512-1.711,2.031-1.711c1.519,0,2.03,0.722,2.03,1.711v3.099C28.007,32.499,27.495,33.221,25.976,33.221z M24.832,28.499
		v2.923c0,0.685,0.272,1.01,1.145,1.01c0.872,0,1.145-0.325,1.145-1.01v-2.923c0-0.685-0.272-1.01-1.145-1.01
		C25.103,27.489,24.832,27.815,24.832,28.499z"/>
	<polygon fill-rule="evenodd" clip-rule="evenodd" fill="#3D6480" points="28.695,27.798 30.429,26.8 31.183,26.816 31.183,33.106 
		30.334,33.106 30.315,27.824 29.089,28.51 	"/>
	<path fill-rule="evenodd" clip-rule="evenodd" fill="#3D6480" d="M34.709,33.221c-1.52,0-2.031-0.722-2.031-1.711v-3.099
		c0-0.989,0.512-1.711,2.031-1.711c1.519,0,2.029,0.722,2.029,1.711v3.099C36.738,32.499,36.227,33.221,34.709,33.221z
		 M33.563,28.499v2.923c0,0.685,0.273,1.01,1.146,1.01c0.872,0,1.145-0.325,1.145-1.01v-2.923c0-0.685-0.272-1.01-1.145-1.01
		C33.836,27.489,33.563,27.815,33.563,28.499z"/>
</g>
<g>
	<path fill="#EFF9FE" d="M25.222,12.523V8.265H11.844v24.41h6.772l10.89-10.891l-0.026-9.262H25.222z M17.943,24.253H14.74v-0.801
		h3.203V24.253z M26.643,20.87H14.74V20.07h11.903V20.87z M26.643,17.488H14.74v-0.801h11.903V17.488z"/>
	<polygon fill="#3D6480" points="11.844,32.675 11.844,8.265 25.222,8.265 25.222,12.523 29.48,12.523 29.507,21.784 31.202,20.089 
		31.18,12.533 29.47,10.823 26.922,10.823 26.922,8.275 25.213,6.566 10.144,6.566 10.144,34.374 16.917,34.374 18.616,32.675 	"/>
	<rect x="14.74" y="16.687" fill="#3D6480" width="11.903" height="0.801"/>
	<rect x="14.74" y="20.07" fill="#3D6480" width="11.903" height="0.801"/>
	<rect x="14.74" y="23.452" fill="#3D6480" width="3.203" height="0.801"/>
</g>
</svg>
