<?xml version="1.0" encoding="utf-8"?>
<!-- Generator: Adobe Illustrator 17.0.0, SVG Export Plug-In . SVG Version: 6.00 Build 0)  -->
<!DOCTYPE svg PUBLIC "-//W3C//DTD SVG 1.1//EN" "http://www.w3.org/Graphics/SVG/1.1/DTD/svg11.dtd">
<svg version="1.1" id="Layer_1" xmlns="http://www.w3.org/2000/svg" xmlns:xlink="http://www.w3.org/1999/xlink" x="0px" y="0px"
	 width="42px" height="42px" viewBox="0 0 42 42" enable-background="new 0 0 42 42" xml:space="preserve">
<rect x="15.513" y="17.07" fill="#3D6480" width="11.902" height="0.8"/>
<rect x="15.513" y="20.453" fill="#3D6480" width="11.902" height="0.8"/>
<rect x="15.513" y="23.835" fill="#3D6480" width="3.201" height="0.8"/>
<path fill="#FF9C04" d="M33.409,34.63h0.557l0.393,0.394l0.395-0.394h0.557v-0.557l0.393-0.394l-0.393-0.394V32.73h-0.557
	l-0.395-0.393l-0.393,0.393h-0.557v0.557l-0.394,0.394l0.394,0.394V34.63z M37.62,31.762l-0.967,0.968h2.755v1.9h-2.756l0.96,0.961
	l-1.343,1.343l-0.96-0.96v2.756h-1.9v-2.756l-0.959,0.959l-1.344-1.344l0.959-0.959H29.31v-1.9h2.756l-0.967-0.967l1.344-1.344
	l0.967,0.968v-2.756h1.9v2.756l0.968-0.969L37.62,31.762z"/>
<g>
	<rect x="15.513" y="20.453" fill="none" width="11.902" height="0.8"/>
	<rect x="15.513" y="23.835" fill="none" width="3.201" height="0.8"/>
	<rect x="15.513" y="17.07" fill="none" width="11.902" height="0.8"/>
	<path fill="#EFF9FE" d="M30.252,12.906h-4.257V8.648H12.616v24.409h10.716l6.958-6.958L30.252,12.906z M18.714,24.635h-3.201v-0.8
		h3.201V24.635z M27.415,21.252H15.513v-0.8h11.902V21.252z M27.415,17.87H15.513v-0.8h11.902V17.87z"/>
	<g>
		<polygon fill="none" points="25.995,12.906 25.995,8.648 12.616,8.648 12.616,33.057 23.331,33.057 30.29,26.099 30.29,26.099 
			30.252,12.906 		"/>
		<polygon fill="#3D6480" points="12.616,33.057 12.616,8.648 25.995,8.648 25.995,12.906 30.252,12.906 30.29,26.099 
			31.985,24.403 31.952,12.915 30.242,11.206 27.695,11.206 27.695,8.658 25.984,6.948 10.916,6.948 10.916,34.757 21.631,34.757 
			23.331,33.057 		"/>
	</g>
</g>
</svg>
