<?xml version="1.0" encoding="utf-8"?>
<!-- Generator: Adobe Illustrator 17.0.0, SVG Export Plug-In . SVG Version: 6.00 Build 0)  -->
<!DOCTYPE svg PUBLIC "-//W3C//DTD SVG 1.1//EN" "http://www.w3.org/Graphics/SVG/1.1/DTD/svg11.dtd">
<svg version="1.1" id="Layer_1" xmlns="http://www.w3.org/2000/svg" xmlns:xlink="http://www.w3.org/1999/xlink" x="0px" y="0px"
	 width="42px" height="42px" viewBox="0 0 42 42" enable-background="new 0 0 42 42" xml:space="preserve">
<g>
	<polygon fill="#0CB20F" points="37.31,29.259 30.387,36.181 28.056,33.85 26.712,35.194 30.387,38.868 38.653,30.603 	"/>
	<path fill="#EFF9FE" d="M23.406,17.996c0-1.52-1.191-2.756-2.655-2.756s-2.655,1.236-2.655,2.756v1.83h5.311V17.996z"/>
	<path fill="#EFF9FE" d="M29.539,12.845h-4.257V8.587h-13.38v24.41h11.374l6.302-6.302L29.539,12.845z M25.252,27.145H16.25v-7.318
		h1.045v-1.83c0-1.961,1.551-3.557,3.456-3.557s3.456,1.596,3.456,3.557v1.83h1.045V27.145z"/>
	<path fill="#EFF9FE" d="M17.051,26.344h7.4v-5.717h-7.4V26.344z M20.35,22.803h0.801v1.339H20.35V22.803z"/>
	<polygon fill="#3D6480" points="11.902,8.587 25.282,8.587 25.282,12.845 29.539,12.845 29.579,26.695 31.274,25 31.239,12.856 
		29.529,11.146 26.981,11.146 26.981,8.598 25.271,6.888 10.203,6.888 10.203,34.697 21.577,34.697 23.276,32.997 11.902,32.997 	
		"/>
	<rect x="20.35" y="22.803" fill="#3D6480" width="0.801" height="1.339"/>
	<path fill="#3D6480" d="M24.207,17.996c0-1.961-1.551-3.557-3.456-3.557s-3.456,1.596-3.456,3.557v1.83H16.25v7.318h9.002v-7.318
		h-1.045V17.996z M18.096,17.996c0-1.52,1.191-2.756,2.655-2.756s2.655,1.236,2.655,2.756v1.83h-5.311V17.996z M24.451,20.627v5.717
		h-7.4v-5.717H24.451z"/>
</g>
</svg>
