<?xml version="1.0" encoding="utf-8"?>
<!-- Generator: Adobe Illustrator 17.0.0, SVG Export Plug-In . SVG Version: 6.00 Build 0)  -->
<!DOCTYPE svg PUBLIC "-//W3C//DTD SVG 1.1//EN" "http://www.w3.org/Graphics/SVG/1.1/DTD/svg11.dtd">
<svg version="1.1" id="Layer_1" xmlns="http://www.w3.org/2000/svg" xmlns:xlink="http://www.w3.org/1999/xlink" x="0px" y="0px"
	 width="42px" height="42px" viewBox="0 0 42 42" enable-background="new 0 0 42 42" xml:space="preserve">
<g>
	<path fill="#EFF9FE" d="M25.805,13.115V8.857H12.427v24.41h8.933v-1.842h2.148v-8.977h6.217v4.1l0.375-0.375l-0.037-13.058H25.805z
		 M18.526,24.845h-3.202v-0.801h3.202V24.845z M27.227,21.462H15.324v-0.801h11.903V21.462z M27.227,18.079H15.324v-0.801h11.903
		V18.079z"/>
	<rect x="15.324" y="17.279" fill="#3D6480" width="11.903" height="0.801"/>
	<rect x="15.324" y="20.661" fill="#3D6480" width="11.903" height="0.801"/>
	<rect x="15.324" y="24.044" fill="#3D6480" width="3.202" height="0.801"/>
	<rect x="24.509" y="37.642" fill="#FFFFFF" width="4.217" height="0.92"/>
	<polygon fill="#FFFFFF" points="28.725,31.425 28.725,30.624 26.99,30.624 26.99,30.124 28.725,30.124 28.725,28.181 26.99,28.181 
		26.99,27.681 28.725,27.681 28.725,25.736 26.99,25.736 26.99,25.236 28.725,25.236 28.725,23.448 24.509,23.448 24.509,31.425 	
		"/>
	<polygon fill="#FFFFFF" points="35.686,34.161 35.186,34.161 35.186,32.425 32.927,32.425 32.927,34.161 32.427,34.161 
		32.427,32.425 30.167,32.425 30.167,34.161 29.667,34.161 29.667,32.425 27.407,32.425 27.407,34.161 26.907,34.161 26.907,32.425 
		24.647,32.425 24.647,34.161 24.147,34.161 24.147,32.425 22.36,32.425 22.36,36.642 37.473,36.642 37.473,32.425 35.686,32.425 	
		"/>
	<path fill="#3D6480" d="M38.473,31.425h-8.748v-4.877v-4.1h-6.217v8.977H21.36v1.842h-8.933V8.857h13.378v4.258h4.258l0.037,13.058
		l1.695-1.695l-0.032-11.352l-1.71-1.71h-2.548V8.867l-1.709-1.709H10.727v27.809h10.581l0.053-0.053v2.729h2.148v1.92h6.217v-1.92
		h8.748V31.425z M37.473,36.642H22.36v-4.217h1.787v1.736h0.5v-1.736h2.26v1.736h0.5v-1.736h2.26v1.736h0.5v-1.736h2.26v1.736h0.5
		v-1.736h2.26v1.736h0.5v-1.736h1.787V36.642z M24.509,38.562v-0.92h4.217v0.92H24.509z M28.725,23.448v1.787H26.99v0.5h1.735v1.945
		H26.99v0.5h1.735v1.943H26.99v0.5h1.735v0.801h-4.217v-7.977H28.725z"/>
</g>
</svg>
