<?xml version="1.0" encoding="utf-8"?>
<!-- Generator: Adobe Illustrator 17.0.0, SVG Export Plug-In . SVG Version: 6.00 Build 0)  -->
<!DOCTYPE svg PUBLIC "-//W3C//DTD SVG 1.1//EN" "http://www.w3.org/Graphics/SVG/1.1/DTD/svg11.dtd">
<svg version="1.1" id="Layer_1" xmlns="http://www.w3.org/2000/svg" xmlns:xlink="http://www.w3.org/1999/xlink" x="0px" y="0px"
	 width="42px" height="42px" viewBox="0 0 42 42" enable-background="new 0 0 42 42" xml:space="preserve">
<g>
	<rect x="12.144" y="9.46" fill="none" width="17.618" height="4.481"/>
	<path fill="none" d="M12.144,32.541h17.618V14.742H12.144V32.541z M25.056,19.821h2.373v1.199h-2.373V19.821z M25.056,23.765h2.373
		v1.199h-2.373V23.765z M25.056,27.708h2.373v1.199h-2.373V27.708z M19.756,19.821h2.373v1.199h-2.373V19.821z M19.756,23.765h2.373
		v1.199h-2.373V23.765z M19.756,27.708h2.373v1.199h-2.373V27.708z M14.456,19.821h2.373v1.199h-2.373V19.821z M14.456,23.765h2.373
		v1.199h-2.373V23.765z M14.456,27.708h2.373v1.199h-2.373V27.708z"/>
	<path fill="#3D6480" d="M10.444,7.761V34.24h21.019V7.761H10.444z M12.144,9.46h17.618v4.481H12.144V9.46z M29.762,32.541H12.144
		V14.742h17.618V32.541z"/>
	<rect x="14.456" y="19.821" fill="#3D6480" width="2.373" height="1.199"/>
	<rect x="25.056" y="19.821" fill="#3D6480" width="2.373" height="1.199"/>
	<rect x="19.756" y="19.821" fill="#3D6480" width="2.373" height="1.199"/>
	<rect x="14.456" y="23.765" fill="#3D6480" width="2.373" height="1.199"/>
	<rect x="25.056" y="23.765" fill="#3D6480" width="2.373" height="1.199"/>
	<rect x="19.756" y="23.765" fill="#3D6480" width="2.373" height="1.199"/>
	<rect x="14.456" y="27.708" fill="#3D6480" width="2.373" height="1.199"/>
	<rect x="25.056" y="27.708" fill="#3D6480" width="2.373" height="1.199"/>
	<rect x="19.756" y="27.708" fill="#3D6480" width="2.373" height="1.199"/>
</g>
</svg>
