<?xml version="1.0" encoding="utf-8"?>
<!-- Generator: Adobe Illustrator 17.0.0, SVG Export Plug-In . SVG Version: 6.00 Build 0)  -->
<!DOCTYPE svg PUBLIC "-//W3C//DTD SVG 1.1//EN" "http://www.w3.org/Graphics/SVG/1.1/DTD/svg11.dtd">
<svg version="1.1" id="Layer_1" xmlns="http://www.w3.org/2000/svg" xmlns:xlink="http://www.w3.org/1999/xlink" x="0px" y="0px"
	 width="42px" height="42px" viewBox="0 0 42 42" enable-background="new 0 0 42 42" xml:space="preserve">
<g>
	<path fill="#3D6480" d="M37.906,33.143c0.02-0.375-0.003-0.755-0.071-1.138l1.308-0.956l-0.177-0.464
		c-0.078-0.205-0.171-0.4-0.268-0.596l-0.228-0.455l-1.553,0.355c-0.104-0.132-0.224-0.264-0.347-0.396
		c-0.142-0.152-0.278-0.288-0.433-0.421l0.383-1.557l-0.432-0.242c-0.198-0.11-0.397-0.209-0.604-0.298l-0.469-0.203l-0.952,1.265
		c-0.364-0.084-0.74-0.126-1.119-0.127l-0.711-1.435l-0.48,0.086c-0.22,0.039-0.441,0.085-0.656,0.148l-0.486,0.144l0.067,1.591
		c-0.317,0.164-0.627,0.374-0.926,0.627l-1.475-0.646l-0.312,0.384c-0.142,0.175-0.271,0.356-0.393,0.542l-0.278,0.426l1.08,1.165
		c-0.148,0.351-0.256,0.712-0.318,1.07l-1.549,0.458l0.005,0.491c0.002,0.22,0.016,0.439,0.041,0.658l0.059,0.508l1.591,0.197
		c0.111,0.37,0.261,0.718,0.447,1.04l-0.909,1.351l0.982,1.054l1.464-0.695l0.058-0.039c0.313,0.204,0.652,0.373,1.018,0.506
		l0.176,1.613l0.491,0.078c0.214,0.033,0.428,0.052,0.646,0.064l0.509,0.027l0.464-1.52c0.404-0.049,0.785-0.14,1.096-0.266
		l1.179,1.121l0.425-0.26c0.188-0.114,0.37-0.244,0.549-0.379l0.409-0.309l-0.625-1.44c0.253-0.272,0.473-0.572,0.667-0.911
		l1.602,0.1l0.162-0.466c0.074-0.211,0.138-0.426,0.19-0.643l0.12-0.502L37.906,33.143z M29.266,32.924c0-1.988,1.611-3.6,3.6-3.6
		s3.601,1.611,3.601,3.6s-1.612,3.601-3.601,3.601S29.266,34.912,29.266,32.924z"/>
	<polygon fill="#DBF3DB" points="27.431,14.641 10.291,14.641 10.291,31.697 24.577,31.697 27.431,28.842 	"/>
	<polygon fill="#DBF3DB" points="31.846,9.599 15.183,9.599 10.943,13.84 27.605,13.84 	"/>
	<polygon fill="#DBF3DB" points="28.231,14.346 28.231,28.042 32.257,24.017 32.257,10.321 	"/>
	<path fill="#3D6480" d="M10.291,14.641h17.141v14.201l0.8-0.8V14.346l4.025-4.025v13.696l1.7-1.7V7.9H14.479l-5.889,5.888v19.608
		h14.287l1.699-1.699H10.291V14.641z M15.183,9.599h16.663l-4.241,4.241H10.943L15.183,9.599z"/>
</g>
</svg>
