<?xml version="1.0" encoding="utf-8"?>
<!-- Generator: Adobe Illustrator 17.0.0, SVG Export Plug-In . SVG Version: 6.00 Build 0)  -->
<!DOCTYPE svg PUBLIC "-//W3C//DTD SVG 1.1//EN" "http://www.w3.org/Graphics/SVG/1.1/DTD/svg11.dtd">
<svg version="1.1" id="Layer_1" xmlns="http://www.w3.org/2000/svg" xmlns:xlink="http://www.w3.org/1999/xlink" x="0px" y="0px"
	 width="42px" height="42px" viewBox="0 0 42 42" enable-background="new 0 0 42 42" xml:space="preserve">
<g>
	<rect x="30.889" y="14.23" fill="none" width="4.208" height="7.411"/>
	<rect x="30.889" y="22.442" fill="none" width="4.208" height="6.75"/>
	<polygon fill="#EFF9FE" points="30.889,11.101 30.889,13.43 35.097,13.43 35.097,6.892 12.797,6.892 12.797,11.101 	"/>
	<path fill="#3D6480" d="M36.797,5.192h-25.7v5.908H5.189V36.8h25.7v-5.908h5.908V5.192z M35.097,6.892v6.538h-4.208v-2.329H12.797
		V6.892H35.097z M6.889,20.139h22.3v7.411h-22.3V20.139z M29.189,12.8v6.538h-22.3V12.8H29.189z M6.889,35.101v-6.75h22.3v6.75
		H6.889z M30.889,14.23h4.208v7.411h-4.208V14.23z M30.889,29.192v-6.75h4.208v6.75H30.889z"/>
	<rect x="6.889" y="20.139" fill="#FFFFFF" width="22.3" height="7.411"/>
	<rect x="6.889" y="28.351" fill="#FFFFFF" width="22.3" height="6.75"/>
	<rect x="6.889" y="12.8" fill="#EFF9FE" width="22.3" height="6.538"/>
</g>
</svg>
