<?xml version="1.0" encoding="utf-8"?>
<!-- Generator: Adobe Illustrator 17.0.0, SVG Export Plug-In . SVG Version: 6.00 Build 0)  -->
<!DOCTYPE svg PUBLIC "-//W3C//DTD SVG 1.1//EN" "http://www.w3.org/Graphics/SVG/1.1/DTD/svg11.dtd">
<svg version="1.1" id="Layer_1" xmlns="http://www.w3.org/2000/svg" xmlns:xlink="http://www.w3.org/1999/xlink" x="0px" y="0px"
	 width="42px" height="42px" viewBox="0 0 42 42" enable-background="new 0 0 42 42" xml:space="preserve">
<g>
	<path fill="#FFFFFF" d="M32.096,9.991l0.28,0.137v3.202l1.062,1.132l-0.94,1.78l0.939,0.877l-0.96,2.045l0.724,0.729l1.277-1.276
		v-8.385l0.32-0.123c0.446-0.172,0.845-0.431,1.184-0.77c0.547-0.546,0.88-1.249,0.962-2.033c0.118-1.03-0.232-2.036-0.962-2.765
		c-1.281-1.281-3.517-1.281-4.798,0C30.543,5.182,30.19,6.034,30.19,6.94c0,0.906,0.354,1.759,0.994,2.399
		C31.451,9.607,31.758,9.825,32.096,9.991z M32.611,4.912c0.484-0.484,1.329-0.484,1.815,0c0.128,0.127,0.227,0.278,0.292,0.448
		c0.181,0.473,0.066,1.01-0.292,1.368c-0.243,0.242-0.565,0.376-0.908,0.376s-0.665-0.134-0.908-0.376
		c-0.242-0.242-0.376-0.564-0.376-0.908S32.368,5.155,32.611,4.912z"/>
	<path fill="#FFFFFF" d="M33.86,6.162c0.136-0.135,0.179-0.338,0.11-0.517c-0.023-0.063-0.061-0.118-0.108-0.166
		c-0.093-0.093-0.215-0.144-0.344-0.144s-0.251,0.051-0.342,0.143c-0.092,0.091-0.143,0.213-0.143,0.342s0.051,0.251,0.142,0.342
		C33.359,6.346,33.679,6.346,33.86,6.162z"/>
	<path fill="#3D6480" d="M31.376,10.74v2.986l0.845,0.899l-0.966,1.825l0.967,0.902l-0.946,2.02l1.923,1.938l2.279-2.28v-8.126
		c0.449-0.215,0.855-0.502,1.211-0.858c0.711-0.71,1.143-1.621,1.249-2.632c0.152-1.33-0.303-2.635-1.249-3.58
		c-0.829-0.83-1.933-1.287-3.105-1.287c-1.174,0-2.276,0.457-3.106,1.287S29.19,5.767,29.19,6.94c0,1.174,0.457,2.276,1.287,3.106
		C30.747,10.317,31.048,10.549,31.376,10.74z M31.184,4.541c1.281-1.281,3.517-1.281,4.798,0c0.729,0.729,1.08,1.734,0.962,2.765
		c-0.082,0.784-0.415,1.487-0.962,2.033c-0.339,0.339-0.737,0.598-1.184,0.77l-0.32,0.123v8.385L33.2,19.893l-0.724-0.729
		l0.96-2.045l-0.939-0.877l0.94-1.78l-1.062-1.132v-3.202l-0.28-0.137c-0.338-0.165-0.645-0.384-0.912-0.651
		C30.543,8.699,30.19,7.846,30.19,6.94C30.19,6.034,30.543,5.182,31.184,4.541z"/>
	<path fill="#3D6480" d="M33.519,7.105c0.343,0,0.665-0.134,0.908-0.376c0.358-0.358,0.473-0.896,0.292-1.368
		c-0.065-0.17-0.164-0.321-0.292-0.448c-0.486-0.484-1.331-0.484-1.815,0c-0.243,0.242-0.377,0.564-0.377,0.908
		s0.134,0.666,0.376,0.908C32.854,6.971,33.176,7.105,33.519,7.105z M33.177,5.479c0.091-0.092,0.213-0.143,0.342-0.143
		s0.251,0.051,0.344,0.144c0.048,0.048,0.085,0.104,0.108,0.166c0.068,0.179,0.025,0.382-0.11,0.517
		c-0.182,0.184-0.501,0.184-0.685,0c-0.091-0.091-0.142-0.213-0.142-0.342S33.085,5.57,33.177,5.479z"/>
	<path fill="#3D6480" d="M36.402,34.394c0.053-0.078,0.089-0.167,0.137-0.247l0.179-0.121l-0.082-0.056
		c0.374-0.688,0.606-1.463,0.606-2.3c0-2.678-2.179-4.856-4.857-4.856c-2.678,0-4.856,2.179-4.856,4.856s2.179,4.856,4.856,4.856
		c0.983,0,1.896-0.298,2.661-0.802l3.05,3.051l1.344-1.344L36.402,34.394z M32.384,35.027c-1.851,0-3.356-1.506-3.356-3.356
		c0-1.851,1.506-3.356,3.356-3.356c1.852,0,3.357,1.506,3.357,3.356C35.741,33.521,34.235,35.027,32.384,35.027z"/>
	<polygon fill="#3D6480" points="23.658,17.156 8.837,31.977 8.836,8.728 11.128,8.73 8.017,4.62 4.905,8.725 7.135,8.727 
		7.135,34.977 21.299,34.974 22.999,33.274 9.941,33.276 24.858,18.358 26.534,20.037 27.239,14.932 22.138,15.634 	"/>
</g>
</svg>
