<?xml version="1.0" encoding="utf-8"?>
<!-- Generator: Adobe Illustrator 17.0.0, SVG Export Plug-In . SVG Version: 6.00 Build 0)  -->
<!DOCTYPE svg PUBLIC "-//W3C//DTD SVG 1.1//EN" "http://www.w3.org/Graphics/SVG/1.1/DTD/svg11.dtd">
<svg version="1.1" id="Layer_1" xmlns="http://www.w3.org/2000/svg" xmlns:xlink="http://www.w3.org/1999/xlink" x="0px" y="0px"
	 width="42px" height="42px" viewBox="0 0 42 42" enable-background="new 0 0 42 42" xml:space="preserve">
<g>
	<path fill="#3D6480" d="M37.443,33.157c0.02-0.374-0.003-0.754-0.071-1.137l1.309-0.958l-0.178-0.464
		c-0.078-0.205-0.17-0.401-0.271-0.599l-0.229-0.451l-1.548,0.355c-0.104-0.133-0.224-0.264-0.348-0.396
		c-0.144-0.154-0.28-0.291-0.434-0.422l0.385-1.555l-0.431-0.242c-0.2-0.112-0.401-0.212-0.61-0.301l-0.468-0.198l-0.948,1.263
		c-0.366-0.085-0.741-0.128-1.118-0.128l-0.713-1.438l-0.482,0.088c-0.217,0.04-0.435,0.085-0.649,0.146l-0.491,0.142l0.067,1.596
		c-0.316,0.164-0.625,0.373-0.925,0.626l-1.478-0.645l-0.312,0.386c-0.142,0.176-0.273,0.358-0.393,0.546l-0.271,0.424l1.075,1.159
		c-0.149,0.353-0.256,0.714-0.318,1.072l-1.548,0.457l0.005,0.491c0.002,0.221,0.015,0.438,0.04,0.658l0.058,0.509l1.591,0.197
		c0.112,0.37,0.262,0.718,0.448,1.041l-0.911,1.348l0.984,1.056l1.378-0.646l0.144-0.089c0.316,0.205,0.656,0.375,1.019,0.507
		l0.174,1.613l0.492,0.077c0.214,0.033,0.428,0.051,0.643,0.063l0.511,0.031l0.466-1.522c0.406-0.049,0.787-0.141,1.095-0.267
		l1.176,1.118l0.424-0.254c0.191-0.114,0.375-0.246,0.554-0.382l0.407-0.309l-0.625-1.439c0.252-0.271,0.477-0.577,0.668-0.911
		l1.603,0.099l0.162-0.465c0.074-0.213,0.14-0.43,0.19-0.65l0.113-0.497L37.443,33.157z M28.804,32.939c0-1.988,1.611-3.6,3.6-3.6
		s3.6,1.611,3.6,3.6s-1.611,3.6-3.6,3.6S28.804,34.928,28.804,32.939z"/>
	<circle fill="#FFFFFF" cx="32.403" cy="32.939" r="3.6"/>
	<polygon fill="#3D6480" points="13.963,7.458 27.342,7.458 27.342,11.715 31.6,11.715 31.634,23.64 33.329,21.944 33.3,11.726 
		31.59,10.016 29.042,10.016 29.042,7.469 27.332,5.759 12.263,5.759 12.263,27.797 13.963,27.797 	"/>
	<rect x="16.86" y="15.88" fill="#3D6480" width="11.902" height="0.801"/>
	<rect x="16.86" y="19.263" fill="#3D6480" width="11.902" height="0.801"/>
	<rect x="16.86" y="22.646" fill="#3D6480" width="3.201" height="0.801"/>
	<path fill="#EFF9FE" d="M31.6,11.715h-4.257V7.458H13.963v20.339h-1.7h-0.006V29h9.218v4.799L31.634,23.64L31.6,11.715z
		 M20.062,23.446H16.86v-0.801h3.201V23.446z M28.763,20.064H16.86v-0.801h11.902V20.064z M28.763,16.681H16.86V15.88h11.902V16.681
		z"/>
	<path fill="#EFF9FE" d="M7.062,30v5.413H19.86l0.614-0.614V30H7.062z M19.068,33.106H8.468v-0.801h10.601V33.106z"/>
	<polygon fill="#3D6480" points="12.257,29 6.062,29 6.062,36.413 18.86,36.413 19.86,35.413 7.062,35.413 7.062,30 20.475,30 
		20.475,34.799 21.475,33.799 21.475,29 	"/>
	<rect x="8.468" y="32.306" fill="#3D6480" width="10.601" height="0.801"/>
</g>
</svg>
