<?xml version="1.0" encoding="utf-8"?>
<!-- Generator: Adobe Illustrator 17.0.0, SVG Export Plug-In . SVG Version: 6.00 Build 0)  -->
<!DOCTYPE svg PUBLIC "-//W3C//DTD SVG 1.1//EN" "http://www.w3.org/Graphics/SVG/1.1/DTD/svg11.dtd">
<svg version="1.1" id="Layer_1" xmlns="http://www.w3.org/2000/svg" xmlns:xlink="http://www.w3.org/1999/xlink" x="0px" y="0px"
	 width="42px" height="42px" viewBox="0 0 42 42" enable-background="new 0 0 42 42" xml:space="preserve">
<g>
	<polygon fill="none" points="16.454,21.271 16.454,20.271 16.454,18.185 16.454,17.285 16.454,17.186 9.843,17.186 9.843,24.597 
		16.454,24.597 16.454,24.497 16.454,23.604 	"/>
	<polygon fill="none" points="16.454,25.397 9.843,25.397 9.843,32.147 16.505,32.147 16.505,25.497 16.454,25.497 	"/>
	<polygon fill="none" points="20.42,16.285 21.11,16.285 23.33,16.285 24.02,16.285 24.433,16.285 24.433,9.847 17.305,9.847 
		17.305,16.285 17.51,16.285 18.2,16.285 	"/>
	<polygon fill="none" points="16.454,16.285 16.505,16.285 16.505,9.847 9.843,9.847 9.843,16.385 16.454,16.385 	"/>
	<polygon fill="none" points="21.11,25.497 20.42,25.497 18.2,25.497 17.51,25.497 17.305,25.497 17.305,32.147 24.433,32.147 
		24.433,25.497 24.02,25.497 23.33,25.497 	"/>
	<polygon fill="none" points="25.233,16.285 26.239,16.285 26.93,16.285 29.149,16.285 29.84,16.285 32.091,16.285 32.091,17.285 
		32.091,18.185 32.091,20.271 32.091,21.271 32.091,23.604 32.091,24.497 32.091,25.497 29.84,25.497 29.149,25.497 26.93,25.497 
		26.239,25.497 25.233,25.497 25.233,32.147 32.143,32.147 32.143,9.847 25.233,9.847 	"/>
	<path fill="#3D6480" d="M8.143,8.147v25.699h25.7V8.147H8.143z M9.843,9.847h6.662v6.438h-0.051v0.1H9.843V9.847z M16.505,32.147
		H9.843v-6.75h6.611v0.1h0.051V32.147z M32.143,32.147h-6.91v-6.65h1.006v-1h-2.22v1h0.414v6.65h-7.128v-6.65h0.205v-1h-1.056v0.1
		H9.843v-7.411h6.611v0.1h1.056v-1h-0.205V9.847h7.128v6.438H24.02v1h2.22v-1h-1.006V9.847h6.91V32.147z"/>
	<polygon fill="#FDE7EA" points="26.93,24.497 29.149,24.497 29.149,25.497 29.84,25.497 29.84,24.497 32.091,24.497 32.091,23.604 
		31.091,23.604 31.091,21.271 32.091,21.271 32.091,20.271 31.091,20.271 31.091,18.185 32.091,18.185 32.091,17.285 29.84,17.285 
		29.84,16.285 29.149,16.285 29.149,17.285 26.93,17.285 26.93,16.285 26.239,16.285 26.239,17.285 24.02,17.285 24.02,16.285 
		23.33,16.285 23.33,17.285 21.11,17.285 21.11,16.285 20.42,16.285 20.42,17.285 18.2,17.285 18.2,16.285 17.51,16.285 
		17.51,17.285 16.454,17.285 16.454,18.185 17.462,18.185 17.478,20.271 16.454,20.271 16.454,21.271 17.485,21.271 17.503,23.604 
		16.454,23.604 16.454,24.497 17.51,24.497 17.51,25.497 18.2,25.497 18.2,24.497 20.42,24.497 20.42,25.497 21.11,25.497 
		21.11,24.497 23.33,24.497 23.33,25.497 24.02,25.497 24.02,24.497 26.239,24.497 26.239,25.497 26.93,25.497 	"/>
	<polygon fill="#3D6480" points="17.478,20.271 17.462,18.185 16.454,18.185 16.454,20.271 	"/>
	<polygon fill="#3D6480" points="17.503,23.604 17.485,21.271 16.454,21.271 16.454,23.604 	"/>
	<rect x="26.93" y="24.497" fill="#3D6480" width="2.22" height="1"/>
	<rect x="18.2" y="24.497" fill="#3D6480" width="2.22" height="1"/>
	<rect x="21.11" y="24.497" fill="#3D6480" width="2.22" height="1"/>
	<rect x="18.2" y="16.285" fill="#3D6480" width="2.22" height="1"/>
	<rect x="31.091" y="21.271" fill="#3D6480" width="1" height="2.334"/>
	<rect x="31.091" y="18.185" fill="#3D6480" width="1" height="2.086"/>
	<rect x="26.93" y="16.285" fill="#3D6480" width="2.22" height="1"/>
	<rect x="21.11" y="16.285" fill="#3D6480" width="2.22" height="1"/>
	<rect x="29.84" y="24.497" fill="#3D6480" width="2.251" height="1"/>
	<rect x="29.84" y="16.285" fill="#3D6480" width="2.251" height="1"/>
</g>
</svg>
