<?xml version="1.0" encoding="utf-8"?>
<!-- Generator: Adobe Illustrator 17.0.0, SVG Export Plug-In . SVG Version: 6.00 Build 0)  -->
<!DOCTYPE svg PUBLIC "-//W3C//DTD SVG 1.1//EN" "http://www.w3.org/Graphics/SVG/1.1/DTD/svg11.dtd">
<svg version="1.1" id="Layer_1" xmlns="http://www.w3.org/2000/svg" xmlns:xlink="http://www.w3.org/1999/xlink" x="0px" y="0px"
	 width="42px" height="42px" viewBox="0 0 42 42" enable-background="new 0 0 42 42" xml:space="preserve">
<g>
	<polygon fill="#EFF9FE" points="30.251,12.554 26.722,12.554 26.722,9.025 15.924,9.025 15.924,11.336 22.704,11.336 
		24.412,13.043 24.412,14.864 26.232,14.864 27.94,16.572 27.977,28.965 30.298,28.965 	"/>
	<path fill="#3D6480" d="M32.003,30.666l-0.052-18.103l-1.708-1.708h-1.82v-1.82l-1.709-1.709H14.224v4.011h-4.01v23.34h17.779
		l-0.012-4.01H32.003z M11.915,32.975V13.036h10.797v3.528h3.529l0.048,16.411H11.915z M27.94,16.572l-1.708-1.708h-1.82v-1.82
		l-1.708-1.708h-6.779V9.025h10.798v3.529h3.529l0.047,16.411h-2.321L27.94,16.572z"/>
	<path fill="#EFF9FE" d="M22.711,16.564v-3.528H11.915v19.939h14.374L26.24,16.564H22.711z M17.309,26.182h-3.092v-0.8h3.092V26.182
		z M23.988,23.406h-9.771v-0.8h9.771V23.406z M23.988,20.628h-9.771v-0.8h9.771V20.628z"/>
	<rect x="14.217" y="19.829" fill="#3D6480" width="9.771" height="0.8"/>
	<rect x="14.217" y="22.606" fill="#3D6480" width="9.771" height="0.8"/>
	<rect x="14.217" y="25.382" fill="#3D6480" width="3.092" height="0.8"/>
</g>
</svg>
