<?xml version="1.0" encoding="utf-8"?>
<!-- Generator: Adobe Illustrator 17.0.0, SVG Export Plug-In . SVG Version: 6.00 Build 0)  -->
<!DOCTYPE svg PUBLIC "-//W3C//DTD SVG 1.1//EN" "http://www.w3.org/Graphics/SVG/1.1/DTD/svg11.dtd">
<svg version="1.1" id="Layer_1" xmlns="http://www.w3.org/2000/svg" xmlns:xlink="http://www.w3.org/1999/xlink" x="0px" y="0px"
	 width="42px" height="42px" viewBox="0 0 42 42" enable-background="new 0 0 42 42" xml:space="preserve">
<polygon fill="#0CB20F" points="30.668,38.868 26.993,35.194 28.337,33.85 30.668,36.181 37.591,29.259 38.934,30.603 "/>
<g>
	<path fill="#FFECCE" d="M27.03,24.815c0.885-0.21,1.553-0.472,1.961-0.752v-5.198c-2.221,1.115-6.733,1.19-7.868,1.19
		c-2.35,0-4.553-0.212-6.203-0.597c-0.753-0.176-1.367-0.384-1.846-0.623v5.218c1.054,0.713,3.932,1.33,8.049,1.33
		C23.387,25.383,25.485,25.182,27.03,24.815z"/>
	<path fill="#FFECCE" d="M21.122,26.183c-2.35,0-4.553-0.212-6.203-0.597c-0.753-0.176-1.366-0.384-1.846-0.623v4.978
		c0,0.588,2.838,1.734,8.04,1.734h0c1.498,0,2.903-0.107,4.132-0.292l3.744-3.744v-2.647C26.77,26.109,22.258,26.183,21.122,26.183z
		"/>
	<path fill="#FFECCE" d="M21.122,19.255c2.265,0,4.362-0.202,5.907-0.568c0.885-0.21,1.553-0.472,1.961-0.752v-4.857
		c-2.221,1.115-6.732,1.189-7.867,1.189c-2.35,0-4.553-0.212-6.204-0.597c-0.753-0.176-1.367-0.384-1.847-0.622l0,4.877
		C14.127,18.639,17.005,19.255,21.122,19.255z"/>
	<path fill="#FFECCE" d="M28.991,12.145v-0.758c-0.192-0.52-3.05-1.479-8.05-1.479c-4.965,0-7.72,0.951-7.868,1.484v0.746
		c1.054,0.713,3.933,1.33,8.05,1.33C25.139,13.468,27.951,12.855,28.991,12.145z"/>
	<path fill="#3D6480" d="M21.114,31.676L21.114,31.676c-5.203,0-8.041-1.146-8.041-1.734v-4.978
		c0.479,0.239,1.093,0.447,1.846,0.623c1.65,0.385,3.854,0.597,6.203,0.597c1.135,0,5.647-0.074,7.868-1.19v2.647l1.7-1.7V11.387
		c0-2.95-7.463-3.179-9.75-3.179c-2.876,0-9.567,0.31-9.567,3.179v18.555c0,3.269,8.114,3.435,9.74,3.435h0
		c0.766,0,1.503-0.034,2.222-0.082l1.91-1.91C24.017,31.57,22.612,31.676,21.114,31.676z M13.073,11.392
		c0.147-0.533,2.903-1.484,7.868-1.484c5,0,7.857,0.959,8.05,1.479v0.758c-1.04,0.71-3.851,1.323-7.867,1.323
		c-4.118,0-6.996-0.617-8.05-1.33V11.392z M14.92,13.671c1.65,0.385,3.854,0.597,6.204,0.597c1.135,0,5.646-0.074,7.867-1.189v4.857
		c-0.408,0.28-1.076,0.543-1.961,0.752c-1.545,0.366-3.643,0.568-5.907,0.568c-4.117,0-6.995-0.616-8.049-1.33l0-4.877
		C13.553,13.287,14.167,13.495,14.92,13.671z M13.073,18.836c0.479,0.239,1.093,0.447,1.846,0.623
		c1.65,0.385,3.854,0.597,6.203,0.597c1.135,0,5.647-0.074,7.868-1.19v5.198c-0.408,0.28-1.076,0.543-1.961,0.752
		c-1.545,0.366-3.643,0.568-5.907,0.568c-4.117,0-6.995-0.616-8.049-1.33V18.836z"/>
</g>
</svg>
