<?xml version="1.0" encoding="utf-8"?>
<!-- Generator: Adobe Illustrator 17.0.0, SVG Export Plug-In . SVG Version: 6.00 Build 0)  -->
<!DOCTYPE svg PUBLIC "-//W3C//DTD SVG 1.1//EN" "http://www.w3.org/Graphics/SVG/1.1/DTD/svg11.dtd">
<svg version="1.1" id="Layer_1" xmlns="http://www.w3.org/2000/svg" xmlns:xlink="http://www.w3.org/1999/xlink" x="0px" y="0px"
	 width="42px" height="42px" viewBox="0 0 42 42" enable-background="new 0 0 42 42" xml:space="preserve">
<g>
	<polygon fill="none" points="34.846,32.878 34.289,32.878 33.895,32.484 33.502,32.878 32.945,32.878 32.945,33.435 32.552,33.828 
		32.945,34.222 32.945,34.778 33.502,34.778 33.895,35.172 34.289,34.778 34.846,34.778 34.846,34.222 35.238,33.828 34.846,33.435 
			"/>
	<path fill="#FF9C04" d="M38.944,32.878h-2.755l0.967-0.968l-1.343-1.344l-0.968,0.968v-2.756h-1.9v2.756l-0.967-0.967l-1.344,1.344
		l0.967,0.967h-2.756v1.9h2.756l-0.959,0.959l1.344,1.344l0.959-0.959v2.755h1.9v-2.756l0.96,0.961l1.343-1.344l-0.96-0.96h2.756
		V32.878z M34.846,34.222v0.557h-0.557l-0.395,0.394l-0.393-0.394h-0.557v-0.557l-0.394-0.393l0.394-0.394v-0.557h0.557l0.393-0.394
		l0.395,0.394h0.557v0.557l0.393,0.394L34.846,34.222z"/>
	<polygon fill="#FFEBCD" points="31.035,15.741 22.18,15.741 21.291,15.741 14.054,15.741 14.054,14.041 19.59,14.041 
		17.341,11.793 10.965,11.794 10.965,30.209 26.065,30.209 31.035,25.239 	"/>
	<polygon fill="#3D6480" points="10.965,11.794 17.341,11.793 19.59,14.041 14.054,14.041 14.054,15.741 21.291,15.741 
		22.18,15.741 31.035,15.741 31.035,25.239 32.735,23.539 32.735,14.041 22.18,14.041 21.995,14.041 18.045,10.092 9.265,10.095 
		9.265,31.909 24.365,31.909 26.065,30.209 10.965,30.209 	"/>
</g>
</svg>
