<?xml version="1.0" encoding="utf-8"?>
<!-- Generator: Adobe Illustrator 17.0.0, SVG Export Plug-In . SVG Version: 6.00 Build 0)  -->
<!DOCTYPE svg PUBLIC "-//W3C//DTD SVG 1.1//EN" "http://www.w3.org/Graphics/SVG/1.1/DTD/svg11.dtd">
<svg version="1.1" id="Layer_1" xmlns="http://www.w3.org/2000/svg" xmlns:xlink="http://www.w3.org/1999/xlink" x="0px" y="0px"
	 width="42px" height="42px" viewBox="0 0 42 42" enable-background="new 0 0 42 42" xml:space="preserve">
<g>
	<rect x="26.157" y="10.735" fill="#DBF3DB" width="3.012" height="1.443"/>
	<rect x="26.157" y="13.385" fill="#DBF3DB" width="3.012" height="2.605"/>
	<rect x="26.157" y="26.376" fill="#DBF3DB" width="3.012" height="2.605"/>
	<polygon fill="#DBF3DB" points="30.374,12.079 30.374,13.484 30.374,15.891 30.374,17.196 24.952,17.196 24.952,15.891 
		24.952,13.484 24.952,12.079 24.952,10.735 21.509,10.735 21.509,31.855 29.169,31.855 29.169,30.187 24.952,30.187 24.952,25.171 
		29.069,25.171 30.374,25.171 30.374,26.477 30.374,28.882 30.374,30.287 30.374,31.855 33.295,31.855 33.295,10.735 30.374,10.735 
			"/>
	<rect x="14.62" y="18.345" fill="#EFF9FE" width="3.011" height="5.417"/>
	<path fill="#EFF9FE" d="M21.309,10.735H8.929v21.12h12.38V10.735z M12.355,24.968h-1.205V17.14h1.205V24.968z M13.414,24.968V17.14
		h5.423v7.828H13.414z"/>
	<rect x="11.149" y="17.14" fill="#3D6480" width="1.205" height="7.828"/>
	<path fill="#3D6480" d="M13.414,17.14v7.828h5.423V17.14H13.414z M17.631,23.762H14.62v-5.417h3.011V23.762z"/>
	<path fill="#3D6480" d="M7.229,9.036v24.519h27.767V9.036H7.229z M26.157,13.385h3.012v2.605h-3.012V13.385z M26.157,12.179v-1.443
		h3.012v1.443H26.157z M8.929,10.735h12.38v21.12H8.929V10.735z M29.169,28.981h-3.012v-2.605h3.012V28.981z M33.295,31.855h-2.921
		v-1.568v-1.405v-2.405v-1.306h-1.305h-4.117v5.017h4.217v1.668h-7.66v-21.12h3.443v1.344v1.405v2.406v1.306h5.422v-1.306v-2.406
		v-1.405v-1.344h2.921V31.855z"/>
</g>
</svg>
