<?xml version="1.0" encoding="utf-8"?>
<!-- Generator: Adobe Illustrator 17.0.0, SVG Export Plug-In . SVG Version: 6.00 Build 0)  -->
<!DOCTYPE svg PUBLIC "-//W3C//DTD SVG 1.1//EN" "http://www.w3.org/Graphics/SVG/1.1/DTD/svg11.dtd">
<svg version="1.1" id="Layer_1" xmlns="http://www.w3.org/2000/svg" xmlns:xlink="http://www.w3.org/1999/xlink" x="0px" y="0px"
	 width="42px" height="42px" viewBox="0 0 42 42" enable-background="new 0 0 42 42" xml:space="preserve">
<g>
	<rect x="23.493" y="15.276" fill="none" width="8.18" height="4.976"/>
	<rect x="23.493" y="21.052" fill="none" width="8.18" height="4.846"/>
	<polygon fill="#3D6480" points="15.823,22.902 18.785,25.865 9.198,25.865 9.198,27.064 18.841,27.064 15.827,30.024 
		16.668,30.879 21.123,26.505 16.671,22.054 	"/>
	<polygon fill="#3D6480" points="15.823,11.047 18.785,14.01 9.198,14.01 9.198,15.209 18.841,15.209 15.827,18.169 16.668,19.025 
		21.123,14.651 16.671,10.2 	"/>
	<rect x="23.493" y="25.898" fill="#EFF9FE" width="8.18" height="0.028"/>
	<rect x="23.493" y="26.727" fill="#EFF9FE" width="8.18" height="4.373"/>
	<rect x="23.493" y="9.95" fill="#EFF9FE" width="8.18" height="4.525"/>
	<path fill="#3D6480" d="M21.793,8.25v24.549h11.58V8.25H21.793z M31.672,14.475h-8.18V9.95h8.18V14.475z M31.672,20.251h-8.18
		v-4.976h8.18V20.251z M23.493,26.727h8.18V31.1h-8.18V26.727z M31.672,25.926h-8.18v-0.028v-4.846h8.18v4.846V25.926z"/>
</g>
</svg>
