<?xml version="1.0" encoding="utf-8"?>
<!-- Generator: Adobe Illustrator 17.0.0, SVG Export Plug-In . SVG Version: 6.00 Build 0)  -->
<!DOCTYPE svg PUBLIC "-//W3C//DTD SVG 1.1//EN" "http://www.w3.org/Graphics/SVG/1.1/DTD/svg11.dtd">
<svg version="1.1" id="Layer_1" xmlns="http://www.w3.org/2000/svg" xmlns:xlink="http://www.w3.org/1999/xlink" x="0px" y="0px"
	 width="42px" height="42px" viewBox="0 0 42 42" enable-background="new 0 0 42 42" xml:space="preserve">
<g>
	<rect x="11.65" y="26.601" fill="none" width="8.18" height="4.373"/>
	<rect x="11.65" y="20.927" fill="none" width="8.18" height="4.873"/>
	<rect x="11.65" y="15.15" fill="none" width="8.18" height="4.976"/>
	<path fill="#3D6480" d="M28.679,16.673c0.868,0,1.628-0.369,2.272-1.083c0.336-0.373,0.649-0.871,0.942-1.489l0.078-0.163
		l-0.529-0.321l-0.107,0.156c-0.289,0.425-0.539,0.721-0.752,0.901c-0.375,0.314-0.797,0.469-1.275,0.469
		c-0.679,0-1.21-0.272-1.613-0.827c-0.41-0.572-0.614-1.217-0.614-1.939c0-0.804,0.189-1.424,0.549-1.88
		c0.366-0.464,0.8-0.683,1.308-0.683c0.248,0,0.424,0.047,0.549,0.126c0.108,0.074,0.199,0.211,0.258,0.451l0.092,0.365
		c0.067,0.258,0.18,0.475,0.348,0.63c0.172,0.152,0.377,0.233,0.605,0.233c0.281,0,0.527-0.084,0.693-0.286
		c0.141-0.178,0.219-0.379,0.219-0.597c0-0.479-0.285-0.889-0.773-1.232c-0.494-0.356-1.079-0.53-1.748-0.53
		c-1.068,0-1.961,0.401-2.662,1.198c-0.695,0.792-1.043,1.74-1.043,2.834c0,1.106,0.316,2.006,0.967,2.674
		C27.081,16.336,27.829,16.673,28.679,16.673z"/>
	<polygon fill="#3D6480" points="32.194,27.376 29.232,30.337 29.232,20.751 28.032,20.751 28.032,30.393 25.074,27.38 
		24.217,28.22 28.591,32.676 33.043,28.224 	"/>
	<rect x="11.65" y="9.823" fill="#EFF9FE" width="8.18" height="4.526"/>
	<path fill="#3D6480" d="M9.95,32.673h11.58V8.124H9.95V32.673z M11.65,20.927h8.18V25.8h-8.18V20.927z M11.65,20.126V15.15h8.18
		v4.976H11.65z M19.83,14.35h-8.18V9.823h8.18V14.35z M11.65,30.974v-4.373h8.18v4.373H11.65z"/>
</g>
</svg>
