<?xml version="1.0" encoding="utf-8"?>
<!-- Generator: Adobe Illustrator 17.0.0, SVG Export Plug-In . SVG Version: 6.00 Build 0)  -->
<!DOCTYPE svg PUBLIC "-//W3C//DTD SVG 1.1//EN" "http://www.w3.org/Graphics/SVG/1.1/DTD/svg11.dtd">
<svg version="1.1" id="Layer_1" xmlns="http://www.w3.org/2000/svg" xmlns:xlink="http://www.w3.org/1999/xlink" x="0px" y="0px"
	 width="42px" height="42px" viewBox="0 0 42 42" enable-background="new 0 0 42 42" xml:space="preserve">
<g>
	<polygon fill="#3D6480" points="37.285,32.836 37.285,35.918 32.06,30.693 30.716,32.037 35.943,37.263 32.796,37.263 
		32.797,39.164 39.186,39.161 39.186,32.836 	"/>
	<path fill="#DBF3DB" d="M25.7,13.254V8.996H12.322v24.41h10.545l7.128-7.128l-0.037-13.024H25.7z M15.982,23.219
		c0.324,0,0.851-0.041,1.264-0.113l0.191-0.034l0.118,0.973l-0.161,0.037c-0.411,0.095-1.01,0.154-1.438,0.154
		c-1.439,0-2.079-0.647-2.079-1.813v-2.443c0-1.165,0.64-1.813,2.079-1.813c0.428,0,1.026,0.06,1.438,0.153l0.161,0.037
		l-0.118,0.973l-0.191-0.033c-0.413-0.073-0.939-0.113-1.264-0.113c-0.834,0-1.021,0.193-1.021,0.837v2.36
		C14.96,23.024,15.148,23.219,15.982,23.219z M20.564,24.235c-0.549,0-1.214-0.103-1.715-0.304l-0.141-0.058l0.186-0.933
		l0.195,0.062c0.49,0.152,1.004,0.232,1.491,0.232c0.812,0,0.888-0.172,0.888-0.68c0-0.185-0.001-0.317-0.017-0.418
		c-0.015-0.089-0.038-0.135-0.075-0.171c-0.098-0.097-0.318-0.169-0.911-0.304c-1.414-0.316-1.64-0.643-1.64-1.883
		c0-1.089,0.506-1.613,1.954-1.613c0.495,0,1.085,0.067,1.543,0.188l0.151,0.04l-0.094,0.971l-0.203-0.046
		c-0.428-0.098-0.937-0.153-1.381-0.153c-0.841,0-0.888,0.134-0.888,0.638c0,0.19,0.001,0.324,0.015,0.425
		c0.014,0.089,0.036,0.132,0.069,0.165c0.091,0.093,0.298,0.159,0.874,0.304c1.537,0.382,1.685,0.661,1.685,1.841
		C22.551,23.606,22.184,24.235,20.564,24.235z M26.595,24.152h-1.23l-1.95-5.902h1.077l1.488,4.507l1.486-4.507h1.078L26.595,24.152
		z"/>
	<polygon fill="#3D6480" points="31.658,13.264 29.948,11.554 27.4,11.554 27.4,9.006 25.691,7.297 10.622,7.297 10.622,35.105 
		21.168,35.105 22.867,33.406 12.322,33.406 12.322,8.996 25.7,8.996 25.7,13.254 29.958,13.254 29.995,26.278 31.691,24.583 	"/>
	<path fill="#3D6480" d="M15.982,19.183c0.324,0,0.851,0.04,1.264,0.113l0.191,0.033l0.118-0.973l-0.161-0.037
		c-0.411-0.094-1.01-0.153-1.438-0.153c-1.439,0-2.079,0.647-2.079,1.813v2.443c0,1.165,0.64,1.813,2.079,1.813
		c0.428,0,1.026-0.06,1.438-0.154l0.161-0.037l-0.118-0.973l-0.191,0.034c-0.413,0.072-0.939,0.113-1.264,0.113
		c-0.834,0-1.021-0.194-1.021-0.838v-2.36C14.96,19.377,15.148,19.183,15.982,19.183z"/>
	<path fill="#3D6480" d="M20.866,20.698c-0.576-0.145-0.783-0.211-0.874-0.304c-0.033-0.033-0.056-0.076-0.069-0.165
		c-0.014-0.101-0.015-0.234-0.015-0.425c0-0.504,0.047-0.638,0.888-0.638c0.444,0,0.953,0.056,1.381,0.153l0.203,0.046l0.094-0.971
		l-0.151-0.04c-0.458-0.121-1.048-0.188-1.543-0.188c-1.448,0-1.954,0.524-1.954,1.613c0,1.24,0.226,1.566,1.64,1.883
		c0.593,0.135,0.813,0.207,0.911,0.304c0.037,0.036,0.061,0.082,0.075,0.171c0.016,0.101,0.017,0.233,0.017,0.418
		c0,0.508-0.076,0.68-0.888,0.68c-0.487,0-1.001-0.08-1.491-0.232l-0.195-0.062l-0.186,0.933l0.141,0.058
		c0.501,0.201,1.166,0.304,1.715,0.304c1.62,0,1.987-0.629,1.987-1.696C22.551,21.359,22.404,21.08,20.866,20.698z"/>
	<polygon fill="#3D6480" points="25.98,22.757 24.491,18.25 23.414,18.25 25.365,24.152 26.595,24.152 28.544,18.25 27.466,18.25 	
		"/>
</g>
</svg>
