<?xml version="1.0" encoding="utf-8"?>
<!-- Generator: Adobe Illustrator 17.0.0, SVG Export Plug-In . SVG Version: 6.00 Build 0)  -->
<!DOCTYPE svg PUBLIC "-//W3C//DTD SVG 1.1//EN" "http://www.w3.org/Graphics/SVG/1.1/DTD/svg11.dtd">
<svg version="1.1" id="Layer_1" xmlns="http://www.w3.org/2000/svg" xmlns:xlink="http://www.w3.org/1999/xlink" x="0px" y="0px"
	 width="42px" height="42px" viewBox="0 0 42 42" enable-background="new 0 0 42 42" xml:space="preserve">
<g>
	<path fill="none" d="M33.437,18.655c0.6,1.486,0.299,3.255-0.905,4.458l-0.321,0.321l0.299,0.633l-0.185,0.185
		c0.881,0.357,1.964,0.193,2.658-0.498l1.842-1.842c0.942-0.943,0.942-2.478,0-3.421l-0.375-0.375
		c-0.457-0.456-1.064-0.708-1.711-0.708c-0.601,0-1.164,0.226-1.608,0.625l0.464,0.464L33.437,18.655z"/>
	<path fill="none" d="M31.557,21.634c0.342-0.463,0.499-1.017,0.468-1.567l-0.727,0.727l0.247-1.192l0.314-0.314
		c0,0,0-0.001,0-0.001l-0.671,0.671c-0.456,0.457-0.708,1.064-0.708,1.711c0,0.042,0.01,0.081,0.012,0.122l0.61-0.61L31.557,21.634z
		"/>
	<path fill="none" d="M30.659,22.583l0.672-0.672c0.028-0.028,0.047-0.061,0.074-0.09l-0.75,0.75
		C30.657,22.574,30.657,22.579,30.659,22.583z"/>
	<path fill="none" d="M28.171,19.638l2.031-2.031c-0.299-0.129-0.623-0.2-0.958-0.2c-0.646,0-1.253,0.252-1.71,0.708l-1.842,1.842
		c-0.456,0.457-0.708,1.064-0.708,1.711c0,0.646,0.252,1.253,0.708,1.71l0.375,0.375c0.838,0.835,2.242,0.896,3.176,0.197
		l-0.938,0.025l0.772-0.772c-0.584-1.458-0.297-3.18,0.852-4.379l-1.286,1.285L28.171,19.638z"/>
	<path fill="#3D6480" d="M31.169,31.631H19.838v-7.555c0-2.099-4.873-2.324-6.968-2.324c-2.057,0-6.839,0.226-6.839,2.324v13.112
		c0,2.324,5.327,2.505,6.96,2.505c1.68,0,3.248-0.169,4.417-0.476c1.612-0.424,2.43-1.106,2.43-2.029v-4.757H31.97v-5.528h-0.801
		V31.631z M18.481,37.188c0,0.068-0.252,0.41-1.418,0.716c-1.044,0.274-2.527,0.432-4.071,0.432c-3.917,0-5.603-0.871-5.603-1.147
		l-0.001-3.444c0.328,0.153,0.729,0.288,1.219,0.402c1.169,0.272,2.729,0.423,4.392,0.423c0.79,0,3.871-0.054,5.482-0.808V37.188z
		 M18.481,33.044c-0.758,0.479-2.708,0.887-5.482,0.887c-2.779,0-4.831-0.417-5.611-0.903l-0.001-3.615
		c0.328,0.153,0.73,0.289,1.221,0.404c1.169,0.272,2.729,0.422,4.393,0.422c0.79,0,3.87-0.054,5.481-0.808V33.044z M18.481,28.714
		C17.723,29.192,15.773,29.6,13,29.6c-1.593,0-3.141-0.147-4.247-0.406c-0.662-0.154-1.098-0.329-1.367-0.497l-0.001-3.374
		c0.329,0.153,0.732,0.29,1.223,0.404c1.169,0.272,2.729,0.422,4.393,0.422c0.79,0,3.87-0.054,5.481-0.808V28.714z M18.481,24.624
		C17.723,25.102,15.773,25.51,13,25.51c-1.593,0-3.141-0.147-4.247-0.406c-0.664-0.155-1.1-0.33-1.369-0.498v-0.497
		c0.162-0.338,1.991-0.999,5.487-0.999c3.552,0,5.439,0.669,5.61,0.967V24.624z"/>
	<path fill="#FF9C04" d="M38.026,17.289l-0.375-0.375c-0.777-0.778-1.812-1.207-2.912-1.207c-1.027,0-1.989,0.387-2.747,1.072
		c-0.003-0.003-0.006-0.005-0.009-0.008l-2.053,2.054c-1.148,1.198-1.436,2.921-0.852,4.379l1.413-1.414
		c-0.002-0.041-0.012-0.081-0.012-0.122c0-0.646,0.252-1.254,0.708-1.711l0.671-0.671c0,0,0,0.001,0,0.001l1.265-1.263l0.007,0.007
		c0.444-0.398,1.007-0.625,1.608-0.625c0.646,0,1.254,0.252,1.711,0.708l0.375,0.375c0.942,0.943,0.942,2.478,0,3.421l-1.842,1.842
		c-0.694,0.692-1.776,0.855-2.658,0.498l-1.26,1.26c0.654,0.418,1.412,0.649,2.208,0.649c1.1,0,2.134-0.429,2.911-1.207l1.842-1.842
		C39.632,21.507,39.632,18.894,38.026,17.289z"/>
	<path fill="#FF9C04" d="M32.211,23.433l0.321-0.321c1.204-1.203,1.505-2.971,0.905-4.458l-1.412,1.412
		c0.031,0.55-0.125,1.104-0.468,1.567l0.017,0.017l-0.169,0.169c-0.026,0.029-0.045,0.062-0.074,0.09l-0.672,0.672
		c-0.001-0.004-0.002-0.009-0.004-0.013l-1.379,1.379l-0.032,0.001c-0.934,0.699-2.338,0.638-3.176-0.197l-0.375-0.375
		c-0.456-0.457-0.708-1.064-0.708-1.71c0-0.646,0.252-1.254,0.708-1.711l1.842-1.842c0.457-0.456,1.064-0.708,1.71-0.708
		c0.335,0,0.659,0.071,0.958,0.2l1.25-1.25c-0.654-0.419-1.413-0.65-2.208-0.65c-1.1,0-2.134,0.429-2.911,1.207l-1.842,1.842
		c-1.606,1.605-1.606,4.218,0,5.823l0.375,0.375c0.777,0.778,1.812,1.207,2.912,1.207c1.027,0,1.989-0.387,2.747-1.072
		c0.003,0.003,0.006,0.005,0.01,0.008l1.672-1.672L32.211,23.433z"/>
	<polygon fill="#FFFFFF" points="28.171,19.638 28.644,20.11 29.93,18.825 31.983,16.771 32.413,16.342 32.109,15.701 
		31.453,16.357 30.203,17.607 	"/>
	<polygon fill="#FFFFFF" points="32.51,24.066 32.211,23.433 32.208,23.426 30.535,25.098 29.643,25.989 30.115,26.462 
		31.065,25.512 32.325,24.251 	"/>
	<polygon fill="#FFFFFF" points="31.297,20.794 32.024,20.067 33.437,18.655 33.595,18.496 33.131,18.032 33.124,18.024 
		31.859,19.287 31.544,19.602 	"/>
	<polygon fill="#FFFFFF" points="29.244,23.95 29.276,23.949 30.655,22.57 31.404,21.821 31.574,21.651 31.557,21.634 31.101,21.18 
		30.491,21.79 29.078,23.204 28.306,23.976 	"/>
	<path fill="#FFECCE" d="M8.607,14.146c-0.49-0.114-0.891-0.25-1.219-0.402l0.001,3.444c0,0.276,1.686,1.147,5.603,1.147
		c1.544,0,3.027-0.157,4.071-0.432c1.166-0.306,1.418-0.647,1.418-0.716v-3.427c-1.611,0.754-4.693,0.808-5.482,0.808
		C11.336,14.569,9.776,14.419,8.607,14.146z"/>
	<path fill="#FFECCE" d="M8.607,5.726c-0.491-0.115-0.895-0.25-1.223-0.404l0.001,3.375c0.27,0.168,0.705,0.343,1.367,0.497
		C9.859,9.452,11.407,9.6,13,9.6c2.774,0,4.723-0.408,5.481-0.886V5.34C16.87,6.095,13.789,6.148,13,6.148
		C11.336,6.148,9.776,5.998,8.607,5.726z"/>
	<path fill="#FFECCE" d="M17.165,5.109c0.631-0.15,1.053-0.322,1.316-0.488V4.076c-0.171-0.298-2.059-0.967-5.61-0.967
		c-3.496,0-5.325,0.661-5.487,0.999v0.495C8.161,5.091,10.214,5.51,13,5.51C14.597,5.51,16.076,5.367,17.165,5.109z"/>
	<path fill="#FFECCE" d="M8.607,9.816c-0.491-0.115-0.893-0.25-1.221-0.404l0.001,3.615c0.78,0.487,2.832,0.903,5.611,0.903
		c2.775,0,4.724-0.408,5.482-0.887V9.431c-1.611,0.754-4.692,0.808-5.481,0.808C11.336,10.238,9.776,10.089,8.607,9.816z"/>
	<path fill="#3D6480" d="M12.992,19.693c1.68,0,3.248-0.169,4.417-0.476c1.612-0.424,2.43-1.106,2.43-2.029v-6.775h11.331v4.415
		h0.801V9.612H19.838V4.076c0-2.099-4.873-2.324-6.968-2.324c-2.057,0-6.839,0.226-6.839,2.324v13.112
		C6.032,19.513,11.359,19.693,12.992,19.693z M18.481,17.188c0,0.068-0.252,0.41-1.418,0.716c-1.044,0.274-2.527,0.432-4.071,0.432
		c-3.917,0-5.603-0.871-5.603-1.147l-0.001-3.444c0.328,0.153,0.729,0.288,1.219,0.402c1.169,0.272,2.729,0.423,4.392,0.423
		c0.79,0,3.871-0.054,5.482-0.808V17.188z M18.481,13.044c-0.758,0.479-2.708,0.887-5.482,0.887c-2.779,0-4.831-0.417-5.611-0.903
		L7.386,9.413c0.328,0.153,0.73,0.289,1.221,0.404c1.169,0.272,2.729,0.422,4.393,0.422c0.79,0,3.87-0.054,5.481-0.808V13.044z
		 M18.481,8.714C17.723,9.192,15.773,9.6,13,9.6c-1.593,0-3.141-0.147-4.247-0.406C8.09,9.039,7.655,8.864,7.385,8.696L7.384,5.321
		c0.329,0.154,0.732,0.29,1.223,0.404C9.776,5.998,11.336,6.148,13,6.148c0.79,0,3.87-0.054,5.481-0.808V8.714z M7.383,4.108
		c0.162-0.338,1.991-0.999,5.487-0.999c3.552,0,5.439,0.669,5.61,0.967v0.545c-0.264,0.167-0.685,0.338-1.316,0.488
		c-1.089,0.258-2.567,0.4-4.165,0.4c-2.786,0-4.839-0.418-5.616-0.906V4.108z"/>
	<path fill="#FFECCE" d="M8.607,29.816c-0.491-0.115-0.893-0.25-1.221-0.404l0.001,3.615c0.78,0.487,2.832,0.903,5.611,0.903
		c2.775,0,4.724-0.408,5.482-0.887v-3.613c-1.611,0.754-4.692,0.808-5.481,0.808C11.336,30.238,9.776,30.089,8.607,29.816z"/>
	<path fill="#FFECCE" d="M7.383,24.108v0.497c0.27,0.168,0.706,0.344,1.369,0.498C9.859,25.362,11.407,25.51,13,25.51
		c2.774,0,4.723-0.408,5.481-0.886v-0.548c-0.171-0.298-2.059-0.967-5.61-0.967C9.375,23.109,7.545,23.77,7.383,24.108z"/>
	<path fill="#FFECCE" d="M8.607,25.727c-0.491-0.115-0.895-0.251-1.223-0.404l0.001,3.374c0.27,0.168,0.705,0.343,1.367,0.497
		C9.859,29.452,11.407,29.6,13,29.6c2.774,0,4.723-0.408,5.481-0.886v-3.373c-1.611,0.754-4.692,0.808-5.481,0.808
		C11.336,26.148,9.776,25.999,8.607,25.727z"/>
	<path fill="#FFECCE" d="M8.607,34.146c-0.49-0.114-0.891-0.25-1.219-0.402l0.001,3.444c0,0.276,1.686,1.147,5.603,1.147
		c1.544,0,3.027-0.157,4.071-0.432c1.166-0.306,1.418-0.647,1.418-0.716v-3.427c-1.611,0.754-4.693,0.808-5.482,0.808
		C11.336,34.569,9.776,34.419,8.607,34.146z"/>
</g>
</svg>
