<?xml version="1.0" encoding="utf-8"?>
<!-- Generator: Adobe Illustrator 17.0.0, SVG Export Plug-In . SVG Version: 6.00 Build 0)  -->
<!DOCTYPE svg PUBLIC "-//W3C//DTD SVG 1.1//EN" "http://www.w3.org/Graphics/SVG/1.1/DTD/svg11.dtd">
<svg version="1.1" id="Layer_1" xmlns="http://www.w3.org/2000/svg" xmlns:xlink="http://www.w3.org/1999/xlink" x="0px" y="0px"
	 width="42px" height="42px" viewBox="0 0 42 42" enable-background="new 0 0 42 42" xml:space="preserve">
<g>
	<polygon fill="#EA102A" points="38.689,31.783 37.345,30.439 34.447,33.337 31.548,30.439 30.204,31.783 33.103,34.681 
		30.204,37.579 31.548,38.923 34.447,36.025 37.345,38.923 38.689,37.579 35.79,34.681 	"/>
	<path fill="#FFECCE" d="M14.468,17.653c-0.753-0.176-1.367-0.384-1.846-0.623v5.218c1.054,0.713,3.932,1.33,8.049,1.33
		c2.265,0,4.362-0.202,5.907-0.567c0.885-0.21,1.553-0.472,1.961-0.753v-5.198c-2.221,1.115-6.733,1.19-7.868,1.19
		C18.322,18.249,16.119,18.037,14.468,17.653z"/>
	<path fill="#FFECCE" d="M20.672,24.377h1.206v5.304v0.16c1.749-0.065,3.347-0.262,4.575-0.584c0.326-0.086,0.59-0.173,0.826-0.261
		l1.262-1.262v-4.546C26.319,24.303,21.807,24.377,20.672,24.377z"/>
	<path fill="#FFECCE" d="M12.623,23.158v1.219h8.049c-2.35,0-4.553-0.212-6.203-0.597C13.716,23.605,13.102,23.397,12.623,23.158z"
		/>
	<path fill="#FFECCE" d="M14.469,11.866c-0.753-0.176-1.367-0.384-1.847-0.623l0,4.877c1.054,0.713,3.932,1.33,8.049,1.33
		c2.265,0,4.362-0.202,5.907-0.567c0.885-0.21,1.553-0.472,1.961-0.753v-4.857c-2.221,1.115-6.732,1.19-7.867,1.19
		C18.322,12.462,16.119,12.25,14.469,11.866z"/>
	<path fill="#FFECCE" d="M20.49,8.102c-4.965,0-7.72,0.952-7.868,1.484v0.746c1.054,0.713,3.933,1.33,8.05,1.33
		c4.016,0,6.828-0.613,7.867-1.323V9.581C28.347,9.062,25.49,8.102,20.49,8.102z"/>
	<path fill="#3D6480" d="M30.24,9.581c0-2.95-7.463-3.18-9.75-3.18c-2.876,0-9.567,0.311-9.567,3.18v14.796H3.089v5.304v1.677h1.782
		v-1.677H4.789v-3.604h15.388v3.604h-0.05v1.677h2.375v0.161c0.884-0.048,1.722-0.133,2.5-0.248l2.276-2.276
		c-0.236,0.087-0.5,0.175-0.826,0.261c-1.227,0.323-2.825,0.52-4.575,0.584v-0.16v-5.304h-1.206h-8.049v-1.219
		c0.479,0.239,1.093,0.447,1.846,0.623c1.65,0.385,3.854,0.597,6.203,0.597c1.135,0,5.647-0.075,7.868-1.19v4.546l1.7-1.7V9.581z
		 M28.54,22.257c-0.408,0.281-1.076,0.543-1.961,0.753c-1.545,0.365-3.643,0.567-5.907,0.567c-4.117,0-6.995-0.617-8.049-1.33V17.03
		c0.479,0.239,1.093,0.447,1.846,0.623c1.65,0.385,3.854,0.597,6.203,0.597c1.135,0,5.647-0.075,7.868-1.19V22.257z M28.54,16.129
		c-0.408,0.281-1.076,0.543-1.961,0.753c-1.545,0.365-3.643,0.567-5.907,0.567c-4.117,0-6.995-0.617-8.049-1.33l0-4.877
		c0.479,0.239,1.094,0.447,1.847,0.623c1.65,0.385,3.854,0.597,6.204,0.597c1.135,0,5.646-0.075,7.867-1.19V16.129z M28.54,10.339
		c-1.04,0.71-3.851,1.323-7.867,1.323c-4.118,0-6.996-0.617-8.05-1.33V9.586c0.147-0.532,2.903-1.484,7.868-1.484
		c5,0,7.857,0.96,8.05,1.479V10.339z"/>
	<polygon fill="#EFF9FE" points="20.177,26.077 4.789,26.077 4.789,29.681 4.871,29.681 5.871,29.681 8.434,29.681 9.434,29.681 
		11.999,29.681 12.999,29.681 15.563,29.681 16.563,29.681 19.127,29.681 20.127,29.681 20.177,29.681 	"/>
	<rect x="4.789" y="32.358" fill="#EFF9FE" width="0.082" height="2.311"/>
	<rect x="12.999" y="32.358" fill="#EFF9FE" width="2.564" height="2.311"/>
	<rect x="20.127" y="32.358" fill="#EFF9FE" width="0.05" height="2.311"/>
	<rect x="5.871" y="35.668" fill="#EFF9FE" width="2.563" height="0.007"/>
	<rect x="12.999" y="35.668" fill="#EFF9FE" width="2.564" height="0.007"/>
	<rect x="5.871" y="32.358" fill="#EFF9FE" width="2.563" height="2.311"/>
	<rect x="20.127" y="35.668" fill="#EFF9FE" width="0.05" height="0.007"/>
	<rect x="16.563" y="35.668" fill="#EFF9FE" width="2.563" height="0.007"/>
	<rect x="9.434" y="35.668" fill="#EFF9FE" width="2.564" height="0.007"/>
	<rect x="9.434" y="32.358" fill="#EFF9FE" width="2.564" height="2.311"/>
	<rect x="4.789" y="35.668" fill="#EFF9FE" width="0.082" height="0.007"/>
	<rect x="16.563" y="32.358" fill="#EFF9FE" width="2.563" height="2.311"/>
	<rect x="9.434" y="29.681" fill="#3D6480" width="2.564" height="1.677"/>
	<rect x="5.871" y="29.681" fill="#3D6480" width="2.563" height="1.677"/>
	<rect x="12.999" y="29.681" fill="#3D6480" width="2.564" height="1.677"/>
	<rect x="16.563" y="29.681" fill="#3D6480" width="2.563" height="1.677"/>
	<rect x="12.999" y="35.675" fill="#3D6480" width="2.564" height="1.699"/>
	<rect x="3.089" y="32.358" fill="#3D6480" width="1.7" height="2.311"/>
	<polygon fill="#3D6480" points="20.177,35.675 20.127,35.675 20.127,36.147 20.605,35.668 20.177,35.668 	"/>
	<rect x="9.434" y="35.675" fill="#3D6480" width="2.564" height="1.699"/>
	<rect x="5.871" y="35.675" fill="#3D6480" width="2.563" height="1.699"/>
	<polygon fill="#3D6480" points="4.789,35.668 3.089,35.668 3.089,37.374 4.871,37.374 4.871,35.675 4.789,35.675 	"/>
	<polygon fill="#3D6480" points="20.177,34.668 21.605,34.668 21.877,34.396 21.877,32.358 20.177,32.358 	"/>
	<polygon fill="#3D6480" points="16.563,37.374 18.899,37.374 19.127,37.147 19.127,35.675 16.563,35.675 	"/>
</g>
</svg>
