<?xml version="1.0" encoding="utf-8"?>
<!-- Generator: Adobe Illustrator 17.0.0, SVG Export Plug-In . SVG Version: 6.00 Build 0)  -->
<!DOCTYPE svg PUBLIC "-//W3C//DTD SVG 1.1//EN" "http://www.w3.org/Graphics/SVG/1.1/DTD/svg11.dtd">
<svg version="1.1" id="Layer_1" xmlns="http://www.w3.org/2000/svg" xmlns:xlink="http://www.w3.org/1999/xlink" x="0px" y="0px"
	 width="42px" height="42px" viewBox="0 0 42 42" enable-background="new 0 0 42 42" xml:space="preserve">
<g>
	<polygon fill="#EA102A" points="39.169,31.599 37.825,30.255 34.927,33.153 32.028,30.255 30.685,31.599 33.583,34.497 
		30.685,37.395 32.028,38.739 34.927,35.841 37.825,38.739 39.169,37.395 36.27,34.497 	"/>
	<path fill="#EFF9FE" d="M25.592,12.856V8.598H12.213v24.409h11.305l6.37-6.37l-0.04-13.781H25.592z M18.312,24.585H15.11v-0.8
		h3.201V24.585z M27.013,21.203H15.11v-0.8h11.902V21.203z M27.013,17.82H15.11v-0.8h11.902V17.82z"/>
	<polygon fill="#3D6480" points="31.55,12.865 29.84,11.156 27.292,11.156 27.292,8.608 25.582,6.898 10.513,6.898 10.513,34.707 
		21.819,34.707 23.519,33.007 12.213,33.007 12.213,8.598 25.592,8.598 25.592,12.856 29.85,12.856 29.889,26.637 31.584,24.942 	
		"/>
	<rect x="15.11" y="17.02" fill="#3D6480" width="11.902" height="0.8"/>
	<rect x="15.11" y="20.403" fill="#3D6480" width="11.902" height="0.8"/>
	<rect x="15.11" y="23.786" fill="#3D6480" width="3.201" height="0.8"/>
</g>
</svg>
