<?xml version="1.0" encoding="utf-8"?>
<!-- Generator: Adobe Illustrator 17.0.0, SVG Export Plug-In . SVG Version: 6.00 Build 0)  -->
<!DOCTYPE svg PUBLIC "-//W3C//DTD SVG 1.1//EN" "http://www.w3.org/Graphics/SVG/1.1/DTD/svg11.dtd">
<svg version="1.1" id="Layer_1" xmlns="http://www.w3.org/2000/svg" xmlns:xlink="http://www.w3.org/1999/xlink" x="0px" y="0px"
	 width="42px" height="42px" viewBox="0 0 42 42" enable-background="new 0 0 42 42" xml:space="preserve">
<g>
	<path fill="#EFF9FE" d="M7.749,30.814v5.413h12.5h0.913v-0.913v-4.5H7.749z M19.755,33.921H9.155v-0.8h10.601V33.921z"/>
	<rect x="9.155" y="33.121" fill="#3D6480" width="10.601" height="0.8"/>
	<polygon fill="#EA102A" points="39.606,32.273 38.262,30.929 35.364,33.828 32.465,30.929 31.122,32.273 34.02,35.172 
		31.122,38.071 32.465,39.415 35.364,36.516 38.262,39.415 39.606,38.071 36.708,35.172 	"/>
	<polygon fill="#3D6480" points="14.65,8.273 28.029,8.273 28.029,12.531 32.287,12.531 32.32,24.156 34.015,22.461 33.987,12.54 
		32.277,10.83 29.73,10.83 29.73,8.283 28.019,6.573 12.95,6.573 12.95,28.612 14.65,28.612 	"/>
	<rect x="17.547" y="16.695" fill="#3D6480" width="11.902" height="0.8"/>
	<rect x="17.547" y="20.077" fill="#3D6480" width="11.902" height="0.8"/>
	<rect x="17.547" y="23.46" fill="#3D6480" width="3.201" height="0.8"/>
	<path fill="#EFF9FE" d="M32.287,12.531h-4.257V8.273H14.65v20.339h-1.7h-0.006v1.202h9.218v4.5L32.32,24.156L32.287,12.531z
		 M20.749,24.26h-3.201v-0.8h3.201V24.26z M29.45,20.877H17.547v-0.8H29.45V20.877z M29.45,17.494H17.547v-0.8H29.45V17.494z"/>
	<polygon fill="#3D6480" points="12.944,29.814 6.749,29.814 6.749,37.227 19.249,37.227 20.249,36.227 7.749,36.227 7.749,30.814 
		21.162,30.814 21.162,35.314 22.162,34.314 22.162,29.814 	"/>
</g>
</svg>
