<?xml version="1.0" encoding="utf-8"?>
<!-- Generator: Adobe Illustrator 17.0.0, SVG Export Plug-In . SVG Version: 6.00 Build 0)  -->
<!DOCTYPE svg PUBLIC "-//W3C//DTD SVG 1.1//EN" "http://www.w3.org/Graphics/SVG/1.1/DTD/svg11.dtd">
<svg version="1.1" id="Layer_1" xmlns="http://www.w3.org/2000/svg" xmlns:xlink="http://www.w3.org/1999/xlink" x="0px" y="0px"
	 width="42px" height="42px" viewBox="0 0 42 42" enable-background="new 0 0 42 42" xml:space="preserve">
<g>
	<polygon fill="none" points="28.422,10.853 30.243,10.853 28.422,9.033 	"/>
	<polygon fill="#EA102A" points="39.107,31.796 37.764,30.452 34.865,33.351 31.967,30.452 30.623,31.796 33.521,34.694 
		30.623,37.593 31.967,38.937 34.865,36.038 37.764,38.937 39.107,37.593 36.209,34.694 	"/>
	<polygon fill="#EFF9FE" points="26.722,12.553 26.722,9.025 15.924,9.025 15.924,11.334 22.703,11.334 24.412,13.043 
		24.412,14.864 26.232,14.864 27.94,16.572 27.975,28.299 30.289,25.984 30.251,12.553 	"/>
	<polygon fill="#3D6480" points="31.951,12.561 30.243,10.853 28.422,10.853 28.422,9.033 26.714,7.325 14.224,7.325 14.224,11.334 
		10.214,11.334 10.214,34.675 21.598,34.675 23.298,32.975 11.915,32.975 11.915,13.035 22.711,13.035 22.711,16.564 26.24,16.564 
		26.279,29.994 27.975,28.299 27.94,16.572 26.232,14.864 24.412,14.864 24.412,13.043 22.703,11.334 15.924,11.334 15.924,9.025 
		26.722,9.025 26.722,12.553 30.251,12.553 30.289,25.984 31.985,24.289 	"/>
	<polygon fill="#FFFFFF" points="30.243,10.853 31.951,12.561 32.281,12.892 32.277,6.631 26.025,6.636 26.714,7.325 28.422,9.033 	
		"/>
	<path fill="#EFF9FE" d="M22.711,16.564v-3.529H11.915v19.94h11.384l2.981-2.981l-0.039-13.43H22.711z M17.309,26.182h-3.092v-0.8
		h3.092V26.182z M23.988,23.405h-9.771v-0.8h9.771V23.405z M23.988,20.627h-9.771v-0.8h9.771V20.627z"/>
	<rect x="14.217" y="19.828" fill="#3D6480" width="9.771" height="0.8"/>
	<rect x="14.217" y="22.605" fill="#3D6480" width="9.771" height="0.8"/>
	<rect x="14.217" y="25.382" fill="#3D6480" width="3.092" height="0.8"/>
</g>
</svg>
