<?xml version="1.0" encoding="utf-8"?>
<!-- Generator: Adobe Illustrator 17.0.0, SVG Export Plug-In . SVG Version: 6.00 Build 0)  -->
<!DOCTYPE svg PUBLIC "-//W3C//DTD SVG 1.1//EN" "http://www.w3.org/Graphics/SVG/1.1/DTD/svg11.dtd">
<svg version="1.1" id="Layer_1" xmlns="http://www.w3.org/2000/svg" xmlns:xlink="http://www.w3.org/1999/xlink" x="0px" y="0px"
	 width="42px" height="42px" viewBox="0 0 42 42" enable-background="new 0 0 42 42" xml:space="preserve">
<g>
	<path fill="none" d="M32.109,28.314c-1.851,0-3.356,1.506-3.356,3.356c0,1.851,1.506,3.356,3.356,3.356
		c1.852,0,3.357-1.506,3.357-3.356C35.466,29.82,33.96,28.314,32.109,28.314z"/>
	<path fill="#3D6480" d="M39.163,37.432l-3.037-3.038c0.529-0.777,0.839-1.715,0.839-2.724c0-2.678-2.179-4.856-4.857-4.856
		c-2.678,0-4.856,2.179-4.856,4.856s2.179,4.856,4.856,4.856c0.983,0,1.896-0.298,2.661-0.802l3.05,3.051L39.163,37.432z
		 M32.109,35.027c-1.851,0-3.356-1.506-3.356-3.356c0-1.851,1.506-3.356,3.356-3.356c1.852,0,3.357,1.506,3.357,3.356
		C35.466,33.521,33.96,35.027,32.109,35.027z"/>
</g>
<g>
	<polygon fill="#3D6480" points="9.666,33.276 24.583,18.358 26.259,20.037 26.964,14.932 21.862,15.634 23.382,17.156 
		8.561,31.977 8.56,8.728 10.853,8.73 7.741,4.62 4.63,8.725 6.86,8.727 6.86,34.977 21.524,34.974 23.224,33.274 	"/>
</g>
</svg>
