<?xml version="1.0" encoding="utf-8"?>
<!-- Generator: Adobe Illustrator 17.0.0, SVG Export Plug-In . SVG Version: 6.00 Build 0)  -->
<!DOCTYPE svg PUBLIC "-//W3C//DTD SVG 1.1//EN" "http://www.w3.org/Graphics/SVG/1.1/DTD/svg11.dtd">
<svg version="1.1" id="Layer_1" xmlns="http://www.w3.org/2000/svg" xmlns:xlink="http://www.w3.org/1999/xlink" x="0px" y="0px"
	 width="42px" height="42px" viewBox="0 0 42 42" enable-background="new 0 0 42 42" xml:space="preserve">
<g>
	<polygon fill="none" points="28.669,24.15 28.669,17.388 6.369,17.388 6.369,24.15 11.587,24.15 12.436,24.15 	"/>
	<rect x="6.369" y="9.85" fill="none" width="22.3" height="6.339"/>
	<rect x="13.286" y="25.85" fill="#EFF9FE" width="22.301" height="6.301"/>
	<path fill="#3D6480" d="M30.368,8.15h-25.7V25.85h6.918v8h25.699V24.15h-6.918V8.15z M28.669,9.85v6.339h-22.3V9.85H28.669z
		 M6.369,24.15v-6.763h22.3v6.763H12.436h-0.85H6.369z M35.587,32.15H13.286V25.85h22.301V32.15z"/>
	<path fill="#3D6480" d="M38.594,11.472c-0.588-0.537-1.375-0.806-2.362-0.806c-0.932,0.001-1.683,0.251-2.252,0.751
		c-0.564,0.501-0.904,1.222-1.02,2.162l1.275,0.151c0.109-0.702,0.342-1.219,0.695-1.549c0.354-0.331,0.793-0.496,1.322-0.496
		c0.545,0,1.007,0.184,1.383,0.551c0.377,0.363,0.565,0.785,0.565,1.268c0,0.266-0.064,0.512-0.192,0.736
		c-0.129,0.226-0.409,0.528-0.841,0.909c-0.427,0.377-0.723,0.663-0.888,0.86c-0.226,0.271-0.389,0.54-0.489,0.806
		c-0.138,0.354-0.206,0.774-0.206,1.261c0,0.083,0.002,0.206,0.006,0.372h1.191c0.01-0.496,0.044-0.854,0.104-1.074
		c0.06-0.221,0.152-0.416,0.275-0.586c0.124-0.17,0.389-0.434,0.792-0.792c0.602-0.532,1.005-0.984,1.212-1.356
		s0.311-0.778,0.311-1.219C39.476,12.659,39.181,12.009,38.594,11.472z"/>
	<rect x="35.516" y="19.523" fill="#3D6480" width="1.411" height="1.411"/>
</g>
</svg>
