<?xml version="1.0" encoding="utf-8"?>
<!-- Generator: Adobe Illustrator 17.0.0, SVG Export Plug-In . SVG Version: 6.00 Build 0)  -->
<!DOCTYPE svg PUBLIC "-//W3C//DTD SVG 1.1//EN" "http://www.w3.org/Graphics/SVG/1.1/DTD/svg11.dtd">
<svg version="1.1" id="Layer_1" xmlns="http://www.w3.org/2000/svg" xmlns:xlink="http://www.w3.org/1999/xlink" x="0px" y="0px"
	 width="42px" height="42px" viewBox="0 0 42 42" enable-background="new 0 0 42 42" xml:space="preserve">
<g>
	<path fill="none" d="M32.294,27.749c-2.693,0-4.876,2.183-4.876,4.876c0,2.692,2.183,4.875,4.876,4.875
		c2.691,0,4.875-2.183,4.875-4.875C37.169,29.932,34.985,27.749,32.294,27.749z M33.662,35.16l-2.202-2.202v-3.373h1.5v2.752
		l1.763,1.763L33.662,35.16z"/>
	<polygon fill="#3D6480" points="32.96,29.585 31.46,29.585 31.46,32.958 33.662,35.16 34.722,34.1 32.96,32.337 	"/>
	<path fill="#3D6480" d="M32.294,26.249c-3.521,0-6.376,2.854-6.376,6.376c0,3.521,2.854,6.375,6.376,6.375
		c3.521,0,6.375-2.854,6.375-6.375C38.669,29.104,35.814,26.249,32.294,26.249z M32.294,37.5c-2.693,0-4.876-2.183-4.876-4.875
		c0-2.693,2.183-4.876,4.876-4.876c2.691,0,4.875,2.183,4.875,4.876C37.169,35.317,34.985,37.5,32.294,37.5z"/>
	<rect x="9.512" y="10.087" fill="#EFF9FE" width="22.3" height="6.538"/>
	<path fill="#3D6480" d="M9.512,25.638h20.124l0.801-0.801H9.512v-7.411h22.3v6.036l1.7-1.7V8.388h-25.7v25.699h13.375l1.699-1.699
		H9.512V25.638z M9.512,10.087h22.3v6.538h-22.3V10.087z"/>
</g>
</svg>
