<?xml version="1.0" encoding="utf-8"?>
<!-- Generator: Adobe Illustrator 17.0.0, SVG Export Plug-In . SVG Version: 6.00 Build 0)  -->
<!DOCTYPE svg PUBLIC "-//W3C//DTD SVG 1.1//EN" "http://www.w3.org/Graphics/SVG/1.1/DTD/svg11.dtd">
<svg version="1.1" id="Layer_1" xmlns="http://www.w3.org/2000/svg" xmlns:xlink="http://www.w3.org/1999/xlink" x="0px" y="0px"
	 width="42px" height="42px" viewBox="0 0 42 42" enable-background="new 0 0 42 42" xml:space="preserve">
<g>
	<path fill="none" d="M31.884,29.097c-1.851,0-3.356,1.506-3.356,3.356s1.506,3.356,3.356,3.356c1.852,0,3.357-1.506,3.357-3.356
		S33.735,29.097,31.884,29.097z"/>
	<path fill="#3D6480" d="M38.939,38.216l-3.038-3.038c0.529-0.778,0.84-1.715,0.84-2.725c0-2.678-2.179-4.856-4.857-4.856
		c-2.678,0-4.856,2.179-4.856,4.856s2.179,4.856,4.856,4.856c0.983,0,1.895-0.298,2.661-0.801l3.051,3.051L38.939,38.216z
		 M31.884,35.81c-1.851,0-3.356-1.506-3.356-3.356s1.506-3.356,3.356-3.356c1.852,0,3.357,1.506,3.357,3.356
		S33.735,35.81,31.884,35.81z"/>
	<path fill="#FFECCE" d="M28.77,25.864c-2.221,1.115-6.732,1.189-7.868,1.189c-2.351,0-4.554-0.212-6.203-0.597
		c-0.753-0.175-1.367-0.384-1.847-0.622v4.978c0,0.589,2.838,1.734,8.04,1.734c0.001,0,0.001,0,0.001,0
		c1.243,0,2.419-0.074,3.49-0.204l4.387-4.386V25.864z"/>
	<path fill="#FFECCE" d="M28.77,19.736c-2.221,1.115-6.732,1.189-7.868,1.189c-2.351,0-4.554-0.212-6.203-0.597
		c-0.753-0.175-1.367-0.384-1.847-0.622v5.217c1.053,0.713,3.932,1.33,8.05,1.33c4.018,0,6.83-0.613,7.868-1.323V19.736z"/>
	<path fill="#FFECCE" d="M14.698,14.541c-0.752-0.176-1.366-0.384-1.846-0.623v4.877c1.053,0.713,3.932,1.33,8.05,1.33
		c4.018,0,6.83-0.613,7.868-1.323v-4.854c-2.221,1.115-6.732,1.19-7.868,1.19C18.552,15.138,16.349,14.926,14.698,14.541z"/>
	<path fill="#FFECCE" d="M26.809,13.771c0.886-0.21,1.554-0.473,1.962-0.753v-0.76c-0.192-0.52-3.05-1.479-8.05-1.479
		c-4.963,0-7.72,0.951-7.868,1.483v0.746c1.053,0.714,3.932,1.331,8.05,1.331C23.166,14.338,25.265,14.136,26.809,13.771z"/>
	<path fill="#3D6480" d="M20.893,32.546c-5.202,0-8.04-1.146-8.04-1.734v-4.978c0.479,0.239,1.094,0.447,1.847,0.622
		c1.649,0.385,3.853,0.597,6.203,0.597c1.136,0,5.647-0.074,7.868-1.189v2.092l1.699-1.699v-14c0-2.949-7.462-3.179-9.749-3.179
		c-2.876,0-9.567,0.31-9.567,3.179v18.555c0,3.269,8.113,3.435,9.739,3.435c0.001,0,0.001,0,0.001,0
		c0.554,0,1.097-0.016,1.628-0.041l1.862-1.863C23.313,32.472,22.137,32.546,20.893,32.546
		C20.894,32.546,20.894,32.546,20.893,32.546z M28.77,18.802c-1.039,0.71-3.851,1.323-7.868,1.323c-4.118,0-6.997-0.616-8.05-1.33
		v-4.877c0.479,0.239,1.093,0.447,1.846,0.623c1.65,0.385,3.854,0.597,6.204,0.597c1.136,0,5.647-0.075,7.868-1.19V18.802z
		 M20.902,26.253c-4.118,0-6.997-0.616-8.05-1.33v-5.217c0.479,0.239,1.094,0.447,1.847,0.622c1.649,0.385,3.853,0.597,6.203,0.597
		c1.136,0,5.647-0.074,7.868-1.189v5.194C27.732,25.641,24.92,26.253,20.902,26.253z M12.853,12.262
		c0.148-0.532,2.905-1.483,7.868-1.483c5,0,7.857,0.959,8.05,1.479v0.76c-0.408,0.281-1.076,0.543-1.962,0.753
		c-1.544,0.365-3.643,0.567-5.906,0.567c-4.118,0-6.997-0.617-8.05-1.331V12.262z"/>
</g>
</svg>
