<?xml version="1.0" encoding="utf-8"?>
<!-- Generator: Adobe Illustrator 17.0.0, SVG Export Plug-In . SVG Version: 6.00 Build 0)  -->
<!DOCTYPE svg PUBLIC "-//W3C//DTD SVG 1.1//EN" "http://www.w3.org/Graphics/SVG/1.1/DTD/svg11.dtd">
<svg version="1.1" id="Layer_1" xmlns="http://www.w3.org/2000/svg" xmlns:xlink="http://www.w3.org/1999/xlink" x="0px" y="0px"
	 width="42px" height="42px" viewBox="0 0 42 42" enable-background="new 0 0 42 42" xml:space="preserve">
<g>
	<polygon fill="#FFEBCD" points="15.901,14.748 19.305,18.152 19.417,18.152 28.635,18.152 28.635,26.891 32.135,26.891 
		32.135,14.651 24.617,14.651 23.802,14.651 17.611,14.651 17.611,12.951 22.102,12.951 20.398,11.247 15.065,11.248 15.065,14.748 
			"/>
	<path fill="#3D6480" d="M33.835,28.591V12.951h-9.218h-0.111l-3.404-3.404l-7.737,0.002v5.199l-5.2,0.001v19.044h20.471v-5.201
		H33.835z M9.865,32.092V16.449l5.332-0.001l1.704,1.704H12.41v1.7h6.191h0.816h7.518v12.24H9.865z M20.398,11.247l1.704,1.704
		h-4.491v1.7h6.191h0.815h7.518v12.24h-3.5v-8.739h-9.218h-0.112l-3.404-3.404l-0.836,0v-3.5L20.398,11.247z"/>
	<polygon fill="#FFEBCD" points="26.935,19.852 19.417,19.852 18.601,19.852 12.41,19.852 12.41,18.152 16.901,18.152 
		15.197,16.448 9.865,16.449 9.865,32.092 26.935,32.092 	"/>
	<polygon fill="#EA102A" points="39.107,32.465 37.764,31.121 34.865,34.02 31.967,31.121 30.623,32.465 33.521,35.363 
		30.623,38.262 31.967,39.606 34.865,36.707 37.764,39.606 39.107,38.262 36.209,35.363 	"/>
</g>
</svg>
