<?xml version="1.0" encoding="utf-8"?>
<!-- Generator: Adobe Illustrator 17.0.0, SVG Export Plug-In . SVG Version: 6.00 Build 0)  -->
<!DOCTYPE svg PUBLIC "-//W3C//DTD SVG 1.1//EN" "http://www.w3.org/Graphics/SVG/1.1/DTD/svg11.dtd">
<svg version="1.1" id="Layer_1" xmlns="http://www.w3.org/2000/svg" xmlns:xlink="http://www.w3.org/1999/xlink" x="0px" y="0px"
	 width="42px" height="42px" viewBox="0 0 42 42" enable-background="new 0 0 42 42" xml:space="preserve">
<polygon fill="#0CB20F" points="30.386,39.077 26.71,35.401 28.054,34.058 30.386,36.39 37.308,29.468 38.651,30.812 "/>
<path fill="#DBF3DB" d="M25.28,13.053V8.795H11.901v24.411h11.167l6.509-6.509l-0.039-13.645H25.28z M18.077,22.175
	c0,0.936-0.469,1.695-1.886,1.695h-2.042v-5.739h2.042c1.417,0,1.886,0.759,1.886,1.695V22.175z M22.782,18.998h-1.646v4.872h-0.941
	v-4.872H18.55v-0.867h4.232V18.998z M27.349,22.175c0,0.936-0.469,1.695-1.885,1.695h-2.043v-5.739h2.043
	c1.416,0,1.885,0.759,1.885,1.695V22.175z"/>
<path fill="#DBF3DB" d="M16.167,18.998h-1.076v4.005h1.076c0.771,0,0.969-0.295,0.969-0.878v-2.249
	C17.136,19.293,16.938,18.998,16.167,18.998z"/>
<path fill="#DBF3DB" d="M25.438,18.998h-1.076v4.005h1.076c0.771,0,0.969-0.295,0.969-0.878v-2.249
	C26.407,19.293,26.21,18.998,25.438,18.998z"/>
<polygon fill="#3D6480" points="11.901,33.206 11.901,8.795 25.28,8.795 25.28,13.053 29.537,13.053 29.576,26.697 31.271,25.002 
	31.237,13.063 29.527,11.354 26.98,11.354 26.98,8.806 25.27,7.096 10.201,7.096 10.201,34.905 21.368,34.905 23.067,33.206 "/>
<path fill="#3D6480" d="M16.191,18.131h-2.042v5.739h2.042c1.417,0,1.886-0.76,1.886-1.695v-2.349
	C18.077,18.89,17.608,18.131,16.191,18.131z M17.136,22.125c0,0.583-0.197,0.878-0.969,0.878h-1.076v-4.005h1.076
	c0.771,0,0.969,0.295,0.969,0.878V22.125z"/>
<polygon fill="#3D6480" points="18.55,18.998 20.195,18.998 20.195,23.87 21.137,23.87 21.137,18.998 22.782,18.998 22.782,18.131 
	18.55,18.131 "/>
<path fill="#3D6480" d="M25.464,18.131h-2.043v5.739h2.043c1.416,0,1.885-0.76,1.885-1.695v-2.349
	C27.349,18.89,26.88,18.131,25.464,18.131z M26.407,22.125c0,0.583-0.197,0.878-0.969,0.878h-1.076v-4.005h1.076
	c0.771,0,0.969,0.295,0.969,0.878V22.125z"/>
</svg>
