<?xml version="1.0" encoding="utf-8"?>
<!-- Generator: Adobe Illustrator 17.0.0, SVG Export Plug-In . SVG Version: 6.00 Build 0)  -->
<!DOCTYPE svg PUBLIC "-//W3C//DTD SVG 1.1//EN" "http://www.w3.org/Graphics/SVG/1.1/DTD/svg11.dtd">
<svg version="1.1" id="Layer_1" xmlns="http://www.w3.org/2000/svg" xmlns:xlink="http://www.w3.org/1999/xlink" x="0px" y="0px"
	 width="42px" height="42px" viewBox="0 0 42 42" enable-background="new 0 0 42 42" xml:space="preserve">
<path fill="#EFF9FE" d="M20.805,17.035c-0.776,0-1.102,0.327-1.102,0.892v2.166c0,0.565,0.325,0.892,1.102,0.892
	c0.777,0,1.103-0.326,1.103-0.892v-2.166C21.907,17.362,21.582,17.035,20.805,17.035z"/>
<path fill="#EFF9FE" d="M12.152,8.794v24.41h17.694l-0.058-20.152h-4.257V8.794H12.152z M14.286,21.711V16.31h1.922
	c1.333,0,1.773,0.714,1.773,1.594v2.213c0,0.881-0.44,1.595-1.773,1.595H14.286z M20.008,27.477c0,0.842-0.449,1.454-1.711,1.454
	c-1.263,0-1.712-0.612-1.712-1.454v-2.493c0-0.843,0.449-1.454,1.712-1.454c1.262,0,1.711,0.611,1.711,1.454V27.477z M22.578,28.853
	h-0.865v-4.211l-0.941,0.524l-0.39-0.706l1.478-0.854h0.719V28.853z M22.789,20.108c0,0.93-0.591,1.68-1.984,1.68
	c-1.393,0-1.983-0.75-1.983-1.68v-2.197c0-0.929,0.591-1.68,1.983-1.68c1.394,0,1.984,0.751,1.984,1.68V20.108z M27.035,27.477
	c0,0.842-0.449,1.454-1.711,1.454s-1.711-0.612-1.711-1.454v-2.493c0-0.843,0.449-1.454,1.711-1.454s1.711,0.611,1.711,1.454V27.477
	z M26.871,16.406l0.087,0.022l-0.075,0.778l-0.117-0.026c-0.405-0.092-0.888-0.146-1.309-0.146c-0.813,0-0.899,0.143-0.899,0.666
	c0,0.172-0.001,0.304,0.015,0.407c0.014,0.094,0.04,0.149,0.084,0.192c0.102,0.104,0.32,0.17,0.85,0.303
	c1.418,0.353,1.529,0.591,1.529,1.661c0,0.964-0.313,1.523-1.797,1.523c-0.508,0-1.123-0.095-1.582-0.28l-0.082-0.032l0.15-0.747
	l0.111,0.035c0.467,0.145,0.955,0.221,1.418,0.221c0.789,0,0.9-0.184,0.9-0.704c0-0.169,0-0.299-0.018-0.402
	c-0.015-0.094-0.042-0.151-0.089-0.197c-0.108-0.107-0.339-0.179-0.887-0.303c-1.298-0.29-1.485-0.571-1.485-1.7
	c0-0.975,0.436-1.446,1.766-1.446C25.901,16.232,26.447,16.294,26.871,16.406z"/>
<path fill="#EFF9FE" d="M16.185,17.121h-1.017v3.777h1.017c0.728,0,0.915-0.279,0.915-0.829V17.95
	C17.1,17.4,16.912,17.121,16.185,17.121z"/>
<path fill="#EFF9FE" d="M18.297,24.318c-0.665,0-0.846,0.231-0.846,0.735v2.354c0,0.505,0.181,0.735,0.846,0.735
	c0.664,0,0.844-0.23,0.844-0.735v-2.354C19.141,24.55,18.961,24.318,18.297,24.318z"/>
<path fill="#EFF9FE" d="M25.324,24.318c-0.664,0-0.844,0.231-0.844,0.735v2.354c0,0.505,0.18,0.735,0.844,0.735
	c0.665,0,0.846-0.23,0.846-0.735v-2.354C26.17,24.55,25.989,24.318,25.324,24.318z"/>
<path fill="#3D6480" d="M29.778,11.352h-2.547V8.805L25.52,7.094H10.452v27.811h21.099l-0.063-21.842L29.778,11.352z M29.788,13.052
	l0.058,20.152H12.152V8.794h13.379v4.258H29.788z"/>
<path fill="#EFF9FE" d="M17.981,20.116v-2.213c0-0.88-0.44-1.594-1.773-1.594h-1.922v5.401h1.922
	C17.541,21.711,17.981,20.997,17.981,20.116z M17.1,20.069c0,0.55-0.188,0.829-0.915,0.829h-1.017v-3.777h1.017
	c0.728,0,0.915,0.279,0.915,0.829V20.069z"/>
<path fill="#3D6480" d="M17.981,20.116v-2.213c0-0.88-0.44-1.594-1.773-1.594h-1.922v5.401h1.922
	C17.541,21.711,17.981,20.997,17.981,20.116z M17.1,20.069c0,0.55-0.188,0.829-0.915,0.829h-1.017v-3.777h1.017
	c0.728,0,0.915,0.279,0.915,0.829V20.069z"/>
<path fill="#EFF9FE" d="M20.805,16.232c-1.393,0-1.983,0.751-1.983,1.68v2.197c0,0.93,0.591,1.68,1.983,1.68
	c1.394,0,1.984-0.75,1.984-1.68v-2.197C22.789,16.982,22.198,16.232,20.805,16.232z M21.907,20.093c0,0.565-0.325,0.892-1.103,0.892
	c-0.776,0-1.102-0.326-1.102-0.892v-2.166c0-0.564,0.325-0.892,1.102-0.892c0.777,0,1.103,0.327,1.103,0.892V20.093z"/>
<path fill="#3D6480" d="M20.805,16.232c-1.393,0-1.983,0.751-1.983,1.68v2.197c0,0.93,0.591,1.68,1.983,1.68
	c1.394,0,1.984-0.75,1.984-1.68v-2.197C22.789,16.982,22.198,16.232,20.805,16.232z M21.907,20.093c0,0.565-0.325,0.892-1.103,0.892
	c-0.776,0-1.102-0.326-1.102-0.892v-2.166c0-0.564,0.325-0.892,1.102-0.892c0.777,0,1.103,0.327,1.103,0.892V20.093z"/>
<path fill="#EFF9FE" d="M23.676,17.678c0,1.129,0.188,1.41,1.485,1.7c0.548,0.124,0.778,0.195,0.887,0.303
	c0.047,0.046,0.074,0.104,0.089,0.197c0.018,0.104,0.018,0.233,0.018,0.402c0,0.521-0.111,0.704-0.9,0.704
	c-0.463,0-0.951-0.076-1.418-0.221l-0.111-0.035l-0.15,0.747l0.082,0.032c0.459,0.186,1.074,0.28,1.582,0.28
	c1.484,0,1.797-0.56,1.797-1.523c0-1.07-0.111-1.309-1.529-1.661c-0.529-0.133-0.748-0.199-0.85-0.303
	c-0.044-0.043-0.07-0.099-0.084-0.192c-0.016-0.104-0.015-0.235-0.015-0.407c0-0.523,0.087-0.666,0.899-0.666
	c0.421,0,0.903,0.054,1.309,0.146l0.117,0.026l0.075-0.778l-0.087-0.022c-0.424-0.112-0.97-0.175-1.43-0.175
	C24.111,16.232,23.676,16.702,23.676,17.678z"/>
<path fill="#3D6480" d="M23.676,17.678c0,1.129,0.188,1.41,1.485,1.7c0.548,0.124,0.778,0.195,0.887,0.303
	c0.047,0.046,0.074,0.104,0.089,0.197c0.018,0.104,0.018,0.233,0.018,0.402c0,0.521-0.111,0.704-0.9,0.704
	c-0.463,0-0.951-0.076-1.418-0.221l-0.111-0.035l-0.15,0.747l0.082,0.032c0.459,0.186,1.074,0.28,1.582,0.28
	c1.484,0,1.797-0.56,1.797-1.523c0-1.07-0.111-1.309-1.529-1.661c-0.529-0.133-0.748-0.199-0.85-0.303
	c-0.044-0.043-0.07-0.099-0.084-0.192c-0.016-0.104-0.015-0.235-0.015-0.407c0-0.523,0.087-0.666,0.899-0.666
	c0.421,0,0.903,0.054,1.309,0.146l0.117,0.026l0.075-0.778l-0.087-0.022c-0.424-0.112-0.97-0.175-1.43-0.175
	C24.111,16.232,23.676,16.702,23.676,17.678z"/>
<path fill="#EFF9FE" d="M18.297,23.53c-1.263,0-1.712,0.611-1.712,1.454v2.493c0,0.842,0.449,1.454,1.712,1.454
	c1.262,0,1.711-0.612,1.711-1.454v-2.493C20.008,24.142,19.559,23.53,18.297,23.53z M19.141,27.407c0,0.505-0.18,0.735-0.844,0.735
	c-0.665,0-0.846-0.23-0.846-0.735v-2.354c0-0.504,0.181-0.735,0.846-0.735c0.664,0,0.844,0.231,0.844,0.735V27.407z"/>
<path fill="#3D6480" d="M18.297,23.53c-1.263,0-1.712,0.611-1.712,1.454v2.493c0,0.842,0.449,1.454,1.712,1.454
	c1.262,0,1.711-0.612,1.711-1.454v-2.493C20.008,24.142,19.559,23.53,18.297,23.53z M19.141,27.407c0,0.505-0.18,0.735-0.844,0.735
	c-0.665,0-0.846-0.23-0.846-0.735v-2.354c0-0.504,0.181-0.735,0.846-0.735c0.664,0,0.844,0.231,0.844,0.735V27.407z"/>
<polygon fill="#EFF9FE" points="20.382,24.461 20.771,25.167 21.713,24.643 21.713,28.853 22.578,28.853 22.578,23.607 
	21.859,23.607 "/>
<polygon fill="#3D6480" points="20.382,24.461 20.771,25.167 21.713,24.643 21.713,28.853 22.578,28.853 22.578,23.607 
	21.859,23.607 "/>
<path fill="#EFF9FE" d="M25.324,23.53c-1.262,0-1.711,0.611-1.711,1.454v2.493c0,0.842,0.449,1.454,1.711,1.454
	s1.711-0.612,1.711-1.454v-2.493C27.035,24.142,26.586,23.53,25.324,23.53z M26.17,27.407c0,0.505-0.181,0.735-0.846,0.735
	c-0.664,0-0.844-0.23-0.844-0.735v-2.354c0-0.504,0.18-0.735,0.844-0.735c0.665,0,0.846,0.231,0.846,0.735V27.407z"/>
<path fill="#3D6480" d="M25.324,23.53c-1.262,0-1.711,0.611-1.711,1.454v2.493c0,0.842,0.449,1.454,1.711,1.454
	s1.711-0.612,1.711-1.454v-2.493C27.035,24.142,26.586,23.53,25.324,23.53z M26.17,27.407c0,0.505-0.181,0.735-0.846,0.735
	c-0.664,0-0.844-0.23-0.844-0.735v-2.354c0-0.504,0.18-0.735,0.844-0.735c0.665,0,0.846,0.231,0.846,0.735V27.407z"/>
</svg>
