<?xml version="1.0" encoding="utf-8"?>
<!-- Generator: Adobe Illustrator 17.0.0, SVG Export Plug-In . SVG Version: 6.00 Build 0)  -->
<!DOCTYPE svg PUBLIC "-//W3C//DTD SVG 1.1//EN" "http://www.w3.org/Graphics/SVG/1.1/DTD/svg11.dtd">
<svg version="1.1" id="Layer_1" xmlns="http://www.w3.org/2000/svg" xmlns:xlink="http://www.w3.org/1999/xlink" x="0px" y="0px"
	 width="42px" height="42px" viewBox="0 0 42 42" enable-background="new 0 0 42 42" xml:space="preserve">
<g>
	<path fill="#EFF9FE" d="M32.737,16.733c0-6.157-4.898-11.166-10.918-11.166c-5.881,0-10.773,4.896-10.904,10.915l-0.018,0.572
		L8.356,23.08c-0.054,0.125-0.082,0.292-0.051,0.357c0.014,0.029,0.066,0.07,0.161,0.107h2.436v4.344
		c0.002,0.107,0.084,2.771,3.473,3.729h4.844v4.234h8.91V25.539l0.363-0.244C30.45,23.975,32.737,20.939,32.737,16.733z
		 M13.952,19.178c-0.8,0-1.449-0.649-1.449-1.449c0-0.801,0.649-1.449,1.449-1.449c0.801,0,1.449,0.648,1.449,1.449
		C15.401,18.528,14.753,19.178,13.952,19.178z M23.761,21.945c-4.002,0-7.246-3.244-7.246-7.247c0-4.002,3.244-7.246,7.246-7.246
		s7.246,3.244,7.246,7.246C31.007,18.701,27.763,21.945,23.761,21.945z"/>
	<path fill="#3D6480" d="M21.819,3.924c-6.768,0-12.396,5.618-12.547,12.514l-0.008,0.262L6.86,22.406
		c-0.043,0.09-0.411,0.899-0.058,1.697c0.156,0.35,0.507,0.816,1.293,1.051l1.163,0.033v2.701c0,1.405,1.002,4.33,4.791,5.344
		l3.525,0.028v4.234h12.195V26.398c2.203-1.66,4.609-5.067,4.609-9.665C34.38,9.671,28.745,3.924,21.819,3.924z M28.128,25.539
		v10.313h-8.91v-4.234h-4.844c-3.389-0.958-3.471-3.622-3.473-3.729v-4.344H8.466c-0.094-0.037-0.147-0.078-0.161-0.107
		c-0.03-0.065-0.003-0.232,0.051-0.357l2.541-6.025l0.018-0.572c0.131-6.019,5.023-10.915,10.904-10.915
		c6.02,0,10.918,5.009,10.918,11.166c0,4.206-2.287,7.241-4.246,8.562L28.128,25.539z"/>
	<circle fill="#3D6480" cx="13.952" cy="17.729" r="1.449"/>
	<path fill="#FFFFFF" d="M18.74,15.067c0.183,2.491,2.162,4.469,4.652,4.652v-4.652H18.74z"/>
	<path fill="#FFFFFF" d="M23.761,7.452c-4.002,0-7.246,3.244-7.246,7.246c0,4.003,3.244,7.247,7.246,7.247s7.246-3.244,7.246-7.247
		C31.007,10.696,27.763,7.452,23.761,7.452z M24.13,20.476v0.983h-0.738v-0.983c-2.902-0.184-5.225-2.508-5.409-5.409h-0.981V14.33
		h0.981c0.184-2.902,2.508-5.225,5.409-5.409V7.939h0.738v0.982c2.901,0.184,5.225,2.507,5.409,5.409h0.981v0.737h-0.981
		C29.355,17.968,27.031,20.292,24.13,20.476z"/>
	<path fill="#FFFFFF" d="M28.782,14.33c-0.184-2.491-2.162-4.469-4.652-4.653v4.653H28.782z"/>
	<path fill="#3D6480" d="M30.521,14.33h-0.981c-0.184-2.902-2.508-5.225-5.409-5.409V7.939h-0.738v0.982
		c-2.901,0.184-5.225,2.507-5.409,5.409h-0.981v0.737h0.981c0.184,2.901,2.508,5.225,5.409,5.409v0.983h0.738v-0.983
		c2.902-0.184,5.225-2.508,5.409-5.409h0.981V14.33z M28.782,14.33H24.13V9.677C26.62,9.861,28.598,11.839,28.782,14.33z
		 M18.74,15.067h4.652v4.652C20.901,19.536,18.923,17.558,18.74,15.067z"/>
</g>
</svg>
