<?xml version="1.0" encoding="utf-8"?>
<!-- Generator: Adobe Illustrator 17.0.0, SVG Export Plug-In . SVG Version: 6.00 Build 0)  -->
<!DOCTYPE svg PUBLIC "-//W3C//DTD SVG 1.1//EN" "http://www.w3.org/Graphics/SVG/1.1/DTD/svg11.dtd">
<svg version="1.1" id="Layer_1" xmlns="http://www.w3.org/2000/svg" xmlns:xlink="http://www.w3.org/1999/xlink" x="0px" y="0px"
	 width="42px" height="42px" viewBox="0 0 42 42" enable-background="new 0 0 42 42" xml:space="preserve">
<g>
	<path fill="#DBF3DB" d="M18.635,13.173v24.411h17.694l-0.058-20.153h-4.257v-4.258H18.635z M23.8,28.078l-1.287-2.009l-1.28,2.009
		H20.26l1.75-2.739l-1.695-2.66h0.973l1.226,1.93l1.232-1.93h0.973l-1.703,2.66l1.758,2.739H23.8z M29.684,28.078l-0.091-3.749
		l-1.152,3.08h-1.054l-1.153-3.08l-0.09,3.749H25.28l0.186-5.399h1.028l1.419,3.807l1.42-3.807h1.027l0.187,5.399H29.684z
		 M32.458,22.679v4.584h2.249v0.815h-3.135v-5.399H32.458z"/>
	<path fill="#3D6480" d="M36.262,15.731h-2.548v-2.548l-1.71-1.71H16.935v27.81h21.099L37.972,17.44L36.262,15.731z M36.272,17.431
		l0.058,20.153H18.635V13.173h13.379v4.258H36.272z"/>
	<polygon fill="#3D6480" points="24.718,22.679 23.745,22.679 22.513,24.608 21.287,22.679 20.314,22.679 22.01,25.339 
		20.26,28.078 21.232,28.078 22.513,26.069 23.8,28.078 24.772,28.078 23.015,25.339 	"/>
	<polygon fill="#3D6480" points="29.333,22.679 27.913,26.485 26.494,22.679 25.466,22.679 25.28,28.078 26.144,28.078 
		26.233,24.329 27.387,27.409 28.44,27.409 29.593,24.329 29.684,28.078 30.547,28.078 30.36,22.679 	"/>
	<polygon fill="#3D6480" points="31.572,28.078 34.707,28.078 34.707,27.263 32.458,27.263 32.458,22.679 31.572,22.679 	"/>
	<polygon fill="#3D6480" points="27.634,8.969 25.655,6.99 25.089,7.557 28.006,10.472 30.95,7.526 30.384,6.96 28.434,8.912 
		28.434,4.132 16.857,4.132 16.857,4.933 27.634,4.933 	"/>
	<path fill="#EFF9FE" d="M10.417,4.616H5.77v8.461h7.119V7.091h-2.472V4.616z M7.429,6.448h0.745v0.5H7.429V6.448z M11.229,10.878
		h-3.8v-0.5h3.8V10.878z M11.229,8.413v0.5h-3.8v-0.5H11.229z"/>
	<path fill="#3D6480" d="M12.901,6.091h-1.484V4.604l-0.988-0.988H4.77v10.461h9.12l-0.001-7L12.901,6.091z M12.888,13.077H5.77
		V4.616h4.647v2.475h2.472V13.077z"/>
	<rect x="7.429" y="8.413" fill="#3D6480" width="3.8" height="0.5"/>
	<rect x="7.429" y="10.378" fill="#3D6480" width="3.8" height="0.5"/>
	<rect x="7.429" y="6.448" fill="#3D6480" width="0.745" height="0.5"/>
</g>
</svg>
