<?xml version="1.0" encoding="utf-8"?>
<!-- Generator: Adobe Illustrator 17.0.0, SVG Export Plug-In . SVG Version: 6.00 Build 0)  -->
<!DOCTYPE svg PUBLIC "-//W3C//DTD SVG 1.1//EN" "http://www.w3.org/Graphics/SVG/1.1/DTD/svg11.dtd">
<svg version="1.1" id="Layer_1" xmlns="http://www.w3.org/2000/svg" xmlns:xlink="http://www.w3.org/1999/xlink" x="0px" y="0px"
	 width="42px" height="42px" viewBox="0 0 42 42" enable-background="new 0 0 42 42" xml:space="preserve">
<g>
	<polygon fill="#0CB20F" points="37.559,29.467 30.636,36.389 28.305,34.058 26.961,35.401 30.636,39.076 38.902,30.811 	"/>
	<polygon fill="#FFEBCD" points="28.543,18.437 28.543,15.739 18.799,15.739 14.85,11.791 8.474,11.792 8.474,28.873 12.852,18.437 
			"/>
	<polygon fill="#FFEBCD" points="33.101,19.237 13.384,19.237 8.782,30.207 26.067,30.207 30.53,25.743 	"/>
	<path fill="#3D6480" d="M13.384,19.237h19.717l-2.571,6.506l3.022-3.022l2.073-5.247h-5.382v-3.436h-10.74l-3.949-3.948
		l-8.78,0.001v21.815h17.593l1.7-1.7H8.782L13.384,19.237z M8.474,11.792l6.376-0.001l3.949,3.948h9.744v2.698H12.852L8.474,28.873
		V11.792z"/>
</g>
</svg>
