<?xml version="1.0" encoding="utf-8"?>
<!-- Generator: Adobe Illustrator 17.0.0, SVG Export Plug-In . SVG Version: 6.00 Build 0)  -->
<!DOCTYPE svg PUBLIC "-//W3C//DTD SVG 1.1//EN" "http://www.w3.org/Graphics/SVG/1.1/DTD/svg11.dtd">
<svg version="1.1" id="Layer_1" xmlns="http://www.w3.org/2000/svg" xmlns:xlink="http://www.w3.org/1999/xlink" x="0px" y="0px"
	 width="42px" height="42px" viewBox="0 0 42 42" enable-background="new 0 0 42 42" xml:space="preserve">
<path fill="#FF9C04" d="M28.622,20.049c-0.701-0.176-1.001-0.266-1.145-0.408c-0.129-0.131-0.137-0.32-0.137-0.818
	c0-0.715,0.132-0.912,1.223-0.912c0.563,0,1.207,0.072,1.749,0.193l0.128,0.029l0.094-0.984l-0.094-0.025
	c-0.562-0.148-1.287-0.232-1.897-0.232c-1.761,0-2.325,0.619-2.325,1.9c0,1.49,0.239,1.855,1.957,2.238
	c0.727,0.164,1.043,0.262,1.193,0.41c0.139,0.137,0.149,0.33,0.149,0.816c0,0.711-0.162,0.965-1.224,0.965
	c-0.621,0-1.273-0.102-1.896-0.297l-0.122-0.037l-0.189,0.945l0.089,0.035c0.608,0.246,1.423,0.371,2.097,0.371
	c1.961,0,2.367-0.734,2.367-2.002C30.639,20.824,30.501,20.516,28.622,20.049z"/>
<path fill="#231F20" d="M28.622,20.049c-0.701-0.176-1.001-0.266-1.145-0.408c-0.129-0.131-0.137-0.32-0.137-0.818
	c0-0.715,0.132-0.912,1.223-0.912c0.563,0,1.207,0.072,1.749,0.193l0.128,0.029l0.094-0.984l-0.094-0.025
	c-0.562-0.148-1.287-0.232-1.897-0.232c-1.761,0-2.325,0.619-2.325,1.9c0,1.49,0.239,1.855,1.957,2.238
	c0.727,0.164,1.043,0.262,1.193,0.41c0.139,0.137,0.149,0.33,0.149,0.816c0,0.711-0.162,0.965-1.224,0.965
	c-0.621,0-1.273-0.102-1.896-0.297l-0.122-0.037l-0.189,0.945l0.089,0.035c0.608,0.246,1.423,0.371,2.097,0.371
	c1.961,0,2.367-0.734,2.367-2.002C30.639,20.824,30.501,20.516,28.622,20.049z"/>
<g>
	<path fill="none" d="M30.639,22.236c0-1.412-0.139-1.721-2.018-2.188c-0.701-0.176-1.001-0.266-1.145-0.408
		c-0.129-0.131-0.137-0.32-0.137-0.818c0-0.715,0.132-0.912,1.223-0.912c0.563,0,1.207,0.072,1.749,0.193l0.128,0.029l0.094-0.984
		l-0.094-0.025c-0.562-0.148-1.287-0.232-1.897-0.232c-1.761,0-2.325,0.619-2.325,1.9c0,1.49,0.239,1.855,1.957,2.238
		c0.727,0.164,1.043,0.262,1.193,0.41c0.139,0.137,0.149,0.33,0.149,0.816c0,0.711-0.162,0.965-1.224,0.965
		c-0.621,0-1.273-0.102-1.896-0.297l-0.122-0.037l-0.189,0.945l0.089,0.035c0.608,0.246,1.423,0.371,2.097,0.371
		C30.233,24.238,30.639,23.504,30.639,22.236z"/>
	<path fill="none" d="M16.678,34.656v-0.791c0-0.613-0.291-0.816-0.998-0.816h-1.45v2.424h1.45
		C16.387,35.473,16.678,35.26,16.678,34.656z"/>
	<polygon fill="none" points="28.99,30.818 28.99,36.139 34.695,33.481 	"/>
	<polygon fill="#FF9C04" points="12.008,21.467 14.162,21.467 13.085,18.129 	"/>
	<path fill="#FF9C04" d="M16.301,16.996h1.11l1.482,5.695l0.587-2.482V14.15L8.174,10.43v15.852l11.307,4.074v-6.221h-1.303
		L16.301,16.996z M15.037,24.135l-0.571-1.66h-2.771l-0.56,1.66H9.989l2.412-7.139h1.369l2.411,7.139H15.037z"/>
	<path fill="#FF9C04" d="M27.535,28.097l5.651-5.228v-12.48l-11.307,3.818v3.686l1.134,4.798l1.483-5.695h1.109l-1.877,7.139h-1.436
		l-0.414-1.786v7.712l5.261-1.748v-0.401L27.535,28.097z M26.175,23.867l-0.089-0.035l0.189-0.945l0.122,0.037
		c0.622,0.195,1.274,0.297,1.896,0.297c1.062,0,1.224-0.254,1.224-0.965c0-0.486-0.011-0.68-0.149-0.816
		c-0.15-0.148-0.467-0.246-1.193-0.41c-1.718-0.383-1.957-0.748-1.957-2.238c0-1.281,0.564-1.9,2.325-1.9
		c0.61,0,1.336,0.084,1.897,0.232l0.094,0.025l-0.094,0.984l-0.128-0.029c-0.542-0.121-1.187-0.193-1.749-0.193
		c-1.091,0-1.223,0.197-1.223,0.912c0,0.498,0.008,0.688,0.137,0.818c0.144,0.143,0.443,0.232,1.145,0.408
		c1.879,0.467,2.018,0.775,2.018,2.188c0,1.268-0.406,2.002-2.367,2.002C27.598,24.238,26.784,24.113,26.175,23.867z"/>
	<polygon fill="#FF9C04" points="31.17,8.846 20.552,5.645 9.795,8.707 20.829,12.348 	"/>
	<path fill="#FF9C04" d="M12.401,16.996l-2.412,7.139h1.146l0.56-1.66h2.771l0.571,1.66h1.145l-2.411-7.139H12.401z M12.008,21.467
		l1.076-3.338l1.077,3.338H12.008z"/>
	<path fill="#231F20" d="M12.401,16.996l-2.412,7.139h1.146l0.56-1.66h2.771l0.571,1.66h1.145l-2.411-7.139H12.401z M12.008,21.467
		l1.076-3.338l1.077,3.338H12.008z"/>
	<polygon fill="#231F20" points="21.668,16.996 20.241,16.996 19.481,20.209 19.481,24.135 19.614,24.135 20.954,18.355 
		21.879,22.349 21.879,17.893 	"/>
	<polygon fill="#231F20" points="21.668,16.996 20.241,16.996 19.481,20.209 19.481,24.135 19.614,24.135 20.954,18.355 
		21.879,22.349 21.879,17.893 	"/>
	<polygon fill="#FF9C04" points="18.894,22.691 17.412,16.996 16.301,16.996 18.178,24.135 19.481,24.135 19.481,20.209 	"/>
	<polygon fill="#231F20" points="18.894,22.691 17.412,16.996 16.301,16.996 18.178,24.135 19.481,24.135 19.481,20.209 	"/>
	<polygon fill="#FF9C04" points="23.729,24.135 25.606,16.996 24.497,16.996 23.013,22.691 21.879,17.893 21.879,22.349 
		22.294,24.135 	"/>
	<polygon fill="#231F20" points="23.729,24.135 25.606,16.996 24.497,16.996 23.013,22.691 21.879,17.893 21.879,22.349 
		22.294,24.135 	"/>
	<polygon fill="#231F20" points="3.206,35.404 5.545,35.404 5.545,34.953 3.206,34.953 3.206,33.049 5.727,33.049 5.727,32.596 
		2.68,32.596 2.68,37.9 5.735,37.9 5.735,37.449 3.206,37.449 	"/>
	<polygon fill="#231F20" points="3.206,35.404 5.545,35.404 5.545,34.953 3.206,34.953 3.206,33.049 5.727,33.049 5.727,32.596 
		2.68,32.596 2.68,37.9 5.735,37.9 5.735,37.449 3.206,37.449 	"/>
	<polygon fill="#231F20" points="11.27,32.596 9.626,37.01 7.98,32.596 7.233,32.596 7.049,37.9 7.55,37.9 7.655,33.541 
		7.833,33.512 9.21,37.193 10.04,37.193 11.419,33.512 11.594,33.541 11.7,37.9 12.2,37.9 12.016,32.596 	"/>
	<polygon fill="#231F20" points="11.27,32.596 9.626,37.01 7.98,32.596 7.233,32.596 7.049,37.9 7.55,37.9 7.655,33.541 
		7.833,33.512 9.21,37.193 10.04,37.193 11.419,33.512 11.594,33.541 11.7,37.9 12.2,37.9 12.016,32.596 	"/>
	<path fill="#231F20" d="M16.397,35.836c0.586-0.166,0.808-0.566,0.808-1.189v-0.791c0-0.783-0.364-1.26-1.499-1.26h-2.002V37.9
		h0.526v-1.984h1.482l1.313,1.904l0.362-0.335l-1.113-1.614L16.397,35.836z M15.68,35.473h-1.45v-2.424h1.45
		c0.707,0,0.998,0.203,0.998,0.816v0.791C16.678,35.26,16.387,35.473,15.68,35.473z"/>
	<path fill="#231F20" d="M16.397,35.836c0.586-0.166,0.808-0.566,0.808-1.189v-0.791c0-0.783-0.364-1.26-1.499-1.26h-2.002V37.9
		h0.526v-1.984h1.482l1.313,1.904l0.362-0.335l-1.113-1.614L16.397,35.836z M15.68,35.473h-1.45v-2.424h1.45
		c0.707,0,0.998,0.203,0.998,0.816v0.791C16.678,35.26,16.387,35.473,15.68,35.473z"/>
	<path fill="#0CB20F" d="M39.072,33.483l-11.537-5.387l-0.395-0.184v0.401v10.728L39.072,33.483z M28.99,30.818l5.705,2.663
		l-5.705,2.657V30.818z"/>
</g>
</svg>
