<?xml version="1.0" encoding="utf-8"?>
<!-- Generator: Adobe Illustrator 17.0.0, SVG Export Plug-In . SVG Version: 6.00 Build 0)  -->
<!DOCTYPE svg PUBLIC "-//W3C//DTD SVG 1.1//EN" "http://www.w3.org/Graphics/SVG/1.1/DTD/svg11.dtd">
<svg version="1.1" id="Layer_1" xmlns="http://www.w3.org/2000/svg" xmlns:xlink="http://www.w3.org/1999/xlink" x="0px" y="0px"
	 width="42px" height="42px" viewBox="0 0 42 42" enable-background="new 0 0 42 42" xml:space="preserve">
<g>
	<path fill="none" d="M32.418,25.706c-1.6,0-2.121,0.608-2.121,1.878v5.251c0,1.27,0.521,1.878,2.121,1.878
		c1.6,0,2.121-0.608,2.121-1.878v-5.251C34.539,26.314,34.018,25.706,32.418,25.706z"/>
	<rect x="5.229" y="11.316" fill="none" width="3.726" height="1.932"/>
	<rect x="14.029" y="16.814" fill="none" width="1.932" height="15.736"/>
	<rect x="21.034" y="11.316" fill="none" width="15.737" height="1.932"/>
	<path fill="#3D6480" d="M21.034,9.617V7.75H8.955v1.867H3.529v5.33h5.426v1.867h3.375V34.25h5.33V16.814h3.374v-1.867h17.437v-5.33
		H21.034z M10.654,15.115V9.449h8.681v5.666H10.654z M5.229,13.248v-1.932h3.726v1.932H5.229z M15.961,32.551h-1.932V16.814h1.932
		V32.551z M36.771,13.248H21.034v-1.932h15.737V13.248z"/>
	<rect x="10.654" y="9.449" fill="#FFFFFF" width="8.681" height="5.666"/>
	<path fill="#EC0800" d="M32.418,24.419c-2.695,0-3.582,1.27-3.582,3.008v5.565c0,1.738,0.887,3.008,3.582,3.008S36,34.73,36,32.992
		v-5.565C36,25.688,35.113,24.419,32.418,24.419z M34.539,32.835c0,1.27-0.521,1.878-2.121,1.878c-1.6,0-2.121-0.608-2.121-1.878
		v-5.251c0-1.27,0.521-1.878,2.121-1.878c1.6,0,2.121,0.608,2.121,1.878V32.835z"/>
</g>
</svg>
