<?xml version="1.0" encoding="utf-8"?>
<!-- Generator: Adobe Illustrator 17.0.0, SVG Export Plug-In . SVG Version: 6.00 Build 0)  -->
<!DOCTYPE svg PUBLIC "-//W3C//DTD SVG 1.1//EN" "http://www.w3.org/Graphics/SVG/1.1/DTD/svg11.dtd">
<svg version="1.1" id="Layer_1" xmlns="http://www.w3.org/2000/svg" xmlns:xlink="http://www.w3.org/1999/xlink" x="0px" y="0px"
	 width="42px" height="42px" viewBox="0 0 42 42" enable-background="new 0 0 42 42" xml:space="preserve">
<g>
	<path fill="#EFF9FE" d="M25.596,24.015c0.089,0.078,0.163,0.16,0.234,0.253c0.454,0.479,1.046,0.895,1.707,1.171
		c0.631,0.267,1.301,0.401,1.992,0.401c2.835,0,5.141-2.307,5.141-5.142s-2.306-5.142-5.141-5.142c-0.689,0-1.359,0.135-1.992,0.4
		c-0.639,0.27-1.215,0.667-1.71,1.184c-0.08,0.104-0.165,0.192-0.258,0.271c-0.332,0.274-0.718,0.417-1.122,0.417
		c-0.936,0-1.707-0.735-1.756-1.675l-0.001-0.14V6.958H7.331v8.678c0.148-0.078,0.299-0.15,0.454-0.215
		c0.703-0.296,1.449-0.445,2.218-0.445c3.156,0,5.724,2.567,5.724,5.723s-2.568,5.723-5.724,5.723c-0.769,0-1.515-0.149-2.218-0.445
		c-0.154-0.064-0.306-0.137-0.454-0.215v9.282h15.358l0.001-9.792c0.049-0.939,0.82-1.675,1.756-1.675
		C24.867,23.576,25.264,23.728,25.596,24.015z"/>
	<path fill="#3D6480" d="M29.528,13.857c-0.917,0-1.808,0.179-2.651,0.533c-0.873,0.367-1.654,0.911-2.32,1.616l-0.111,0.122
		l-0.057-0.115V5.259H5.63V19.46l1.465-1.533c0.395-0.413,0.848-0.729,1.348-0.939c0.493-0.207,1.017-0.313,1.559-0.313
		c2.219,0,4.023,1.805,4.023,4.023s-1.805,4.023-4.023,4.023c-0.542,0-1.066-0.105-1.559-0.313c-0.499-0.209-0.952-0.525-1.347-0.94
		L5.63,21.927v14.815h18.759V25.391l-0.85-0.095l0.928-0.012l0.069,0.083c0.671,0.717,1.459,1.269,2.341,1.639
		c0.84,0.354,1.732,0.533,2.651,0.533c3.772,0,6.841-3.068,6.841-6.841S33.301,13.857,29.528,13.857z M22.69,25.251l-0.001,9.792
		H7.331v-9.282c0.148,0.078,0.299,0.15,0.454,0.215c0.703,0.296,1.449,0.445,2.218,0.445c3.156,0,5.724-2.567,5.724-5.723
		s-2.568-5.723-5.724-5.723c-0.769,0-1.515,0.149-2.218,0.445c-0.154,0.064-0.306,0.137-0.454,0.215V6.958h15.358v9.056l0.001,0.14
		c0.049,0.939,0.82,1.675,1.756,1.675c0.403,0,0.79-0.143,1.122-0.417c0.093-0.078,0.178-0.167,0.258-0.271
		c0.496-0.517,1.071-0.914,1.71-1.184c0.633-0.266,1.303-0.4,1.992-0.4c2.835,0,5.141,2.307,5.141,5.142s-2.306,5.142-5.141,5.142
		c-0.691,0-1.361-0.135-1.992-0.401c-0.661-0.276-1.252-0.691-1.707-1.171c-0.071-0.093-0.145-0.175-0.234-0.253
		c-0.332-0.287-0.729-0.438-1.149-0.438C23.511,23.576,22.74,24.311,22.69,25.251z"/>
</g>
</svg>
