<?xml version="1.0" encoding="utf-8"?>
<!-- Generator: Adobe Illustrator 17.0.0, SVG Export Plug-In . SVG Version: 6.00 Build 0)  -->
<!DOCTYPE svg PUBLIC "-//W3C//DTD SVG 1.1//EN" "http://www.w3.org/Graphics/SVG/1.1/DTD/svg11.dtd">
<svg version="1.1" id="Layer_1" xmlns="http://www.w3.org/2000/svg" xmlns:xlink="http://www.w3.org/1999/xlink" x="0px" y="0px"
	 width="42px" height="42px" viewBox="0 0 42 42" enable-background="new 0 0 42 42" xml:space="preserve">
<g>
	<rect x="17.675" y="17.864" fill="none" width="7.412" height="7.41"/>
	<rect x="10.118" y="17.864" fill="none" width="6.757" height="7.41"/>
	<rect x="10.118" y="26.075" fill="none" width="6.757" height="6.75"/>
	<polygon fill="#3D6480" points="26.221,32.415 26.673,33.231 27.789,32.606 27.789,37.586 28.792,37.586 28.792,31.413 
		27.956,31.413 	"/>
	<path fill="#3D6480" d="M33.171,35.282c0.926-1.102,1.076-1.441,1.076-2.209v-0.201c0-1.016-0.442-1.551-1.91-1.551
		c-0.547,0-1.164,0.111-1.569,0.234l-0.097,0.029l0.148,0.891l0.124-0.037c0.341-0.098,0.91-0.197,1.329-0.197
		c0.899,0,0.971,0.152,0.971,0.639v0.268c0,0.387-0.037,0.598-0.975,1.711c-0.727,0.855-0.901,1.057-1.61,1.861v0.867h3.644v-0.91
		h-2.316C32.44,36.163,32.575,35.993,33.171,35.282z"/>
	<path fill="#3D6480" d="M38.625,34.45c0.433-0.285,0.54-0.65,0.54-1.164v-0.543c0-0.943-0.527-1.422-1.863-1.422
		c-0.488,0-1.031,0.074-1.426,0.168l-0.1,0.023l0.111,0.879l0.121-0.023c0.416-0.082,0.867-0.137,1.274-0.137
		c0.708,0,0.879,0.164,0.879,0.621v0.533c0,0.416-0.143,0.65-0.806,0.65h-1.273v0.91h1.375c0.561,0,0.814,0.174,0.814,0.686v0.459
		c0,0.488-0.215,0.678-1.063,0.678c-0.442,0-0.885-0.045-1.318-0.145l-0.123-0.029l-0.111,0.865l0.09,0.029
		c0.404,0.135,1.016,0.189,1.463,0.189c1.407,0,2.065-0.463,2.065-1.514v-0.598C39.275,34.959,39.03,34.633,38.625,34.45z"/>
	<polygon fill="#EFF9FE" points="25.887,17.063 32.418,17.063 32.418,10.524 10.118,10.524 10.118,17.063 16.875,17.063 
		16.875,17.053 17.675,17.053 17.675,17.063 25.087,17.063 25.087,17.053 25.887,17.053 	"/>
	<path fill="#3D6480" d="M25.887,25.274v-7.41h6.531v6.053l1.7-1.7V8.825h-25.7v25.699h13.393l1.699-1.699h-5.835v-6.75h7.412v5.173
		l0.8-0.8v-4.374h4.374l0.801-0.801H25.887z M16.875,32.825h-6.757v-6.75h6.757V32.825z M16.875,25.274h-6.757v-7.41h6.757V25.274z
		 M25.087,25.274h-7.412v-7.41h7.412V25.274z M25.087,17.053v0.01h-7.412v-0.01h-0.8v0.01h-6.757v-6.539h22.3v6.539h-6.531v-0.01
		H25.087z"/>
</g>
</svg>
