<?xml version="1.0" encoding="utf-8"?>
<!-- Generator: Adobe Illustrator 18.0.0, SVG Export Plug-In . SVG Version: 6.00 Build 0)  -->
<!DOCTYPE svg PUBLIC "-//W3C//DTD SVG 1.1//EN" "http://www.w3.org/Graphics/SVG/1.1/DTD/svg11.dtd">
<svg version="1.1" xmlns="http://www.w3.org/2000/svg" xmlns:xlink="http://www.w3.org/1999/xlink" x="0px" y="0px"
	 viewBox="0 0 16 16" enable-background="new 0 0 16 16" xml:space="preserve">
<g id="Layer_2">
	<g id="Layer_2_1_">
		<rect fill="none" width="16" height="16"/>
	</g>
</g>
<g id="art">
	<g>
		<path fill="#FFFFFF" d="M11.7,5.7l-1.4-1.4c-0.1-0.1-0.3-0.1-0.5,0L8,6.2L6.2,4.3C6,4.2,5.8,4.2,5.7,4.3L4.3,5.7
			C4.2,5.8,4.2,6,4.3,6.2L6.2,8L4.3,9.8c-0.1,0.1-0.1,0.3,0,0.5l1.4,1.4c0.1,0.1,0.3,0.1,0.5,0L8,9.8l1.8,1.8c0.1,0.1,0.3,0.1,0.5,0
			l1.4-1.4c0.1-0.1,0.1-0.3,0-0.5L9.8,8l1.8-1.8C11.8,6,11.8,5.8,11.7,5.7z"/>
		<path fill="#EA102A" d="M13.7,2.3c-3.1-3.1-8.2-3.1-11.3,0c-3.1,3.1-3.1,8.2,0,11.3c3.1,3.1,8.2,3.1,11.3,0
			C16.8,10.5,16.8,5.5,13.7,2.3z M11.7,9.8c0.1,0.1,0.1,0.3,0,0.5l-1.4,1.4c-0.1,0.1-0.3,0.1-0.5,0L8,9.8l-1.8,1.8
			c-0.1,0.1-0.3,0.1-0.5,0l-1.4-1.4c-0.1-0.1-0.1-0.3,0-0.5L6.2,8L4.3,6.2C4.2,6,4.2,5.8,4.3,5.7l1.4-1.4c0.1-0.1,0.3-0.1,0.5,0
			L8,6.2l1.8-1.8c0.1-0.1,0.3-0.1,0.5,0l1.4,1.4c0.1,0.1,0.1,0.3,0,0.5L9.8,8L11.7,9.8z"/>
	</g>
</g>
</svg>
