<?xml version="1.0" encoding="utf-8"?>
<!-- Generator: Adobe Illustrator 17.0.0, SVG Export Plug-In . SVG Version: 6.00 Build 0)  -->
<!DOCTYPE svg PUBLIC "-//W3C//DTD SVG 1.1//EN" "http://www.w3.org/Graphics/SVG/1.1/DTD/svg11.dtd">
<svg version="1.1" id="Layer_1" xmlns="http://www.w3.org/2000/svg" xmlns:xlink="http://www.w3.org/1999/xlink" x="0px" y="0px"
	 width="42px" height="42px" viewBox="0 0 42 42" enable-background="new 0 0 42 42" xml:space="preserve">
<polygon fill="#3D6480" points="33.796,29.097 32.452,30.441 35.217,33.205 27.4,33.205 30.165,30.441 28.821,29.097 23.781,34.138 
	28.839,39.197 30.183,37.853 27.435,35.106 35.217,35.106 32.47,37.853 33.813,39.197 38.854,34.156 "/>
<g>
	<polygon fill="#FFEBCD" points="24.366,14.25 23.551,14.25 17.36,14.25 17.36,12.55 21.851,12.55 20.147,10.846 14.814,10.847 
		14.814,14.347 15.65,14.347 19.054,17.751 19.166,17.751 28.384,17.751 28.384,25.889 31.884,22.389 31.884,14.25 	"/>
	<polygon fill="#3D6480" points="9.614,31.691 9.614,16.048 14.946,16.047 16.65,17.751 12.159,17.751 12.159,19.451 18.35,19.451 
		19.166,19.451 26.684,19.451 26.684,27.589 28.384,25.889 28.384,17.751 19.166,17.751 19.054,17.751 15.65,14.347 14.814,14.347 
		14.814,10.847 20.147,10.846 21.851,12.55 17.36,12.55 17.36,14.25 23.551,14.25 24.366,14.25 31.884,14.25 31.884,22.389 
		33.584,20.689 33.584,12.55 24.366,12.55 24.255,12.55 20.851,9.145 13.114,9.148 13.114,14.347 7.914,14.347 7.914,33.391 
		20.882,33.391 22.582,31.691 	"/>
	<polygon fill="#FFEBCD" points="19.166,19.451 18.35,19.451 12.159,19.451 12.159,17.751 16.65,17.751 14.946,16.047 9.614,16.048 
		9.614,31.691 22.582,31.691 26.684,27.589 26.684,19.451 	"/>
</g>
</svg>
