<?xml version="1.0" encoding="utf-8"?>
<!-- Generator: Adobe Illustrator 17.0.0, SVG Export Plug-In . SVG Version: 6.00 Build 0)  -->
<!DOCTYPE svg PUBLIC "-//W3C//DTD SVG 1.1//EN" "http://www.w3.org/Graphics/SVG/1.1/DTD/svg11.dtd">
<svg version="1.1" id="Layer_1" xmlns="http://www.w3.org/2000/svg" xmlns:xlink="http://www.w3.org/1999/xlink" x="0px" y="0px"
	 width="42px" height="42px" viewBox="0 0 42 42" enable-background="new 0 0 42 42" xml:space="preserve">
<g>
	<polygon fill="#0CB20F" points="37.161,29.467 30.238,36.39 27.907,34.058 26.563,35.401 30.238,39.077 38.504,30.811 	"/>
	<path fill="#EFF9FE" d="M29.39,13.053h-4.257V8.795h-13.38v24.41h11.315l6.361-6.361L29.39,13.053z M17.853,24.783h-3.202v-0.801
		h3.202V24.783z M26.553,21.4H14.651V20.6h11.902V21.4z M26.553,18.018H14.651v-0.801h11.902V18.018z"/>
	<polygon fill="#3D6480" points="11.753,8.795 25.133,8.795 25.133,13.053 29.39,13.053 29.43,26.844 31.125,25.148 31.09,13.063 
		29.38,11.354 26.833,11.354 26.833,8.806 25.123,7.096 10.054,7.096 10.054,34.904 21.369,34.904 23.068,33.205 11.753,33.205 	"/>
	<rect x="14.651" y="17.217" fill="#3D6480" width="11.902" height="0.801"/>
	<rect x="14.651" y="20.6" fill="#3D6480" width="11.902" height="0.801"/>
	<rect x="14.651" y="23.982" fill="#3D6480" width="3.202" height="0.801"/>
</g>
</svg>
