<?xml version="1.0" encoding="utf-8"?>
<!-- Generator: Adobe Illustrator 17.0.0, SVG Export Plug-In . SVG Version: 6.00 Build 0)  -->
<!DOCTYPE svg PUBLIC "-//W3C//DTD SVG 1.1//EN" "http://www.w3.org/Graphics/SVG/1.1/DTD/svg11.dtd">
<svg version="1.1" id="Layer_1" xmlns="http://www.w3.org/2000/svg" xmlns:xlink="http://www.w3.org/1999/xlink" x="0px" y="0px"
	 width="42px" height="42px" viewBox="0 0 42 42" enable-background="new 0 0 42 42" xml:space="preserve">
<g>
	<polygon fill="#3D6480" points="37.389,32.485 37.389,35.568 32.163,30.343 30.82,31.687 36.045,36.912 32.9,36.913 32.9,38.813 
		39.289,38.812 39.289,32.485 	"/>
	<path fill="#EFF9FE" d="M25.803,12.903V8.645H12.426v24.411h10.642l7.032-7.032l-0.038-13.121H25.803z M18.525,24.634h-3.203
		v-0.801h3.203V24.634z M18.525,21.251h-3.203V20.45h3.203V21.251z M18.525,17.867h-3.203v-0.801h3.203V17.867z M22.875,24.634
		h-3.203v-0.801h3.203V24.634z M22.875,21.251h-3.203V20.45h3.203V21.251z M22.875,17.867h-3.203v-0.801h3.203V17.867z
		 M27.225,24.634h-3.203v-0.801h3.203V24.634z M27.225,21.251h-3.203V20.45h3.203V21.251z M27.225,17.867h-3.203v-0.801h3.203
		V17.867z"/>
	<polygon fill="#3D6480" points="31.762,12.915 30.051,11.204 27.504,11.204 27.504,8.656 25.794,6.946 10.725,6.946 10.725,34.755 
		21.368,34.755 23.067,33.056 12.426,33.056 12.426,8.645 25.803,8.645 25.803,12.903 30.062,12.903 30.099,26.024 31.795,24.329 	
		"/>
	<rect x="15.322" y="23.834" fill="#3D6480" width="3.203" height="0.801"/>
	<rect x="19.672" y="23.834" fill="#3D6480" width="3.203" height="0.801"/>
	<rect x="24.022" y="23.834" fill="#3D6480" width="3.203" height="0.801"/>
	<rect x="15.322" y="20.45" fill="#3D6480" width="3.203" height="0.801"/>
	<rect x="19.672" y="20.45" fill="#3D6480" width="3.203" height="0.801"/>
	<rect x="24.022" y="20.45" fill="#3D6480" width="3.203" height="0.801"/>
	<rect x="15.322" y="17.066" fill="#3D6480" width="3.203" height="0.801"/>
	<rect x="19.672" y="17.066" fill="#3D6480" width="3.203" height="0.801"/>
	<rect x="24.022" y="17.066" fill="#3D6480" width="3.203" height="0.801"/>
</g>
</svg>
