<?xml version="1.0" encoding="utf-8"?>
<!-- Generator: Adobe Illustrator 17.0.0, SVG Export Plug-In . SVG Version: 6.00 Build 0)  -->
<!DOCTYPE svg PUBLIC "-//W3C//DTD SVG 1.1//EN" "http://www.w3.org/Graphics/SVG/1.1/DTD/svg11.dtd">
<svg version="1.1" id="Layer_1" xmlns="http://www.w3.org/2000/svg" xmlns:xlink="http://www.w3.org/1999/xlink" x="0px" y="0px"
	 width="42px" height="42px" viewBox="0 0 42 42" enable-background="new 0 0 42 42" xml:space="preserve">
<g>
	<polygon fill="#3D6480" points="37.309,32.756 37.309,35.839 32.084,30.615 30.74,31.958 35.966,37.183 32.82,37.184 32.82,39.084 
		39.21,39.083 39.21,32.756 	"/>
	<path fill="#EFF9FE" d="M25.725,9.674V5.416h-13.38v20.339h-1.699h-0.007v1.203h3.082h6.137v2.046v2.523h2.309v-0.002v-1.699h4.28
		l3.583-3.583l-0.047-16.57H25.725z M18.444,21.405h-3.201v-0.801h3.201V21.405z M27.145,18.022H15.243v-0.801h11.902V18.022z
		 M27.145,14.639H15.243v-0.801h11.902V14.639z"/>
	<polygon fill="#3D6480" points="22.167,31.526 24.748,31.526 26.447,29.826 22.167,29.826 	"/>
	<polygon fill="#3D6480" points="31.682,9.684 29.973,7.975 27.425,7.975 27.425,5.427 25.715,3.717 10.646,3.717 10.646,25.755 
		12.346,25.755 12.346,5.416 25.725,5.416 25.725,9.674 29.982,9.674 30.03,26.244 31.725,24.548 	"/>
	<rect x="15.243" y="13.838" fill="#3D6480" width="11.902" height="0.801"/>
	<rect x="15.243" y="17.221" fill="#3D6480" width="11.902" height="0.801"/>
	<rect x="15.243" y="20.604" fill="#3D6480" width="3.201" height="0.801"/>
	<path fill="#EFF9FE" d="M5.444,33.371h13.414v-5.413H5.444V33.371z M6.85,30.264h10.601v0.801H6.85V30.264z"/>
	<path fill="#3D6480" d="M19.858,26.958h-6.137h-3.082H4.444v7.413h15.414v-2.844v-2.523V26.958z M18.858,33.371H5.444v-5.413
		h13.414V33.371z"/>
	<rect x="6.85" y="30.264" fill="#3D6480" width="10.601" height="0.801"/>
</g>
</svg>
