<?xml version="1.0" encoding="utf-8"?>
<!-- Generator: Adobe Illustrator 17.0.0, SVG Export Plug-In . SVG Version: 6.00 Build 0)  -->
<!DOCTYPE svg PUBLIC "-//W3C//DTD SVG 1.1//EN" "http://www.w3.org/Graphics/SVG/1.1/DTD/svg11.dtd">
<svg version="1.1" id="Layer_1" xmlns="http://www.w3.org/2000/svg" xmlns:xlink="http://www.w3.org/1999/xlink" x="0px" y="0px"
	 width="42px" height="42px" viewBox="0 0 42 42" enable-background="new 0 0 42 42" xml:space="preserve">
<g>
	<rect x="20.124" y="35.801" fill="none" width="0.039" height="0.006"/>
	<rect x="16.56" y="35.801" fill="none" width="2.564" height="0.006"/>
	<rect x="20.124" y="26.388" fill="none" width="0.039" height="2.453"/>
	<rect x="20.124" y="32.489" fill="none" width="0.039" height="2.312"/>
	<rect x="12.995" y="35.801" fill="none" width="2.564" height="0.006"/>
	<rect x="4.775" y="26.388" fill="none" width="0.093" height="2.453"/>
	<rect x="4.775" y="32.489" fill="none" width="0.093" height="2.312"/>
	<rect x="9.432" y="35.801" fill="none" width="2.563" height="0.006"/>
	<rect x="4.775" y="35.801" fill="none" width="0.093" height="0.006"/>
	<rect x="5.868" y="35.801" fill="none" width="2.563" height="0.006"/>
	<rect x="21.4" y="6.454" fill="none" width="15.78" height="3.991"/>
	<rect x="4.82" y="6.454" fill="none" width="15.78" height="3.991"/>
	<path fill="#0CB20F" d="M26.467,21.55l1.344,1.344l1.954-1.954v4.533c0,1.906-1.55,3.456-3.455,3.456h-0.639v1.9h0.639
		c2.953,0,5.355-2.403,5.355-5.356v-4.533l1.954,1.954l1.344-1.344l-4.248-4.248L26.467,21.55z"/>
	<path fill="#3D6480" d="M3.12,4.755v7.39H38.88v-7.39H3.12z M4.82,6.454H20.6v3.991H4.82V6.454z M37.18,10.445H21.4V6.454h15.78
		V10.445z"/>
	<rect x="20.124" y="23.721" fill="#3D6480" width="1.739" height="1.667"/>
	<rect x="16.56" y="23.721" fill="#3D6480" width="2.564" height="1.667"/>
	<rect x="20.163" y="26.388" fill="#3D6480" width="1.7" height="2.453"/>
	<rect x="12.995" y="23.721" fill="#3D6480" width="2.564" height="1.667"/>
	<rect x="3.075" y="23.721" fill="#3D6480" width="1.793" height="1.667"/>
	<rect x="3.075" y="26.388" fill="#3D6480" width="1.7" height="2.453"/>
	<rect x="9.432" y="23.721" fill="#3D6480" width="2.563" height="1.667"/>
	<rect x="5.868" y="23.721" fill="#3D6480" width="2.563" height="1.667"/>
	<polygon fill="#3D6480" points="4.868,29.841 3.075,29.841 3.075,30.564 3.075,31.489 4.868,31.489 	"/>
	<rect x="3.075" y="32.489" fill="#3D6480" width="1.7" height="2.312"/>
	<polygon fill="#3D6480" points="20.163,35.807 20.124,35.807 20.124,37.506 21.863,37.506 21.863,35.801 20.163,35.801 	"/>
	<polygon fill="#3D6480" points="4.775,35.807 4.775,35.801 3.075,35.801 3.075,37.506 4.868,37.506 4.868,35.807 	"/>
	<rect x="20.163" y="32.489" fill="#3D6480" width="1.7" height="2.312"/>
	<rect x="5.868" y="35.807" fill="#3D6480" width="2.563" height="1.699"/>
	<rect x="16.56" y="35.807" fill="#3D6480" width="2.564" height="1.699"/>
	<rect x="12.995" y="35.807" fill="#3D6480" width="2.564" height="1.699"/>
	<rect x="9.432" y="35.807" fill="#3D6480" width="2.563" height="1.699"/>
	<polygon fill="#3D6480" points="20.124,29.841 20.124,31.489 21.863,31.489 21.863,30.564 21.863,29.841 	"/>
</g>
<rect x="16.56" y="29.841" fill="#3D6480" width="2.564" height="1.648"/>
<rect x="5.868" y="29.841" fill="#3D6480" width="2.563" height="1.648"/>
<rect x="12.995" y="29.841" fill="#3D6480" width="2.564" height="1.648"/>
<rect x="9.432" y="29.841" fill="#3D6480" width="2.563" height="1.648"/>
<line fill="#FFFFFF" x1="16.56" y1="29.841" x2="19.124" y2="29.841"/>
</svg>
