<?xml version="1.0" encoding="utf-8"?>
<!-- Generator: Adobe Illustrator 17.0.0, SVG Export Plug-In . SVG Version: 6.00 Build 0)  -->
<!DOCTYPE svg PUBLIC "-//W3C//DTD SVG 1.1//EN" "http://www.w3.org/Graphics/SVG/1.1/DTD/svg11.dtd">
<svg version="1.1" id="Layer_1" xmlns="http://www.w3.org/2000/svg" xmlns:xlink="http://www.w3.org/1999/xlink" x="0px" y="0px"
	 width="42px" height="42px" viewBox="0 0 42 42" enable-background="new 0 0 42 42" xml:space="preserve">
<g>
	<path fill="none" d="M8.492,15.107v7.013h12.74c-0.074-0.229-0.122-0.449-0.122-0.677c0-0.517,0.181-1.001,0.521-1.402
		c0.207-0.244,0.472-0.458,0.81-0.649c0.489-0.278,1.153-0.521,1.972-0.719c1.538-0.372,3.565-0.576,5.707-0.576
		c0.23,0,0.446,0.02,0.673,0.025v-3.014H8.492z"/>
	<polygon fill="none" points="8.492,29.87 25.308,29.87 21.816,23.319 8.492,23.319 	"/>
	<rect x="8.492" y="7.569" fill="#EFF9FE" width="22.3" height="6.339"/>
	<polygon fill="#3D6480" points="27.366,31.569 27.701,31.569 27.62,31.434 	"/>
	<path fill="#3D6480" d="M8.492,29.87v-6.551h13.325l-0.479-0.899c-0.049-0.105-0.073-0.201-0.105-0.3H8.492v-7.013h22.3v3.014
		c0.573,0.012,1.149,0.022,1.699,0.063V5.87h-25.7v25.699h19.422l-0.906-1.699H8.492z M30.792,13.908h-22.3V7.569h22.3V13.908z"/>
	<path fill="#FFF5E6" d="M30.119,20.196c-4.161,0-6.688,0.781-7.035,1.251l0.239,0.402c0.915,0.469,3.201,1.041,6.796,1.041
		c3.593,0,5.878-0.572,6.794-1.04l0.248-0.426C36.881,21.001,34.342,20.196,30.119,20.196z"/>
	<path fill="#FFF5E6" d="M36.267,22.962c-1.788,0.55-4.436,0.729-6.148,0.729c-1.708,0-4.345-0.178-6.133-0.725l5.913,9.955v2.467
		h0.574v-2.464L36.267,22.962z"/>
	<path fill="#FF9C04" d="M34.548,19.336c-1.491-0.247-3.145-0.339-4.429-0.339c-3.065,0-8.252,0.515-8.252,2.446
		c0,0.164,0.029,0.312,0.124,0.514l5.629,9.477l0.08,0.135l1,1.683v3.336h2.973v-3.339l6.606-11.369
		c0.062-0.139,0.092-0.285,0.092-0.437C38.371,20.321,36.617,19.679,34.548,19.336z M30.474,35.389h-0.574v-2.467l-5.913-9.955
		c1.788,0.547,4.425,0.725,6.133,0.725c1.712,0,4.36-0.179,6.148-0.729l-5.793,9.963V35.389z M36.914,21.851
		c-0.916,0.468-3.201,1.04-6.794,1.04c-3.596,0-5.882-0.573-6.796-1.041l-0.239-0.402c0.348-0.47,2.874-1.251,7.035-1.251
		c4.223,0,6.762,0.805,7.042,1.229L36.914,21.851z"/>
</g>
</svg>
