<?xml version="1.0" encoding="utf-8"?>
<!-- Generator: Adobe Illustrator 17.0.0, SVG Export Plug-In . SVG Version: 6.00 Build 0)  -->
<!DOCTYPE svg PUBLIC "-//W3C//DTD SVG 1.1//EN" "http://www.w3.org/Graphics/SVG/1.1/DTD/svg11.dtd">
<svg version="1.1" id="Layer_1" xmlns="http://www.w3.org/2000/svg" xmlns:xlink="http://www.w3.org/1999/xlink" x="0px" y="0px"
	 width="42px" height="42px" viewBox="0 0 42 42" enable-background="new 0 0 42 42" xml:space="preserve">
<polygon fill-rule="evenodd" clip-rule="evenodd" fill="#3D6480" points="2.415,7.866 1.964,7.05 3.699,6.049 4.534,6.049 
	4.534,12.222 3.532,12.222 3.532,7.243 "/>
<path fill-rule="evenodd" clip-rule="evenodd" fill="#3D6480" d="M6.401,11.355c0.709-0.805,0.883-1.007,1.609-1.861
	c0.938-1.112,0.977-1.323,0.977-1.711V7.516c0-0.487-0.072-0.64-0.971-0.64c-0.42,0-0.988,0.099-1.33,0.198L6.561,7.111L6.413,6.221
	l0.098-0.028c0.404-0.123,1.023-0.235,1.57-0.235c1.467,0,1.908,0.536,1.908,1.55V7.71c0,0.768-0.15,1.107-1.076,2.208
	c-0.595,0.711-0.73,0.881-1.184,1.394h2.315v0.911H6.401V11.355z"/>
<path fill-rule="evenodd" clip-rule="evenodd" fill="#3D6480" d="M11.512,11.231l0.124,0.028c0.433,0.1,0.875,0.145,1.316,0.145
	c0.849,0,1.064-0.189,1.064-0.677v-0.46c0-0.512-0.254-0.686-0.814-0.686h-1.376V8.671H13.1c0.662,0,0.805-0.233,0.805-0.649V7.489
	c0-0.459-0.172-0.621-0.879-0.621c-0.406,0-0.859,0.054-1.275,0.136L11.63,7.027l-0.111-0.878l0.102-0.023
	c0.392-0.094,0.938-0.169,1.425-0.169c1.335,0,1.863,0.479,1.863,1.422v0.542c0,0.514-0.108,0.881-0.54,1.165
	c0.405,0.184,0.65,0.51,0.65,1.117v0.599c0,1.051-0.658,1.513-2.066,1.513c-0.445,0-1.059-0.055-1.462-0.189l-0.09-0.03
	L11.512,11.231z"/>
<g>
	<polygon fill="none" points="12.534,18.192 11.235,19.492 11.235,23.903 29.979,23.903 29.979,17.708 13.019,17.708 	"/>
	<rect x="11.235" y="24.704" fill="none" width="18.744" height="5.564"/>
	<polygon fill="#EFF9FE" points="13.82,16.907 29.979,16.907 29.979,11.522 19.204,11.522 14.235,16.492 	"/>
	<polygon fill="#3D6480" points="31.503,30.388 31.679,30.565 31.679,9.823 20.904,9.823 19.204,11.522 29.979,11.522 
		29.979,16.907 30.842,16.907 30.842,17.708 29.979,17.708 29.979,23.903 30.842,23.903 30.842,24.704 29.979,24.704 29.979,30.268 
		11.235,30.268 11.235,24.704 10.397,24.704 10.397,23.903 11.235,23.903 11.235,19.492 9.534,21.192 9.534,31.968 30.394,31.968 
		30.159,31.732 	"/>
	<polygon fill="#3D6480" points="13.397,17.329 13.019,17.708 29.979,17.708 30.842,17.708 30.842,16.907 29.979,16.907 
		13.82,16.907 	"/>
	<polygon fill="#3D6480" points="10.397,23.903 10.397,24.704 11.235,24.704 29.979,24.704 30.842,24.704 30.842,23.903 
		29.979,23.903 11.235,23.903 	"/>
	<polygon fill="#3D6480" points="36.728,32.53 36.728,35.613 38.35,37.235 37.007,38.579 35.385,36.957 32.239,36.958 
		32.239,38.858 38.629,38.857 38.629,32.53 	"/>
	<polygon fill="#3D6480" points="38.35,37.235 36.728,35.613 31.679,30.565 31.503,30.388 30.159,31.732 30.394,31.968 
		35.385,36.957 37.007,38.579 	"/>
</g>
</svg>
