<?xml version="1.0" encoding="utf-8"?>
<!-- Generator: Adobe Illustrator 17.0.0, SVG Export Plug-In . SVG Version: 6.00 Build 0)  -->
<!DOCTYPE svg PUBLIC "-//W3C//DTD SVG 1.1//EN" "http://www.w3.org/Graphics/SVG/1.1/DTD/svg11.dtd">
<svg version="1.1" id="Layer_1" xmlns="http://www.w3.org/2000/svg" xmlns:xlink="http://www.w3.org/1999/xlink" x="0px" y="0px"
	 width="42px" height="42px" viewBox="0 0 42 42" enable-background="new 0 0 42 42" xml:space="preserve">
<g>
	<path fill="#3D6480" d="M21.563,15.517H18.55c0.394-1.854,0.747-3.168,1.061-3.955c0.59-1.437,1.279-2.05,2.03-2.05
		c0.161,0,0.267,0.031,0.433,0.203c-0.16,0.418-0.254,0.747-0.254,0.961c0,0.318,0.124,0.6,0.357,0.833
		c0.24,0.229,0.545,0.341,0.896,0.341c0.406,0,0.741-0.149,0.981-0.455c0.222-0.283,0.34-0.596,0.34-0.935
		c0-0.529-0.273-0.983-0.767-1.36c-0.492-0.385-1.105-0.569-1.825-0.569c-1.579,0.001-2.892,0.823-3.937,2.413
		c-0.688,1.013-1.297,2.541-1.838,4.573h-2.562l-0.273,1.306h2.5l-2.396,11.352c-0.233,1.103-0.486,1.956-0.756,2.569
		c-0.525,1.19-1.124,1.691-1.765,1.691c-0.143,0-0.239-0.026-0.332-0.142l0.102-0.195c0.104-0.188,0.16-0.385,0.16-0.585
		c0-0.35-0.127-0.656-0.372-0.901c-0.255-0.234-0.567-0.353-0.922-0.353c-0.4,0-0.727,0.135-0.944,0.432
		c-0.203,0.265-0.31,0.558-0.31,0.876c0.001,0.506,0.245,0.949,0.691,1.328c0.448,0.389,1.02,0.575,1.697,0.575
		c1.481-0.001,2.684-0.776,3.603-2.271c0.916-1.476,1.639-3.399,2.174-5.764l1.951-8.613h3.017L21.563,15.517z"/>
	<path fill="#3D6480" d="M31.317,17.291c0.005,0,0.05,0.007,0.137,0.037c0.082,0.021,0.18,0.053,0.27,0.089l0.352,0.128
		c0.107,0.042,0.217,0.077,0.316,0.103c0.102,0.018,0.219,0.028,0.332,0.028c0.317,0,0.59-0.088,0.803-0.272
		c0.219-0.188,0.315-0.442,0.315-0.74c-0.001-0.439-0.2-0.773-0.628-0.948c-0.225-0.093-0.506-0.134-0.828-0.134
		c-0.373,0.001-0.751,0.112-1.133,0.318c-0.383,0.206-0.779,0.514-1.193,0.918c-0.407,0.395-0.953,1.037-1.635,1.923l-0.193-0.907
		c-0.199-0.917-0.449-1.572-0.771-1.92c-0.238-0.244-0.588-0.355-1.007-0.355c-0.255,0-0.557,0.038-0.899,0.11
		c-0.33,0.071-0.691,0.166-1.084,0.284l-1.679,0.496l0.228,0.68l0.942-0.203c0.373-0.079,0.597-0.112,0.695-0.112
		c0.337,0.001,0.508,0.083,0.591,0.191c0.113,0.144,0.26,0.479,0.432,1.034c0.171,0.543,0.359,1.205,0.566,1.987
		c0.177,0.665,0.271,1.042,0.298,1.166c-1.153,1.442-1.894,2.352-2.223,2.728c-0.51,0.59-0.813,0.915-0.921,1.003
		c-0.068,0.054-0.183,0.094-0.379,0.094l-0.279-0.06l-0.475-0.222c-0.137-0.067-0.262-0.115-0.392-0.143
		c-0.128-0.037-0.25-0.054-0.381-0.054c-0.273,0-0.531,0.079-0.775,0.229c-0.29,0.167-0.411,0.445-0.411,0.783
		c0,0.252,0.064,0.477,0.204,0.672c0.257,0.384,0.729,0.551,1.347,0.551c0.467,0,0.871-0.101,1.201-0.313
		c0.317-0.2,0.752-0.582,1.293-1.127l2.522-2.855l0.735,2.532c0.145,0.501,0.299,0.88,0.469,1.12
		c0.293,0.418,0.709,0.644,1.238,0.644c0.803-0.001,1.602-0.454,2.396-1.275c0.425-0.438,0.832-0.964,1.225-1.578l0.093-0.145
		l-0.7-0.367l-0.108,0.13c-0.505,0.605-0.876,1.018-1.118,1.242c-0.234,0.217-0.434,0.295-0.598,0.295
		c-0.123,0-0.311-0.104-0.519-0.524c-0.118-0.241-0.269-0.694-0.447-1.371l-0.556-2.028c-0.164-0.656-0.238-1.012-0.238-1.104
		c0-0.07,0.297-0.528,1.047-1.465C30.533,17.647,31.037,17.291,31.317,17.291z"/>
</g>
</svg>
