<?xml version="1.0" encoding="utf-8"?>
<!-- Generator: Adobe Illustrator 17.0.0, SVG Export Plug-In . SVG Version: 6.00 Build 0)  -->
<!DOCTYPE svg PUBLIC "-//W3C//DTD SVG 1.1//EN" "http://www.w3.org/Graphics/SVG/1.1/DTD/svg11.dtd">
<svg version="1.1" id="Layer_1" xmlns="http://www.w3.org/2000/svg" xmlns:xlink="http://www.w3.org/1999/xlink" x="0px" y="0px"
	 width="42px" height="42px" viewBox="0 0 42 42" enable-background="new 0 0 42 42" xml:space="preserve">
<path fill-rule="evenodd" clip-rule="evenodd" fill="#3D6480" d="M2.578,38.599l0.147-0.716c0.605,0.188,1.242,0.288,1.848,0.288
	c1.061,0,1.273-0.276,1.273-1.024c0-0.449-0.003-0.688-0.172-0.854c-0.171-0.168-0.511-0.265-1.193-0.419
	c-1.606-0.359-1.799-0.672-1.799-2.05c0-1.161,0.483-1.722,2.129-1.722c0.578,0,1.266,0.08,1.794,0.219l-0.074,0.747
	c-0.526-0.12-1.153-0.189-1.699-0.189c-1.081,0-1.273,0.217-1.273,0.975c0,0.459,0.001,0.693,0.161,0.854
	c0.162,0.163,0.486,0.255,1.145,0.419c1.766,0.439,1.858,0.701,1.858,2c0,1.16-0.343,1.821-2.169,1.821
	C3.915,38.948,3.147,38.827,2.578,38.599z"/>
<rect x="13.505" y="24.029" fill="#3D6480" width="3.202" height="0.801"/>
<g>
	<polyline fill="#EFF9FE" points="19.856,29.637 20.227,30.658 20.218,31.009 	"/>
	<polygon fill="#EFF9FE" points="20.718,31.021 19.718,30.996 19.725,30.739 19.386,29.808 20.326,29.466 20.729,30.575 	"/>
</g>
<polygon fill="#3D6480" points="36.572,32.682 36.572,35.765 31.346,30.54 30.002,31.884 35.228,37.109 32.082,37.11 32.082,39.01 
	38.472,39.009 38.472,32.682 "/>
<g>
	<circle fill="#FFECCE" cx="36.052" cy="9.177" r="0.587"/>
	<path fill="#FF9C04" d="M22.531,13.091c0,4.217,3.299,7.669,7.45,7.933c0.169,0.011,0.337,0.026,0.509,0.026h0.5v-0.5v-1.332
		v-5.777h1.743c0.158,0.488,0.602,0.848,1.141,0.848c0.671,0,1.218-0.545,1.218-1.216c0-0.671-0.547-1.217-1.218-1.217
		c-0.553,0-1.002,0.379-1.149,0.886h-1.735V9.534h3.496h0.422c0.155,0.494,0.6,0.859,1.145,0.859c0.671,0,1.217-0.546,1.217-1.217
		c0-0.671-0.546-1.216-1.217-1.216c-0.55,0-0.997,0.373-1.147,0.874h-0.419h-3.496V6.132h2.165c0.182,0.442,0.616,0.754,1.123,0.754
		c0.671,0,1.218-0.545,1.218-1.216s-0.547-1.216-1.218-1.216c-0.475,0-0.877,0.281-1.077,0.678h-2.112h-0.599
		c-1.994,0-3.815,0.743-5.213,1.959C23.598,8.551,22.531,10.697,22.531,13.091z M33.873,12.485c0.324,0,0.587,0.264,0.587,0.587
		c0,0.323-0.263,0.586-0.587,0.586c-0.323,0-0.585-0.263-0.585-0.586C33.288,12.749,33.55,12.485,33.873,12.485z M36.052,8.59
		c0.323,0,0.586,0.263,0.586,0.586c0,0.324-0.263,0.587-0.586,0.587S35.466,9.5,35.466,9.176C35.466,8.853,35.729,8.59,36.052,8.59z
		 M34.278,5.084c0.324,0,0.587,0.263,0.587,0.586s-0.263,0.586-0.587,0.586c-0.323,0-0.586-0.263-0.586-0.586
		S33.954,5.084,34.278,5.084z M23.548,13.441h3.192c0.035,1.26,0.252,2.48,0.648,3.618c-0.702,0.183-1.378,0.428-2.02,0.734
		C24.303,16.635,23.631,15.115,23.548,13.441z M25.907,18.321c0.557-0.248,1.135-0.456,1.737-0.609
		c0.317,0.755,0.703,1.473,1.174,2.13C27.723,19.571,26.729,19.043,25.907,18.321z M29.989,19.218v0.814
		c-0.048-0.003-0.094-0.013-0.142-0.017c-0.615-0.733-1.12-1.557-1.507-2.448c0.541-0.101,1.091-0.164,1.649-0.186V19.218z
		 M29.989,16.681c-0.65,0.025-1.291,0.099-1.919,0.224c-0.387-1.086-0.597-2.255-0.632-3.463h2.551V16.681z M29.989,12.741h-2.55
		c0.037-1.207,0.255-2.379,0.654-3.471c0.622,0.127,1.254,0.206,1.896,0.233V12.741z M29.989,6.158v2.645
		c-0.549-0.024-1.09-0.089-1.623-0.191c0.392-0.886,0.902-1.709,1.521-2.448C29.921,6.16,29.956,6.16,29.989,6.158z M28.863,6.332
		c-0.479,0.665-0.876,1.386-1.198,2.144c-0.6-0.155-1.174-0.378-1.734-0.63C26.76,7.124,27.76,6.598,28.863,6.332z M25.397,8.364
		c0.645,0.31,1.311,0.576,2.008,0.762c-0.405,1.142-0.629,2.36-0.665,3.615h-3.192C23.633,11.054,24.318,9.526,25.397,8.364z"/>
	<circle fill="#FFECCE" cx="34.278" cy="5.67" r="0.586"/>
	<circle fill="#FFECCE" cx="33.873" cy="13.072" r="0.587"/>
	<path fill="#3D6480" d="M28.287,27.986l1.694-1.694v-0.557l-0.011-3.712c-0.584-0.034-1.152-0.122-1.701-0.263L28.287,27.986z"/>
	<path fill="#3D6480" d="M10.608,33.253V8.843h11.997c0.333-0.615,0.742-1.182,1.204-1.7h-14.9v27.811l12.413-0.001l1.7-1.7
		L10.608,33.253z"/>
	<path fill="#EFF9FE" d="M10.608,8.843v24.41l12.414-0.001l5.265-5.266l-0.018-6.226c0.549,0.141,1.117,0.229,1.701,0.263
		c0.004,0,0.007,0,0.011,0.001v-1c-4.151-0.264-7.45-3.716-7.45-7.933c0-2.394,1.068-4.54,2.746-6h-1.421
		c-0.016,0.017-0.031,0.034-0.047,0.051c-0.462,0.518-0.871,1.085-1.204,1.7H10.608z M25.408,20.647v0.8H13.505v-0.8H25.408z
		 M22.568,17.264c0.146,0.275,0.302,0.543,0.475,0.8h-9.538v-0.8H22.568z"/>
	<path fill="#FFECCE" d="M28.071,16.905c0.627-0.125,1.269-0.199,1.919-0.224v-3.239h-2.551
		C27.474,14.649,27.684,15.819,28.071,16.905z"/>
	<path fill="#FFECCE" d="M26.74,12.741c0.036-1.255,0.26-2.473,0.665-3.615c-0.697-0.186-1.364-0.452-2.008-0.762
		c-1.08,1.162-1.765,2.69-1.849,4.377H26.74z"/>
	<path fill="#FFECCE" d="M25.907,18.321c0.822,0.722,1.816,1.25,2.911,1.521c-0.471-0.656-0.857-1.374-1.174-2.13
		C27.042,17.865,26.464,18.073,25.907,18.321z"/>
	<path fill="#FFECCE" d="M29.989,8.802V6.158c-0.034,0.002-0.068,0.002-0.102,0.005c-0.62,0.74-1.129,1.563-1.521,2.448
		C28.9,8.713,29.44,8.778,29.989,8.802z"/>
	<path fill="#FFECCE" d="M28.863,6.332c-1.103,0.266-2.103,0.792-2.932,1.513c0.56,0.253,1.134,0.475,1.734,0.63
		C27.987,7.718,28.384,6.997,28.863,6.332z"/>
	<path fill="#FFECCE" d="M26.739,13.441h-3.192c0.084,1.673,0.755,3.193,1.82,4.352c0.642-0.306,1.318-0.551,2.02-0.734
		C26.991,15.922,26.774,14.701,26.739,13.441z"/>
	<path fill="#FFECCE" d="M29.847,20.015c0.048,0.004,0.094,0.014,0.142,0.017v-0.814v-1.837c-0.559,0.023-1.109,0.086-1.649,0.186
		C28.728,18.458,29.232,19.283,29.847,20.015z"/>
	<path fill="#FFECCE" d="M27.44,12.741h2.55V9.502c-0.642-0.027-1.275-0.106-1.896-0.233C27.695,10.363,27.477,11.534,27.44,12.741z
		"/>
</g>
<g>
	<path fill="#3D6480" d="M22.568,17.267h-9.063v0.8h9.538C22.87,17.81,22.714,17.542,22.568,17.267z"/>
	<rect x="13.505" y="20.65" fill="#3D6480" width="11.903" height="0.8"/>
	<rect x="13.505" y="24.033" fill="#3D6480" width="3.202" height="0.8"/>
</g>
</svg>
