<?xml version="1.0" encoding="utf-8"?>
<!-- Generator: Adobe Illustrator 17.0.0, SVG Export Plug-In . SVG Version: 6.00 Build 0)  -->
<!DOCTYPE svg PUBLIC "-//W3C//DTD SVG 1.1//EN" "http://www.w3.org/Graphics/SVG/1.1/DTD/svg11.dtd">
<svg version="1.1" id="Layer_1" xmlns="http://www.w3.org/2000/svg" xmlns:xlink="http://www.w3.org/1999/xlink" x="0px" y="0px"
	 width="42px" height="42px" viewBox="0 0 42 42" enable-background="new 0 0 42 42" xml:space="preserve">
<g>
	<polygon fill="#3D6480" points="5.895,9.903 5.895,11.803 12.285,11.802 12.285,5.475 10.384,5.475 10.384,8.558 5.159,3.333 
		3.815,4.677 9.041,9.903 	"/>
	<path fill="#3D6480" d="M5.959,35.096c-0.658-0.164-0.982-0.256-1.145-0.419c-0.16-0.162-0.161-0.396-0.161-0.854
		c0-0.758,0.192-0.975,1.273-0.975c0.546,0,1.173,0.069,1.699,0.189l0.074-0.746c-0.528-0.14-1.216-0.219-1.794-0.219
		c-1.646,0-2.129,0.561-2.129,1.722c0,1.378,0.193,1.69,1.799,2.049c0.683,0.154,1.022,0.251,1.193,0.419
		c0.169,0.167,0.172,0.406,0.172,0.854c0,0.749-0.213,1.025-1.273,1.025c-0.605,0-1.242-0.1-1.848-0.289l-0.146,0.716
		c0.568,0.229,1.337,0.35,1.975,0.35c1.826,0,2.169-0.661,2.169-1.821C7.818,35.797,7.725,35.535,5.959,35.096z"/>
	<path fill="#3D6480" d="M24.905,7.113h-3.93l-1.7,1.7H23.7C24.033,8.197,24.443,7.631,24.905,7.113z"/>
	<path fill="#3D6480" d="M29.398,33.222H11.704V16.384l-1.699,1.699v16.839h21.072v-9.216l-0.011-3.712
		c-0.584-0.034-1.152-0.122-1.701-0.263L29.398,33.222z"/>
	<path fill="#3D6480" d="M23.664,17.235h-9.063v0.8h9.538C23.966,17.777,23.81,17.51,23.664,17.235z"/>
	<rect x="14.601" y="20.617" fill="#3D6480" width="11.903" height="0.8"/>
	<rect x="14.601" y="24" fill="#3D6480" width="3.202" height="0.8"/>
	<path fill="#EFF9FE" d="M23.626,13.061c0-2.395,1.068-4.541,2.747-6.001h-1.421c-0.016,0.018-0.032,0.035-0.048,0.052
		c-0.462,0.518-0.871,1.085-1.204,1.7h-4.426l-7.571,7.571v16.838h17.694l-0.033-11.491c0.549,0.141,1.117,0.229,1.701,0.263
		c0.004,0,0.007,0,0.011,0.001v-1C26.925,20.73,23.626,17.278,23.626,13.061z M14.601,17.235h9.063
		c0.146,0.275,0.302,0.543,0.475,0.8h-9.538V17.235z M17.803,24.8h-3.202V24h3.202V24.8z M26.504,21.417H14.601v-0.8h11.903V21.417z
		"/>
	<path fill="#FFECCE" d="M29.166,16.874c0.628-0.125,1.269-0.199,1.919-0.224v-3.238h-2.551
		C28.57,14.619,28.78,15.789,29.166,16.874z"/>
	<path fill="#FFECCE" d="M27.003,18.291c0.822,0.722,1.816,1.25,2.911,1.521c-0.471-0.656-0.858-1.374-1.174-2.13
		C28.138,17.835,27.56,18.043,27.003,18.291z"/>
	<path fill="#FFECCE" d="M28.501,9.096c-0.697-0.186-1.363-0.452-2.008-0.763c-1.08,1.162-1.765,2.69-1.849,4.378h3.192
		C27.873,11.457,28.097,10.238,28.501,9.096z"/>
	<path fill="#FFECCE" d="M29.462,8.581c0.533,0.102,1.074,0.167,1.623,0.192V6.128c-0.034,0.002-0.068,0.002-0.102,0.005
		C30.364,6.872,29.854,7.695,29.462,8.581z"/>
	<path fill="#FFECCE" d="M29.959,6.302c-1.102,0.266-2.102,0.792-2.931,1.513c0.559,0.253,1.133,0.475,1.733,0.631
		C29.083,7.688,29.479,6.967,29.959,6.302z"/>
	<path fill="#FFECCE" d="M27.835,13.411h-3.192c0.084,1.673,0.755,3.193,1.82,4.352c0.642-0.306,1.318-0.551,2.02-0.734
		C28.087,15.891,27.87,14.671,27.835,13.411z"/>
	<path fill="#FFECCE" d="M30.943,19.986c0.048,0.004,0.094,0.014,0.142,0.017v-0.814V17.35c-0.558,0.023-1.109,0.086-1.649,0.187
		C29.823,18.428,30.327,19.253,30.943,19.986z"/>
	<path fill="#FFECCE" d="M28.536,12.711h2.55V9.472c-0.642-0.027-1.275-0.106-1.896-0.233
		C28.791,10.333,28.573,11.505,28.536,12.711z"/>
	<circle fill="#FFECCE" cx="37.148" cy="9.146" r="0.586"/>
	<path fill="#FF9C04" d="M37.148,7.93c-0.55,0-0.997,0.373-1.147,0.874h-0.419h-3.496V6.102h2.165
		c0.182,0.442,0.616,0.754,1.123,0.754c0.074,0,0.138-0.029,0.208-0.042c0.568-0.102,1.01-0.577,1.01-1.174
		c0-0.671-0.547-1.216-1.218-1.216c-0.231,0-0.436,0.082-0.62,0.195c-0.194,0.118-0.354,0.279-0.457,0.483h-2.112h-0.599
		c-1.994,0-3.814,0.742-5.212,1.958c-1.679,1.46-2.747,3.606-2.747,6.001c0,4.217,3.299,7.669,7.45,7.933
		c0.169,0.011,0.337,0.026,0.509,0.026h0.5v-0.5v-1.332v-5.777h1.743c0.159,0.488,0.602,0.848,1.141,0.848
		c0.228,0,0.43-0.08,0.612-0.19c0.355-0.213,0.605-0.584,0.605-1.028c0-0.443-0.25-0.814-0.605-1.027
		c-0.183-0.109-0.384-0.189-0.612-0.189c-0.553,0-1.002,0.379-1.149,0.886h-1.735V9.504h3.496h0.422
		c0.155,0.493,0.6,0.858,1.144,0.858c0.671,0,1.217-0.545,1.217-1.216S37.819,7.93,37.148,7.93z M35.374,5.054
		c0.324,0,0.587,0.263,0.587,0.586s-0.263,0.586-0.587,0.586c-0.323,0-0.586-0.263-0.586-0.586S35.05,5.054,35.374,5.054z
		 M29.959,6.302c-0.479,0.665-0.875,1.386-1.198,2.144c-0.6-0.155-1.174-0.378-1.733-0.631C27.857,7.094,28.856,6.568,29.959,6.302z
		 M26.494,8.334c0.645,0.31,1.311,0.576,2.008,0.763c-0.405,1.142-0.629,2.36-0.665,3.615h-3.192
		C24.729,11.024,25.414,9.496,26.494,8.334z M24.644,13.411h3.192c0.035,1.26,0.252,2.48,0.648,3.618
		c-0.702,0.183-1.378,0.428-2.02,0.734C25.399,16.605,24.727,15.085,24.644,13.411z M27.003,18.291
		c0.557-0.248,1.135-0.457,1.737-0.609c0.316,0.756,0.703,1.474,1.174,2.13C28.819,19.541,27.825,19.013,27.003,18.291z
		 M31.085,19.188v0.814c-0.048-0.003-0.094-0.013-0.142-0.017c-0.616-0.733-1.12-1.557-1.507-2.449
		c0.541-0.101,1.091-0.164,1.649-0.187V19.188z M31.085,16.65c-0.65,0.025-1.291,0.099-1.919,0.224
		c-0.387-1.085-0.597-2.255-0.632-3.463h2.551V16.65z M31.085,12.711h-2.55c0.037-1.207,0.255-2.379,0.654-3.471
		c0.622,0.127,1.254,0.206,1.896,0.233V12.711z M31.085,8.772c-0.549-0.024-1.09-0.089-1.623-0.192
		c0.392-0.885,0.902-1.708,1.521-2.448c0.033-0.003,0.068-0.003,0.102-0.005V8.772z M34.969,12.455c0.324,0,0.587,0.263,0.587,0.586
		c0,0.324-0.263,0.587-0.587,0.587c-0.323,0-0.585-0.264-0.585-0.587C34.384,12.719,34.646,12.455,34.969,12.455z M37.148,9.733
		c-0.323,0-0.586-0.263-0.586-0.586s0.263-0.586,0.586-0.586s0.586,0.263,0.586,0.586S37.471,9.733,37.148,9.733z"/>
	<circle fill="#FFECCE" cx="35.374" cy="5.64" r="0.586"/>
	<circle fill="#FFECCE" cx="34.969" cy="13.042" r="0.587"/>
</g>
</svg>
