<?xml version="1.0" encoding="utf-8"?>
<!-- Generator: Adobe Illustrator 17.0.0, SVG Export Plug-In . SVG Version: 6.00 Build 0)  -->
<!DOCTYPE svg PUBLIC "-//W3C//DTD SVG 1.1//EN" "http://www.w3.org/Graphics/SVG/1.1/DTD/svg11.dtd">
<svg version="1.1" id="Layer_1" xmlns="http://www.w3.org/2000/svg" xmlns:xlink="http://www.w3.org/1999/xlink" x="0px" y="0px"
	 width="42px" height="42px" viewBox="0 0 42 42" enable-background="new 0 0 42 42" xml:space="preserve">
<g>
	<path fill="#FFFFFF" d="M38.835,39.604H26.391V27.161h12.443V39.604z"/>
	<path fill="#FFFFFF" d="M38.034,27.962H27.192v10.842h10.842V27.962z M30.742,37.594l-3.12-3.121l1.344-1.344l1.776,1.777
		l5.521-5.521l1.344,1.344L30.742,37.594z"/>
	<path fill="#3D6480" d="M26.391,39.604h12.443V27.161H26.391V39.604z M27.192,27.962h10.842v10.842H27.192V27.962z"/>
	<polygon fill="#3D6480" points="36.263,29.386 30.742,34.906 28.966,33.129 27.622,34.473 30.742,37.594 37.606,30.729 	"/>
	<polygon fill="#3D6480" points="12.346,5.404 25.725,5.404 25.725,9.662 29.982,9.662 30.029,26.118 30.726,26.118 30.783,26.061 
		31.726,25.118 31.682,9.672 29.973,7.963 27.425,7.963 27.425,5.415 25.715,3.705 10.646,3.705 10.646,25.743 12.346,25.743 	"/>
	<polygon fill="#3D6480" points="25.433,31.411 25.433,29.814 22.167,29.814 22.167,31.514 25.292,31.514 25.331,31.514 	"/>
	<rect x="15.243" y="13.826" fill="#3D6480" width="11.902" height="0.801"/>
	<rect x="15.243" y="17.209" fill="#3D6480" width="11.902" height="0.801"/>
	<rect x="15.243" y="20.592" fill="#3D6480" width="3.201" height="0.801"/>
	<path fill="#EFF9FE" d="M25.433,29.814v-3.697h4.596L29.982,9.662h-4.257V5.404h-13.38v20.339h-1.699h-0.007v1.203h9.219v4.569
		h2.309v-0.002v-1.699H25.433z M15.243,13.826h11.902v0.801H15.243V13.826z M18.444,21.393h-3.201v-0.801h3.201V21.393z
		 M15.243,18.01v-0.801h11.902v0.801H15.243z"/>
	<path fill="#EFF9FE" d="M5.444,33.359h13.414v-5.413H5.444V33.359z M6.85,30.252h10.601v0.801H6.85V30.252z"/>
	<path fill="#3D6480" d="M10.639,26.946H4.444v7.413h15.414v-2.844v-4.569H10.639z M18.858,33.359H5.444v-5.413h13.414V33.359z"/>
	<rect x="6.85" y="30.252" fill="#3D6480" width="10.601" height="0.801"/>
</g>
</svg>
