<?xml version="1.0" encoding="utf-8"?>
<!-- Generator: Adobe Illustrator 17.0.0, SVG Export Plug-In . SVG Version: 6.00 Build 0)  -->
<!DOCTYPE svg PUBLIC "-//W3C//DTD SVG 1.1//EN" "http://www.w3.org/Graphics/SVG/1.1/DTD/svg11.dtd">
<svg version="1.1" id="Layer_1" xmlns="http://www.w3.org/2000/svg" xmlns:xlink="http://www.w3.org/1999/xlink" x="0px" y="0px"
	 width="42px" height="42px" viewBox="0 0 42 42" enable-background="new 0 0 42 42" xml:space="preserve">
<g>
	<rect x="10.654" y="9.449" fill="none" width="8.681" height="5.665"/>
	<rect x="5.229" y="11.316" fill="none" width="3.726" height="1.931"/>
	<rect x="14.029" y="16.813" fill="none" width="1.931" height="15.737"/>
	<rect x="21.034" y="11.316" fill="none" width="15.736" height="1.931"/>
	<path fill="#3D6480" d="M38.47,9.617H21.034V7.75H8.955v1.867H3.53v5.329h5.425v1.867h3.375V34.25h5.329V16.813h3.375v-1.867H38.47
		V9.617z M8.955,13.247H5.229v-1.931h3.726V13.247z M15.96,32.551h-1.931V16.813h1.931V32.551z M19.335,15.114h-8.681V9.449h8.681
		V15.114z M36.771,13.247H21.034v-1.931h15.736V13.247z"/>
	<polygon fill="#3D6480" points="34.047,28.828 32.703,30.172 35.468,32.936 27.651,32.936 30.416,30.172 29.072,28.828 
		24.031,33.869 29.09,38.928 30.434,37.584 27.687,34.837 35.468,34.837 32.721,37.584 34.064,38.928 39.105,33.887 	"/>
</g>
</svg>
