<?xml version="1.0" encoding="utf-8"?>
<!-- Generator: Adobe Illustrator 17.0.0, SVG Export Plug-In . SVG Version: 6.00 Build 0)  -->
<!DOCTYPE svg PUBLIC "-//W3C//DTD SVG 1.1//EN" "http://www.w3.org/Graphics/SVG/1.1/DTD/svg11.dtd">
<svg version="1.1" id="Layer_1" xmlns="http://www.w3.org/2000/svg" xmlns:xlink="http://www.w3.org/1999/xlink" x="0px" y="0px"
	 width="42px" height="42px" viewBox="0 0 42 42" enable-background="new 0 0 42 42" xml:space="preserve">
<g>
	<path fill="#5FB34F" d="M11.73,12.071c-1.813,1.815-2.069,5.499-0.246,7.321c1.806,1.807,2.47-1.429,4.663-3.622
		s4.459-3.137,3.278-4.319C17.754,9.779,13.923,9.879,11.73,12.071z"/>
	<path fill="#5FB34F" d="M26.758,19.087h1.25c0.425,0,0.817,0.037,1.192,0.094c1.125-4.522-0.064-9.502-3.6-13.037
		c-5.363-5.363-14.059-5.363-19.423,0c-5.363,5.363-5.363,14.059,0,19.422c5.364,5.364,14.06,5.364,19.423,0
		c0.894-0.894,1.625-1.886,2.221-2.935h-1.063V19.087z M18.587,17.835c-4.604,4.604-6.431,10.961-11.034,6.357
		c-4.604-4.604-4.604-12.068,0-16.673c4.604-4.604,12.067-4.604,16.672,0C27.672,10.968,23.191,13.23,18.587,17.835z"/>
	<path fill="#FFFFFF" d="M38.456,30.981v4.446l-6.998,3.533l-7-3.533v-4.131l-2.178-1.133l2.211-3.002l3.801-1.586l0.023,0.056
		l0.39-0.165l-0.204-0.204l0.738-0.738l1.65,1.65v-0.037v-1.709c0-2.25-0.727-3.01-2.883-3.01v-1.045
		c2.715,0,3.926,1.252,3.926,4.055v1.74l1.564-1.564l0.738,0.738l-0.099,0.099l0.271,0.113l0.025-0.06l3.99,1.666l1.857,2.811
		L38.456,30.981z"/>
	<polygon fill="#FFEBCD" points="29.294,32.763 30.675,30.88 25.093,28.061 23.702,29.851 	"/>
	<polygon fill="#FFEBCD" points="31.12,31.852 29.573,33.962 25.425,31.8 25.425,34.831 31.12,37.706 	"/>
	<polygon fill="#FFEBCD" points="33.149,33.917 31.56,31.556 31.56,37.823 37.489,34.831 37.489,31.515 	"/>
	<polygon fill="#FFEBCD" points="38.423,35.405 31.458,38.923 24.491,35.405 24.491,31.313 24.458,31.296 24.458,35.427 
		31.458,38.96 38.456,35.427 38.456,30.981 38.423,30.999 	"/>
	<polygon fill="#FFEBCD" points="26.075,27.513 31.454,30.227 36.769,27.481 34.073,26.356 34.408,25.555 34.136,25.442 
		31.409,28.169 28.705,25.467 28.315,25.631 28.651,26.436 	"/>
	<polygon fill="#FFEBCD" points="37.804,27.999 32.229,30.878 33.446,32.685 38.931,29.651 	"/>
	<path fill="#3D6480" d="M38.423,27.161l-3.99-1.666l-0.025,0.06l-0.334,0.802l2.695,1.125l-5.314,2.746l-5.379-2.715l2.576-1.076
		l-0.336-0.805l-0.023-0.056l-3.801,1.586l-2.211,3.002l2.178,1.133l0.033,0.017v4.092l6.967,3.518l6.965-3.518v-4.406l0.033-0.018
		l1.824-1.009L38.423,27.161z M23.702,29.851l1.391-1.789l5.582,2.818l-1.381,1.883L23.702,29.851z M25.425,34.831V31.8l4.148,2.162
		l1.547-2.109v5.854L25.425,34.831z M37.489,34.831l-5.93,2.992v-6.268l1.59,2.361l4.34-2.402V34.831z M33.446,32.685l-1.217-1.807
		l5.574-2.879l1.127,1.652L33.446,32.685z"/>
	<path fill="#0CB20F" d="M34.136,25.442l0.099-0.099l-0.738-0.738l-1.564,1.564v-1.74c0-2.803-1.211-4.055-3.926-4.055v1.045
		c2.156,0,2.883,0.76,2.883,3.01v1.709v0.037l-1.65-1.65l-0.738,0.738l0.204,0.204l2.704,2.702L34.136,25.442z"/>
</g>
</svg>
