<?xml version="1.0" encoding="utf-8"?>
<!-- Generator: Adobe Illustrator 17.0.0, SVG Export Plug-In . SVG Version: 6.00 Build 0)  -->
<!DOCTYPE svg PUBLIC "-//W3C//DTD SVG 1.1//EN" "http://www.w3.org/Graphics/SVG/1.1/DTD/svg11.dtd">
<svg version="1.1" id="Layer_1" xmlns="http://www.w3.org/2000/svg" xmlns:xlink="http://www.w3.org/1999/xlink" x="0px" y="0px"
	 width="42px" height="42px" viewBox="0 0 42 42" enable-background="new 0 0 42 42" xml:space="preserve">
<g>
	<path fill="#3D6480" d="M37.716,33.251c0.02-0.375-0.003-0.755-0.071-1.137l1.308-0.956l-0.177-0.464
		c-0.078-0.205-0.171-0.4-0.268-0.596l-0.228-0.455l-1.552,0.355c-0.104-0.133-0.224-0.264-0.346-0.395
		c-0.143-0.154-0.279-0.289-0.435-0.423l0.383-1.557l-0.432-0.242c-0.198-0.11-0.397-0.209-0.604-0.298l-0.469-0.203l-0.952,1.265
		c-0.364-0.084-0.74-0.126-1.119-0.127l-0.711-1.435l-0.48,0.086c-0.22,0.039-0.441,0.085-0.656,0.148l-0.486,0.144l0.067,1.591
		c-0.317,0.164-0.627,0.374-0.926,0.626l-1.476-0.644l-0.312,0.383c-0.142,0.175-0.271,0.356-0.393,0.542l-0.278,0.426l1.08,1.165
		c-0.148,0.351-0.256,0.712-0.318,1.07l-1.549,0.458l0.005,0.491c0.002,0.22,0.016,0.439,0.041,0.658l0.059,0.508l1.591,0.197
		c0.112,0.371,0.261,0.719,0.447,1.04l-0.909,1.351l0.982,1.054l1.464-0.695l0.058-0.039c0.312,0.203,0.651,0.373,1.018,0.507
		l0.176,1.612l0.491,0.078c0.214,0.033,0.428,0.052,0.646,0.064l0.509,0.027l0.464-1.52c0.404-0.049,0.785-0.14,1.096-0.266
		l1.179,1.121l0.425-0.26c0.188-0.114,0.37-0.244,0.549-0.379l0.409-0.309l-0.625-1.44c0.252-0.271,0.472-0.571,0.667-0.911
		l1.602,0.1l0.162-0.466c0.074-0.211,0.138-0.426,0.19-0.643l0.12-0.502L37.716,33.251z M32.676,36.634
		c-1.988,0-3.6-1.612-3.6-3.601s1.611-3.6,3.6-3.6s3.601,1.611,3.601,3.6S34.664,36.634,32.676,36.634z"/>
	<circle fill="#FFFFFF" cx="32.676" cy="33.033" r="3.6"/>
	<polygon fill="#FFFFFF" points="28.857,23.352 29.259,22.95 8.857,22.95 8.857,29.7 22.509,29.7 27.156,25.052 	"/>
	<polygon fill="#FFFFFF" points="8.857,14.737 8.857,22.149 30.059,22.149 31.156,21.052 31.156,14.737 	"/>
	<rect x="8.857" y="7.399" fill="#EFF9FE" width="22.3" height="6.537"/>
	<path fill="#3D6480" d="M8.857,22.95h20.402l0.801-0.801H8.857v-7.412h22.3v6.315l1.7-1.7V5.7h-25.7v25.699h13.653l1.699-1.699
		H8.857V22.95z M8.857,7.399h22.3v6.537h-22.3V7.399z"/>
</g>
</svg>
