<?xml version="1.0" encoding="utf-8"?>
<!-- Generator: Adobe Illustrator 17.0.0, SVG Export Plug-In . SVG Version: 6.00 Build 0)  -->
<!DOCTYPE svg PUBLIC "-//W3C//DTD SVG 1.1//EN" "http://www.w3.org/Graphics/SVG/1.1/DTD/svg11.dtd">
<svg version="1.1" id="Layer_1" xmlns="http://www.w3.org/2000/svg" xmlns:xlink="http://www.w3.org/1999/xlink" x="0px" y="0px"
	 width="42px" height="42px" viewBox="0 0 42 42" enable-background="new 0 0 42 42" xml:space="preserve">
<g>
	<polygon fill="#3D6480" points="37.509,33.703 37.509,36.786 32.284,31.561 30.94,32.905 36.165,38.13 33.02,38.13 33.02,40.031 
		39.41,40.03 39.41,33.703 	"/>
	<polygon fill="#EFF9FE" points="29.025,20.07 29.025,11.655 13.519,11.655 13.519,19.817 21.374,27.696 	"/>
	<polygon fill="#FFFFFF" points="32.644,17.591 21.372,28.827 10.102,17.522 10.102,32.482 24.573,32.482 32.644,24.41 	"/>
	<path fill="#3D6480" d="M10.102,17.522l11.27,11.305l11.272-11.236v6.819l1.7-1.7v-6.585v-0.6h-3.619V9.956H11.819v5.569H8.402v0.6
		v18.057h14.471l1.699-1.699h-14.47V17.522z M13.519,11.655h15.506v8.415l-7.651,7.626l-7.855-7.879V11.655z"/>
</g>
</svg>
