<?xml version="1.0" encoding="utf-8"?>
<!-- Generator: Adobe Illustrator 17.0.0, SVG Export Plug-In . SVG Version: 6.00 Build 0)  -->
<!DOCTYPE svg PUBLIC "-//W3C//DTD SVG 1.1//EN" "http://www.w3.org/Graphics/SVG/1.1/DTD/svg11.dtd">
<svg version="1.1" id="Layer_1" xmlns="http://www.w3.org/2000/svg" xmlns:xlink="http://www.w3.org/1999/xlink" x="0px" y="0px"
	 width="42px" height="42px" viewBox="0 0 42 42" enable-background="new 0 0 42 42" xml:space="preserve">
<g>
	<polygon fill="#3D6480" points="37.637,32.952 37.637,36.035 32.411,30.81 31.068,32.154 36.293,37.379 33.148,37.379 
		33.148,39.28 39.537,39.28 39.537,32.952 	"/>
	<polygon fill="#3D6480" points="14.674,8.113 28.051,8.113 28.051,12.37 32.31,12.37 32.343,23.998 34.038,22.303 34.01,12.381 
		32.301,10.671 29.752,10.671 29.752,8.122 28.044,6.413 12.973,6.413 12.973,28.452 14.674,28.452 	"/>
	<rect x="17.57" y="16.534" fill="#3D6480" width="11.903" height="0.801"/>
	<rect x="17.57" y="19.917" fill="#3D6480" width="11.903" height="0.801"/>
	<rect x="17.57" y="23.3" fill="#3D6480" width="3.202" height="0.801"/>
	<path fill="#EFF9FE" d="M32.31,12.37h-4.258V8.113H14.674v20.34h-1.7h-0.005v1.201h9.217v4.502l10.158-10.158L32.31,12.37z
		 M20.773,24.101H17.57V23.3h3.202V24.101z M29.474,20.718H17.57v-0.801h11.903V20.718z M29.474,17.335H17.57v-0.801h11.903V17.335z
		"/>
	<path fill="#EFF9FE" d="M7.772,30.654v5.414h12.501l0.912-0.912v-4.502H7.772z M19.778,33.761H9.177V32.96h10.602V33.761z"/>
	<polygon fill="#3D6480" points="12.968,29.654 6.772,29.654 6.772,37.068 19.273,37.068 20.273,36.068 7.772,36.068 7.772,30.654 
		21.185,30.654 21.185,35.156 22.185,34.156 22.185,29.654 	"/>
	<rect x="9.177" y="32.96" fill="#3D6480" width="10.602" height="0.801"/>
</g>
</svg>
