<?xml version="1.0" encoding="utf-8"?>
<!-- Generator: Adobe Illustrator 17.0.0, SVG Export Plug-In . SVG Version: 6.00 Build 0)  -->
<!DOCTYPE svg PUBLIC "-//W3C//DTD SVG 1.1//EN" "http://www.w3.org/Graphics/SVG/1.1/DTD/svg11.dtd">
<svg version="1.1" id="Layer_1" xmlns="http://www.w3.org/2000/svg" xmlns:xlink="http://www.w3.org/1999/xlink" x="0px" y="0px"
	 width="42px" height="42px" viewBox="0 0 42 42" enable-background="new 0 0 42 42" xml:space="preserve">
<g>
	<path fill="none" d="M30.789,28.814h-1.112v5.698h0.913c1.891,0,2.836-0.959,2.836-2.879
		C33.426,29.754,32.547,28.814,30.789,28.814z"/>
	<path fill="#0CB20F" d="M28.399,15.318v4.532l-1.954-1.954l-1.344,1.344l4.248,4.248l4.248-4.248l-1.344-1.344L30.3,19.851v-4.532
		c0-2.953-2.403-5.356-5.356-5.356h-0.638v1.9h0.638C26.849,11.862,28.399,13.412,28.399,15.318z"/>
	<path fill="#EFF9FE" d="M17.144,10.42h-9.18v21.15h9.18V10.42z M15.703,29.443h-1.704v-1h1.704V29.443z M15.703,19.93H9.406v-0.699
		h6.297V19.93z M15.703,16.668H9.406v-0.699h6.297V16.668z M15.703,13.406H9.406v-0.699h6.297V13.406z"/>
	<path fill="#3D6480" d="M6.264,33.27h12.58V8.721H6.264V33.27z M7.964,10.42h9.18v21.15h-9.18V10.42z"/>
	<rect x="9.406" y="12.707" fill="#3D6480" width="6.297" height="0.699"/>
	<rect x="9.406" y="15.969" fill="#3D6480" width="6.297" height="0.699"/>
	<rect x="9.406" y="19.231" fill="#3D6480" width="6.297" height="0.699"/>
	<rect x="13.999" y="28.443" fill="#3D6480" width="1.704" height="1"/>
	<rect x="25.037" y="27.739" fill="#3D6480" width="1.284" height="7.853"/>
	<path fill="#3D6480" d="M33.738,28.749c-0.695-0.673-1.667-1.01-2.917-1.01h-2.428v7.853h2.197c1.354,0,2.39-0.343,3.11-1.028
		s1.08-1.677,1.08-2.974C34.78,30.369,34.433,29.422,33.738,28.749z M30.59,34.512h-0.913v-5.698h1.112
		c1.758,0,2.637,0.94,2.637,2.819C33.426,33.553,32.481,34.512,30.59,34.512z"/>
</g>
</svg>
