<?xml version="1.0" encoding="utf-8"?>
<!-- Generator: Adobe Illustrator 17.0.0, SVG Export Plug-In . SVG Version: 6.00 Build 0)  -->
<!DOCTYPE svg PUBLIC "-//W3C//DTD SVG 1.1//EN" "http://www.w3.org/Graphics/SVG/1.1/DTD/svg11.dtd">
<svg version="1.1" id="Layer_1" xmlns="http://www.w3.org/2000/svg" xmlns:xlink="http://www.w3.org/1999/xlink" x="0px" y="0px"
	 width="42px" height="42px" viewBox="0 0 42 42" enable-background="new 0 0 42 42" xml:space="preserve">
<g>
	<path fill="#5FB34F" d="M30.711,9.15c-5.363-5.363-14.059-5.363-19.423,0c-5.363,5.363-5.363,14.059,0,19.422
		c5.364,5.364,14.06,5.364,19.423,0C36.075,23.209,36.075,14.514,30.711,9.15z M23.698,20.841
		c-4.604,4.604-6.431,10.961-11.033,6.357c-4.605-4.604-4.605-12.068,0-16.673c4.603-4.604,12.066-4.604,16.671,0
		C32.783,13.974,28.303,16.236,23.698,20.841z"/>
	<path fill="#5FB34F" d="M16.842,15.077c-1.813,1.815-2.069,5.499-0.246,7.321c1.806,1.807,2.47-1.429,4.663-3.622
		s4.459-3.137,3.279-4.319C22.865,12.785,19.034,12.885,16.842,15.077z"/>
	<polygon fill="#3D6480" points="37.114,32.497 37.114,35.58 31.89,30.355 30.546,31.699 35.771,36.924 32.626,36.925 
		32.626,38.825 39.015,38.824 39.015,32.497 	"/>
</g>
</svg>
