<?xml version="1.0" encoding="utf-8"?>
<!-- Generator: Adobe Illustrator 17.0.0, SVG Export Plug-In . SVG Version: 6.00 Build 0)  -->
<!DOCTYPE svg PUBLIC "-//W3C//DTD SVG 1.1//EN" "http://www.w3.org/Graphics/SVG/1.1/DTD/svg11.dtd">
<svg version="1.1" id="Layer_1" xmlns="http://www.w3.org/2000/svg" xmlns:xlink="http://www.w3.org/1999/xlink" x="0px" y="0px"
	 width="42px" height="42px" viewBox="0 0 42 42" enable-background="new 0 0 42 42" xml:space="preserve">
<g>
	<rect x="10.276" y="17.648" fill="none" width="6.757" height="7.411"/>
	<rect x="10.276" y="25.86" fill="none" width="6.757" height="6.75"/>
	<rect x="17.832" y="17.648" fill="none" width="7.412" height="7.411"/>
	<path fill="#3D6480" d="M38.064,33.958c0.02-0.375-0.003-0.755-0.071-1.138l1.309-0.957l-0.178-0.464
		c-0.078-0.203-0.17-0.399-0.268-0.595l-0.228-0.455l-1.553,0.355c-0.104-0.133-0.223-0.264-0.346-0.396
		c-0.143-0.152-0.279-0.288-0.434-0.42l0.383-1.558l-0.432-0.242c-0.198-0.11-0.397-0.209-0.604-0.298l-0.469-0.203l-0.952,1.265
		c-0.366-0.083-0.742-0.126-1.119-0.127l-0.711-1.435l-0.48,0.086c-0.219,0.039-0.439,0.085-0.653,0.147l-0.489,0.143l0.067,1.594
		c-0.316,0.164-0.626,0.373-0.926,0.626l-1.477-0.646l-0.312,0.385c-0.142,0.176-0.271,0.357-0.393,0.544l-0.276,0.425l1.079,1.163
		c-0.148,0.35-0.255,0.711-0.318,1.07l-1.549,0.458l0.005,0.491c0.002,0.221,0.016,0.439,0.041,0.658l0.059,0.508l1.591,0.197
		c0.111,0.369,0.26,0.717,0.447,1.041l-0.909,1.35l0.982,1.053l1.376-0.644l0.146-0.089c0.313,0.203,0.653,0.373,1.018,0.506
		l0.176,1.61l0.488,0.079c0.215,0.035,0.43,0.053,0.648,0.065l0.509,0.027l0.464-1.52c0.407-0.049,0.788-0.141,1.096-0.266
		l1.179,1.121l0.425-0.26c0.188-0.114,0.371-0.244,0.551-0.381l0.406-0.309l-0.625-1.438c0.252-0.271,0.472-0.572,0.667-0.911
		l1.602,0.098l0.162-0.465c0.074-0.211,0.139-0.425,0.19-0.644l0.119-0.501L38.064,33.958z M29.425,33.74
		c0-1.988,1.611-3.601,3.6-3.601s3.601,1.612,3.601,3.601s-1.612,3.6-3.601,3.6S29.425,35.728,29.425,33.74z"/>
	<circle fill="#FFFFFF" cx="33.024" cy="33.74" r="3.6"/>
	<polygon fill="#EFF9FE" points="26.044,16.848 32.575,16.848 32.575,10.309 10.276,10.309 10.276,16.848 17.032,16.848 
		17.032,16.839 17.832,16.839 17.832,16.848 25.244,16.848 25.244,16.839 26.044,16.839 	"/>
	<path fill="#3D6480" d="M31.373,25.059h-5.328v-7.411h6.531v6.208l1.7-1.7V8.61h-25.7v25.699h13.547l1.699-1.699h-5.99v-6.75h7.412
		v5.328l0.8-0.8V25.86h4.528L31.373,25.059z M17.032,32.61h-6.757v-6.75h6.757V32.61z M17.032,25.059h-6.757v-7.411h6.757V25.059z
		 M25.244,25.059h-7.412v-7.411h7.412V25.059z M25.244,16.839v0.009h-7.412v-0.009h-0.8v0.009h-6.757v-6.538h22.3v6.538h-6.531
		v-0.009H25.244z"/>
</g>
</svg>
