<?xml version="1.0" encoding="utf-8"?>
<!-- Generator: Adobe Illustrator 17.0.0, SVG Export Plug-In . SVG Version: 6.00 Build 0)  -->
<!DOCTYPE svg PUBLIC "-//W3C//DTD SVG 1.1//EN" "http://www.w3.org/Graphics/SVG/1.1/DTD/svg11.dtd">
<svg version="1.1" id="Layer_1" xmlns="http://www.w3.org/2000/svg" xmlns:xlink="http://www.w3.org/1999/xlink" x="0px" y="0px"
	 width="42px" height="42px" viewBox="0 0 42 42" enable-background="new 0 0 42 42" xml:space="preserve">
<g>
	<rect x="5.229" y="7.433" fill="none" width="3.726" height="1.932"/>
	<rect x="14.029" y="12.931" fill="none" width="1.931" height="15.736"/>
	<path fill="none" d="M34.653,14.94v1.757h0.435c0.419,0,0.727-0.073,0.922-0.219c0.196-0.146,0.295-0.374,0.295-0.684
		c0-0.287-0.088-0.501-0.264-0.643s-0.449-0.212-0.82-0.212H34.653z"/>
	<path fill="none" d="M26.621,16.478c0.195-0.146,0.294-0.374,0.294-0.684c0-0.287-0.088-0.501-0.263-0.643
		c-0.176-0.142-0.449-0.212-0.82-0.212h-0.568v1.757h0.435C26.117,16.696,26.426,16.623,26.621,16.478z"/>
	<path fill="none" d="M30.76,37.8h6.74v-5.141h-6.74V37.8z M33.63,34.435h1v1.59h-1V34.435z"/>
	<rect x="21.034" y="7.433" fill="none" width="15.736" height="1.932"/>
	<path fill="#3D6480" d="M31.903,31.159v-1.074c0-2.26-1.643-3.766-3.661-3.766s-3.66,1.506-3.66,3.766v1.6h1.5v-1.6
		c0-1.424,0.962-2.266,2.16-2.266s2.161,0.842,2.161,2.266v1.074H29.26V39.3H39v-8.141H31.903z M37.5,37.8h-6.74v-5.141h6.74V37.8z"
		/>
	<rect x="33.63" y="34.435" fill="#3D6480" width="1" height="1.59"/>
	<path fill="#3D6480" d="M38.47,5.733H21.034V3.866H8.955v1.867H3.53v5.33h5.425v1.867h3.375v17.436h5.329V12.931h3.375v-1.867
		H38.47V5.733z M8.955,9.364H5.23V7.433h3.726V9.364z M15.96,28.667h-1.931V12.931h1.931V28.667z M19.335,11.232h-8.681V5.566h8.681
		V11.232z M36.771,9.364H21.034V7.433h15.736V9.364z"/>
	<path fill="#3D6480" d="M25.264,17.383h0.52c0.632,0,1.118-0.139,1.46-0.416c0.342-0.278,0.513-0.678,0.513-1.2
		c0-0.497-0.156-0.872-0.467-1.128s-0.778-0.383-1.402-0.383h-1.439v4.997h0.816V17.383z M25.264,14.94h0.568
		c0.371,0,0.645,0.07,0.82,0.212c0.175,0.142,0.263,0.355,0.263,0.643c0,0.31-0.099,0.538-0.294,0.684s-0.504,0.219-0.923,0.219
		h-0.435V14.94z"/>
	<path fill="#3D6480" d="M31.092,14.885c0.406,0,0.811,0.094,1.217,0.28l0.287-0.681c-0.467-0.2-0.961-0.301-1.483-0.301
		c-0.812,0-1.448,0.228-1.911,0.683c-0.462,0.454-0.693,1.084-0.693,1.888c0,0.816,0.205,1.448,0.615,1.896
		c0.41,0.448,0.994,0.672,1.75,0.672c0.321,0,0.621-0.021,0.896-0.062c0.277-0.041,0.566-0.11,0.867-0.209v-2.508h-1.839v0.7h1.036
		v1.288c-0.301,0.066-0.584,0.1-0.848,0.1c-0.524,0-0.926-0.159-1.205-0.477c-0.279-0.318-0.419-0.782-0.419-1.393
		c0-0.582,0.155-1.039,0.465-1.375C30.137,15.053,30.559,14.885,31.092,14.885z"/>
	<path fill="#3D6480" d="M33.836,14.256v4.997h0.817v-1.87h0.52c0.632,0,1.118-0.139,1.46-0.416c0.342-0.278,0.512-0.678,0.512-1.2
		c0-0.497-0.155-0.872-0.466-1.128c-0.312-0.256-0.778-0.383-1.403-0.383H33.836z M36.305,15.794c0,0.31-0.099,0.538-0.295,0.684
		c-0.195,0.146-0.503,0.219-0.922,0.219h-0.435V14.94h0.567c0.371,0,0.645,0.07,0.82,0.212S36.305,15.507,36.305,15.794z"/>
</g>
</svg>
