<?xml version="1.0" encoding="utf-8"?>
<!-- Generator: Adobe Illustrator 17.0.0, SVG Export Plug-In . SVG Version: 6.00 Build 0)  -->
<!DOCTYPE svg PUBLIC "-//W3C//DTD SVG 1.1//EN" "http://www.w3.org/Graphics/SVG/1.1/DTD/svg11.dtd">
<svg version="1.1" id="Layer_1" xmlns="http://www.w3.org/2000/svg" xmlns:xlink="http://www.w3.org/1999/xlink" x="0px" y="0px"
	 width="42px" height="42px" viewBox="0 0 42 42" enable-background="new 0 0 42 42" xml:space="preserve">
<g>
	<rect x="5.229" y="7.133" fill="none" width="3.726" height="1.932"/>
	<rect x="14.029" y="12.631" fill="none" width="1.931" height="15.736"/>
	<path fill="none" d="M34.653,14.64v1.757h0.435c0.419,0,0.727-0.073,0.922-0.219c0.196-0.146,0.295-0.374,0.295-0.684
		c0-0.287-0.088-0.501-0.264-0.643s-0.449-0.212-0.82-0.212H34.653z"/>
	<rect x="21.034" y="7.133" fill="none" width="15.736" height="1.932"/>
	<path fill="none" d="M25.832,14.64h-0.568v1.757h0.435c0.419,0,0.728-0.073,0.923-0.219s0.294-0.374,0.294-0.684
		c0-0.287-0.088-0.501-0.263-0.643C26.477,14.71,26.203,14.64,25.832,14.64z"/>
	<path fill="none" d="M30.76,37.5h6.74v-5.141h-6.74V37.5z M33.63,34.136h1v1.588h-1V34.136z"/>
	<path fill="none" d="M36.291,29.785c0-1.424-0.964-2.267-2.161-2.267c-1.198,0-2.161,0.843-2.161,2.267v1.074h4.322V29.785z"/>
	<path fill="#3D6480" d="M37.791,30.859v-1.074c0-2.26-1.644-3.767-3.661-3.767c-2.019,0-3.661,1.507-3.661,3.767v1.074H29.26V39H39
		v-8.141H37.791z M31.969,29.785c0-1.424,0.963-2.267,2.161-2.267c1.197,0,2.161,0.843,2.161,2.267v1.074h-4.322V29.785z M37.5,37.5
		h-6.74v-5.141h6.74V37.5z"/>
	<rect x="33.63" y="34.136" fill="#3D6480" width="1" height="1.588"/>
	<path fill="#3D6480" d="M21.034,10.764H38.47v-5.33H21.034V3.566H8.955v1.867H3.53v5.33h5.425v1.867h3.375v17.436h5.329V12.631
		h3.375V10.764z M10.654,10.932V5.266h8.681v5.666H10.654z M36.771,7.133v1.932H21.034V7.133H36.771z M5.23,9.064V7.133h3.726v1.932
		H5.23z M15.96,28.367h-1.931V12.631h1.931V28.367z"/>
	<path fill="#3D6480" d="M25.887,13.956h-1.439v4.997h0.816v-1.87h0.52c0.632,0,1.118-0.139,1.46-0.416
		c0.342-0.278,0.513-0.678,0.513-1.2c0-0.497-0.156-0.872-0.467-1.128S26.511,13.956,25.887,13.956z M26.621,16.178
		c-0.195,0.146-0.504,0.219-0.923,0.219h-0.435V14.64h0.568c0.371,0,0.645,0.07,0.82,0.212c0.175,0.142,0.263,0.355,0.263,0.643
		C26.915,15.804,26.816,16.032,26.621,16.178z"/>
	<path fill="#3D6480" d="M31.77,18.96c0.277-0.041,0.566-0.11,0.867-0.209v-2.508h-1.839v0.7h1.036v1.288
		c-0.301,0.066-0.584,0.1-0.848,0.1c-0.524,0-0.926-0.159-1.205-0.477c-0.279-0.318-0.419-0.782-0.419-1.393
		c0-0.582,0.155-1.039,0.465-1.375c0.31-0.334,0.731-0.502,1.265-0.502c0.406,0,0.811,0.094,1.217,0.28l0.287-0.681
		c-0.467-0.2-0.961-0.301-1.483-0.301c-0.812,0-1.448,0.228-1.911,0.683c-0.462,0.454-0.693,1.084-0.693,1.888
		c0,0.816,0.205,1.448,0.615,1.896c0.41,0.448,0.994,0.672,1.75,0.672C31.194,19.021,31.494,19.001,31.77,18.96z"/>
	<path fill="#3D6480" d="M33.836,13.956v4.997h0.817v-1.87h0.52c0.632,0,1.118-0.139,1.46-0.416c0.342-0.278,0.512-0.678,0.512-1.2
		c0-0.497-0.155-0.872-0.466-1.128c-0.312-0.256-0.778-0.383-1.403-0.383H33.836z M36.305,15.494c0,0.31-0.099,0.538-0.295,0.684
		c-0.195,0.146-0.503,0.219-0.922,0.219h-0.435V14.64h0.567c0.371,0,0.645,0.07,0.82,0.212S36.305,15.207,36.305,15.494z"/>
</g>
</svg>
