<?xml version="1.0" encoding="utf-8"?>
<!-- Generator: Adobe Illustrator 17.0.0, SVG Export Plug-In . SVG Version: 6.00 Build 0)  -->
<!DOCTYPE svg PUBLIC "-//W3C//DTD SVG 1.1//EN" "http://www.w3.org/Graphics/SVG/1.1/DTD/svg11.dtd">
<svg version="1.1" id="Layer_1" xmlns="http://www.w3.org/2000/svg" xmlns:xlink="http://www.w3.org/1999/xlink" x="0px" y="0px"
	 width="42px" height="42px" viewBox="0 0 42 42" enable-background="new 0 0 42 42" xml:space="preserve">
<g>
	<polygon fill="#3D6480" points="36.728,32.869 36.728,35.952 31.503,30.727 30.159,32.071 35.386,37.297 32.239,37.297 
		32.24,39.198 38.629,39.195 38.629,32.869 	"/>
	<path fill="#3D6480" d="M31.101,13.298l-1.71-1.71h-2.548V9.04L25.134,7.33H10.065v16.985h0v1.216H9.692H3.583v12.493h14.791
		v-2.879v-0.007h1.761l1.699-1.699h-3.46v-7.924h-6.609V9.03h13.378v4.258h4.258l0.036,12.549l1.695-1.695L31.101,13.298z
		 M17.374,37.025H4.583v-8.606h12.791V37.025z M17.374,26.516v1.402H4.583v-1.402H17.374z"/>
	<path fill="#EFF9FE" d="M25.143,13.287V9.03H11.765v16.486h6.609v7.924h3.46l-1.699,1.699h-1.761l1.761,0.007l2.004-2.011
		l7.299-7.299l-0.036-12.549H25.143z M26.564,21.635H14.661v-0.801h11.903V21.635z M26.564,18.252H14.661v-0.801h11.903V18.252z"/>
	<rect x="14.661" y="17.451" fill="#3D6480" width="11.903" height="0.801"/>
	<rect x="14.661" y="20.834" fill="#3D6480" width="11.903" height="0.801"/>
	<rect x="4.583" y="26.516" fill="#FFFFFF" width="12.791" height="1.402"/>
	<path fill="#EFF9FE" d="M4.583,37.025h12.791v-8.606H4.583V37.025z M6.309,31.244h9.225v0.5H6.309V31.244z M6.309,34.107h9.225v0.5
		H6.309V34.107z"/>
	<rect x="6.309" y="31.244" fill="#3D6480" width="9.225" height="0.5"/>
	<rect x="6.309" y="34.107" fill="#3D6480" width="9.225" height="0.5"/>
</g>
</svg>
