<?xml version="1.0" encoding="utf-8"?>
<!-- Generator: Adobe Illustrator 17.0.0, SVG Export Plug-In . SVG Version: 6.00 Build 0)  -->
<!DOCTYPE svg PUBLIC "-//W3C//DTD SVG 1.1//EN" "http://www.w3.org/Graphics/SVG/1.1/DTD/svg11.dtd">
<svg version="1.1" id="Layer_1" xmlns="http://www.w3.org/2000/svg" xmlns:xlink="http://www.w3.org/1999/xlink" x="0px" y="0px"
	 width="42px" height="42px" viewBox="0 0 42 42" enable-background="new 0 0 42 42" xml:space="preserve">
<g>
	<rect x="7.943" y="28.05" fill="none" width="11.396" height="5.131"/>
	<rect x="7.943" y="14.916" fill="none" width="11.396" height="5.824"/>
	<rect x="7.943" y="21.541" fill="none" width="11.396" height="5.708"/>
	<rect x="7.943" y="8.731" fill="none" width="11.396" height="5.385"/>
	<polygon fill="#3D6480" points="36.857,25.256 36.857,22.609 26.862,22.609 32.124,28.837 26.862,35.064 36.857,35.064 
		36.857,32.397 35.158,32.397 35.158,33.365 30.524,33.365 34.349,28.837 30.524,24.309 35.158,24.309 35.158,25.256 	"/>
	<path fill="#3D6480" d="M6.244,34.88h14.795V7.031H6.244V34.88z M7.943,33.181V28.05H19.34v5.131H7.943z M19.34,21.541v5.708H7.943
		v-5.708H19.34z M7.943,20.74v-5.824H19.34v5.824H7.943z M19.34,8.731v5.385H7.943V8.731H19.34z"/>
</g>
</svg>
