<?xml version="1.0" encoding="utf-8"?>
<!-- Generator: Adobe Illustrator 17.0.0, SVG Export Plug-In . SVG Version: 6.00 Build 0)  -->
<!DOCTYPE svg PUBLIC "-//W3C//DTD SVG 1.1//EN" "http://www.w3.org/Graphics/SVG/1.1/DTD/svg11.dtd">
<svg version="1.1" id="Layer_1" xmlns="http://www.w3.org/2000/svg" xmlns:xlink="http://www.w3.org/1999/xlink" x="0px" y="0px"
	 width="42px" height="42px" viewBox="0 0 42 42" enable-background="new 0 0 42 42" xml:space="preserve">
<g>
	<polygon fill="#3D6480" points="37.115,32.635 37.115,35.718 31.89,30.493 30.546,31.837 35.771,37.062 32.626,37.063 
		32.626,38.963 39.016,38.962 39.016,32.635 	"/>
	<path fill="#F7F7F7" d="M19.387,17.719v0.344c0,0.896,0.268,0.992,1.051,1.316V16.67C19.598,16.67,19.387,16.898,19.387,17.719z"/>
	<path fill="#F7F7F7" d="M21.525,22.318v2.977c0.877-0.037,1.088-0.305,1.088-1.184V23.75
		C22.613,22.719,22.441,22.699,21.525,22.318z"/>
	<path fill="#F7F7F7" d="M21,7.499L7.497,21L21,34.503L34.503,21L21,7.499z M21.525,27.51v1.182c0,0.346-0.039,0.555-0.42,0.555
		H20.8c-0.42,0-0.362-0.191-0.362-0.555v-1.162c-0.802-0.02-1.623-0.039-2.424-0.135c-0.459-0.057-0.992-0.096-0.992-0.668v-0.648
		c0-0.592,0.057-0.916,0.725-0.916c0.896,0,1.795,0.133,2.691,0.152v-3.455c-0.344-0.152-0.688-0.305-1.031-0.457
		c-1.928-0.84-2.385-1.393-2.385-3.512c0-1.469,0.438-2.576,1.889-3.111c0.496-0.172,0.992-0.285,1.527-0.305v-1.203
		c0-0.572,0.19-0.514,0.668-0.514c0.305,0,0.42,0.248,0.42,0.514v1.203c0.725,0,1.469,0.02,2.194,0.096
		c0.458,0.057,1.011,0.076,1.011,0.668v0.629c0,0.611-0.076,0.916-0.744,0.916c-0.687,0-1.373-0.113-2.061-0.113h-0.4v3.148
		c0.973,0.4,2.824,1.049,3.264,2.119c0.171,0.457,0.189,1.01,0.189,1.488c0,0.764-0.019,2.004-0.361,2.672
		C24.044,27.203,22.65,27.434,21.525,27.51z"/>
	<path fill="#3D6480" d="M21,5.095L5.093,21L21,36.907L36.907,21L21,5.095z M7.497,21L21,7.499L34.503,21L21,34.503L7.497,21z"/>
	<path fill="#3D6480" d="M24.789,21.938c-0.439-1.07-2.291-1.719-3.264-2.119V16.67h0.4c0.688,0,1.374,0.113,2.061,0.113
		c0.668,0,0.744-0.305,0.744-0.916v-0.629c0-0.592-0.553-0.611-1.011-0.668c-0.726-0.076-1.47-0.096-2.194-0.096v-1.203
		c0-0.266-0.115-0.514-0.42-0.514c-0.478,0-0.668-0.059-0.668,0.514v1.203c-0.535,0.02-1.031,0.133-1.527,0.305
		c-1.45,0.535-1.889,1.643-1.889,3.111c0,2.119,0.457,2.672,2.385,3.512c0.344,0.152,0.688,0.305,1.031,0.457v3.455
		c-0.896-0.02-1.795-0.152-2.691-0.152c-0.668,0-0.725,0.324-0.725,0.916v0.648c0,0.572,0.533,0.611,0.992,0.668
		c0.801,0.096,1.622,0.115,2.424,0.135v1.162c0,0.363-0.058,0.555,0.362,0.555h0.306c0.381,0,0.42-0.209,0.42-0.555V27.51
		c1.125-0.076,2.519-0.307,3.092-1.412c0.343-0.668,0.361-1.908,0.361-2.672C24.979,22.947,24.96,22.395,24.789,21.938z
		 M20.438,19.379c-0.783-0.324-1.051-0.42-1.051-1.316v-0.344c0-0.82,0.211-1.049,1.051-1.049V19.379z M22.613,24.111
		c0,0.879-0.211,1.146-1.088,1.184v-2.977c0.916,0.381,1.088,0.4,1.088,1.432V24.111z"/>
</g>
</svg>
