<?xml version="1.0" encoding="utf-8"?>
<!-- Generator: Adobe Illustrator 17.0.0, SVG Export Plug-In . SVG Version: 6.00 Build 0)  -->
<!DOCTYPE svg PUBLIC "-//W3C//DTD SVG 1.1//EN" "http://www.w3.org/Graphics/SVG/1.1/DTD/svg11.dtd">
<svg version="1.1" id="Layer_1" xmlns="http://www.w3.org/2000/svg" xmlns:xlink="http://www.w3.org/1999/xlink" x="0px" y="0px"
	 width="42px" height="42px" viewBox="0 0 42 42" enable-background="new 0 0 42 42" xml:space="preserve">
<g>
	<polygon fill="#3D6480" points="37.389,32.439 37.389,35.522 32.163,30.297 30.82,31.641 36.045,36.866 32.9,36.867 32.9,38.767 
		39.289,38.766 39.289,32.439 	"/>
	<path fill="#DBF3DB" d="M25.803,12.857V8.599H12.426V33.01h10.838l6.837-6.837l-0.038-13.317H25.803z M17.589,23.504l-1.287-2.009
		l-1.279,2.009H14.05l1.75-2.738l-1.695-2.661h0.973l1.225,1.93l1.232-1.93h0.974l-1.704,2.661l1.759,2.738H17.589z M23.474,23.504
		l-0.09-3.749l-1.154,3.08h-1.053l-1.153-3.08l-0.091,3.749H19.07l0.188-5.399h1.027l1.42,3.807l1.418-3.807h1.028l0.187,5.399
		H23.474z M28.497,23.504h-3.135v-5.399h0.886v4.584h2.249V23.504z"/>
	<polygon fill="#3D6480" points="31.762,12.869 30.051,11.158 27.504,11.158 27.504,8.61 25.794,6.9 10.725,6.9 10.725,34.71 
		21.564,34.71 23.263,33.01 12.426,33.01 12.426,8.599 25.803,8.599 25.803,12.857 30.062,12.857 30.1,26.174 31.795,24.478 	"/>
	<polygon fill="#3D6480" points="18.508,18.105 17.534,18.105 16.302,20.035 15.077,18.105 14.105,18.105 15.8,20.766 14.05,23.504 
		15.023,23.504 16.302,21.496 17.589,23.504 18.563,23.504 16.804,20.766 	"/>
	<polygon fill="#3D6480" points="23.122,18.105 21.704,21.912 20.284,18.105 19.257,18.105 19.07,23.504 19.933,23.504 
		20.024,19.755 21.177,22.835 22.23,22.835 23.384,19.755 23.474,23.504 24.337,23.504 24.151,18.105 	"/>
	<polygon fill="#3D6480" points="26.248,18.105 25.363,18.105 25.363,23.504 28.497,23.504 28.497,22.689 26.248,22.689 	"/>
</g>
</svg>
