<?xml version="1.0" encoding="utf-8"?>
<!-- Generator: Adobe Illustrator 17.0.0, SVG Export Plug-In . SVG Version: 6.00 Build 0)  -->
<!DOCTYPE svg PUBLIC "-//W3C//DTD SVG 1.1//EN" "http://www.w3.org/Graphics/SVG/1.1/DTD/svg11.dtd">
<svg version="1.1" id="Layer_1" xmlns="http://www.w3.org/2000/svg" xmlns:xlink="http://www.w3.org/1999/xlink" x="0px" y="0px"
	 width="42px" height="42px" viewBox="0 0 42 42" enable-background="new 0 0 42 42" xml:space="preserve">
<g>
	<polygon fill="#3D6480" points="37.115,32.836 37.115,35.919 31.89,30.694 30.546,32.038 35.772,37.263 32.626,37.263 
		32.626,39.164 39.016,39.163 39.016,32.836 	"/>
	<path fill="#EFF9FE" d="M25.531,13.254V8.996H12.152v24.411h10.714l6.919-6.919V13.254H25.531z M15.004,9.431h0.922v1.805h-0.922
		V9.431z M14.932,11.69h2v4.255h-2V11.69z M16.421,24.556c0.288,0,0.754-0.036,1.12-0.1l0.169-0.031l0.105,0.862l-0.143,0.033
		c-0.365,0.084-0.895,0.137-1.274,0.137c-1.276,0-1.843-0.574-1.843-1.606v-2.166c0-1.032,0.567-1.606,1.843-1.606
		c0.379,0,0.91,0.053,1.274,0.136l0.143,0.033l-0.105,0.862l-0.169-0.03c-0.366-0.064-0.833-0.1-1.12-0.1
		c-0.739,0-0.905,0.171-0.905,0.742v2.092C15.516,24.385,15.682,24.556,16.421,24.556z M20.483,25.458
		c-0.487,0-1.076-0.091-1.52-0.27l-0.125-0.051l0.165-0.827l0.173,0.055c0.435,0.135,0.89,0.206,1.322,0.206
		c0.719,0,0.787-0.152,0.787-0.603c0-0.163-0.001-0.281-0.015-0.37c-0.013-0.079-0.034-0.119-0.066-0.151
		c-0.087-0.086-0.282-0.15-0.808-0.27c-1.253-0.28-1.454-0.569-1.454-1.669c0-0.965,0.449-1.43,1.732-1.43
		c0.439,0,0.962,0.06,1.368,0.167l0.134,0.035l-0.083,0.861l-0.18-0.041c-0.379-0.086-0.83-0.136-1.224-0.136
		c-0.745,0-0.787,0.118-0.787,0.565c0,0.168,0.001,0.287,0.013,0.376c0.012,0.079,0.032,0.117,0.062,0.146
		c0.08,0.082,0.264,0.141,0.774,0.269c1.362,0.339,1.493,0.586,1.493,1.632C22.244,24.9,21.918,25.458,20.483,25.458z
		 M25.829,25.385h-1.091l-1.729-5.232h0.955l1.319,3.995l1.317-3.995h0.956L25.829,25.385z"/>
	<path fill="#EFF9FE" d="M16.363,14.658h-0.862c-0.139,0-0.252,0.112-0.252,0.252v0.389c0,0.139,0.113,0.252,0.252,0.252h0.862
		c0.14,0,0.252-0.113,0.252-0.252V14.91C16.615,14.77,16.502,14.658,16.363,14.658z"/>
	<polygon fill="#3D6480" points="31.486,13.262 29.778,11.554 27.231,11.554 27.231,9.007 25.521,7.297 10.452,7.297 10.452,35.106 
		21.167,35.106 22.866,33.407 12.152,33.407 12.152,8.996 25.531,8.996 25.531,13.254 29.786,13.254 29.786,26.488 31.486,24.788 	
		"/>
	<rect x="15.004" y="9.431" fill="#3D6480" width="0.922" height="1.805"/>
	<path fill="#3D6480" d="M16.932,11.69h-2v4.255h2V11.69z M16.615,15.299c0,0.139-0.113,0.252-0.252,0.252h-0.862
		c-0.139,0-0.252-0.113-0.252-0.252V14.91c0-0.14,0.113-0.252,0.252-0.252h0.862c0.14,0,0.252,0.112,0.252,0.252V15.299z"/>
	<path fill="#3D6480" d="M16.421,20.98c0.288,0,0.754,0.035,1.12,0.1l0.169,0.03l0.105-0.862l-0.143-0.033
		c-0.365-0.083-0.895-0.136-1.274-0.136c-1.276,0-1.843,0.574-1.843,1.606v2.166c0,1.032,0.567,1.606,1.843,1.606
		c0.379,0,0.91-0.053,1.274-0.137l0.143-0.033l-0.105-0.862l-0.169,0.031c-0.366,0.063-0.833,0.1-1.12,0.1
		c-0.739,0-0.905-0.172-0.905-0.742v-2.092C15.516,21.151,15.682,20.98,16.421,20.98z"/>
	<path fill="#3D6480" d="M20.751,22.322c-0.511-0.128-0.694-0.187-0.774-0.269c-0.03-0.029-0.05-0.067-0.062-0.146
		c-0.012-0.089-0.013-0.208-0.013-0.376c0-0.447,0.042-0.565,0.787-0.565c0.394,0,0.845,0.05,1.224,0.136l0.18,0.041l0.083-0.861
		l-0.134-0.035c-0.406-0.107-0.929-0.167-1.368-0.167c-1.283,0-1.732,0.465-1.732,1.43c0,1.1,0.2,1.389,1.454,1.669
		c0.525,0.119,0.721,0.184,0.808,0.27c0.033,0.032,0.054,0.072,0.066,0.151c0.014,0.089,0.015,0.207,0.015,0.37
		c0,0.45-0.067,0.603-0.787,0.603c-0.432,0-0.887-0.071-1.322-0.206l-0.173-0.055l-0.165,0.827l0.125,0.051
		c0.444,0.179,1.033,0.27,1.52,0.27c1.436,0,1.761-0.558,1.761-1.504C22.244,22.908,22.113,22.661,20.751,22.322z"/>
	<polygon fill="#3D6480" points="25.283,24.147 23.964,20.152 23.009,20.152 24.738,25.385 25.829,25.385 27.556,20.152 
		26.601,20.152 	"/>
</g>
</svg>
