<?xml version="1.0" encoding="utf-8"?>
<!-- Generator: Adobe Illustrator 17.0.0, SVG Export Plug-In . SVG Version: 6.00 Build 0)  -->
<!DOCTYPE svg PUBLIC "-//W3C//DTD SVG 1.1//EN" "http://www.w3.org/Graphics/SVG/1.1/DTD/svg11.dtd">
<svg version="1.1" id="Layer_1" xmlns="http://www.w3.org/2000/svg" xmlns:xlink="http://www.w3.org/1999/xlink" x="0px" y="0px"
	 width="42px" height="42px" viewBox="0 0 42 42" enable-background="new 0 0 42 42" xml:space="preserve">
<g>
	<path fill="#3D6480" d="M33.476,22.159c0.384-0.945,0.586-1.971,0.531-2.992c-0.048-0.955-0.332-1.899-0.832-2.715
		c-0.399-0.655-0.933-1.222-1.54-1.688c-0.429-0.334-0.908-0.604-1.421-0.785c-0.722-0.257-1.494-0.346-2.256-0.326
		c-0.594,0.003-1.18,0.151-1.722,0.387c-0.727,0.321-1.362,0.814-1.94,1.353c-0.718,0.665-1.371,1.396-2.104,2.046
		c-0.237,0.209-0.476,0.418-0.744,0.589c-0.42,0.27-0.889,0.46-1.371,0.585c-0.899,0.23-1.841,0.242-2.76,0.154
		c-1.219-0.122-2.413-0.424-3.57-0.818c-0.3-0.109-0.612-0.174-0.922-0.243c-1.049-0.221-2.138-0.323-3.201-0.15
		c-0.742,0.134-1.486,0.356-2.115,0.785c-0.313,0.214-0.592,0.487-0.778,0.821c-0.154,0.274-0.235,0.594-0.211,0.909
		c0.026,0.365,0.201,0.715,0.469,0.964c0.348,0.327,0.833,0.478,1.305,0.472c0.591-0.005,1.158-0.225,1.659-0.525
		c-0.377-0.011-0.762-0.063-1.104-0.228c-0.234-0.114-0.446-0.3-0.535-0.551c-0.1-0.271-0.039-0.577,0.101-0.822
		c0.205-0.36,0.55-0.623,0.925-0.79c0.532-0.235,1.138-0.276,1.709-0.175c-0.002,3.069,0,6.139-0.002,9.207
		c-0.237,0.176-0.472,0.357-0.688,0.56c-0.046,0.046-0.109,0.089-0.104,0.162c-0.016,0.081,0.004,0.208,0.11,0.205
		c1.046,0.002,2.091,0.002,3.137,0c0.134-0.006,0.12-0.18,0.096-0.271c-0.23-0.251-0.509-0.451-0.779-0.655
		c0.002-3.041,0.005-6.082,0.006-9.123c1.685,0.825,3.596,1.137,5.459,0.992c0.954-0.075,1.905-0.249,2.809-0.568
		c-0.003,2.899-0.003,5.8-0.008,8.699c-0.271,0.204-0.547,0.405-0.777,0.654c-0.018,0.081-0.038,0.186,0.027,0.25
		c0.06,0.038,0.136,0.02,0.203,0.023c0.993,0,1.986,0,2.979,0c0.068,0.01,0.131-0.043,0.133-0.112
		c-0.002-0.068,0.012-0.154-0.05-0.202c-0.229-0.227-0.485-0.423-0.744-0.614c0.004-3.011,0.001-6.021,0.002-9.031
		c0.082-0.001,0.164-0.001,0.245-0.001c0.007,0.72,0.204,1.458,0.648,2.034c0.209,0.272,0.474,0.501,0.771,0.673
		c0.366,0.212,0.778,0.354,1.201,0.386c0.48,0.04,0.972-0.059,1.396-0.286c0.513-0.267,0.897-0.748,1.075-1.294
		c0.245-0.724,0.169-1.572-0.279-2.202c-0.25-0.349-0.617-0.613-1.031-0.731c-0.313-0.071-0.621-0.165-0.914-0.297
		c-0.258-0.116-0.506-0.264-0.707-0.467c-0.158-0.164-0.278-0.388-0.253-0.622c0.027-0.271,0.21-0.493,0.408-0.665
		c0.29-0.229,0.636-0.378,0.989-0.479c0.545-0.152,1.133-0.155,1.676,0.01c0.588,0.175,1.101,0.539,1.537,0.962
		c0.461,0.447,0.838,0.978,1.139,1.544c0.472,0.901,0.752,1.9,0.825,2.914c0.076,1.021-0.06,2.063-0.429,3.021
		c-0.266,0.688-0.655,1.326-1.133,1.887c-0.551,0.649-1.212,1.199-1.924,1.663c-0.801,0.525-1.672,0.938-2.558,1.297
		c-0.262,0.111-0.53,0.22-0.76,0.392c-0.037,0.037-0.111,0.082-0.082,0.143c0.068,0.05,0.158,0.034,0.237,0.034
		c0.296-0.023,0.585-0.093,0.872-0.162c1.702-0.468,3.332-1.239,4.715-2.345C31.796,24.98,32.859,23.675,33.476,22.159z"/>
	<path fill="#3D6480" d="M11.046,14.671c0.002,0.845,0,1.689,0,2.534c0.597,0.049,1.195,0.108,1.779,0.245
		c-0.002-0.928-0.004-1.855-0.007-2.784c0.272-0.204,0.547-0.408,0.782-0.655c0.007-0.075,0.029-0.16-0.012-0.229
		c-0.024-0.036-0.069-0.046-0.109-0.045c-1.03,0-2.062,0-3.092,0c-0.039,0-0.086,0.007-0.108,0.044
		c-0.044,0.067-0.028,0.155-0.011,0.229C10.497,14.263,10.782,14.457,11.046,14.671z"/>
	<path fill="#3D6480" d="M21.1,14.665c-0.001,1.103,0.002,2.204,0.001,3.306c0.386-0.219,0.752-0.472,1.087-0.762
		c0.251-0.225,0.49-0.472,0.653-0.77c0.017-0.035,0.041-0.069,0.039-0.11c-0.003-0.555-0.008-1.11-0.008-1.665
		c0.272-0.202,0.546-0.408,0.781-0.653c0.006-0.074,0.028-0.157-0.012-0.226c-0.024-0.045-0.081-0.049-0.126-0.048
		c-1.031,0.001-2.062-0.001-3.093,0.001c-0.071-0.007-0.118,0.063-0.117,0.129c0.001,0.063-0.006,0.139,0.049,0.183
		C20.583,14.277,20.841,14.473,21.1,14.665z"/>
	<path fill="#3D6480" d="M35.645,19.391c0.41,0.08,0.854-0.043,1.161-0.327c0.287-0.256,0.455-0.639,0.448-1.023
		c-0.004-0.371-0.169-0.736-0.444-0.984c-0.304-0.284-0.745-0.408-1.153-0.333c-0.396,0.068-0.752,0.324-0.943,0.676
		c-0.222,0.388-0.229,0.886-0.022,1.28C34.88,19.045,35.24,19.318,35.645,19.391z"/>
	<path fill="#3D6480" d="M35.634,20.442c-0.428,0.081-0.803,0.383-0.977,0.78c-0.17,0.381-0.151,0.841,0.053,1.205
		c0.194,0.355,0.557,0.615,0.956,0.681c0.382,0.07,0.79-0.038,1.089-0.285c0.304-0.245,0.492-0.627,0.5-1.019
		c0.011-0.386-0.154-0.773-0.441-1.032C36.503,20.482,36.05,20.356,35.634,20.442z"/>
	<polygon fill="#3D6480" points="38,32.735 38,35.818 32.774,30.594 31.431,31.937 36.656,37.162 33.511,37.163 33.511,39.063 
		39.9,39.062 39.9,32.735 	"/>
</g>
</svg>
