<?xml version="1.0" encoding="utf-8"?>
<!-- Generator: Adobe Illustrator 17.0.0, SVG Export Plug-In . SVG Version: 6.00 Build 0)  -->
<!DOCTYPE svg PUBLIC "-//W3C//DTD SVG 1.1//EN" "http://www.w3.org/Graphics/SVG/1.1/DTD/svg11.dtd">
<svg version="1.1" id="Layer_1" xmlns="http://www.w3.org/2000/svg" xmlns:xlink="http://www.w3.org/1999/xlink" x="0px" y="0px"
	 width="42px" height="42px" viewBox="0 0 42 42" enable-background="new 0 0 42 42" xml:space="preserve">
<g>
	<path fill="#3D6480" d="M30.75,15.056c-0.429-0.334-0.908-0.604-1.421-0.785c-0.722-0.257-1.494-0.346-2.256-0.326
		c-0.594,0.003-1.18,0.151-1.722,0.387c-0.727,0.321-1.362,0.814-1.94,1.353c-0.718,0.664-1.371,1.395-2.104,2.046
		c-0.237,0.209-0.476,0.418-0.744,0.588c-0.42,0.271-0.889,0.461-1.371,0.585c-0.899,0.231-1.841,0.243-2.76,0.155
		c-1.219-0.122-2.413-0.424-3.57-0.818c-0.3-0.109-0.612-0.174-0.922-0.243c-1.049-0.221-2.138-0.323-3.201-0.15
		c-0.742,0.134-1.486,0.356-2.115,0.785c-0.313,0.214-0.592,0.487-0.778,0.82c-0.154,0.275-0.235,0.594-0.211,0.91
		c0.026,0.365,0.201,0.715,0.469,0.964c0.348,0.327,0.833,0.478,1.305,0.471c0.591-0.004,1.158-0.224,1.659-0.524
		c-0.377-0.012-0.762-0.063-1.104-0.228c-0.234-0.114-0.446-0.3-0.535-0.551c-0.1-0.271-0.039-0.577,0.101-0.822
		c0.205-0.36,0.55-0.623,0.925-0.79c0.532-0.235,1.138-0.276,1.709-0.175c-0.002,3.069,0,6.139-0.002,9.207
		c-0.237,0.176-0.472,0.357-0.688,0.56c-0.046,0.046-0.109,0.089-0.104,0.162c-0.016,0.081,0.004,0.208,0.11,0.205
		c1.046,0.002,2.091,0.002,3.137,0c0.134-0.006,0.12-0.18,0.096-0.271c-0.23-0.251-0.509-0.451-0.779-0.655
		c0.002-3.041,0.005-6.082,0.006-9.123c1.685,0.825,3.596,1.137,5.459,0.992c0.954-0.075,1.905-0.249,2.809-0.568
		c-0.003,2.899-0.003,5.8-0.008,8.699c-0.271,0.204-0.547,0.405-0.777,0.654c-0.018,0.08-0.038,0.186,0.027,0.25
		c0.06,0.038,0.136,0.019,0.203,0.023c0.993,0,1.986,0,2.979,0c0.068,0.01,0.131-0.043,0.133-0.112
		c-0.002-0.068,0.012-0.154-0.05-0.202c-0.229-0.227-0.485-0.423-0.744-0.614c0.004-3.011,0.001-6.021,0.002-9.032
		c0.082,0,0.164,0,0.245,0c0.007,0.72,0.204,1.458,0.648,2.034c0.209,0.272,0.474,0.501,0.771,0.672
		c0.366,0.213,0.778,0.354,1.201,0.387c0.48,0.04,0.972-0.059,1.396-0.286c0.513-0.267,0.897-0.749,1.075-1.295
		c0.245-0.723,0.169-1.571-0.279-2.201c-0.25-0.349-0.617-0.614-1.031-0.731c-0.313-0.072-0.621-0.165-0.914-0.298
		c-0.258-0.115-0.506-0.263-0.707-0.466c-0.158-0.164-0.278-0.388-0.253-0.622c0.027-0.271,0.21-0.493,0.408-0.665
		c0.29-0.229,0.636-0.378,0.989-0.479c0.545-0.153,1.133-0.156,1.676,0.01c0.588,0.175,1.101,0.539,1.537,0.962
		c0.461,0.447,0.838,0.978,1.139,1.544c0.472,0.901,0.752,1.9,0.825,2.914c0.076,1.021-0.06,2.063-0.429,3.021
		c-0.266,0.688-0.655,1.326-1.133,1.887c-0.551,0.649-1.212,1.199-1.924,1.663c-0.801,0.525-1.672,0.938-2.558,1.297
		c-0.262,0.111-0.53,0.22-0.76,0.392c-0.037,0.036-0.111,0.081-0.082,0.143c0.068,0.05,0.158,0.034,0.237,0.034
		c0.296-0.023,0.585-0.093,0.872-0.162c1.702-0.469,3.332-1.24,4.715-2.345c1.272-1.016,2.336-2.321,2.952-3.837
		c0.384-0.945,0.586-1.971,0.531-2.992c-0.048-0.955-0.332-1.899-0.832-2.716C31.891,16.088,31.357,15.521,30.75,15.056z"/>
	<path fill="#3D6480" d="M9.395,14.071c-0.044,0.067-0.028,0.156-0.011,0.229c0.229,0.253,0.514,0.447,0.777,0.661
		c0.002,0.845,0,1.688,0,2.534c0.597,0.049,1.195,0.108,1.779,0.245c-0.002-0.928-0.004-1.856-0.007-2.784
		c0.272-0.204,0.547-0.408,0.782-0.655c0.007-0.075,0.029-0.16-0.012-0.229c-0.024-0.036-0.069-0.046-0.109-0.045
		c-1.03,0-2.062,0-3.092,0C9.464,14.028,9.417,14.035,9.395,14.071z"/>
	<path fill="#3D6480" d="M20.215,14.956c-0.001,1.103,0.002,2.204,0.001,3.306c0.386-0.219,0.752-0.472,1.087-0.763
		c0.251-0.224,0.49-0.471,0.653-0.769c0.017-0.035,0.041-0.069,0.039-0.11c-0.003-0.556-0.008-1.11-0.008-1.665
		c0.272-0.202,0.546-0.408,0.781-0.653c0.006-0.074,0.028-0.157-0.012-0.226c-0.024-0.045-0.081-0.049-0.126-0.048
		c-1.031,0.001-2.062-0.001-3.093,0.001c-0.071-0.007-0.118,0.063-0.117,0.129c0.001,0.063-0.006,0.139,0.049,0.183
		C19.698,14.568,19.956,14.764,20.215,14.956z"/>
	<path fill="#3D6480" d="M34.761,19.682c0.41,0.08,0.854-0.043,1.161-0.327c0.287-0.256,0.455-0.639,0.448-1.023
		c-0.004-0.371-0.169-0.737-0.444-0.985c-0.304-0.283-0.745-0.407-1.153-0.332c-0.396,0.068-0.752,0.324-0.943,0.676
		c-0.222,0.387-0.229,0.886-0.022,1.28C33.995,19.336,34.355,19.609,34.761,19.682z"/>
	<path fill="#3D6480" d="M34.749,20.734c-0.428,0.08-0.803,0.383-0.977,0.78c-0.17,0.381-0.151,0.841,0.053,1.205
		c0.194,0.355,0.557,0.615,0.956,0.681c0.382,0.07,0.79-0.038,1.089-0.285c0.304-0.245,0.492-0.627,0.5-1.019
		c0.011-0.387-0.154-0.773-0.441-1.032C35.618,20.773,35.165,20.648,34.749,20.734z"/>
	<polygon fill="#3D6480" points="5.343,12.178 11.732,12.177 11.732,5.85 9.832,5.85 9.832,8.933 4.606,3.707 3.263,5.051 
		8.489,10.277 5.343,10.277 	"/>
</g>
</svg>
