<?xml version="1.0" encoding="utf-8"?>
<!-- Generator: Adobe Illustrator 17.0.0, SVG Export Plug-In . SVG Version: 6.00 Build 0)  -->
<!DOCTYPE svg PUBLIC "-//W3C//DTD SVG 1.1//EN" "http://www.w3.org/Graphics/SVG/1.1/DTD/svg11.dtd">
<svg version="1.1" id="Layer_1" xmlns="http://www.w3.org/2000/svg" xmlns:xlink="http://www.w3.org/1999/xlink" x="0px" y="0px"
	 width="42px" height="42px" viewBox="0 0 42 42" enable-background="new 0 0 42 42" xml:space="preserve">
<g>
	<path fill="#3D6480" d="M25.352,13.939c0.542-0.236,1.128-0.385,1.722-0.387c0.762-0.021,1.534,0.068,2.256,0.326
		c0.513,0.18,0.992,0.45,1.421,0.785c0.607,0.465,1.141,1.032,1.54,1.687c0.5,0.816,0.784,1.76,0.832,2.715
		c0.055,1.022-0.148,2.048-0.531,2.993c-0.616,1.515-1.68,2.821-2.952,3.836c-1.383,1.105-3.013,1.877-4.715,2.345
		c-0.287,0.07-0.576,0.139-0.872,0.163c-0.079,0-0.169,0.015-0.237-0.034c-0.029-0.061,0.045-0.106,0.082-0.143
		c0.229-0.172,0.498-0.28,0.76-0.391c0.886-0.36,1.757-0.771,2.558-1.297c0.712-0.465,1.373-1.015,1.924-1.664
		c0.478-0.56,0.867-1.198,1.133-1.886c0.369-0.958,0.505-1.999,0.429-3.021c-0.073-1.014-0.354-2.014-0.825-2.914
		c-0.301-0.567-0.678-1.097-1.139-1.545c-0.437-0.423-0.949-0.786-1.537-0.961c-0.543-0.166-1.131-0.163-1.676-0.011
		c-0.354,0.102-0.699,0.252-0.989,0.48c-0.198,0.171-0.381,0.395-0.408,0.664c-0.025,0.234,0.095,0.459,0.253,0.623
		c0.201,0.203,0.449,0.35,0.707,0.466c0.293,0.133,0.601,0.226,0.914,0.298c0.414,0.117,0.781,0.383,1.031,0.731
		c0.448,0.63,0.524,1.478,0.279,2.201c-0.178,0.546-0.563,1.027-1.075,1.294c-0.425,0.229-0.916,0.326-1.396,0.287
		c-0.423-0.033-0.835-0.175-1.201-0.387c-0.297-0.172-0.562-0.4-0.771-0.672c-0.444-0.577-0.642-1.314-0.648-2.035
		c-0.081,0.001-0.163,0.001-0.245,0.001c-0.001,3.011,0.002,6.022-0.002,9.031c0.259,0.192,0.516,0.389,0.744,0.615
		c0.062,0.047,0.048,0.134,0.05,0.202c-0.002,0.068-0.065,0.122-0.133,0.111c-0.993,0.001-1.986,0-2.979,0.001
		c-0.067-0.005-0.144,0.015-0.203-0.024c-0.065-0.065-0.045-0.17-0.027-0.25c0.23-0.249,0.507-0.451,0.777-0.654
		c0.005-2.9,0.005-5.8,0.008-8.7c-0.903,0.32-1.854,0.494-2.809,0.569c-1.863,0.143-3.774-0.167-5.459-0.993
		c-0.001,3.041-0.004,6.082-0.006,9.123c0.271,0.205,0.549,0.405,0.779,0.655c0.024,0.093,0.038,0.266-0.096,0.272
		c-1.046,0.003-2.091,0.002-3.137,0.001c-0.106,0.002-0.126-0.125-0.11-0.206c-0.006-0.073,0.058-0.116,0.104-0.162
		c0.216-0.202,0.45-0.384,0.688-0.559c0.002-3.069,0-6.139,0.002-9.207c-0.571-0.102-1.177-0.06-1.709,0.175
		c-0.375,0.166-0.72,0.43-0.925,0.79c-0.14,0.245-0.2,0.551-0.101,0.821c0.089,0.251,0.301,0.437,0.535,0.552
		c0.342,0.165,0.726,0.216,1.103,0.228c-0.501,0.3-1.068,0.521-1.659,0.524c-0.472,0.007-0.957-0.145-1.305-0.472
		c-0.268-0.248-0.442-0.598-0.469-0.964c-0.024-0.315,0.057-0.635,0.211-0.909c0.187-0.333,0.465-0.606,0.778-0.821
		c0.629-0.429,1.373-0.651,2.115-0.784c1.063-0.174,2.152-0.071,3.201,0.149c0.31,0.07,0.622,0.135,0.922,0.243
		c1.157,0.396,2.352,0.696,3.57,0.818c0.919,0.089,1.86,0.076,2.76-0.154c0.482-0.125,0.951-0.314,1.371-0.585
		c0.268-0.17,0.507-0.38,0.744-0.589c0.732-0.65,1.386-1.381,2.104-2.046C23.989,14.753,24.625,14.26,25.352,13.939z"/>
	<path fill="#3D6480" d="M9.394,13.68c0.023-0.037,0.069-0.043,0.108-0.043c1.03,0,2.062,0,3.092-0.001
		c0.04-0.001,0.085,0.009,0.109,0.045c0.041,0.069,0.019,0.153,0.012,0.228c-0.235,0.247-0.51,0.451-0.782,0.656
		c0.003,0.928,0.005,1.856,0.007,2.783c-0.584-0.137-1.183-0.195-1.779-0.245c0-0.845,0.002-1.69,0-2.534
		c-0.264-0.214-0.549-0.407-0.777-0.66C9.366,13.835,9.351,13.747,9.394,13.68z"/>
	<path fill="#3D6480" d="M19.421,13.766c-0.001-0.064,0.046-0.135,0.117-0.128c1.031-0.003,2.062,0,3.093-0.002
		c0.045,0,0.101,0.003,0.126,0.048c0.04,0.069,0.018,0.151,0.012,0.225c-0.235,0.246-0.509,0.452-0.781,0.653
		c0,0.556,0.005,1.11,0.008,1.665c0.002,0.041-0.022,0.075-0.039,0.11c-0.163,0.298-0.402,0.546-0.653,0.77
		c-0.335,0.291-0.701,0.543-1.087,0.762c0.001-1.102-0.002-2.203-0.001-3.305c-0.259-0.192-0.517-0.389-0.745-0.616
		C19.415,13.905,19.422,13.828,19.421,13.766z"/>
	<path fill="#3D6480" d="M34.772,16.622c0.408-0.076,0.85,0.049,1.153,0.332c0.275,0.248,0.44,0.614,0.444,0.984
		c0.007,0.385-0.161,0.769-0.448,1.024c-0.307,0.284-0.751,0.406-1.161,0.326c-0.405-0.072-0.766-0.346-0.954-0.712
		c-0.206-0.395-0.199-0.893,0.022-1.28C34.021,16.945,34.377,16.69,34.772,16.622z"/>
	<path fill="#3D6480" d="M34.749,20.341c0.416-0.086,0.869,0.04,1.18,0.33c0.287,0.26,0.452,0.646,0.441,1.033
		c-0.008,0.391-0.196,0.772-0.5,1.019c-0.299,0.246-0.707,0.354-1.089,0.285c-0.4-0.066-0.762-0.325-0.956-0.682
		c-0.204-0.363-0.223-0.824-0.053-1.204C33.946,20.724,34.321,20.422,34.749,20.341z"/>
</g>
</svg>
