<?xml version="1.0" encoding="utf-8"?>
<!-- Generator: Adobe Illustrator 17.0.0, SVG Export Plug-In . SVG Version: 6.00 Build 0)  -->
<!DOCTYPE svg PUBLIC "-//W3C//DTD SVG 1.1//EN" "http://www.w3.org/Graphics/SVG/1.1/DTD/svg11.dtd">
<svg version="1.1" id="Layer_1" xmlns="http://www.w3.org/2000/svg" xmlns:xlink="http://www.w3.org/1999/xlink" x="0px" y="0px"
	 width="42px" height="42px" viewBox="0 0 42 42" enable-background="new 0 0 42 42" xml:space="preserve">
<g>
	<path fill="#F2F100" d="M34.682,21.914c-0.002,0.015-0.005,0.03-0.007,0.044l0,0C34.677,21.944,34.681,21.929,34.682,21.914z"/>
	<path fill="#3D6480" d="M35.216,19.242c0.026,0.248,0.045,0.494,0.06,0.735C35.261,19.734,35.242,19.491,35.216,19.242z"/>
	<path fill="#3D6480" d="M35.281,20.056c0.014,0.263,0.022,0.521,0.023,0.768C35.303,20.576,35.295,20.321,35.281,20.056z"/>
	<path fill="#3D6480" d="M35.294,21.385c0.008-0.177,0.01-0.36,0.009-0.55c0,0.194-0.007,0.375-0.015,0.556L35.294,21.385z"/>
	<path fill="#3D6480" d="M35.108,18.407c0.033,0.217,0.061,0.434,0.086,0.651C35.169,18.841,35.142,18.625,35.108,18.407z"/>
	<path fill="#3D6480" d="M34.757,16.754c0.038,0.134,0.069,0.274,0.103,0.413C34.826,17.029,34.794,16.888,34.757,16.754z"/>
	<path fill="#3D6480" d="M34.509,15.995c0.034,0.089,0.062,0.188,0.094,0.281C34.571,16.184,34.543,16.084,34.509,15.995z"/>
	<path fill="#3D6480" d="M34.956,17.569c0.037,0.176,0.068,0.355,0.099,0.534C35.024,17.924,34.993,17.745,34.956,17.569z"/>
</g>
<g>
	<polygon fill="none" points="28.884,30.99 28.884,36.311 34.589,33.655 	"/>
	<path fill="#F2F100" d="M29.577,16.941c0.025-0.025,0.054-0.047,0.083-0.068l-0.108-0.238l-0.18,0.006
		C29.458,16.725,29.528,16.828,29.577,16.941z"/>
	<path fill="#3D6480" d="M16.839,21.779c-0.267-1.32-0.373-2.57-0.456-3.916c-0.329,1.387-0.391,2.605-0.146,3.984
		c0.294,1.664,0.523,3.502-0.296,4.965c-1.588,0.121-2.949,1.086-4.38,1.828c-0.576,0.299-1.175,0.326-1.812,0.152
		c-0.591-0.162-0.99-0.553-1.627-1.287c-0.01-0.738,0.157-1.078,0.495-1.746c0.544-1.072,1.145-2.07,1.803-3.125
		c-0.807,0.973-1.57,1.787-2.205,2.766c-0.243-0.691-0.59-1.043-1.165-1.82c-0.562-0.762-0.62-1.094-0.201-1.975
		c0.423-0.885,0.78-1.662,1.499-2.438c1.242-1.342,2.379-2.834,3.737-4.154c0.737-0.717,1.036-0.691,2.015-0.84
		c0.885-0.135,1.747-0.305,2.648-0.514c-0.871,0.082-1.715,0.111-2.59,0.133c0.836-1.066,1.32-1.66,2.676-2.25
		c3.34-1.449,5.461-1.607,8.085,0.598c0.68,0.572,1.273,1.127,1.962,1.619c-0.249,0.021-0.465,0.066-0.75,0.178
		c0.348-0.064,0.748,0,1.107,0.066c0.102,0.064,0.205,0.129,0.311,0.191c0.487,0.287,0.764,0.445,1.093,0.904
		c0.348,0.484,0.638,0.969,0.894,1.502c-0.168-0.059-0.309-0.109-0.434-0.146c-0.092-0.043-0.191-0.07-0.299-0.082
		c-0.21-0.02-0.412,0.033-0.6,0.145c-0.27,0.133-0.686,0.281-0.965,0.326c0.142,0.049,0.457,0.068,0.605,0.01
		c0.02-0.008,0.04-0.016,0.061-0.02c-0.066,0.113-0.11,0.244-0.124,0.383c-0.018,0.186,0.02,0.363,0.1,0.518
		c-0.028-0.066-0.044-0.141-0.038-0.205c0.021-0.211,0.199-0.367,0.41-0.346c0.053,0.005,0.102,0.021,0.146,0.045
		c0.131,0.072,0.215,0.216,0.2,0.373c-0.004,0.045-0.017,0.088-0.035,0.127c-0.192,0.031-0.385,0.088-0.583,0.162
		c-0.128,0.047-0.258,0.1-0.392,0.158c0.621-0.094,1.183-0.111,1.791-0.031c0.039,0.191,0.08,0.395,0.117,0.602l-0.244,0.02
		c-0.287-0.23-0.607-0.191-1.045-0.092c-1.33,0.303-1.018,1.049-1.629,2.174c0.635-0.777,0.588-1.59,1.623-1.834
		c0.242-0.057,0.406-0.129,0.568-0.104c-0.293,0.146-0.548,0.393-0.648,0.676c-0.284,0.803-0.107,1.48-0.42,2.229
		c0.387-0.67,0.41-1.324,0.756-2.029c0.125-0.252,0.585-0.658,0.868-0.664l0.233-0.004c0.068,0.445,0.109,0.889,0.083,1.256
		c-0.048,0.67-0.223,1.666-0.327,2.045c0.351-0.449,0.51-1.402,0.664-2.074c0.16-0.699,0.119-1.539-0.021-2.289
		c-0.192-1.031,0.868-0.863,1.485-1.35c0.453-0.357,0.764-0.926,1.18-1.33c0.412-0.4,1.061,0.188,1.223,0.578
		c0.702,1.701,1.021,4.375,0.836,6.088c-0.002,0.015-0.005,0.03-0.007,0.044l0.613-0.567c0.008-0.18,0.016-0.362,0.015-0.556
		c0-0.004,0-0.007,0-0.011c-0.001-0.247-0.009-0.505-0.023-0.768c-0.001-0.026-0.003-0.053-0.005-0.079
		c-0.014-0.241-0.034-0.487-0.06-0.735c-0.006-0.061-0.015-0.122-0.022-0.183c-0.025-0.217-0.052-0.435-0.086-0.651
		c-0.016-0.102-0.035-0.202-0.053-0.304c-0.031-0.179-0.062-0.359-0.099-0.534c-0.029-0.137-0.064-0.268-0.096-0.402
		c-0.034-0.139-0.066-0.279-0.103-0.413c-0.047-0.167-0.101-0.321-0.154-0.478c-0.032-0.093-0.06-0.192-0.094-0.281
		c-0.091-0.24-0.189-0.466-0.295-0.669c-0.257-0.492-1.42-1.117-1.93-0.6c-0.384,0.389-0.648,0.982-1.063,1.336
		c-0.321,0.275-0.719,0.41-1.068,0.553c-0.27-0.729-0.658-1.293-1.133-1.859c-0.377-0.449-0.733-0.674-1.23-0.986
		c-0.984-0.615-1.748-1.395-2.645-2.133c-2.71-2.234-5.037-2.166-8.414-0.744c-1.61,0.678-2.389,1.598-3.376,2.92
		c-0.597,0.031-1.007,0.146-1.638,0.703c-0.467,0.412-0.9,0.834-1.33,1.275l-0.754,0.826c-0.615,0.688-1.223,1.414-1.885,2.193
		C7.079,19.6,6.68,20.396,6.254,21.26c-0.589,1.193-0.576,1.646,0.203,2.693c0.672,0.902,1.035,1.309,1.328,2.191
		c-0.242,0.498-0.33,0.92-0.412,1.602c0.823,0.9,1.435,1.516,2.233,1.707c0.784,0.186,1.438,0.148,2.139-0.209
		c1.557-0.797,2.997-1.824,4.754-1.865c0.109-0.27,0.201-0.533,0.278-0.792c0.004-0.013,0.006-0.026,0.01-0.038
		c0.073-0.249,0.134-0.495,0.182-0.737c0,0,0,0,0,0C17.239,24.455,17.123,23.186,16.839,21.779z M29.66,16.873
		c-0.029,0.021-0.058,0.043-0.083,0.068c-0.049-0.113-0.119-0.217-0.205-0.301l0.18-0.006L29.66,16.873z"/>
	<path fill="#3D6480" d="M27.035,28.084l0.227,0.106l0.084-0.278c0.252,0.048,0.513,0.082,0.776,0.109l0.026-0.023l0.557-0.516
		c-0.143-0.01-0.285-0.008-0.428-0.025c-0.076-0.009-0.152-0.024-0.229-0.035c-0.27-0.039-0.539-0.087-0.806-0.146
		c-0.1-0.022-0.199-0.045-0.298-0.069c-0.253-0.062-0.504-0.129-0.752-0.202c-0.087-0.026-0.176-0.049-0.262-0.076
		c-0.318-0.097-0.633-0.199-0.937-0.302c-0.459-0.154-0.777-0.379-1.18-0.633c0.109,0.494,0.159,1.016,0.014,1.51
		c-0.232,0.783-0.606,2.063,0.457,2.299c0.404,0.09,0.587,0.078,1.158-0.217c-0.462,0.104-0.695,0.078-1.013,0.02
		c-0.288-0.053-0.44-0.236-0.521-0.451c0.1,0.072,0.264,0.111,0.545,0.18c0.787,0.189,1.538-0.189,1.685-0.736
		c0.086-0.318,0.071-0.486,0.253-0.922c0.163,0.051,0.332,0.098,0.504,0.139l-0.293,0.955c-0.252,0.826-1.239,1.492-2.11,1.477
		c-0.806-0.014-1.315-0.52-1.872-1.014l-1.116-0.99c-1-0.314-1.803-0.685-2.73-1.37c0,0,0,0,0,0
		c-0.002-0.001-0.003-0.002-0.005-0.003c0.645,0.758,1.088,1.186,1.965,1.564l0.572,0.221l0.076,0.111l0.949,0.914
		c0.652,0.629,1.191,1.143,2.187,1.096c0.129-0.006,0.26-0.024,0.392-0.053c0.066-0.014,0.131-0.039,0.196-0.058
		c0.066-0.02,0.132-0.034,0.197-0.059c0.018-0.007,0.035-0.016,0.052-0.023l0.001-0.001l1.611-1.491l0.003-0.003
		c0.021-0.051,0.048-0.101,0.065-0.154c0,0,0,0,0,0V28.084z"/>
	<path fill="#3D6480" d="M14.389,9.703c-0.941,0.227-1.121,0.4-1.404,1.324C13.436,10.352,13.696,10.131,14.389,9.703z"/>
	<path fill="#3D6480" d="M15.876,9.568c-1.869,0.457-2.418,0.783-3.039,2.949C13.626,10.932,14.223,10.348,15.876,9.568z"/>
	<path fill="#3D6480" d="M13.082,16.258c-0.667,0.658-1.313,2.918-1.521,3.822c0.326-0.752,1.141-2.852,1.766-3.385
		c0.173-0.148,0.293-0.24,0.424-0.305c-0.448,0.75-0.415,0.938-0.258,1.941c0.133-1.021,0.486-1.416,1.066-2.18
		c0.636-0.158,1.23-0.35,1.883-0.604c-0.735,0.082-1.47,0.158-2.205,0.229C13.619,15.836,13.519,15.826,13.082,16.258z"/>
	<path fill="#3D6480" d="M22.884,26.146c-0.042,0.266-0.101,0.596-0.142,0.863c0.112-0.303,0.248-0.652,0.379-0.938
		c0.139-0.305,0.217-0.332,0.511-0.494c0.209-0.113,0.588-0.27,0.798-0.383c-0.216,0.037-0.601,0.115-0.815,0.152
		C23.041,25.443,22.973,25.582,22.884,26.146z"/>
	<path fill="#3D6480" d="M21.825,15.072c-1.817,0.455-2.158,1.219-1.925,2.391C20.1,16.582,20.454,15.73,21.825,15.072z"/>
	<path fill="#3D6480" d="M20.86,19.512c0.33-0.127,0.646-0.35,0.939-0.582c0.001,0.174,0.039,0.35,0.118,0.516
		c0.082,0.172,0.199,0.314,0.339,0.428c-0.041-0.041-0.076-0.09-0.102-0.145c-0.03-0.063-0.046-0.13-0.049-0.196
		s0.007-0.132,0.029-0.193c0.044-0.123,0.135-0.229,0.262-0.29c0.19-0.092,0.411-0.054,0.56,0.078
		c0.05,0.044,0.092,0.099,0.122,0.162c0.012,0.023,0.021,0.049,0.028,0.074c-0.243,0.18-0.466,0.393-0.652,0.639
		c-0.163,0.215-0.3,0.457-0.397,0.725c0.867-1.027,2.123-1.801,3.304-2.133c-0.33-0.006-0.722,0.057-1.119,0.188
		c-0.015-0.133-0.051-0.266-0.111-0.393c-0.144-0.299-0.395-0.516-0.685-0.621c0.264-0.141,0.522-0.289,0.725-0.473
		c-0.592,0.273-1.282,0.207-1.79,0.551C21.932,18.146,21.315,19.105,20.86,19.512z"/>
	<path fill="#3D6480" d="M31.46,17.525c1.075-0.385,1.594-1.248,1.852-2.268c-0.422,0.854-1.07,1.566-1.953,2.004
		c-0.475,0.234-0.777,0.152-1.306,0.104C30.59,17.52,30.931,17.713,31.46,17.525z"/>
	<path fill="#FFFFCD" d="M22.957,19.127c-0.149-0.132-0.369-0.171-0.56-0.078c-0.127,0.061-0.218,0.167-0.262,0.29
		c-0.022,0.062-0.032,0.127-0.029,0.193s0.019,0.133,0.049,0.196c0.026,0.057,0.062,0.104,0.104,0.146
		c0.057,0.055,0.123,0.098,0.195,0.127c0.188-0.246,0.41-0.459,0.653-0.639c-0.007-0.025-0.017-0.051-0.028-0.074
		C23.048,19.226,23.007,19.171,22.957,19.127z"/>
	<path fill="#FFFFCD" d="M28.398,17.229c-0.044-0.024-0.093-0.04-0.146-0.045c-0.211-0.021-0.39,0.135-0.41,0.346
		c-0.006,0.064,0.01,0.139,0.038,0.205c0.025,0.061,0.061,0.115,0.099,0.156c0.199-0.074,0.392-0.131,0.584-0.162
		c0.019-0.039,0.031-0.082,0.035-0.127C28.613,17.445,28.53,17.3,28.398,17.229z"/>
	<path fill="#F2F100" d="M21.503,28.242l1.116,0.99c0.557,0.494,1.066,1,1.872,1.014c0.871,0.016,1.858-0.65,2.11-1.477l0.293-0.955
		c-0.172-0.041-0.341-0.088-0.504-0.139c-0.182,0.436-0.167,0.604-0.253,0.922c-0.146,0.547-0.897,0.926-1.685,0.736
		c-0.281-0.068-0.445-0.107-0.545-0.18c0.08,0.215,0.232,0.398,0.521,0.451c0.317,0.059,0.551,0.084,1.013-0.02
		c-0.571,0.295-0.754,0.307-1.158,0.217c-1.063-0.236-0.689-1.516-0.457-2.299c0.146-0.494,0.096-1.016-0.014-1.51
		c0.402,0.254,0.721,0.479,1.18,0.633c0.304,0.103,0.619,0.204,0.937,0.302c0.086,0.027,0.175,0.05,0.262,0.076
		c0.248,0.073,0.499,0.14,0.752,0.202c0.099,0.024,0.198,0.047,0.298,0.069c0.267,0.059,0.536,0.107,0.806,0.146
		c0.076,0.011,0.152,0.026,0.229,0.035c0.143,0.017,0.285,0.015,0.428,0.025l5.971-5.524c0.002-0.015,0.005-0.03,0.007-0.044
		c0.186-1.713-0.134-4.387-0.836-6.088c-0.162-0.391-0.811-0.979-1.223-0.578c-0.416,0.404-0.727,0.973-1.18,1.33
		c-0.617,0.486-1.678,0.318-1.485,1.35c0.14,0.75,0.181,1.59,0.021,2.289c-0.154,0.672-0.313,1.625-0.664,2.074
		c0.104-0.379,0.279-1.375,0.327-2.045c0.026-0.367-0.015-0.811-0.083-1.256l-0.233,0.004c-0.283,0.006-0.743,0.412-0.868,0.664
		c-0.346,0.705-0.369,1.359-0.756,2.029c0.313-0.748,0.136-1.426,0.42-2.229c0.101-0.283,0.355-0.529,0.648-0.676
		c-0.162-0.025-0.326,0.047-0.568,0.104c-1.035,0.244-0.988,1.057-1.623,1.834c0.611-1.125,0.299-1.871,1.629-2.174
		c0.438-0.1,0.758-0.139,1.045,0.092l0.244-0.02c-0.037-0.207-0.078-0.41-0.117-0.602c-0.608-0.08-1.17-0.063-1.791,0.031
		c0.134-0.059,0.264-0.111,0.392-0.158c0.198-0.074,0.391-0.131,0.583-0.162c-0.192,0.031-0.385,0.088-0.584,0.162
		c-0.038-0.041-0.073-0.096-0.099-0.156c-0.08-0.154-0.117-0.332-0.1-0.518c0.014-0.139,0.058-0.27,0.124-0.383
		c-0.021,0.004-0.041,0.012-0.061,0.02c-0.148,0.059-0.464,0.039-0.605-0.01c0.279-0.045,0.695-0.193,0.965-0.326
		c0.188-0.111,0.39-0.164,0.6-0.145c0.107,0.012,0.207,0.039,0.299,0.082c0.125,0.037,0.266,0.088,0.434,0.146
		c-0.256-0.533-0.546-1.018-0.894-1.502c-0.329-0.459-0.605-0.617-1.093-0.904c-0.105-0.063-0.209-0.127-0.311-0.191
		c-0.359-0.066-0.76-0.131-1.107-0.066c0.285-0.111,0.501-0.156,0.75-0.178c-0.688-0.492-1.282-1.047-1.962-1.619
		c-2.624-2.205-4.745-2.047-8.085-0.598c-1.355,0.59-1.84,1.184-2.676,2.25c0.875-0.021,1.719-0.051,2.59-0.133
		c-0.901,0.209-1.764,0.379-2.648,0.514c-0.979,0.148-1.277,0.123-2.015,0.84c-1.358,1.32-2.495,2.813-3.737,4.154
		c-0.719,0.775-1.076,1.553-1.499,2.438c-0.419,0.881-0.36,1.213,0.201,1.975c0.575,0.777,0.922,1.129,1.165,1.82
		c0.635-0.979,1.398-1.793,2.205-2.766c-0.658,1.055-1.259,2.053-1.803,3.125c-0.338,0.668-0.505,1.008-0.495,1.746
		c0.637,0.734,1.036,1.125,1.627,1.287c0.637,0.174,1.235,0.146,1.812-0.152c1.431-0.742,2.792-1.707,4.38-1.828
		c0.819-1.463,0.59-3.301,0.296-4.965c-0.244-1.379-0.183-2.598,0.146-3.984c0.083,1.346,0.189,2.596,0.456,3.916
		c0.284,1.407,0.4,2.676,0.131,4.032c0.168,0.038,0.412,0.116,0.702,0.264c0.035,0.018,0.071,0.04,0.106,0.059
		c0.11,0.061,0.227,0.134,0.348,0.217c0.045,0.031,0.088,0.06,0.135,0.094c0.163,0.12,0.332,0.256,0.51,0.424
		c0.001,0.001,0.001,0.001,0.002,0.002c0,0,0,0,0,0C19.701,27.558,20.503,27.928,21.503,28.242z M30.052,17.365
		c0.528,0.049,0.831,0.131,1.306-0.104c0.883-0.438,1.531-1.15,1.953-2.004c-0.258,1.02-0.776,1.883-1.852,2.268
		C30.931,17.713,30.59,17.52,30.052,17.365z M23.632,25.578c-0.294,0.162-0.372,0.189-0.511,0.494
		c-0.131,0.285-0.267,0.635-0.379,0.938c0.041-0.268,0.1-0.598,0.142-0.863c0.089-0.564,0.156-0.703,0.73-0.799
		c0.215-0.037,0.6-0.115,0.815-0.152C24.22,25.309,23.841,25.465,23.632,25.578z M22.38,17.846c0.508-0.344,1.198-0.277,1.79-0.551
		c-0.202,0.184-0.461,0.332-0.725,0.473c0.29,0.105,0.541,0.322,0.685,0.621c0.061,0.127,0.097,0.26,0.111,0.393
		c0.397-0.131,0.789-0.193,1.119-0.188c-1.181,0.332-2.437,1.105-3.304,2.133c0.098-0.268,0.234-0.51,0.397-0.725
		c0.187-0.246,0.409-0.459,0.652-0.639c-0.243,0.18-0.466,0.393-0.653,0.639c-0.072-0.029-0.139-0.072-0.195-0.127
		c-0.042-0.043-0.077-0.09-0.104-0.146c0.025,0.055,0.061,0.104,0.102,0.145c-0.14-0.113-0.257-0.256-0.339-0.428
		c-0.079-0.166-0.117-0.342-0.118-0.516c-0.293,0.232-0.609,0.455-0.939,0.582C21.315,19.105,21.932,18.146,22.38,17.846z
		 M21.825,15.072c-1.371,0.658-1.725,1.51-1.925,2.391C19.667,16.291,20.007,15.527,21.825,15.072z M14.559,16.152
		c-0.58,0.764-0.934,1.158-1.066,2.18c-0.157-1.004-0.19-1.191,0.258-1.941c-0.131,0.064-0.251,0.156-0.424,0.305
		c-0.625,0.533-1.439,2.633-1.766,3.385c0.207-0.904,0.854-3.164,1.521-3.822c0.438-0.432,0.537-0.422,1.155-0.48
		c0.735-0.07,1.47-0.146,2.205-0.229C15.79,15.803,15.195,15.994,14.559,16.152z"/>
	<path fill="#0CB20F" d="M38.966,33.657L27.262,28.19l-0.227-0.106v0.849c0,0,0,0,0,0v10.28L38.966,33.657z M28.884,30.99
		l5.705,2.665l-5.705,2.655V30.99z"/>
</g>
</svg>
