<?xml version="1.0" encoding="utf-8"?>
<!-- Generator: Adobe Illustrator 17.0.0, SVG Export Plug-In . SVG Version: 6.00 Build 0)  -->
<!DOCTYPE svg PUBLIC "-//W3C//DTD SVG 1.1//EN" "http://www.w3.org/Graphics/SVG/1.1/DTD/svg11.dtd">
<svg version="1.1" id="Layer_1" xmlns="http://www.w3.org/2000/svg" xmlns:xlink="http://www.w3.org/1999/xlink" x="0px" y="0px"
	 width="42px" height="42px" viewBox="0 0 42 42" enable-background="new 0 0 42 42" xml:space="preserve">
<g>
	<path fill="#F2F100" d="M23.055,19.657c0.15-0.167,0.3-0.335,0.478-0.467c-0.008-0.025-0.017-0.05-0.028-0.074
		c0.012,0.024,0.021,0.049,0.028,0.074C23.355,19.322,23.205,19.491,23.055,19.657z"/>
	<path fill="#F2F100" d="M28.988,17.555c-0.096,0.017-0.194,0.054-0.292,0.081C28.794,17.608,28.892,17.571,28.988,17.555
		c0.019-0.038,0.03-0.08,0.035-0.125c0.01-0.105-0.024-0.205-0.087-0.281c0.063,0.076,0.097,0.175,0.087,0.281
		C29.019,17.475,29.007,17.517,28.988,17.555z"/>
	<path fill="#F2F100" d="M28.268,17.355c-0.006,0.064,0.01,0.139,0.038,0.206C28.277,17.494,28.262,17.42,28.268,17.355
		L28.268,17.355z"/>
	<path fill="#F2F100" d="M28.678,17.011L28.678,17.011c0.052,0.005,0.102,0.021,0.146,0.044
		C28.779,17.031,28.73,17.016,28.678,17.011z"/>
	<path fill="#F2F100" d="M21.929,28.07l1.117,0.989c0.556,0.495,1.065,0.999,1.871,1.014c0.871,0.015,1.857-0.65,2.11-1.477
		l0.293-0.955c-0.173-0.042-0.341-0.088-0.504-0.138c-0.182,0.435-0.167,0.603-0.253,0.922c-0.146,0.546-0.897,0.926-1.686,0.735
		c-0.279-0.067-0.444-0.107-0.545-0.18c0.082,0.216,0.233,0.398,0.521,0.451c0.317,0.06,0.551,0.085,1.013-0.02
		c-0.571,0.294-0.755,0.308-1.159,0.218c-1.063-0.236-0.688-1.518-0.457-2.3c0.146-0.493,0.097-1.016-0.013-1.51
		c0.402,0.253,0.721,0.479,1.18,0.633c2.147,0.724,4.696,1.461,6.857,0.254c1.695-0.946,2.624-3.045,2.832-4.968
		c0.186-1.713-0.134-4.387-0.837-6.086c-0.161-0.392-0.81-0.98-1.222-0.58c-0.416,0.404-0.728,0.975-1.181,1.331
		c-0.615,0.486-1.677,0.318-1.484,1.349c0.141,0.751,0.181,1.59,0.021,2.289c-0.154,0.672-0.313,1.626-0.664,2.076
		c0.104-0.381,0.278-1.376,0.327-2.047c0.026-0.367-0.015-0.81-0.084-1.256l-0.232,0.005c-0.283,0.006-0.744,0.412-0.868,0.665
		c-0.345,0.705-0.369,1.359-0.756,2.029c0.312-0.75,0.136-1.426,0.42-2.229c0.101-0.285,0.355-0.529,0.649-0.678
		c-0.164-0.024-0.328,0.047-0.569,0.104c-1.035,0.245-0.988,1.058-1.624,1.834c0.612-1.125,0.3-1.871,1.63-2.174
		c0.438-0.1,0.758-0.139,1.045,0.091l0.244-0.02c-0.037-0.206-0.078-0.409-0.118-0.601c-0.607-0.08-1.168-0.063-1.791,0.031
		c0.135-0.059,0.265-0.112,0.393-0.159c-0.039-0.039-0.074-0.095-0.1-0.155c-0.08-0.154-0.117-0.332-0.1-0.518
		c0.014-0.14,0.058-0.269,0.125-0.383c-0.021,0.005-0.041,0.011-0.062,0.019c-0.148,0.059-0.464,0.04-0.604-0.009
		c0.277-0.045,0.694-0.194,0.964-0.325c0.188-0.113,0.39-0.165,0.6-0.145c0.106,0.01,0.207,0.038,0.299,0.08
		c0.125,0.037,0.266,0.088,0.434,0.147c-0.255-0.533-0.546-1.018-0.894-1.502c-0.329-0.459-0.605-0.617-1.093-0.904
		c-0.104-0.063-0.209-0.126-0.31-0.191c-0.36-0.066-0.761-0.132-1.107-0.065c0.284-0.112,0.5-0.156,0.75-0.178
		c-0.689-0.493-1.283-1.048-1.963-1.62C22.721,9.764,20.6,9.92,17.261,11.37c-1.356,0.59-1.842,1.184-2.677,2.25
		c0.875-0.021,1.719-0.052,2.59-0.133c-0.901,0.21-1.765,0.379-2.648,0.513c-0.978,0.148-1.276,0.124-2.015,0.841
		c-1.358,1.32-2.495,2.813-3.737,4.154c-0.719,0.775-1.076,1.553-1.499,2.438c-0.42,0.88-0.361,1.213,0.201,1.974
		c0.574,0.779,0.922,1.13,1.164,1.821c0.636-0.979,1.4-1.793,2.207-2.767c-0.659,1.056-1.26,2.054-1.804,3.126
		c-0.339,0.668-0.505,1.008-0.495,1.745c0.637,0.734,1.036,1.126,1.627,1.288c0.637,0.175,1.235,0.146,1.811-0.152
		c1.432-0.741,2.793-1.707,4.381-1.829c0.819-1.462,0.59-3.3,0.295-4.963c-0.244-1.38-0.182-2.6,0.147-3.984
		c0.083,1.346,0.19,2.595,0.456,3.915c0.284,1.407,0.4,2.676,0.131,4.033c0.353,0.079,1.019,0.318,1.798,1.057l0,0
		C20.124,27.385,20.927,27.754,21.929,28.07z M30.478,17.191c0.529,0.05,0.831,0.132,1.305-0.103
		c0.883-0.437,1.533-1.15,1.954-2.003c-0.258,1.018-0.776,1.883-1.852,2.266C31.356,17.54,31.016,17.346,30.478,17.191z
		 M24.058,25.406c-0.294,0.16-0.372,0.188-0.512,0.492c-0.131,0.287-0.266,0.637-0.379,0.938c0.043-0.266,0.101-0.597,0.143-0.862
		c0.089-0.564,0.156-0.703,0.73-0.8c0.215-0.036,0.6-0.115,0.814-0.151C24.646,25.136,24.267,25.292,24.058,25.406z M22.806,17.672
		c0.508-0.343,1.198-0.276,1.79-0.55c-0.202,0.184-0.462,0.332-0.725,0.473c0.29,0.106,0.542,0.321,0.685,0.622
		c0.061,0.127,0.097,0.259,0.111,0.392c0.397-0.131,0.789-0.192,1.119-0.188c-1.181,0.331-2.438,1.106-3.304,2.133
		c0.099-0.268,0.233-0.51,0.397-0.726c0,0-0.001,0-0.001,0.001c-0.072-0.029-0.14-0.072-0.195-0.128
		c-0.042-0.041-0.077-0.09-0.103-0.145c-0.061-0.127-0.064-0.267-0.021-0.391c-0.043,0.124-0.04,0.264,0.021,0.391
		c0.024,0.054,0.06,0.102,0.101,0.143c-0.14-0.111-0.257-0.255-0.339-0.427c-0.079-0.167-0.117-0.343-0.118-0.516
		c-0.292,0.233-0.609,0.454-0.939,0.582C21.74,18.933,22.358,17.975,22.806,17.672z M22.249,14.9
		c-1.37,0.657-1.725,1.508-1.924,2.391C20.092,16.118,20.433,15.355,22.249,14.9z M14.984,15.98
		c-0.58,0.763-0.934,1.157-1.066,2.179c-0.157-1.005-0.19-1.191,0.257-1.941c-0.129,0.065-0.25,0.156-0.423,0.304
		c-0.625,0.534-1.439,2.635-1.766,3.386c0.207-0.904,0.854-3.163,1.521-3.821c0.438-0.434,0.537-0.424,1.154-0.482
		c0.736-0.069,1.471-0.146,2.206-0.229C16.215,15.63,15.62,15.82,14.984,15.98z"/>
	<path fill="#F2F100" d="M29.796,16.467c0.087,0.086,0.158,0.188,0.205,0.302c0.026-0.024,0.055-0.048,0.084-0.069l-0.109-0.237
		L29.796,16.467z"/>
	<path fill="#3D6480" d="M35.688,21.755c0.187-1.837-0.173-4.926-1.049-6.602c-0.257-0.493-1.42-1.117-1.93-0.601
		c-0.384,0.39-0.648,0.982-1.062,1.337c-0.321,0.274-0.72,0.41-1.067,0.554c-0.271-0.729-0.658-1.295-1.133-1.86
		c-0.378-0.45-0.734-0.674-1.232-0.986c-0.984-0.616-1.748-1.395-2.644-2.133c-2.71-2.234-5.037-2.166-8.413-0.744
		c-1.611,0.678-2.389,1.598-3.377,2.92c-0.597,0.031-1.007,0.146-1.639,0.703c-0.466,0.412-0.899,0.835-1.329,1.274l-0.755,0.826
		c-0.614,0.688-1.222,1.415-1.884,2.194c-0.671,0.789-1.069,1.586-1.495,2.449c-0.588,1.192-0.575,1.646,0.204,2.693
		c0.673,0.901,1.035,1.308,1.328,2.19c-0.242,0.499-0.33,0.922-0.411,1.604c0.822,0.899,1.434,1.516,2.232,1.705
		c0.783,0.187,1.438,0.15,2.139-0.208c1.557-0.796,2.997-1.824,4.754-1.866c0.221-0.542,0.371-1.06,0.471-1.566
		c0.269-1.356,0.153-2.625-0.131-4.033c-0.266-1.32-0.373-2.569-0.456-3.915c-0.329,1.385-0.392,2.604-0.147,3.984
		c0.295,1.663,0.524,3.501-0.295,4.963c-1.588,0.122-2.949,1.088-4.381,1.829c-0.575,0.298-1.174,0.327-1.811,0.152
		c-0.591-0.162-0.99-0.554-1.627-1.288c-0.01-0.737,0.156-1.077,0.495-1.745c0.544-1.072,1.145-2.07,1.804-3.126
		c-0.807,0.974-1.571,1.788-2.207,2.767c-0.242-0.691-0.59-1.042-1.164-1.821c-0.563-0.761-0.621-1.094-0.201-1.974
		c0.423-0.885,0.78-1.662,1.499-2.438c1.242-1.342,2.379-2.834,3.737-4.154c0.738-0.717,1.037-0.692,2.015-0.841
		c0.884-0.134,1.747-0.303,2.648-0.513c-0.871,0.081-1.715,0.111-2.59,0.133c0.835-1.066,1.32-1.66,2.677-2.25
		c3.339-1.45,5.46-1.606,8.084,0.598c0.68,0.572,1.273,1.127,1.963,1.62c-0.25,0.021-0.466,0.065-0.75,0.178
		c0.347-0.066,0.747-0.001,1.107,0.065c0.101,0.065,0.205,0.129,0.31,0.191c0.487,0.287,0.764,0.445,1.093,0.904
		c0.348,0.484,0.639,0.969,0.894,1.502c-0.168-0.06-0.309-0.11-0.434-0.147c-0.092-0.042-0.192-0.07-0.299-0.08
		c-0.21-0.021-0.412,0.031-0.6,0.145c-0.27,0.131-0.687,0.28-0.964,0.325c0.141,0.049,0.456,0.067,0.604,0.009
		c0.021-0.008,0.04-0.014,0.062-0.019c-0.067,0.114-0.111,0.243-0.125,0.383c-0.018,0.186,0.02,0.363,0.1,0.518
		c-0.028-0.067-0.044-0.142-0.038-0.206l0,0l0,0c0.005-0.052,0.02-0.102,0.043-0.145c0.046-0.088,0.124-0.154,0.217-0.184
		c0.047-0.015,0.097-0.021,0.15-0.016l0,0l0,0c0.053,0.005,0.102,0.021,0.146,0.044c0.043,0.024,0.082,0.056,0.113,0.094
		c0.063,0.076,0.097,0.175,0.087,0.281c-0.005,0.045-0.017,0.087-0.035,0.125c-0.096,0.017-0.194,0.054-0.292,0.081
		s-0.192,0.044-0.292,0.081l0,0c-0.128,0.047-0.258,0.101-0.393,0.159c0.623-0.095,1.184-0.111,1.791-0.031
		c0.04,0.191,0.081,0.395,0.118,0.601l-0.244,0.02c-0.287-0.229-0.607-0.19-1.045-0.091c-1.33,0.303-1.018,1.049-1.63,2.174
		c0.636-0.776,0.589-1.589,1.624-1.834c0.241-0.058,0.405-0.129,0.569-0.104c-0.294,0.148-0.549,0.393-0.649,0.678
		c-0.284,0.803-0.108,1.479-0.42,2.229c0.387-0.67,0.411-1.324,0.756-2.029c0.124-0.253,0.585-0.659,0.868-0.665l0.232-0.005
		c0.069,0.446,0.11,0.889,0.084,1.256c-0.049,0.671-0.223,1.666-0.327,2.047c0.351-0.45,0.51-1.404,0.664-2.076
		c0.16-0.699,0.12-1.538-0.021-2.289c-0.192-1.03,0.869-0.862,1.484-1.349c0.453-0.356,0.765-0.927,1.181-1.331
		c0.412-0.4,1.061,0.188,1.222,0.58c0.703,1.699,1.022,4.373,0.837,6.086c-0.208,1.923-1.137,4.021-2.832,4.968
		c-2.161,1.207-4.71,0.47-6.857-0.254c-0.459-0.154-0.777-0.38-1.18-0.633c0.109,0.494,0.159,1.017,0.013,1.51
		c-0.231,0.782-0.605,2.063,0.457,2.3c0.404,0.09,0.588,0.076,1.159-0.218c-0.462,0.104-0.695,0.079-1.013,0.02
		c-0.288-0.053-0.439-0.235-0.521-0.451c0.101,0.072,0.266,0.112,0.545,0.18c0.788,0.19,1.539-0.189,1.686-0.735
		c0.086-0.319,0.071-0.487,0.253-0.922c0.163,0.05,0.331,0.096,0.504,0.138l-0.293,0.955c-0.253,0.826-1.239,1.491-2.11,1.477
		c-0.806-0.015-1.315-0.519-1.871-1.014l-1.117-0.989c-1.002-0.316-1.805-0.686-2.735-1.374l0,0
		c0.645,0.758,1.088,1.186,1.965,1.565l0.573,0.22l0.075,0.11l0.949,0.915c0.652,0.628,1.192,1.142,2.187,1.095
		c1.036-0.049,2.223-0.865,2.526-1.863l0.303-1c1.563,0.296,3.389,0.229,4.749-0.498C34.521,26.173,35.457,24.026,35.688,21.755z
		 M30.001,16.769c-0.047-0.113-0.118-0.216-0.205-0.302l0.18-0.005l0.109,0.237C30.056,16.721,30.027,16.744,30.001,16.769z"/>
	<path fill="#3D6480" d="M16.3,9.395c-1.868,0.457-2.418,0.783-3.038,2.949C14.051,10.758,14.648,10.174,16.3,9.395z"/>
	<path fill="#3D6480" d="M14.814,9.529c-0.942,0.228-1.122,0.401-1.404,1.325C13.861,10.178,14.121,9.958,14.814,9.529z"/>
	<path fill="#3D6480" d="M21.285,19.339c0.33-0.128,0.647-0.349,0.939-0.582c0.001,0.173,0.039,0.349,0.118,0.516
		c0.082,0.172,0.199,0.315,0.339,0.427c-0.041-0.041-0.076-0.089-0.101-0.143c-0.061-0.127-0.064-0.267-0.021-0.391
		s0.134-0.23,0.261-0.291c0.255-0.121,0.562-0.013,0.683,0.241c0.012,0.024,0.021,0.049,0.028,0.074
		c-0.177,0.132-0.328,0.3-0.478,0.467C23,19.718,22.93,19.762,22.88,19.828c-0.164,0.216-0.299,0.458-0.397,0.726
		c0.866-1.026,2.123-1.802,3.304-2.133c-0.33-0.005-0.722,0.057-1.119,0.188c-0.015-0.133-0.051-0.265-0.111-0.392
		c-0.143-0.301-0.395-0.516-0.685-0.622c0.263-0.141,0.522-0.289,0.725-0.473c-0.592,0.273-1.282,0.207-1.79,0.55
		C22.358,17.975,21.74,18.933,21.285,19.339z"/>
	<path fill="#3D6480" d="M31.885,17.352c1.075-0.383,1.594-1.248,1.852-2.266c-0.421,0.853-1.071,1.566-1.954,2.003
		c-0.474,0.234-0.775,0.152-1.305,0.103C31.016,17.346,31.356,17.54,31.885,17.352z"/>
	<path fill="#3D6480" d="M13.507,16.086c-0.666,0.658-1.313,2.917-1.521,3.821c0.326-0.751,1.141-2.852,1.766-3.386
		c0.173-0.147,0.294-0.238,0.423-0.304c-0.447,0.75-0.414,0.937-0.257,1.941c0.133-1.021,0.486-1.416,1.066-2.179
		c0.636-0.16,1.23-0.351,1.883-0.605c-0.735,0.083-1.47,0.159-2.206,0.229C14.044,15.662,13.944,15.652,13.507,16.086z"/>
	<path fill="#3D6480" d="M23.31,25.974c-0.042,0.266-0.1,0.597-0.143,0.862c0.113-0.301,0.248-0.65,0.379-0.938
		c0.14-0.304,0.218-0.332,0.512-0.492c0.209-0.114,0.588-0.271,0.797-0.384c-0.215,0.036-0.6,0.115-0.814,0.151
		C23.466,25.27,23.398,25.409,23.31,25.974z"/>
	<path fill="#3D6480" d="M22.249,14.9c-1.816,0.455-2.157,1.218-1.924,2.391C20.524,16.408,20.879,15.558,22.249,14.9z"/>
	<path fill="#FFFFCD" d="M23.532,19.19c-0.008-0.025-0.017-0.05-0.028-0.074c-0.121-0.254-0.428-0.362-0.683-0.241
		c-0.127,0.061-0.218,0.167-0.261,0.291s-0.04,0.264,0.021,0.391c0.025,0.055,0.061,0.104,0.103,0.145
		c0.056,0.056,0.123,0.099,0.195,0.128c0,0,0.001,0,0.001-0.001c0.05-0.066,0.12-0.11,0.175-0.171
		C23.205,19.491,23.355,19.322,23.532,19.19z"/>
	<path fill="#FFFFCD" d="M28.405,17.717c0.099-0.037,0.194-0.054,0.292-0.081s0.195-0.064,0.292-0.081
		c0.019-0.038,0.03-0.08,0.035-0.125c0.01-0.105-0.024-0.205-0.087-0.281c-0.031-0.038-0.07-0.07-0.113-0.094
		c-0.044-0.024-0.093-0.039-0.146-0.044l0,0c-0.053-0.005-0.103,0.001-0.15,0.016c-0.093,0.03-0.171,0.096-0.217,0.184
		c-0.023,0.044-0.038,0.093-0.043,0.145l0,0c-0.006,0.064,0.01,0.139,0.038,0.206C28.331,17.622,28.366,17.678,28.405,17.717
		L28.405,17.717z"/>
	<polygon fill="#3D6480" points="37.115,32.635 37.115,35.718 31.89,30.492 30.546,31.836 35.772,37.062 32.626,37.062 
		32.626,38.963 39.016,38.962 39.016,32.635 	"/>
</g>
</svg>
