<?xml version="1.0" encoding="utf-8"?>
<!-- Generator: Adobe Illustrator 17.0.0, SVG Export Plug-In . SVG Version: 6.00 Build 0)  -->
<!DOCTYPE svg PUBLIC "-//W3C//DTD SVG 1.1//EN" "http://www.w3.org/Graphics/SVG/1.1/DTD/svg11.dtd">
<svg version="1.1" id="Layer_1" xmlns="http://www.w3.org/2000/svg" xmlns:xlink="http://www.w3.org/1999/xlink" x="0px" y="0px"
	 width="42px" height="42px" viewBox="0 0 42 42" enable-background="new 0 0 42 42" xml:space="preserve">
<g>
	<path fill="#EFF9FE" d="M12.033,31.842v1.133h0.817c-0.201-0.318-0.445-0.632-0.774-1.072
		C12.06,31.881,12.049,31.863,12.033,31.842z"/>
	<path fill="#EFF9FE" d="M14.335,25.927v-0.546h0.475c0.057-0.064,0.115-0.134,0.172-0.197l0.691-0.756
		c0.344-0.354,0.699-0.691,1.066-1.023h-2.404v-0.801h4.063c0.607-0.81,1.133-1.452,1.857-1.977h-1.894
		c-0.148,0.236-0.294,0.495-0.447,0.803c0.089-0.311,0.178-0.568,0.269-0.803h-3.849v-0.801h3.796
		c0.221-0.636,0.434-0.788,1.206-0.975c-0.539,0.333-0.796,0.544-1.112,0.975h0.363c0.437-0.616,1.036-0.834,2.111-1.098
		c-0.77,0.364-1.289,0.682-1.709,1.098h2.794c1.746-0.701,3.195-0.985,4.584-0.677l-0.007-2.587h-3.529v-3.529H12.033v16.113
		c0.34-0.68,0.686-1.32,1.224-1.953C13.632,26.752,13.986,26.334,14.335,25.927z"/>
	<path fill="#EFF9FE" d="M24.531,13.044v1.819h1.82l1.709,1.709l0.009,3.273c0.368,0.217,0.738,0.465,1.118,0.778
		c0.42,0.347,0.809,0.702,1.209,1.043l-0.026-9.113h-3.53V9.023H16.043v2.311h6.778L24.531,13.044z"/>
	<path fill="#F2F100" d="M33.244,25.48c0.024-0.021,0.051-0.043,0.077-0.063l-0.1-0.217l-0.165,0.004
		C33.136,25.283,33.2,25.377,33.244,25.48z"/>
	<path fill="#F2F100" d="M36.035,23.93c-0.381,0.371-0.666,0.893-1.08,1.219c-0.564,0.445-1.537,0.291-1.36,1.234
		c0.128,0.689,0.165,1.457,0.019,2.098c-0.141,0.613-0.287,1.488-0.607,1.9c0.096-0.35,0.255-1.26,0.299-1.875
		c0.024-0.336-0.014-0.74-0.076-1.15l-0.213,0.006c-0.26,0.006-0.682,0.377-0.795,0.607c-0.316,0.646-0.338,1.246-0.692,1.859
		c0.286-0.688,0.124-1.307,0.385-2.041c0.093-0.26,0.325-0.484,0.595-0.621c-0.15-0.021-0.301,0.043-0.521,0.096
		c-0.948,0.225-0.904,0.969-1.486,1.68c0.561-1.029,0.273-1.713,1.492-1.99c0.4-0.092,0.693-0.127,0.956,0.084l0.224-0.018
		c-0.034-0.189-0.071-0.375-0.107-0.551c-0.557-0.072-1.07-0.059-1.641,0.029c0.123-0.055,0.242-0.104,0.359-0.146
		c-0.035-0.037-0.068-0.088-0.092-0.143c-0.072-0.141-0.107-0.305-0.091-0.473c0.013-0.129,0.053-0.248,0.114-0.352
		c-0.02,0.004-0.037,0.01-0.057,0.018c-0.135,0.053-0.424,0.037-0.555-0.008c0.256-0.043,0.639-0.18,0.885-0.299
		c0.172-0.104,0.356-0.15,0.549-0.133c0.098,0.01,0.189,0.035,0.273,0.074c0.115,0.033,0.244,0.08,0.396,0.135
		c-0.234-0.488-0.499-0.932-0.818-1.375c-0.301-0.42-0.554-0.564-1-0.828c-0.097-0.057-0.191-0.115-0.284-0.176
		c-0.329-0.061-0.696-0.119-1.014-0.061c0.261-0.102,0.458-0.143,0.687-0.162c-0.631-0.451-1.174-0.959-1.797-1.482
		c-2.402-2.02-4.345-1.875-7.402-0.549c-1.242,0.541-1.686,1.084-2.45,2.061c0.801-0.02,1.573-0.047,2.371-0.121
		c-0.825,0.191-1.616,0.348-2.425,0.469c-0.896,0.137-1.17,0.113-1.846,0.77c-1.243,1.211-2.285,2.576-3.422,3.805
		c-0.658,0.711-0.986,1.422-1.373,2.232c-0.384,0.807-0.33,1.111,0.185,1.807c0.526,0.713,0.845,1.035,1.066,1.668
		c0.581-0.896,1.281-1.641,2.021-2.533c-0.604,0.967-1.153,1.881-1.652,2.863c-0.309,0.611-0.461,0.922-0.453,1.598
		c0.584,0.672,0.949,1.029,1.49,1.18c0.583,0.16,1.131,0.133,1.658-0.141c1.311-0.678,2.557-1.563,4.012-1.674
		c0.75-1.34,0.54-3.021,0.27-4.545c-0.223-1.264-0.166-2.381,0.135-3.648c0.076,1.232,0.174,2.377,0.418,3.584
		c0.26,1.289,0.366,2.451,0.12,3.693c0.323,0.073,0.932,0.292,1.646,0.969c0.851,0.629,1.588,0.968,2.504,1.257l1.022,0.906
		c0.51,0.453,0.977,0.914,1.715,0.928c0.797,0.014,1.7-0.596,1.932-1.352l0.269-0.875c-0.158-0.039-0.313-0.08-0.462-0.127
		c-0.166,0.398-0.152,0.553-0.23,0.844c-0.135,0.502-0.822,0.848-1.544,0.674c-0.257-0.061-0.407-0.098-0.499-0.164
		c0.074,0.197,0.213,0.365,0.477,0.414c0.291,0.053,0.505,0.076,0.928-0.02c-0.523,0.27-0.69,0.283-1.061,0.199
		c-0.974-0.215-0.631-1.389-0.419-2.105c0.134-0.451,0.088-0.93-0.013-1.383c0.369,0.232,0.661,0.439,1.081,0.58
		c1.966,0.662,4.3,1.338,6.279,0.232c1.553-0.865,2.403-2.787,2.593-4.549c0.17-1.568-0.122-4.016-0.766-5.572
		C37.005,24.102,36.412,23.562,36.035,23.93z M19.494,24.416c-0.531,0.697-0.855,1.061-0.977,1.996
		c-0.145-0.922-0.174-1.092,0.235-1.779c-0.118,0.061-0.229,0.143-0.388,0.279c-0.572,0.488-1.318,2.412-1.616,3.1
		c0.189-0.828,0.782-2.896,1.392-3.5c0.4-0.396,0.492-0.387,1.058-0.439c0.674-0.064,1.347-0.135,2.02-0.211
		C20.621,24.096,20.076,24.27,19.494,24.416z M24.384,25.959c-0.214-1.074,0.098-1.771,1.762-2.189
		C24.89,24.373,24.567,25.152,24.384,25.959z M27.802,33.391c-0.27,0.146-0.342,0.172-0.469,0.451
		c-0.12,0.262-0.244,0.582-0.347,0.857c0.038-0.242,0.091-0.545,0.13-0.789c0.081-0.518,0.143-0.643,0.669-0.732
		c0.196-0.033,0.549-0.105,0.746-0.139C28.34,33.143,27.994,33.287,27.802,33.391z M26.36,28.947
		c0.089-0.246,0.214-0.467,0.363-0.664c0.171-0.225,0.375-0.42,0.598-0.584c-0.223,0.164-0.427,0.359-0.599,0.584
		c-0.065-0.025-0.127-0.064-0.179-0.117c-0.038-0.037-0.071-0.082-0.095-0.133c0.023,0.051,0.056,0.094,0.093,0.131
		c-0.128-0.102-0.235-0.232-0.31-0.391c-0.073-0.152-0.107-0.313-0.109-0.473c-0.268,0.215-0.558,0.418-0.859,0.533
		c0.416-0.371,0.982-1.248,1.393-1.525c0.465-0.314,1.096-0.254,1.639-0.504c-0.186,0.168-0.423,0.305-0.664,0.434
		c0.266,0.098,0.496,0.293,0.627,0.568c0.057,0.117,0.089,0.238,0.103,0.359c0.364-0.121,0.722-0.178,1.024-0.172
		C28.303,27.297,27.153,28.008,26.36,28.947z M34.968,26.016c-0.483,0.172-0.795-0.006-1.288-0.146
		c0.484,0.045,0.762,0.119,1.195-0.094c0.808-0.4,1.403-1.055,1.788-1.836C36.428,24.873,35.954,25.664,34.968,26.016z"/>
	<path fill="#3D6480" d="M37.491,24.002c-0.235-0.451-1.3-1.023-1.767-0.549c-0.352,0.355-0.594,0.898-0.974,1.223
		c-0.294,0.252-0.658,0.377-0.978,0.508c-0.248-0.668-0.603-1.186-1.037-1.703c-0.207-0.247-0.411-0.418-0.636-0.579l-0.029-10.338
		l-1.709-1.71h-1.821V9.032l-1.708-1.708h-12.49v4.01h-4.01v23.34h2.696c-0.046,0.207-0.082,0.43-0.114,0.701
		c0.753,0.824,1.313,1.389,2.044,1.563c0.718,0.17,1.316,0.137,1.959-0.191c1.426-0.729,2.744-1.67,4.353-1.709
		c0.05-0.123,0.088-0.242,0.13-0.363h2.037c0.541,0.625,0.949,1.003,1.708,1.33l0.525,0.203l0.068,0.102l0.871,0.836
		c0.597,0.576,1.09,1.047,2.001,1.004c0.948-0.045,2.035-0.793,2.313-1.707l0.277-0.916c1.431,0.271,3.103,0.209,4.348-0.455
		c1.832-0.979,2.689-2.943,2.9-5.023C38.621,28.365,38.293,25.537,37.491,24.002z M33.321,25.418
		c-0.026,0.02-0.053,0.041-0.077,0.063c-0.044-0.104-0.107-0.197-0.188-0.275l0.165-0.004L33.321,25.418z M16.043,9.023h10.798
		v3.529h3.53l0.026,9.113c-0.4-0.34-0.789-0.696-1.209-1.043c-0.379-0.313-0.75-0.56-1.118-0.778l-0.009-3.273l-1.709-1.709h-1.82
		v-1.819l-1.71-1.71h-6.778V9.023z M12.033,13.033h10.798v3.529h3.529l0.007,2.587c-1.388-0.308-2.838-0.025-4.584,0.677H18.99
		c0.42-0.415,0.939-0.734,1.709-1.098c-1.075,0.264-1.673,0.481-2.111,1.098h-0.363c0.316-0.431,0.574-0.641,1.112-0.975
		c-0.772,0.187-0.985,0.339-1.206,0.975h-3.796v0.801h3.849c-0.091,0.235-0.18,0.492-0.269,0.803
		c0.153-0.308,0.299-0.567,0.447-0.803h1.894c-0.724,0.524-1.251,1.167-1.857,1.977h-4.063v0.801h2.404
		c-0.367,0.333-0.722,0.669-1.066,1.023l-0.691,0.756c-0.057,0.064-0.115,0.133-0.172,0.197h-0.475v0.546
		c-0.349,0.407-0.703,0.825-1.078,1.266c-0.538,0.633-0.884,1.273-1.224,1.953V13.033z M12.033,32.975v-1.133
		c0.015,0.021,0.026,0.039,0.042,0.061c0.329,0.441,0.573,0.754,0.774,1.072H12.033z M37.919,30.033
		c-0.189,1.762-1.04,3.684-2.593,4.549c-1.979,1.105-4.313,0.43-6.279-0.232c-0.42-0.141-0.712-0.348-1.081-0.58
		c0.101,0.453,0.146,0.932,0.013,1.383c-0.212,0.717-0.555,1.891,0.419,2.105c0.37,0.084,0.537,0.07,1.061-0.199
		c-0.423,0.096-0.637,0.072-0.928,0.02c-0.264-0.049-0.402-0.217-0.477-0.414c0.092,0.066,0.242,0.104,0.499,0.164
		c0.722,0.174,1.409-0.172,1.544-0.674c0.078-0.291,0.064-0.445,0.23-0.844c0.149,0.047,0.304,0.088,0.462,0.127l-0.269,0.875
		c-0.231,0.756-1.135,1.365-1.932,1.352c-0.738-0.014-1.205-0.475-1.715-0.928l-1.022-0.906c-0.917-0.289-1.653-0.629-2.504-1.257
		c-0.714-0.677-1.324-0.896-1.646-0.969c0.247-1.242,0.14-2.405-0.12-3.693c-0.244-1.207-0.342-2.352-0.418-3.584
		c-0.301,1.268-0.357,2.385-0.135,3.648c0.271,1.523,0.48,3.205-0.27,4.545c-1.455,0.111-2.701,0.996-4.012,1.674
		c-0.527,0.273-1.075,0.301-1.658,0.141c-0.541-0.15-0.906-0.508-1.49-1.18c-0.008-0.676,0.145-0.986,0.453-1.598
		c0.499-0.982,1.049-1.896,1.652-2.863c-0.739,0.893-1.439,1.637-2.021,2.533c-0.222-0.633-0.54-0.955-1.066-1.668
		c-0.515-0.695-0.568-1-0.185-1.807c0.387-0.811,0.715-1.521,1.373-2.232c1.137-1.229,2.179-2.594,3.422-3.805
		c0.676-0.656,0.949-0.633,1.846-0.77c0.809-0.121,1.6-0.277,2.425-0.469c-0.798,0.074-1.57,0.102-2.371,0.121
		c0.765-0.977,1.208-1.52,2.45-2.061c3.058-1.326,5-1.471,7.402,0.549c0.623,0.523,1.166,1.031,1.797,1.482
		c-0.229,0.02-0.426,0.061-0.687,0.162c0.317-0.059,0.685,0,1.014,0.061c0.093,0.061,0.188,0.119,0.284,0.176
		c0.446,0.264,0.699,0.408,1,0.828c0.319,0.443,0.584,0.887,0.818,1.375c-0.152-0.055-0.281-0.102-0.396-0.135
		c-0.084-0.039-0.176-0.064-0.273-0.074c-0.192-0.018-0.377,0.029-0.549,0.133c-0.246,0.119-0.629,0.256-0.885,0.299
		c0.131,0.045,0.42,0.061,0.555,0.008c0.02-0.008,0.037-0.014,0.057-0.018c-0.062,0.104-0.102,0.223-0.114,0.352
		c-0.017,0.168,0.019,0.332,0.091,0.473c-0.025-0.061-0.039-0.129-0.034-0.188c0.009-0.097,0.055-0.181,0.122-0.238
		s0.157-0.088,0.254-0.078c0.192,0.02,0.334,0.191,0.316,0.383c-0.001,0.007-0.005,0.013-0.006,0.021
		c-0.005,0.033-0.013,0.066-0.026,0.095c-0.177,0.029-0.353,0.082-0.534,0.148c-0.117,0.043-0.236,0.092-0.359,0.146
		c0.57-0.088,1.084-0.102,1.641-0.029c0.036,0.176,0.073,0.361,0.107,0.551l-0.224,0.018c-0.263-0.211-0.556-0.176-0.956-0.084
		c-1.219,0.277-0.932,0.961-1.492,1.99c0.582-0.711,0.538-1.455,1.486-1.68c0.221-0.053,0.371-0.117,0.521-0.096
		c-0.27,0.137-0.502,0.361-0.595,0.621c-0.261,0.734-0.099,1.354-0.385,2.041c0.354-0.613,0.376-1.213,0.692-1.859
		c0.113-0.23,0.535-0.602,0.795-0.607l0.213-0.006c0.063,0.41,0.101,0.814,0.076,1.15c-0.044,0.615-0.203,1.525-0.299,1.875
		c0.32-0.412,0.467-1.287,0.607-1.9c0.146-0.641,0.109-1.408-0.019-2.098c-0.177-0.943,0.796-0.789,1.36-1.234
		c0.414-0.326,0.699-0.848,1.08-1.219c0.377-0.367,0.971,0.172,1.119,0.531C37.797,26.018,38.089,28.465,37.919,30.033z"/>
	<path fill="#3D6480" d="M34.876,25.775c-0.434,0.213-0.711,0.139-1.195,0.094c0.493,0.141,0.805,0.318,1.288,0.146
		c0.985-0.352,1.46-1.143,1.695-2.076C36.279,24.721,35.683,25.375,34.876,25.775z"/>
	<path fill="#3D6480" d="M18.14,24.512c-0.609,0.604-1.202,2.672-1.392,3.5c0.298-0.688,1.044-2.611,1.616-3.1
		c0.158-0.137,0.27-0.219,0.388-0.279c-0.409,0.688-0.38,0.857-0.235,1.779c0.121-0.936,0.445-1.299,0.977-1.996
		c0.582-0.146,1.127-0.32,1.724-0.555c-0.673,0.076-1.346,0.146-2.02,0.211C18.632,24.125,18.541,24.115,18.14,24.512z"/>
	<path fill="#3D6480" d="M24.384,25.959c0.183-0.807,0.506-1.586,1.762-2.189C24.482,24.187,24.17,24.885,24.384,25.959z"/>
	<path fill="#3D6480" d="M28.257,26.807c-0.131-0.275-0.361-0.471-0.627-0.568c0.241-0.129,0.479-0.266,0.664-0.434
		c-0.543,0.25-1.174,0.189-1.639,0.504c-0.41,0.277-0.977,1.154-1.393,1.525c0.302-0.115,0.592-0.318,0.859-0.533
		c0.002,0.16,0.036,0.32,0.109,0.473c0.074,0.158,0.182,0.289,0.31,0.391c-0.037-0.037-0.069-0.08-0.093-0.131
		c-0.083-0.174-0.048-0.375,0.073-0.511c0.04-0.045,0.09-0.084,0.148-0.112c0.234-0.111,0.514-0.012,0.625,0.221
		c0.012,0.021,0.02,0.045,0.026,0.068c-0.223,0.164-0.427,0.359-0.598,0.584c-0.149,0.197-0.274,0.418-0.363,0.664
		c0.793-0.939,1.943-1.65,3.024-1.953c-0.303-0.006-0.66,0.051-1.024,0.172C28.346,27.045,28.314,26.924,28.257,26.807z"/>
	<path fill="#3D6480" d="M27.117,33.91c-0.039,0.244-0.092,0.547-0.13,0.789c0.103-0.275,0.227-0.596,0.347-0.857
		c0.127-0.279,0.199-0.305,0.469-0.451c0.191-0.104,0.538-0.248,0.729-0.352c-0.197,0.033-0.55,0.105-0.746,0.139
		C27.259,33.268,27.198,33.393,27.117,33.91z"/>
	<path fill="#FFFFCD" d="M26.669,27.41c-0.058,0.028-0.108,0.066-0.148,0.112c-0.121,0.136-0.156,0.337-0.073,0.511
		c0.023,0.051,0.057,0.096,0.095,0.133c0.052,0.053,0.113,0.092,0.179,0.117c0.172-0.225,0.376-0.42,0.599-0.584
		c-0.007-0.023-0.015-0.047-0.026-0.068C27.183,27.398,26.904,27.299,26.669,27.41z"/>
	<path fill="#FFFFCD" d="M32.317,26.201c0.014-0.029,0.021-0.062,0.026-0.095c0.001-0.007,0.005-0.013,0.006-0.021
		c0.018-0.191-0.124-0.363-0.316-0.383c-0.097-0.01-0.186,0.021-0.254,0.078s-0.113,0.141-0.122,0.238
		c-0.005,0.059,0.009,0.127,0.034,0.188c0.023,0.055,0.057,0.105,0.092,0.143C31.964,26.283,32.14,26.23,32.317,26.201z"/>
</g>
</svg>
