<?xml version="1.0" encoding="utf-8"?>
<!-- Generator: Adobe Illustrator 17.0.0, SVG Export Plug-In . SVG Version: 6.00 Build 0)  -->
<!DOCTYPE svg PUBLIC "-//W3C//DTD SVG 1.1//EN" "http://www.w3.org/Graphics/SVG/1.1/DTD/svg11.dtd">
<svg version="1.1" id="Layer_1" xmlns="http://www.w3.org/2000/svg" xmlns:xlink="http://www.w3.org/1999/xlink" x="0px" y="0px"
	 width="42px" height="42px" viewBox="0 0 42 42" enable-background="new 0 0 42 42" xml:space="preserve">
<g>
	<path fill="#F2F100" d="M28.119,17.361L28.119,17.361c0.052,0.005,0.102,0.021,0.146,0.044
		C28.22,17.382,28.171,17.366,28.119,17.361z"/>
	<path fill="#F2F100" d="M28.429,17.905c0.019-0.039,0.03-0.081,0.035-0.126c0.01-0.105-0.024-0.204-0.087-0.28
		c0.063,0.076,0.097,0.175,0.087,0.28C28.46,17.824,28.448,17.866,28.429,17.905z"/>
	<path fill="#F2F100" d="M22.486,20.017c0.152-0.171,0.306-0.342,0.487-0.477c-0.006-0.018-0.013-0.035-0.021-0.053
		c0.007,0.018,0.015,0.035,0.021,0.053C22.793,19.675,22.639,19.846,22.486,20.017z"/>
	<path fill="#F2F100" d="M21.37,28.42l1.117,0.99c0.556,0.494,1.065,0.999,1.871,1.013c0.871,0.016,1.857-0.65,2.11-1.477
		l0.293-0.954c-0.173-0.042-0.341-0.088-0.504-0.139c-0.182,0.436-0.167,0.603-0.253,0.922c-0.146,0.547-0.897,0.926-1.686,0.736
		c-0.279-0.068-0.444-0.107-0.545-0.18c0.082,0.215,0.233,0.398,0.521,0.451c0.317,0.059,0.551,0.084,1.013-0.02
		c-0.571,0.294-0.755,0.307-1.159,0.217c-1.063-0.236-0.688-1.517-0.457-2.3c0.146-0.493,0.097-1.016-0.013-1.51
		c0.402,0.254,0.721,0.479,1.18,0.633c2.147,0.725,4.696,1.461,6.857,0.255c1.695-0.946,2.624-3.045,2.832-4.968
		c0.186-1.713-0.134-4.387-0.837-6.087c-0.161-0.392-0.81-0.979-1.222-0.579c-0.416,0.404-0.728,0.974-1.181,1.331
		c-0.615,0.485-1.677,0.318-1.484,1.349c0.141,0.751,0.181,1.59,0.021,2.289c-0.154,0.672-0.313,1.625-0.664,2.075
		c0.104-0.38,0.278-1.376,0.327-2.046c0.026-0.367-0.015-0.811-0.084-1.256l-0.232,0.005c-0.283,0.006-0.744,0.411-0.868,0.664
		c-0.345,0.705-0.369,1.359-0.756,2.029c0.312-0.749,0.136-1.426,0.42-2.229c0.101-0.284,0.355-0.529,0.649-0.677
		c-0.164-0.025-0.328,0.047-0.569,0.104c-1.035,0.245-0.988,1.058-1.624,1.835c0.612-1.125,0.3-1.871,1.63-2.175
		c0.438-0.1,0.758-0.139,1.045,0.092l0.244-0.02c-0.037-0.207-0.078-0.409-0.118-0.601c-0.607-0.08-1.168-0.063-1.791,0.031
		c0.135-0.059,0.265-0.112,0.393-0.159c-0.039-0.04-0.074-0.096-0.1-0.155c-0.028-0.068-0.044-0.142-0.038-0.206
		c-0.006,0.064,0.01,0.139,0.038,0.206c-0.08-0.154-0.117-0.332-0.1-0.518c0.014-0.14,0.058-0.27,0.125-0.384
		c-0.021,0.005-0.041,0.012-0.062,0.02c-0.148,0.059-0.464,0.04-0.604-0.009c0.277-0.046,0.694-0.194,0.964-0.326
		c0.188-0.112,0.39-0.164,0.6-0.145c0.106,0.011,0.207,0.038,0.299,0.081c0.125,0.037,0.266,0.088,0.434,0.147
		c-0.255-0.534-0.546-1.019-0.894-1.503c-0.329-0.458-0.605-0.616-1.093-0.903c-0.104-0.063-0.209-0.127-0.31-0.192
		c-0.36-0.065-0.761-0.131-1.107-0.065c0.284-0.111,0.5-0.156,0.75-0.178c-0.689-0.493-1.283-1.048-1.963-1.619
		c-2.624-2.205-4.745-2.048-8.084-0.598c-1.356,0.589-1.842,1.184-2.677,2.25c0.875-0.021,1.719-0.052,2.59-0.133
		c-0.901,0.209-1.765,0.378-2.648,0.513c-0.978,0.148-1.276,0.123-2.015,0.84c-1.358,1.321-2.495,2.813-3.737,4.154
		c-0.719,0.776-1.076,1.554-1.499,2.438c-0.42,0.881-0.361,1.214,0.201,1.975c0.574,0.778,0.922,1.13,1.164,1.821
		c0.636-0.979,1.4-1.793,2.207-2.767c-0.659,1.055-1.26,2.053-1.804,3.125c-0.339,0.668-0.505,1.008-0.495,1.746
		c0.637,0.734,1.036,1.125,1.627,1.287c0.637,0.175,1.235,0.146,1.811-0.152c1.432-0.741,2.793-1.707,4.381-1.828
		c0.819-1.462,0.59-3.3,0.295-4.964c-0.244-1.38-0.182-2.599,0.147-3.984c0.083,1.346,0.19,2.596,0.456,3.915
		c0.284,1.408,0.4,2.677,0.131,4.033c0.353,0.079,1.019,0.318,1.798,1.056l0,0C19.565,27.734,20.368,28.105,21.37,28.42z
		 M29.919,17.542c0.529,0.05,0.831,0.132,1.305-0.103c0.883-0.438,1.533-1.15,1.954-2.004c-0.258,1.019-0.776,1.883-1.852,2.267
		C30.797,17.891,30.457,17.696,29.919,17.542z M23.499,25.756c-0.294,0.161-0.372,0.189-0.512,0.493
		c-0.131,0.286-0.266,0.636-0.379,0.938c0.043-0.267,0.101-0.597,0.143-0.862c0.089-0.565,0.156-0.703,0.73-0.8
		c0.215-0.036,0.6-0.115,0.814-0.151C24.086,25.486,23.708,25.643,23.499,25.756z M22.247,18.022
		c0.508-0.344,1.198-0.276,1.79-0.551c-0.202,0.184-0.462,0.332-0.725,0.473c0.29,0.106,0.542,0.322,0.685,0.622
		c0.061,0.127,0.097,0.26,0.111,0.392c0.397-0.131,0.789-0.192,1.119-0.188c-1.181,0.332-2.438,1.106-3.304,2.133
		c0.099-0.268,0.233-0.509,0.397-0.725c0,0-0.001,0-0.001,0.001c-0.072-0.029-0.14-0.072-0.195-0.128
		c-0.042-0.042-0.077-0.09-0.103-0.146c-0.061-0.127-0.064-0.267-0.021-0.39c-0.043,0.123-0.04,0.263,0.021,0.39
		c0.024,0.055,0.06,0.103,0.101,0.144c-0.14-0.112-0.257-0.256-0.339-0.428c-0.079-0.166-0.117-0.342-0.118-0.516
		c-0.292,0.233-0.609,0.455-0.939,0.583C21.181,19.283,21.799,18.324,22.247,18.022z M21.69,15.25
		c-1.37,0.658-1.725,1.509-1.924,2.391C19.533,16.468,19.874,15.705,21.69,15.25z M14.425,16.33c-0.58,0.763-0.934,1.157-1.066,2.18
		c-0.157-1.005-0.19-1.192,0.257-1.942c-0.129,0.065-0.25,0.156-0.423,0.305c-0.625,0.534-1.439,2.634-1.766,3.385
		c0.207-0.903,0.854-3.163,1.521-3.821c0.438-0.433,0.537-0.423,1.154-0.481c0.736-0.069,1.471-0.146,2.206-0.229
		C15.656,15.98,15.061,16.171,14.425,16.33z"/>
	<path fill="#F2F100" d="M29.237,16.817c0.087,0.085,0.158,0.188,0.205,0.301c0.026-0.024,0.055-0.047,0.084-0.068l-0.109-0.238
		L29.237,16.817z"/>
	<path fill="#3D6480" d="M15.741,9.745c-1.868,0.458-2.418,0.784-3.038,2.95C13.492,11.108,14.089,10.524,15.741,9.745z"/>
	<path fill="#3D6480" d="M14.255,9.88c-0.942,0.227-1.122,0.401-1.404,1.325C13.302,10.528,13.562,10.308,14.255,9.88z"/>
	<path fill="#3D6480" d="M34.08,15.503c-0.257-0.492-1.42-1.116-1.93-0.6c-0.384,0.389-0.648,0.982-1.062,1.337
		c-0.321,0.274-0.72,0.409-1.067,0.553c-0.271-0.729-0.658-1.294-1.133-1.86c-0.378-0.449-0.734-0.674-1.232-0.985
		c-0.984-0.616-1.748-1.395-2.644-2.133c-2.71-2.234-5.037-2.166-8.413-0.745c-1.611,0.678-2.389,1.599-3.377,2.92
		c-0.597,0.031-1.007,0.147-1.639,0.704c-0.466,0.411-0.899,0.834-1.329,1.274l-0.755,0.826c-0.614,0.688-1.222,1.414-1.884,2.193
		c-0.671,0.79-1.069,1.587-1.495,2.45c-0.588,1.192-0.575,1.646,0.204,2.692c0.673,0.902,1.035,1.309,1.328,2.191
		c-0.242,0.499-0.33,0.921-0.411,1.603c0.822,0.899,1.434,1.516,2.232,1.706c0.783,0.186,1.438,0.149,2.139-0.208
		c1.557-0.797,2.997-1.824,4.754-1.866c0.221-0.543,0.371-1.06,0.471-1.566c0.27-1.357,0.153-2.626-0.131-4.033
		c-0.266-1.319-0.373-2.569-0.456-3.915c-0.329,1.386-0.392,2.604-0.147,3.984c0.295,1.664,0.524,3.502-0.295,4.964
		c-1.588,0.121-2.949,1.087-4.381,1.828c-0.575,0.299-1.174,0.327-1.811,0.152c-0.591-0.162-0.99-0.553-1.627-1.287
		c-0.01-0.738,0.156-1.078,0.495-1.746c0.544-1.072,1.145-2.07,1.804-3.125c-0.807,0.974-1.571,1.787-2.207,2.767
		c-0.242-0.691-0.59-1.043-1.164-1.821c-0.563-0.761-0.621-1.094-0.201-1.975c0.423-0.884,0.78-1.661,1.499-2.438
		c1.242-1.341,2.379-2.833,3.737-4.154c0.738-0.717,1.037-0.691,2.015-0.84c0.884-0.135,1.747-0.304,2.648-0.513
		c-0.871,0.081-1.715,0.111-2.59,0.133c0.835-1.066,1.32-1.661,2.677-2.25c3.339-1.45,5.46-1.607,8.084,0.598
		c0.68,0.571,1.273,1.126,1.963,1.619c-0.25,0.021-0.466,0.066-0.75,0.178c0.347-0.065,0.747,0,1.107,0.065
		c0.101,0.065,0.205,0.13,0.31,0.192c0.487,0.287,0.764,0.445,1.093,0.903c0.348,0.484,0.639,0.969,0.894,1.503
		c-0.168-0.06-0.309-0.11-0.434-0.147c-0.092-0.043-0.192-0.07-0.299-0.081c-0.21-0.02-0.412,0.032-0.6,0.145
		c-0.27,0.132-0.687,0.28-0.964,0.326c0.141,0.049,0.456,0.067,0.604,0.009c0.021-0.008,0.04-0.015,0.062-0.02
		c-0.067,0.114-0.111,0.244-0.125,0.384c-0.018,0.186,0.02,0.363,0.1,0.518c-0.028-0.067-0.044-0.142-0.038-0.206
		c0.016-0.158,0.12-0.285,0.26-0.33c0.047-0.015,0.097-0.021,0.15-0.015l0,0l0,0c0.053,0.005,0.102,0.021,0.146,0.044
		c0.043,0.024,0.082,0.056,0.113,0.094c0.063,0.076,0.097,0.175,0.087,0.28c-0.005,0.045-0.017,0.087-0.035,0.126
		c-0.192,0.032-0.385,0.089-0.583,0.162c-0.128,0.047-0.258,0.101-0.393,0.159c0.623-0.095,1.184-0.111,1.791-0.031
		c0.04,0.191,0.081,0.394,0.118,0.601l-0.244,0.02c-0.287-0.23-0.607-0.191-1.045-0.092c-1.33,0.304-1.018,1.05-1.63,2.175
		c0.636-0.777,0.589-1.59,1.624-1.835c0.241-0.057,0.405-0.129,0.569-0.104c-0.294,0.147-0.549,0.393-0.649,0.677
		c-0.284,0.803-0.108,1.479-0.42,2.229c0.387-0.67,0.411-1.324,0.756-2.029c0.124-0.253,0.585-0.658,0.868-0.664l0.232-0.005
		c0.069,0.445,0.11,0.889,0.084,1.256c-0.049,0.67-0.223,1.666-0.327,2.046c0.351-0.45,0.51-1.403,0.664-2.075
		c0.16-0.699,0.12-1.538-0.021-2.289c-0.192-1.03,0.869-0.863,1.484-1.349c0.453-0.357,0.765-0.927,1.181-1.331
		c0.412-0.4,1.061,0.188,1.222,0.579c0.703,1.7,1.022,4.374,0.837,6.087c-0.208,1.923-1.137,4.021-2.832,4.968
		c-2.161,1.206-4.71,0.47-6.857-0.255c-0.459-0.153-0.777-0.379-1.18-0.633c0.109,0.494,0.159,1.017,0.013,1.51
		c-0.231,0.783-0.605,2.063,0.457,2.3c0.404,0.09,0.588,0.077,1.159-0.217c-0.462,0.104-0.695,0.078-1.013,0.02
		c-0.288-0.053-0.439-0.236-0.521-0.451c0.101,0.072,0.266,0.111,0.545,0.18c0.788,0.189,1.539-0.189,1.686-0.736
		c0.086-0.319,0.071-0.486,0.253-0.922c0.163,0.051,0.331,0.097,0.504,0.139l-0.293,0.954c-0.253,0.826-1.239,1.492-2.11,1.477
		c-0.806-0.014-1.315-0.519-1.871-1.013l-1.117-0.99c-1.002-0.315-1.805-0.686-2.735-1.374l0,0c0.645,0.758,1.088,1.186,1.965,1.565
		l0.573,0.221l0.075,0.11l0.949,0.915c0.652,0.628,1.192,1.142,2.187,1.095c1.036-0.049,2.223-0.865,2.526-1.863l0.303-1
		c1.563,0.296,3.389,0.228,4.749-0.498c2-1.067,2.937-3.215,3.167-5.485C35.315,20.269,34.956,17.18,34.08,15.503z M29.442,17.118
		c-0.047-0.113-0.118-0.216-0.205-0.301l0.18-0.006l0.109,0.238C29.497,17.071,29.468,17.094,29.442,17.118z"/>
	<path fill="#3D6480" d="M22.751,26.324c-0.042,0.266-0.1,0.596-0.143,0.862c0.113-0.302,0.248-0.651,0.379-0.938
		c0.14-0.304,0.218-0.332,0.512-0.493c0.209-0.113,0.588-0.27,0.797-0.383c-0.215,0.036-0.6,0.115-0.814,0.151
		C22.907,25.621,22.839,25.759,22.751,26.324z"/>
	<path fill="#3D6480" d="M21.69,15.25c-1.816,0.455-2.157,1.218-1.924,2.391C19.965,16.759,20.32,15.908,21.69,15.25z"/>
	<path fill="#3D6480" d="M12.948,16.436c-0.666,0.658-1.313,2.918-1.521,3.821c0.326-0.751,1.141-2.851,1.766-3.385
		c0.173-0.148,0.294-0.239,0.423-0.305c-0.447,0.75-0.414,0.938-0.257,1.942c0.133-1.022,0.486-1.417,1.066-2.18
		c0.636-0.159,1.23-0.351,1.883-0.604c-0.735,0.083-1.47,0.159-2.206,0.229C13.485,16.013,13.385,16.003,12.948,16.436z"/>
	<path fill="#3D6480" d="M31.326,17.702c1.075-0.384,1.594-1.248,1.852-2.267c-0.421,0.854-1.071,1.566-1.954,2.004
		c-0.474,0.234-0.775,0.152-1.305,0.103C30.457,17.696,30.797,17.891,31.326,17.702z"/>
	<path fill="#3D6480" d="M20.726,19.689c0.33-0.128,0.647-0.35,0.939-0.583c0.001,0.174,0.039,0.35,0.118,0.516
		c0.082,0.172,0.199,0.315,0.339,0.428c-0.041-0.041-0.076-0.089-0.101-0.144c-0.061-0.127-0.064-0.267-0.021-0.39
		s0.134-0.23,0.261-0.291c0.255-0.122,0.562-0.013,0.683,0.241c0.003,0.006,0.005,0.014,0.008,0.021
		c0.007,0.017,0.015,0.035,0.021,0.053c-0.181,0.135-0.334,0.306-0.487,0.477c-0.052,0.058-0.118,0.1-0.166,0.162
		c-0.164,0.216-0.299,0.457-0.397,0.725c0.866-1.026,2.123-1.801,3.304-2.133c-0.33-0.005-0.722,0.057-1.119,0.188
		c-0.015-0.132-0.051-0.265-0.111-0.392c-0.143-0.3-0.395-0.516-0.685-0.622c0.263-0.141,0.522-0.289,0.725-0.473
		c-0.592,0.274-1.282,0.207-1.79,0.551C21.799,18.324,21.181,19.283,20.726,19.689z"/>
	<path fill="#FFFFCD" d="M22.973,19.54c-0.006-0.018-0.013-0.035-0.021-0.053c-0.003-0.007-0.004-0.014-0.008-0.021
		c-0.121-0.254-0.428-0.363-0.683-0.241c-0.127,0.061-0.218,0.167-0.261,0.291s-0.04,0.263,0.021,0.39
		c0.025,0.056,0.061,0.104,0.103,0.146c0.056,0.056,0.123,0.099,0.195,0.128c0,0,0.001,0,0.001-0.001
		c0.048-0.062,0.114-0.104,0.166-0.162C22.639,19.846,22.793,19.675,22.973,19.54z"/>
	<path fill="#FFFFCD" d="M27.846,18.067c0.198-0.073,0.391-0.13,0.583-0.162c0.019-0.039,0.03-0.081,0.035-0.126
		c0.01-0.105-0.024-0.204-0.087-0.28c-0.031-0.038-0.07-0.07-0.113-0.094c-0.044-0.024-0.093-0.039-0.146-0.044l0,0
		c-0.053-0.005-0.103,0-0.15,0.015c-0.14,0.044-0.245,0.171-0.26,0.33c-0.006,0.064,0.01,0.138,0.038,0.206
		C27.772,17.972,27.807,18.027,27.846,18.067z"/>
	<polygon fill="#3D6480" points="4.784,12.136 11.173,12.135 11.173,5.808 9.273,5.808 9.273,8.891 4.047,3.666 2.704,5.01 
		7.929,10.235 4.784,10.235 	"/>
</g>
</svg>
