<?xml version="1.0" encoding="utf-8"?>
<!-- Generator: Adobe Illustrator 17.0.0, SVG Export Plug-In . SVG Version: 6.00 Build 0)  -->
<!DOCTYPE svg PUBLIC "-//W3C//DTD SVG 1.1//EN" "http://www.w3.org/Graphics/SVG/1.1/DTD/svg11.dtd">
<svg version="1.1" id="Layer_1" xmlns="http://www.w3.org/2000/svg" xmlns:xlink="http://www.w3.org/1999/xlink" x="0px" y="0px"
	 width="42px" height="42px" viewBox="0 0 42 42" enable-background="new 0 0 42 42" xml:space="preserve">
<g>
	<path fill="#3D6480" d="M29.278,37.145v2.566h-1.05v-6.426h1.814c0.829,0,1.443,0.156,1.842,0.467s0.598,0.779,0.598,1.406
		c0,0.799-0.416,1.369-1.248,1.709l1.814,2.844h-1.195l-1.538-2.566H29.278z M29.278,36.273h0.729c0.489,0,0.844-0.09,1.063-0.271
		s0.33-0.451,0.33-0.809c0-0.363-0.119-0.625-0.356-0.783s-0.595-0.236-1.072-0.236h-0.694V36.273z"/>
</g>
<g>
	<path fill="none" d="M31.045,34.41c-0.237-0.158-0.595-0.236-1.072-0.236h-0.694v2.1h0.729c0.489,0,0.844-0.09,1.063-0.271
		s0.33-0.451,0.33-0.809C31.401,34.83,31.282,34.568,31.045,34.41z"/>
	<polygon fill="#3D6480" points="27.456,13.353 22.83,13.353 30.936,5.247 29.734,4.046 21.628,12.151 21.628,7.525 19.928,7.525 
		19.928,15.053 27.456,15.053 	"/>
	<polygon fill="#3D6480" points="7.71,21.811 12.336,21.811 4.23,29.917 5.432,31.118 13.538,23.013 13.538,27.639 15.238,27.639 
		15.238,20.111 7.71,20.111 	"/>
	<polygon fill="#3D6480" points="13.538,12.151 5.432,4.046 4.23,5.247 12.336,13.353 7.71,13.353 7.71,15.053 15.238,15.053 
		15.238,7.525 13.538,7.525 	"/>
	<path fill="#F2F100" d="M34.291,21.201c0.065,0.064,0.118,0.143,0.154,0.229c0.021-0.02,0.042-0.037,0.064-0.053l-0.083-0.18
		L34.291,21.201z"/>
	<path fill="#F2F100" d="M28.335,29.982l0.846,0.75c0.42,0.373,0.807,0.756,1.416,0.766c0.66,0.012,1.406-0.492,1.598-1.117
		l0.222-0.723c-0.131-0.031-0.259-0.066-0.382-0.105c-0.137,0.33-0.126,0.457-0.191,0.699c-0.11,0.412-0.679,0.699-1.275,0.557
		c-0.211-0.051-0.336-0.082-0.412-0.137c0.061,0.164,0.176,0.303,0.395,0.342c0.24,0.045,0.416,0.064,0.766-0.016
		c-0.432,0.223-0.57,0.232-0.877,0.166c-0.804-0.18-0.521-1.148-0.346-1.74c0.111-0.375,0.073-0.77-0.01-1.145
		c0.305,0.193,0.547,0.363,0.893,0.48c1.626,0.547,3.555,1.105,5.19,0.191c1.283-0.715,1.985-2.305,2.144-3.76
		c0.141-1.295-0.102-3.32-0.633-4.605c-0.123-0.297-0.613-0.742-0.926-0.439c-0.314,0.307-0.551,0.738-0.893,1.008
		c-0.467,0.367-1.27,0.24-1.124,1.021c0.106,0.568,0.137,1.203,0.016,1.732c-0.116,0.508-0.237,1.229-0.503,1.57
		c0.079-0.289,0.211-1.041,0.248-1.549c0.02-0.277-0.012-0.613-0.063-0.951l-0.177,0.004c-0.214,0.006-0.563,0.313-0.656,0.504
		c-0.262,0.533-0.279,1.027-0.572,1.535c0.236-0.566,0.103-1.078,0.318-1.686c0.076-0.217,0.268-0.402,0.49-0.514
		c-0.123-0.018-0.248,0.035-0.43,0.078c-0.784,0.186-0.748,0.801-1.229,1.389c0.463-0.852,0.226-1.416,1.232-1.645
		c0.331-0.076,0.574-0.105,0.791,0.068l0.185-0.014c-0.028-0.156-0.06-0.311-0.089-0.455c-0.46-0.061-0.885-0.049-1.355,0.023
		c0.102-0.045,0.2-0.084,0.297-0.121c-0.029-0.029-0.057-0.072-0.076-0.117c-0.061-0.117-0.088-0.252-0.074-0.391
		c0.01-0.107,0.043-0.205,0.094-0.291c-0.016,0.004-0.031,0.008-0.047,0.014c-0.111,0.045-0.351,0.031-0.458-0.006
		c0.212-0.035,0.526-0.146,0.73-0.246c0.142-0.086,0.295-0.125,0.454-0.109c0.08,0.008,0.156,0.029,0.227,0.061
		c0.094,0.027,0.201,0.066,0.327,0.111c-0.193-0.404-0.413-0.77-0.677-1.137c-0.248-0.348-0.457-0.467-0.826-0.684
		c-0.08-0.047-0.158-0.096-0.235-0.146c-0.272-0.049-0.575-0.098-0.837-0.049c0.215-0.084,0.378-0.117,0.567-0.135
		c-0.522-0.373-0.972-0.793-1.485-1.225c-1.986-1.67-3.592-1.551-6.118-0.453c-1.026,0.445-1.394,0.896-2.025,1.703
		c0.662-0.016,1.3-0.039,1.96-0.102c-0.683,0.16-1.336,0.287-2.004,0.389c-0.74,0.113-0.967,0.094-1.525,0.637
		c-1.027,0.998-1.889,2.129-2.828,3.143c-0.544,0.588-0.814,1.176-1.135,1.846c-0.317,0.666-0.273,0.918,0.152,1.494
		c0.435,0.59,0.697,0.855,0.881,1.379c0.48-0.742,1.06-1.357,1.67-2.094c-0.498,0.797-0.953,1.553-1.365,2.365
		c-0.256,0.504-0.381,0.762-0.374,1.32c0.481,0.557,0.784,0.852,1.231,0.975c0.481,0.133,0.935,0.109,1.37-0.115
		c1.083-0.561,2.113-1.293,3.315-1.385c0.62-1.105,0.446-2.496,0.224-3.756c-0.185-1.045-0.138-1.967,0.11-3.016
		c0.063,1.02,0.145,1.965,0.346,2.963c0.215,1.066,0.303,2.026,0.099,3.053c0,0,0,0,0,0c0.127,0.028,0.312,0.088,0.531,0.199
		c0.025,0.013,0.052,0.029,0.077,0.043c0.084,0.046,0.174,0.102,0.267,0.166c0.033,0.022,0.066,0.045,0.099,0.07
		c0.123,0.09,0.25,0.193,0.384,0.319c0.001,0.001,0.002,0.001,0.003,0.002c0,0,0,0,0,0C26.971,29.463,27.578,29.742,28.335,29.982z
		 M34.806,21.75c0.4,0.037,0.629,0.1,0.987-0.078c0.668-0.33,1.159-0.871,1.479-1.516c-0.194,0.77-0.587,1.424-1.401,1.715
		C35.47,22.014,35.212,21.867,34.806,21.75z M29.947,27.967c-0.223,0.121-0.281,0.143-0.387,0.373
		c-0.1,0.217-0.201,0.48-0.287,0.709c0.032-0.201,0.076-0.451,0.107-0.652c0.068-0.428,0.119-0.533,0.553-0.605
		c0.163-0.027,0.455-0.088,0.617-0.115C30.392,27.762,30.105,27.881,29.947,27.967z M29,22.113c0.385-0.26,0.906-0.209,1.355-0.416
		c-0.153,0.139-0.35,0.25-0.549,0.357c0.219,0.08,0.41,0.242,0.518,0.471c0.047,0.096,0.074,0.195,0.084,0.297
		c0.302-0.1,0.598-0.146,0.848-0.143c-0.894,0.25-1.845,0.838-2.5,1.613c0.074-0.201,0.176-0.385,0.301-0.547
		c-0.055-0.023-0.106-0.055-0.148-0.098c-0.032-0.031-0.059-0.068-0.079-0.109c0.021,0.041,0.046,0.078,0.077,0.107
		c-0.105-0.084-0.194-0.193-0.256-0.322c-0.061-0.127-0.09-0.26-0.09-0.391c-0.221,0.178-0.461,0.344-0.711,0.441
		C28.193,23.066,28.662,22.342,29,22.113z M28.579,20.016c-1.038,0.498-1.306,1.141-1.456,1.809
		C26.946,20.937,27.204,20.359,28.579,20.016z M23.081,20.549c-0.438,0.578-0.706,0.875-0.808,1.648
		c-0.119-0.76-0.144-0.9,0.195-1.469c-0.098,0.049-0.189,0.119-0.32,0.23c-0.473,0.404-1.09,1.994-1.336,2.563
		c0.156-0.686,0.646-2.395,1.15-2.893c0.331-0.328,0.406-0.32,0.874-0.365c0.557-0.053,1.112-0.109,1.669-0.172
		C24.011,20.283,23.562,20.428,23.081,20.549z"/>
	<path fill="#3D6480" d="M21.889,16.953c0.341-0.512,0.538-0.678,1.063-1.002C22.239,16.123,22.103,16.254,21.889,16.953z"/>
	<path fill="#3D6480" d="M37.955,20.207c-0.194-0.373-1.074-0.846-1.46-0.455c-0.29,0.295-0.491,0.744-0.804,1.012
		c-0.244,0.209-0.545,0.311-0.809,0.42c-0.205-0.553-0.498-0.98-0.857-1.408c-0.285-0.34-0.555-0.51-0.932-0.746
		c-0.745-0.467-1.323-1.055-2.001-1.615c-2.052-1.689-3.813-1.639-6.368-0.563c-1.219,0.514-1.807,1.209-2.555,2.209
		c-0.452,0.023-0.762,0.111-1.24,0.533c-0.189,0.167-0.361,0.345-0.54,0.518h-0.461v0.442c-0.002,0.002-0.004,0.003-0.005,0.005
		l-0.571,0.625c-0.465,0.52-0.925,1.07-1.426,1.66c-0.507,0.598-0.81,1.201-1.132,1.854c-0.444,0.902-0.436,1.246,0.154,2.039
		c0.51,0.682,0.783,0.99,1.006,1.658c-0.184,0.377-0.25,0.697-0.312,1.213c0.622,0.68,1.085,1.146,1.689,1.291
		c0.593,0.141,1.089,0.113,1.618-0.158c1.179-0.604,2.27-1.381,3.598-1.412c0.083-0.204,0.152-0.403,0.211-0.599
		c0.003-0.008,0.004-0.017,0.007-0.025c0.057-0.189,0.102-0.375,0.139-0.56c0,0,0-0.001,0-0.001
		c0.204-1.027,0.116-1.988-0.099-3.053c-0.201-0.998-0.282-1.943-0.346-2.963c-0.248,1.049-0.295,1.971-0.11,3.016
		c0.223,1.26,0.396,2.65-0.224,3.756c-1.202,0.092-2.232,0.824-3.315,1.385c-0.436,0.225-0.889,0.248-1.37,0.115
		c-0.447-0.123-0.75-0.418-1.231-0.975c-0.007-0.559,0.118-0.816,0.374-1.32c0.412-0.813,0.867-1.568,1.365-2.365
		c-0.61,0.736-1.189,1.352-1.67,2.094c-0.184-0.523-0.446-0.789-0.881-1.379c-0.426-0.576-0.47-0.828-0.152-1.494
		c0.32-0.67,0.591-1.258,1.135-1.846c0.939-1.014,1.801-2.145,2.828-3.143c0.559-0.543,0.785-0.523,1.525-0.637
		c0.668-0.102,1.321-0.229,2.004-0.389c-0.66,0.063-1.298,0.086-1.96,0.102c0.632-0.807,0.999-1.258,2.025-1.703
		c2.526-1.098,4.132-1.217,6.118,0.453c0.514,0.432,0.963,0.852,1.485,1.225c-0.189,0.018-0.353,0.051-0.567,0.135
		c0.262-0.049,0.564,0,0.837,0.049c0.077,0.051,0.155,0.1,0.235,0.146c0.369,0.217,0.578,0.336,0.826,0.684
		c0.264,0.367,0.483,0.732,0.677,1.137c-0.126-0.045-0.233-0.084-0.327-0.111c-0.07-0.031-0.146-0.053-0.227-0.061
		c-0.159-0.016-0.313,0.023-0.454,0.109c-0.204,0.1-0.519,0.211-0.73,0.246c0.107,0.037,0.347,0.051,0.458,0.006
		c0.016-0.006,0.031-0.01,0.047-0.014c-0.051,0.086-0.084,0.184-0.094,0.291c-0.014,0.139,0.014,0.273,0.074,0.391
		c-0.011-0.025-0.009-0.052-0.014-0.078s-0.017-0.054-0.014-0.078c0.016-0.158,0.151-0.275,0.311-0.26
		c0.08,0.008,0.149,0.047,0.196,0.104s0.073,0.132,0.065,0.212c-0.003,0.033-0.012,0.064-0.025,0.094
		c-0.041,0.007-0.082,0.025-0.123,0.034c-0.105,0.025-0.21,0.049-0.318,0.089c-0.097,0.037-0.195,0.076-0.297,0.121
		c0.471-0.072,0.896-0.084,1.355-0.023c0.029,0.145,0.061,0.299,0.089,0.455l-0.185,0.014c-0.217-0.174-0.46-0.145-0.791-0.068
		c-1.007,0.229-0.77,0.793-1.232,1.645c0.48-0.588,0.444-1.203,1.229-1.389c0.182-0.043,0.307-0.096,0.43-0.078
		c-0.223,0.111-0.414,0.297-0.49,0.514c-0.216,0.607-0.082,1.119-0.318,1.686c0.293-0.508,0.311-1.002,0.572-1.535
		c0.094-0.191,0.442-0.498,0.656-0.504l0.177-0.004c0.052,0.338,0.083,0.674,0.063,0.951c-0.037,0.508-0.169,1.26-0.248,1.549
		c0.266-0.342,0.387-1.063,0.503-1.57c0.121-0.529,0.091-1.164-0.016-1.732c-0.146-0.781,0.657-0.654,1.124-1.021
		c0.342-0.27,0.578-0.701,0.893-1.008c0.313-0.303,0.803,0.143,0.926,0.439c0.531,1.285,0.773,3.311,0.633,4.605
		c-0.158,1.455-0.86,3.045-2.144,3.76c-1.636,0.914-3.564,0.355-5.19-0.191c-0.346-0.117-0.588-0.287-0.893-0.48
		c0.083,0.375,0.121,0.77,0.01,1.145c-0.175,0.592-0.458,1.561,0.346,1.74c0.307,0.066,0.445,0.057,0.877-0.166
		c-0.35,0.08-0.525,0.061-0.766,0.016c-0.219-0.039-0.334-0.178-0.395-0.342c0.076,0.055,0.201,0.086,0.412,0.137
		c0.597,0.143,1.165-0.145,1.275-0.557c0.065-0.242,0.055-0.369,0.191-0.699c0.123,0.039,0.251,0.074,0.382,0.105l-0.222,0.723
		c-0.191,0.625-0.937,1.129-1.598,1.117c-0.609-0.01-0.996-0.393-1.416-0.766l-0.846-0.75c-0.757-0.24-1.364-0.519-2.068-1.04
		c0,0,0,0,0,0c0,0-0.001-0.001-0.001-0.001c0.488,0.574,0.824,0.898,1.487,1.186l0.435,0.168l0.057,0.082l0.719,0.693
		c0.494,0.475,0.902,0.863,1.654,0.828c0.784-0.037,1.682-0.654,1.912-1.41l0.229-0.758c1.184,0.225,2.564,0.174,3.594-0.375
		c1.515-0.809,2.224-2.434,2.397-4.152C38.889,23.812,38.619,21.475,37.955,20.207z M34.445,21.43
		c-0.036-0.086-0.089-0.164-0.154-0.229l0.136-0.004l0.083,0.18C34.487,21.393,34.465,21.41,34.445,21.43z"/>
	<path fill="#3D6480" d="M24.077,15.85c-1.415,0.346-1.83,0.592-2.3,2.232C22.375,16.881,22.826,16.439,24.077,15.85z"/>
	<path fill="#3D6480" d="M28.56,22.934c0,0.131,0.029,0.264,0.09,0.391c0.062,0.129,0.15,0.238,0.256,0.322
		c-0.031-0.029-0.057-0.066-0.077-0.107c-0.023-0.048-0.035-0.098-0.037-0.148c-0.003-0.069,0.019-0.134,0.05-0.194
		c0.037-0.072,0.091-0.136,0.169-0.173c0.048-0.023,0.099-0.035,0.149-0.037c0.006,0,0.013,0.003,0.019,0.003
		c0.144,0.001,0.283,0.079,0.349,0.216c0.008,0.02,0.016,0.039,0.021,0.057c-0.184,0.137-0.353,0.297-0.493,0.484
		c-0.125,0.162-0.227,0.346-0.301,0.547c0.655-0.775,1.606-1.363,2.5-1.613c-0.25-0.004-0.546,0.043-0.848,0.143
		c-0.01-0.102-0.037-0.201-0.084-0.297c-0.107-0.229-0.299-0.391-0.518-0.471c0.199-0.107,0.396-0.219,0.549-0.357
		c-0.449,0.207-0.971,0.156-1.355,0.416c-0.338,0.229-0.807,0.953-1.15,1.262C28.099,23.277,28.339,23.111,28.56,22.934z"/>
	<path fill="#3D6480" d="M35.871,21.871c0.814-0.291,1.207-0.945,1.401-1.715c-0.319,0.645-0.811,1.186-1.479,1.516
		c-0.358,0.178-0.587,0.115-0.987,0.078C35.212,21.867,35.47,22.014,35.871,21.871z"/>
	<path fill="#3D6480" d="M29.38,28.396c-0.031,0.201-0.075,0.451-0.107,0.652c0.086-0.229,0.188-0.492,0.287-0.709
		c0.105-0.23,0.164-0.252,0.387-0.373c0.158-0.086,0.445-0.205,0.604-0.291c-0.162,0.027-0.454,0.088-0.617,0.115
		C29.5,27.863,29.449,27.969,29.38,28.396z"/>
	<path fill="#3D6480" d="M21.962,20.629c-0.504,0.498-0.994,2.207-1.15,2.893c0.246-0.568,0.863-2.158,1.336-2.563
		c0.131-0.111,0.223-0.182,0.32-0.23c-0.339,0.568-0.314,0.709-0.195,1.469c0.102-0.773,0.369-1.07,0.808-1.648
		c0.481-0.121,0.931-0.266,1.425-0.457c-0.557,0.063-1.112,0.119-1.669,0.172C22.369,20.309,22.294,20.301,21.962,20.629z"/>
	<path fill="#3D6480" d="M28.579,20.016c-1.375,0.344-1.633,0.922-1.456,1.809C27.273,21.156,27.541,20.514,28.579,20.016z"/>
	<path fill="#FFFFCD" d="M29.529,23.205c-0.067-0.137-0.205-0.215-0.349-0.216c-0.006,0-0.013-0.003-0.019-0.003
		c-0.05,0.002-0.101,0.014-0.149,0.037c-0.078,0.037-0.132,0.101-0.169,0.173c-0.031,0.06-0.053,0.125-0.05,0.194
		c0.002,0.05,0.014,0.101,0.037,0.148c0.021,0.041,0.047,0.078,0.079,0.109c0.042,0.043,0.094,0.074,0.148,0.098
		c0.141-0.188,0.31-0.348,0.493-0.484C29.544,23.244,29.537,23.225,29.529,23.205z"/>
	<path fill="#FFFFCD" d="M33.556,22.058c0.041-0.01,0.082-0.027,0.123-0.034c0.014-0.029,0.022-0.061,0.025-0.094
		c0.008-0.08-0.018-0.155-0.065-0.212s-0.116-0.096-0.196-0.104c-0.159-0.016-0.295,0.102-0.311,0.26
		c-0.002,0.024,0.009,0.052,0.014,0.078s0.003,0.053,0.014,0.078c0.02,0.045,0.047,0.088,0.076,0.117
		C33.346,22.107,33.451,22.083,33.556,22.058z"/>
	<path fill="#3D6480" d="M32.482,35.158c0-0.627-0.199-1.096-0.598-1.406c-0.398-0.311-1.012-0.467-1.841-0.467h-1.815v6.426h1.05
		v-2.566h1.037l1.538,2.566h1.195l-1.815-2.844C32.066,36.527,32.482,35.957,32.482,35.158z M30.008,36.273h-0.729v-2.1h0.694
		c0.478,0,0.835,0.078,1.072,0.236s0.356,0.42,0.356,0.783c0,0.357-0.11,0.627-0.33,0.809S30.497,36.273,30.008,36.273z"/>
</g>
</svg>
