<?xml version="1.0" encoding="utf-8"?>
<!-- Generator: Adobe Illustrator 17.0.0, SVG Export Plug-In . SVG Version: 6.00 Build 0)  -->
<!DOCTYPE svg PUBLIC "-//W3C//DTD SVG 1.1//EN" "http://www.w3.org/Graphics/SVG/1.1/DTD/svg11.dtd">
<svg version="1.1" id="Layer_1" xmlns="http://www.w3.org/2000/svg" xmlns:xlink="http://www.w3.org/1999/xlink" x="0px" y="0px"
	 width="42px" height="42px" viewBox="0 0 42 42" enable-background="new 0 0 42 42" xml:space="preserve">
<g>
	<polygon fill="#3D6480" points="36.947,32.836 36.947,35.919 31.722,30.694 30.378,32.037 35.604,37.263 32.458,37.264 
		32.458,39.164 38.848,39.163 38.848,32.836 	"/>
	<path fill="#FDE7EA" d="M31.982,10.051h-22.3v22.301h14.441l7.859-7.859V10.051z M25.029,15.383l-3.948,12.198h-1.667l3.626-10.948
		h-3.585c-0.564,0-0.919,0.095-1.114,0.24c-0.216,0.164-0.516,0.531-0.902,1.14l-0.107,0.169l-0.696-0.318l0.798-1.967l0.425-1.075
		h7.172V15.383z"/>
	<polygon fill="#3D6480" points="9.682,10.051 31.982,10.051 31.982,24.493 33.682,22.793 33.682,8.352 7.982,8.352 7.982,34.051 
		22.424,34.051 24.123,32.352 9.682,32.352 	"/>
	<path fill="#FDE7EA" d="M17.433,15.897l-0.798,1.967l0.696,0.318l0.107-0.169c0.387-0.608,0.687-0.976,0.902-1.14
		c0.195-0.146,0.55-0.24,1.114-0.24h3.585l-3.626,10.948h1.667l3.948-12.198v-0.562h-7.172L17.433,15.897z"/>
	<path fill="#3D6480" d="M17.433,15.897l-0.798,1.967l0.696,0.318l0.107-0.169c0.387-0.608,0.687-0.976,0.902-1.14
		c0.195-0.146,0.55-0.24,1.114-0.24h3.585l-3.626,10.948h1.667l3.948-12.198v-0.562h-7.172L17.433,15.897z"/>
</g>
</svg>
