<?xml version="1.0" encoding="utf-8"?>
<!-- Generator: Adobe Illustrator 17.0.0, SVG Export Plug-In . SVG Version: 6.00 Build 0)  -->
<!DOCTYPE svg PUBLIC "-//W3C//DTD SVG 1.1//EN" "http://www.w3.org/Graphics/SVG/1.1/DTD/svg11.dtd">
<svg version="1.1" id="Layer_1" xmlns="http://www.w3.org/2000/svg" xmlns:xlink="http://www.w3.org/1999/xlink" x="0px" y="0px"
	 width="42px" height="42px" viewBox="0 0 42 42" enable-background="new 0 0 42 42" xml:space="preserve">
<path fill-rule="evenodd" clip-rule="evenodd" fill="#3D6480" d="M17.337,12.667v0.387l-5.086,15.715h-1.547l4.746-14.332h-5.109
	c-0.758,0-1.305,0.126-1.641,0.375c-0.328,0.251-0.746,0.774-1.254,1.57l-0.41-0.188c0.508-1.249,0.82-2.019,0.938-2.309
	c0.125-0.296,0.285-0.702,0.48-1.219H17.337z"/>
<g>
	<path fill-rule="evenodd" clip-rule="evenodd" fill="#3D6480" d="M20.71,21.209h-1.538l-2.981,8.825h1.152l0.717-2.12h3.75
		l0.728,2.12h1.152L20.71,21.209z M21.518,26.921h-3.153l1.576-4.891L21.518,26.921z"/>
	<path fill-rule="evenodd" clip-rule="evenodd" fill="#3D6480" d="M26.13,23.74c0-1.233,0.477-1.631,1.921-1.631
		c0.53,0,1.392,0.066,2.067,0.187l0.119-0.981c-0.637-0.146-1.563-0.238-2.227-0.238c-2.16,0-3.021,0.928-3.021,2.598v3.896
		c0,1.67,0.861,2.598,3.021,2.598c0.663,0,1.59-0.093,2.227-0.238l-0.119-0.98c-0.676,0.119-1.537,0.186-2.067,0.186
		c-1.444,0-1.921-0.398-1.921-1.63V23.74z"/>
	<path fill-rule="evenodd" clip-rule="evenodd" fill="#3D6480" d="M33.166,21.209h-1.14v8.825h1.14V21.209z M37.964,21.209h-1.339
		l-3.181,4.333l3.419,4.492h1.364l-3.498-4.492L37.964,21.209z"/>
</g>
</svg>
