<?xml version="1.0" encoding="utf-8"?>
<!-- Generator: Adobe Illustrator 17.0.0, SVG Export Plug-In . SVG Version: 6.00 Build 0)  -->
<!DOCTYPE svg PUBLIC "-//W3C//DTD SVG 1.1//EN" "http://www.w3.org/Graphics/SVG/1.1/DTD/svg11.dtd">
<svg version="1.1" id="Layer_1" xmlns="http://www.w3.org/2000/svg" xmlns:xlink="http://www.w3.org/1999/xlink" x="0px" y="0px"
	 width="42px" height="42px" viewBox="0 0 42 42" enable-background="new 0 0 42 42" xml:space="preserve">
<g>
	<path fill="#3D6480" d="M11.53,10.9c-0.117,0.29-0.43,1.06-0.938,2.309l0.41,0.188c0.508-0.797,0.926-1.319,1.254-1.57
		c0.336-0.249,0.883-0.375,1.641-0.375h5.109l-4.746,14.332h1.547l5.086-15.715V9.681h-8.883
		C11.815,10.198,11.655,10.604,11.53,10.9z"/>
	<rect x="21.455" y="18.223" fill="#3D6480" width="1.14" height="8.825"/>
	<polygon fill="#3D6480" points="31.407,18.223 30.321,18.223 30.321,25.777 26.478,18.223 24.914,18.223 24.914,27.048 
		26.001,27.048 26.001,19.535 29.844,27.048 31.407,27.048 	"/>
	<polygon fill="#3D6480" points="37.115,33 37.115,36.083 31.89,30.858 30.546,32.202 35.772,37.427 32.626,37.427 32.626,39.328 
		39.016,39.326 39.016,33 	"/>
</g>
</svg>
