<?xml version="1.0" encoding="utf-8"?>
<!-- Generator: Adobe Illustrator 17.0.0, SVG Export Plug-In . SVG Version: 6.00 Build 0)  -->
<!DOCTYPE svg PUBLIC "-//W3C//DTD SVG 1.1//EN" "http://www.w3.org/Graphics/SVG/1.1/DTD/svg11.dtd">
<svg version="1.1" id="Layer_1" xmlns="http://www.w3.org/2000/svg" xmlns:xlink="http://www.w3.org/1999/xlink" x="0px" y="0px"
	 width="42px" height="42px" viewBox="0 0 42 42" enable-background="new 0 0 42 42" xml:space="preserve">
<g>
	<path fill="none" d="M4.7,3.785H3.778v1.643H4.7c0.519,0,0.641-0.129,0.641-0.492V4.276C5.341,3.908,5.22,3.785,4.7,3.785z"/>
	<path fill="none" d="M8.366,7.103c0.667,0,0.942-0.279,0.942-0.761v-1.87c0-0.481-0.275-0.761-0.942-0.761S7.424,3.99,7.424,4.472
		v1.87C7.424,6.823,7.699,7.103,8.366,7.103z"/>
	<path fill="#3D6480" d="M4.721,3.067H3v4.679h0.778V6.146h0.942c1.011,0,1.398-0.455,1.398-1.21V4.271
		C6.119,3.522,5.73,3.067,4.721,3.067z M5.341,4.936c0,0.363-0.122,0.492-0.641,0.492H3.778V3.785H4.7
		c0.52,0,0.641,0.123,0.641,0.491V4.936z"/>
	<path fill="#3D6480" d="M8.366,7.813c1.207,0,1.721-0.651,1.721-1.458V4.459C10.087,3.651,9.573,3,8.366,3S6.646,3.651,6.646,4.459
		v1.896C6.646,7.162,7.159,7.813,8.366,7.813z M7.424,4.472c0-0.481,0.275-0.761,0.942-0.761S9.309,3.99,9.309,4.472v1.87
		c0,0.481-0.275,0.761-0.942,0.761S7.424,6.823,7.424,6.342V4.472z"/>
	<path fill="#3D6480" d="M12.207,7.103c-0.4,0-0.82-0.065-1.222-0.19l-0.106-0.033L10.747,7.54l0.077,0.031
		c0.397,0.16,0.929,0.242,1.369,0.242c1.284,0,1.56-0.487,1.56-1.324c0-0.928-0.101-1.137-1.327-1.441
		c-0.458-0.115-0.644-0.172-0.729-0.259c-0.036-0.036-0.058-0.082-0.069-0.161c-0.014-0.09-0.013-0.203-0.013-0.352
		c0-0.443,0.069-0.565,0.768-0.565c0.362,0,0.778,0.046,1.128,0.125l0.11,0.025l0.066-0.688l-0.082-0.021
		C13.238,3.055,12.766,3,12.368,3c-1.152,0-1.533,0.409-1.533,1.257c0,0.979,0.165,1.225,1.289,1.477
		c0.474,0.106,0.67,0.168,0.762,0.259c0.039,0.038,0.062,0.086,0.074,0.165c0.015,0.09,0.015,0.201,0.015,0.346
		C12.975,6.947,12.884,7.103,12.207,7.103z"/>
	<polygon fill="#3D6480" points="15.463,7.746 16.241,7.746 16.241,3.785 17.581,3.785 17.581,3.067 14.124,3.067 14.124,3.785 
		15.463,3.785 	"/>
	<path fill="#EFF9FE" d="M19.906,33.34c0.427,0.063,0.859,0.103,1.3,0.118v-4.701c-1.284,0.024-2.55,0.17-3.778,0.435
		C18.062,30.697,18.892,32.092,19.906,33.34z"/>
	<path fill="#EFF9FE" d="M17.118,28.438c1.327-0.296,2.699-0.457,4.088-0.481V22.15h-5.247
		C16.001,24.35,16.394,26.475,17.118,28.438z"/>
	<path fill="#EFF9FE" d="M17.468,14.303c1.218,0.269,2.47,0.419,3.738,0.446v-4.706c-0.417,0.014-0.828,0.051-1.233,0.107
		C18.95,11.409,18.111,12.805,17.468,14.303z"/>
	<path fill="#EFF9FE" d="M15.96,21.35h5.246v-5.8c-1.377-0.028-2.735-0.196-4.055-0.498C16.407,17.026,16.006,19.155,15.96,21.35z"
		/>
	<path fill="#EFF9FE" d="M16.364,14.858c-1.113-0.303-2.195-0.699-3.229-1.193c-1.923,2.015-3.131,4.709-3.232,7.684h5.256
		C15.205,19.091,15.608,16.896,16.364,14.858z"/>
	<path fill="#EFF9FE" d="M18.761,10.387c-1.893,0.475-3.601,1.408-5.004,2.678c0.939,0.429,1.916,0.783,2.922,1.051
		C17.234,12.795,17.922,11.539,18.761,10.387z"/>
	<path fill="#EFF9FE" d="M13.723,30.404c1.394,1.272,3.09,2.209,4.972,2.693c-0.828-1.142-1.507-2.394-2.054-3.717
		C15.632,29.642,14.655,29.983,13.723,30.404z"/>
	<path fill="#EFF9FE" d="M15.158,22.15H9.903c0.101,2.962,1.299,5.645,3.208,7.657c1.026-0.484,2.105-0.877,3.223-1.175
		C15.596,26.605,15.2,24.414,15.158,22.15z"/>
	<circle fill="#EFF9FE" cx="30.292" cy="15.198" r="1.12"/>
	<path fill="#3D6480" d="M22.007,22.15h3.495c0.169,0.888,0.948,1.563,1.884,1.563c1.059,0,1.921-0.862,1.921-1.921
		s-0.862-1.92-1.921-1.92c-0.906,0-1.663,0.632-1.863,1.478h-3.516v-5.787h6.401c0.171,0.885,0.95,1.556,1.884,1.556
		c1.059,0,1.92-0.861,1.92-1.92s-0.861-1.921-1.92-1.921c-0.908,0-1.667,0.636-1.866,1.484h-6.419v-4.739h4.705
		c0.311,0.642,0.963,1.09,1.724,1.09c1.059,0,1.921-0.861,1.921-1.92s-0.862-1.921-1.921-1.921c-0.744,0-1.384,0.431-1.702,1.052
		H21.61c-7.403,0-13.427,6.023-13.427,13.427c0,6.96,5.329,12.672,12.117,13.335l1.707-1.579V22.15z M27.386,20.673
		c0.618,0,1.12,0.502,1.12,1.119c0,0.618-0.502,1.12-1.12,1.12c-0.617,0-1.119-0.502-1.119-1.12
		C26.267,21.175,26.769,20.673,27.386,20.673z M30.292,14.078c0.617,0,1.119,0.502,1.119,1.12c0,0.617-0.502,1.119-1.119,1.119
		c-0.618,0-1.12-0.502-1.12-1.119C29.172,14.58,29.674,14.078,30.292,14.078z M28.436,8.072c0.618,0,1.12,0.502,1.12,1.12
		c0,0.617-0.502,1.119-1.12,1.119c-0.617,0-1.119-0.502-1.119-1.119C27.316,8.574,27.818,8.072,28.436,8.072z M18.761,10.387
		c-0.839,1.152-1.527,2.408-2.083,3.729c-1.006-0.268-1.983-0.622-2.922-1.051C15.161,11.795,16.869,10.862,18.761,10.387z
		 M13.136,13.665c1.033,0.494,2.115,0.89,3.229,1.193c-0.756,2.038-1.16,4.232-1.205,6.491H9.903
		C10.004,18.375,11.212,15.681,13.136,13.665z M9.903,22.15h5.255c0.042,2.264,0.438,4.455,1.176,6.483
		c-1.118,0.297-2.197,0.69-3.223,1.175C11.202,27.795,10.004,25.112,9.903,22.15z M13.723,30.404
		c0.932-0.421,1.909-0.762,2.918-1.024c0.547,1.323,1.226,2.575,2.054,3.717C16.813,32.613,15.116,31.676,13.723,30.404z
		 M21.206,33.458c-0.44-0.015-0.873-0.055-1.3-0.118c-1.014-1.248-1.844-2.644-2.479-4.149c1.228-0.265,2.495-0.411,3.778-0.435
		V33.458z M21.206,27.956c-1.389,0.025-2.761,0.186-4.088,0.481c-0.724-1.963-1.117-4.088-1.159-6.287h5.247V27.956z M21.206,21.35
		H15.96c0.045-2.195,0.447-4.324,1.19-6.298c1.32,0.302,2.678,0.47,4.055,0.498V21.35z M21.206,14.749
		c-1.269-0.027-2.52-0.177-3.738-0.446c0.643-1.498,1.482-2.894,2.505-4.153c0.405-0.057,0.816-0.093,1.233-0.107V14.749z"/>
	<circle fill="#EFF9FE" cx="28.436" cy="9.192" r="1.12"/>
	<circle fill="#EFF9FE" cx="27.386" cy="21.792" r="1.12"/>
</g>
<g>
	<path fill="none" d="M34.218,31.526c0.601,1.487,0.299,3.255-0.905,4.458l-0.321,0.322l0.3,0.634l-0.185,0.184
		c0.881,0.356,1.963,0.193,2.657-0.499l1.842-1.842c0.942-0.943,0.942-2.478,0-3.421l-0.375-0.375
		c-0.457-0.456-1.064-0.708-1.711-0.708c-0.601,0-1.164,0.226-1.608,0.625l0.464,0.464L34.218,31.526z"/>
	<path fill="none" d="M31.44,35.455l0.672-0.672c0.026-0.026,0.044-0.058,0.07-0.085l-0.746,0.745
		C31.438,35.447,31.439,35.451,31.44,35.455z"/>
	<path fill="none" d="M28.953,32.51l2.031-2.031c-0.299-0.129-0.623-0.2-0.958-0.2c-0.646,0-1.253,0.252-1.71,0.708l-1.842,1.842
		c-0.456,0.457-0.708,1.064-0.708,1.71c0,0.646,0.252,1.254,0.708,1.711l0.375,0.375c0.838,0.835,2.242,0.896,3.176,0.197
		l-0.938,0.025l0.772-0.773c-0.193-0.482-0.299-1-0.299-1.536c0-1.069,0.412-2.072,1.15-2.842l-1.285,1.285L28.953,32.51z"/>
	<path fill="none" d="M32.338,34.507c0.343-0.464,0.499-1.018,0.468-1.568l-0.727,0.728l0.247-1.192l0.314-0.314
		c0,0,0-0.001,0-0.001l-0.671,0.671c-0.456,0.457-0.708,1.064-0.708,1.71c0,0.042,0.01,0.082,0.012,0.123l0.61-0.61L32.338,34.507z"
		/>
	<path fill="#FF9C04" d="M38.808,30.161l-0.375-0.375c-0.777-0.778-1.812-1.207-2.912-1.207c-1.027,0-1.989,0.387-2.747,1.072
		c-0.003-0.003-0.006-0.005-0.009-0.008l-2.054,2.054c-0.738,0.77-1.15,1.772-1.15,2.842c0,0.535,0.105,1.054,0.299,1.536
		l1.414-1.413c-0.002-0.041-0.012-0.081-0.012-0.123c0-0.646,0.252-1.253,0.708-1.71l0.671-0.671c0,0,0,0.001,0,0.001l1.264-1.263
		l0.008,0.008c0.444-0.398,1.007-0.625,1.608-0.625c0.646,0,1.254,0.252,1.711,0.708l0.375,0.375c0.942,0.943,0.942,2.478,0,3.421
		l-1.842,1.842c-0.694,0.691-1.776,0.855-2.657,0.499l-1.261,1.26c0.654,0.418,1.412,0.649,2.208,0.649
		c1.1,0,2.134-0.429,2.911-1.207l1.842-1.842C40.414,34.379,40.414,31.767,38.808,30.161z"/>
	<path fill="#FF9C04" d="M32.988,36.298l0.004,0.008l0.321-0.322c1.204-1.203,1.505-2.972,0.905-4.458l-1.412,1.412
		c0.031,0.551-0.125,1.105-0.468,1.568l0.018,0.018l-0.173,0.173c-0.025,0.028-0.043,0.059-0.07,0.085l-0.672,0.672
		c-0.001-0.004-0.002-0.008-0.004-0.012l-1.379,1.379l-0.032,0.001c-0.934,0.699-2.338,0.638-3.176-0.197l-0.375-0.375
		c-0.456-0.457-0.708-1.064-0.708-1.711c0-0.646,0.252-1.253,0.708-1.71l1.842-1.842c0.457-0.456,1.064-0.708,1.71-0.708
		c0.335,0,0.659,0.071,0.958,0.2l1.25-1.25c-0.654-0.419-1.413-0.65-2.208-0.65c-1.1,0-2.134,0.429-2.911,1.207l-1.842,1.842
		c-0.778,0.777-1.207,1.812-1.207,2.911c0,1.101,0.429,2.135,1.207,2.912l0.375,0.375c0.777,0.778,1.812,1.207,2.912,1.207
		c1.027,0,1.989-0.387,2.747-1.072c0.003,0.003,0.006,0.005,0.009,0.008L32.988,36.298z"/>
	<polygon fill="#FFFFFF" points="28.953,32.51 29.426,32.982 30.71,31.698 32.765,29.643 33.193,29.214 32.891,28.573 
		32.235,29.229 30.984,30.479 	"/>
	<polygon fill="#FFFFFF" points="33.292,36.939 32.992,36.306 32.988,36.298 31.316,37.969 30.424,38.862 30.896,39.334 
		31.847,38.384 33.107,37.124 	"/>
	<polygon fill="#FFFFFF" points="32.079,33.666 32.806,32.938 34.218,31.526 34.376,31.368 33.912,30.904 33.904,30.896 
		32.641,32.159 32.326,32.474 	"/>
	<polygon fill="#FFFFFF" points="30.025,36.822 30.058,36.821 31.437,35.443 32.182,34.698 32.355,34.524 32.338,34.507 
		31.883,34.052 31.273,34.662 29.859,36.075 29.087,36.848 	"/>
</g>
</svg>
