<?xml version="1.0" encoding="utf-8"?>
<!-- Generator: Adobe Illustrator 17.0.0, SVG Export Plug-In . SVG Version: 6.00 Build 0)  -->
<!DOCTYPE svg PUBLIC "-//W3C//DTD SVG 1.1//EN" "http://www.w3.org/Graphics/SVG/1.1/DTD/svg11.dtd">
<svg version="1.1" id="Layer_1" xmlns="http://www.w3.org/2000/svg" xmlns:xlink="http://www.w3.org/1999/xlink" x="0px" y="0px"
	 width="42px" height="42px" viewBox="0 0 42 42" enable-background="new 0 0 42 42" xml:space="preserve">
<g>
	<path fill="none" d="M18.906,19.084c1.045-0.003,2.167-0.095,3.042-0.729c1.256-0.87,1.225-2.959,0.049-3.885
		c-0.619-0.489-1.429-0.678-2.205-0.663c-1.425,0.012-4.274,0-4.274,0v5.277C15.518,19.084,17.776,19.072,18.906,19.084z"/>
	<path fill="none" d="M19.605,21.269c-1.362-0.007-4.088,0-4.088,0v6.201c0,0,3.228,0.107,4.834,0
		c1.244-0.146,2.664-0.678,3.198-1.918c0.397-1.05,0.243-2.384-0.6-3.179C22.075,21.514,20.784,21.3,19.605,21.269z"/>
	<rect x="7.329" y="11.594" fill="#3D6480" width="2.747" height="18.192"/>
	<path fill="#3D6480" d="M22.296,20.131c1.186-0.394,2.363-1.065,2.973-2.202c0.829-1.623,0.447-3.831-0.997-4.983
		c-1.244-1.004-2.895-1.313-4.454-1.35c-2.41-0.005-7.261,0-7.261,0l0.047,18.19h5.105c0,0,3.514,0.117,5.176-0.454
		c1.223-0.411,2.396-1.321,3.076-2.443c0.886-1.455,0.796-3.428-0.188-4.814C24.991,20.938,23.668,20.217,22.296,20.131z
		 M15.518,13.807c0,0,2.85,0.012,4.274,0c0.776-0.015,1.586,0.174,2.205,0.663c1.176,0.926,1.207,3.015-0.049,3.885
		c-0.875,0.635-1.997,0.727-3.042,0.729c-1.13-0.012-3.389,0-3.389,0V13.807z M23.55,25.552c-0.534,1.24-1.954,1.771-3.198,1.918
		c-1.606,0.107-4.834,0-4.834,0v-6.201c0,0,2.726-0.007,4.088,0c1.179,0.031,2.47,0.245,3.345,1.104
		C23.793,23.168,23.947,24.502,23.55,25.552z"/>
	<rect x="29.732" y="25.032" fill="#B2C1CC" width="4.939" height="4.8"/>
	<rect x="29.732" y="18.237" fill="#9EB1C0" width="4.939" height="4.8"/>
	<rect x="29.732" y="11.441" fill="#7792A6" width="4.939" height="4.801"/>
	<rect x="29.732" y="4.646" fill="#3D6480" width="4.939" height="4.8"/>
	<rect x="29.732" y="31.828" fill="#D8E0E6" width="4.939" height="4.8"/>
</g>
</svg>
