<?xml version="1.0" encoding="utf-8"?>
<!-- Generator: Adobe Illustrator 17.0.0, SVG Export Plug-In . SVG Version: 6.00 Build 0)  -->
<!DOCTYPE svg PUBLIC "-//W3C//DTD SVG 1.1//EN" "http://www.w3.org/Graphics/SVG/1.1/DTD/svg11.dtd">
<svg version="1.1" id="Layer_1" xmlns="http://www.w3.org/2000/svg" xmlns:xlink="http://www.w3.org/1999/xlink" x="0px" y="0px"
	 width="42px" height="42px" viewBox="0 0 42 42" enable-background="new 0 0 42 42" xml:space="preserve">
<g>
	<path fill="#0CB20F" d="M18.301,29.242l1.954,1.953H19.82c-1.905,0-3.455-1.55-3.455-3.456v-6.826h-1.9v6.826
		c0,2.953,2.402,5.356,5.355,5.356h0.435l-1.954,1.954l1.344,1.344l4.248-4.248l-4.248-4.247L18.301,29.242z"/>
	<path fill="#3D6480" d="M38.3,28.328c-0.255-0.199-0.56-0.289-0.901-0.289c-0.368,0-0.743,0.09-1.123,0.263
		c-0.392,0.174-0.795,0.483-1.217,0.911c-0.443,0.444-0.773,0.81-0.982,1.098l-0.387,0.513l-0.053-0.186
		c-0.033-0.134-0.15-0.495-0.355-1.091c-0.186-0.535-0.453-0.949-0.838-1.174c-0.352-0.215-0.775-0.311-1.262-0.311
		c-0.189,0-0.498,0.066-0.894,0.176c-0.399,0.106-0.852,0.245-1.357,0.414l-0.139,0.046l-0.414,1.164l1.106-0.238
		c0.193-0.038,0.372-0.057,0.542-0.057c0.312,0,0.538,0.055,0.702,0.144c0.126,0.07,0.286,0.258,0.448,0.664
		c0.127,0.331,0.261,0.717,0.402,1.156l0.361,1.086c-0.315,0.444-0.655,0.844-1.015,1.194c-0.336,0.334-0.612,0.59-0.831,0.767
		l-0.468-0.123c-0.225-0.074-0.448-0.108-0.686-0.108c-0.45,0.002-0.84,0.098-1.143,0.329c-0.293,0.219-0.47,0.51-0.47,0.869
		c0,0.349,0.143,0.642,0.425,0.847c0.258,0.188,0.575,0.271,0.924,0.271c0.392,0,0.774-0.093,1.144-0.274
		c0.368-0.182,0.757-0.481,1.165-0.881c0.455-0.448,0.792-0.81,1-1.078l0.376-0.481l0.071,0.241l0.323,0.965
		c0.189,0.552,0.46,0.982,0.844,1.203c0.354,0.198,0.786,0.29,1.275,0.29c0.384,0,0.74-0.034,1.07-0.1
		c0.325-0.065,0.807-0.204,1.443-0.42l0.142-0.047l0.404-1.199l-0.547,0.154c-0.139,0.039-0.333,0.074-0.587,0.108
		c-0.258,0.03-0.458,0.046-0.604,0.046c-0.385,0-0.662-0.082-0.863-0.226c-0.211-0.158-0.366-0.368-0.471-0.638
		c-0.14-0.353-0.271-0.701-0.393-1.049l-0.371-1.137c0.31-0.434,0.634-0.832,0.976-1.196c0.331-0.35,0.621-0.618,0.868-0.81
		l0.45,0.108c0.268,0.059,0.514,0.087,0.727,0.087c0.364,0,0.704-0.083,1.017-0.248c0.365-0.197,0.565-0.52,0.576-0.934
		C38.718,28.808,38.574,28.529,38.3,28.328z"/>
	<path fill="#EFF9FE" d="M3.789,15.473h22.816V5.838H3.789V15.473z M22.226,7.729h0.957v5.034h2.479v0.821h-3.437V7.729z
		 M17.781,7.729h0.957v5.034h2.479v0.821h-3.437V7.729z M11.641,7.729h0.961v3.705c0,0.483,0.112,0.84,0.336,1.069
		s0.569,0.344,1.033,0.344c0.903,0,1.354-0.474,1.354-1.422V7.729h0.957v3.789c0,0.433-0.093,0.811-0.278,1.135
		c-0.186,0.325-0.454,0.574-0.805,0.749c-0.351,0.176-0.771,0.263-1.259,0.263c-0.727,0-1.291-0.192-1.694-0.577
		c-0.403-0.384-0.605-0.913-0.605-1.586V7.729z M5.269,7.729H6.43l2.872,4.642h0.024c-0.005-0.062-0.016-0.285-0.032-0.671
		c-0.016-0.386-0.024-0.687-0.024-0.902V7.729h0.877v5.855H8.973L6.094,8.918H6.062l0.02,0.261c0.038,0.496,0.056,0.95,0.056,1.361
		v3.044H5.269V7.729z"/>
	<path fill="#3D6480" d="M27.605,4.838H2.789v11.635h24.816V4.838z M26.605,15.473H3.789V5.838h22.816V15.473z"/>
	<path fill="#EA102A" d="M6.138,10.54c0-0.411-0.019-0.865-0.056-1.361l-0.02-0.261h0.032l2.879,4.666h1.174V7.729H9.27v3.068
		c0,0.216,0.008,0.517,0.024,0.902c0.016,0.386,0.026,0.609,0.032,0.671H9.302L6.43,7.729H5.269v5.855h0.869V10.54z"/>
	<path fill="#EA102A" d="M13.94,13.664c0.488,0,0.908-0.087,1.259-0.263c0.351-0.175,0.62-0.424,0.805-0.749
		c0.186-0.324,0.278-0.702,0.278-1.135V7.729h-0.957v3.696c0,0.948-0.451,1.422-1.354,1.422c-0.464,0-0.809-0.114-1.033-0.344
		s-0.336-0.586-0.336-1.069V7.729h-0.961v3.772c0,0.673,0.202,1.202,0.605,1.586C12.649,13.472,13.213,13.664,13.94,13.664z"/>
	<polygon fill="#EA102A" points="21.217,12.763 18.738,12.763 18.738,7.729 17.781,7.729 17.781,13.584 21.217,13.584 	"/>
	<polygon fill="#EA102A" points="25.663,12.763 23.183,12.763 23.183,7.729 22.226,7.729 22.226,13.584 25.663,13.584 	"/>
</g>
</svg>
