<?xml version="1.0" encoding="utf-8"?>
<!-- Generator: Adobe Illustrator 17.0.0, SVG Export Plug-In . SVG Version: 6.00 Build 0)  -->
<!DOCTYPE svg PUBLIC "-//W3C//DTD SVG 1.1//EN" "http://www.w3.org/Graphics/SVG/1.1/DTD/svg11.dtd">
<svg version="1.1" id="Layer_1" xmlns="http://www.w3.org/2000/svg" xmlns:xlink="http://www.w3.org/1999/xlink" x="0px" y="0px"
	 width="42px" height="42px" viewBox="0 0 42 42" enable-background="new 0 0 42 42" xml:space="preserve">
<g>
	<rect x="23.215" y="31.12" fill="none" width="15.317" height="3.991"/>
	<path fill="none" d="M5.05,6.007h22.734V3.444H5.05V6.007z M24.329,4.23h2.369v0.801h-2.369V4.23z"/>
	<path fill="#0CB20F" d="M34.994,19.424v4.533l-1.953-1.954l-1.344,1.344l4.247,4.248l4.248-4.248l-1.344-1.344l-1.954,1.954v-4.533
		c0-2.953-2.402-5.356-5.355-5.356H30.9v1.9h0.639C33.444,15.968,34.994,17.518,34.994,19.424z"/>
	<path fill="#3D6480" d="M21.516,29.421v7.39h18.716v-7.39H21.516z M38.532,35.111H23.215V31.12h15.317V35.111z"/>
	<path fill="#EFF9FE" d="M5.05,20.01h22.734V6.808H5.05V20.01z M20.038,10.654l0.563-0.568l2.826,2.803l-2.824,2.825l-0.566-0.566
		l2.258-2.257L20.038,10.654z M17.896,8.519l0.729,0.33l-3.83,8.432l-0.729-0.33L17.896,8.519z M12.087,10.087l0.566,0.566
		l-2.258,2.257l2.256,2.236l-0.563,0.568l-2.826-2.803L12.087,10.087z"/>
	<path fill="#3D6480" d="M29.483,1.745H3.351v19.964h26.133V1.745z M27.784,20.01H5.05V6.808h22.734V20.01z M27.784,6.007H5.05
		V3.444h22.734V6.007z"/>
	<rect x="24.329" y="4.23" fill="#3D6480" width="2.369" height="0.801"/>
	
		<rect x="15.946" y="8.27" transform="matrix(0.9109 0.4127 -0.4127 0.9109 6.7809 -5.596)" fill="#3D6480" width="0.8" height="9.261"/>
	<polygon fill="#3D6480" points="20.602,15.714 23.427,12.889 20.601,10.086 20.038,10.654 22.294,12.891 20.036,15.147 	"/>
	<polygon fill="#3D6480" points="12.651,15.146 10.395,12.91 12.653,10.653 12.087,10.087 9.263,12.912 12.089,15.715 	"/>
</g>
</svg>
