<?xml version="1.0" encoding="utf-8"?>
<!-- Generator: Adobe Illustrator 18.0.0, SVG Export Plug-In . SVG Version: 6.00 Build 0)  -->
<!DOCTYPE svg PUBLIC "-//W3C//DTD SVG 1.1//EN" "http://www.w3.org/Graphics/SVG/1.1/DTD/svg11.dtd">
<svg version="1.1" xmlns="http://www.w3.org/2000/svg" xmlns:xlink="http://www.w3.org/1999/xlink" x="0px" y="0px"
	 viewBox="0 0 16 16" enable-background="new 0 0 16 16" xml:space="preserve">
<g id="Layer_2">
	<g id="Layer_2_1_">
		<rect fill="none" width="16" height="16"/>
	</g>
</g>
<g id="art">
	<g>
		
			<rect x="6.3" y="4" transform="matrix(-0.7071 -0.7071 0.7071 -0.7071 7.2739 19.6135)" fill="#FFFFFF" width="2.8" height="8.6"/>
		<polygon fill="#3D6380" points="12.6,0 11.8,0.8 12.1,1.1 11,2.2 13.7,5 14.8,3.9 15.2,4.2 16,3.4 		"/>
		<path fill="#3D6380" d="M8.9,1.3l-1,1l0.9,0.9l-7.1,7.1l1.3,1.3l-1,1l0.1,0.7L0,15.4L0.6,16l2.1-2.1l0.7,0.1l1-1l1.3,1.3l7.1-7.1
			l0.9,0.9l1-1L8.9,1.3L8.9,1.3z M5.6,12.3l-2-2l6.1-6.1l2,2L5.6,12.3z"/>
	</g>
</g>
</svg>
