<?xml version="1.0" encoding="utf-8"?>
<!-- Generator: Adobe Illustrator 17.0.0, SVG Export Plug-In . SVG Version: 6.00 Build 0)  -->
<!DOCTYPE svg PUBLIC "-//W3C//DTD SVG 1.1//EN" "http://www.w3.org/Graphics/SVG/1.1/DTD/svg11.dtd">
<svg version="1.1" id="Layer_1" xmlns="http://www.w3.org/2000/svg" xmlns:xlink="http://www.w3.org/1999/xlink" x="0px" y="0px"
	 width="42px" height="42px" viewBox="0 0 42 42" enable-background="new 0 0 42 42" xml:space="preserve">
<g>
	<polygon fill="#3D6480" points="5.668,9.903 5.669,11.803 12.058,11.801 12.058,5.475 10.158,5.475 10.158,8.558 4.932,3.333 
		3.589,4.676 8.815,9.903 	"/>
	<path fill="#FFECCE" d="M27.197,31.287c1.713-0.45,2.088-0.961,2.088-1.12v-4.949c-1.728,0.868-4.829,1.104-6.663,1.167v3.326
		v1.677v0.415l0.319,0.021c1.25-0.08,2.745-0.224,3.782-0.43C26.881,31.359,27.048,31.326,27.197,31.287z"/>
	<path fill="#FFECCE" d="M29.284,12.37v-0.758c-0.192-0.52-3.05-1.479-8.05-1.479c-1.492,0-2.78,0.087-3.862,0.222l-2.598,2.598
		c1.466,0.431,3.737,0.741,6.643,0.741C25.433,13.693,28.245,13.08,29.284,12.37z"/>
	<path fill="#FFECCE" d="M21.416,19.48c2.265,0,4.362-0.202,5.907-0.567c0.885-0.21,1.553-0.472,1.961-0.753v-4.857
		c-2.221,1.115-6.732,1.19-7.867,1.19c-2.35,0-4.553-0.212-6.204-0.597c-0.399-0.093-0.753-0.197-1.075-0.308l-0.771,0.771l0,3.791
		C14.421,18.864,17.299,19.48,21.416,19.48z"/>
	<path fill="#FFECCE" d="M15.213,19.683c-0.753-0.176-1.367-0.384-1.846-0.623v5.218c0.065,0.044,0.133,0.087,0.211,0.13h9.043
		v1.173c1.794-0.059,3.437-0.241,4.702-0.541c0.885-0.21,1.553-0.472,1.961-0.753V19.09c-2.221,1.115-6.733,1.19-7.868,1.19
		C19.067,20.28,16.864,20.068,15.213,19.683z"/>
	<path fill="#3D6480" d="M21.235,8.432c-0.549,0-1.237,0.012-1.99,0.05l-1.872,1.872c1.082-0.135,2.37-0.222,3.862-0.222
		c5,0,7.857,0.96,8.05,1.479v0.758c-1.04,0.71-3.851,1.323-7.867,1.323c-2.906,0-5.177-0.31-6.643-0.741l-0.636,0.636
		c0.322,0.111,0.676,0.215,1.075,0.308c1.65,0.385,3.854,0.597,6.204,0.597c1.135,0,5.646-0.075,7.867-1.19v4.857
		c-0.408,0.281-1.076,0.543-1.961,0.753c-1.545,0.365-3.643,0.567-5.907,0.567c-4.117,0-6.995-0.617-8.049-1.33l0-3.791l-1.7,1.7
		v8.349H3.834v5.304v1.677h1.792v-1.677H5.534v-3.604h15.388v3.604h-0.04v1.677h1.74v-1.677v-3.326
		c1.833-0.063,4.935-0.3,6.663-1.167v4.949c0,0.159-0.375,0.67-2.088,1.12c-0.149,0.039-0.315,0.072-0.474,0.107
		c-1.037,0.207-2.532,0.35-3.782,0.43c-0.107,0.007-0.216,0.014-0.319,0.02v0.543h-1.7v2.311h1.7v-1.128
		c1.898-0.067,3.649-0.283,5.006-0.639c2.227-0.585,3.356-1.516,3.356-2.765V11.612C30.985,8.662,23.522,8.432,21.235,8.432z
		 M29.284,24.288c-0.408,0.281-1.076,0.543-1.961,0.753c-1.265,0.299-2.908,0.481-4.702,0.541v-1.173h-9.043
		c-0.078-0.043-0.147-0.086-0.211-0.13v-5.218c0.479,0.239,1.093,0.447,1.846,0.623c1.65,0.385,3.854,0.597,6.203,0.597
		c1.135,0,5.647-0.075,7.868-1.19V24.288z"/>
	<polygon fill="#EFF9FE" points="20.922,26.107 5.534,26.107 5.534,29.712 5.626,29.712 6.626,29.712 9.19,29.712 10.19,29.712 
		12.754,29.712 13.754,29.712 16.319,29.712 17.319,29.712 19.882,29.712 20.882,29.712 20.922,29.712 	"/>
	<rect x="5.534" y="32.388" fill="#EFF9FE" width="0.092" height="2.311"/>
	<rect x="5.534" y="35.699" fill="#EFF9FE" width="0.092" height="0.007"/>
	<rect x="6.626" y="35.699" fill="#EFF9FE" width="2.563" height="0.007"/>
	<rect x="10.19" y="35.699" fill="#EFF9FE" width="2.564" height="0.007"/>
	<rect x="20.882" y="35.699" fill="#EFF9FE" width="0.04" height="0.007"/>
	<rect x="13.754" y="35.699" fill="#EFF9FE" width="2.564" height="0.007"/>
	<rect x="17.319" y="35.699" fill="#EFF9FE" width="2.563" height="0.007"/>
	<rect x="6.626" y="32.388" fill="#EFF9FE" width="2.563" height="2.311"/>
	<rect x="10.19" y="32.388" fill="#EFF9FE" width="2.564" height="2.311"/>
	<rect x="13.754" y="32.388" fill="#EFF9FE" width="2.564" height="2.311"/>
	<rect x="17.319" y="32.388" fill="#EFF9FE" width="2.563" height="2.311"/>
	<rect x="20.882" y="32.388" fill="#EFF9FE" width="0.04" height="2.311"/>
	<rect x="6.626" y="29.712" fill="#3D6480" width="2.563" height="1.677"/>
	<rect x="17.319" y="29.712" fill="#3D6480" width="2.563" height="1.677"/>
	<rect x="13.754" y="29.712" fill="#3D6480" width="2.564" height="1.677"/>
	<rect x="10.19" y="29.712" fill="#3D6480" width="2.564" height="1.677"/>
	<rect x="13.754" y="35.706" fill="#3D6480" width="2.564" height="1.699"/>
	<rect x="10.19" y="35.706" fill="#3D6480" width="2.564" height="1.699"/>
	<rect x="6.626" y="35.706" fill="#3D6480" width="2.563" height="1.699"/>
	<rect x="3.834" y="32.388" fill="#3D6480" width="1.7" height="2.311"/>
	<rect x="17.319" y="35.706" fill="#3D6480" width="2.563" height="1.699"/>
	<polygon fill="#3D6480" points="20.922,35.706 20.882,35.706 20.882,37.405 22.622,37.405 22.622,35.699 20.922,35.699 	"/>
	<polygon fill="#3D6480" points="5.534,35.699 3.834,35.699 3.834,37.405 5.626,37.405 5.626,35.706 5.534,35.706 	"/>
</g>
</svg>
