<?xml version="1.0" encoding="utf-8"?>
<!-- Generator: Adobe Illustrator 17.0.0, SVG Export Plug-In . SVG Version: 6.00 Build 0)  -->
<!DOCTYPE svg PUBLIC "-//W3C//DTD SVG 1.1//EN" "http://www.w3.org/Graphics/SVG/1.1/DTD/svg11.dtd">
<svg version="1.1" id="Layer_1" xmlns="http://www.w3.org/2000/svg" xmlns:xlink="http://www.w3.org/1999/xlink" x="0px" y="0px"
	 width="42px" height="42px" viewBox="0 0 42 42" enable-background="new 0 0 42 42" xml:space="preserve">
<g>
	<polygon fill="#3D6480" points="5.534,11.273 11.922,11.272 11.922,4.945 10.021,4.945 10.021,8.028 4.798,2.803 3.454,4.147 
		8.678,9.372 5.534,9.373 	"/>
	<path fill="#EFF9FE" d="M30.036,32.693L29.978,12.54h-4.257V8.282h-6.276l-7.103,7.103v17.309H30.036z M24.805,19.563h1v9.599h-1
		V19.563z M22.062,23.398h1v5.764h-1V23.398z M19.318,21.085h1v8.077h-1V21.085z M16.575,22.396h1v6.766h-1V22.396z"/>
	<polygon fill="#3D6480" points="31.678,12.551 29.968,10.841 27.421,10.841 27.421,8.293 25.711,6.583 21.144,6.583 19.445,8.282 
		25.721,8.282 25.721,12.54 29.978,12.54 30.036,32.693 12.342,32.693 12.342,15.385 10.642,17.085 10.642,34.392 31.741,34.392 	
		"/>
	<rect x="24.805" y="19.563" fill="#3D6480" width="1" height="9.599"/>
	<rect x="22.062" y="23.398" fill="#3D6480" width="1" height="5.764"/>
	<rect x="19.318" y="21.085" fill="#3D6480" width="1" height="8.077"/>
	<rect x="16.575" y="22.396" fill="#3D6480" width="1" height="6.766"/>
</g>
</svg>
