<?xml version="1.0" encoding="utf-8"?>
<!-- Generator: Adobe Illustrator 17.0.0, SVG Export Plug-In . SVG Version: 6.00 Build 0)  -->
<!DOCTYPE svg PUBLIC "-//W3C//DTD SVG 1.1//EN" "http://www.w3.org/Graphics/SVG/1.1/DTD/svg11.dtd">
<svg version="1.1" id="Layer_1" xmlns="http://www.w3.org/2000/svg" xmlns:xlink="http://www.w3.org/1999/xlink" x="0px" y="0px"
	 width="42px" height="42px" viewBox="0 0 42 42" enable-background="new 0 0 42 42" xml:space="preserve">
<g>
	<polygon fill="#3D6480" points="25.273,33.85 25.608,33.85 25.528,33.714 	"/>
	<g>
		<rect x="6.399" y="9.85" fill="#EFF9FE" width="22.3" height="6.339"/>
		<path fill="#3D6480" d="M6.399,32.15V25.6h13.325L19.244,24.7c-0.049-0.105-0.073-0.201-0.105-0.3H6.399v-7.013h22.3v3.014
			c0.573,0.012,1.149,0.022,1.699,0.063V8.15h-25.7V33.85h19.422l-0.906-1.699H6.399z M6.399,9.85h22.3v6.339h-22.3V9.85z"/>
		<path fill="#3D6480" d="M36.703,2.441v5.619c0,0.563-0.045,0.974-0.135,1.232c-0.089,0.254-0.252,0.457-0.488,0.608
			c-0.236,0.147-0.518,0.222-0.844,0.222c-0.441,0-0.788-0.139-1.037-0.415c-0.25-0.277-0.391-0.79-0.422-1.54l-1.172,0.16
			c-0.019,0.978,0.201,1.714,0.656,2.21c0.459,0.495,1.119,0.743,1.981,0.743c0.58,0,1.085-0.118,1.513-0.355
			c0.434-0.236,0.748-0.58,0.944-1.03c0.201-0.451,0.302-1.087,0.302-1.908V2.441H36.703z"/>
		<path fill="#FFF5E6" d="M20.991,23.728l0.239,0.402c0.915,0.469,3.201,1.041,6.796,1.041c3.593,0,5.878-0.572,6.794-1.04
			l0.248-0.426c-0.28-0.424-2.819-1.229-7.042-1.229C23.865,22.477,21.339,23.258,20.991,23.728z"/>
		<path fill="#FFF5E6" d="M21.893,25.247l5.913,9.955v2.467h0.574v-2.464l5.793-9.963c-1.788,0.55-4.436,0.729-6.148,0.729
			C26.319,25.972,23.681,25.794,21.893,25.247z"/>
		<path fill="#FF9C04" d="M32.456,21.617c-1.491-0.247-3.145-0.339-4.429-0.339c-3.065,0-8.252,0.515-8.252,2.446
			c0,0.164,0.029,0.312,0.124,0.514l5.629,9.477l0.08,0.135l1,1.683v3.336h2.973v-3.339l6.606-11.369
			c0.062-0.139,0.092-0.285,0.092-0.437C36.278,22.601,34.525,21.96,32.456,21.617z M28.381,35.205v2.464h-0.574v-2.467
			l-5.913-9.955c1.788,0.547,4.425,0.725,6.133,0.725c1.712,0,4.36-0.179,6.148-0.729L28.381,35.205z M34.821,24.131
			c-0.916,0.468-3.201,1.04-6.794,1.04c-3.596,0-5.882-0.573-6.796-1.041l-0.239-0.402c0.348-0.47,2.874-1.251,7.035-1.251
			c4.223,0,6.762,0.805,7.042,1.229L34.821,24.131z"/>
	</g>
</g>
</svg>
