<?xml version="1.0" encoding="utf-8"?>
<!-- Generator: Adobe Illustrator 17.0.0, SVG Export Plug-In . SVG Version: 6.00 Build 0)  -->
<!DOCTYPE svg PUBLIC "-//W3C//DTD SVG 1.1//EN" "http://www.w3.org/Graphics/SVG/1.1/DTD/svg11.dtd">
<svg version="1.1" id="Layer_1" xmlns="http://www.w3.org/2000/svg" xmlns:xlink="http://www.w3.org/1999/xlink" x="0px" y="0px"
	 width="42px" height="42px" viewBox="0 0 42 42" enable-background="new 0 0 42 42" xml:space="preserve">
<g>
	<polygon fill="none" points="29.788,30.818 29.788,36.138 35.493,33.481 	"/>
	<polygon fill="#3D6480" points="15.404,25.228 15.404,23.528 7.876,23.528 7.876,31.057 9.577,31.057 9.577,26.43 17.683,34.536 
		18.884,33.335 10.778,25.228 	"/>
	<polygon fill="#3D6480" points="11.605,8.914 16.232,8.914 8.125,17.021 9.328,18.222 17.434,10.115 17.434,14.743 19.133,14.743 
		19.133,7.215 11.605,7.215 	"/>
	<polygon fill="#3D6480" points="27.553,18.471 35.08,18.471 35.08,10.943 33.381,10.943 33.381,15.57 25.274,7.464 24.073,8.665 
		32.18,16.771 27.553,16.771 	"/>
	<path fill="#0CB20F" d="M27.938,27.912V39.04l11.932-5.557L27.938,27.912z M29.788,30.818l5.705,2.663l-5.705,2.656V30.818z"/>
</g>
</svg>
