<?xml version="1.0" encoding="utf-8"?>
<!-- Generator: Adobe Illustrator 17.0.0, SVG Export Plug-In . SVG Version: 6.00 Build 0)  -->
<!DOCTYPE svg PUBLIC "-//W3C//DTD SVG 1.1//EN" "http://www.w3.org/Graphics/SVG/1.1/DTD/svg11.dtd">
<svg version="1.1" id="Layer_1" xmlns="http://www.w3.org/2000/svg" xmlns:xlink="http://www.w3.org/1999/xlink" x="0px" y="0px"
	 width="42px" height="42px" viewBox="0 0 42 42" enable-background="new 0 0 42 42" xml:space="preserve">
<g>
	<path fill="#3D6480" d="M30.502,31.996H21.85v-3.294H3.12v7.39H21.85v-3.295h9.453v-5.528h-0.801V31.996z M20.15,34.393H4.819
		v-3.991H20.15V34.393z"/>
	<rect x="4.819" y="30.401" fill="#FFFFFF" width="15.331" height="3.991"/>
	<rect x="4.819" y="8.382" fill="#FFFFFF" width="15.331" height="3.992"/>
	<path fill="#3D6480" d="M21.85,10.778h8.652v4.415h0.801V9.977H21.85V6.683H3.12v7.391H21.85V10.778z M20.15,12.374H4.819V8.382
		H20.15V12.374z"/>
	<path fill="#FF9C04" d="M37.358,17.654l-0.375-0.375c-0.777-0.778-1.812-1.207-2.912-1.207c-1.027,0-1.989,0.387-2.747,1.072
		c-0.003-0.003-0.006-0.005-0.009-0.008l-2.053,2.054c-1.148,1.198-1.436,2.921-0.852,4.379l1.413-1.414
		c-0.002-0.041-0.012-0.081-0.012-0.122c0-0.646,0.252-1.254,0.708-1.711l0.671-0.671c0,0,0,0.001,0,0.001l1.265-1.263l0.007,0.007
		c0.444-0.398,1.007-0.625,1.608-0.625c0.646,0,1.254,0.252,1.711,0.708l0.375,0.375c0.942,0.943,0.942,2.478,0,3.421l-1.842,1.842
		c-0.694,0.691-1.776,0.856-2.657,0.499l-1.261,1.26c0.654,0.418,1.412,0.649,2.208,0.649c1.1,0,2.134-0.429,2.911-1.207
		l1.842-1.842C38.965,21.872,38.965,19.26,37.358,17.654z"/>
	<path fill="#FF9C04" d="M26.867,18.48c0.457-0.456,1.064-0.708,1.71-0.708c0.335,0,0.659,0.071,0.958,0.2l1.25-1.25
		c-0.654-0.419-1.413-0.65-2.208-0.65c-1.1,0-2.134,0.429-2.911,1.207l-1.842,1.842c-1.606,1.605-1.606,4.218,0,5.823l0.375,0.375
		c0.777,0.778,1.812,1.207,2.912,1.207c1.027,0,1.989-0.387,2.747-1.072c0.003,0.003,0.007,0.005,0.01,0.008l1.672-1.672
		l0.003,0.007l0.321-0.321c1.204-1.203,1.505-2.971,0.905-4.458l-1.412,1.412c0.031,0.551-0.125,1.104-0.468,1.568l0.018,0.018
		l-0.173,0.173c-0.025,0.028-0.043,0.059-0.07,0.085l-0.672,0.672c-0.001-0.004-0.002-0.008-0.004-0.012l-1.379,1.378l-0.032,0.001
		c-0.934,0.699-2.338,0.639-3.176-0.197l-0.375-0.375c-0.456-0.457-0.708-1.064-0.708-1.71c0-0.646,0.252-1.254,0.708-1.711
		L26.867,18.48z"/>
</g>
</svg>
