<?xml version="1.0" encoding="utf-8"?>
<!-- Generator: Adobe Illustrator 17.0.0, SVG Export Plug-In . SVG Version: 6.00 Build 0)  -->
<!DOCTYPE svg PUBLIC "-//W3C//DTD SVG 1.1//EN" "http://www.w3.org/Graphics/SVG/1.1/DTD/svg11.dtd">
<svg version="1.1" id="Layer_1" xmlns="http://www.w3.org/2000/svg" xmlns:xlink="http://www.w3.org/1999/xlink" x="0px" y="0px"
	 width="42px" height="42px" viewBox="0 0 42 42" enable-background="new 0 0 42 42" xml:space="preserve">
<g>
	<path fill="none" d="M20.591,10.546c-1.89,1.623-3.913,2.132-8.934,2.18v5.476c0,4.741,6.831,13.273,9.174,13.273
		s9.174-8.532,9.174-13.273v-5.476c-5.021-0.048-7.046-0.558-8.937-2.184C20.97,10.525,20.687,10.527,20.591,10.546z M12.007,18.201
		v-5.129c4.816-0.07,6.84-0.6,8.729-2.19l0.073,20.242C18.659,31.064,12.007,22.839,12.007,18.201z"/>
	<polygon fill="#3D6480" points="36.947,32.635 36.947,35.717 31.722,30.492 30.378,31.836 35.605,37.062 32.458,37.063 
		32.459,38.963 38.848,38.96 38.848,32.635 	"/>
	<path fill="#3D6480" d="M31.707,11.03h-0.85c-5.655,0-7.209-0.482-8.751-1.841c-0.274-0.241-0.699-0.364-1.263-0.364
		c-0.396,0-0.941,0.064-1.289,0.37c-1.541,1.354-3.094,1.835-8.746,1.835h-0.85v7.171c0,5.178,7.114,14.973,10.875,14.973
		s10.875-9.795,10.875-14.973V11.03z M30.006,18.201c0,4.741-6.831,13.273-9.174,13.273s-9.174-8.532-9.174-13.273v-5.476
		c5.021-0.048,7.044-0.557,8.934-2.18c0.095-0.019,0.378-0.021,0.479-0.004c1.89,1.626,3.916,2.136,8.937,2.184V18.201z"/>
	<path fill="#EFF9FE" d="M12.007,13.072v5.129c0,4.638,6.652,12.862,8.802,12.923l-0.073-20.242
		C18.847,12.473,16.823,13.002,12.007,13.072z"/>
</g>
</svg>
