<?xml version="1.0" encoding="utf-8"?>
<!-- Generator: Adobe Illustrator 17.0.0, SVG Export Plug-In . SVG Version: 6.00 Build 0)  -->
<!DOCTYPE svg PUBLIC "-//W3C//DTD SVG 1.1//EN" "http://www.w3.org/Graphics/SVG/1.1/DTD/svg11.dtd">
<svg version="1.1" id="Layer_1" xmlns="http://www.w3.org/2000/svg" xmlns:xlink="http://www.w3.org/1999/xlink" x="0px" y="0px"
	 width="42px" height="42px" viewBox="0 0 42 42" enable-background="new 0 0 42 42" xml:space="preserve">
<g>
	<polygon fill="#3D6480" points="11.922,5.475 10.021,5.475 10.021,8.557 4.798,3.333 3.454,4.676 8.679,9.903 5.533,9.903 
		5.534,11.803 11.922,11.8 	"/>
	<path fill="#3D6480" d="M31.215,11.048c-5.656,0-7.21-0.482-8.754-1.843c-0.274-0.24-0.699-0.362-1.262-0.362
		c-0.396,0-0.942,0.064-1.288,0.37c-0.768,0.675-1.539,1.132-2.819,1.422l-1.988,1.987c2.875-0.23,4.401-0.819,5.845-2.059
		c0.095-0.019,0.378-0.021,0.479-0.003c1.889,1.625,3.915,2.135,8.936,2.183v5.476c0,4.741-6.831,13.273-9.174,13.273
		s-9.174-8.532-9.174-13.273v-2.508l-1.7,1.7v0.808c0,5.178,7.114,14.973,10.875,14.973s10.875-9.795,10.875-14.973v-7.171H31.215z"
		/>
	<path fill="#EFF9FE" d="M21.167,31.141L21.093,10.9c-1.547,1.301-3.186,1.892-6.369,2.102l-2.358,2.358v2.858
		C12.366,22.857,19.018,31.081,21.167,31.141z"/>
</g>
</svg>
