<?xml version="1.0" encoding="utf-8"?>
<!-- Generator: Adobe Illustrator 17.0.0, SVG Export Plug-In . SVG Version: 6.00 Build 0)  -->
<!DOCTYPE svg PUBLIC "-//W3C//DTD SVG 1.1//EN" "http://www.w3.org/Graphics/SVG/1.1/DTD/svg11.dtd">
<svg version="1.1" id="Layer_1" xmlns="http://www.w3.org/2000/svg" xmlns:xlink="http://www.w3.org/1999/xlink" x="0px" y="0px"
	 width="42px" height="42px" viewBox="0 0 42 42" enable-background="new 0 0 42 42" xml:space="preserve">
<g>
	<polygon fill="#0CB20F" points="37.409,29.259 30.487,36.181 28.155,33.849 26.812,35.193 30.487,38.868 38.753,30.603 	"/>
	<polygon fill="#EFF9FE" points="9.502,12.962 6.847,12.962 6.847,37.372 18.901,37.372 21.555,34.718 9.502,34.718 	"/>
	<polygon fill="#EFF9FE" points="13.856,8.609 11.202,8.609 11.202,33.019 23.255,33.019 25.911,30.363 13.856,30.363 	"/>
	<rect x="30.634" y="5.896" fill="#FFFFFF" width="0.474" height="0.916"/>
	<path fill="#EFF9FE" d="M28.934,8.511V4.253H15.556v24.41H27.61l5.624-5.624L33.193,8.511H28.934z M21.655,20.242h-3.202v-0.801
		h3.202V20.242z M30.357,16.859H18.453v-0.801h11.903V16.859z M30.357,13.476H18.453v-0.801h11.903V13.476z"/>
	<polygon fill="#3D6480" points="15.556,28.663 15.556,4.253 28.934,4.253 28.934,8.511 33.193,8.511 33.234,23.039 34.929,21.344 
		34.893,8.522 33.183,6.812 31.109,6.812 30.634,6.812 30.634,5.896 30.634,4.264 28.925,2.554 13.856,2.554 13.856,6.909 
		9.502,6.909 9.502,11.263 5.147,11.263 5.147,39.072 17.202,39.072 18.901,37.372 6.847,37.372 6.847,12.962 9.502,12.962 
		9.502,34.718 21.555,34.718 23.255,33.019 11.202,33.019 11.202,8.609 13.856,8.609 13.856,30.363 25.911,30.363 27.61,28.663 	"/>
	<rect x="18.453" y="12.675" fill="#3D6480" width="11.903" height="0.801"/>
	<rect x="18.453" y="16.058" fill="#3D6480" width="11.903" height="0.801"/>
	<rect x="18.453" y="19.441" fill="#3D6480" width="3.202" height="0.801"/>
</g>
</svg>
