<?xml version="1.0" encoding="utf-8"?>
<!-- Generator: Adobe Illustrator 17.0.0, SVG Export Plug-In . SVG Version: 6.00 Build 0)  -->
<!DOCTYPE svg PUBLIC "-//W3C//DTD SVG 1.1//EN" "http://www.w3.org/Graphics/SVG/1.1/DTD/svg11.dtd">
<svg version="1.1" id="Layer_1" xmlns="http://www.w3.org/2000/svg" xmlns:xlink="http://www.w3.org/1999/xlink" x="0px" y="0px"
	 width="42px" height="42px" viewBox="0 0 42 42" enable-background="new 0 0 42 42" xml:space="preserve">
<g>
	<polygon fill="#3D6480" points="37.148,32.84 37.148,35.923 31.923,30.698 30.579,32.042 35.804,37.267 32.659,37.268 
		32.659,39.168 39.049,39.167 39.049,32.84 	"/>
	<path fill="#EFF9FE" d="M25.563,13.258V9H12.185v24.411h10.804l6.87-6.87l-0.038-13.283H25.563z M18.284,24.187v0.663v0.787h-3.203
		v-0.787v-0.663V23.4h3.203V24.187z M21.632,24.187v0.663v0.787H19.39v-0.787v-0.663V23.4h2.241V24.187z M24.102,24.187v0.663v0.787
		h-1.453v-0.787v-0.663V23.4h1.453V24.187z M26.984,20.805v0.663v0.787H15.081v-0.787v-0.663v-0.787h11.903V20.805z M26.984,17.422
		v0.663v0.787H15.081v-0.787v-0.663v-0.787h11.903V17.422z"/>
	<polygon fill="#3D6480" points="31.521,13.269 29.811,11.559 27.263,11.559 27.263,9.01 25.553,7.301 10.485,7.301 10.485,35.11 
		21.29,35.11 22.989,33.411 12.185,33.411 12.185,9 25.563,9 25.563,13.258 29.821,13.258 29.859,26.541 31.554,24.846 	"/>
	<polygon fill="#3D6480" points="15.081,17.422 15.081,18.085 15.081,18.872 26.984,18.872 26.984,18.085 26.984,17.422 
		26.984,16.635 15.081,16.635 	"/>
	<polygon fill="#3D6480" points="15.081,20.805 15.081,21.468 15.081,22.255 26.984,22.255 26.984,21.468 26.984,20.805 
		26.984,20.018 15.081,20.018 	"/>
	<polygon fill="#3D6480" points="15.081,24.187 15.081,24.851 15.081,25.638 18.284,25.638 18.284,24.851 18.284,24.187 
		18.284,23.4 15.081,23.4 	"/>
	<polygon fill="#3D6480" points="19.39,24.187 19.39,24.851 19.39,25.638 21.632,25.638 21.632,24.851 21.632,24.187 21.632,23.4 
		19.39,23.4 	"/>
	<polygon fill="#3D6480" points="22.649,24.187 22.649,24.851 22.649,25.638 24.102,25.638 24.102,24.851 24.102,24.187 
		24.102,23.4 22.649,23.4 	"/>
</g>
</svg>
