<?xml version="1.0" encoding="utf-8"?>
<!-- Generator: Adobe Illustrator 17.0.0, SVG Export Plug-In . SVG Version: 6.00 Build 0)  -->
<!DOCTYPE svg PUBLIC "-//W3C//DTD SVG 1.1//EN" "http://www.w3.org/Graphics/SVG/1.1/DTD/svg11.dtd">
<svg version="1.1" id="Layer_1" xmlns="http://www.w3.org/2000/svg" xmlns:xlink="http://www.w3.org/1999/xlink" x="0px" y="0px"
	 width="42px" height="42px" viewBox="0 0 42 42" enable-background="new 0 0 42 42" xml:space="preserve">
<g>
	<path fill="none" d="M29.723,15.404v2.797c0,4.603-6.547,12.729-8.746,12.91v0.013c-0.008,0-0.019-0.006-0.027-0.006
		c-0.008,0-0.019,0.006-0.027,0.006v-0.013c-2.2-0.181-8.747-8.307-8.747-12.91v-5.129c4.816-0.069,6.84-0.6,8.729-2.189
		l0.046,12.678l0.046-12.678c1.561,1.314,3.218,1.903,6.463,2.107v-0.358c-3.04-0.202-4.664-0.75-6.22-2.089
		c-0.101-0.02-0.384-0.017-0.479,0.003c-1.889,1.623-3.913,2.132-8.933,2.18v5.476c0,4.741,6.831,13.273,9.174,13.273
		s9.174-8.532,9.174-13.273v-2.797H29.723z"/>
	<path fill="#EFF9FE" d="M20.977,31.124v-0.013c-0.008,0.001-0.019,0.006-0.027,0.006C20.958,31.118,20.969,31.124,20.977,31.124z"
		/>
	<path fill="#EFF9FE" d="M20.903,10.883c-1.889,1.59-3.912,2.12-8.729,2.189v5.129c0,4.603,6.547,12.729,8.747,12.91l0.027-7.55
		L20.903,10.883z"/>
	<polygon fill="#DDDDDD" points="28.458,13.555 28.458,14.404 29.307,14.404 	"/>
	<path fill="#DDDDDD" d="M20.949,23.561l-0.027,7.55v0.013c0.008,0,0.019-0.006,0.027-0.006s0.019-0.006,0.027-0.006
		c2.199-0.182,8.746-8.307,8.746-12.91v-2.797h-2.265V12.99c-3.245-0.205-4.902-0.794-6.463-2.107L20.949,23.561z"/>
	<path fill="#3D6480" d="M31.875,14.566l-3.588-3.588l-0.325-0.018c-3.333-0.182-4.49-0.716-5.689-1.772
		c-0.274-0.24-0.699-0.363-1.263-0.363c-0.396,0-0.941,0.064-1.288,0.37c-1.541,1.354-3.094,1.835-8.746,1.835h-0.85v7.171
		c0,5.178,7.114,14.973,10.875,14.973s10.875-9.795,10.875-14.973V14.566z M28.458,13.555l0.849,0.85h-0.849V13.555z M21,31.475
		c-2.344,0-9.174-8.532-9.174-13.273v-5.476c5.021-0.048,7.044-0.557,8.933-2.18c0.096-0.02,0.378-0.022,0.479-0.003
		c1.556,1.339,3.18,1.887,6.22,2.089v0.358v2.414h2.265h0.452v2.797C30.174,22.942,23.344,31.475,21,31.475z"/>
	<polygon fill="#3D6480" points="37.115,32.635 37.115,35.717 31.89,30.492 30.546,31.836 35.772,37.062 32.626,37.062 
		32.626,38.963 39.016,38.96 39.016,32.635 	"/>
</g>
</svg>
