<?xml version="1.0" encoding="utf-8"?>
<!-- Generator: Adobe Illustrator 17.0.0, SVG Export Plug-In . SVG Version: 6.00 Build 0)  -->
<!DOCTYPE svg PUBLIC "-//W3C//DTD SVG 1.1//EN" "http://www.w3.org/Graphics/SVG/1.1/DTD/svg11.dtd">
<svg version="1.1" id="Layer_1" xmlns="http://www.w3.org/2000/svg" xmlns:xlink="http://www.w3.org/1999/xlink" x="0px" y="0px"
	 width="42px" height="42px" viewBox="0 0 42 42" enable-background="new 0 0 42 42" xml:space="preserve">
<g>
	<polygon fill="#3D6480" points="36.947,32.635 36.947,35.718 31.722,30.492 30.378,31.836 35.604,37.062 32.458,37.063 
		32.458,38.963 38.848,38.962 38.848,32.635 	"/>
	<polygon fill="#3D6480" points="9.554,14.825 8.854,14.825 8.854,21.261 10.796,21.261 10.796,20.562 9.554,20.562 	"/>
	<polygon fill="#3D6480" points="9.554,27.271 8.854,27.271 8.854,33.706 10.796,33.706 10.796,33.007 9.554,33.007 	"/>
	<polygon fill="#FFEBCD" points="13.913,7.997 13.913,6.898 9.499,6.898 7.69,5.09 4.888,5.09 4.888,12.494 6.773,7.997 	"/>
	<polygon fill="#FFEBCD" points="13.913,8.472 13.913,8.47 7.088,8.47 5.039,13.358 14.043,13.358 15.974,8.472 	"/>
	<path fill="#3D6480" d="M17.364,7.526h-2.505V5.952H9.89L8.082,4.145h-4.14v10.159h10.744L17.364,7.526z M4.888,5.09H7.69
		l1.809,1.808h4.414v1.1H6.773l-1.885,4.497V5.09z M5.039,13.358L7.088,8.47h6.825v0.002h2.061l-1.931,4.887H5.039z"/>
	<polygon fill="#FFEBCD" points="17.139,18.119 18.909,18.119 17.567,16.777 14.764,16.778 14.764,25.047 23.768,25.047 
		23.79,18.592 17.139,18.592 	"/>
	<path fill="#3D6480" d="M17.959,15.832l-4.141,0.001v10.159h10.893l0.025-8.352h-4.969L17.959,15.832z M23.768,25.047h-9.004
		v-8.269l2.803-0.001l1.342,1.342h-1.77v0.473h6.651L23.768,25.047z"/>
	<polygon fill="#FFEBCD" points="17.139,30.456 17.139,29.983 18.909,29.983 17.567,28.642 14.764,28.643 14.764,36.911 
		19.362,36.911 23.783,32.491 23.79,30.456 	"/>
	<polygon fill="#3D6480" points="17.959,27.696 13.818,27.697 13.818,37.856 18.417,37.856 19.362,36.911 14.764,36.911 
		14.764,28.643 17.567,28.642 18.909,29.983 17.139,29.983 17.139,30.456 23.79,30.456 23.783,32.491 24.73,31.544 24.736,29.505 
		19.767,29.505 	"/>
</g>
</svg>
