<?xml version="1.0" encoding="utf-8"?>
<!-- Generator: Adobe Illustrator 17.0.0, SVG Export Plug-In . SVG Version: 6.00 Build 0)  -->
<!DOCTYPE svg PUBLIC "-//W3C//DTD SVG 1.1//EN" "http://www.w3.org/Graphics/SVG/1.1/DTD/svg11.dtd">
<svg version="1.1" id="Layer_1" xmlns="http://www.w3.org/2000/svg" xmlns:xlink="http://www.w3.org/1999/xlink" x="0px" y="0px"
	 width="42px" height="42px" viewBox="0 0 42 42" enable-background="new 0 0 42 42" xml:space="preserve">
<g>
	<polygon fill="#0CB20F" points="36.737,29.437 29.814,36.359 27.483,34.027 26.139,35.37 29.814,39.046 38.081,30.781 	"/>
	<polygon fill="#EFF9FE" points="27.81,18.971 27.81,10.556 12.304,10.556 12.304,18.718 20.159,26.597 	"/>
	<polygon fill="#FFFFFF" points="31.429,16.492 20.157,27.728 8.887,16.423 8.887,31.383 24.89,31.383 31.429,24.845 	"/>
	<path fill="#3D6480" d="M8.887,16.423l11.27,11.305l11.272-11.236v8.352l1.7-1.7v-8.119v-0.6H29.51V8.857H10.604v5.569H7.187v0.6
		v18.057h16.004l1.699-1.699H8.887V16.423z M12.304,10.556H27.81v8.415l-7.651,7.626l-7.855-7.879V10.556z"/>
</g>
</svg>
