<?xml version="1.0" encoding="utf-8"?>
<!-- Generator: Adobe Illustrator 17.0.0, SVG Export Plug-In . SVG Version: 6.00 Build 0)  -->
<!DOCTYPE svg PUBLIC "-//W3C//DTD SVG 1.1//EN" "http://www.w3.org/Graphics/SVG/1.1/DTD/svg11.dtd">
<svg version="1.1" id="Layer_1" xmlns="http://www.w3.org/2000/svg" xmlns:xlink="http://www.w3.org/1999/xlink" x="0px" y="0px"
	 width="42px" height="42px" viewBox="0 0 42 42" enable-background="new 0 0 42 42" xml:space="preserve">
<g>
	<polygon fill="#FFEBCD" points="30.675,31.112 25.093,28.294 23.702,30.083 29.294,32.995 	"/>
	<polygon fill="#FFEBCD" points="25.425,32.032 25.425,35.063 31.12,37.938 31.12,32.085 29.573,34.194 	"/>
	<polygon fill="#FFEBCD" points="37.489,31.747 33.149,34.149 31.56,31.788 31.56,38.056 37.489,35.063 	"/>
	<polygon fill="#FFEBCD" points="38.423,31.231 38.423,35.638 31.458,39.155 24.491,35.638 24.491,31.546 24.458,31.529 
		24.458,35.659 31.458,39.192 38.456,35.659 38.456,31.213 	"/>
	<polygon fill="#FFEBCD" points="26.075,27.745 31.454,30.46 36.769,27.714 34.073,26.589 34.408,25.787 34.136,25.675 
		31.409,28.401 28.705,25.699 28.315,25.864 28.651,26.669 	"/>
	<polygon fill="#FFEBCD" points="38.931,29.884 37.804,28.231 32.229,31.11 33.446,32.917 	"/>
	<path fill="#3D6480" d="M24.491,35.638l6.967,3.518l6.965-3.518v-4.406l0.033-0.019l1.824-1.009l-1.857-2.811l-3.99-1.666
		l-0.025,0.06l-0.334,0.802l2.695,1.125l-5.314,2.746l-5.379-2.715l2.576-1.076l-0.336-0.805l-0.023-0.056l-3.801,1.586
		l-2.211,3.002l2.178,1.133l0.033,0.017V35.638z M37.804,28.231l1.127,1.652l-5.484,3.033l-1.217-1.807L37.804,28.231z
		 M31.56,31.788l1.59,2.361l4.34-2.402v3.316l-5.93,2.992V31.788z M31.12,37.938l-5.695-2.875v-3.031l4.148,2.162l1.547-2.109
		V37.938z M23.702,30.083l1.391-1.789l5.582,2.818l-1.381,1.883L23.702,30.083z"/>
	<path fill="#0CB20F" d="M34.136,25.675l0.099-0.099l-0.738-0.738l-1.564,1.564v-1.74c0-2.803-1.211-4.055-3.926-4.055v1.045
		c2.156,0,2.883,0.76,2.883,3.01v1.746l-1.65-1.65l-0.738,0.738l0.204,0.204l2.704,2.702L34.136,25.675z"/>
	<path fill="#9EB1C0" d="M14.71,5.666c6.269-2.403,12.362-0.177,15.175,3.162c0,0-4.571-9.256-16.991-5.39
		c-8.227,2.561-10.487,9.55-10.487,9.55l4.921-1.113C7.327,11.875,8.44,8.067,14.71,5.666z"/>
	<path fill="#3D6480" d="M27.188,11.523c3.047,3.984-1.64,9.199-1.64,9.199s7.558-4.513,4.511-9.902
		c-1.495-2.646-5.077-5.718-11.718-4.921c-7.323,0.878-9.667,5.565-9.667,5.565s2.813-3.34,7.382-3.925
		C20.627,6.953,24.143,7.54,27.188,11.523z"/>
</g>
</svg>
