<?xml version="1.0" encoding="utf-8"?>
<!-- Generator: Adobe Illustrator 17.0.0, SVG Export Plug-In . SVG Version: 6.00 Build 0)  -->
<!DOCTYPE svg PUBLIC "-//W3C//DTD SVG 1.1//EN" "http://www.w3.org/Graphics/SVG/1.1/DTD/svg11.dtd">
<svg version="1.1" id="Layer_1" xmlns="http://www.w3.org/2000/svg" xmlns:xlink="http://www.w3.org/1999/xlink" x="0px" y="0px"
	 width="42px" height="42px" viewBox="0 0 42 42" enable-background="new 0 0 42 42" xml:space="preserve">
<polygon fill="#3D6480" points="36.857,35.064 26.862,35.064 32.124,28.836 26.862,22.608 36.857,22.608 36.857,25.255 
	35.158,25.255 35.158,24.308 30.524,24.308 34.349,28.836 30.524,33.364 35.158,33.364 35.158,32.397 36.857,32.397 "/>
<g>
	<g>
		<rect x="7.109" y="14.114" fill="#3D6480" width="12.879" height="0.801"/>
		<rect x="7.109" y="20.74" fill="#3D6480" width="12.879" height="0.801"/>
		<rect x="7.109" y="27.249" fill="#3D6480" width="12.879" height="0.801"/>
	</g>
	<path fill="#3D6480" d="M21.039,34.88H6.244V7.031h14.795V34.88z M7.943,33.181H19.34V8.731H7.943V33.181z"/>
</g>
<g>
	<g>
		<polygon fill="#3D6480" points="27.033,20.953 22.581,16.502 27.037,12.129 27.877,12.984 24.286,16.51 27.881,20.106 		"/>
		<rect x="23.434" y="15.943" fill="#3D6480" width="9.073" height="1.199"/>
	</g>
	<g>
		<polygon fill="#3D6480" points="36.268,15.043 35.428,14.188 39.019,10.662 35.424,7.066 36.271,6.219 40.724,10.67 		"/>
		<rect x="30.799" y="10.029" fill="#3D6480" width="9.072" height="1.199"/>
	</g>
</g>
</svg>
