<?xml version="1.0" encoding="utf-8"?>
<!-- Generator: Adobe Illustrator 17.0.0, SVG Export Plug-In . SVG Version: 6.00 Build 0)  -->
<!DOCTYPE svg PUBLIC "-//W3C//DTD SVG 1.1//EN" "http://www.w3.org/Graphics/SVG/1.1/DTD/svg11.dtd">
<svg version="1.1" id="Layer_1" xmlns="http://www.w3.org/2000/svg" xmlns:xlink="http://www.w3.org/1999/xlink" x="0px" y="0px"
	 width="42px" height="42px" viewBox="0 0 42 42" enable-background="new 0 0 42 42" xml:space="preserve">
<g>
	<rect x="23.733" y="19.005" fill="#FFFFFF" width="15.331" height="3.991"/>
	<path fill="#3D6480" d="M22.034,17.306v7.39h18.729v-7.39H22.034z M39.064,22.996H23.733v-3.991h15.331V22.996z"/>
	<polygon fill="#3D6480" points="10.57,10.392 30.966,10.392 30.966,14.428 28.987,12.449 28.421,13.016 31.338,15.931 
		34.282,12.985 33.716,12.419 31.767,14.371 31.767,9.591 9.77,9.591 9.77,15.119 10.57,15.119 	"/>
	<polygon fill="#3D6480" points="28.421,29.063 28.987,29.63 30.966,27.651 30.966,31.609 10.57,31.609 10.57,27.194 9.77,27.194 
		9.77,32.41 31.767,32.41 31.767,27.651 33.716,29.601 34.282,29.034 31.366,26.119 	"/>
	<path fill="#FF9C04" d="M14.849,25.345l1.842-1.842c1.606-1.605,1.606-4.218,0-5.823l-0.375-0.375
		c-0.777-0.778-1.812-1.207-2.911-1.207c-1.028,0-1.99,0.387-2.748,1.072c-0.003-0.003-0.006-0.005-0.009-0.008l-2.053,2.054
		c-1.148,1.198-1.436,2.921-0.852,4.379l1.414-1.415C9.124,21.52,9.35,20.85,9.852,20.348l0.672-0.672c0,0.001,0,0.002,0,0.002
		l1.263-1.263l0.008,0.008c0.444-0.398,1.007-0.625,1.609-0.625c0.646,0,1.253,0.252,1.71,0.708l0.375,0.375
		c0.456,0.457,0.708,1.064,0.708,1.711c0,0.646-0.252,1.253-0.708,1.71l-1.842,1.842c-0.694,0.692-1.776,0.856-2.657,0.499
		l-1.261,1.26c0.654,0.418,1.412,0.649,2.208,0.649C13.037,26.552,14.071,26.123,14.849,25.345z"/>
	<path fill="#FF9C04" d="M10.875,23.824l0.321-0.322c1.204-1.203,1.505-2.97,0.905-4.457l-1.412,1.411
		c0.002,0.045,0.013,0.089,0.013,0.134c0,0.525-0.174,1.02-0.481,1.434l0.017,0.017l-0.171,0.171
		c-0.026,0.028-0.045,0.061-0.072,0.088l-0.671,0.671c-0.001-0.004-0.003-0.008-0.004-0.012L7.94,24.34l-0.032,0.001
		c-0.934,0.7-2.338,0.639-3.176-0.197l-0.375-0.375c-0.942-0.943-0.942-2.478,0-3.421l1.842-1.842
		c0.457-0.456,1.064-0.708,1.711-0.708c0.335,0,0.658,0.071,0.957,0.2l1.25-1.25c-0.654-0.419-1.412-0.65-2.208-0.65
		c-1.101,0-2.135,0.429-2.912,1.207l-1.842,1.842c-1.606,1.605-1.606,4.218,0,5.823l0.375,0.375
		c0.777,0.778,1.812,1.207,2.912,1.207c1.027,0,1.989-0.387,2.747-1.072c0.003,0.003,0.007,0.005,0.01,0.008l1.671-1.672
		L10.875,23.824z"/>
</g>
</svg>
