<?xml version="1.0" encoding="utf-8"?>
<!-- Generator: Adobe Illustrator 17.0.0, SVG Export Plug-In . SVG Version: 6.00 Build 0)  -->
<!DOCTYPE svg PUBLIC "-//W3C//DTD SVG 1.1//EN" "http://www.w3.org/Graphics/SVG/1.1/DTD/svg11.dtd">
<svg version="1.1" id="Layer_1" xmlns="http://www.w3.org/2000/svg" xmlns:xlink="http://www.w3.org/1999/xlink" x="0px" y="0px"
	 width="42px" height="42px" viewBox="0 0 42 42" enable-background="new 0 0 42 42" xml:space="preserve">
<g>
	<polygon fill="#3D6480" points="37.007,33.143 37.007,36.226 31.781,31.001 30.438,32.345 35.663,37.57 32.518,37.57 
		32.518,39.471 38.907,39.47 38.907,33.143 	"/>
	<rect x="28.741" y="8.741" fill="#3D6480" width="2.525" height="1.699"/>
	<polygon fill="#3D6480" points="32.302,24.066 32.854,24.066 34.001,22.918 34.001,21.67 32.302,21.67 	"/>
	<polygon fill="#3D6480" points="32.302,10.485 34.001,10.485 34.001,8.741 32.267,8.741 32.267,10.441 32.302,10.441 	"/>
	<rect x="18.168" y="8.741" fill="#3D6480" width="2.524" height="1.699"/>
	<rect x="25.217" y="8.741" fill="#3D6480" width="2.524" height="1.699"/>
	<rect x="21.693" y="8.741" fill="#3D6480" width="2.524" height="1.699"/>
	<rect x="14.645" y="8.741" fill="#3D6480" width="2.523" height="1.699"/>
	<rect x="32.302" y="18.275" fill="#3D6480" width="1.699" height="2.396"/>
	<rect x="32.302" y="14.88" fill="#3D6480" width="1.699" height="2.395"/>
	<rect x="32.302" y="11.485" fill="#3D6480" width="1.699" height="2.396"/>
	<rect x="7.059" y="7.804" fill="#FFFFFF" width="3.666" height="3.667"/>
	<rect x="7.059" y="31.546" fill="#FFFFFF" width="3.666" height="3.667"/>
	<path fill="#3D6480" d="M12.424,29.847h-2.7V13.17h2.7v-2.729h1.221V8.741h-1.221V6.105H5.36v7.065h2.665v16.677H5.36v7.065h7.064
		v-2.194h9.777l1.699-1.699H12.424V29.847z M7.059,11.471V7.804h3.666v3.667H7.059z M10.725,35.213H7.059v-3.667h3.666V35.213z"/>
</g>
</svg>
