<?xml version="1.0" encoding="utf-8"?>
<!-- Generator: Adobe Illustrator 17.0.0, SVG Export Plug-In . SVG Version: 6.00 Build 0)  -->
<!DOCTYPE svg PUBLIC "-//W3C//DTD SVG 1.1//EN" "http://www.w3.org/Graphics/SVG/1.1/DTD/svg11.dtd">
<svg version="1.1" id="Layer_1" xmlns="http://www.w3.org/2000/svg" xmlns:xlink="http://www.w3.org/1999/xlink" x="0px" y="0px"
	 width="42px" height="42px" viewBox="0 0 42 42" enable-background="new 0 0 42 42" xml:space="preserve">
<g>
	<rect x="7.553" y="31.055" fill="#FFFFFF" width="3.666" height="3.667"/>
	<polygon fill="#3D6480" points="7.553,9.903 5.729,9.903 5.729,11.803 12.119,11.802 12.119,5.475 10.218,5.475 10.218,7.313 
		10.218,8.559 8.973,7.313 4.993,3.334 3.649,4.677 7.553,8.581 8.875,9.903 	"/>
	<rect x="32.797" y="17.784" fill="#3D6480" width="1.699" height="2.396"/>
	<rect x="25.712" y="8.251" fill="#3D6480" width="2.524" height="1.699"/>
	<rect x="29.236" y="8.251" fill="#3D6480" width="2.525" height="1.699"/>
	<rect x="32.797" y="24.575" fill="#3D6480" width="1.699" height="2.395"/>
	<rect x="32.797" y="14.389" fill="#3D6480" width="1.699" height="2.395"/>
	<polygon fill="#3D6480" points="32.797,9.994 34.496,9.994 34.496,8.251 32.761,8.251 32.761,9.95 32.797,9.95 	"/>
	<rect x="32.797" y="10.994" fill="#3D6480" width="1.699" height="2.396"/>
	<rect x="32.797" y="21.179" fill="#3D6480" width="1.699" height="2.396"/>
	<polygon fill="#3D6480" points="21.187,8.251 19.671,8.251 18.663,9.259 18.663,9.95 21.187,9.95 	"/>
	<rect x="22.187" y="8.251" fill="#3D6480" width="2.524" height="1.699"/>
	<rect x="31.553" y="31.055" fill="#FFFFFF" width="3.666" height="3.667"/>
	<path fill="#3D6480" d="M34.496,29.356v-1.387h-1.699v1.387h-2.942v3.172H12.919v-3.172h-2.7V17.703l-1.699,1.699v9.954H5.854
		v7.065h7.064v-2.194h16.936v2.194h7.064v-7.065H34.496z M11.219,34.722H7.553v-3.667h3.666V34.722z M35.219,34.722h-3.666v-3.667
		h3.666V34.722z"/>
</g>
</svg>
