<?xml version="1.0" encoding="utf-8"?>
<!-- Generator: Adobe Illustrator 17.0.0, SVG Export Plug-In . SVG Version: 6.00 Build 0)  -->
<!DOCTYPE svg PUBLIC "-//W3C//DTD SVG 1.1//EN" "http://www.w3.org/Graphics/SVG/1.1/DTD/svg11.dtd">
<svg version="1.1" id="Layer_1" xmlns="http://www.w3.org/2000/svg" xmlns:xlink="http://www.w3.org/1999/xlink" x="0px" y="0px"
	 width="42px" height="42px" viewBox="0 0 42 42" enable-background="new 0 0 42 42" xml:space="preserve">
<g>
	<rect x="4.283" y="30.014" fill="#FFFFFF" width="15.331" height="3.991"/>
	<rect x="4.283" y="7.995" fill="#FFFFFF" width="15.331" height="3.991"/>
	<rect x="29.229" y="19.004" fill="#FFFFFF" width="7.416" height="3.991"/>
	<rect x="21.313" y="19.004" fill="#FFFFFF" width="7.415" height="3.991"/>
	<path fill="#3D6480" d="M29.379,17.305V9.59h-8.065V6.296H2.584v7.39h18.729v-3.295h7.265v6.914h-8.964v7.39h8.964v6.914h-7.265
		v-3.294H2.584v7.39h18.729v-3.295h8.065v-7.715h8.965v-7.39H29.379z M19.614,11.986H4.283V7.995h15.331V11.986z M19.614,34.005
		H4.283v-3.991h15.331V34.005z M28.728,22.995h-7.415v-3.991h7.415V22.995z M36.645,22.995h-7.416v-3.991h7.416V22.995z"/>
</g>
</svg>
