<?xml version="1.0" encoding="utf-8"?>
<!-- Generator: Adobe Illustrator 17.0.0, SVG Export Plug-In . SVG Version: 6.00 Build 0)  -->
<!DOCTYPE svg PUBLIC "-//W3C//DTD SVG 1.1//EN" "http://www.w3.org/Graphics/SVG/1.1/DTD/svg11.dtd">
<svg version="1.1" id="Layer_1" xmlns="http://www.w3.org/2000/svg" xmlns:xlink="http://www.w3.org/1999/xlink" x="0px" y="0px"
	 width="42px" height="42px" viewBox="0 0 42 42" enable-background="new 0 0 42 42" xml:space="preserve">
<g>
	<rect x="10.192" y="7.001" fill="none" width="4.874" height="4.875"/>
	<rect x="10.192" y="18.21" fill="none" width="4.874" height="4.875"/>
	<rect x="27.771" y="18.21" fill="none" width="4.875" height="4.875"/>
	<rect x="10.192" y="29.418" fill="none" width="4.874" height="4.875"/>
	<polygon fill="#3D6480" points="36.934,32.283 36.934,35.365 31.708,30.14 30.364,31.484 35.591,36.71 32.444,36.71 32.444,38.611 
		38.834,38.608 38.834,32.283 	"/>
	<path fill="#3D6480" d="M31.489,24.784l2.856-2.857v-5.417h-8.273v3.736h-4.196V9.038h-5.11V5.302H8.493v8.273h8.272V9.839h4.31
		v10.408h-4.31v-3.736H8.493v8.273h8.272v-3.736h4.31v10.407h-4.31v-3.736H8.493v8.273h8.272v-3.736h5.11V21.048h4.196v3.736H31.489
		z M27.771,18.21h4.875v4.875h-4.875V18.21z M15.066,11.876h-4.874V7.001h4.874V11.876z M15.066,23.085h-4.874V18.21h4.874V23.085z
		 M15.066,34.293h-4.874v-4.875h4.874V34.293z"/>
</g>
</svg>
