<?xml version="1.0" encoding="utf-8"?>
<!-- Generator: Adobe Illustrator 17.0.0, SVG Export Plug-In . SVG Version: 6.00 Build 0)  -->
<!DOCTYPE svg PUBLIC "-//W3C//DTD SVG 1.1//EN" "http://www.w3.org/Graphics/SVG/1.1/DTD/svg11.dtd">
<svg version="1.1" id="Layer_1" xmlns="http://www.w3.org/2000/svg" xmlns:xlink="http://www.w3.org/1999/xlink" x="0px" y="0px"
	 width="42px" height="42px" viewBox="0 0 42 42" enable-background="new 0 0 42 42" xml:space="preserve">
<g>
	<rect x="10.277" y="18.58" fill="none" width="4.874" height="4.875"/>
	<rect x="10.277" y="29.788" fill="none" width="4.874" height="4.875"/>
	<rect x="27.857" y="18.58" fill="none" width="4.875" height="4.875"/>
	<polygon fill="#3D6480" points="5.246,11.803 11.636,11.801 11.636,5.475 9.735,5.475 9.735,8.558 4.51,3.333 3.166,4.676 
		8.393,9.903 5.246,9.903 	"/>
	<path fill="#3D6480" d="M26.157,16.881v3.736h-4.196V9.408h-3.643l-0.801,0.801h3.643v10.408h-4.31v-3.736h-6.005l-2.268,2.268
		v6.006h8.272v-3.736h4.31v10.407h-4.31v-3.736H8.578v8.273h8.272v-3.736h5.11V21.418h4.196v3.736h8.273v-8.273H26.157z
		 M15.151,23.455h-4.874V18.58h4.874V23.455z M15.151,34.663h-4.874v-4.875h4.874V34.663z M32.732,23.455h-4.875V18.58h4.875V23.455
		z"/>
</g>
</svg>
