<?xml version="1.0" encoding="utf-8"?>
<!-- Generator: Adobe Illustrator 17.0.0, SVG Export Plug-In . SVG Version: 6.00 Build 0)  -->
<!DOCTYPE svg PUBLIC "-//W3C//DTD SVG 1.1//EN" "http://www.w3.org/Graphics/SVG/1.1/DTD/svg11.dtd">
<svg version="1.1" id="Layer_1" xmlns="http://www.w3.org/2000/svg" xmlns:xlink="http://www.w3.org/1999/xlink" x="0px" y="0px"
	 width="42px" height="42px" viewBox="0 0 42 42" enable-background="new 0 0 42 42" xml:space="preserve">
<g>
	<polygon fill="none" points="28.886,10.844 30.707,10.844 28.886,9.023 	"/>
	<polygon fill="#3D6480" points="35.308,29.83 34.105,31.032 35.702,32.628 27.449,32.628 27.449,34.328 35.733,34.328 
		34.137,35.924 35.339,37.125 38.971,33.494 	"/>
	<polygon fill="#EFF9FE" points="27.186,12.544 27.186,9.015 16.388,9.015 16.388,11.325 23.167,11.325 24.875,13.033 
		24.875,14.853 26.696,14.853 28.404,16.562 28.437,27.609 30.751,25.294 30.715,12.544 	"/>
	<polygon fill="#3D6480" points="28.404,16.562 26.696,14.853 24.875,14.853 24.875,13.033 23.167,11.325 16.388,11.325 
		16.388,9.015 27.186,9.015 27.186,12.544 30.715,12.544 30.751,25.294 32.447,23.599 32.415,12.552 30.707,10.844 28.886,10.844 
		28.886,9.023 27.177,7.314 14.688,7.314 14.688,11.325 10.678,11.325 10.678,34.665 21.38,34.665 23.079,32.966 12.378,32.966 
		12.378,13.025 23.175,13.025 23.175,16.554 26.704,16.554 26.741,29.304 28.437,27.609 	"/>
	<polygon fill="#FFFFFF" points="30.707,10.844 32.415,12.552 32.745,12.882 32.741,6.621 26.489,6.626 27.177,7.314 28.886,9.023 	
		"/>
	<path fill="#EFF9FE" d="M23.175,16.554v-3.528H12.378v19.941h10.701l3.662-3.662l-0.037-12.75H23.175z M17.772,26.173h-3.092v-0.8
		h3.092V26.173z M24.452,23.395h-9.771v-0.8h9.771V23.395z M24.452,20.618h-9.771v-0.8h9.771V20.618z"/>
	<rect x="14.681" y="19.818" fill="#3D6480" width="9.771" height="0.8"/>
	<rect x="14.681" y="22.596" fill="#3D6480" width="9.771" height="0.8"/>
	<rect x="14.681" y="25.373" fill="#3D6480" width="3.092" height="0.8"/>
</g>
</svg>
