<?xml version="1.0" encoding="utf-8"?>
<!-- Generator: Adobe Illustrator 17.0.0, SVG Export Plug-In . SVG Version: 6.00 Build 0)  -->
<!DOCTYPE svg PUBLIC "-//W3C//DTD SVG 1.1//EN" "http://www.w3.org/Graphics/SVG/1.1/DTD/svg11.dtd">
<svg version="1.1" id="Layer_1" xmlns="http://www.w3.org/2000/svg" xmlns:xlink="http://www.w3.org/1999/xlink" x="0px" y="0px"
	 width="42px" height="42px" viewBox="0 0 42 42" enable-background="new 0 0 42 42" xml:space="preserve">
<g>
	<polygon fill="#3D6480" points="9.88,11.402 10.557,12.629 12.127,11.752 12.127,18.827 13.629,18.827 13.629,9.952 12.392,9.952 	
		"/>
	<rect x="15.524" y="16.918" fill="#3D6480" width="1.528" height="1.909"/>
	<rect x="18.883" y="16.918" fill="#3D6480" width="1.528" height="1.909"/>
	<path fill="#3D6480" d="M26.105,14.313c0.585-0.408,0.733-0.935,0.733-1.654v-0.774c0-1.37-0.776-2.063-2.692-2.063
		c-0.698,0-1.477,0.107-2.04,0.241l-0.176,0.042l0.168,1.321l0.211-0.041c0.59-0.115,1.232-0.192,1.811-0.192
		c1,0,1.217,0.225,1.217,0.849v0.761c0,0.571-0.185,0.89-1.111,0.89h-1.854v1.37h1.997c0.788,0,1.125,0.239,1.125,0.941v0.656
		c0,0.662-0.275,0.928-1.479,0.928c-0.627,0-1.256-0.063-1.87-0.204l-0.215-0.05l-0.167,1.301l0.156,0.052
		c0.58,0.193,1.458,0.272,2.096,0.272c2.016,0,2.981-0.665,2.981-2.194v-0.853C26.996,15.059,26.661,14.584,26.105,14.313z"/>
	<rect x="28.63" y="16.918" fill="#3D6480" width="1.527" height="1.909"/>
	<rect x="31.987" y="16.918" fill="#3D6480" width="1.529" height="1.909"/>
	<rect x="35.347" y="16.918" fill="#3D6480" width="1.527" height="1.909"/>
	<rect x="5.126" y="30.212" fill="#3D6480" width="1.527" height="1.908"/>
	<rect x="8.483" y="30.212" fill="#3D6480" width="1.529" height="1.908"/>
	<rect x="11.843" y="30.212" fill="#3D6480" width="1.527" height="1.908"/>
	<path fill="#3D6480" d="M18.388,28.822c1.321-1.573,1.541-2.064,1.541-3.172v-0.289c0-1.47-0.649-2.247-2.758-2.247
		c-0.783,0-1.668,0.162-2.248,0.337l-0.168,0.051l0.223,1.34l0.217-0.063c0.483-0.141,1.291-0.28,1.885-0.28
		c1.272,0,1.348,0.209,1.348,0.875v0.381c0,0.538-0.045,0.83-1.382,2.416c-1.035,1.219-1.284,1.507-2.254,2.607l-0.05,0.057v1.285
		h5.268v-1.37h-3.258C17.356,30.064,17.562,29.808,18.388,28.822z"/>
	<rect x="21.802" y="30.212" fill="#3D6480" width="1.529" height="1.908"/>
	<rect x="25.161" y="30.212" fill="#3D6480" width="1.527" height="1.908"/>
	<rect x="28.519" y="30.212" fill="#3D6480" width="1.528" height="1.908"/>
	<path fill="#3D6480" d="M34.589,26.857c-0.519-0.023-0.785-0.026-1.214-0.035v-2.298h3.362v-1.371h-4.866v5.006l0.196,0.004
		c0.656,0.014,1.234,0.014,2.113,0.04c1.004,0.024,1.158,0.284,1.158,0.942v0.578c0,0.794-0.168,1.074-1.402,1.074
		c-0.619,0-1.392-0.064-2.029-0.218l-0.215-0.052l-0.17,1.277l0.157,0.052c0.698,0.233,1.604,0.313,2.271,0.313
		c2.178,0,2.893-0.858,2.893-2.381v-0.762C36.843,27.78,36.264,26.927,34.589,26.857z"/>
</g>
</svg>
