<?xml version="1.0" encoding="utf-8"?>
<!-- Generator: Adobe Illustrator 17.0.0, SVG Export Plug-In . SVG Version: 6.00 Build 0)  -->
<!DOCTYPE svg PUBLIC "-//W3C//DTD SVG 1.1//EN" "http://www.w3.org/Graphics/SVG/1.1/DTD/svg11.dtd">
<svg version="1.1" id="Layer_1" xmlns="http://www.w3.org/2000/svg" xmlns:xlink="http://www.w3.org/1999/xlink" x="0px" y="0px"
	 width="42px" height="42px" viewBox="0 0 42 42" enable-background="new 0 0 42 42" xml:space="preserve">
<g>
	<rect x="4.859" y="19.663" fill="none" width="15.388" height="4.525"/>
	<rect x="4.859" y="30.664" fill="none" width="15.388" height="4.373"/>
	<rect x="4.859" y="24.989" fill="none" width="15.388" height="4.874"/>
	<path fill="#3D6480" d="M3.159,36.736h18.788V17.964H3.159V36.736z M4.859,35.037v-4.373h15.388v4.373H4.859z M4.859,29.863v-4.874
		h15.388v4.874H4.859z M20.247,19.663v4.525H4.859v-4.525H20.247z"/>
	<path fill="#0CB20F" d="M31.96,16.837l-1.344,1.344l0.451,0.451c1.348,1.348,1.348,3.539,0,4.887l-3.205,3.205v-2.763h-1.9v6.007
		h6.008v-1.9h-2.764l3.205-3.205c2.088-2.088,2.088-5.486,0-7.574L31.96,16.837z"/>
	<rect x="30.204" y="10.307" fill="#3D6480" width="2.564" height="1.699"/>
	<rect x="20.284" y="4.313" fill="#3D6480" width="1.792" height="1.677"/>
	<rect x="23.076" y="4.313" fill="#3D6480" width="2.563" height="1.677"/>
	<rect x="26.64" y="4.313" fill="#3D6480" width="2.564" height="1.677"/>
	<rect x="20.284" y="6.989" fill="#3D6480" width="1.7" height="2.311"/>
	<rect x="26.64" y="10.307" fill="#3D6480" width="2.564" height="1.699"/>
	<rect x="23.076" y="10.307" fill="#3D6480" width="2.563" height="1.699"/>
	<polygon fill="#3D6480" points="21.984,10.3 20.284,10.3 20.284,12.006 22.076,12.006 22.076,10.307 21.984,10.307 	"/>
	<rect x="37.372" y="6.989" fill="#3D6480" width="1.7" height="2.311"/>
	<polygon fill="#3D6480" points="37.372,10.307 37.332,10.307 37.332,12.006 39.072,12.006 39.072,10.3 37.372,10.3 	"/>
	<rect x="33.769" y="4.313" fill="#3D6480" width="2.563" height="1.677"/>
	<rect x="33.769" y="10.307" fill="#3D6480" width="2.563" height="1.699"/>
	<rect x="37.332" y="4.313" fill="#3D6480" width="1.74" height="1.677"/>
	<rect x="30.204" y="4.313" fill="#3D6480" width="2.564" height="1.677"/>
</g>
</svg>
