<?xml version="1.0" encoding="utf-8"?>
<!-- Generator: Adobe Illustrator 17.0.0, SVG Export Plug-In . SVG Version: 6.00 Build 0)  -->
<!DOCTYPE svg PUBLIC "-//W3C//DTD SVG 1.1//EN" "http://www.w3.org/Graphics/SVG/1.1/DTD/svg11.dtd">
<svg version="1.1" id="Layer_1" xmlns="http://www.w3.org/2000/svg" xmlns:xlink="http://www.w3.org/1999/xlink" x="0px" y="0px"
	 width="42px" height="42px" viewBox="0 0 42 42" enable-background="new 0 0 42 42" xml:space="preserve">
<g>
	<path fill="#0CB20F" d="M25.145,14.09v4.532l-1.953-1.954l-1.344,1.344l4.247,4.248l4.249-4.248L29,16.668l-1.955,1.954V14.09
		c0-2.953-2.402-5.356-5.355-5.356h-0.638v1.9h0.638C23.595,10.634,25.145,12.184,25.145,14.09z"/>
	<path fill="#3D6480" d="M14.23,13.379l0.404-1.199l-0.547,0.154c-0.139,0.039-0.333,0.074-0.588,0.108
		c-0.257,0.03-0.457,0.046-0.603,0.046c-0.385,0-0.662-0.082-0.863-0.226c-0.211-0.158-0.367-0.368-0.471-0.638
		c-0.141-0.353-0.272-0.701-0.393-1.049l-0.371-1.137c0.31-0.434,0.634-0.832,0.976-1.196c0.331-0.35,0.62-0.618,0.868-0.81
		l0.45,0.108c0.268,0.059,0.514,0.087,0.727,0.087c0.365,0,0.704-0.083,1.017-0.248c0.365-0.197,0.565-0.52,0.576-0.934
		c0.008-0.341-0.137-0.619-0.41-0.82c-0.255-0.199-0.561-0.289-0.9-0.289c-0.369,0-0.743,0.09-1.123,0.263
		c-0.392,0.174-0.795,0.483-1.218,0.911c-0.443,0.444-0.773,0.81-0.982,1.098l-0.387,0.513l-0.053-0.186
		c-0.033-0.134-0.15-0.495-0.355-1.091C9.797,6.311,9.53,5.897,9.145,5.672C8.793,5.457,8.369,5.361,7.882,5.361
		c-0.189,0-0.498,0.066-0.894,0.176C6.589,5.644,6.136,5.782,5.631,5.951L5.492,5.997L5.079,7.161l1.106-0.238
		c0.192-0.038,0.372-0.057,0.541-0.057c0.312,0,0.538,0.055,0.701,0.144c0.126,0.07,0.287,0.258,0.448,0.664
		C8.003,8.005,8.138,8.391,8.278,8.83L8.64,9.916C8.324,10.36,7.985,10.76,7.625,11.11c-0.337,0.334-0.613,0.59-0.831,0.767
		l-0.468-0.123c-0.224-0.074-0.448-0.108-0.686-0.108c-0.45,0.002-0.841,0.098-1.143,0.329c-0.294,0.219-0.47,0.51-0.47,0.869
		c0,0.349,0.144,0.642,0.425,0.847c0.258,0.188,0.575,0.271,0.924,0.271c0.392,0,0.774-0.093,1.144-0.274
		c0.368-0.182,0.757-0.481,1.165-0.881c0.455-0.448,0.792-0.81,0.999-1.078l0.376-0.481l0.071,0.241l0.323,0.965
		c0.189,0.552,0.46,0.982,0.844,1.203c0.355,0.198,0.787,0.29,1.275,0.29c0.384,0,0.741-0.034,1.07-0.1
		c0.325-0.065,0.808-0.204,1.444-0.42L14.23,13.379z"/>
	<path fill="#EFF9FE" d="M14.656,36.162h22.816v-9.635H14.656V36.162z M33.093,28.418h0.957v5.034h2.479v0.821h-3.437V28.418z
		 M28.648,28.418h0.957v5.034h2.479v0.821h-3.437V28.418z M22.508,28.418h0.961v3.705c0,0.483,0.112,0.84,0.336,1.069
		s0.569,0.344,1.033,0.344c0.903,0,1.354-0.474,1.354-1.422v-3.696h0.957v3.789c0,0.433-0.093,0.811-0.278,1.135
		c-0.186,0.325-0.454,0.574-0.805,0.749c-0.351,0.176-0.771,0.263-1.259,0.263c-0.727,0-1.291-0.192-1.694-0.577
		c-0.403-0.384-0.605-0.913-0.605-1.586V28.418z M16.136,28.418h1.162l2.872,4.642h0.024c-0.005-0.062-0.016-0.285-0.032-0.671
		c-0.016-0.386-0.024-0.687-0.024-0.902v-3.068h0.877v5.855H19.84l-2.879-4.666h-0.032l0.02,0.261
		c0.038,0.496,0.056,0.95,0.056,1.361v3.044h-0.869V28.418z"/>
	<path fill="#3D6480" d="M13.656,25.527v11.635h24.816V25.527H13.656z M37.473,36.162H14.656v-9.635h22.816V36.162z"/>
	<path fill="#EA102A" d="M17.005,31.23c0-0.411-0.019-0.865-0.056-1.361l-0.02-0.261h0.032l2.879,4.666h1.174v-5.855h-0.877v3.068
		c0,0.216,0.008,0.517,0.024,0.902c0.016,0.386,0.026,0.609,0.032,0.671h-0.024l-2.872-4.642h-1.162v5.855h0.869V31.23z"/>
	<path fill="#EA102A" d="M24.807,34.354c0.488,0,0.908-0.087,1.259-0.263c0.351-0.175,0.62-0.424,0.805-0.749
		c0.186-0.324,0.278-0.702,0.278-1.135v-3.789h-0.957v3.696c0,0.948-0.451,1.422-1.354,1.422c-0.464,0-0.809-0.114-1.033-0.344
		s-0.336-0.586-0.336-1.069v-3.705h-0.961v3.772c0,0.673,0.202,1.202,0.605,1.586C23.516,34.161,24.081,34.354,24.807,34.354z"/>
	<polygon fill="#EA102A" points="32.084,33.452 29.605,33.452 29.605,28.418 28.648,28.418 28.648,34.273 32.084,34.273 	"/>
	<polygon fill="#EA102A" points="36.53,33.452 34.05,33.452 34.05,28.418 33.093,28.418 33.093,34.273 36.53,34.273 	"/>
</g>
</svg>
