<?xml version="1.0" encoding="utf-8"?>
<!-- Generator: Adobe Illustrator 17.0.0, SVG Export Plug-In . SVG Version: 6.00 Build 0)  -->
<!DOCTYPE svg PUBLIC "-//W3C//DTD SVG 1.1//EN" "http://www.w3.org/Graphics/SVG/1.1/DTD/svg11.dtd">
<svg version="1.1" id="Layer_1" xmlns="http://www.w3.org/2000/svg" xmlns:xlink="http://www.w3.org/1999/xlink" x="0px" y="0px"
	 width="42px" height="42px" viewBox="0 0 42 42" enable-background="new 0 0 42 42" xml:space="preserve">
<g>
	<path fill="none" d="M23.789,3.989c0,0,0-0.065-0.055-0.175c-0.054-0.108-0.271-0.304-0.348-0.293
		c-0.075,0.011-0.401,0.195-0.445,0.261c0,0-0.087,0.131,0.065,0.152s0.326-0.055,0.554,0C23.789,3.989,23.789,3.989,23.789,3.989z"
		/>
	<path fill="none" d="M27.397,3.445c0.087-0.087,0.229-0.325,0.143-0.325c-0.088,0-0.077-0.033-0.187,0.064
		c0,0-0.098,0.055-0.119,0.207C27.212,3.543,27.31,3.532,27.397,3.445z"/>
	<path fill="none" d="M26.332,6.662l-0.065-0.695l-0.239,0.869h1.119l0.011-0.837c0,0-0.141,0.5-0.261,0.598
		C26.777,6.694,26.332,6.662,26.332,6.662z"/>
	<path fill="none" d="M27.082,4.314c-0.207,0-0.338,0.033-0.457,0.065c-0.119,0.033-0.229,0.163-0.229,0.163l-0.021,0.956
		l0.369-0.88l0.545,0.021l0.021,0.88c0,0,0.282-0.771,0.315-0.858c0.032-0.086,0.064-0.151,0.021-0.206
		C27.603,4.402,27.289,4.314,27.082,4.314z"/>
	<path fill="none" d="M29.178,23.269c-0.041-0.021-0.091-0.035-0.139-0.051l0.108,0.081L29.178,23.269z"/>
	<polygon fill="none" points="28.104,24.344 28.184,24.264 28.005,24.166 	"/>
	<path fill="#3D6480" d="M12.461,22.182c0,0-0.039-0.368,0.093-1.053s0.526-3.066,0.526-3.066l-4.014-0.895l0.237,4.619
		c0,0,0.145,0.618,0.474,0.895s1.764,1.079,2.053,1.197s0.513,0.211,0.513,0.211l-0.289-0.526l0.815,0.46l-0.302-0.526l0.842,0.448
		l-0.211-0.408l0.764,0.355l-0.29-0.421l0.724,0.118L12.461,22.182z"/>
	<path fill="#3D6480" d="M28.005,24.166l0.179,0.098l0.964-0.965l-0.108-0.081c-0.242-0.079-0.571-0.097-1.031-0.097h-1.25v-3.545
		h1.005l-1.138-4.971c0,0-0.098-0.413-0.043-0.913c0.054-0.5,0.086-0.63-0.022-1.064s-0.228-0.576-0.228-0.576
		s-0.163,0.805-0.338,1.174c-0.174,0.369-0.564,0.924-0.564,0.924s0.441-1.767,0.244-2.886c-0.195-1.119-1.103-2.048-1.103-2.048
		s-0.304,0.935-0.663,1.391c-0.358,0.457-0.424,0.555-0.424,0.555s0.435-0.892,0.544-1.391c0.108-0.5,0.174-0.945,0.174-0.945
		s1.173,0.011,1.837-0.195c0.662-0.207,1.086-0.772,1.205-0.989c0.12-0.218,0.12-0.521,0.12-0.521s-0.348,0.326-0.968,0.271
		c-0.619-0.054-1.15-0.532-1.4-0.967S24.821,6.02,24.69,5.77c-0.13-0.25-0.217-0.304-0.26-0.412c-0.044-0.109,0-0.315,0.217-0.718
		c0.217-0.401,0.478-0.685,1.032-0.717c0.554-0.032,1.271-0.076,1.445-0.131C27.299,3.739,27.733,3.892,27.842,4
		c0.108,0.108,0.098,0.195,0.098,0.195s-0.749-0.207-1.13-0.119c-0.38,0.087-1.348,0.586-1.521,0.869
		c-0.175,0.282-0.315,0.706,0,1.228c0.314,0.521,0.728,0.978,1.205,0.989c0.479,0.011,0.858-0.131,0.945-0.25
		c0.088-0.12,0.065-0.25-0.032-0.5s-0.195-0.5-0.131-0.652c0.065-0.152,0.056-0.326,0.511-0.761
		c0.457-0.435,0.642-0.511,0.631-0.782s-0.086-0.478-0.239-0.5c-0.152-0.021-0.511,0.055-0.511-0.032s0.011-0.467,0.119-0.467
		c0.109,0,0.131,0.141,0.076,0.174c-0.054,0.032,0.021,0.293,0.185,0.098c0.163-0.196,0.218-0.532-0.216-0.685
		c0,0-0.425-0.185-1.152,0.261c-0.729,0.445-1.924,0.239-2.597,0.044C23.409,2.913,22.528,3,22.17,3.131
		c-0.358,0.13-0.814,0.151-1.086,0.021c-0.271-0.131-0.826-0.282-0.945-0.065c-0.12,0.218-0.12,0.913-0.044,1.054
		c0.076,0.142,0.403,0.511,0.403,0.511S18.823,5.38,18.324,6.13c-0.5,0.749-0.729,1.89-0.729,1.89S16.9,7.748,15.868,8.313
		c-1.032,0.564-2.173,1.478-2.173,1.478s0.391-0.685,0.576-0.924c0.186-0.238,0.336-0.423,0.336-0.423S11.055,8.28,9.295,8.976
		c-1.761,0.696-3.651,1.619-4.715,3.456c-1.065,1.836-1.479,4.313-1.686,5.812c-0.206,1.5-0.63,4.324-0.63,4.411
		s-0.152,0.979,0.142,1.185c0.293,0.206,2.824,1.185,2.824,1.185l-0.195-0.445l0.619,0.369l-0.108-0.38l0.739,0.348l-0.229-0.37
		l0.674,0.25l-0.305-0.369l0.761,0.239l-1.825-1.152c0,0,1.25-4.14,1.912-4.954c0.663-0.815,1.967-2.228,3.151-1.793
		s4.303,1.543,4.303,1.543l1.836-4.922c0,0-1.13,4.248-0.761,5.933c0.37,1.684,1.532,3.194,1.532,3.194s-0.13,0.391,0.294,0.793
		c0.423,0.402,1.662,1.348,2.021,1.467s0.619,0.282,0.619,0.282l-0.206-0.467l0.901,0.576l-0.25-0.544l0.729,0.576l-0.12-0.457
		l0.826,0.468L21.92,24.73l0.718,0.283l-1.858-1.739l-0.479-3.64l-1.249-0.913l-1.282-4.215l1.608,3.324
		c0,0,0.554,1.239,1.651,1.217c1.098-0.021,1.488-0.054,2.173-0.706c0.685-0.651,1.021-1.087,1.021-1.087l-0.88,1.706
		c0,0-0.174,0.175,0,0.608c0.174,0.435,1.108,1.848,1.38,2.141c0.272,0.294,0.587,0.826,0.651,1.032
		c0.065,0.207,0.587,0.956,1.271,1.25c0.418,0.179,0.935,0.393,1.275,0.534l0.182-0.182L28.005,24.166z M27.147,6.836h-1.119
		l0.239-0.869l0.065,0.695c0,0,0.445,0.032,0.564-0.065c0.12-0.098,0.261-0.598,0.261-0.598L27.147,6.836z M27.625,4.662
		C27.592,4.749,27.31,5.52,27.31,5.52l-0.021-0.88l-0.545-0.021l-0.369,0.88l0.021-0.956c0,0,0.109-0.13,0.229-0.163
		c0.119-0.032,0.25-0.065,0.457-0.065s0.521,0.088,0.564,0.142C27.689,4.511,27.657,4.576,27.625,4.662z M27.353,3.185
		c0.109-0.098,0.099-0.064,0.187-0.064c0.086,0-0.056,0.238-0.143,0.325s-0.185,0.098-0.163-0.054
		C27.255,3.239,27.353,3.185,27.353,3.185z M23.007,3.935c-0.152-0.021-0.065-0.152-0.065-0.152c0.044-0.065,0.37-0.25,0.445-0.261
		c0.076-0.011,0.294,0.185,0.348,0.293c0.055,0.109,0.055,0.175,0.055,0.175s0,0-0.229-0.055C23.333,3.88,23.159,3.956,23.007,3.935
		z"/>
	<path fill="#FFFFFF" d="M38.457,31.468v4.41v0.037l-6.999,3.533l-7-3.533v-4.131l-2.178-1.133l2.211-3.002l3.801-1.586l0.023,0.056
		l0.39-0.165l-0.204-0.204l0.738-0.738l1.65,1.65v-0.037v-1.709c0-2.25-0.726-3.01-2.883-3.01v-1.045
		c2.715,0,3.926,1.252,3.926,4.055v1.74l1.565-1.564l0.737,0.738l-0.1,0.099l0.272,0.113l0.025-0.06l3.99,1.666l1.857,2.811
		L38.457,31.468z"/>
	<polygon fill="#FFEBCD" points="33.149,34.405 31.56,32.044 31.56,38.311 37.489,35.319 37.489,32.003 	"/>
	<polygon fill="#FFEBCD" points="29.294,33.251 30.675,31.368 25.093,28.55 23.702,30.339 	"/>
	<polygon fill="#FFEBCD" points="31.121,32.341 29.573,34.45 25.425,32.288 25.425,35.319 31.121,38.194 	"/>
	<polygon fill="#FFEBCD" points="26.075,28.001 31.455,30.716 36.769,27.97 34.073,26.845 34.408,26.043 34.136,25.93 
		31.409,28.657 28.705,25.955 28.315,26.12 28.651,26.925 	"/>
	<polygon fill="#FFEBCD" points="37.804,28.487 32.23,31.366 33.446,33.173 38.931,30.14 	"/>
	<polygon fill="#FFEBCD" points="38.423,35.894 31.458,39.411 24.491,35.894 24.491,31.802 24.458,31.784 24.458,35.915 
		31.458,39.448 38.457,35.915 38.457,35.878 38.457,31.468 38.423,31.487 	"/>
	<path fill="#3D6480" d="M38.423,27.649l-3.99-1.666l-0.025,0.06l-0.334,0.802l2.695,1.125l-5.313,2.746l-5.38-2.715l2.576-1.076
		l-0.336-0.805l-0.023-0.056l-3.801,1.586l-2.211,3.002l2.178,1.133l0.033,0.017v4.092l6.967,3.518l6.965-3.518v-4.406l0.034-0.019
		l1.823-1.008L38.423,27.649z M23.702,30.339l1.391-1.789l5.582,2.818l-1.381,1.883L23.702,30.339z M25.425,35.319v-3.031
		l4.148,2.162l1.548-2.109v5.854L25.425,35.319z M37.489,35.319l-5.93,2.992v-6.268l1.59,2.361l4.34-2.402V35.319z M33.446,33.173
		l-1.217-1.807l5.574-2.879l1.127,1.652L33.446,33.173z"/>
	<path fill="#0CB20F" d="M34.136,25.93l0.1-0.099l-0.737-0.738l-1.565,1.564v-1.74c0-2.803-1.211-4.055-3.926-4.055v1.045
		c2.157,0,2.883,0.76,2.883,3.01v1.709v0.037l-1.65-1.65l-0.738,0.738l0.204,0.204l2.704,2.702L34.136,25.93z"/>
</g>
</svg>
