<?xml version="1.0" encoding="utf-8"?>
<!-- Generator: Adobe Illustrator 17.0.0, SVG Export Plug-In . SVG Version: 6.00 Build 0)  -->
<!DOCTYPE svg PUBLIC "-//W3C//DTD SVG 1.1//EN" "http://www.w3.org/Graphics/SVG/1.1/DTD/svg11.dtd">
<svg version="1.1" id="Layer_1" xmlns="http://www.w3.org/2000/svg" xmlns:xlink="http://www.w3.org/1999/xlink" x="0px" y="0px"
	 width="42px" height="42px" viewBox="0 0 42 42" enable-background="new 0 0 42 42" xml:space="preserve">
<g>
	<polygon fill="#3D6480" points="37.235,32.635 37.235,35.717 32.011,30.492 30.667,31.836 35.892,37.062 32.747,37.062 
		32.748,38.963 39.135,38.96 39.135,32.635 	"/>
	<polygon fill="#DBF3DB" points="10.137,14.992 10.137,32.049 24.225,32.049 27.278,28.995 27.278,14.992 	"/>
	<polygon fill="#DBF3DB" points="15.029,9.951 10.79,14.191 27.453,14.191 31.692,9.951 	"/>
	<polygon fill="#DBF3DB" points="32.103,10.672 28.078,14.698 28.078,28.196 32.103,24.17 	"/>
	<path fill="#3D6480" d="M32.103,10.672V24.17l1.7-1.7V8.252H14.325l-5.888,5.889v19.607h14.088l1.699-1.699H10.137V14.992h17.141
		v14.003l0.8-0.8V14.698L32.103,10.672z M27.453,14.191H10.79l4.239-4.24h16.663L27.453,14.191z"/>
</g>
</svg>
