<?xml version="1.0" encoding="utf-8"?>
<!-- Generator: Adobe Illustrator 17.0.0, SVG Export Plug-In . SVG Version: 6.00 Build 0)  -->
<!DOCTYPE svg PUBLIC "-//W3C//DTD SVG 1.1//EN" "http://www.w3.org/Graphics/SVG/1.1/DTD/svg11.dtd">
<svg version="1.1" id="Layer_1" xmlns="http://www.w3.org/2000/svg" xmlns:xlink="http://www.w3.org/1999/xlink" x="0px" y="0px"
	 width="42px" height="42px" viewBox="0 0 42 42" enable-background="new 0 0 42 42" xml:space="preserve">
<g>
	<polygon fill="none" points="35.278,33.981 29.572,31.318 29.572,36.639 	"/>
	<path fill="#0CB20F" d="M39.654,33.983l-11.496-5.368l-0.435,0.435v10.49L39.654,33.983z M35.278,33.981l-5.705,2.657v-5.32
		L35.278,33.981z"/>
	<circle fill="#B9D4EE" cx="21.665" cy="21.902" r="0.296"/>
	<path fill="#B9D4EE" d="M32.94,23.833v-11.05c0-1.633-1.329-2.96-2.961-2.96H12.547c-1.633,0-2.961,1.327-2.961,2.96v17.432
		c0,1.634,1.329,2.962,2.961,2.962h11.05l4.126-4.126l0.435-0.435L32.94,23.833z M21.665,30.8c-4.905,0-8.895-3.991-8.895-8.897
		c0-4.904,3.99-8.896,8.895-8.896c4.906,0,8.897,3.991,8.897,8.896C30.562,26.809,26.571,30.8,21.665,30.8z"/>
	<path fill="#146CC5" d="M9.586,30.215V12.783c0-1.633,1.329-2.96,2.961-2.96h17.432c1.633,0,2.961,1.327,2.961,2.96v11.05
		l1.38-1.38v-9.67c0-2.394-1.947-4.341-4.341-4.341H12.547c-2.394,0-4.341,1.947-4.341,4.341v17.432
		c0,2.395,1.947,4.343,4.341,4.343h9.669l1.381-1.381h-11.05C10.914,33.177,9.586,31.849,9.586,30.215z"/>
	<path fill="#FFF101" d="M21.665,14.388c-4.144,0-7.515,3.371-7.515,7.515c0,4.145,3.371,7.517,7.515,7.517
		c4.145,0,7.517-3.372,7.517-7.517C29.182,17.759,25.81,14.388,21.665,14.388z M21.665,23.923c-1.114,0-2.02-0.906-2.02-2.021
		s0.906-2.021,2.02-2.021c1.114,0,2.021,0.906,2.021,2.021S22.779,23.923,21.665,23.923z"/>
	<path fill="#146CC5" d="M30.562,21.902c0-4.904-3.991-8.896-8.897-8.896c-4.905,0-8.895,3.991-8.895,8.896
		c0,4.906,3.99,8.897,8.895,8.897C26.571,30.8,30.562,26.809,30.562,21.902z M21.665,29.419c-4.144,0-7.515-3.372-7.515-7.517
		c0-4.144,3.371-7.515,7.515-7.515c4.145,0,7.517,3.371,7.517,7.515C29.182,26.047,25.81,29.419,21.665,29.419z"/>
	<path fill="#146CC5" d="M21.665,19.882c-1.114,0-2.02,0.906-2.02,2.021s0.906,2.021,2.02,2.021c1.114,0,2.021-0.906,2.021-2.021
		S22.779,19.882,21.665,19.882z M21.665,22.198c-0.163,0-0.295-0.133-0.295-0.296s0.132-0.296,0.295-0.296
		c0.163,0,0.296,0.133,0.296,0.296S21.828,22.198,21.665,22.198z"/>
</g>
</svg>
