<?xml version="1.0" encoding="utf-8"?>
<!-- Generator: Adobe Illustrator 18.0.0, SVG Export Plug-In . SVG Version: 6.00 Build 0)  -->
<!DOCTYPE svg PUBLIC "-//W3C//DTD SVG 1.1//EN" "http://www.w3.org/Graphics/SVG/1.1/DTD/svg11.dtd">
<svg version="1.1" xmlns="http://www.w3.org/2000/svg" xmlns:xlink="http://www.w3.org/1999/xlink" x="0px" y="0px"
	 viewBox="0 0 16 16" enable-background="new 0 0 16 16" xml:space="preserve">
<g id="Layer_2">
	<g id="Layer_2_1_">
		<rect fill="none" width="16" height="16"/>
	</g>
</g>
<g id="art">
	<path fill="#3D6480" d="M15.7,6.7l-9,9c-0.1,0.1-0.3,0.1-0.4,0L4.7,14c-0.1-0.1-0.1-0.3,0-0.4l9-9c0.1-0.1,0.3-0.1,0.4,0l1.7,1.7
		C15.8,6.4,15.8,6.6,15.7,6.7L15.7,6.7z M11.3,2L9.7,0.3c-0.1-0.1-0.3-0.1-0.4,0l-9,9c-0.1,0.1-0.1,0.3,0,0.4L2,11.3
		c0.1,0.1,0.3,0.1,0.4,0l9-9C11.5,2.3,11.5,2.1,11.3,2L11.3,2z M11.3,2"/>
	<rect x="3.3" y="1.4" transform="matrix(-0.7071 -0.7071 0.7071 -0.7071 7.9999 19.3137)" fill="none" width="9.4" height="13.3"/>
</g>
</svg>
