<?xml version="1.0" encoding="utf-8"?>
<!-- Generator: Adobe Illustrator 17.0.0, SVG Export Plug-In . SVG Version: 6.00 Build 0)  -->
<!DOCTYPE svg PUBLIC "-//W3C//DTD SVG 1.1//EN" "http://www.w3.org/Graphics/SVG/1.1/DTD/svg11.dtd">
<svg version="1.1" id="Layer_1" xmlns="http://www.w3.org/2000/svg" xmlns:xlink="http://www.w3.org/1999/xlink" x="0px" y="0px"
	 width="42px" height="42px" viewBox="0 0 42 42" enable-background="new 0 0 42 42" xml:space="preserve">
<g>
	<polygon fill="#3D6480" points="37.235,32.147 37.235,35.229 32.011,30.004 30.667,31.348 35.892,36.574 32.747,36.575 
		32.748,38.475 39.135,38.472 39.135,32.147 	"/>
	<path fill="#EFF9FE" d="M12.272,8.307v24.41h11.284l6.395-6.395L29.908,8.307H12.272z M17.609,24.786h-2.439v-0.801h2.439V24.786z
		 M17.609,21.004h-2.439v-0.801h2.439V21.004z M17.609,17.223h-2.439v-0.801h2.439V17.223z M17.609,13.442h-2.439v-0.801h2.439
		V13.442z M27.071,24.786h-6.643v-0.801h6.643V24.786z M27.071,21.004h-6.643v-0.801h6.643V21.004z M27.071,17.223h-6.643v-0.801
		h6.643V17.223z M27.071,13.442h-6.643v-0.801h6.643V13.442z"/>
	<polygon fill="#3D6480" points="31.604,6.608 10.572,6.608 10.572,34.416 21.857,34.416 23.556,32.717 12.272,32.717 12.272,8.307 
		29.908,8.307 29.951,26.322 31.647,24.626 	"/>
	<rect x="15.169" y="16.422" fill="#3D6480" width="2.439" height="0.801"/>
	<rect x="20.429" y="16.422" fill="#3D6480" width="6.643" height="0.801"/>
	<rect x="15.169" y="20.203" fill="#3D6480" width="2.439" height="0.801"/>
	<rect x="20.429" y="20.203" fill="#3D6480" width="6.643" height="0.801"/>
	<rect x="15.169" y="23.986" fill="#3D6480" width="2.439" height="0.801"/>
	<rect x="20.429" y="23.986" fill="#3D6480" width="6.643" height="0.801"/>
	<rect x="15.169" y="12.641" fill="#3D6480" width="2.439" height="0.801"/>
	<rect x="20.429" y="12.641" fill="#3D6480" width="6.643" height="0.801"/>
</g>
</svg>
