<?xml version="1.0" encoding="utf-8"?>
<!-- Generator: Adobe Illustrator 17.0.0, SVG Export Plug-In . SVG Version: 6.00 Build 0)  -->
<!DOCTYPE svg PUBLIC "-//W3C//DTD SVG 1.1//EN" "http://www.w3.org/Graphics/SVG/1.1/DTD/svg11.dtd">
<svg version="1.1" id="Layer_1" xmlns="http://www.w3.org/2000/svg" xmlns:xlink="http://www.w3.org/1999/xlink" x="0px" y="0px"
	 width="42px" height="42px" viewBox="0 0 42 42" enable-background="new 0 0 42 42" xml:space="preserve">
<g>
	<polygon fill="#3D6480" points="5.198,11.576 11.586,11.575 11.586,5.247 9.685,5.247 9.685,8.33 4.461,3.106 3.118,4.45 
		8.342,9.675 5.198,9.675 	"/>
	<path fill="#EFF9FE" d="M29.7,32.996L29.642,8.584H19.435l-4.334,4.334h2.241v0.801h-2.439v-0.603l-2.897,2.897v16.982H29.7z
		 M20.163,12.918h6.643v0.801h-6.643V12.918z M20.163,16.701h6.643v0.801h-6.643V16.701z M20.163,20.482h6.643v0.801h-6.643V20.482z
		 M20.163,24.263h6.643v0.801h-6.643V24.263z M14.903,16.701h2.439v0.801h-2.439V16.701z M14.903,20.482h2.439v0.801h-2.439V20.482z
		 M14.903,24.263h2.439v0.801h-2.439V24.263z"/>
	<polygon fill="#3D6480" points="31.338,6.885 21.134,6.885 19.435,8.584 29.642,8.584 29.7,32.996 12.006,32.996 12.006,16.014 
		10.306,17.714 10.306,34.695 31.404,34.695 	"/>
	<rect x="14.903" y="16.701" fill="#3D6480" width="2.439" height="0.801"/>
	<rect x="20.163" y="16.701" fill="#3D6480" width="6.643" height="0.801"/>
	<rect x="14.903" y="20.482" fill="#3D6480" width="2.439" height="0.801"/>
	<rect x="20.163" y="20.482" fill="#3D6480" width="6.643" height="0.801"/>
	<rect x="14.903" y="24.263" fill="#3D6480" width="2.439" height="0.801"/>
	<rect x="20.163" y="24.263" fill="#3D6480" width="6.643" height="0.801"/>
	<polygon fill="#3D6480" points="17.342,13.719 17.342,12.918 15.101,12.918 14.903,13.117 14.903,13.719 	"/>
	<rect x="20.163" y="12.918" fill="#3D6480" width="6.643" height="0.801"/>
</g>
</svg>
