<?xml version="1.0" encoding="utf-8"?>
<!-- Generator: Adobe Illustrator 17.0.0, SVG Export Plug-In . SVG Version: 6.00 Build 0)  -->
<!DOCTYPE svg PUBLIC "-//W3C//DTD SVG 1.1//EN" "http://www.w3.org/Graphics/SVG/1.1/DTD/svg11.dtd">
<svg version="1.1" id="Layer_1" xmlns="http://www.w3.org/2000/svg" xmlns:xlink="http://www.w3.org/1999/xlink" x="0px" y="0px"
	 width="42px" height="42px" viewBox="0 0 42 42" enable-background="new 0 0 42 42" xml:space="preserve">
<g>
	<polygon fill="#FFEBCD" points="26.075,27.494 31.454,30.209 36.769,27.463 34.073,26.338 34.408,25.536 34.136,25.424 
		31.409,28.15 28.705,25.448 28.315,25.613 28.651,26.418 	"/>
	<polygon fill="#FFEBCD" points="38.931,29.633 37.804,27.98 32.229,30.859 33.446,32.666 	"/>
	<polygon fill="#FFEBCD" points="38.423,30.98 38.423,35.387 31.458,38.904 24.491,35.387 24.491,31.295 24.458,31.278 
		24.458,35.408 31.458,38.941 38.456,35.408 38.456,30.962 	"/>
	<polygon fill="#FFEBCD" points="25.425,31.781 25.425,34.812 31.12,37.687 31.12,31.834 29.573,33.943 	"/>
	<polygon fill="#FFEBCD" points="30.675,30.861 25.093,28.043 23.702,29.832 29.294,32.744 	"/>
	<polygon fill="#FFEBCD" points="37.489,31.496 33.149,33.898 31.56,31.537 31.56,37.805 37.489,34.812 	"/>
	<path fill="#3D6480" d="M24.491,35.387l6.967,3.518l6.965-3.518V30.98l0.033-0.018l1.824-1.009l-1.857-2.811l-3.99-1.666
		l-0.025,0.06l-0.334,0.802l2.695,1.125l-5.314,2.746l-5.379-2.715l2.576-1.076l-0.336-0.805l-0.023-0.056l-3.801,1.586
		l-2.211,3.002l2.178,1.133l0.033,0.017V35.387z M37.804,27.98l1.127,1.652l-5.484,3.033l-1.217-1.807L37.804,27.98z M31.56,31.537
		l1.59,2.361l4.34-2.402v3.316l-5.93,2.992V31.537z M31.12,37.687l-5.695-2.875v-3.031l4.148,2.162l1.547-2.109V37.687z
		 M23.702,29.832l1.391-1.789l5.582,2.818l-1.381,1.883L23.702,29.832z"/>
	<path fill="#0CB20F" d="M34.136,25.424l0.1-0.099l-0.738-0.738l-1.564,1.564v-1.74c0-2.803-1.211-4.055-3.926-4.055V21.4
		c2.156,0,2.883,0.76,2.883,3.01v1.746l-1.65-1.65l-0.738,0.738l0.204,0.204l2.704,2.702L34.136,25.424z"/>
	<path fill="#FFFFFF" d="M26.447,18.71c0.238-0.224,0.464-0.612,0.229-0.917c-0.241-0.279-0.653-0.202-0.972-0.14
		c-0.767,0.136-1.6,0.296-2.342-0.022c1.325-2.091,2.367-4.375,2.95-6.784c0.212-0.916,0.375-1.853,0.346-2.795
		c-0.023-0.529-0.098-1.091-0.42-1.527c-0.799-1.053-1.955-1.819-3.23-2.162c-1.593-0.432-3.302-0.304-4.87,0.181
		c-0.129,0.026-0.257-0.031-0.384-0.048c-1.422-0.289-2.99-0.176-4.224,0.648c-1.48-0.532-3.073-0.854-4.649-0.689
		C7.709,4.576,6.532,5.12,5.858,6.118c-0.851,1.245-0.965,2.837-0.83,4.297c0.274,1.938,0.746,3.846,1.348,5.706
		c0.396,1.161,0.832,2.329,1.537,3.343c0.357,0.498,0.834,0.999,1.474,1.078c0.569,0.069,1.083-0.284,1.432-0.702
		c0.604-0.722,1.224-1.431,1.867-2.115c0.42,0.206,0.877,0.324,1.343,0.358c-0.253,0.301-0.461,0.691-0.862,0.809
		c-0.542,0.209-1.176,0.182-1.653,0.542c-0.275,0.197-0.289,0.626-0.042,0.854c0.447,0.434,1.108,0.527,1.702,0.577
		c0.844,0.063,1.695-0.22,2.337-0.772c-0.004,1.342,0.002,2.687,0.153,4.021c0.074,0.78,0.412,1.56,1.006,2.084
		c0.561,0.488,1.357,0.591,2.068,0.467c0.697-0.132,1.415-0.342,1.96-0.818c0.579-0.511,0.826-1.282,0.941-2.021
		c0.208-1.326,0.366-2.658,0.517-3.991C23.646,20.084,25.334,19.799,26.447,18.71z M23.368,5.184
		c0.896,0.339,1.689,0.93,2.287,1.677c0.284,0.357,0.32,0.836,0.34,1.274c0.012,1.045-0.199,2.078-0.468,3.084
		c-0.513,1.861-1.293,3.645-2.273,5.305c-0.097,0.164-0.201,0.321-0.317,0.472c-0.01-0.046-0.027-0.139-0.036-0.185
		c0.121-0.319,0.299-0.621,0.368-0.961c0.246-0.958,0.038-1.944-0.051-2.908c-0.092-0.91,0.219-1.795,0.211-2.703
		c0.035-0.444-0.141-0.865-0.312-1.264c-0.618-1.382-1.602-2.612-2.862-3.456c-0.308-0.212-0.652-0.359-0.959-0.571
		C20.638,4.659,22.075,4.696,23.368,5.184z M22.551,12.943c0.078,1.076,0.391,2.232-0.117,3.254
		c-0.681-1.354-1.56-2.646-1.867-4.154c-0.087-0.481-0.108-1.088,0.317-1.422c0.541-0.384,1.248-0.298,1.873-0.259
		C22.729,11.227,22.464,12.073,22.551,12.943z M10.383,19.32c-0.244,0.288-0.574,0.631-0.989,0.545
		c-0.487-0.141-0.797-0.585-1.068-0.984c-0.732-1.172-1.175-2.495-1.578-3.81c-0.454-1.556-0.836-3.136-1.056-4.743
		C5.582,9.105,5.65,7.795,6.276,6.706c0.469-0.824,1.342-1.35,2.26-1.521c1.469-0.282,2.977,0.018,4.386,0.447
		c-0.621,0.684-1.105,1.488-1.389,2.37c-0.385,1.178-0.561,2.43-0.469,3.667c0.053,0.872,0.03,1.747-0.091,2.612
		c-0.152,1.129,0.301,2.29,1.139,3.053C11.542,18.001,10.937,18.638,10.383,19.32z M11.67,15.277
		c-0.144-0.64,0.044-1.282,0.065-1.923c0.05-0.726-0.001-1.451-0.017-2.176c0.679-0.438,1.472-0.781,2.292-0.735
		c0.425,0.019,0.818,0.319,0.92,0.738c0.372,1.485,0.487,3.137-0.227,4.544c-0.248,0.542-0.451,1.104-0.625,1.675
		C12.891,17.412,11.88,16.408,11.67,15.277z M15.367,19.252c-0.746,1.01-2.239,1.203-3.317,0.653
		c0.532-0.247,1.154-0.228,1.667-0.53c0.497-0.268,0.693-0.855,1.158-1.158C15.38,18.145,15.749,18.896,15.367,19.252z
		 M21.765,18.071c-0.283,0.457-0.184,1.014-0.253,1.521c-0.163,1.421-0.323,2.843-0.555,4.254c-0.109,0.676-0.396,1.396-1.035,1.731
		c-0.654,0.333-1.415,0.542-2.151,0.43c-0.698-0.123-1.139-0.774-1.337-1.409c-0.144-0.532-0.16-1.088-0.201-1.636
		c-0.069-1.321-0.071-2.646-0.037-3.97c0.029-0.517-0.236-1.055-0.696-1.306c-0.224-0.126-0.485-0.143-0.735-0.163
		c0.196-0.973,0.788-1.812,0.991-2.782c0.264-1.202,0.119-2.452-0.151-3.639c-0.131-0.592-0.581-1.115-1.182-1.26
		c-0.922-0.232-1.854,0.129-2.679,0.515c0.104-1.342,0.463-2.714,1.285-3.803c0.604-0.81,1.541-1.351,2.541-1.481
		c1.65-0.209,3.385,0.245,4.694,1.277c1.084,0.855,1.94,2.017,2.401,3.321c-0.767-0.028-1.637-0.059-2.256,0.474
		c-0.563,0.475-0.635,1.284-0.509,1.964c0.294,1.617,1.247,2.991,1.951,4.444c0.187,0.342,0.438,0.639,0.677,0.944
		C22.245,17.642,21.927,17.779,21.765,18.071z M22.217,19.125c0.002-0.277-0.013-0.604,0.209-0.81
		c0.177-0.13,0.426-0.249,0.63-0.107c0.864,0.455,1.87,0.233,2.789,0.122c-0.562,0.546-1.34,0.802-2.105,0.885
		C23.232,19.275,22.706,19.293,22.217,19.125z"/>
	<path fill="#FFFFFF" d="M21.084,10.824c-0.181,0.148,0.014,0.368,0.169,0.438c0.374,0.221,0.888-0.088,0.901-0.517
		C21.815,10.589,21.39,10.605,21.084,10.824z"/>
	<path fill="#FFFFFF" d="M14.447,11.507c0.159-0.091,0.328-0.339,0.144-0.488c-0.264-0.215-0.647-0.256-0.967-0.169
		c-0.104,0.035-0.211,0.106-0.191,0.232C13.507,11.513,14.084,11.774,14.447,11.507z"/>
	<path fill="#326690" d="M23.117,8.975c0.171,0.398,0.347,0.819,0.312,1.264c0.008,0.908-0.303,1.793-0.211,2.703
		c0.089,0.964,0.297,1.95,0.051,2.908c-0.069,0.34-0.247,0.642-0.368,0.961c0.009,0.046,0.026,0.139,0.036,0.185
		c0.116-0.15,0.221-0.308,0.317-0.472c0.98-1.66,1.761-3.443,2.273-5.305c0.269-1.006,0.479-2.039,0.468-3.084
		c-0.02-0.438-0.056-0.917-0.34-1.274c-0.598-0.747-1.392-1.338-2.287-1.677c-1.293-0.487-2.73-0.524-4.072-0.236
		c0.307,0.212,0.651,0.359,0.959,0.571C21.516,6.362,22.499,7.593,23.117,8.975z"/>
	<path fill="#326690" d="M21.852,16.554c-0.704-1.453-1.657-2.827-1.951-4.444c-0.126-0.68-0.054-1.489,0.509-1.964
		c0.619-0.532,1.489-0.502,2.256-0.474c-0.461-1.305-1.317-2.466-2.401-3.321c-1.31-1.032-3.044-1.486-4.694-1.277
		c-1,0.131-1.938,0.672-2.541,1.481c-0.822,1.089-1.181,2.461-1.285,3.803c0.825-0.386,1.757-0.747,2.679-0.515
		c0.601,0.145,1.051,0.668,1.182,1.26c0.271,1.187,0.415,2.437,0.151,3.639c-0.203,0.971-0.795,1.81-0.991,2.782
		c0.25,0.021,0.512,0.037,0.735,0.163c0.46,0.251,0.726,0.789,0.696,1.306c-0.034,1.323-0.032,2.648,0.037,3.97
		c0.041,0.548,0.058,1.104,0.201,1.636c0.198,0.635,0.639,1.286,1.337,1.409c0.736,0.112,1.497-0.097,2.151-0.43
		c0.639-0.336,0.926-1.056,1.035-1.731c0.231-1.411,0.392-2.833,0.555-4.254c0.069-0.507-0.03-1.063,0.253-1.521
		c0.162-0.292,0.48-0.43,0.764-0.573C22.29,17.192,22.038,16.895,21.852,16.554z"/>
	<path fill="#326690" d="M10.974,14.281c0.121-0.865,0.144-1.74,0.091-2.612c-0.092-1.237,0.084-2.489,0.469-3.667
		c0.283-0.882,0.768-1.687,1.389-2.37c-1.409-0.43-2.917-0.729-4.386-0.447c-0.918,0.172-1.791,0.697-2.26,1.521
		C5.65,7.795,5.582,9.105,5.691,10.328c0.22,1.607,0.602,3.188,1.056,4.743c0.403,1.314,0.846,2.638,1.578,3.81
		c0.271,0.399,0.581,0.844,1.068,0.984c0.415,0.086,0.745-0.257,0.989-0.545c0.554-0.683,1.159-1.319,1.729-1.986
		C11.274,16.571,10.821,15.41,10.974,14.281z"/>
	<path fill="#326690" d="M20.884,10.621c-0.426,0.334-0.404,0.94-0.317,1.422c0.308,1.508,1.187,2.8,1.867,4.154
		c0.508-1.021,0.195-2.178,0.117-3.254c-0.087-0.87,0.179-1.717,0.206-2.581C22.132,10.323,21.425,10.237,20.884,10.621z
		 M21.253,11.263c-0.155-0.07-0.35-0.29-0.169-0.438c0.306-0.219,0.731-0.235,1.07-0.078C22.141,11.175,21.627,11.483,21.253,11.263
		z"/>
	<path fill="#326690" d="M14.704,15.726c0.714-1.407,0.599-3.059,0.227-4.544c-0.102-0.419-0.495-0.72-0.92-0.738
		c-0.82-0.046-1.613,0.297-2.292,0.735c0.016,0.725,0.066,1.45,0.017,2.176c-0.021,0.641-0.209,1.283-0.065,1.923
		c0.21,1.131,1.221,2.135,2.409,2.123C14.253,16.83,14.456,16.268,14.704,15.726z M13.433,11.082
		c-0.02-0.126,0.088-0.197,0.191-0.232c0.319-0.087,0.703-0.046,0.967,0.169c0.185,0.149,0.016,0.397-0.144,0.488
		C14.084,11.774,13.507,11.513,13.433,11.082z"/>
	<path fill="#326690" d="M25.845,18.33c-0.919,0.111-1.925,0.333-2.789-0.122c-0.204-0.142-0.453-0.022-0.63,0.107
		c-0.222,0.205-0.207,0.532-0.209,0.81c0.489,0.168,1.016,0.15,1.522,0.09C24.505,19.132,25.283,18.876,25.845,18.33z"/>
	<path fill="#326690" d="M14.875,18.217c-0.465,0.303-0.661,0.891-1.158,1.158c-0.513,0.303-1.135,0.283-1.667,0.53
		c1.078,0.55,2.571,0.356,3.317-0.653C15.749,18.896,15.38,18.145,14.875,18.217z"/>
	<path d="M26.773,19.371c0.439-0.371,0.815-0.948,0.649-1.546c-0.133-0.561-0.725-0.901-1.278-0.865
		c-0.563,0.037-1.111,0.219-1.68,0.219c1.264-2.197,2.252-4.575,2.708-7.077c0.174-1.042,0.288-2.136,0-3.168
		c-0.161-0.602-0.594-1.07-1.023-1.499c-0.967-0.959-2.238-1.586-3.575-1.826c-1.472-0.28-2.992-0.119-4.432,0.258
		c-1.006-0.138-2.04-0.231-3.044-0.027c-0.591,0.095-1.13,0.36-1.67,0.604c-1.668-0.521-3.461-0.863-5.2-0.51
		C7.002,4.173,5.854,4.893,5.2,5.971C4.386,7.287,4.251,8.9,4.372,10.409c0.218,1.698,0.62,3.366,1.095,5.01
		c0.429,1.422,0.916,2.846,1.691,4.12c0.446,0.71,1.043,1.416,1.884,1.646c0.662,0.187,1.373-0.034,1.891-0.464
		c0.268,0.258,0.579,0.472,0.932,0.595c1.006,0.345,2.131,0.346,3.121-0.053c0.059,1.368,0.01,2.785,0.51,4.084
		c0.201,0.622,0.554,1.224,1.116,1.582c0.609,0.405,1.384,0.475,2.088,0.347c0.646-0.122,1.3-0.288,1.862-0.64
		c0.59-0.361,1.038-0.918,1.322-1.543c0.638-1.401,0.668-2.971,0.756-4.48C24.102,20.696,25.655,20.367,26.773,19.371z
		 M21.639,23.823c-0.115,0.739-0.362,1.511-0.941,2.021c-0.545,0.477-1.263,0.687-1.96,0.818c-0.711,0.124-1.508,0.021-2.068-0.467
		c-0.594-0.524-0.932-1.304-1.006-2.084c-0.151-1.334-0.157-2.679-0.153-4.021c-0.642,0.553-1.493,0.836-2.337,0.772
		c-0.594-0.05-1.255-0.144-1.702-0.577c-0.247-0.228-0.233-0.656,0.042-0.854c0.478-0.36,1.111-0.333,1.653-0.542
		c0.401-0.117,0.609-0.508,0.862-0.809c-0.466-0.034-0.923-0.152-1.343-0.358c-0.644,0.685-1.264,1.394-1.867,2.115
		c-0.349,0.418-0.862,0.771-1.432,0.702c-0.64-0.079-1.116-0.58-1.474-1.078c-0.705-1.014-1.141-2.182-1.537-3.343
		c-0.602-1.86-1.073-3.769-1.348-5.706c-0.135-1.46-0.021-3.052,0.83-4.297C6.532,5.12,7.709,4.576,8.881,4.454
		c1.576-0.165,3.169,0.157,4.649,0.689c1.233-0.824,2.802-0.938,4.224-0.648c0.127,0.017,0.255,0.074,0.384,0.048
		c1.568-0.484,3.277-0.612,4.87-0.181c1.275,0.343,2.432,1.109,3.23,2.162c0.322,0.437,0.396,0.998,0.42,1.527
		c0.029,0.942-0.134,1.879-0.346,2.795c-0.583,2.409-1.625,4.693-2.95,6.784c0.742,0.318,1.575,0.158,2.342,0.022
		c0.318-0.063,0.73-0.14,0.972,0.14c0.235,0.305,0.01,0.693-0.229,0.917c-1.113,1.089-2.801,1.374-4.292,1.122
		C22.005,21.165,21.847,22.497,21.639,23.823z"/>
</g>
</svg>
