<?xml version="1.0" encoding="utf-8"?>
<!-- Generator: Adobe Illustrator 17.0.0, SVG Export Plug-In . SVG Version: 6.00 Build 0)  -->
<!DOCTYPE svg PUBLIC "-//W3C//DTD SVG 1.1//EN" "http://www.w3.org/Graphics/SVG/1.1/DTD/svg11.dtd">
<svg version="1.1" id="Layer_1" xmlns="http://www.w3.org/2000/svg" xmlns:xlink="http://www.w3.org/1999/xlink" x="0px" y="0px"
	 width="42px" height="42px" viewBox="0 0 42 42" enable-background="new 0 0 42 42" xml:space="preserve">
<path fill="none" d="M31.318,37.064h6.74v-5.141h-6.74V37.064z M34.188,33.699h1v1.59h-1V33.699z"/>
<path fill="#3D6480" d="M32.462,30.423v-1.074c0-2.26-1.643-3.766-3.661-3.766s-3.661,1.506-3.661,3.766v1.6h1.5v-1.6
	c0-1.424,0.963-2.266,2.161-2.266s2.161,0.842,2.161,2.266v1.074h-1.144v8.141h9.74v-8.141H32.462z M38.059,37.064h-6.74v-5.141
	h6.74V37.064z"/>
<rect x="34.188" y="33.699" fill="#3D6480" width="1" height="1.59"/>
<path fill="#DBF3DB" d="M16.687,19.224h-0.567v1.757h0.434c0.42,0,0.728-0.073,0.923-0.219s0.293-0.374,0.293-0.684
	c0-0.287-0.087-0.502-0.263-0.643C17.332,19.295,17.058,19.224,16.687,19.224z"/>
<path fill="#DBF3DB" d="M30.347,12.617h-4.257V8.359H12.71v24.409h6.902l10.761-10.761L30.347,12.617z M18.098,21.251
	c-0.342,0.278-0.829,0.417-1.459,0.417h-0.52v1.87h-0.817v-4.997h1.439c0.624,0,1.092,0.127,1.403,0.383
	c0.311,0.255,0.467,0.631,0.467,1.128C18.611,20.574,18.44,20.973,18.098,21.251z M23.492,23.336
	c-0.3,0.098-0.589,0.167-0.867,0.208c-0.276,0.041-0.576,0.061-0.897,0.061c-0.756,0-1.34-0.224-1.75-0.672
	c-0.41-0.447-0.615-1.079-0.615-1.895c0-0.804,0.231-1.434,0.694-1.888c0.462-0.455,1.1-0.682,1.911-0.682
	c0.522,0,1.016,0.1,1.483,0.301l-0.287,0.68c-0.406-0.187-0.811-0.28-1.217-0.28c-0.533,0-0.955,0.167-1.265,0.502
	c-0.31,0.335-0.465,0.793-0.465,1.374c0,0.611,0.14,1.075,0.418,1.393c0.279,0.317,0.681,0.477,1.205,0.477
	c0.264,0,0.547-0.033,0.848-0.099v-1.289h-1.035v-0.701h1.838V23.336z M27.487,21.251c-0.342,0.278-0.828,0.417-1.459,0.417h-0.52
	v1.87h-0.817v-4.997h1.439c0.625,0,1.092,0.127,1.403,0.383C27.845,19.179,28,19.555,28,20.051
	C28,20.574,27.829,20.973,27.487,21.251z"/>
<path fill="#DBF3DB" d="M26.076,19.224h-0.567v1.757h0.434c0.419,0,0.727-0.073,0.923-0.219s0.294-0.374,0.294-0.684
	c0-0.287-0.088-0.502-0.263-0.643C26.721,19.295,26.447,19.224,26.076,19.224z"/>
<polygon fill="#3D6480" points="12.71,8.359 26.089,8.359 26.089,12.617 30.347,12.617 30.374,22.007 32.069,20.312 32.047,12.626 
	30.337,10.917 27.79,10.917 27.79,8.37 26.079,6.659 11.01,6.659 11.01,34.469 17.912,34.469 19.612,32.768 12.71,32.768 "/>
<path fill="#3D6480" d="M16.741,18.541h-1.439v4.997h0.817v-1.87h0.52c0.631,0,1.118-0.139,1.459-0.417
	c0.342-0.278,0.513-0.678,0.513-1.2c0-0.497-0.156-0.872-0.467-1.128C17.833,18.668,17.365,18.541,16.741,18.541z M17.476,20.762
	c-0.196,0.146-0.503,0.219-0.923,0.219h-0.434v-1.757h0.567c0.372,0,0.645,0.071,0.82,0.212c0.175,0.141,0.263,0.355,0.263,0.643
	C17.77,20.389,17.672,20.616,17.476,20.762z"/>
<path fill="#3D6480" d="M21.653,21.528h1.035v1.289c-0.301,0.066-0.583,0.099-0.848,0.099c-0.524,0-0.926-0.159-1.205-0.477
	c-0.279-0.318-0.418-0.782-0.418-1.393c0-0.581,0.155-1.039,0.465-1.374c0.31-0.335,0.731-0.502,1.265-0.502
	c0.406,0,0.811,0.093,1.217,0.28l0.287-0.68c-0.467-0.201-0.961-0.301-1.483-0.301c-0.811,0-1.448,0.227-1.911,0.682
	c-0.462,0.454-0.694,1.084-0.694,1.888c0,0.816,0.206,1.448,0.615,1.895c0.41,0.448,0.994,0.672,1.75,0.672
	c0.321,0,0.621-0.021,0.897-0.061c0.277-0.041,0.566-0.11,0.867-0.208v-2.509h-1.838V21.528z"/>
<path fill="#3D6480" d="M26.13,18.541h-1.439v4.997h0.817v-1.87h0.52c0.631,0,1.117-0.139,1.459-0.417
	c0.342-0.278,0.513-0.678,0.513-1.2c0-0.497-0.155-0.872-0.467-1.128C27.223,18.668,26.755,18.541,26.13,18.541z M26.865,20.762
	c-0.196,0.146-0.504,0.219-0.923,0.219h-0.434v-1.757h0.567c0.372,0,0.645,0.071,0.82,0.212c0.175,0.141,0.263,0.355,0.263,0.643
	C27.159,20.389,27.061,20.616,26.865,20.762z"/>
</svg>
