<?xml version="1.0" encoding="utf-8"?>
<!-- Generator: Adobe Illustrator 17.0.0, SVG Export Plug-In . SVG Version: 6.00 Build 0)  -->
<!DOCTYPE svg PUBLIC "-//W3C//DTD SVG 1.1//EN" "http://www.w3.org/Graphics/SVG/1.1/DTD/svg11.dtd">
<svg version="1.1" id="Layer_1" xmlns="http://www.w3.org/2000/svg" xmlns:xlink="http://www.w3.org/1999/xlink" x="0px" y="0px"
	 width="42px" height="42px" viewBox="0 0 42 42" enable-background="new 0 0 42 42" xml:space="preserve">
<g>
	<path fill="none" d="M30.533,37.772h6.741V32.63h-6.741V37.772z M33.404,34.407h1v1.589h-1V34.407z"/>
	<path fill="none" d="M36.065,30.057c0-1.424-0.964-2.267-2.161-2.267s-2.162,0.843-2.162,2.267v1.073h4.323V30.057z"/>
	<path fill="#3D6480" d="M37.565,31.13v-1.073c0-2.261-1.644-3.767-3.661-3.767c-2.019,0-3.662,1.506-3.662,3.767v1.073h-1.209
		v8.142h9.741V31.13H37.565z M31.742,30.057c0-1.424,0.965-2.267,2.162-2.267s2.161,0.843,2.161,2.267v1.073h-4.323V30.057z
		 M37.274,37.772h-6.741V32.63h6.741V37.772z"/>
	<rect x="33.404" y="34.407" fill="#3D6480" width="1" height="1.589"/>
	<path fill="#DBF3DB" d="M15.902,19.932h-0.567v1.757h0.434c0.42,0,0.728-0.073,0.923-0.219s0.293-0.373,0.293-0.684
		c0-0.287-0.087-0.501-0.263-0.643C16.547,20.003,16.274,19.932,15.902,19.932z"/>
	<path fill="#DBF3DB" d="M25.291,19.932h-0.567v1.757h0.434c0.419,0,0.727-0.073,0.923-0.219s0.294-0.373,0.294-0.684
		c0-0.287-0.088-0.501-0.263-0.643C25.936,20.003,25.663,19.932,25.291,19.932z"/>
	<path fill="#DBF3DB" d="M29.562,13.325h-4.257V9.067H11.926v24.409h10.645l7.029-7.029L29.562,13.325z M17.314,21.959
		c-0.342,0.278-0.829,0.417-1.459,0.417h-0.52v1.87h-0.817v-4.997h1.439c0.624,0,1.092,0.127,1.403,0.383
		c0.311,0.255,0.467,0.631,0.467,1.128C17.827,21.282,17.655,21.681,17.314,21.959z M22.707,24.044
		c-0.3,0.098-0.589,0.167-0.867,0.208c-0.276,0.041-0.576,0.062-0.897,0.062c-0.756,0-1.34-0.224-1.75-0.672
		c-0.41-0.447-0.615-1.079-0.615-1.895c0-0.804,0.231-1.434,0.694-1.888c0.462-0.455,1.1-0.682,1.911-0.682
		c0.522,0,1.016,0.1,1.483,0.301l-0.287,0.68c-0.406-0.187-0.811-0.28-1.217-0.28c-0.533,0-0.955,0.167-1.265,0.502
		c-0.31,0.335-0.465,0.793-0.465,1.374c0,0.611,0.14,1.075,0.418,1.393c0.279,0.317,0.681,0.477,1.205,0.477
		c0.264,0,0.547-0.033,0.848-0.099v-1.289h-1.035v-0.701h1.838V24.044z M26.703,21.959c-0.342,0.278-0.828,0.417-1.459,0.417h-0.52
		v1.87h-0.817v-4.997h1.439c0.625,0,1.092,0.127,1.403,0.383c0.312,0.255,0.467,0.631,0.467,1.128
		C27.216,21.282,27.045,21.681,26.703,21.959z"/>
	<polygon fill="#3D6480" points="11.926,9.067 25.305,9.067 25.305,13.325 29.562,13.325 29.6,26.448 31.295,24.753 31.262,13.334 
		29.553,11.625 27.005,11.625 27.005,9.078 25.294,7.367 10.226,7.367 10.226,35.177 20.871,35.177 22.571,33.476 11.926,33.476 	
		"/>
	<path fill="#3D6480" d="M15.957,19.249h-1.439v4.997h0.817v-1.87h0.52c0.631,0,1.118-0.139,1.459-0.417
		c0.342-0.278,0.513-0.678,0.513-1.2c0-0.497-0.156-0.873-0.467-1.128C17.049,19.376,16.581,19.249,15.957,19.249z M16.692,21.47
		c-0.196,0.146-0.503,0.219-0.923,0.219h-0.434v-1.757h0.567c0.372,0,0.645,0.071,0.82,0.212c0.175,0.141,0.263,0.355,0.263,0.643
		C16.985,21.097,16.887,21.324,16.692,21.47z"/>
	<path fill="#3D6480" d="M20.869,22.236h1.035v1.289c-0.301,0.066-0.583,0.099-0.848,0.099c-0.524,0-0.926-0.159-1.205-0.477
		c-0.279-0.318-0.418-0.782-0.418-1.393c0-0.581,0.155-1.039,0.465-1.374c0.31-0.335,0.731-0.502,1.265-0.502
		c0.406,0,0.811,0.093,1.217,0.28l0.287-0.68c-0.467-0.201-0.961-0.301-1.483-0.301c-0.811,0-1.448,0.227-1.911,0.682
		c-0.462,0.454-0.694,1.084-0.694,1.888c0,0.816,0.206,1.448,0.615,1.895c0.41,0.448,0.994,0.672,1.75,0.672
		c0.321,0,0.621-0.021,0.897-0.062c0.277-0.041,0.566-0.11,0.867-0.208v-2.509h-1.838V22.236z"/>
	<path fill="#3D6480" d="M25.346,19.249h-1.439v4.997h0.817v-1.87h0.52c0.631,0,1.117-0.139,1.459-0.417
		c0.342-0.278,0.513-0.678,0.513-1.2c0-0.497-0.155-0.873-0.467-1.128C26.438,19.376,25.97,19.249,25.346,19.249z M26.081,21.47
		c-0.196,0.146-0.504,0.219-0.923,0.219h-0.434v-1.757h0.567c0.372,0,0.645,0.071,0.82,0.212c0.175,0.141,0.263,0.355,0.263,0.643
		C26.375,21.097,26.277,21.324,26.081,21.47z"/>
</g>
</svg>
