<?xml version="1.0" encoding="utf-8"?>
<!-- Generator: Adobe Illustrator 17.0.0, SVG Export Plug-In . SVG Version: 6.00 Build 0)  -->
<!DOCTYPE svg PUBLIC "-//W3C//DTD SVG 1.1//EN" "http://www.w3.org/Graphics/SVG/1.1/DTD/svg11.dtd">
<svg version="1.1" id="Layer_1" xmlns="http://www.w3.org/2000/svg" xmlns:xlink="http://www.w3.org/1999/xlink" x="0px" y="0px"
	 width="42px" height="42px" viewBox="0 0 42 42" enable-background="new 0 0 42 42" xml:space="preserve">
<g>
	<polygon fill="#0CB20F" points="37.497,29.53 30.574,36.453 28.243,34.121 26.899,35.465 30.574,39.14 38.84,30.874 	"/>
	<path fill="#DBF3DB" d="M16.066,19.724h-0.567v1.757h0.434c0.42,0,0.728-0.073,0.923-0.219s0.293-0.374,0.293-0.684
		c0-0.287-0.087-0.502-0.263-0.643C16.711,19.795,16.437,19.724,16.066,19.724z"/>
	<path fill="#DBF3DB" d="M25.455,19.724h-0.567v1.757h0.434c0.419,0,0.727-0.073,0.923-0.219s0.294-0.374,0.294-0.684
		c0-0.287-0.088-0.502-0.263-0.643C26.1,19.795,25.827,19.724,25.455,19.724z"/>
	<path fill="#DBF3DB" d="M29.726,13.116h-4.257V8.859H12.09v24.409H23.04l6.724-6.724L29.726,13.116z M17.477,21.751
		c-0.342,0.278-0.829,0.417-1.459,0.417h-0.52v1.87h-0.817V19.04h1.439c0.624,0,1.092,0.127,1.403,0.383
		c0.311,0.255,0.467,0.631,0.467,1.128C17.991,21.073,17.819,21.473,17.477,21.751z M22.871,23.835
		c-0.3,0.098-0.589,0.168-0.867,0.208c-0.276,0.041-0.576,0.062-0.897,0.062c-0.756,0-1.34-0.224-1.75-0.672
		c-0.41-0.447-0.615-1.079-0.615-1.895c0-0.804,0.231-1.434,0.694-1.888c0.462-0.455,1.1-0.682,1.911-0.682
		c0.522,0,1.016,0.1,1.483,0.301l-0.287,0.68c-0.406-0.187-0.811-0.28-1.217-0.28c-0.533,0-0.955,0.168-1.265,0.503
		c-0.31,0.335-0.465,0.793-0.465,1.374c0,0.611,0.14,1.075,0.418,1.393c0.279,0.317,0.681,0.477,1.205,0.477
		c0.264,0,0.547-0.033,0.848-0.099v-1.289h-1.035v-0.701h1.838V23.835z M26.867,21.751c-0.342,0.278-0.828,0.417-1.459,0.417h-0.52
		v1.87h-0.817V19.04h1.439c0.625,0,1.092,0.127,1.403,0.383c0.312,0.255,0.467,0.631,0.467,1.128
		C27.379,21.073,27.208,21.473,26.867,21.751z"/>
	<polygon fill="#3D6480" points="12.09,8.859 25.469,8.859 25.469,13.116 29.726,13.116 29.764,26.544 31.46,24.848 31.426,13.126 
		29.716,11.416 27.169,11.416 27.169,8.869 25.458,7.158 10.39,7.158 10.39,34.968 21.34,34.968 23.04,33.268 12.09,33.268 	"/>
	<path fill="#3D6480" d="M16.121,19.04h-1.439v4.997h0.817v-1.87h0.52c0.631,0,1.118-0.139,1.459-0.417
		c0.342-0.278,0.513-0.678,0.513-1.2c0-0.497-0.156-0.873-0.467-1.128C17.212,19.168,16.745,19.04,16.121,19.04z M16.855,21.262
		c-0.196,0.146-0.503,0.219-0.923,0.219h-0.434v-1.757h0.567c0.372,0,0.645,0.071,0.82,0.212c0.175,0.141,0.263,0.356,0.263,0.643
		C17.149,20.888,17.051,21.116,16.855,21.262z"/>
	<path fill="#3D6480" d="M21.033,22.027h1.035v1.289c-0.301,0.066-0.583,0.099-0.848,0.099c-0.524,0-0.926-0.159-1.205-0.477
		c-0.279-0.318-0.418-0.782-0.418-1.393c0-0.581,0.155-1.039,0.465-1.374c0.31-0.335,0.731-0.503,1.265-0.503
		c0.406,0,0.811,0.093,1.217,0.28l0.287-0.68c-0.467-0.201-0.961-0.301-1.483-0.301c-0.811,0-1.448,0.227-1.911,0.682
		c-0.462,0.454-0.694,1.084-0.694,1.888c0,0.816,0.206,1.448,0.615,1.895c0.41,0.448,0.994,0.672,1.75,0.672
		c0.321,0,0.621-0.021,0.897-0.062c0.277-0.041,0.566-0.11,0.867-0.208v-2.509h-1.838V22.027z"/>
	<path fill="#3D6480" d="M25.51,19.04h-1.439v4.997h0.817v-1.87h0.52c0.631,0,1.117-0.139,1.459-0.417
		c0.342-0.278,0.513-0.678,0.513-1.2c0-0.497-0.155-0.873-0.467-1.128C26.602,19.168,26.134,19.04,25.51,19.04z M26.245,21.262
		c-0.196,0.146-0.504,0.219-0.923,0.219h-0.434v-1.757h0.567c0.372,0,0.645,0.071,0.82,0.212c0.175,0.141,0.263,0.356,0.263,0.643
		C26.539,20.888,26.44,21.116,26.245,21.262z"/>
</g>
</svg>
