<?xml version="1.0" encoding="utf-8"?>
<!-- Generator: Adobe Illustrator 17.0.0, SVG Export Plug-In . SVG Version: 6.00 Build 0)  -->
<!DOCTYPE svg PUBLIC "-//W3C//DTD SVG 1.1//EN" "http://www.w3.org/Graphics/SVG/1.1/DTD/svg11.dtd">
<svg version="1.1" id="Layer_1" xmlns="http://www.w3.org/2000/svg" xmlns:xlink="http://www.w3.org/1999/xlink" x="0px" y="0px"
	 width="42px" height="42px" viewBox="0 0 42 42" enable-background="new 0 0 42 42" xml:space="preserve">
<g>
	<polygon fill="#EFF9FE" points="24.29,25.296 24.29,25.296 24.29,25.296 	"/>
	<path fill="#EFF9FE" d="M26.346,24.015c0.089,0.078,0.163,0.16,0.234,0.252c0.454,0.479,1.046,0.895,1.707,1.172
		c0.631,0.266,1.301,0.4,1.992,0.4c2.835,0,5.141-2.306,5.141-5.141s-2.306-5.141-5.141-5.141c-0.689,0-1.359,0.135-1.992,0.4
		c-0.639,0.269-1.215,0.667-1.71,1.183c-0.08,0.104-0.165,0.193-0.258,0.271c-0.332,0.274-0.718,0.417-1.122,0.417
		c-0.936,0-1.707-0.736-1.756-1.676l-0.001-0.139V6.958H8.081v8.678c0.148-0.079,0.299-0.151,0.454-0.216
		c0.705-0.296,1.451-0.446,2.218-0.446c3.156,0,5.724,2.568,5.724,5.724s-2.568,5.724-5.724,5.724c-0.769,0-1.515-0.15-2.218-0.447
		c-0.154-0.064-0.306-0.136-0.453-0.215v9.282h15.358l0.001-9.791c0.049-0.94,0.82-1.676,1.756-1.676
		C25.617,23.576,26.014,23.727,26.346,24.015z"/>
	<path fill="#3D6480" d="M30.279,13.857c-0.917,0-1.808,0.18-2.651,0.533c-0.873,0.368-1.654,0.912-2.32,1.617l-0.111,0.122
		l-0.057-0.115V5.258H6.381v14.2l1.464-1.531c0.395-0.413,0.849-0.729,1.349-0.939c0.495-0.208,1.019-0.313,1.559-0.313
		c2.219,0,4.023,1.805,4.023,4.023s-1.805,4.023-4.023,4.023c-0.541,0-1.065-0.105-1.559-0.313
		c-0.499-0.209-0.952-0.526-1.347-0.941l-1.466-1.539v14.814H25.14V25.391l-0.85-0.095l0,0l0,0l0.928-0.011l0.069,0.083
		c0.671,0.717,1.459,1.269,2.341,1.639c0.84,0.354,1.732,0.534,2.651,0.534c3.772,0,6.841-3.069,6.841-6.841
		S34.051,13.857,30.279,13.857z M23.441,25.251l-0.001,9.791H8.081V25.76c0.147,0.079,0.299,0.15,0.453,0.215
		c0.703,0.296,1.45,0.447,2.218,0.447c3.156,0,5.724-2.568,5.724-5.724s-2.568-5.724-5.724-5.724c-0.767,0-1.513,0.15-2.218,0.446
		c-0.154,0.065-0.306,0.137-0.454,0.216V6.958h15.358v9.055l0.001,0.139c0.049,0.94,0.82,1.676,1.756,1.676
		c0.403,0,0.79-0.144,1.122-0.417c0.093-0.078,0.178-0.167,0.258-0.271c0.496-0.516,1.071-0.914,1.71-1.183
		c0.633-0.266,1.303-0.4,1.992-0.4c2.835,0,5.141,2.306,5.141,5.141s-2.306,5.141-5.141,5.141c-0.691,0-1.361-0.134-1.992-0.4
		c-0.661-0.277-1.252-0.692-1.707-1.172c-0.071-0.092-0.145-0.174-0.234-0.252c-0.332-0.287-0.729-0.439-1.149-0.439
		C24.261,23.576,23.49,24.311,23.441,25.251z"/>
</g>
</svg>
