<?xml version="1.0" encoding="utf-8"?>
<!-- Generator: Adobe Illustrator 17.0.0, SVG Export Plug-In . SVG Version: 6.00 Build 0)  -->
<!DOCTYPE svg PUBLIC "-//W3C//DTD SVG 1.1//EN" "http://www.w3.org/Graphics/SVG/1.1/DTD/svg11.dtd">
<svg version="1.1" id="Layer_1" xmlns="http://www.w3.org/2000/svg" xmlns:xlink="http://www.w3.org/1999/xlink" x="0px" y="0px"
	 width="42px" height="42px" viewBox="0 0 42 42" enable-background="new 0 0 42 42" xml:space="preserve">
<g>
	<path fill="#EFF9FE" d="M17.338,8.87H6.11v24.679h11.287L17.338,8.87z M14.872,29.652h-1.703v-1h1.703V29.652z M14.872,20.189
		H8.575v-0.8h6.297V20.189z M14.872,16.927H8.575v-0.8h6.297V16.927z M14.872,13.666H8.575v-0.8h6.297V13.666z"/>
	<path fill="#3D6480" d="M4.41,7.169v28.079h14.691L19.035,7.169H4.41z M6.11,8.87h11.229l0.059,24.679H6.11V8.87z"/>
	<polygon fill="#3D6480" points="27.235,21.846 27.235,20.146 24.884,20.146 27.461,17.616 26.271,16.403 21.635,20.953 
		26.265,25.584 27.467,24.381 24.932,21.846 	"/>
	<rect x="28.481" y="20.146" fill="#3D6480" width="1.784" height="1.7"/>
	<rect x="31.729" y="20.146" fill="#3D6480" width="1.784" height="1.7"/>
	<rect x="34.956" y="20.146" fill="#3D6480" width="1.784" height="1.7"/>
	<polygon fill="#3D6480" points="32.348,10.572 32.348,12.272 34.698,12.272 32.121,14.802 33.311,16.015 37.948,11.465 
		33.317,6.835 32.115,8.037 34.651,10.572 	"/>
	<rect x="29.317" y="10.572" fill="#3D6480" width="1.785" height="1.7"/>
	<rect x="26.069" y="10.572" fill="#3D6480" width="1.785" height="1.7"/>
	<rect x="22.843" y="10.572" fill="#3D6480" width="1.784" height="1.7"/>
	<rect x="8.575" y="12.866" fill="#3D6480" width="6.297" height="0.8"/>
	<rect x="8.575" y="16.128" fill="#3D6480" width="6.297" height="0.8"/>
	<rect x="8.575" y="19.389" fill="#3D6480" width="6.297" height="0.8"/>
	<rect x="13.169" y="28.652" fill="#3D6480" width="1.703" height="1"/>
</g>
</svg>
