<?xml version="1.0" encoding="utf-8"?>
<!-- Generator: Adobe Illustrator 17.0.0, SVG Export Plug-In . SVG Version: 6.00 Build 0)  -->
<!DOCTYPE svg PUBLIC "-//W3C//DTD SVG 1.1//EN" "http://www.w3.org/Graphics/SVG/1.1/DTD/svg11.dtd">
<svg version="1.1" id="Layer_1" xmlns="http://www.w3.org/2000/svg" xmlns:xlink="http://www.w3.org/1999/xlink" x="0px" y="0px"
	 width="42px" height="42px" viewBox="0 0 42 42" enable-background="new 0 0 42 42" xml:space="preserve">
<g>
	<path fill="#3D6480" d="M37.746,33.143c0.02-0.375-0.003-0.755-0.071-1.138l1.308-0.956l-0.177-0.464
		c-0.078-0.205-0.171-0.4-0.268-0.596l-0.228-0.455l-1.553,0.355c-0.104-0.132-0.224-0.264-0.347-0.396
		c-0.142-0.152-0.278-0.288-0.433-0.421l0.383-1.557l-0.432-0.242c-0.198-0.11-0.397-0.209-0.604-0.298l-0.469-0.203l-0.952,1.266
		c-0.366-0.084-0.742-0.127-1.119-0.128l-0.711-1.435l-0.48,0.086c-0.22,0.039-0.441,0.085-0.656,0.148l-0.486,0.144l0.067,1.592
		c-0.317,0.163-0.627,0.373-0.926,0.626l-1.475-0.646l-0.312,0.384c-0.142,0.175-0.272,0.357-0.394,0.545l-0.276,0.425l1.079,1.163
		c-0.148,0.351-0.256,0.712-0.318,1.07l-1.549,0.458l0.005,0.491c0.002,0.22,0.016,0.439,0.041,0.658l0.059,0.508l1.591,0.197
		c0.111,0.37,0.261,0.718,0.447,1.04l-0.909,1.351l0.982,1.054l1.464-0.695l0.058-0.039c0.313,0.204,0.652,0.373,1.018,0.506
		l0.176,1.613l0.491,0.078c0.214,0.033,0.428,0.052,0.646,0.064l0.509,0.027l0.464-1.52c0.404-0.049,0.785-0.14,1.096-0.266
		l1.179,1.121l0.425-0.26c0.188-0.114,0.371-0.244,0.551-0.381l0.406-0.309l-0.625-1.438c0.253-0.272,0.473-0.572,0.667-0.911
		l1.602,0.1l0.162-0.466c0.074-0.211,0.138-0.426,0.19-0.643l0.12-0.502L37.746,33.143z M29.106,32.924c0-1.988,1.611-3.6,3.6-3.6
		s3.601,1.611,3.601,3.6s-1.612,3.601-3.601,3.601S29.106,34.912,29.106,32.924z"/>
	<polygon fill="#EFF9FE" points="26.835,12.201 26.835,8.672 16.038,8.672 16.038,10.983 22.817,10.983 24.526,12.691 
		24.526,14.512 26.346,14.512 28.055,16.221 28.089,28.185 30.404,25.869 30.365,12.201 	"/>
	<polygon fill="#3D6480" points="12.028,12.682 22.825,12.682 22.825,16.211 26.355,16.211 26.393,29.88 28.089,28.185 
		28.055,16.221 26.346,14.512 24.526,14.512 24.526,12.691 22.817,10.983 16.038,10.983 16.038,8.672 26.835,8.672 26.835,12.201 
		30.365,12.201 30.404,25.869 32.099,24.174 32.065,12.211 30.357,10.502 28.535,10.502 28.535,8.681 26.828,6.973 14.338,6.973 
		14.338,10.983 10.327,10.983 10.327,34.323 21.951,34.323 23.65,32.623 12.028,32.623 	"/>
	<path fill="#EFF9FE" d="M26.355,16.211h-3.53v-3.529H12.028v19.941H23.65l2.743-2.743L26.355,16.211z M17.422,25.83H14.33V25.03
		h3.092V25.83z M24.101,23.053H14.33v-0.801h9.771V23.053z M24.101,20.276H14.33v-0.801h9.771V20.276z"/>
	<rect x="14.33" y="19.475" fill="#3D6480" width="9.771" height="0.801"/>
	<rect x="14.33" y="22.252" fill="#3D6480" width="9.771" height="0.801"/>
	<rect x="14.33" y="25.03" fill="#3D6480" width="3.092" height="0.801"/>
</g>
</svg>
