<?xml version="1.0" encoding="utf-8"?>
<!-- Generator: Adobe Illustrator 17.0.0, SVG Export Plug-In . SVG Version: 6.00 Build 0)  -->
<!DOCTYPE svg PUBLIC "-//W3C//DTD SVG 1.1//EN" "http://www.w3.org/Graphics/SVG/1.1/DTD/svg11.dtd">
<svg version="1.1" id="Layer_1" xmlns="http://www.w3.org/2000/svg" xmlns:xlink="http://www.w3.org/1999/xlink" x="0px" y="0px"
	 width="42px" height="42px" viewBox="0 0 42 42" enable-background="new 0 0 42 42" xml:space="preserve">
<g>
	<polygon fill="none" points="29.596,30.753 29.596,36.073 35.301,33.417 	"/>
	<path fill="#0CB20F" d="M27.746,27.847v11.129l11.932-5.557L27.746,27.847z M29.596,30.753l5.705,2.664l-5.705,2.656V30.753z"/>
	<path fill="#FFECCE" d="M29.245,25.136c-2.221,1.115-6.732,1.19-7.868,1.19c-2.351,0-4.554-0.212-6.204-0.597
		c-0.752-0.176-1.366-0.384-1.846-0.623v4.978c0,0.589,2.838,1.734,8.04,1.734c0.001,0,0.001,0,0.001,0
		c0.751,0,1.469-0.033,2.167-0.082l5.71-5.71V25.136z"/>
	<path fill="#FFECCE" d="M27.283,24.959c0.886-0.21,1.554-0.473,1.962-0.753v-5.197c-2.221,1.115-6.732,1.19-7.868,1.19
		c-2.351,0-4.554-0.212-6.204-0.597c-0.752-0.176-1.366-0.384-1.846-0.623v5.217c1.053,0.714,3.932,1.331,8.05,1.331
		C23.641,25.527,25.739,25.324,27.283,24.959z"/>
	<path fill="#FFECCE" d="M29.245,12.288v-0.757c-0.192-0.52-3.051-1.479-8.051-1.479c-4.965,0-7.72,0.952-7.867,1.484v0.746
		c1.054,0.714,3.932,1.331,8.051,1.331C25.395,13.612,28.207,12.998,29.245,12.288z"/>
	<path fill="#FFECCE" d="M27.283,18.831c0.886-0.21,1.554-0.473,1.962-0.753v-4.856c-2.221,1.115-6.731,1.19-7.867,1.19
		c-2.351,0-4.554-0.212-6.204-0.597c-0.753-0.176-1.367-0.384-1.847-0.623v4.876c1.053,0.714,3.932,1.331,8.05,1.331
		C23.641,19.399,25.739,19.197,27.283,18.831z"/>
	<path fill="#3D6480" d="M21.367,31.82c-5.202,0-8.04-1.146-8.04-1.734v-4.978c0.479,0.239,1.093,0.447,1.846,0.623
		c1.65,0.385,3.854,0.597,6.204,0.597c1.136,0,5.647-0.075,7.868-1.19v0.892l1.699-1.699V11.531c0-2.95-7.462-3.18-9.75-3.18
		c-2.876,0-9.566,0.311-9.566,3.18v18.555c0,3.269,8.113,3.435,9.739,3.435c0.001,0,0.001,0,0.001,0c0.134,0,0.262-0.009,0.395-0.01
		l1.772-1.772C22.838,31.786,22.119,31.82,21.367,31.82C21.368,31.82,21.368,31.82,21.367,31.82z M13.327,11.535
		c0.147-0.532,2.902-1.484,7.867-1.484c5,0,7.858,0.96,8.051,1.479v0.757c-1.039,0.711-3.851,1.324-7.867,1.324
		c-4.119,0-6.997-0.617-8.051-1.331V11.535z M13.327,13.192c0.479,0.239,1.094,0.447,1.847,0.623
		c1.65,0.385,3.854,0.597,6.204,0.597c1.136,0,5.646-0.075,7.867-1.19v4.856c-0.408,0.281-1.076,0.543-1.962,0.753
		c-1.544,0.365-3.643,0.567-5.906,0.567c-4.118,0-6.997-0.617-8.05-1.331V13.192z M13.327,18.979
		c0.479,0.239,1.093,0.447,1.846,0.623c1.65,0.385,3.854,0.597,6.204,0.597c1.136,0,5.647-0.075,7.868-1.19v5.197
		c-0.408,0.281-1.076,0.543-1.962,0.753c-1.544,0.365-3.643,0.567-5.906,0.567c-4.118,0-6.997-0.617-8.05-1.331V18.979z"/>
</g>
</svg>
