<?xml version="1.0" encoding="utf-8"?>
<!-- Generator: Adobe Illustrator 17.0.0, SVG Export Plug-In . SVG Version: 6.00 Build 0)  -->
<!DOCTYPE svg PUBLIC "-//W3C//DTD SVG 1.1//EN" "http://www.w3.org/Graphics/SVG/1.1/DTD/svg11.dtd">
<svg version="1.1" id="Layer_1" xmlns="http://www.w3.org/2000/svg" xmlns:xlink="http://www.w3.org/1999/xlink" x="0px" y="0px"
	 width="42px" height="42px" viewBox="0 0 42 42" enable-background="new 0 0 42 42" xml:space="preserve">
<g>
	<rect x="14.029" y="16.814" fill="none" width="1.932" height="15.737"/>
	<rect x="5.229" y="11.316" fill="none" width="3.726" height="1.932"/>
	<rect x="21.034" y="11.316" fill="none" width="15.737" height="1.932"/>
	<path fill="#3D6480" d="M21.034,9.617V7.75H8.955v1.867H3.529v5.33h5.426v1.867h3.375v17.437h5.33V16.814h3.374v-1.867h17.437
		v-5.33H21.034z M8.955,13.248H5.229v-1.932h3.726V13.248z M15.961,32.552h-1.932V16.814h1.932V32.552z M19.335,15.115h-8.681V9.449
		h8.681V15.115z M36.771,13.248H21.034v-1.932h15.737V13.248z"/>
	<rect x="10.654" y="9.449" fill="#FFFFFF" width="8.681" height="5.666"/>
	<path fill="#FFFFFF" d="M30.711,24.923c-3.192,0-5.789,2.597-5.789,5.789c0,3.191,2.597,5.788,5.789,5.788s5.789-2.597,5.789-5.788
		C36.5,27.52,33.903,24.923,30.711,24.923z M31.627,34.833h-1.355v-6.647l-1.678,0.937l-0.607-1.098l2.487-1.435h1.153V34.833z"/>
	<path fill="#3D6480" d="M30.711,23.923c-3.743,0-6.789,3.046-6.789,6.789s3.046,6.788,6.789,6.788s6.789-3.045,6.789-6.788
		S34.454,23.923,30.711,23.923z M30.711,36.5c-3.192,0-5.789-2.597-5.789-5.788c0-3.192,2.597-5.789,5.789-5.789
		S36.5,27.52,36.5,30.712C36.5,33.903,33.903,36.5,30.711,36.5z"/>
	<polygon fill="#FFFFFF" points="27.986,28.024 28.594,29.122 30.271,28.186 30.271,34.833 31.627,34.833 31.627,26.59 
		30.474,26.59 	"/>
	<polygon fill="#3D6480" points="27.986,28.024 28.594,29.122 30.271,28.186 30.271,34.833 31.627,34.833 31.627,26.59 
		30.474,26.59 	"/>
</g>
</svg>
