<?xml version="1.0" encoding="utf-8"?>
<!-- Generator: Adobe Illustrator 17.0.0, SVG Export Plug-In . SVG Version: 6.00 Build 0)  -->
<!DOCTYPE svg PUBLIC "-//W3C//DTD SVG 1.1//EN" "http://www.w3.org/Graphics/SVG/1.1/DTD/svg11.dtd">
<svg version="1.1" id="Layer_1" xmlns="http://www.w3.org/2000/svg" xmlns:xlink="http://www.w3.org/1999/xlink" x="0px" y="0px"
	 width="42px" height="42px" viewBox="0 0 42 42" enable-background="new 0 0 42 42" xml:space="preserve">
<g>
	<rect x="5.13" y="28.668" fill="none" width="17.537" height="4.19"/>
	<rect x="5.13" y="19.829" fill="none" width="17.537" height="4.19"/>
	<rect x="5.13" y="10.989" fill="none" width="17.537" height="4.19"/>
	<rect x="28.107" y="10.989" fill="none" width="8.195" height="4.19"/>
	<polygon fill="#3D6480" points="36.831,33.15 36.831,36.233 31.605,31.008 30.261,32.352 35.488,37.578 32.342,37.578 
		32.342,39.478 38.731,39.476 38.731,33.15 	"/>
	<path fill="#3D6480" d="M3.63,25.519h20.537v-7.19H3.63V25.519z M5.13,19.829h17.537v4.19H5.13V19.829z"/>
	<path fill="#3D6480" d="M3.63,16.68h20.537v-7.19H3.63V16.68z M5.13,10.989h17.537v4.19H5.13V10.989z"/>
	<polygon fill="#3D6480" points="32.647,24.019 28.107,24.019 28.107,19.829 36.302,19.829 36.302,20.364 37.802,18.864 
		37.802,18.329 26.607,18.329 26.607,25.519 31.147,25.519 	"/>
	<path fill="#3D6480" d="M37.802,9.489H26.607v7.19h11.195V9.489z M36.302,15.18h-8.195v-4.19h8.195V15.18z"/>
	<path fill="#3D6480" d="M3.63,34.358h18.679l1.858-1.859v-5.332H3.63V34.358z M5.13,28.668h17.537v4.19H5.13V28.668z"/>
</g>
</svg>
