<?xml version="1.0" encoding="utf-8"?>
<!-- Generator: Adobe Illustrator 18.0.0, SVG Export Plug-In . SVG Version: 6.00 Build 0)  -->
<!DOCTYPE svg PUBLIC "-//W3C//DTD SVG 1.1//EN" "http://www.w3.org/Graphics/SVG/1.1/DTD/svg11.dtd">
<svg version="1.1" id="Layer_1" xmlns="http://www.w3.org/2000/svg" xmlns:xlink="http://www.w3.org/1999/xlink" x="0px" y="0px"
	 viewBox="0 0 42 42" enable-background="new 0 0 42 42" xml:space="preserve">
<g>
	<path fill="#EFF9FE" d="M28.9,10.5c-1.4-1.3-3.1-2.2-5-2.7c0.8,1.2,1.5,2.4,2.1,3.7C26.9,11.3,27.9,11,28.9,10.5z"/>
	<path fill="#EFF9FE" d="M27.5,18.8h5.3c-0.1-3-1.3-5.7-3.2-7.7c-1,0.5-2.1,0.9-3.2,1.2C27,14.4,27.4,16.5,27.5,18.8z"/>
	<path fill="#EFF9FE" d="M25.5,12.5c-1.3,0.3-2.7,0.5-4.1,0.5v5.8h5.3C26.6,16.6,26.2,14.5,25.5,12.5z"/>
	<path fill="#EFF9FE" d="M21.4,30.9c0.4,0,0.9-0.1,1.3-0.1c1-1.2,1.8-2.6,2.5-4.1c-1.2-0.3-2.5-0.4-3.8-0.4V30.9z"/>
	<path fill="#EFF9FE" d="M21.4,19.6v5.8c1.4,0,2.8,0.2,4.1,0.5c0.7-2,1.1-4.1,1.2-6.3H21.4z"/>
	<path fill="#EFF9FE" d="M22.6,7.6c-0.4-0.1-0.8-0.1-1.2-0.1v4.7c1.3,0,2.5-0.2,3.7-0.4C24.5,10.3,23.7,8.9,22.6,7.6z"/>
	<path fill="#EFF9FE" d="M23.9,30.6c0.3-0.1,0.5-0.2,0.8-0.3l3-2.9c-0.6-0.2-1.2-0.4-1.8-0.6C25.4,28.2,24.7,29.4,23.9,30.6z"/>
	<path fill="#EFF9FE" d="M32.7,19.6h-5.3c0,2.3-0.4,4.5-1.2,6.5c0.7,0.2,1.4,0.4,2.1,0.7l3.6-3.4C32.4,22.2,32.7,20.9,32.7,19.6z"/>
	<path fill="#3D6480" d="M27.5,19.6h5.3c0,1.3-0.3,2.6-0.8,3.8l2.3-2.2c0.1-0.6,0.2-1.3,0.2-1.9c0-7.4-6-13.4-13.4-13.4h-0.3v0
		C13.4,5.9,7.6,11.9,7.6,19.2c0,7.3,5.9,13.3,13.2,13.4v0H21c0.5,0,0.9,0,1.4-0.1l2.4-2.3c-0.3,0.1-0.5,0.2-0.8,0.3
		c0.8-1.1,1.5-2.4,2.1-3.7c0.6,0.2,1.2,0.4,1.8,0.6l0.6-0.6c-0.7-0.3-1.4-0.5-2.1-0.7C27,24.1,27.4,21.9,27.5,19.6z M18.1,7.8
		c-0.8,1.2-1.5,2.4-2.1,3.7c-1-0.3-2-0.6-2.9-1.1C14.5,9.3,16.3,8.3,18.1,7.8z M12.5,11.1c1,0.5,2.1,0.9,3.2,1.2
		c-0.8,2-1.2,4.2-1.2,6.5H9.3C9.4,15.8,10.6,13.1,12.5,11.1z M9.3,19.6h5.3c0,2.3,0.4,4.5,1.2,6.5c-1.1,0.3-2.2,0.7-3.2,1.2
		C10.6,25.3,9.4,22.6,9.3,19.6z M13.1,27.9c0.9-0.4,1.9-0.8,2.9-1c0.5,1.3,1.2,2.6,2.1,3.7C16.2,30.1,14.5,29.1,13.1,27.9z
		 M20.6,30.9c-0.4,0-0.9-0.1-1.3-0.1c-1-1.2-1.8-2.6-2.5-4.1c1.2-0.3,2.5-0.4,3.8-0.4V30.9z M20.6,25.4c-1.4,0-2.8,0.2-4.1,0.5
		c-0.7-2-1.1-4.1-1.2-6.3h5.3V25.4z M20.6,18.8h-5.3c0-2.2,0.4-4.3,1.2-6.3c1.3,0.3,2.7,0.5,4.1,0.5V18.8z M20.6,12.2
		c-1.3,0-2.5-0.2-3.7-0.4c0.6-1.5,1.5-2.9,2.5-4.2c0.4-0.1,0.8-0.1,1.2-0.1V12.2z M32.7,18.8h-5.3c0-2.3-0.4-4.5-1.2-6.5
		c1.1-0.3,2.2-0.7,3.2-1.2C31.4,13.1,32.6,15.8,32.7,18.8z M28.9,10.5c-0.9,0.4-1.9,0.8-2.9,1.1c-0.6-1.3-1.2-2.6-2.1-3.7
		C25.7,8.3,27.5,9.3,28.9,10.5z M21.4,7.5c0.4,0,0.8,0.1,1.2,0.1c1,1.3,1.9,2.7,2.5,4.2c-1.2,0.3-2.5,0.4-3.7,0.4V7.5z M21.4,13
		c1.4,0,2.7-0.2,4.1-0.5c0.7,2,1.1,4.1,1.2,6.3h-5.3V13z M22.7,30.8c-0.4,0.1-0.9,0.1-1.3,0.1v-4.7c1.3,0,2.6,0.2,3.8,0.4
		C24.6,28.2,23.7,29.5,22.7,30.8z M25.5,25.9c-1.3-0.3-2.7-0.5-4.1-0.5v-5.8h5.3C26.6,21.8,26.2,23.9,25.5,25.9z"/>
	<path fill="#EFF9FE" d="M19.3,30.8c0.4,0.1,0.9,0.1,1.3,0.1v-4.7c-1.3,0-2.6,0.2-3.8,0.4C17.5,28.2,18.3,29.5,19.3,30.8z"/>
	<path fill="#EFF9FE" d="M18.1,7.8c-1.9,0.5-3.6,1.4-5,2.7c0.9,0.4,1.9,0.8,2.9,1.1C16.6,10.3,17.3,9,18.1,7.8z"/>
	<path fill="#EFF9FE" d="M16.9,11.8c1.2,0.3,2.5,0.4,3.7,0.4V7.5c-0.4,0-0.8,0.1-1.2,0.1C18.3,8.9,17.5,10.3,16.9,11.8z"/>
	<path fill="#EFF9FE" d="M15.8,12.3c-1.1-0.3-2.2-0.7-3.2-1.2c-1.9,2-3.1,4.7-3.2,7.7h5.3C14.6,16.5,15,14.4,15.8,12.3z"/>
	<path fill="#EFF9FE" d="M15.3,18.8h5.3V13c-1.4,0-2.7-0.2-4.1-0.5C15.8,14.5,15.4,16.6,15.3,18.8z"/>
	<path fill="#EFF9FE" d="M16.5,25.9c1.3-0.3,2.7-0.5,4.1-0.5v-5.8h-5.3C15.4,21.8,15.8,23.9,16.5,25.9z"/>
	<path fill="#EFF9FE" d="M13.1,27.9c1.4,1.3,3.1,2.2,5,2.7c-0.8-1.1-1.5-2.4-2.1-3.7C15,27.1,14,27.4,13.1,27.9z"/>
	<path fill="#EFF9FE" d="M14.5,19.6H9.3c0.1,3,1.3,5.6,3.2,7.7c1-0.5,2.1-0.9,3.2-1.2C15,24.1,14.6,21.9,14.5,19.6z"/>
	<polygon fill="#3D6480" points="37.1,32.6 37.1,35.7 31.9,30.5 30.5,31.8 35.8,37.1 32.6,37.1 32.6,39 39,39 39,32.6 	"/>
</g>
</svg>
