<?xml version="1.0" encoding="utf-8"?>
<!-- Generator: Adobe Illustrator 17.0.0, SVG Export Plug-In . SVG Version: 6.00 Build 0)  -->
<!DOCTYPE svg PUBLIC "-//W3C//DTD SVG 1.1//EN" "http://www.w3.org/Graphics/SVG/1.1/DTD/svg11.dtd">
<svg version="1.1" id="Layer_1" xmlns="http://www.w3.org/2000/svg" xmlns:xlink="http://www.w3.org/1999/xlink" x="0px" y="0px"
	 width="42px" height="42px" viewBox="0 0 42 42" enable-background="new 0 0 42 42" xml:space="preserve">
<g>
	<path fill="none" d="M4.788,3.785h-1.01v1.63h1.01c0.518,0,0.64-0.129,0.64-0.492V4.277C5.428,3.909,5.307,3.785,4.788,3.785z"/>
	<path fill="#EFF9FE" d="M16.364,14.859c-1.113-0.303-2.195-0.699-3.229-1.193c-1.923,2.015-3.131,4.709-3.232,7.684h5.256
		C15.205,19.092,15.608,16.897,16.364,14.859z"/>
	<path fill="#EFF9FE" d="M18.76,10.388c-1.892,0.475-3.6,1.407-5.003,2.677c0.939,0.429,1.916,0.783,2.921,1.052
		C17.234,12.796,17.921,11.54,18.76,10.388z"/>
	<path fill="#EFF9FE" d="M17.118,28.438c1.329-0.296,2.702-0.458,4.092-0.482v-5.804h-5.251
		C16.001,24.351,16.394,26.476,17.118,28.438z"/>
	<path fill="#EFF9FE" d="M15.96,21.351h5.25v-5.8c-1.378-0.027-2.738-0.196-4.059-0.498C16.407,17.027,16.006,19.156,15.96,21.351z"
		/>
	<path fill="#EFF9FE" d="M15.158,22.151H9.903c0.101,2.962,1.299,5.645,3.208,7.657c1.026-0.484,2.105-0.877,3.223-1.175
		C15.596,26.607,15.201,24.415,15.158,22.151z"/>
	<path fill="#EFF9FE" d="M13.723,30.405c1.394,1.271,3.09,2.208,4.972,2.692c-0.828-1.142-1.507-2.394-2.054-3.717
		C15.632,29.642,14.655,29.984,13.723,30.405z"/>
	<path fill="#EFF9FE" d="M17.468,14.304c1.219,0.269,2.472,0.42,3.742,0.446v-4.706c-0.418,0.014-0.831,0.051-1.237,0.108
		C18.95,11.411,18.111,12.806,17.468,14.304z"/>
	<path fill="#EFF9FE" d="M19.906,33.34c0.428,0.063,0.862,0.103,1.304,0.118v-4.702c-1.285,0.024-2.553,0.17-3.783,0.435
		C18.062,30.697,18.892,32.093,19.906,33.34z"/>
	<path fill="#3D6480" d="M27.386,23.713c1.059,0,1.921-0.861,1.921-1.92s-0.862-1.921-1.921-1.921c-0.906,0-1.663,0.633-1.863,1.479
		h-3.512v-5.787h6.397c0.171,0.885,0.95,1.556,1.884,1.556c1.059,0,1.92-0.862,1.92-1.921s-0.861-1.92-1.92-1.92
		c-0.908,0-1.668,0.636-1.866,1.484h-6.415v-4.739h4.702c0.311,0.642,0.963,1.09,1.723,1.09c1.059,0,1.921-0.862,1.921-1.921
		s-0.862-1.92-1.921-1.92c-0.745,0-1.384,0.431-1.703,1.052H21.61c-7.403,0-13.427,6.023-13.427,13.427
		c0,6.952,5.312,12.686,12.09,13.359l1.737-1.607V22.151h3.491C25.671,23.039,26.45,23.713,27.386,23.713z M27.386,20.673
		c0.618,0,1.12,0.502,1.12,1.12c0,0.617-0.502,1.119-1.12,1.119c-0.617,0-1.119-0.502-1.119-1.119
		C26.267,21.175,26.769,20.673,27.386,20.673z M30.292,14.079c0.617,0,1.119,0.502,1.119,1.119c0,0.618-0.502,1.12-1.119,1.12
		c-0.618,0-1.12-0.502-1.12-1.12C29.172,14.581,29.674,14.079,30.292,14.079z M28.436,8.073c0.618,0,1.12,0.502,1.12,1.119
		c0,0.618-0.502,1.12-1.12,1.12c-0.617,0-1.119-0.502-1.119-1.12C27.316,8.575,27.818,8.073,28.436,8.073z M18.76,10.388
		c-0.839,1.152-1.526,2.408-2.082,3.729c-1.006-0.268-1.982-0.622-2.921-1.052C15.161,11.796,16.868,10.863,18.76,10.388z
		 M13.136,13.666c1.033,0.493,2.115,0.889,3.229,1.193c-0.756,2.038-1.16,4.233-1.205,6.491H9.903
		C10.004,18.376,11.212,15.682,13.136,13.666z M9.903,22.151h5.255c0.042,2.264,0.438,4.455,1.176,6.482
		c-1.118,0.298-2.197,0.69-3.223,1.175C11.203,27.796,10.004,25.113,9.903,22.151z M13.723,30.405
		c0.933-0.421,1.909-0.762,2.918-1.025c0.546,1.323,1.226,2.575,2.054,3.717C16.813,32.613,15.116,31.676,13.723,30.405z
		 M21.21,33.458c-0.441-0.015-0.876-0.055-1.304-0.118c-1.015-1.248-1.845-2.643-2.479-4.149c1.23-0.265,2.498-0.411,3.783-0.435
		V33.458z M21.21,27.956c-1.39,0.025-2.763,0.186-4.092,0.482c-0.724-1.962-1.117-4.087-1.159-6.287h5.251V27.956z M21.21,21.351
		h-5.25c0.046-2.195,0.447-4.324,1.191-6.298c1.321,0.302,2.681,0.471,4.059,0.498V21.351z M21.21,14.75
		c-1.27-0.026-2.522-0.177-3.742-0.446c0.643-1.498,1.482-2.893,2.505-4.152c0.406-0.057,0.818-0.093,1.237-0.108V14.75z"/>
	<circle fill="#EFF9FE" cx="30.292" cy="15.199" r="1.12"/>
	<circle fill="#EFF9FE" cx="28.436" cy="9.193" r="1.12"/>
	<circle fill="#EFF9FE" cx="27.386" cy="21.792" r="1.12"/>
	<path fill="#3D6480" d="M6.206,4.916V4.27c0-0.748-0.388-1.203-1.397-1.203H3v4.68h0.778V6.126h0.943l1.117,1.621h0.908
		L5.551,6.012C6.025,5.825,6.206,5.435,6.206,4.916z M5.428,4.923c0,0.363-0.122,0.492-0.64,0.492h-1.01v-1.63h1.01
		c0.519,0,0.64,0.124,0.64,0.492V4.923z"/>
	<polygon fill="#3D6480" points="10.094,7.029 8.029,7.029 8.029,5.709 9.939,5.709 9.939,4.991 8.029,4.991 8.029,3.785 
		10.087,3.785 10.087,3.067 7.251,3.067 7.251,7.747 10.094,7.747 	"/>
	<path fill="#3D6480" d="M12.159,7.103c-0.399,0-0.82-0.066-1.221-0.19L10.832,6.88L10.7,7.541l0.077,0.03
		c0.397,0.161,0.929,0.243,1.368,0.243c1.285,0,1.561-0.487,1.561-1.324c0-0.929-0.101-1.138-1.327-1.442
		c-0.459-0.114-0.644-0.171-0.73-0.258c-0.035-0.036-0.057-0.082-0.069-0.162c-0.013-0.089-0.013-0.202-0.013-0.351
		c0-0.444,0.069-0.565,0.768-0.565c0.363,0,0.778,0.046,1.128,0.125l0.111,0.025l0.066-0.689l-0.082-0.021
		C13.191,3.055,12.719,3,12.321,3c-1.152,0-1.533,0.409-1.533,1.257c0,0.979,0.165,1.226,1.289,1.477
		c0.474,0.107,0.67,0.169,0.762,0.259c0.038,0.038,0.062,0.086,0.074,0.166c0.015,0.089,0.014,0.201,0.014,0.346
		C12.927,6.947,12.837,7.103,12.159,7.103z"/>
	<polygon fill="#3D6480" points="15.416,7.747 16.194,7.747 16.194,3.785 17.532,3.785 17.532,3.067 14.077,3.067 14.077,3.785 
		15.416,3.785 	"/>
	<path fill="#FF9C04" d="M38.809,30.162l-0.376-0.376c-0.777-0.778-1.812-1.207-2.912-1.207c-1.027,0-1.989,0.387-2.747,1.071
		c-0.003-0.002-0.006-0.004-0.008-0.007l-2.052,2.053c-1.149,1.198-1.437,2.921-0.853,4.379l1.414-1.414
		c-0.033-0.659,0.193-1.329,0.696-1.832l0.67-0.671c0,0,0,0.001,0,0.001l1.264-1.264l0.008,0.008
		c0.444-0.398,1.007-0.625,1.608-0.625c0.646,0,1.254,0.252,1.71,0.708l0.376,0.376c0.942,0.943,0.942,2.478,0,3.421l-1.842,1.842
		c-0.694,0.692-1.777,0.855-2.658,0.499l-1.26,1.26c0.654,0.418,1.412,0.649,2.208,0.649c1.1,0,2.134-0.429,2.911-1.207l1.842-1.842
		C40.414,34.38,40.414,31.768,38.809,30.162z"/>
	<path fill="#FF9C04" d="M32.992,36.307l0.321-0.322c1.204-1.203,1.505-2.972,0.905-4.458l-1.412,1.413
		c0.031,0.551-0.125,1.104-0.468,1.568l0.017,0.017l-0.169,0.169c-0.026,0.029-0.045,0.062-0.074,0.09l-0.671,0.671
		c-0.002-0.004-0.003-0.008-0.005-0.012l-1.379,1.379l-0.032,0.001c-0.934,0.699-2.339,0.639-3.175-0.197l-0.376-0.376
		c-0.942-0.943-0.942-2.477,0.001-3.42l1.841-1.843c0.457-0.456,1.064-0.708,1.71-0.708c0.335,0,0.659,0.071,0.958,0.2l1.25-1.25
		c-0.654-0.419-1.413-0.65-2.208-0.65c-1.1,0-2.134,0.429-2.912,1.207l-1.841,1.843c-1.605,1.605-1.605,4.217-0.001,5.822
		l0.376,0.376c0.777,0.778,1.812,1.207,2.912,1.207c1.027,0,1.989-0.387,2.747-1.072c0.003,0.003,0.006,0.005,0.009,0.008
		l1.672-1.671L32.992,36.307z"/>
</g>
</svg>
