<?xml version="1.0" encoding="utf-8"?>
<!-- Generator: Adobe Illustrator 17.0.0, SVG Export Plug-In . SVG Version: 6.00 Build 0)  -->
<!DOCTYPE svg PUBLIC "-//W3C//DTD SVG 1.1//EN" "http://www.w3.org/Graphics/SVG/1.1/DTD/svg11.dtd">
<svg version="1.1" id="Layer_1" xmlns="http://www.w3.org/2000/svg" xmlns:xlink="http://www.w3.org/1999/xlink" x="0px" y="0px"
	 width="42px" height="42px" viewBox="0 0 42 42" enable-background="new 0 0 42 42" xml:space="preserve">
<g>
	<path fill="none" d="M31.662,28.062c-1.852,0-3.357,1.506-3.357,3.356s1.506,3.356,3.357,3.356c1.851,0,3.355-1.506,3.355-3.356
		S33.513,28.062,31.662,28.062z"/>
	<path fill="#3D6480" d="M38.717,37.181l-3.039-3.038c0.529-0.778,0.839-1.715,0.839-2.724c0-2.678-2.178-4.856-4.855-4.856
		c-1.184,0-2.255,0.442-3.099,1.148l-0.611,0.611c-0.706,0.843-1.148,1.915-1.148,3.097c0,2.678,2.179,4.856,4.857,4.856
		c0.982,0,1.895-0.298,2.66-0.801l3.051,3.051L38.717,37.181z M31.662,34.775c-1.852,0-3.357-1.506-3.357-3.356
		s1.506-3.356,3.357-3.356c1.851,0,3.355,1.506,3.355,3.356S33.513,34.775,31.662,34.775z"/>
	<path fill="#FFECCE" d="M31.739,24.534V9.477H9.439v22.301h15.057l3.457-3.457l0.611-0.611L31.739,24.534z M16.801,24.419
		l-0.609-1.773h-2.995l-0.599,1.773h-1.176l2.563-7.585h1.43l2.563,7.585H16.801z M24.025,22.734c0,1.103-0.782,1.686-1.93,1.686
		H18.99v-7.585h2.949c1.206,0,1.841,0.554,1.841,1.598v0.854c0,0.517-0.153,0.933-0.645,1.205c0.535,0.188,0.889,0.638,0.889,1.356
		V22.734z M25.155,22.257v-3.26c0-1.462,0.774-2.273,2.628-2.273c0.561,0,1.347,0.078,1.885,0.202l0.088,0.02l-0.123,1.016
		l-0.104-0.019c-0.561-0.099-1.273-0.154-1.713-0.154c-1.17,0-1.508,0.304-1.508,1.265v3.148c0,0.961,0.338,1.265,1.508,1.265
		c0.439,0,1.152-0.056,1.713-0.154l0.104-0.019l0.123,1.015l-0.088,0.021c-0.538,0.123-1.324,0.202-1.885,0.202
		C25.93,24.531,25.155,23.718,25.155,22.257z"/>
	<path fill="#FFECCE" d="M22.627,19.285v-0.832c0-0.404-0.203-0.598-0.742-0.598h-1.741v2.194h1.585
		C22.401,20.05,22.627,19.756,22.627,19.285z"/>
	<path fill="#FFECCE" d="M21.906,21.071h-1.763v2.328h1.818c0.638,0,0.909-0.259,0.909-0.742V21.88
		C22.871,21.36,22.596,21.071,21.906,21.071z"/>
	<polygon fill="#FFECCE" points="13.517,21.614 15.881,21.614 14.699,17.948 	"/>
	<polygon fill="#3D6480" points="9.439,9.477 31.739,9.477 31.739,24.534 33.439,22.835 33.439,7.778 7.739,7.778 7.739,33.477 
		22.797,33.477 24.496,31.778 9.439,31.778 	"/>
	<path fill="#3D6480" d="M13.985,16.834l-2.563,7.585h1.176l0.599-1.773h2.995l0.609,1.773h1.176l-2.563-7.585H13.985z
		 M13.517,21.614l1.183-3.666l1.182,3.666H13.517z"/>
	<path fill="#3D6480" d="M23.136,20.491c0.491-0.272,0.645-0.688,0.645-1.205v-0.854c0-1.044-0.635-1.598-1.841-1.598H18.99v7.585
		h3.104c1.147,0,1.93-0.583,1.93-1.686v-0.887C24.025,21.128,23.671,20.679,23.136,20.491z M20.144,17.856h1.741
		c0.539,0,0.742,0.193,0.742,0.598v0.832c0,0.471-0.227,0.765-0.898,0.765h-1.585V17.856z M22.871,22.657
		c0,0.483-0.271,0.742-0.909,0.742h-1.818v-2.328h1.763c0.689,0,0.965,0.289,0.965,0.81V22.657z"/>
	<path fill="#3D6480" d="M29.756,24.308l-0.123-1.015l-0.104,0.019c-0.561,0.099-1.273,0.154-1.713,0.154
		c-1.17,0-1.508-0.304-1.508-1.265v-3.148c0-0.961,0.338-1.265,1.508-1.265c0.439,0,1.152,0.056,1.713,0.154l0.104,0.019
		l0.123-1.016l-0.088-0.02c-0.538-0.124-1.324-0.202-1.885-0.202c-1.854,0-2.628,0.812-2.628,2.273v3.26
		c0,1.461,0.774,2.273,2.628,2.273c0.561,0,1.347-0.079,1.885-0.202L29.756,24.308z"/>
</g>
</svg>
