<?xml version="1.0" encoding="utf-8"?>
<!-- Generator: Adobe Illustrator 17.0.0, SVG Export Plug-In . SVG Version: 6.00 Build 0)  -->
<!DOCTYPE svg PUBLIC "-//W3C//DTD SVG 1.1//EN" "http://www.w3.org/Graphics/SVG/1.1/DTD/svg11.dtd">
<svg version="1.1" id="Layer_1" xmlns="http://www.w3.org/2000/svg" xmlns:xlink="http://www.w3.org/1999/xlink" x="0px" y="0px"
	 width="42px" height="42px" viewBox="0 0 42 42" enable-background="new 0 0 42 42" xml:space="preserve">
<g>
	<polygon fill="#3D6480" points="36.627,32.635 36.627,35.717 31.404,30.493 30.06,31.837 35.284,37.062 32.14,37.062 32.14,38.963 
		38.528,38.962 38.528,32.635 	"/>
	<path fill="#FFECCE" d="M31.663,9.85h-22.3V32.15h14.871l7.428-7.428V9.85z M15.029,27.988c-0.83,0-1.504-0.673-1.504-1.504
		s0.674-1.504,1.504-1.504c0.831,0,1.504,0.673,1.504,1.504S15.86,27.988,15.029,27.988z M19.909,27.988
		c0-3.525-2.858-6.384-6.384-6.384v-2.13c4.702,0,8.514,3.812,8.514,8.514H19.909z M25.371,27.988
		c0-6.542-5.303-11.846-11.846-11.846v-2.131c7.719,0,13.977,6.258,13.977,13.977H25.371z"/>
	<polygon fill="#3D6480" points="9.363,9.85 31.663,9.85 31.663,24.722 33.363,23.022 33.363,8.15 7.663,8.15 7.663,33.85 
		22.535,33.85 24.235,32.15 9.363,32.15 	"/>
	<path fill="#3D6480" d="M13.525,14.012v2.131c6.543,0,11.846,5.304,11.846,11.846h2.131C27.501,20.269,21.244,14.012,13.525,14.012
		z"/>
	<path fill="#3D6480" d="M13.525,19.475v2.13c3.525,0,6.384,2.858,6.384,6.384h2.13C22.039,23.286,18.227,19.475,13.525,19.475z"/>
	<circle fill="#3D6480" cx="15.029" cy="26.484" r="1.504"/>
</g>
</svg>
