<?xml version="1.0" encoding="utf-8"?>
<!-- Generator: Adobe Illustrator 17.0.0, SVG Export Plug-In . SVG Version: 6.00 Build 0)  -->
<!DOCTYPE svg PUBLIC "-//W3C//DTD SVG 1.1//EN" "http://www.w3.org/Graphics/SVG/1.1/DTD/svg11.dtd">
<svg version="1.1" id="Layer_1" xmlns="http://www.w3.org/2000/svg" xmlns:xlink="http://www.w3.org/1999/xlink" x="0px" y="0px"
	 width="42px" height="42px" viewBox="0 0 42 42" enable-background="new 0 0 42 42" xml:space="preserve">
<g>
	<polygon fill="none" points="29.31,30.818 29.31,36.138 35.014,33.481 	"/>
	<path fill="#3D6480" d="M18.498,25.535l1.401-1.574l-0.239-0.382c-0.155-0.246-0.318-0.49-0.498-0.719l-0.291-0.37l-1.927,0.873
		c-0.41-0.376-0.901-0.708-1.481-1.014l0.06-2.122l-0.437-0.134c-0.283-0.086-0.567-0.154-0.852-0.209l-0.458-0.089l-0.908,1.903
		c-0.595-0.024-1.192,0.034-1.779,0.158L9.765,20.19l-0.419,0.175c-0.265,0.11-0.523,0.234-0.775,0.371l-0.416,0.225l0.525,2.074
		c-0.481,0.37-0.897,0.789-1.262,1.268l-2.106-0.447l-0.642,1.374l1.661,1.519c-0.124,0.565-0.17,1.154-0.152,1.788l-1.878,1.007
		l0.102,0.446c0.063,0.275,0.146,0.543,0.237,0.813l0.15,0.447l2.109-0.173c0.287,0.549,0.63,1.036,1.032,1.488l-0.78,1.971
		l0.367,0.275c0.231,0.173,0.479,0.33,0.733,0.481l0.405,0.242l1.492-1.473c0.528,0.217,1.101,0.363,1.731,0.468l0.664,1.985
		l0.453-0.021c0.293-0.014,0.586-0.041,0.877-0.086l0.468-0.073l0.206-2.103c0.553-0.176,1.086-0.431,1.623-0.763l1.812,1.123
		l0.335-0.312c0.209-0.194,0.402-0.403,0.59-0.618l0.309-0.353l-1.195-1.748c0.138-0.218,0.258-0.469,0.389-0.745
		c0.135-0.293,0.248-0.563,0.37-0.889l2.079-0.297l0.058-0.453c0.038-0.294,0.059-0.585,0.065-0.879l0.01-0.471l-2.03-0.561
		C18.886,26.683,18.727,26.109,18.498,25.535z M7.909,30.114c-1.066-2.639,0.209-5.642,2.848-6.708s5.642,0.209,6.707,2.848
		c1.066,2.639-0.208,5.642-2.847,6.708C11.978,34.028,8.976,32.753,7.909,30.114z"/>
	<path fill="#3D6480" d="M28.472,26.491c0.36-0.052,0.72-0.132,1.08-0.223l0.457-0.116l-0.022-2.503
		c0.002-0.087,0.054-0.163,0.145-0.198c0.657-0.274,1.293-0.653,1.886-1.122c0.048-0.037,0.098-0.045,0.131-0.045l2.389,1.169
		l0.305-0.337c0.248-0.272,0.485-0.556,0.703-0.854l0.28-0.383l-1.637-1.921c-0.055-0.067-0.063-0.158-0.015-0.247
		c0.333-0.644,0.58-1.342,0.734-2.081c0.016-0.08,0.076-0.143,0.154-0.161l2.526-0.593l0.017-0.457c0.014-0.361,0-0.719-0.025-1.078
		l-0.032-0.465l-2.499-0.453c-0.08-0.016-0.145-0.077-0.161-0.147c-0.077-0.346-0.204-0.695-0.316-1.004
		c-0.113-0.311-0.255-0.678-0.464-1.068c-0.041-0.072-0.034-0.159,0.019-0.229l1.535-2.048l-0.281-0.361
		c-0.229-0.294-0.467-0.572-0.722-0.838l-0.326-0.34L32.148,9.65c-0.061,0.032-0.136,0.058-0.23-0.015
		c-0.588-0.448-1.236-0.814-1.919-1.086c-0.075-0.031-0.126-0.103-0.131-0.181l-0.149-2.563l-0.44-0.1
		c-0.356-0.081-0.718-0.153-1.081-0.196L27.73,5.454l-0.894,2.38c-0.028,0.076-0.099,0.129-0.163,0.134
		C25.975,8,25.248,8.141,24.439,8.398c-0.057,0-0.111-0.022-0.146-0.059l-1.777-1.879l-0.404,0.215
		c-0.328,0.174-0.641,0.365-0.944,0.57l-0.386,0.262l0.859,2.38c0.029,0.077,0.009,0.164-0.045,0.216
		c-0.554,0.51-1.028,1.084-1.403,1.695c-0.039,0.061-0.107,0.099-0.193,0.099c0,0-0.001,0-0.001,0l-2.579-0.295l-0.172,0.421
		c-0.137,0.333-0.256,0.671-0.359,1.017l-0.136,0.454l2.215,1.281c0.075,0.043,0.115,0.126,0.102,0.219
		c-0.098,0.754-0.095,1.492,0.012,2.206c0.013,0.077-0.022,0.157-0.079,0.196l-2.201,1.429l0.574,1.578l2.357-0.092l0.36-0.067
		c0.073,0,0.141,0.037,0.186,0.112c0.392,0.612,0.873,1.175,1.435,1.676c0.061,0.054,0.085,0.139,0.063,0.214l-0.751,2.485
		l0.388,0.244c0.302,0.188,0.615,0.353,0.934,0.511l0.423,0.21l1.631-1.942c0.039-0.049,0.106-0.072,0.21-0.071
		c0.737,0.232,1.472,0.36,2.193,0.381c0.083,0.002,0.154,0.05,0.188,0.126l1.027,2.367L28.472,26.491z M33.427,18.63
		c-1.449,3.414-5.391,5.007-8.805,3.558s-5.007-5.392-3.559-8.805c1.449-3.414,5.393-5.007,8.807-3.559
		C33.284,11.273,34.876,15.216,33.427,18.63z"/>
	<path fill="#0CB20F" d="M27.46,27.912V39.04l11.931-5.557L27.46,27.912z M29.31,30.818l5.704,2.663l-5.704,2.656V30.818z"/>
</g>
</svg>
