<?xml version="1.0" encoding="utf-8"?>
<!-- Generator: Adobe Illustrator 17.0.0, SVG Export Plug-In . SVG Version: 6.00 Build 0)  -->
<!DOCTYPE svg PUBLIC "-//W3C//DTD SVG 1.1//EN" "http://www.w3.org/Graphics/SVG/1.1/DTD/svg11.dtd">
<svg version="1.1" id="Layer_1" xmlns="http://www.w3.org/2000/svg" xmlns:xlink="http://www.w3.org/1999/xlink" x="0px" y="0px"
	 width="42px" height="42px" viewBox="0 0 42 42" enable-background="new 0 0 42 42" xml:space="preserve">
<g>
	<path fill="none" d="M25.764,11.49v20.155c0,1.271,1.033,2.304,2.304,2.304s2.304-1.033,2.304-2.304V11.49
		c0-0.161,0.052-0.317,0.146-0.445h-4.9C25.712,11.173,25.764,11.329,25.764,11.49z M28.633,25.019c0.486,0,0.881,0.394,0.881,0.88
		s-0.395,0.881-0.881,0.881s-0.879-0.395-0.879-0.881S28.146,25.019,28.633,25.019z M26.982,22.668c0.334,0,0.605,0.271,0.605,0.604
		c0,0.335-0.271,0.605-0.605,0.605s-0.605-0.271-0.605-0.605C26.377,22.938,26.648,22.668,26.982,22.668z M26.357,28.919h3.42v2.727
		c0,0.944-0.766,1.71-1.71,1.71s-1.71-0.766-1.71-1.71V28.919z"/>
	<path fill="none" d="M12.17,11.49v20.155c0,1.271,1.033,2.304,2.303,2.304c1.271,0,2.304-1.033,2.304-2.304V11.49
		c0-0.161,0.052-0.317,0.146-0.445h-4.899C12.118,11.173,12.17,11.329,12.17,11.49z M15.039,19.241c0.486,0,0.881,0.395,0.881,0.881
		s-0.395,0.88-0.881,0.88s-0.881-0.394-0.881-0.88S14.553,19.241,15.039,19.241z M13.388,16.171c0.335,0,0.605,0.271,0.605,0.605
		s-0.271,0.605-0.605,0.605c-0.334,0-0.604-0.271-0.604-0.605S13.054,16.171,13.388,16.171z M12.763,23.33h3.42v8.315
		c0,0.944-0.765,1.71-1.71,1.71c-0.944,0-1.71-0.766-1.71-1.71V23.33z"/>
	<path fill="#3D6480" d="M18.722,9.545h-8.459c-0.301,0-0.573,0.18-0.69,0.457s-0.058,0.599,0.151,0.814l0.946,0.978v19.852
		c0,2.098,1.706,3.804,3.803,3.804c2.098,0,3.804-1.706,3.804-3.804V11.801l0.976-0.976c0.215-0.215,0.278-0.537,0.163-0.817
		C19.299,9.727,19.025,9.545,18.722,9.545z M16.776,11.49v20.155c0,1.271-1.033,2.304-2.304,2.304c-1.27,0-2.303-1.033-2.303-2.304
		V11.49c0-0.161-0.052-0.317-0.146-0.445h4.899C16.828,11.173,16.776,11.329,16.776,11.49z"/>
	<path fill="#3D6480" d="M14.473,33.355c0.945,0,1.71-0.766,1.71-1.71V23.33h-3.42v8.315C12.763,32.59,13.528,33.355,14.473,33.355z
		"/>
	<circle fill="#3D6480" cx="13.388" cy="16.776" r="0.605"/>
	<circle fill="#3D6480" cx="15.039" cy="20.122" r="0.88"/>
	<path fill="#3D6480" d="M33.01,10.008c-0.116-0.28-0.39-0.463-0.693-0.463h-8.459c-0.301,0-0.573,0.18-0.69,0.457
		s-0.058,0.598,0.151,0.814l0.945,0.978v19.852c0,2.098,1.706,3.804,3.804,3.804s3.804-1.706,3.804-3.804V11.801l0.976-0.976
		C33.062,10.61,33.125,10.288,33.01,10.008z M30.371,11.49v20.155c0,1.271-1.033,2.304-2.304,2.304s-2.304-1.033-2.304-2.304V11.49
		c0-0.161-0.052-0.317-0.146-0.445h4.9C30.423,11.173,30.371,11.329,30.371,11.49z"/>
	<path fill="#3D6480" d="M28.067,33.355c0.944,0,1.71-0.766,1.71-1.71v-2.727h-3.42v2.727C26.357,32.59,27.123,33.355,28.067,33.355
		z"/>
	<circle fill="#3D6480" cx="26.982" cy="23.273" r="0.605"/>
	<circle fill="#3D6480" cx="28.633" cy="25.899" r="0.88"/>
</g>
</svg>
