<?xml version="1.0" encoding="utf-8"?>
<!-- Generator: Adobe Illustrator 17.0.0, SVG Export Plug-In . SVG Version: 6.00 Build 0)  -->
<!DOCTYPE svg PUBLIC "-//W3C//DTD SVG 1.1//EN" "http://www.w3.org/Graphics/SVG/1.1/DTD/svg11.dtd">
<svg version="1.1" id="Layer_1" xmlns="http://www.w3.org/2000/svg" xmlns:xlink="http://www.w3.org/1999/xlink" x="0px" y="0px"
	 width="42px" height="42px" viewBox="0 0 42 42" enable-background="new 0 0 42 42" xml:space="preserve">
<g>
	<polygon fill="none" points="8.038,16.18 13.63,16.18 10.835,7.508 	"/>
	<path fill="none" d="M35.278,25.281v-1.763c0-1.011-0.563-1.48-1.785-1.48h-3.902v5.076h3.572
		C34.69,27.114,35.278,26.409,35.278,25.281z"/>
	<path fill="none" d="M33.54,28.853h-3.949v5.357h4.066c1.434,0,2.139-0.61,2.139-1.785V30.78
		C35.796,29.535,35.091,28.853,33.54,28.853z"/>
	<path fill="#0CB20F" d="M17.87,26.156l1.954,1.954h-4.532c-1.906,0-3.456-1.55-3.456-3.456v-0.638h-1.9v0.638
		c0,2.953,2.403,5.356,5.356,5.356h4.532l-1.954,1.954l1.344,1.344l4.248-4.248l-4.248-4.248L17.87,26.156z"/>
	<path fill="#0CB20F" d="M35.514,27.89c1.386-0.518,1.786-1.41,1.786-2.608v-1.81c0-2.068-1.223-3.173-3.689-3.173h-6.04V35.95
		h6.368c2.351,0,3.878-1.175,3.878-3.36v-1.88C37.816,29.041,36.877,28.125,35.514,27.89z M29.591,22.038h3.902
		c1.222,0,1.785,0.47,1.785,1.48v1.763c0,1.128-0.588,1.833-2.115,1.833h-3.572V22.038z M35.796,32.426
		c0,1.175-0.705,1.785-2.139,1.785h-4.066v-5.357h3.949c1.551,0,2.256,0.682,2.256,1.927V32.426z"/>
	<path fill="#3D6480" d="M15.44,21.702h2.045L12.197,6.051H9.472L4.184,21.702h2.044l1.27-3.76h6.65L15.44,21.702z M8.038,16.18
		l2.797-8.672l2.795,8.672H8.038z"/>
</g>
</svg>
