<?xml version="1.0" encoding="utf-8"?>
<!-- Generator: Adobe Illustrator 17.0.0, SVG Export Plug-In . SVG Version: 6.00 Build 0)  -->
<!DOCTYPE svg PUBLIC "-//W3C//DTD SVG 1.1//EN" "http://www.w3.org/Graphics/SVG/1.1/DTD/svg11.dtd">
<svg version="1.1" id="Layer_1" xmlns="http://www.w3.org/2000/svg" xmlns:xlink="http://www.w3.org/1999/xlink" x="0px" y="0px"
	 width="42px" height="42px" viewBox="0 0 42 42" enable-background="new 0 0 42 42" xml:space="preserve">
<g>
	<polygon fill="#3D6480" points="33.901,29.123 32.557,30.467 35.322,33.231 27.505,33.231 30.27,30.467 28.926,29.123 
		23.886,34.164 28.944,39.223 30.288,37.879 27.54,35.132 35.322,35.132 32.575,37.879 33.919,39.223 38.959,34.182 	"/>
	<path fill="#FFECCE" d="M26.841,25.274c0.99-0.235,1.611-0.508,1.971-0.768V19.41c-2.245,1.116-6.733,1.192-7.868,1.192
		c-2.353,0-4.56-0.212-6.213-0.598c-0.746-0.174-1.355-0.381-1.836-0.618v5.118c1.036,0.714,4.01,1.336,8.049,1.336
		C23.206,25.841,25.3,25.64,26.841,25.274z"/>
	<path fill="#FFECCE" d="M20.944,26.73c-2.353,0-4.56-0.212-6.213-0.598c-0.746-0.174-1.355-0.381-1.835-0.618v4.93
		c0,0.589,2.838,1.734,8.04,1.734h0c1.32,0,2.562-0.085,3.684-0.23l4.193-4.193v-2.218C26.568,26.654,22.08,26.73,20.944,26.73z"/>
	<path fill="#FFECCE" d="M20.944,19.713c2.261,0,4.355-0.201,5.897-0.566c0.99-0.235,1.611-0.508,1.971-0.768v-4.755
		c-2.244,1.116-6.732,1.192-7.867,1.192c-2.353,0-4.56-0.213-6.214-0.599c-0.747-0.174-1.356-0.381-1.836-0.618l0,4.778
		C13.931,19.091,16.905,19.713,20.944,19.713z"/>
	<path fill="#FFECCE" d="M28.813,12.605V11.89c-0.192-0.52-3.05-1.479-8.05-1.479c-4.965,0-7.72,0.952-7.868,1.484v0.695
		c1.036,0.714,4.011,1.335,8.05,1.335C24.994,13.925,27.814,13.31,28.813,12.605z"/>
	<path fill="#3D6480" d="M20.936,32.179L20.936,32.179c-5.203,0-8.041-1.146-8.041-1.734v-4.93c0.48,0.237,1.089,0.445,1.835,0.618
		c1.654,0.386,3.86,0.598,6.213,0.598c1.135,0,5.624-0.076,7.868-1.192v2.218l1.7-1.7V11.89c0-2.95-7.463-3.18-9.75-3.18
		c-2.876,0-9.567,0.311-9.567,3.18v18.555c0,3.269,8.114,3.435,9.74,3.435h0c0.615,0,1.216-0.018,1.802-0.049l1.881-1.881
		C23.498,32.094,22.256,32.179,20.936,32.179z M12.895,11.894c0.147-0.532,2.903-1.484,7.868-1.484c5,0,7.857,0.96,8.05,1.479v0.715
		c-0.999,0.706-3.818,1.32-7.867,1.32c-4.04,0-7.014-0.621-8.05-1.335V11.894z M14.732,14.217c1.654,0.386,3.861,0.599,6.214,0.599
		c1.135,0,5.623-0.076,7.867-1.192v4.755c-0.361,0.26-0.981,0.533-1.971,0.768c-1.542,0.365-3.636,0.566-5.897,0.566
		c-4.039,0-7.013-0.622-8.049-1.336l0-4.778C13.376,13.835,13.985,14.043,14.732,14.217z M12.895,19.386
		c0.48,0.237,1.089,0.445,1.836,0.618c1.654,0.386,3.86,0.598,6.213,0.598c1.135,0,5.624-0.076,7.868-1.192v5.096
		c-0.361,0.26-0.981,0.533-1.971,0.768c-1.542,0.365-3.636,0.566-5.897,0.566c-4.039,0-7.013-0.622-8.049-1.336V19.386z"/>
</g>
</svg>
