<?xml version="1.0" encoding="utf-8"?>
<!-- Generator: Adobe Illustrator 17.0.0, SVG Export Plug-In . SVG Version: 6.00 Build 0)  -->
<!DOCTYPE svg PUBLIC "-//W3C//DTD SVG 1.1//EN" "http://www.w3.org/Graphics/SVG/1.1/DTD/svg11.dtd">
<svg version="1.1" id="Layer_1" xmlns="http://www.w3.org/2000/svg" xmlns:xlink="http://www.w3.org/1999/xlink" x="0px" y="0px"
	 width="42px" height="42px" viewBox="0 0 42 42" enable-background="new 0 0 42 42" xml:space="preserve">
<g>
	<path fill="none" d="M36.768,29.826c0-1.424-0.964-2.267-2.161-2.267c-1.198,0-2.161,0.843-2.161,2.267v1.074h4.322V29.826z"/>
	<path fill="none" d="M31.237,37.541h6.74v-5.141h-6.74V37.541z M34.107,34.177h1v1.588h-1V34.177z"/>
	<path fill="#3D6480" d="M38.268,30.901v-1.074c0-2.26-1.644-3.767-3.661-3.767c-2.019,0-3.661,1.507-3.661,3.767v1.074h-1.209
		v8.141h9.74v-8.141H38.268z M32.446,29.826c0-1.424,0.963-2.267,2.161-2.267c1.197,0,2.161,0.843,2.161,2.267v1.074h-4.322V29.826z
		 M37.977,37.541h-6.74v-5.141h6.74V37.541z"/>
	<rect x="34.107" y="34.177" fill="#3D6480" width="1" height="1.588"/>
	<path fill="#DBF3DB" d="M30.265,13.094h-4.257V8.836h-13.38v24.41h10.398l7.275-7.275L30.265,13.094z M20.71,24.391l-0.707,0.707
		l-3.357-3.356l3.357-3.356l0.707,0.707l-2.65,2.649L20.71,24.391z M23.561,25.098l-0.707-0.707l2.65-2.649l-2.65-2.649l0.707-0.707
		l3.357,3.356L23.561,25.098z"/>
	<polygon fill="#3D6480" points="12.629,8.836 26.008,8.836 26.008,13.094 30.265,13.094 30.302,25.971 31.998,24.276 
		31.965,13.104 30.257,11.395 27.708,11.395 27.708,8.846 25.998,7.137 10.929,7.137 10.929,34.946 21.328,34.946 23.027,33.246 
		12.629,33.246 	"/>
	<polygon fill="#3D6480" points="20.003,18.385 16.645,21.741 20.003,25.098 20.71,24.391 18.059,21.741 20.71,19.092 	"/>
	<polygon fill="#3D6480" points="22.854,19.092 25.505,21.741 22.854,24.391 23.561,25.098 26.919,21.741 23.561,18.385 	"/>
</g>
</svg>
