<?xml version="1.0" encoding="utf-8"?>
<!-- Generator: Adobe Illustrator 17.0.0, SVG Export Plug-In . SVG Version: 6.00 Build 0)  -->
<!DOCTYPE svg PUBLIC "-//W3C//DTD SVG 1.1//EN" "http://www.w3.org/Graphics/SVG/1.1/DTD/svg11.dtd">
<svg version="1.1" id="Layer_1" xmlns="http://www.w3.org/2000/svg" xmlns:xlink="http://www.w3.org/1999/xlink" x="0px" y="0px"
	 width="42px" height="42px" viewBox="0 0 42 42" enable-background="new 0 0 42 42" xml:space="preserve">
<g>
	<path fill="none" d="M32.714,11.246H9.98v2.563h22.734V11.246z M31.628,12.833h-2.369v-0.801h2.369V12.833z"/>
	<path fill="#3D6480" d="M37.907,33.143c0.021-0.375-0.003-0.755-0.07-1.138l1.308-0.957l-0.177-0.464
		c-0.078-0.203-0.171-0.399-0.269-0.595l-0.228-0.455l-1.553,0.355c-0.104-0.133-0.224-0.264-0.347-0.396
		c-0.143-0.152-0.278-0.289-0.434-0.421l0.385-1.558l-0.434-0.241c-0.198-0.11-0.397-0.209-0.603-0.298l-0.47-0.203l-0.951,1.266
		c-0.366-0.084-0.743-0.127-1.12-0.128l-0.71-1.435l-0.48,0.086c-0.219,0.039-0.438,0.085-0.652,0.146l-0.491,0.142l0.067,1.596
		c-0.314,0.162-0.624,0.372-0.925,0.626l-1.476-0.646l-0.312,0.384c-0.143,0.175-0.272,0.357-0.395,0.545l-0.276,0.425l1.079,1.163
		c-0.148,0.352-0.256,0.713-0.318,1.07l-1.548,0.458l0.004,0.491c0.003,0.221,0.016,0.439,0.041,0.658l0.058,0.508l1.592,0.197
		c0.11,0.367,0.259,0.715,0.447,1.041l-0.909,1.35l0.981,1.053l1.378-0.644l0.145-0.089c0.313,0.204,0.654,0.373,1.018,0.505
		l0.176,1.611l0.488,0.079c0.216,0.035,0.431,0.053,0.648,0.065l0.509,0.027l0.465-1.52c0.403-0.049,0.784-0.14,1.095-0.266
		l1.178,1.12l0.425-0.258c0.19-0.115,0.373-0.245,0.553-0.382l0.407-0.309l-0.626-1.438c0.252-0.27,0.477-0.576,0.668-0.91
		l1.605,0.098l0.16-0.468c0.073-0.211,0.139-0.426,0.189-0.643l0.117-0.5L37.907,33.143z M32.866,36.525c-1.988,0-3.6-1.611-3.6-3.6
		s1.611-3.601,3.6-3.601s3.6,1.612,3.6,3.601S34.855,36.525,32.866,36.525z"/>
	<circle fill="#FFFFFF" cx="32.866" cy="32.925" r="3.6"/>
	<path fill="#EFF9FE" d="M15.271,21.861c-0.072,0-0.143,0.014-0.209,0.039c-0.077,0.029-0.146,0.073-0.204,0.132
		c-0.228,0.229-0.228,0.599,0,0.827c0.222,0.222,0.606,0.221,0.826,0c0.11-0.111,0.171-0.258,0.171-0.414
		c0-0.155-0.061-0.302-0.171-0.411C15.574,21.922,15.427,21.861,15.271,21.861z"/>
	<path fill="#EFF9FE" d="M19.681,21.486l-0.123-0.321c-0.171-0.445-0.43-0.844-0.768-1.183c-0.548-0.547-1.251-0.88-2.034-0.961
		c-0.135-0.016-0.265-0.022-0.394-0.022c-0.895,0-1.736,0.35-2.371,0.983c-1.322,1.323-1.322,3.476,0,4.798
		c1.281,1.281,3.516,1.281,4.799,0c0.269-0.27,0.487-0.576,0.649-0.91l0.138-0.281h3.202l1.132-1.062l1.78,0.94l0.876-0.939
		l2.046,0.96l0.73-0.725l-1.276-1.277H19.681z M16.108,23.283c-0.224,0.224-0.521,0.347-0.837,0.347
		c-0.315,0-0.612-0.123-0.837-0.346c-0.462-0.463-0.462-1.214,0-1.676c0.119-0.119,0.258-0.21,0.414-0.269
		c0.428-0.165,0.934-0.057,1.261,0.27c0.223,0.223,0.346,0.52,0.347,0.836C16.455,22.761,16.332,23.059,16.108,23.283z"/>
	<path fill="#EFF9FE" d="M32.714,14.61H9.98v15.328h16.355l6.379-6.379V14.61z M28.823,24.689l-2.021-0.946l-0.901,0.967
		l-1.825-0.966l-0.899,0.845H20.19c-0.188,0.325-0.421,0.626-0.691,0.897c-0.831,0.831-1.935,1.288-3.108,1.288
		c-1.173,0-2.276-0.457-3.105-1.287c-1.712-1.712-1.712-4.499,0-6.212c0.942-0.942,2.253-1.395,3.58-1.248
		c1.009,0.104,1.921,0.536,2.633,1.248c0.355,0.356,0.643,0.763,0.856,1.211h8.128l2.278,2.281L28.823,24.689z"/>
	<path fill="#3D6480" d="M9.98,14.61h22.734v8.949l1.699-1.699V9.547H8.281v22.09h16.355l1.699-1.699H9.98V14.61z M9.98,11.246
		h22.734v2.563H9.98V11.246z"/>
	<rect x="29.259" y="12.033" fill="#3D6480" width="2.369" height="0.801"/>
	<path fill="#3D6480" d="M14.848,21.339c-0.156,0.059-0.295,0.149-0.414,0.269c-0.462,0.462-0.462,1.213,0,1.676
		c0.225,0.223,0.521,0.346,0.837,0.346c0.316,0,0.613-0.123,0.837-0.347c0.225-0.224,0.348-0.521,0.348-0.838
		c-0.001-0.316-0.124-0.613-0.347-0.836C15.782,21.283,15.276,21.174,14.848,21.339z M15.684,22.859
		c-0.22,0.221-0.604,0.222-0.826,0c-0.228-0.229-0.228-0.599,0-0.827c0.059-0.059,0.127-0.103,0.204-0.132
		c0.066-0.025,0.137-0.039,0.209-0.039c0.156,0,0.303,0.062,0.413,0.173c0.11,0.109,0.171,0.256,0.171,0.411
		C15.855,22.601,15.794,22.747,15.684,22.859z"/>
	<path fill="#3D6480" d="M20.354,20.486c-0.214-0.448-0.501-0.854-0.856-1.211c-0.712-0.712-1.624-1.144-2.633-1.248
		c-1.327-0.146-2.638,0.306-3.58,1.248c-1.712,1.713-1.712,4.5,0,6.212c0.829,0.83,1.933,1.287,3.105,1.287
		c1.174,0,2.277-0.457,3.108-1.288c0.271-0.271,0.503-0.572,0.691-0.897h2.986l0.899-0.845l1.825,0.966l0.901-0.967l2.021,0.946
		l1.938-1.922l-2.278-2.281H20.354z M28.614,23.488l-2.046-0.96l-0.876,0.939l-1.78-0.94l-1.132,1.062h-3.202l-0.138,0.281
		c-0.162,0.334-0.381,0.641-0.649,0.91c-1.283,1.281-3.518,1.281-4.799,0c-1.322-1.322-1.322-3.475,0-4.798
		c0.635-0.634,1.477-0.983,2.371-0.983c0.129,0,0.259,0.007,0.394,0.022c0.783,0.081,1.486,0.414,2.034,0.961
		c0.338,0.339,0.597,0.737,0.768,1.183l0.123,0.321h8.387l1.276,1.277L28.614,23.488z"/>
</g>
</svg>
