<?xml version="1.0" encoding="utf-8"?>
<!-- Generator: Adobe Illustrator 17.0.0, SVG Export Plug-In . SVG Version: 6.00 Build 0)  -->
<!DOCTYPE svg PUBLIC "-//W3C//DTD SVG 1.1//EN" "http://www.w3.org/Graphics/SVG/1.1/DTD/svg11.dtd">
<svg version="1.1" id="Layer_1" xmlns="http://www.w3.org/2000/svg" xmlns:xlink="http://www.w3.org/1999/xlink" x="0px" y="0px"
	 width="42px" height="42px" viewBox="0 0 42 42" enable-background="new 0 0 42 42" xml:space="preserve">
<g>
	<path fill="#FFECCE" d="M31.831,8.721H17.18c-2.408,0-3.734,1.326-3.734,3.734v15.252h6.161v1.699h-9.437
		c-1.068,0-1.938,0.869-1.938,1.937c0,1.068,0.869,1.938,1.938,1.938H25.27c2.408,0,3.735-1.327,3.735-3.735V11.478h1.699v1.117
		h1.127c1.068,0,1.938-0.869,1.938-1.937C33.769,9.59,32.899,8.721,31.831,8.721z M19.483,22.088c0,0.351-0.024,0.573-0.195,0.827
		c-0.08,0.121-0.194,0.247-0.346,0.397l-0.6,0.566l-0.09,0.084l-0.631-0.712l0.084-0.08c0.406-0.39,0.6-0.577,0.695-0.717
		c0.084-0.121,0.088-0.196,0.088-0.393v-5.937h0.994V22.088z M22.36,22.276c-0.569,0-1.26-0.106-1.775-0.314l-0.094-0.038
		l0.169-0.841l0.128,0.039c0.521,0.163,1.07,0.249,1.59,0.249c0.885,0,1.008-0.206,1.008-0.789c0-0.188,0-0.334-0.019-0.451
		c-0.017-0.104-0.048-0.169-0.1-0.22c-0.122-0.12-0.38-0.2-0.994-0.339c-1.458-0.326-1.668-0.642-1.668-1.91
		c0-1.096,0.489-1.624,1.982-1.624c0.517,0,1.13,0.07,1.604,0.196l0.1,0.026l-0.084,0.876l-0.135-0.03
		c-0.455-0.103-0.995-0.163-1.468-0.163c-0.911,0-1.007,0.161-1.007,0.745c0,0.193-0.001,0.341,0.017,0.457
		c0.016,0.104,0.044,0.167,0.093,0.215c0.114,0.115,0.358,0.19,0.953,0.339c1.592,0.396,1.717,0.664,1.717,1.865
		C24.378,21.647,24.026,22.276,22.36,22.276z"/>
	<path fill="#3D6480" d="M31.831,7.022H17.18c-3.352,0-5.434,2.082-5.434,5.434v15.252h-1.577c-2.006,0-3.637,1.631-3.637,3.636
		c0,2.006,1.631,3.637,3.637,3.637H25.27c3.353,0,5.435-2.082,5.435-5.435V14.294h1.127c2.006,0,3.637-1.631,3.637-3.636
		C35.468,8.652,33.837,7.022,31.831,7.022z M31.831,12.595h-1.127v-1.117h-1.699v18.067c0,2.408-1.327,3.735-3.735,3.735H10.169
		c-1.068,0-1.938-0.869-1.938-1.938c0-1.067,0.869-1.937,1.938-1.937h9.437v-1.699h-6.161V12.455c0-2.408,1.326-3.734,3.734-3.734
		h14.651c1.068,0,1.938,0.869,1.938,1.938C33.769,11.726,32.899,12.595,31.831,12.595z"/>
	<path fill="#3D6480" d="M18.489,22.062c0,0.196-0.004,0.271-0.088,0.393c-0.096,0.14-0.289,0.327-0.695,0.717l-0.084,0.08
		l0.631,0.712l0.09-0.084l0.6-0.566c0.151-0.15,0.266-0.276,0.346-0.397c0.171-0.254,0.195-0.477,0.195-0.827v-5.963h-0.994V22.062z
		"/>
	<path fill="#3D6480" d="M22.661,18.699c-0.595-0.148-0.839-0.224-0.953-0.339c-0.049-0.048-0.077-0.11-0.093-0.215
		c-0.018-0.116-0.017-0.264-0.017-0.457c0-0.584,0.096-0.745,1.007-0.745c0.473,0,1.013,0.061,1.468,0.163l0.135,0.03l0.084-0.876
		l-0.1-0.026c-0.475-0.126-1.088-0.196-1.604-0.196c-1.493,0-1.982,0.528-1.982,1.624c0,1.269,0.21,1.584,1.668,1.91
		c0.614,0.139,0.872,0.219,0.994,0.339c0.052,0.051,0.083,0.115,0.1,0.22c0.019,0.117,0.019,0.263,0.019,0.451
		c0,0.583-0.123,0.789-1.008,0.789c-0.52,0-1.068-0.086-1.59-0.249l-0.128-0.039l-0.169,0.841l0.094,0.038
		c0.516,0.208,1.206,0.314,1.775,0.314c1.666,0,2.018-0.63,2.018-1.712C24.378,19.363,24.253,19.095,22.661,18.699z"/>
</g>
</svg>
