<?xml version="1.0" encoding="utf-8"?>
<!-- Generator: Adobe Illustrator 17.0.0, SVG Export Plug-In . SVG Version: 6.00 Build 0)  -->
<!DOCTYPE svg PUBLIC "-//W3C//DTD SVG 1.1//EN" "http://www.w3.org/Graphics/SVG/1.1/DTD/svg11.dtd">
<svg version="1.1" id="Layer_1" xmlns="http://www.w3.org/2000/svg" xmlns:xlink="http://www.w3.org/1999/xlink" x="0px" y="0px"
	 width="42px" height="42px" viewBox="0 0 42 42" enable-background="new 0 0 42 42" xml:space="preserve">
<g>
	<path fill="#EFF9FE" d="M31.832,9.061H17.18c-2.408,0-3.734,1.327-3.734,3.735v15.251h6.161v1.699h-9.438
		c-1.068,0-1.938,0.869-1.938,1.938c0,1.067,0.869,1.937,1.938,1.937H25.27c2.408,0,3.734-1.326,3.734-3.734V11.818h1.699v1.116
		h1.129c1.067,0,1.937-0.869,1.937-1.937C33.769,9.93,32.899,9.061,31.832,9.061z M20.308,23.285h-3.641v-0.801h3.641V23.285z
		 M25.758,19.902h-9.091v-0.801h9.091V19.902z M25.758,16.519h-9.091v-0.801h9.091V16.519z"/>
	<path fill="#3D6480" d="M31.832,7.361H17.18c-3.352,0-5.434,2.082-5.434,5.435v15.251h-1.577c-2.006,0-3.637,1.631-3.637,3.637
		c0,2.005,1.631,3.636,3.637,3.636H25.27c3.352,0,5.434-2.082,5.434-5.434V14.634h1.129c2.005,0,3.636-1.631,3.636-3.636
		C35.468,8.992,33.837,7.361,31.832,7.361z M31.832,12.935h-1.129v-1.116h-1.699v18.067c0,2.408-1.326,3.734-3.734,3.734H10.169
		c-1.068,0-1.938-0.869-1.938-1.937c0-1.068,0.869-1.938,1.938-1.938h9.438v-1.699h-6.161V12.796c0-2.408,1.326-3.735,3.734-3.735
		h14.652c1.067,0,1.937,0.869,1.937,1.938C33.769,12.065,32.899,12.935,31.832,12.935z"/>
	<rect x="16.667" y="15.719" fill="#3D6480" width="9.091" height="0.801"/>
	<rect x="16.667" y="19.102" fill="#3D6480" width="9.091" height="0.801"/>
	<rect x="16.667" y="22.484" fill="#3D6480" width="3.641" height="0.801"/>
</g>
</svg>
