<?xml version="1.0" encoding="utf-8"?>
<!-- Generator: Adobe Illustrator 17.0.0, SVG Export Plug-In . SVG Version: 6.00 Build 0)  -->
<!DOCTYPE svg PUBLIC "-//W3C//DTD SVG 1.1//EN" "http://www.w3.org/Graphics/SVG/1.1/DTD/svg11.dtd">
<svg version="1.1" id="Layer_1" xmlns="http://www.w3.org/2000/svg" xmlns:xlink="http://www.w3.org/1999/xlink" x="0px" y="0px"
	 width="42px" height="42px" viewBox="0 0 42 42" enable-background="new 0 0 42 42" xml:space="preserve">
<g>
	<rect x="4.82" y="31.389" fill="none" width="32.36" height="3.991"/>
	<rect x="4.82" y="6.62" fill="none" width="15.33" height="3.991"/>
	<rect x="4.82" y="23.133" fill="none" width="15.33" height="3.991"/>
	<path fill="#3D6480" d="M21.85,4.921H3.12v7.39h18.73V4.921z M20.15,10.611H4.82V6.62h15.33V10.611z"/>
	<rect x="4.82" y="14.876" fill="#EFF9FE" width="32.36" height="3.991"/>
	<path fill="#3D6480" d="M3.12,13.177v7.39H38.88v-7.39H3.12z M37.18,18.867H4.82v-3.991h32.36V18.867z"/>
	<path fill="#3D6480" d="M3.12,37.079H38.88v-7.39H3.12V37.079z M4.82,31.389h32.36v3.991H4.82V31.389z"/>
	<path fill="#3D6480" d="M21.85,21.434H3.12v7.39h18.73V21.434z M20.15,27.124H4.82v-3.991h15.33V27.124z"/>
	<polygon fill="#EA102A" points="25.948,12.587 28.847,9.688 31.745,12.587 33.089,11.243 30.19,8.345 33.089,5.446 31.745,4.103 
		28.847,7.001 25.948,4.103 24.604,5.446 27.503,8.345 24.604,11.243 	"/>
	<polygon fill="#EA102A" points="25.948,29.277 28.847,26.379 31.745,29.277 33.089,27.934 30.19,25.035 33.089,22.137 
		31.745,20.793 28.847,23.691 25.948,20.793 24.604,22.137 27.503,25.035 24.604,27.934 	"/>
</g>
</svg>
