<?xml version="1.0" encoding="utf-8"?>
<!-- Generator: Adobe Illustrator 17.0.0, SVG Export Plug-In . SVG Version: 6.00 Build 0)  -->
<!DOCTYPE svg PUBLIC "-//W3C//DTD SVG 1.1//EN" "http://www.w3.org/Graphics/SVG/1.1/DTD/svg11.dtd">
<svg version="1.1" id="Layer_1" xmlns="http://www.w3.org/2000/svg" xmlns:xlink="http://www.w3.org/1999/xlink" x="0px" y="0px"
	 width="42px" height="42px" viewBox="0 0 42 42" enable-background="new 0 0 42 42" xml:space="preserve">
<g>
	<path fill="#0CB20F" d="M32.076,18.191c0.683,2.09,0.761,4.323,0.228,6.46c-0.753,3.021-2.636,5.565-5.303,7.168
		c-2.667,1.603-5.799,2.071-8.819,1.316c-3.02-0.752-5.564-2.636-7.167-5.303s-2.07-5.799-1.317-8.818
		c1.554-6.232,7.89-10.043,14.122-8.484c2.07,0.516,3.927,1.581,5.519,3.164l1.199-1.205c-1.813-1.803-3.935-3.017-6.307-3.609
		c-7.141-1.777-14.402,2.581-16.183,9.723c-0.863,3.461-0.327,7.05,1.509,10.106c1.836,3.056,4.753,5.214,8.213,6.076
		c1.08,0.27,2.172,0.403,3.256,0.403c2.392,0,4.747-0.648,6.85-1.911c3.056-1.837,5.215-4.754,6.077-8.214
		c0.611-2.447,0.521-5.006-0.261-7.399L32.076,18.191z"/>
	<polygon fill="#0CB20F" points="15.305,19.394 14.103,20.595 20.955,27.448 37.004,11.397 35.802,10.196 20.955,25.044 	"/>
</g>
</svg>
