<?xml version="1.0" encoding="utf-8"?>
<!-- Generator: Adobe Illustrator 17.0.0, SVG Export Plug-In . SVG Version: 6.00 Build 0)  -->
<!DOCTYPE svg PUBLIC "-//W3C//DTD SVG 1.1//EN" "http://www.w3.org/Graphics/SVG/1.1/DTD/svg11.dtd">
<svg version="1.1" id="Layer_1" xmlns="http://www.w3.org/2000/svg" xmlns:xlink="http://www.w3.org/1999/xlink" x="0px" y="0px"
	 width="42px" height="42px" viewBox="0 0 42 42" enable-background="new 0 0 42 42" xml:space="preserve">
<g>
	<polygon fill="#3D6480" points="5.534,12.08 11.922,12.079 11.922,5.752 10.021,5.752 10.021,8.835 4.798,3.611 3.454,4.954 
		8.678,10.18 5.534,10.18 	"/>
	<path fill="#DBF3DB" d="M21.315,22.83c0.874,0,1.256-0.372,1.256-1.023v-2.396c0-0.65-0.382-1.023-1.256-1.023
		c-0.873,0-1.256,0.373-1.256,1.023v2.396C20.059,22.458,20.442,22.83,21.315,22.83z"/>
	<path fill="#DBF3DB" d="M30.036,33.5l-0.058-20.153h-4.257V9.089h-7.083l-6.295,6.295V33.5H30.036z M24.403,17.721h0.941v4.872
		h2.391v0.866h-3.332V17.721z M19.159,19.394c0-1.005,0.635-1.82,2.156-1.82c1.522,0,2.157,0.815,2.157,1.82v2.431
		c0,0.828-0.437,1.543-1.466,1.75l0.475,1.073l-0.811,0.368l-0.592-1.403c-1.377-0.071-1.92-0.83-1.92-1.788V19.394z M17.366,21.512
		c-0.016-0.099-0.045-0.159-0.094-0.208c-0.115-0.113-0.359-0.188-0.939-0.32c-1.38-0.309-1.58-0.607-1.58-1.808
		c0-1.037,0.465-1.538,1.877-1.538c0.488,0,1.069,0.067,1.519,0.186l0.095,0.025l-0.08,0.831l-0.127-0.028
		c-0.431-0.098-0.942-0.155-1.389-0.155c-0.862,0-0.953,0.152-0.953,0.704c0,0.184,0,0.322,0.017,0.433
		c0.015,0.1,0.042,0.157,0.087,0.203c0.108,0.108,0.339,0.179,0.902,0.32c1.506,0.374,1.625,0.628,1.625,1.766
		c0,1.024-0.334,1.62-1.91,1.62c-0.54,0-1.192-0.101-1.68-0.298l-0.09-0.035l0.16-0.798l0.122,0.037
		c0.494,0.154,1.012,0.235,1.504,0.235c0.837,0,0.952-0.194,0.952-0.745C17.384,21.76,17.384,21.622,17.366,21.512z"/>
	<polygon fill="#3D6480" points="31.678,13.358 29.968,11.648 27.421,11.648 27.421,9.101 25.71,7.39 20.337,7.39 18.637,9.089 
		25.721,9.089 25.721,13.347 29.978,13.347 30.036,33.5 12.342,33.5 12.342,15.385 10.642,17.085 10.642,35.2 31.741,35.2 	"/>
	<path fill="#3D6480" d="M16.431,22.684c-0.492,0-1.01-0.081-1.504-0.235l-0.122-0.037l-0.16,0.798l0.09,0.035
		c0.487,0.197,1.14,0.298,1.68,0.298c1.576,0,1.91-0.596,1.91-1.62c0-1.138-0.119-1.392-1.625-1.766
		c-0.563-0.142-0.794-0.212-0.902-0.32c-0.045-0.046-0.072-0.104-0.087-0.203c-0.017-0.11-0.017-0.249-0.017-0.433
		c0-0.552,0.091-0.704,0.953-0.704c0.446,0,0.958,0.058,1.389,0.155l0.127,0.028l0.08-0.831l-0.095-0.025
		c-0.449-0.118-1.03-0.186-1.519-0.186c-1.412,0-1.877,0.501-1.877,1.538c0,1.2,0.2,1.499,1.58,1.808
		c0.58,0.132,0.824,0.207,0.939,0.32c0.049,0.049,0.078,0.109,0.094,0.208c0.018,0.11,0.018,0.248,0.018,0.427
		C17.384,22.49,17.268,22.684,16.431,22.684z"/>
	<polygon fill="#3D6480" points="27.735,22.593 25.344,22.593 25.344,17.721 24.403,17.721 24.403,23.459 27.735,23.459 	"/>
	<path fill="#DBF3DB" d="M21.079,23.613l0.592,1.403l0.811-0.368l-0.475-1.073c1.029-0.207,1.466-0.922,1.466-1.75v-2.431
		c0-1.005-0.635-1.82-2.157-1.82c-1.521,0-2.156,0.815-2.156,1.82v2.431C19.159,22.783,19.702,23.541,21.079,23.613z M20.059,19.411
		c0-0.65,0.383-1.023,1.256-1.023c0.874,0,1.256,0.373,1.256,1.023v2.396c0,0.651-0.382,1.023-1.256,1.023
		c-0.873,0-1.256-0.372-1.256-1.023V19.411z"/>
	<path fill="#3D6480" d="M21.079,23.613l0.592,1.403l0.811-0.368l-0.475-1.073c1.029-0.207,1.466-0.922,1.466-1.75v-2.431
		c0-1.005-0.635-1.82-2.157-1.82c-1.521,0-2.156,0.815-2.156,1.82v2.431C19.159,22.783,19.702,23.541,21.079,23.613z M20.059,19.411
		c0-0.65,0.383-1.023,1.256-1.023c0.874,0,1.256,0.373,1.256,1.023v2.396c0,0.651-0.382,1.023-1.256,1.023
		c-0.873,0-1.256-0.372-1.256-1.023V19.411z"/>
</g>
</svg>
