<?xml version="1.0" encoding="utf-8"?>
<!-- Generator: Adobe Illustrator 17.0.0, SVG Export Plug-In . SVG Version: 6.00 Build 0)  -->
<!DOCTYPE svg PUBLIC "-//W3C//DTD SVG 1.1//EN" "http://www.w3.org/Graphics/SVG/1.1/DTD/svg11.dtd">
<svg version="1.1" id="Layer_1" xmlns="http://www.w3.org/2000/svg" xmlns:xlink="http://www.w3.org/1999/xlink" x="0px" y="0px"
	 width="42px" height="42px" viewBox="0 0 42 42" enable-background="new 0 0 42 42" xml:space="preserve">
<g>
	<polygon fill="#3D6480" points="5.534,11.599 11.924,11.598 11.924,5.27 10.023,5.27 10.023,8.353 4.798,3.128 3.454,4.472 
		8.68,9.698 5.534,9.698 	"/>
	<path fill="#EFF9FE" d="M16.491,26.741h7.4v-5.717h-7.4V26.741z M19.791,23.2h0.801v1.339h-0.801V23.2z"/>
	<path fill="#EFF9FE" d="M22.846,18.394c0-1.521-1.191-2.757-2.655-2.757s-2.655,1.236-2.655,2.757v1.829h5.311V18.394z"/>
	<path fill="#3D6480" d="M29.038,33.018H11.343V16.072l-1.699,1.699v16.945h21.072V24.084L30.71,21.79
		c-0.583-0.033-1.151-0.122-1.7-0.262L29.038,33.018z"/>
	<path fill="#3D6480" d="M24.543,6.908h-4.036l-1.699,1.699h4.532C23.672,7.992,24.081,7.426,24.543,6.908z"/>
	<rect x="19.791" y="23.2" fill="#3D6480" width="0.801" height="1.339"/>
	<path fill="#3D6480" d="M23.647,18.394c0-0.376-0.072-0.731-0.178-1.071c-0.197-0.34-0.375-0.691-0.526-1.058
		c-0.631-0.862-1.625-1.429-2.752-1.429c-1.905,0-3.456,1.596-3.456,3.558v1.829H15.69v7.318h9.002v-7.318h-1.045V18.394z
		 M17.536,18.394c0-1.521,1.191-2.757,2.655-2.757s2.655,1.236,2.655,2.757v1.829h-5.311V18.394z M23.891,21.024v5.717h-7.4v-5.717
		H23.891z"/>
	<path fill="#EFF9FE" d="M23.265,12.856c0-2.394,1.067-4.54,2.746-6h-1.421c-0.016,0.017-0.032,0.034-0.047,0.052
		c-0.462,0.518-0.871,1.084-1.204,1.699h-4.532l-7.465,7.465v16.945h17.695l-0.027-11.49c0.548,0.14,1.116,0.229,1.7,0.262
		c0.001,0,0.003,0,0.005,0v-1C26.564,20.525,23.265,17.073,23.265,12.856z M24.692,27.542H15.69v-7.318h1.045v-1.829
		c0-1.962,1.551-3.558,3.456-3.558c1.127,0,2.121,0.567,2.752,1.429c0.151,0.366,0.33,0.718,0.526,1.058
		c0.105,0.34,0.178,0.696,0.178,1.071v1.829h1.045V27.542z"/>
	<path fill="#FFECCE" d="M29.101,8.376c0.533,0.102,1.074,0.167,1.624,0.192V5.923c-0.034,0.002-0.068,0.002-0.102,0.005
		C30.003,6.667,29.493,7.491,29.101,8.376z"/>
	<path fill="#FFECCE" d="M28.805,16.67c0.628-0.125,1.269-0.199,1.919-0.224v-3.239h-2.551
		C28.209,14.414,28.419,15.584,28.805,16.67z"/>
	<path fill="#FFECCE" d="M29.597,6.098c-1.102,0.266-2.101,0.792-2.93,1.513c0.559,0.253,1.133,0.476,1.732,0.631
		C28.721,7.483,29.118,6.762,29.597,6.098z"/>
	<path fill="#FFECCE" d="M27.474,13.206h-3.192c0.083,1.674,0.755,3.194,1.82,4.353c0.643-0.306,1.318-0.551,2.02-0.734
		C27.726,15.686,27.509,14.466,27.474,13.206z"/>
	<path fill="#FFECCE" d="M28.14,8.891c-0.697-0.186-1.363-0.452-2.008-0.762c-1.08,1.163-1.765,2.691-1.85,4.378h3.192
		C27.512,11.252,27.736,10.033,28.14,8.891z"/>
	<path fill="#FFECCE" d="M26.641,18.086c0.822,0.722,1.816,1.25,2.912,1.521c-0.471-0.656-0.857-1.375-1.174-2.13
		C27.777,17.629,27.199,17.838,26.641,18.086z"/>
	<path fill="#FFECCE" d="M28.175,12.507h2.55v-3.24c-0.643-0.027-1.275-0.106-1.896-0.233C28.429,10.127,28.212,11.3,28.175,12.507z
		"/>
	<path fill="#FFECCE" d="M30.582,19.781c0.048,0.004,0.094,0.014,0.142,0.017v-0.814v-1.839c-0.558,0.023-1.108,0.086-1.649,0.187
		C29.462,18.223,29.967,19.048,30.582,19.781z"/>
	<circle fill="#FFECCE" cx="36.787" cy="8.942" r="0.586"/>
	<path fill="#FF9C04" d="M36.787,7.725c-0.55,0-0.998,0.374-1.147,0.875H35.22h-3.496V5.897h2.165
		c0.182,0.442,0.616,0.755,1.123,0.755c0.074,0,0.138-0.029,0.208-0.042c0.568-0.102,1.009-0.578,1.009-1.175
		c0-0.671-0.546-1.217-1.217-1.217c-0.231,0-0.436,0.082-0.62,0.195c-0.194,0.118-0.354,0.28-0.457,0.484h-2.113h-0.598
		c-1.994,0-3.815,0.743-5.213,1.959c-1.679,1.46-2.746,3.606-2.746,6c0,4.217,3.299,7.669,7.45,7.933
		c0.169,0.011,0.337,0.026,0.509,0.026h0.5v-0.5v-1.332v-5.777h1.742c0.158,0.489,0.602,0.849,1.142,0.849
		c0.228,0,0.43-0.08,0.612-0.189c0.355-0.213,0.605-0.584,0.605-1.027c0-0.443-0.25-0.815-0.605-1.028
		c-0.183-0.11-0.384-0.19-0.612-0.19c-0.554,0-1.003,0.38-1.15,0.887h-1.734V9.299h3.496h0.422c0.155,0.494,0.6,0.86,1.145,0.86
		c0.671,0,1.218-0.547,1.218-1.218S37.458,7.725,36.787,7.725z M35.012,4.85c0.323,0,0.586,0.263,0.586,0.586
		s-0.263,0.586-0.586,0.586s-0.586-0.263-0.586-0.586S34.689,4.85,35.012,4.85z M29.597,6.098c-0.479,0.665-0.875,1.386-1.198,2.144
		c-0.6-0.156-1.173-0.378-1.732-0.631C27.496,6.889,28.495,6.363,29.597,6.098z M26.133,8.129c0.645,0.31,1.311,0.576,2.008,0.762
		c-0.405,1.142-0.629,2.361-0.665,3.616h-3.192C24.367,10.82,25.053,9.291,26.133,8.129z M24.282,13.206h3.192
		c0.035,1.26,0.252,2.48,0.648,3.619c-0.702,0.183-1.377,0.428-2.02,0.734C25.038,16.4,24.366,14.88,24.282,13.206z M26.641,18.086
		c0.557-0.248,1.135-0.457,1.737-0.609c0.317,0.755,0.703,1.473,1.174,2.13C28.458,19.335,27.464,18.808,26.641,18.086z
		 M30.724,18.983v0.814c-0.048-0.003-0.094-0.013-0.142-0.017c-0.616-0.733-1.12-1.558-1.507-2.449
		c0.541-0.101,1.091-0.164,1.649-0.187V18.983z M30.724,16.445c-0.65,0.025-1.291,0.099-1.919,0.224
		c-0.387-1.086-0.597-2.256-0.632-3.464h2.551V16.445z M30.724,12.507h-2.55c0.037-1.207,0.255-2.379,0.653-3.472
		c0.622,0.127,1.254,0.206,1.896,0.233V12.507z M30.724,8.568c-0.549-0.024-1.09-0.09-1.624-0.192
		c0.392-0.886,0.902-1.709,1.522-2.448c0.034-0.003,0.068-0.003,0.102-0.005V8.568z M34.608,12.251c0.324,0,0.587,0.263,0.587,0.587
		c0,0.323-0.263,0.586-0.587,0.586c-0.323,0-0.586-0.263-0.586-0.586C34.022,12.514,34.285,12.251,34.608,12.251z M36.787,9.528
		c-0.323,0-0.586-0.263-0.586-0.587c0-0.323,0.263-0.586,0.586-0.586c0.324,0,0.587,0.263,0.587,0.586
		C37.374,9.266,37.111,9.528,36.787,9.528z"/>
	<circle fill="#FFECCE" cx="35.012" cy="5.435" r="0.586"/>
	<circle fill="#FFECCE" cx="34.608" cy="12.837" r="0.586"/>
</g>
</svg>
