<?xml version="1.0" encoding="utf-8"?>
<!-- Generator: Adobe Illustrator 17.0.0, SVG Export Plug-In . SVG Version: 6.00 Build 0)  -->
<!DOCTYPE svg PUBLIC "-//W3C//DTD SVG 1.1//EN" "http://www.w3.org/Graphics/SVG/1.1/DTD/svg11.dtd">
<svg version="1.1" id="Layer_1" xmlns="http://www.w3.org/2000/svg" xmlns:xlink="http://www.w3.org/1999/xlink" x="0px" y="0px"
	 width="42px" height="42px" viewBox="0 0 42 42" enable-background="new 0 0 42 42" xml:space="preserve">
<g>
	<circle fill="#FFECCE" cx="36.466" cy="9.64" r="0.586"/>
	<circle fill="#FFECCE" cx="34.692" cy="6.134" r="0.587"/>
	<circle fill="#FFECCE" cx="34.287" cy="13.536" r="0.586"/>
	<polygon fill="#3D6480" points="36.986,33.145 36.986,36.228 34.9,34.143 31.76,31.003 30.416,32.347 34.9,36.83 35.642,37.572 
		34.9,37.572 32.496,37.573 32.496,39.263 32.496,39.473 38.886,39.472 38.886,33.145 	"/>
	<path fill="#EFF9FE" d="M16.171,27.44h7.399v-5.719h-7.399V27.44z M19.469,23.898h0.801v1.339h-0.801V23.898z"/>
	<path fill="#EFF9FE" d="M22.526,19.092c0-1.521-1.19-2.757-2.654-2.757c-1.465,0-2.656,1.237-2.656,2.757v1.83h5.311V19.092z"/>
	<path fill="#3D6480" d="M28.702,27.619l1.692-1.692v-1.144l-0.005-2.294c-0.583-0.033-1.151-0.121-1.7-0.262L28.702,27.619z"/>
	<path fill="#3D6480" d="M11.022,9.306h11.997c0.333-0.616,0.742-1.182,1.205-1.7H9.322v27.811h11.583l1.7-1.7H11.022V9.306z"/>
	<rect x="19.469" y="23.898" fill="#3D6480" width="0.801" height="1.339"/>
	<path fill="#3D6480" d="M23.326,19.092c0-0.375-0.072-0.73-0.177-1.07c-0.197-0.341-0.376-0.693-0.528-1.06
		c-0.631-0.861-1.624-1.427-2.75-1.427c-1.906,0-3.457,1.596-3.457,3.557v1.83H15.37v7.318h9.001v-7.318h-1.045V19.092z
		 M17.215,19.092c0-1.521,1.191-2.757,2.656-2.757c1.464,0,2.654,1.237,2.654,2.757v1.83h-5.311V19.092z M23.571,21.722v5.719
		h-7.399v-5.719H23.571z"/>
	<path fill="#EFF9FE" d="M22.945,13.555c0-2.395,1.068-4.541,2.747-6.001h-1.421c-0.016,0.017-0.031,0.034-0.047,0.051
		c-0.462,0.518-0.872,1.085-1.205,1.7H11.022v24.41h11.584l6.097-6.097l-0.013-5.392c0.549,0.14,1.116,0.228,1.7,0.262
		c0.002,0,0.003,0,0.005,0v-1C26.243,21.224,22.945,17.772,22.945,13.555z M24.371,28.24H15.37v-7.318h1.044v-1.83
		c0-1.961,1.551-3.557,3.457-3.557c1.126,0,2.119,0.566,2.75,1.427c0.152,0.367,0.331,0.719,0.528,1.06
		c0.105,0.34,0.177,0.694,0.177,1.07v1.83h1.045V28.24z"/>
	<path fill="#FFECCE" d="M28.485,17.368c0.627-0.125,1.269-0.199,1.919-0.224v-3.238h-2.551
		C27.888,15.113,28.098,16.282,28.485,17.368z"/>
	<path fill="#FFECCE" d="M27.154,13.905h-3.192c0.084,1.673,0.755,3.193,1.819,4.351c0.642-0.306,1.318-0.551,2.021-0.734
		C27.406,16.385,27.188,15.164,27.154,13.905z"/>
	<path fill="#FFECCE" d="M27.82,9.59c-0.697-0.186-1.363-0.452-2.008-0.762c-1.08,1.162-1.765,2.69-1.85,4.378h3.192
		C27.191,11.95,27.415,10.731,27.82,9.59z"/>
	<path fill="#FFECCE" d="M29.276,6.796c-1.102,0.266-2.102,0.792-2.93,1.513c0.56,0.253,1.134,0.475,1.733,0.63
		C28.401,8.181,28.797,7.461,29.276,6.796z"/>
	<path fill="#FFECCE" d="M26.32,18.784c0.823,0.722,1.817,1.25,2.913,1.522c-0.471-0.657-0.858-1.375-1.174-2.131
		C27.456,18.328,26.877,18.536,26.32,18.784z"/>
	<path fill="#FFECCE" d="M27.854,13.205h2.55V9.966c-0.642-0.027-1.275-0.106-1.896-0.233
		C28.109,10.826,27.891,11.998,27.854,13.205z"/>
	<path fill="#FFECCE" d="M30.261,20.479c0.048,0.004,0.094,0.014,0.142,0.017v-0.814v-1.838c-0.559,0.023-1.109,0.086-1.649,0.186
		C29.141,18.921,29.646,19.746,30.261,20.479z"/>
	<path fill="#FFECCE" d="M28.78,9.074c0.533,0.102,1.074,0.167,1.623,0.192V6.621c-0.034,0.002-0.069,0.002-0.103,0.005
		C29.681,7.366,29.172,8.189,28.78,9.074z"/>
	<path fill="#FF9C04" d="M31.404,21.514v-0.5v-1.332v-5.777h1.743c0.159,0.487,0.602,0.847,1.141,0.847
		c0.228,0,0.43-0.08,0.612-0.189c0.355-0.213,0.605-0.584,0.605-1.027s-0.25-0.814-0.605-1.027
		c-0.183-0.109-0.384-0.189-0.612-0.189c-0.553,0-1.002,0.379-1.149,0.886h-1.735V9.998H34.9h0.422
		c0.155,0.493,0.6,0.858,1.144,0.858c0.671,0,1.217-0.545,1.217-1.216s-0.546-1.216-1.217-1.216c-0.55,0-0.997,0.373-1.147,0.874
		H34.9h-3.496V6.596h2.165c0.182,0.442,0.616,0.754,1.123,0.754c0.074,0,0.138-0.029,0.208-0.042c0.568-0.102,1.01-0.577,1.01-1.174
		c0-0.671-0.547-1.217-1.218-1.217c-0.231,0-0.436,0.082-0.62,0.195c-0.194,0.119-0.354,0.28-0.457,0.484h-2.112h-0.599
		c-1.994,0-3.814,0.742-5.212,1.958c-1.679,1.46-2.747,3.606-2.747,6.001c0,4.217,3.299,7.669,7.45,7.933
		c0.169,0.011,0.337,0.026,0.509,0.026H31.404z M34.287,12.949c0.324,0,0.587,0.263,0.587,0.586s-0.263,0.586-0.587,0.586
		c-0.323,0-0.585-0.263-0.585-0.586S33.964,12.949,34.287,12.949z M36.466,9.054c0.323,0,0.586,0.263,0.586,0.586
		s-0.263,0.586-0.586,0.586S35.88,9.963,35.88,9.64S36.143,9.054,36.466,9.054z M34.692,5.547c0.324,0,0.587,0.264,0.587,0.587
		c0,0.323-0.263,0.586-0.587,0.586c-0.323,0-0.586-0.263-0.586-0.586C34.106,5.81,34.368,5.547,34.692,5.547z M29.276,6.796
		c-0.479,0.665-0.875,1.385-1.198,2.143c-0.599-0.155-1.173-0.378-1.733-0.63C27.175,7.588,28.174,7.062,29.276,6.796z
		 M25.812,8.827c0.645,0.31,1.311,0.576,2.008,0.762c-0.405,1.142-0.629,2.361-0.665,3.615h-3.192
		C24.047,11.517,24.732,9.989,25.812,8.827z M23.962,13.905h3.192c0.035,1.259,0.252,2.479,0.648,3.617
		c-0.702,0.183-1.379,0.428-2.021,0.734C24.717,17.098,24.045,15.578,23.962,13.905z M26.32,18.784
		c0.557-0.248,1.135-0.457,1.738-0.609c0.317,0.756,0.703,1.474,1.174,2.131C28.137,20.035,27.143,19.506,26.32,18.784z
		 M30.404,19.682v0.814c-0.048-0.003-0.094-0.013-0.142-0.017c-0.616-0.733-1.12-1.558-1.507-2.449
		c0.541-0.101,1.091-0.164,1.649-0.186V19.682z M30.404,17.144c-0.65,0.025-1.291,0.099-1.919,0.224
		c-0.387-1.085-0.597-2.255-0.632-3.462h2.551V17.144z M30.404,13.205h-2.55c0.037-1.207,0.255-2.379,0.653-3.472
		c0.622,0.127,1.254,0.206,1.896,0.233V13.205z M30.404,9.266c-0.549-0.024-1.09-0.09-1.623-0.192
		c0.392-0.885,0.901-1.708,1.521-2.448c0.034-0.003,0.069-0.003,0.103-0.005V9.266z"/>
</g>
</svg>
