<?xml version="1.0" encoding="utf-8"?>
<!-- Generator: Adobe Illustrator 17.0.0, SVG Export Plug-In . SVG Version: 6.00 Build 0)  -->
<!DOCTYPE svg PUBLIC "-//W3C//DTD SVG 1.1//EN" "http://www.w3.org/Graphics/SVG/1.1/DTD/svg11.dtd">
<svg version="1.1" id="Layer_1" xmlns="http://www.w3.org/2000/svg" xmlns:xlink="http://www.w3.org/1999/xlink" x="0px" y="0px"
	 width="42px" height="42px" viewBox="0 0 42 42" enable-background="new 0 0 42 42" xml:space="preserve">
<g>
	<polygon fill="#3D6480" points="5.054,12.059 11.444,12.058 11.444,5.731 9.544,5.731 9.544,8.815 4.318,3.59 2.974,4.933 
		8.2,10.159 5.054,10.159 	"/>
	<path fill="#EFF9FE" d="M22.367,18.855c0-1.521-1.19-2.757-2.654-2.757c-1.465,0-2.656,1.237-2.656,2.757v1.83h5.311V18.855z"/>
	<path fill="#EFF9FE" d="M16.012,27.203h7.399v-5.719h-7.399V27.203z M19.31,23.661h0.801V25H19.31V23.661z"/>
	<path fill="#3D6480" d="M28.558,33.479H10.863V16.864l-1.699,1.699v16.616h21.072V24.546l-0.005-2.294
		c-0.583-0.033-1.151-0.122-1.7-0.262L28.558,33.479z"/>
	<path fill="#3D6480" d="M24.064,7.368h-3.706l-1.7,1.7h4.202C23.193,8.453,23.602,7.887,24.064,7.368z"/>
	<rect x="19.31" y="23.661" fill="#3D6480" width="0.801" height="1.339"/>
	<path fill="#3D6480" d="M23.168,18.855c0-0.375-0.072-0.731-0.177-1.071c-0.197-0.34-0.375-0.692-0.527-1.059
		c-0.631-0.862-1.624-1.428-2.751-1.428c-1.906,0-3.457,1.596-3.457,3.557v1.83h-1.044v7.318h9.001v-7.318h-1.045V18.855z
		 M17.056,18.855c0-1.521,1.191-2.757,2.656-2.757c1.464,0,2.654,1.237,2.654,2.757v1.83h-5.311V18.855z M23.412,21.485v5.719
		h-7.399v-5.719H23.412z"/>
	<path fill="#EFF9FE" d="M22.786,13.317c0-2.394,1.068-4.54,2.746-6h-1.421c-0.016,0.017-0.031,0.034-0.047,0.051
		c-0.462,0.518-0.871,1.085-1.204,1.7h-4.202l-7.795,7.795v16.615h17.695L28.531,21.99c0.549,0.14,1.116,0.229,1.7,0.262
		c0.002,0,0.003,0,0.005,0v-1C26.085,20.987,22.786,17.535,22.786,13.317z M24.213,28.003h-9.001v-7.318h1.044v-1.83
		c0-1.961,1.551-3.557,3.457-3.557c1.127,0,2.12,0.566,2.751,1.428c0.151,0.367,0.33,0.718,0.527,1.059
		c0.105,0.34,0.177,0.695,0.177,1.071v1.83h1.045V28.003z"/>
	<path fill="#FFECCE" d="M29.118,6.558c-1.103,0.266-2.103,0.792-2.932,1.513c0.56,0.253,1.134,0.475,1.734,0.631
		C28.242,7.944,28.639,7.223,29.118,6.558z"/>
	<path fill="#FFECCE" d="M28.622,8.838c0.533,0.102,1.074,0.167,1.623,0.192V6.384c-0.034,0.002-0.068,0.002-0.102,0.005
		C29.523,7.128,29.013,7.952,28.622,8.838z"/>
	<path fill="#FFECCE" d="M28.326,17.131c0.627-0.125,1.269-0.199,1.919-0.224v-3.239h-2.551
		C27.729,14.875,27.939,16.045,28.326,17.131z"/>
	<path fill="#FFECCE" d="M27.661,9.353C26.964,9.166,26.298,8.9,25.653,8.59c-1.08,1.162-1.765,2.69-1.849,4.377h3.192
		C27.032,11.713,27.256,10.494,27.661,9.353z"/>
	<path fill="#FFECCE" d="M26.995,13.667h-3.192c0.084,1.673,0.755,3.193,1.819,4.352c0.642-0.306,1.318-0.551,2.021-0.734
		C27.247,16.147,27.029,14.927,26.995,13.667z"/>
	<path fill="#FFECCE" d="M26.162,18.547c0.823,0.722,1.817,1.25,2.912,1.522c-0.471-0.657-0.857-1.375-1.174-2.131
		C27.297,18.091,26.718,18.299,26.162,18.547z"/>
	<path fill="#FFECCE" d="M30.103,20.242c0.048,0.004,0.094,0.014,0.142,0.017v-0.814v-1.838c-0.559,0.023-1.109,0.086-1.649,0.186
		C28.983,18.685,29.487,19.51,30.103,20.242z"/>
	<path fill="#FFECCE" d="M27.695,12.967h2.55V9.729c-0.642-0.027-1.275-0.106-1.896-0.233C27.95,10.589,27.732,11.761,27.695,12.967
		z"/>
	<circle fill="#FFECCE" cx="36.307" cy="9.403" r="0.587"/>
	<path fill="#FF9C04" d="M36.307,8.186c-0.55,0-0.997,0.373-1.147,0.875h-0.419h-3.496V6.358h2.165
		c0.182,0.442,0.616,0.754,1.123,0.754c0.074,0,0.138-0.029,0.208-0.042c0.568-0.102,1.01-0.577,1.01-1.174
		c0-0.671-0.547-1.216-1.218-1.216c-0.231,0-0.436,0.082-0.62,0.195c-0.194,0.118-0.354,0.279-0.457,0.483h-2.112h-0.599
		c-1.994,0-3.815,0.743-5.213,1.959c-1.678,1.46-2.746,3.606-2.746,6c0,4.217,3.299,7.67,7.45,7.934
		c0.169,0.011,0.337,0.026,0.509,0.026h0.5v-0.5v-1.332v-5.778h1.743c0.158,0.488,0.602,0.848,1.141,0.848
		c0.228,0,0.43-0.08,0.612-0.189c0.355-0.213,0.605-0.584,0.605-1.027s-0.25-0.814-0.605-1.027
		c-0.183-0.109-0.384-0.189-0.612-0.189c-0.552,0-1.002,0.378-1.149,0.885h-1.735V9.761h3.496h0.422
		c0.155,0.493,0.6,0.858,1.144,0.858c0.671,0,1.217-0.545,1.217-1.216C37.524,8.732,36.978,8.186,36.307,8.186z M34.533,5.31
		c0.324,0,0.587,0.263,0.587,0.586s-0.263,0.586-0.587,0.586c-0.323,0-0.586-0.263-0.586-0.586S34.21,5.31,34.533,5.31z
		 M29.118,6.558c-0.479,0.665-0.876,1.386-1.198,2.144c-0.6-0.155-1.174-0.378-1.734-0.631C27.016,7.35,28.016,6.824,29.118,6.558z
		 M25.653,8.59c0.645,0.31,1.311,0.576,2.008,0.763c-0.405,1.142-0.629,2.36-0.665,3.615h-3.192
		C23.888,11.28,24.573,9.752,25.653,8.59z M23.803,13.667h3.192c0.035,1.26,0.252,2.48,0.648,3.618
		c-0.702,0.183-1.379,0.428-2.021,0.734C24.558,16.861,23.887,15.341,23.803,13.667z M26.162,18.547
		c0.557-0.248,1.135-0.457,1.738-0.609c0.317,0.756,0.704,1.474,1.174,2.131C27.979,19.798,26.984,19.269,26.162,18.547z
		 M30.245,19.445v0.814c-0.048-0.003-0.094-0.013-0.142-0.017c-0.616-0.733-1.12-1.558-1.507-2.449
		c0.541-0.101,1.091-0.164,1.649-0.186V19.445z M30.245,16.907c-0.65,0.025-1.291,0.099-1.919,0.224
		c-0.387-1.086-0.597-2.255-0.632-3.463h2.551V16.907z M30.245,12.967h-2.55c0.037-1.206,0.255-2.378,0.653-3.471
		c0.622,0.127,1.254,0.206,1.896,0.233V12.967z M30.245,9.029c-0.549-0.024-1.09-0.09-1.623-0.192
		c0.392-0.886,0.902-1.709,1.521-2.449c0.033-0.003,0.068-0.003,0.102-0.005V9.029z M34.129,12.712c0.324,0,0.587,0.263,0.587,0.586
		s-0.263,0.586-0.587,0.586c-0.323,0-0.585-0.263-0.585-0.586S33.805,12.712,34.129,12.712z M36.307,9.99
		c-0.323,0-0.586-0.263-0.586-0.586c0-0.324,0.263-0.587,0.586-0.587s0.586,0.264,0.586,0.587C36.893,9.726,36.631,9.99,36.307,9.99
		z"/>
	<circle fill="#FFECCE" cx="34.533" cy="5.896" r="0.586"/>
	<circle fill="#FFECCE" cx="34.129" cy="13.299" r="0.586"/>
</g>
</svg>
