<?xml version="1.0" encoding="utf-8"?>
<!-- Generator: Adobe Illustrator 17.0.0, SVG Export Plug-In . SVG Version: 6.00 Build 0)  -->
<!DOCTYPE svg PUBLIC "-//W3C//DTD SVG 1.1//EN" "http://www.w3.org/Graphics/SVG/1.1/DTD/svg11.dtd">
<svg version="1.1" id="Layer_1" xmlns="http://www.w3.org/2000/svg" xmlns:xlink="http://www.w3.org/1999/xlink" x="0px" y="0px"
	 width="42px" height="42px" viewBox="0 0 42 42" enable-background="new 0 0 42 42" xml:space="preserve">
<g>
	<rect x="24.685" y="21.491" fill="none" width="8.179" height="4.845"/>
	<rect x="24.685" y="15.715" fill="none" width="8.179" height="4.976"/>
	<path fill="#0CB20F" d="M12.99,27.672l1.954,1.954h-2.533c-1.906,0-3.456-1.55-3.456-3.456v-0.638h-1.9v0.638
		c0,2.953,2.403,5.356,5.356,5.356h2.533L12.99,33.48l1.344,1.344l4.248-4.248l-4.248-4.248L12.99,27.672z"/>
	<path fill="#0CB20F" d="M12.99,8.52l1.954,1.954h-2.533c-2.954,0-5.356,2.403-5.356,5.356v0.638h1.9v-0.638
		c0-1.906,1.55-3.456,3.456-3.456h2.533l-1.954,1.954l1.344,1.344l4.248-4.248l-4.248-4.248L12.99,8.52z"/>
	<rect x="24.685" y="27.166" fill="#EFF9FE" width="8.179" height="4.372"/>
	<rect x="24.685" y="26.336" fill="#EFF9FE" width="8.179" height="0.029"/>
	<rect x="24.685" y="10.388" fill="#EFF9FE" width="8.179" height="4.526"/>
	<path fill="#3D6480" d="M22.985,8.688v24.549h11.579V8.688H22.985z M32.864,14.914h-8.179v-4.526h8.179V14.914z M32.864,20.69
		h-8.179v-4.976h8.179V20.69z M24.685,27.166h8.179v4.372h-8.179V27.166z M32.864,26.365h-8.179v-0.029v-4.845h8.179v4.845V26.365z"
		/>
</g>
</svg>
