<?xml version="1.0" encoding="utf-8"?>
<!-- Generator: Adobe Illustrator 17.0.0, SVG Export Plug-In . SVG Version: 6.00 Build 0)  -->
<!DOCTYPE svg PUBLIC "-//W3C//DTD SVG 1.1//EN" "http://www.w3.org/Graphics/SVG/1.1/DTD/svg11.dtd">
<svg version="1.1" id="Layer_1" xmlns="http://www.w3.org/2000/svg" xmlns:xlink="http://www.w3.org/1999/xlink" x="0px" y="0px"
	 width="42px" height="42px" viewBox="0 0 42 42" enable-background="new 0 0 42 42" xml:space="preserve">
<polygon fill="#3D6480" points="37.235,32.211 37.235,35.294 32.01,30.07 30.667,31.414 35.892,36.639 32.746,36.64 32.747,38.54 
	39.135,38.538 39.135,32.211 "/>
<g>
	<polygon fill="none" points="21.621,34.716 24.852,31.485 21.621,31.485 	"/>
	<path fill="#FFEBCD" d="M22.301,15.317h-0.89h-7.237v-1.7h5.537l-2.248-2.248l-6.376,0.001v18.415h15.466l4.604-4.604v-9.864
		H22.301z M13.705,25.551c-0.519,0-1.146-0.098-1.613-0.286l-0.078-0.031l0.15-0.748l0.105,0.033
		c0.477,0.148,0.977,0.227,1.452,0.227c0.81,0,0.927-0.19,0.927-0.729c0-0.375-0.008-0.518-0.109-0.618
		c-0.113-0.111-0.353-0.186-0.911-0.312c-1.323-0.296-1.512-0.58-1.512-1.73c0-0.991,0.44-1.47,1.796-1.47
		c0.47,0,1.028,0.064,1.46,0.179l0.082,0.021l-0.075,0.779l-0.11-0.025c-0.415-0.094-0.909-0.148-1.34-0.148
		c-0.833,0-0.928,0.148-0.928,0.688c0,0.177-0.001,0.312,0.016,0.418c0.015,0.097,0.041,0.155,0.087,0.201
		c0.106,0.107,0.333,0.176,0.873,0.311c1.446,0.36,1.558,0.602,1.558,1.69C15.534,24.981,15.217,25.551,13.705,25.551z
		 M18.481,25.551c-0.519,0-1.146-0.098-1.614-0.286l-0.077-0.031l0.149-0.748l0.106,0.033c0.477,0.148,0.977,0.227,1.452,0.227
		c0.81,0,0.928-0.19,0.928-0.729c0-0.375-0.01-0.518-0.111-0.618c-0.113-0.111-0.352-0.186-0.91-0.312
		c-1.324-0.296-1.512-0.58-1.512-1.73c0-0.991,0.439-1.47,1.796-1.47c0.47,0,1.028,0.064,1.46,0.179l0.082,0.021l-0.075,0.779
		l-0.11-0.025c-0.416-0.094-0.909-0.148-1.34-0.148c-0.834,0-0.928,0.148-0.928,0.688c0,0.177,0,0.312,0.016,0.418
		c0.014,0.097,0.041,0.155,0.086,0.201c0.107,0.107,0.334,0.176,0.874,0.311c1.446,0.36,1.558,0.602,1.558,1.69
		C20.31,24.981,19.993,25.551,18.481,25.551z M25.486,25.392H24.6v-2.405h-2.149v2.405h-0.885v-5.505h0.885v2.286H24.6v-2.286h0.886
		V25.392z M29.896,25.312h-3.154v-0.751c0.613-0.696,0.765-0.872,1.394-1.611c0.812-0.964,0.845-1.146,0.845-1.482v-0.23
		c0-0.422-0.063-0.553-0.84-0.553c-0.363,0-0.855,0.085-1.151,0.171l-0.108,0.031l-0.128-0.771l0.084-0.025
		c0.351-0.106,0.886-0.203,1.358-0.203c1.271,0,1.654,0.464,1.654,1.343v0.175c0,0.665-0.131,0.959-0.932,1.912
		c-0.516,0.615-0.633,0.763-1.025,1.206h2.004V25.312z"/>
	<polygon fill="#3D6480" points="21.621,31.485 24.852,31.485 26.552,29.785 11.086,29.785 11.086,11.37 17.462,11.369 
		19.71,13.617 14.174,13.617 14.174,15.317 21.41,15.317 22.301,15.317 31.155,15.317 31.155,25.181 32.856,23.481 32.856,13.617 
		22.301,13.617 22.114,13.617 18.166,9.669 9.386,9.669 9.386,31.485 20.621,31.485 20.621,35.326 19.222,35.326 19.222,35.576 
		14.133,35.576 14.133,36.576 19.222,36.576 19.222,36.826 19.51,36.826 21.621,34.716 	"/>
	<path fill="#FFEBCD" d="M13.976,22.311c-0.54-0.135-0.767-0.203-0.873-0.311c-0.046-0.046-0.072-0.104-0.087-0.201
		c-0.017-0.107-0.016-0.241-0.016-0.418c0-0.54,0.095-0.688,0.928-0.688c0.431,0,0.925,0.055,1.34,0.148l0.11,0.025l0.075-0.779
		l-0.082-0.021c-0.432-0.114-0.99-0.179-1.46-0.179c-1.355,0-1.796,0.479-1.796,1.47c0,1.15,0.188,1.435,1.512,1.73
		c0.559,0.126,0.798,0.2,0.911,0.312c0.102,0.101,0.109,0.243,0.109,0.618c0,0.538-0.117,0.729-0.927,0.729
		c-0.476,0-0.976-0.078-1.452-0.227l-0.105-0.033l-0.15,0.748l0.078,0.031c0.468,0.188,1.095,0.286,1.613,0.286
		c1.512,0,1.829-0.569,1.829-1.55C15.534,22.912,15.423,22.671,13.976,22.311z"/>
	<path fill="#3D6480" d="M13.976,22.311c-0.54-0.135-0.767-0.203-0.873-0.311c-0.046-0.046-0.072-0.104-0.087-0.201
		c-0.017-0.107-0.016-0.241-0.016-0.418c0-0.54,0.095-0.688,0.928-0.688c0.431,0,0.925,0.055,1.34,0.148l0.11,0.025l0.075-0.779
		l-0.082-0.021c-0.432-0.114-0.99-0.179-1.46-0.179c-1.355,0-1.796,0.479-1.796,1.47c0,1.15,0.188,1.435,1.512,1.73
		c0.559,0.126,0.798,0.2,0.911,0.312c0.102,0.101,0.109,0.243,0.109,0.618c0,0.538-0.117,0.729-0.927,0.729
		c-0.476,0-0.976-0.078-1.452-0.227l-0.105-0.033l-0.15,0.748l0.078,0.031c0.468,0.188,1.095,0.286,1.613,0.286
		c1.512,0,1.829-0.569,1.829-1.55C15.534,22.912,15.423,22.671,13.976,22.311z"/>
	<path fill="#FFEBCD" d="M18.753,22.311c-0.54-0.135-0.767-0.203-0.874-0.311c-0.045-0.046-0.072-0.104-0.086-0.201
		c-0.016-0.107-0.016-0.241-0.016-0.418c0-0.54,0.094-0.688,0.928-0.688c0.431,0,0.924,0.055,1.34,0.148l0.11,0.025l0.075-0.779
		l-0.082-0.021c-0.432-0.114-0.99-0.179-1.46-0.179c-1.356,0-1.796,0.479-1.796,1.47c0,1.15,0.188,1.435,1.512,1.73
		c0.559,0.126,0.797,0.2,0.91,0.312c0.102,0.101,0.111,0.243,0.111,0.618c0,0.538-0.118,0.729-0.928,0.729
		c-0.476,0-0.976-0.078-1.452-0.227l-0.106-0.033l-0.149,0.748l0.077,0.031c0.469,0.188,1.096,0.286,1.614,0.286
		c1.512,0,1.829-0.569,1.829-1.55C20.31,22.912,20.199,22.671,18.753,22.311z"/>
	<path fill="#3D6480" d="M18.753,22.311c-0.54-0.135-0.767-0.203-0.874-0.311c-0.045-0.046-0.072-0.104-0.086-0.201
		c-0.016-0.107-0.016-0.241-0.016-0.418c0-0.54,0.094-0.688,0.928-0.688c0.431,0,0.924,0.055,1.34,0.148l0.11,0.025l0.075-0.779
		l-0.082-0.021c-0.432-0.114-0.99-0.179-1.46-0.179c-1.356,0-1.796,0.479-1.796,1.47c0,1.15,0.188,1.435,1.512,1.73
		c0.559,0.126,0.797,0.2,0.91,0.312c0.102,0.101,0.111,0.243,0.111,0.618c0,0.538-0.118,0.729-0.928,0.729
		c-0.476,0-0.976-0.078-1.452-0.227l-0.106-0.033l-0.149,0.748l0.077,0.031c0.469,0.188,1.096,0.286,1.614,0.286
		c1.512,0,1.829-0.569,1.829-1.55C20.31,22.912,20.199,22.671,18.753,22.311z"/>
	<polygon fill="#FFEBCD" points="24.6,22.173 22.451,22.173 22.451,19.887 21.566,19.887 21.566,25.392 22.451,25.392 
		22.451,22.986 24.6,22.986 24.6,25.392 25.486,25.392 25.486,19.887 24.6,19.887 	"/>
	<polygon fill="#3D6480" points="24.6,22.173 22.451,22.173 22.451,19.887 21.566,19.887 21.566,25.392 22.451,25.392 
		22.451,22.986 24.6,22.986 24.6,25.392 25.486,25.392 25.486,19.887 24.6,19.887 	"/>
	<path fill="#FFEBCD" d="M28.918,23.316c0.801-0.953,0.932-1.247,0.932-1.912v-0.175c0-0.879-0.383-1.343-1.654-1.343
		c-0.473,0-1.008,0.098-1.358,0.203l-0.084,0.025l0.128,0.771l0.108-0.031c0.296-0.086,0.788-0.171,1.151-0.171
		c0.777,0,0.84,0.131,0.84,0.553v0.23c0,0.336-0.033,0.518-0.845,1.482c-0.629,0.739-0.78,0.915-1.394,1.611v0.751h3.154v-0.789
		h-2.004C28.285,24.079,28.402,23.932,28.918,23.316z"/>
	<path fill="#3D6480" d="M28.918,23.316c0.801-0.953,0.932-1.247,0.932-1.912v-0.175c0-0.879-0.383-1.343-1.654-1.343
		c-0.473,0-1.008,0.098-1.358,0.203l-0.084,0.025l0.128,0.771l0.108-0.031c0.296-0.086,0.788-0.171,1.151-0.171
		c0.777,0,0.84,0.131,0.84,0.553v0.23c0,0.336-0.033,0.518-0.845,1.482c-0.629,0.739-0.78,0.915-1.394,1.611v0.751h3.154v-0.789
		h-2.004C28.285,24.079,28.402,23.932,28.918,23.316z"/>
</g>
</svg>
