<?xml version="1.0" encoding="utf-8"?>
<!-- Generator: Adobe Illustrator 17.0.0, SVG Export Plug-In . SVG Version: 6.00 Build 0)  -->
<!DOCTYPE svg PUBLIC "-//W3C//DTD SVG 1.1//EN" "http://www.w3.org/Graphics/SVG/1.1/DTD/svg11.dtd">
<svg version="1.1" id="Layer_1" xmlns="http://www.w3.org/2000/svg" xmlns:xlink="http://www.w3.org/1999/xlink" x="0px" y="0px"
	 width="42px" height="42px" viewBox="0 0 42 42" enable-background="new 0 0 42 42" xml:space="preserve">
<g>
	<polygon fill="none" points="29.307,30.753 29.307,36.074 35.011,33.417 	"/>
	<path fill="#0CB20F" d="M27.458,27.847v11.129l11.931-5.557L27.458,27.847z M29.307,30.753l5.704,2.664l-5.704,2.656V30.753z"/>
	<path fill="#EFF9FE" d="M29.001,11.412h1.7v1.117h1.128c1.067,0,1.936-0.869,1.936-1.937c0-1.067-0.869-1.936-1.936-1.936H17.177
		c-2.408,0-3.734,1.326-3.734,3.734v15.251h6.162v1.7h-9.439c-1.067,0-1.936,0.869-1.936,1.936c0,1.068,0.869,1.937,1.936,1.937
		h10.893l7.942-7.942V11.412z M16.922,23.291l-0.707-0.707l2.65-2.649l-2.65-2.649l0.707-0.707l3.357,3.356L16.922,23.291z
		 M25.985,23.438l-4.498,0v-1l4.498,0V23.438z"/>
	<path fill="#3D6480" d="M8.23,31.278c0-1.067,0.869-1.936,1.936-1.936h9.439v-1.7h-6.162V12.39c0-2.408,1.326-3.734,3.734-3.734
		H31.83c1.067,0,1.936,0.869,1.936,1.936c0,1.068-0.869,1.937-1.936,1.937h-1.128v-1.117h-1.7v13.86l1.7-1.7v-9.343h1.128
		c2.005,0,3.636-1.632,3.636-3.637c0-2.005-1.631-3.636-3.636-3.636H17.177c-3.352,0-5.434,2.083-5.434,5.434v15.251h-1.578
		c-2.005,0-3.636,1.631-3.636,3.636c0,2.005,1.631,3.637,3.636,3.637h9.193l1.7-1.7H10.166C9.098,33.215,8.23,32.346,8.23,31.278z"
		/>
	<polygon fill="#3D6480" points="16.215,17.286 18.865,19.935 16.215,22.584 16.922,23.291 20.279,19.935 16.922,16.578 	"/>
	<rect x="21.488" y="22.438" fill="#3D6480" width="4.498" height="1"/>
</g>
</svg>
