<?xml version="1.0" encoding="utf-8"?>
<!-- Generator: Adobe Illustrator 17.0.0, SVG Export Plug-In . SVG Version: 6.00 Build 0)  -->
<!DOCTYPE svg PUBLIC "-//W3C//DTD SVG 1.1//EN" "http://www.w3.org/Graphics/SVG/1.1/DTD/svg11.dtd">
<svg version="1.1" id="Layer_1" xmlns="http://www.w3.org/2000/svg" xmlns:xlink="http://www.w3.org/1999/xlink" x="0px" y="0px"
	 width="42px" height="42px" viewBox="0 0 42 42" enable-background="new 0 0 42 42" xml:space="preserve">
<g>
	<polygon fill="#3D6480" points="5.655,11.803 12.043,11.802 12.043,5.475 10.143,5.475 10.143,8.558 4.918,3.333 3.575,4.677 
		8.8,9.903 5.655,9.903 	"/>
	<polygon fill="#FFEBCD" points="18.206,9.641 16.511,11.336 19.901,11.336 	"/>
	<path fill="#FFEBCD" d="M31.347,27.504V13.036h-8.855h-0.89h-6.791l-3.534,3.534v10.934H31.347z M26.933,22.281
		c0.613-0.697,0.765-0.872,1.394-1.612c0.812-0.963,0.845-1.146,0.845-1.481v-0.232c0-0.421-0.063-0.553-0.84-0.553
		c-0.363,0-0.855,0.086-1.151,0.171l-0.108,0.031l-0.128-0.771l0.084-0.025c0.351-0.107,0.886-0.204,1.358-0.204
		c1.271,0,1.654,0.465,1.654,1.343v0.176c0,0.664-0.131,0.958-0.932,1.912c-0.516,0.615-0.633,0.762-1.025,1.205h2.004v0.79h-3.154
		V22.281z M21.757,17.606h0.885v2.286h2.149v-2.286h0.886v5.505h-0.886v-2.405h-2.149v2.405h-0.885V17.606z M19.505,21.118
		c-0.113-0.111-0.352-0.185-0.91-0.311c-1.324-0.297-1.512-0.581-1.512-1.73c0-0.992,0.439-1.471,1.796-1.471
		c0.47,0,1.028,0.064,1.46,0.179l0.082,0.021l-0.075,0.779l-0.11-0.024c-0.416-0.095-0.909-0.149-1.34-0.149
		c-0.834,0-0.928,0.149-0.928,0.689c0,0.177,0,0.311,0.016,0.418c0.014,0.097,0.041,0.155,0.086,0.201
		c0.107,0.107,0.334,0.177,0.874,0.312c1.446,0.359,1.558,0.601,1.558,1.689c0,0.98-0.317,1.55-1.829,1.55
		c-0.519,0-1.146-0.097-1.614-0.286l-0.077-0.03l0.149-0.748l0.106,0.033c0.477,0.148,0.977,0.227,1.452,0.227
		c0.81,0,0.928-0.19,0.928-0.728C19.617,21.361,19.607,21.218,19.505,21.118z M14.73,21.118c-0.113-0.111-0.353-0.185-0.911-0.311
		c-1.323-0.297-1.512-0.581-1.512-1.73c0-0.992,0.44-1.471,1.796-1.471c0.47,0,1.028,0.064,1.46,0.179l0.082,0.021l-0.075,0.779
		l-0.11-0.024c-0.415-0.095-0.909-0.149-1.34-0.149c-0.833,0-0.928,0.149-0.928,0.689c0,0.177-0.001,0.311,0.016,0.418
		c0.015,0.097,0.041,0.155,0.087,0.201c0.106,0.107,0.333,0.177,0.873,0.312c1.446,0.359,1.558,0.601,1.558,1.689
		c0,0.98-0.317,1.55-1.829,1.55c-0.519,0-1.146-0.097-1.613-0.286l-0.078-0.03l0.15-0.748l0.105,0.033
		c0.477,0.148,0.977,0.227,1.452,0.227c0.81,0,0.927-0.19,0.927-0.728C14.839,21.361,14.832,21.218,14.73,21.118z"/>
	<polygon fill="#3D6480" points="33.047,29.204 33.047,11.336 22.492,11.336 22.306,11.336 19.408,8.439 18.206,9.641 
		19.901,11.336 16.511,11.336 14.811,13.036 21.602,13.036 22.492,13.036 31.347,13.036 31.347,27.504 11.277,27.504 11.277,16.57 
		9.577,18.27 9.577,29.204 20.812,29.204 20.812,33.046 19.414,33.046 19.414,33.296 14.324,33.296 14.324,34.296 19.414,34.296 
		19.414,34.546 23.209,34.546 23.209,34.296 28.299,34.296 28.299,33.296 23.209,33.296 23.209,33.046 21.812,33.046 21.812,29.204 
			"/>
	<path fill="#FFEBCD" d="M13.913,22.465c-0.476,0-0.976-0.078-1.452-0.227l-0.105-0.033l-0.15,0.748l0.078,0.03
		c0.468,0.189,1.095,0.286,1.613,0.286c1.512,0,1.829-0.569,1.829-1.55c0-1.089-0.111-1.33-1.558-1.689
		c-0.54-0.135-0.767-0.204-0.873-0.312c-0.046-0.046-0.072-0.104-0.087-0.201c-0.017-0.107-0.016-0.241-0.016-0.418
		c0-0.539,0.095-0.689,0.928-0.689c0.431,0,0.925,0.055,1.34,0.149l0.11,0.024l0.075-0.779l-0.082-0.021
		c-0.432-0.114-0.99-0.179-1.46-0.179c-1.355,0-1.796,0.478-1.796,1.471c0,1.149,0.188,1.434,1.512,1.73
		c0.559,0.126,0.798,0.199,0.911,0.311c0.102,0.101,0.109,0.243,0.109,0.619C14.839,22.275,14.722,22.465,13.913,22.465z"/>
	<path fill="#3D6480" d="M13.913,22.465c-0.476,0-0.976-0.078-1.452-0.227l-0.105-0.033l-0.15,0.748l0.078,0.03
		c0.468,0.189,1.095,0.286,1.613,0.286c1.512,0,1.829-0.569,1.829-1.55c0-1.089-0.111-1.33-1.558-1.689
		c-0.54-0.135-0.767-0.204-0.873-0.312c-0.046-0.046-0.072-0.104-0.087-0.201c-0.017-0.107-0.016-0.241-0.016-0.418
		c0-0.539,0.095-0.689,0.928-0.689c0.431,0,0.925,0.055,1.34,0.149l0.11,0.024l0.075-0.779l-0.082-0.021
		c-0.432-0.114-0.99-0.179-1.46-0.179c-1.355,0-1.796,0.478-1.796,1.471c0,1.149,0.188,1.434,1.512,1.73
		c0.559,0.126,0.798,0.199,0.911,0.311c0.102,0.101,0.109,0.243,0.109,0.619C14.839,22.275,14.722,22.465,13.913,22.465z"/>
	<path fill="#FFEBCD" d="M18.689,22.465c-0.476,0-0.976-0.078-1.452-0.227l-0.106-0.033l-0.149,0.748l0.077,0.03
		c0.469,0.189,1.096,0.286,1.614,0.286c1.512,0,1.829-0.569,1.829-1.55c0-1.089-0.111-1.33-1.558-1.689
		c-0.54-0.135-0.767-0.204-0.874-0.312c-0.045-0.046-0.072-0.104-0.086-0.201c-0.016-0.107-0.016-0.241-0.016-0.418
		c0-0.539,0.094-0.689,0.928-0.689c0.431,0,0.924,0.055,1.34,0.149l0.11,0.024l0.075-0.779l-0.082-0.021
		c-0.432-0.114-0.99-0.179-1.46-0.179c-1.356,0-1.796,0.478-1.796,1.471c0,1.149,0.188,1.434,1.512,1.73
		c0.559,0.126,0.797,0.199,0.91,0.311c0.102,0.101,0.111,0.243,0.111,0.619C19.617,22.275,19.499,22.465,18.689,22.465z"/>
	<path fill="#3D6480" d="M18.689,22.465c-0.476,0-0.976-0.078-1.452-0.227l-0.106-0.033l-0.149,0.748l0.077,0.03
		c0.469,0.189,1.096,0.286,1.614,0.286c1.512,0,1.829-0.569,1.829-1.55c0-1.089-0.111-1.33-1.558-1.689
		c-0.54-0.135-0.767-0.204-0.874-0.312c-0.045-0.046-0.072-0.104-0.086-0.201c-0.016-0.107-0.016-0.241-0.016-0.418
		c0-0.539,0.094-0.689,0.928-0.689c0.431,0,0.924,0.055,1.34,0.149l0.11,0.024l0.075-0.779l-0.082-0.021
		c-0.432-0.114-0.99-0.179-1.46-0.179c-1.356,0-1.796,0.478-1.796,1.471c0,1.149,0.188,1.434,1.512,1.73
		c0.559,0.126,0.797,0.199,0.91,0.311c0.102,0.101,0.111,0.243,0.111,0.619C19.617,22.275,19.499,22.465,18.689,22.465z"/>
	<polygon fill="#FFEBCD" points="22.642,20.706 24.791,20.706 24.791,23.111 25.677,23.111 25.677,17.606 24.791,17.606 
		24.791,19.892 22.642,19.892 22.642,17.606 21.757,17.606 21.757,23.111 22.642,23.111 	"/>
	<polygon fill="#3D6480" points="22.642,20.706 24.791,20.706 24.791,23.111 25.677,23.111 25.677,17.606 24.791,17.606 
		24.791,19.892 22.642,19.892 22.642,17.606 21.757,17.606 21.757,23.111 22.642,23.111 	"/>
	<path fill="#FFEBCD" d="M30.087,22.242h-2.004c0.393-0.443,0.51-0.59,1.025-1.205c0.801-0.954,0.932-1.248,0.932-1.912v-0.176
		c0-0.878-0.383-1.343-1.654-1.343c-0.473,0-1.008,0.098-1.358,0.204l-0.084,0.025l0.128,0.771l0.108-0.031
		c0.296-0.085,0.788-0.171,1.151-0.171c0.777,0,0.84,0.132,0.84,0.553v0.232c0,0.335-0.033,0.518-0.845,1.481
		c-0.629,0.74-0.78,0.915-1.394,1.612v0.751h3.154V22.242z"/>
	<path fill="#3D6480" d="M30.087,22.242h-2.004c0.393-0.443,0.51-0.59,1.025-1.205c0.801-0.954,0.932-1.248,0.932-1.912v-0.176
		c0-0.878-0.383-1.343-1.654-1.343c-0.473,0-1.008,0.098-1.358,0.204l-0.084,0.025l0.128,0.771l0.108-0.031
		c0.296-0.085,0.788-0.171,1.151-0.171c0.777,0,0.84,0.132,0.84,0.553v0.232c0,0.335-0.033,0.518-0.845,1.481
		c-0.629,0.74-0.78,0.915-1.394,1.612v0.751h3.154V22.242z"/>
</g>
</svg>
