<?xml version="1.0" encoding="utf-8"?>
<!-- Generator: Adobe Illustrator 17.0.0, SVG Export Plug-In . SVG Version: 6.00 Build 0)  -->
<!DOCTYPE svg PUBLIC "-//W3C//DTD SVG 1.1//EN" "http://www.w3.org/Graphics/SVG/1.1/DTD/svg11.dtd">
<svg version="1.1" id="Layer_1" xmlns="http://www.w3.org/2000/svg" xmlns:xlink="http://www.w3.org/1999/xlink" x="0px" y="0px"
	 width="42px" height="42px" viewBox="0 0 42 42" enable-background="new 0 0 42 42" xml:space="preserve">
<g>
	<polygon fill="#3D6480" points="36.696,32.76 36.696,35.843 31.47,30.618 30.126,31.962 35.353,37.188 32.206,37.188 
		32.206,39.088 38.596,39.086 38.596,32.76 	"/>
	<path fill="#EFF9FE" d="M35.616,9.948h-9.181v19.89l9.181-9.18V9.948z M34.175,20.055h-6.297v-0.699h6.297V20.055z M34.175,16.794
		h-6.297v-0.699h6.297V16.794z M34.175,13.532h-6.297v-0.699h6.297V13.532z"/>
	<polygon fill="#3D6480" points="35.616,9.948 35.616,20.657 37.316,18.958 37.316,8.249 24.737,8.249 24.737,20.398 23.477,20.398 
		23.477,22.097 24.737,22.097 24.737,31.537 26.436,29.838 26.436,9.948 	"/>
	<path fill="#EFF9FE" d="M5.544,31.696h9.181v-21.15H5.544V31.696z M13.283,29.569h-1.704v-1h1.704V29.569z M6.987,12.833h6.297
		v0.699H6.987V12.833z M6.987,16.094h6.297v0.699H6.987V16.094z M6.987,19.356h6.297v0.699H6.987V19.356z"/>
	<path fill="#3D6480" d="M16.424,8.846H3.845v24.549h12.579V22.097h1.219v-1.699h-1.219V8.846z M14.725,31.696H5.544v-21.15h9.181
		V31.696z"/>
	<rect x="6.987" y="12.833" fill="#3D6480" width="6.297" height="0.699"/>
	<rect x="6.987" y="16.094" fill="#3D6480" width="6.297" height="0.699"/>
	<rect x="6.987" y="19.356" fill="#3D6480" width="6.297" height="0.699"/>
	<rect x="11.579" y="28.569" fill="#3D6480" width="1.704" height="1"/>
	<rect x="19.668" y="20.398" fill="#3D6480" width="1.784" height="1.699"/>
	<rect x="27.878" y="12.833" fill="#3D6480" width="6.297" height="0.699"/>
	<rect x="27.878" y="16.094" fill="#3D6480" width="6.297" height="0.699"/>
	<rect x="27.878" y="19.356" fill="#3D6480" width="6.297" height="0.699"/>
</g>
</svg>
