<?xml version="1.0" encoding="utf-8"?>
<!-- Generator: Adobe Illustrator 17.0.0, SVG Export Plug-In . SVG Version: 6.00 Build 0)  -->
<!DOCTYPE svg PUBLIC "-//W3C//DTD SVG 1.1//EN" "http://www.w3.org/Graphics/SVG/1.1/DTD/svg11.dtd">
<svg version="1.1" id="Layer_1" xmlns="http://www.w3.org/2000/svg" xmlns:xlink="http://www.w3.org/1999/xlink" x="0px" y="0px"
	 width="42px" height="42px" viewBox="0 0 42 42" enable-background="new 0 0 42 42" xml:space="preserve">
<g>
	<polygon fill="#3D6480" points="5.149,9.943 5.149,11.844 11.539,11.843 11.539,5.516 9.638,5.516 9.638,8.599 4.413,3.373 
		3.069,4.717 8.295,9.943 	"/>
	<path fill="#EFF9FE" d="M26.662,34.031h9.181v-21.15h-9.181V34.031z M34.28,32.501h-1.704v-1h1.704V32.501z M28.104,15.765h6.297
		v0.699h-6.297V15.765z M28.104,19.027h6.297v0.699h-6.297V19.027z M28.104,22.289h6.297v0.699h-6.297V22.289z"/>
	<path fill="#3D6480" d="M24.963,11.182v12.149h-1.26v1.699h1.26v10.7h12.579V11.182H24.963z M35.842,34.031h-9.181v-21.15h9.181
		V34.031z"/>
	<path fill="#EFF9FE" d="M14.951,34.628v-21.15h-0.713l-2.287,2.287h1.559v0.699h-2.258l-2.563,2.563h4.822v0.699H7.988L5.77,21.945
		v12.683H14.951z M13.509,32.501h-1.704v-1h1.704V32.501z M7.213,22.289h6.297v0.699H7.213V22.289z"/>
	<polygon fill="#3D6480" points="16.65,11.778 15.937,11.778 14.237,13.477 14.951,13.477 14.951,34.628 5.77,34.628 5.77,21.945 
		4.071,23.644 4.071,36.327 16.65,36.327 16.65,25.03 17.869,25.03 17.869,23.331 16.65,23.331 	"/>
	<polygon fill="#3D6480" points="13.509,15.765 11.95,15.765 11.251,16.464 13.509,16.464 	"/>
	<polygon fill="#3D6480" points="13.509,19.027 8.688,19.027 7.988,19.727 13.509,19.727 	"/>
	<rect x="7.213" y="22.289" fill="#3D6480" width="6.297" height="0.699"/>
	<rect x="11.805" y="31.501" fill="#3D6480" width="1.704" height="1"/>
	<rect x="32.576" y="31.501" fill="#3D6480" width="1.704" height="1"/>
	<rect x="19.894" y="23.331" fill="#3D6480" width="1.784" height="1.699"/>
	<rect x="28.104" y="15.765" fill="#3D6480" width="6.297" height="0.699"/>
	<rect x="28.104" y="19.027" fill="#3D6480" width="6.297" height="0.699"/>
	<rect x="28.104" y="22.289" fill="#3D6480" width="6.297" height="0.699"/>
</g>
</svg>
