<?xml version="1.0" encoding="utf-8"?>
<!-- Generator: Adobe Illustrator 17.0.0, SVG Export Plug-In . SVG Version: 6.00 Build 0)  -->
<!DOCTYPE svg PUBLIC "-//W3C//DTD SVG 1.1//EN" "http://www.w3.org/Graphics/SVG/1.1/DTD/svg11.dtd">
<svg version="1.1" id="Layer_1" xmlns="http://www.w3.org/2000/svg" xmlns:xlink="http://www.w3.org/1999/xlink" x="0px" y="0px"
	 width="42px" height="42px" viewBox="0 0 42 42" enable-background="new 0 0 42 42" xml:space="preserve">
<g>
	<rect x="21.034" y="11.316" fill="none" width="15.736" height="1.932"/>
	<rect x="14.029" y="16.814" fill="none" width="1.931" height="15.736"/>
	<rect x="5.229" y="11.316" fill="none" width="3.726" height="1.932"/>
	<path fill="none" d="M32.072,28.435c-1.851,0-3.356,1.506-3.356,3.356c0,1.852,1.506,3.357,3.356,3.357
		c1.852,0,3.357-1.506,3.357-3.357C35.43,29.94,33.924,28.435,32.072,28.435z"/>
	<rect x="10.654" y="9.449" fill="#FFFFFF" width="8.681" height="5.666"/>
	<path fill="#3D6480" d="M38.47,9.617H21.034V7.75H8.955v1.867H3.53v5.33h5.425v1.867h3.375V34.25h5.329V16.814h3.375v-1.867H38.47
		V9.617z M8.955,13.248H5.229v-1.932h3.726V13.248z M15.96,32.551h-1.931V16.814h1.931V32.551z M19.335,15.115h-8.681V9.449h8.681
		V15.115z M36.771,13.248H21.034v-1.932h15.736V13.248z"/>
	<path fill="#3D6480" d="M36.09,34.516c0.529-0.778,0.839-1.716,0.839-2.725c0-2.678-2.179-4.856-4.857-4.856
		c-2.678,0-4.856,2.179-4.856,4.856c0,2.679,2.179,4.857,4.856,4.857c0.983,0,1.896-0.298,2.661-0.802l3.051,3.051l1.344-1.344
		L36.09,34.516z M32.072,35.148c-1.851,0-3.356-1.506-3.356-3.357c0-1.851,1.506-3.356,3.356-3.356c1.852,0,3.357,1.506,3.357,3.356
		C35.43,33.643,33.924,35.148,32.072,35.148z"/>
</g>
</svg>
