<?xml version="1.0" encoding="utf-8"?>
<!-- Generator: Adobe Illustrator 17.0.0, SVG Export Plug-In . SVG Version: 6.00 Build 0)  -->
<!DOCTYPE svg PUBLIC "-//W3C//DTD SVG 1.1//EN" "http://www.w3.org/Graphics/SVG/1.1/DTD/svg11.dtd">
<svg version="1.1" id="Layer_1" xmlns="http://www.w3.org/2000/svg" xmlns:xlink="http://www.w3.org/1999/xlink" x="0px" y="0px"
	 width="42px" height="42px" viewBox="0 0 42 42" enable-background="new 0 0 42 42" xml:space="preserve">
<g>
	<rect x="4.283" y="30.014" fill="#FFFFFF" width="15.331" height="3.991"/>
	<rect x="4.283" y="7.995" fill="#FFFFFF" width="15.331" height="3.991"/>
	<rect x="29.229" y="19.004" fill="#FFFFFF" width="7.416" height="3.991"/>
	<rect x="21.313" y="19.004" fill="#FFFFFF" width="7.415" height="3.991"/>
	<path fill="#3D6480" d="M38.344,17.305h-8.965V9.59h-8.065V6.296H2.584v7.39h18.729v-3.295h7.265v6.914h-8.964v7.39h8.964v6.914
		h-7.265v-3.294H2.584v7.39h18.729v-3.295h8.065v-7.715h8.965V17.305z M4.283,11.986V7.995h15.331v3.991H4.283z M4.283,34.005
		v-3.991h15.331v3.991H4.283z M36.645,22.995h-7.416v-3.991h7.416V22.995z M21.313,19.004h7.415v3.991h-7.415V19.004z"/>
	<rect x="3.528" y="17.305" fill="#FF9C04" width="8.234" height="1.699"/>
	<rect x="3.528" y="22.995" fill="#FF9C04" width="4.234" height="1.699"/>
	<rect x="3.528" y="20.15" fill="#FF9C04" width="6.234" height="1.699"/>
</g>
</svg>
