<?xml version="1.0" encoding="utf-8"?>
<!-- Generator: Adobe Illustrator 17.0.0, SVG Export Plug-In . SVG Version: 6.00 Build 0)  -->
<!DOCTYPE svg PUBLIC "-//W3C//DTD SVG 1.1//EN" "http://www.w3.org/Graphics/SVG/1.1/DTD/svg11.dtd">
<svg version="1.1" id="Layer_1" xmlns="http://www.w3.org/2000/svg" xmlns:xlink="http://www.w3.org/1999/xlink" x="0px" y="0px"
	 width="42px" height="42px" viewBox="0 0 42 42" enable-background="new 0 0 42 42" xml:space="preserve">
<g>
	<rect x="4.82" y="7.433" fill="none" width="32.36" height="3.991"/>
	<path fill="#3D6480" d="M3.12,5.733v7.39H38.88v-7.39H3.12z M37.18,11.424H4.82V7.433h32.36V11.424z"/>
	<polygon fill="#3D6480" points="3.12,36.268 19,36.268 19,34.568 4.82,34.568 4.82,30.576 19,30.576 19,28.877 3.12,28.877 	"/>
	<polygon fill="#3D6480" points="23,30.576 37.18,30.576 37.18,34.568 23,34.568 23,36.268 38.88,36.268 38.88,28.877 23,28.877 	
		"/>
	<rect x="22.96" y="31.66" fill="#3D6480" width="1.2" height="1.824"/>
	<rect x="17.78" y="31.66" fill="#3D6480" width="1.2" height="1.824"/>
	<path fill="#0CB20F" d="M29.625,21.355v3.029l-2.202-2.201l-0.849,0.848l3.05,3.051v0.102h0.102l0.849,0.849l0.849-0.849h0.102
		v-0.102l3.05-3.051l-0.849-0.848l-2.202,2.201v-3.029c0-2.953-2.403-5.356-5.356-5.356h-4.167v-2.674h-1.9v2.674h-4.271
		c-2.954,0-5.356,2.403-5.356,5.356v2.533l-1.954-1.954l-1.344,1.344l4.248,4.248l4.248-4.248l-1.344-1.344l-1.954,1.954v-2.533
		c0-1.906,1.55-3.456,3.456-3.456h5.201h0.02h5.117C28.075,17.899,29.625,19.449,29.625,21.355z"/>
</g>
</svg>
