<?xml version="1.0" encoding="utf-8"?>
<!-- Generator: Adobe Illustrator 17.0.0, SVG Export Plug-In . SVG Version: 6.00 Build 0)  -->
<!DOCTYPE svg PUBLIC "-//W3C//DTD SVG 1.1//EN" "http://www.w3.org/Graphics/SVG/1.1/DTD/svg11.dtd">
<svg version="1.1" id="Layer_1" xmlns="http://www.w3.org/2000/svg" xmlns:xlink="http://www.w3.org/1999/xlink" x="0px" y="0px"
	 width="42px" height="42px" viewBox="0 0 42 42" enable-background="new 0 0 42 42" xml:space="preserve">
<g>
	<polygon fill="none" points="29.597,30.818 29.597,36.139 35.301,33.482 	"/>
	<path fill="#0CB20F" d="M27.747,27.912v11.129l11.931-5.557L27.747,27.912z M29.597,30.818l5.704,2.664l-5.704,2.656V30.818z"/>
	<path fill="#EFF9FE" d="M29.292,11.478h1.699v1.117h1.127c1.068,0,1.938-0.869,1.938-1.938c0-1.067-0.869-1.937-1.938-1.937H17.467
		c-2.408,0-3.734,1.326-3.734,3.734v15.252h6.161v1.699h-9.438c-1.068,0-1.938,0.869-1.938,1.937c0,1.068,0.869,1.938,1.938,1.938
		h11.537l7.299-7.299V11.478z M17.333,22.187c-0.517,0-1.141-0.096-1.606-0.284l-0.086-0.035l0.153-0.765l0.118,0.037
		c0.472,0.146,0.966,0.224,1.437,0.224c0.799,0,0.908-0.185,0.908-0.711c0-0.17,0-0.302-0.017-0.407
		c-0.015-0.094-0.042-0.151-0.089-0.197c-0.109-0.108-0.342-0.181-0.898-0.306c-1.318-0.295-1.51-0.582-1.51-1.729
		c0-0.991,0.444-1.471,1.795-1.471c0.467,0,1.021,0.064,1.451,0.178l0.092,0.024l-0.076,0.797l-0.123-0.028
		c-0.412-0.093-0.9-0.147-1.328-0.147c-0.822,0-0.908,0.145-0.908,0.672c0,0.175,0,0.308,0.017,0.412
		c0.013,0.095,0.039,0.15,0.082,0.193c0.103,0.104,0.323,0.171,0.86,0.306c1.439,0.357,1.555,0.602,1.555,1.688
		C19.159,21.617,18.839,22.187,17.333,22.187z M24.037,20.479c0,0.764-0.399,1.427-1.329,1.633l0.43,0.977l-0.81,0.368l-0.565-1.281
		c-1.231-0.089-1.76-0.813-1.76-1.696v-2.229c0-0.944,0.602-1.708,2.017-1.708s2.018,0.764,2.018,1.708V20.479z M28.225,22.108
		h-3.187v-5.486h0.902v4.655h2.284V22.108z"/>
	<path fill="#EFF9FE" d="M22.02,17.366c-0.786,0-1.113,0.33-1.113,0.9v2.197c0,0.57,0.327,0.9,1.113,0.9s1.114-0.33,1.114-0.9
		v-2.197C23.134,17.696,22.806,17.366,22.02,17.366z"/>
	<path fill="#3D6480" d="M8.519,31.343c0-1.067,0.869-1.937,1.938-1.937h9.438v-1.699h-6.161V12.455
		c0-2.408,1.326-3.734,3.734-3.734h14.651c1.068,0,1.938,0.869,1.938,1.937c0,1.068-0.869,1.938-1.938,1.938h-1.127v-1.117h-1.699
		v14.503l1.699-1.699v-9.988h1.127c2.006,0,3.637-1.631,3.637-3.637c0-2.005-1.631-3.636-3.637-3.636H17.467
		c-3.352,0-5.434,2.082-5.434,5.434v15.252h-1.577c-2.006,0-3.637,1.631-3.637,3.636c0,2.006,1.631,3.637,3.637,3.637h9.837
		l1.699-1.699H10.456C9.388,33.28,8.519,32.411,8.519,31.343z"/>
	<path fill="#3D6480" d="M17.605,18.949c-0.537-0.135-0.758-0.202-0.86-0.306c-0.043-0.043-0.069-0.099-0.082-0.193
		c-0.017-0.104-0.017-0.237-0.017-0.412c0-0.527,0.086-0.672,0.908-0.672c0.428,0,0.916,0.055,1.328,0.147l0.123,0.028l0.076-0.797
		l-0.092-0.024c-0.43-0.113-0.984-0.178-1.451-0.178c-1.351,0-1.795,0.479-1.795,1.471c0,1.147,0.191,1.435,1.51,1.729
		c0.557,0.125,0.789,0.197,0.898,0.306c0.047,0.046,0.074,0.104,0.089,0.197c0.017,0.105,0.017,0.237,0.017,0.407
		c0,0.526-0.109,0.711-0.908,0.711c-0.471,0-0.965-0.077-1.437-0.224l-0.118-0.037l-0.153,0.765l0.086,0.035
		c0.466,0.188,1.09,0.284,1.606,0.284c1.506,0,1.826-0.57,1.826-1.55C19.159,19.551,19.044,19.307,17.605,18.949z"/>
	<path fill="#3D6480" d="M22.02,16.543c-1.415,0-2.017,0.764-2.017,1.708v2.229c0,0.884,0.528,1.607,1.76,1.696l0.565,1.281
		l0.81-0.368l-0.43-0.977c0.93-0.206,1.329-0.869,1.329-1.633v-2.229C24.037,17.307,23.435,16.543,22.02,16.543z M23.134,20.464
		c0,0.57-0.328,0.9-1.114,0.9s-1.113-0.33-1.113-0.9v-2.197c0-0.57,0.327-0.9,1.113-0.9s1.114,0.33,1.114,0.9V20.464z"/>
	<polygon fill="#3D6480" points="25.941,16.622 25.038,16.622 25.038,22.108 28.225,22.108 28.225,21.277 25.941,21.277 	"/>
</g>
</svg>
