<?xml version="1.0" encoding="utf-8"?>
<!-- Generator: Adobe Illustrator 17.0.0, SVG Export Plug-In . SVG Version: 6.00 Build 0)  -->
<!DOCTYPE svg PUBLIC "-//W3C//DTD SVG 1.1//EN" "http://www.w3.org/Graphics/SVG/1.1/DTD/svg11.dtd">
<svg version="1.1" id="Layer_1" xmlns="http://www.w3.org/2000/svg" xmlns:xlink="http://www.w3.org/1999/xlink" x="0px" y="0px"
	 width="42px" height="42px" viewBox="0 0 42 42" enable-background="new 0 0 42 42" xml:space="preserve">
<g>
	<polygon fill="none" points="29.478,30.635 29.478,35.955 35.182,33.299 	"/>
	<path fill="#0CB20F" d="M27.628,27.728v11.129l11.931-5.557L27.628,27.728z M29.478,30.635l5.704,2.664l-5.704,2.656V30.635z"/>
	<path fill="#EFF9FE" d="M21.901,21.181c0.786,0,1.114-0.331,1.114-0.9v-2.197c0-0.57-0.328-0.9-1.114-0.9s-1.113,0.33-1.113,0.9
		v2.197C20.787,20.85,21.114,21.181,21.901,21.181z"/>
	<path fill="#EFF9FE" d="M29.173,11.295h1.699v1.116h1.127c1.068,0,1.938-0.869,1.938-1.937c0-1.068-0.869-1.938-1.938-1.938H17.348
		c-1.082,0-1.932,0.282-2.555,0.795h7.185v7.034c1.356,0.029,1.94,0.776,1.94,1.703v2.229c0,0.764-0.399,1.427-1.329,1.632
		l0.43,0.977l-0.81,0.369l-0.565-1.282c-1.231-0.089-1.76-0.812-1.76-1.695v-2.229c0-0.551,0.212-1.035,0.663-1.347h-1.6
		l-0.061,0.638l-0.123-0.028c-0.412-0.094-0.9-0.147-1.328-0.147c-0.822,0-0.908,0.145-0.908,0.671c0,0.175,0,0.308,0.017,0.413
		c0.013,0.095,0.039,0.149,0.082,0.193c0.103,0.104,0.323,0.171,0.86,0.306c1.439,0.357,1.555,0.601,1.555,1.688
		c0,0.979-0.32,1.55-1.826,1.55c-0.517,0-1.141-0.097-1.606-0.285l-0.086-0.034l0.153-0.766l0.118,0.037
		c0.472,0.146,0.966,0.225,1.437,0.225c0.799,0,0.908-0.186,0.908-0.711c0-0.171,0-0.302-0.017-0.407
		c-0.015-0.095-0.042-0.152-0.089-0.198c-0.109-0.107-0.342-0.18-0.898-0.306c-1.318-0.295-1.51-0.581-1.51-1.729
		c0-0.498,0.112-0.866,0.394-1.109h-2.405v10.802h6.161v1.699h-9.438c-1.068,0-1.938,0.869-1.938,1.938
		c0,1.067,0.869,1.937,1.938,1.937h11.84l6.996-6.996V11.295z M28.106,21.926h-3.187v-5.486h0.902v4.655h2.284V21.926z"/>
	<path fill="#3D6480" d="M8.4,31.16c0-1.068,0.869-1.938,1.938-1.938h9.438v-1.699h-6.161V16.721h2.405
		c-0.282,0.244-0.394,0.612-0.394,1.109c0,1.147,0.191,1.434,1.51,1.729c0.557,0.126,0.789,0.198,0.898,0.306
		c0.047,0.046,0.074,0.104,0.089,0.198c0.017,0.105,0.017,0.236,0.017,0.407c0,0.525-0.109,0.711-0.908,0.711
		c-0.471,0-0.965-0.078-1.437-0.225l-0.118-0.037l-0.153,0.766l0.086,0.034c0.466,0.188,1.09,0.285,1.606,0.285
		c1.506,0,1.826-0.57,1.826-1.55c0-1.088-0.115-1.331-1.555-1.688c-0.537-0.135-0.758-0.202-0.86-0.306
		c-0.043-0.044-0.069-0.099-0.082-0.193c-0.017-0.105-0.017-0.238-0.017-0.413c0-0.526,0.086-0.671,0.908-0.671
		c0.428,0,0.916,0.054,1.328,0.147l0.123,0.028l0.061-0.638h1.6c-0.451,0.312-0.663,0.796-0.663,1.347v2.229
		c0,0.884,0.528,1.606,1.76,1.695l0.565,1.282l0.81-0.369l-0.43-0.977c0.93-0.205,1.329-0.868,1.329-1.632v-2.229
		c0-0.927-0.584-1.674-1.94-1.703V9.332h-7.185c0.623-0.513,1.473-0.795,2.555-0.795h14.651c1.068,0,1.938,0.869,1.938,1.938
		c0,1.067-0.869,1.937-1.938,1.937h-1.127v-1.116h-1.699V26.1l1.699-1.699V14.11h1.127c2.006,0,3.637-1.631,3.637-3.636
		c0-2.006-1.631-3.637-3.637-3.637H17.348c-2.208,0-3.849,0.918-4.723,2.494H3.261v7.39h8.653v10.802h-1.577
		c-2.006,0-3.637,1.631-3.637,3.637c0,2.005,1.631,3.636,3.637,3.636h10.141l1.699-1.699h-11.84C9.269,33.096,8.4,32.227,8.4,31.16z
		 M20.787,18.084c0-0.57,0.327-0.9,1.113-0.9s1.114,0.33,1.114,0.9v2.197c0,0.569-0.328,0.9-1.114,0.9s-1.113-0.331-1.113-0.9
		V18.084z M4.96,15.022v-3.991h15.318v3.991H4.96z"/>
	<polygon fill="#3D6480" points="25.822,16.439 24.919,16.439 24.919,21.926 28.106,21.926 28.106,21.095 25.822,21.095 	"/>
	<rect x="4.96" y="11.031" fill="#FFFFFF" width="15.318" height="3.991"/>
</g>
</svg>
