<?xml version="1.0" encoding="utf-8"?>
<!-- Generator: Adobe Illustrator 17.0.0, SVG Export Plug-In . SVG Version: 6.00 Build 0)  -->
<!DOCTYPE svg PUBLIC "-//W3C//DTD SVG 1.1//EN" "http://www.w3.org/Graphics/SVG/1.1/DTD/svg11.dtd">
<svg version="1.1" id="Layer_1" xmlns="http://www.w3.org/2000/svg" xmlns:xlink="http://www.w3.org/1999/xlink" x="0px" y="0px"
	 width="42px" height="42px" viewBox="0 0 42 42" enable-background="new 0 0 42 42" xml:space="preserve">
<g>
	<polygon fill="#3D6480" points="37.114,32.148 37.114,35.23 31.891,30.005 30.547,31.349 35.771,36.575 32.627,36.575 
		32.627,38.475 39.015,38.475 39.015,32.148 	"/>
	<path fill="#0CB20F" d="M24.238,14.304h0.354h5.844c0.223,0.338,0.428,0.689,0.614,1.053c0.001,0.002,0.002,0.003,0.003,0.005
		c0.794,1.545,1.248,3.293,1.248,5.152c0,1.719-0.395,3.342-1.082,4.801l3.156-3.156c0.066-0.54,0.11-1.087,0.11-1.645
		c0-2.2-0.493-4.113-1.399-5.923c-0.022-0.076-0.052-0.154-0.093-0.233c-0.322-0.627-1.097-2.238-1.987-2.238h-0.432h-3.689
		l1.467-1.467c0,0-0.001-0.019-0.001-0.026c1.168-1.367-1.724-2.401-2.554-2.717c-0.094-0.036-0.185-0.057-0.274-0.07
		C24.157,7.319,22.749,7.027,21,7.027c-7.447,0-13.485,6.039-13.485,13.486c0,2.772,0.779,5.155,2.199,7.329
		c0.016,0.042,0.027,0.082,0.048,0.125c0.279,0.557,1.156,1.748,1.858,1.748h3.482l-0.876,0.877
		c-1.395,1.393,1.336,2.303,2.194,2.613c0.101,0.036,0.198,0.055,0.292,0.065c1.288,0.455,2.657,0.73,4.288,0.73
		c0.557,0,1.104-0.044,1.643-0.11l3.157-3.157c-1.459,0.687-3.082,1.082-4.801,1.082c-1.456,0-2.847-0.275-4.123-0.775l1.182-1.182
		l-0.004-0.004l0.458-0.458c0.86-0.859,0.444-1.865-0.772-1.865l-5.6,0.002c-1.529-1.93-2.441-4.365-2.441-7.018
		c0-6.24,5.06-11.301,11.301-11.301c1.619,0,3.155,0.347,4.545,0.958c0.044,0.019,0.089,0.036,0.133,0.055l-2.211,2.213
		C22.606,13.3,23.022,14.304,24.238,14.304z"/>
</g>
</svg>
