<?xml version="1.0" encoding="utf-8"?>
<!-- Generator: Adobe Illustrator 17.0.0, SVG Export Plug-In . SVG Version: 6.00 Build 0)  -->
<!DOCTYPE svg PUBLIC "-//W3C//DTD SVG 1.1//EN" "http://www.w3.org/Graphics/SVG/1.1/DTD/svg11.dtd">
<svg version="1.1" id="Layer_1" xmlns="http://www.w3.org/2000/svg" xmlns:xlink="http://www.w3.org/1999/xlink" x="0px" y="0px"
	 width="42px" height="42px" viewBox="0 0 42 42" enable-background="new 0 0 42 42" xml:space="preserve">
<g>
	<polygon fill="#3D6480" points="11.558,5.574 9.658,5.574 9.658,8.657 4.434,3.433 3.09,4.777 8.315,10.002 5.17,10.002 
		5.171,11.903 11.558,11.9 	"/>
	<path fill="#0CB20F" d="M34.229,19.669c-0.009-0.089-0.018-0.179-0.029-0.267c-0.059-0.47-0.139-0.93-0.245-1.377
		c-0.004-0.019-0.01-0.037-0.015-0.056c-0.114-0.47-0.256-0.929-0.422-1.38c-0.003-0.009-0.006-0.017-0.009-0.026
		c-0.172-0.465-0.372-0.922-0.598-1.372c0,0,0,0,0,0c-0.001-0.004-0.003-0.007-0.004-0.011c-0.022-0.072-0.049-0.145-0.087-0.219
		c-0.021-0.04-0.048-0.094-0.072-0.141c-0.07-0.138-0.151-0.295-0.249-0.473c-0.184-0.334-0.416-0.706-0.675-1.012
		c-0.019-0.022-0.036-0.048-0.055-0.07c-0.284-0.316-0.601-0.543-0.935-0.543h-4.121l1.467-1.467c0,0-0.001-0.019-0.001-0.026
		c1.168-1.367-1.724-2.401-2.554-2.718c-0.096-0.037-0.188-0.057-0.278-0.07c-0.328-0.125-0.66-0.235-0.997-0.333
		c-0.052-0.015-0.106-0.027-0.158-0.041c-0.27-0.074-0.545-0.139-0.826-0.195c-0.098-0.02-0.198-0.037-0.298-0.054
		c-0.254-0.043-0.515-0.078-0.781-0.107c-0.104-0.011-0.207-0.024-0.313-0.033c-0.368-0.03-0.746-0.049-1.146-0.049
		c-0.26,0-0.513,0.024-0.769,0.039l-2.691,2.691c0,0,0,0,0.001,0c0.152-0.049,0.308-0.087,0.463-0.13
		c0.171-0.047,0.342-0.094,0.516-0.133c0.149-0.034,0.3-0.062,0.451-0.09c0.205-0.037,0.412-0.069,0.62-0.095
		c0.125-0.016,0.249-0.033,0.375-0.045c0.341-0.031,0.685-0.052,1.034-0.052c0.408,0,0.811,0.023,1.208,0.065
		c0.327,0.035,0.647,0.092,0.965,0.155c0.063,0.012,0.129,0.018,0.192,0.031c0.757,0.163,1.485,0.401,2.178,0.706
		c0.001,0,0.002,0.001,0.003,0.001c0.044,0.019,0.089,0.036,0.133,0.056l-2.211,2.213c-0.323,0.322-0.466,0.665-0.455,0.967
		c0.019,0.504,0.466,0.896,1.227,0.896h0.188h0.165l0.001,0.002h5.844c0.221,0.336,0.425,0.685,0.61,1.044
		c0.391,0.759,0.698,1.569,0.911,2.415c0.006,0.026,0.014,0.051,0.021,0.077c0.097,0.395,0.169,0.8,0.223,1.21
		c0.009,0.07,0.016,0.141,0.024,0.211c0.046,0.411,0.076,0.828,0.076,1.251c0,6.24-5.06,11.301-11.301,11.301
		c-1.456,0-2.847-0.275-4.123-0.775l1.182-1.182l-0.004-0.005l0.155-0.155l0.304-0.304c0.43-0.431,0.541-0.897,0.393-1.256
		s-0.557-0.61-1.165-0.61h-1.829h-3.771c-1.529-1.928-2.441-4.363-2.441-7.016c0-0.349,0.021-0.693,0.052-1.034
		c0.012-0.126,0.029-0.25,0.045-0.375c0.026-0.209,0.057-0.416,0.095-0.62c0.028-0.151,0.056-0.302,0.09-0.451
		c0.039-0.174,0.085-0.344,0.132-0.515c0.043-0.155,0.081-0.312,0.13-0.465l-2.69,2.69c-0.014,0.256-0.039,0.51-0.039,0.77
		c0,0.376,0.017,0.744,0.046,1.107c0.01,0.127,0.028,0.25,0.041,0.376c0.025,0.23,0.051,0.46,0.087,0.685
		c0.024,0.152,0.054,0.301,0.084,0.45c0.038,0.191,0.078,0.381,0.123,0.568c0.04,0.162,0.083,0.323,0.128,0.482
		c0.048,0.166,0.099,0.331,0.154,0.494c0.056,0.169,0.113,0.337,0.175,0.503c0.054,0.143,0.115,0.284,0.174,0.425
		c0.075,0.178,0.148,0.358,0.231,0.533c0.046,0.098,0.099,0.193,0.148,0.291c0.242,0.482,0.508,0.955,0.81,1.417
		c0.005,0.013,0.01,0.026,0.015,0.039c0.009,0.027,0.018,0.054,0.031,0.082c0.174,0.348,0.579,0.94,1.03,1.338
		c0.273,0.242,0.563,0.412,0.829,0.412h3.482l-0.876,0.877c-0.174,0.174-0.284,0.341-0.341,0.499
		c-0.029,0.079-0.044,0.157-0.048,0.232s0.004,0.149,0.023,0.22s0.047,0.141,0.084,0.208c0.075,0.135,0.185,0.262,0.318,0.38
		c0.304,0.27,0.729,0.495,1.137,0.675c0.077,0.034,0.151,0.066,0.226,0.096c0.314,0.129,0.602,0.23,0.795,0.299c0,0,0.001,0,0.002,0
		c0.099,0.036,0.194,0.055,0.286,0.065c0,0,0,0,0,0c0,0,0.001,0,0.001,0c0.502,0.177,1.024,0.321,1.563,0.434
		c0.229,0.05,0.462,0.096,0.7,0.133c0.184,0.028,0.372,0.054,0.563,0.074c0.468,0.052,0.95,0.088,1.464,0.088
		c7.447,0,13.485-6.037,13.485-13.484C34.312,20.619,34.278,20.14,34.229,19.669z"/>
</g>
</svg>
