<?xml version="1.0" encoding="utf-8"?>
<!-- Generator: Adobe Illustrator 17.0.0, SVG Export Plug-In . SVG Version: 6.00 Build 0)  -->
<!DOCTYPE svg PUBLIC "-//W3C//DTD SVG 1.1//EN" "http://www.w3.org/Graphics/SVG/1.1/DTD/svg11.dtd">
<svg version="1.1" id="Layer_1" xmlns="http://www.w3.org/2000/svg" xmlns:xlink="http://www.w3.org/1999/xlink" x="0px" y="0px"
	 width="42px" height="42px" viewBox="0 0 42 42" enable-background="new 0 0 42 42" xml:space="preserve">
<g>
	<rect x="8.909" y="29.736" fill="none" width="23.435" height="4.076"/>
	<polygon fill="#3D6480" points="35.35,5.114 35.35,5.914 37.754,5.914 37.754,23.084 35.35,23.084 35.35,23.885 38.555,23.885 
		38.555,5.114 	"/>
	<rect x="8.909" y="8.248" fill="#EFF9FE" width="23.435" height="4.076"/>
	<path fill="#3D6480" d="M7.208,14.024h26.834V6.547H7.208V14.024z M8.909,8.248h23.435v4.076H8.909V8.248z"/>
	<rect x="8.909" y="16.675" fill="#EFF9FE" width="23.435" height="4.075"/>
	<path fill="#3D6480" d="M7.208,22.45h26.834v-7.475H7.208V22.45z M8.909,16.675h23.435v4.075H8.909V16.675z"/>
	<path fill="#3D6480" d="M7.208,35.512h26.834v-7.475H7.208V35.512z M8.909,29.736h23.435v4.076H8.909V29.736z"/>
</g>
</svg>
