<?xml version="1.0" encoding="utf-8"?>
<!-- Generator: Adobe Illustrator 17.0.0, SVG Export Plug-In . SVG Version: 6.00 Build 0)  -->
<!DOCTYPE svg PUBLIC "-//W3C//DTD SVG 1.1//EN" "http://www.w3.org/Graphics/SVG/1.1/DTD/svg11.dtd">
<svg version="1.1" id="Layer_1" xmlns="http://www.w3.org/2000/svg" xmlns:xlink="http://www.w3.org/1999/xlink" x="0px" y="0px"
	 width="42px" height="42px" viewBox="0 0 42 42" enable-background="new 0 0 42 42" xml:space="preserve">
<g>
	<circle fill="none" cx="9.358" cy="27.526" r="2.237"/>
	<circle fill="none" cx="9.358" cy="14.476" r="2.237"/>
	<rect x="25.335" y="26.533" fill="#3D6480" width="1.785" height="1.699"/>
	<rect x="22.04" y="26.533" fill="#3D6480" width="1.785" height="1.699"/>
	<rect x="18.745" y="26.533" fill="#3D6480" width="1.785" height="1.699"/>
	<rect x="35.22" y="26.533" fill="#3D6480" width="1.785" height="1.699"/>
	<rect x="31.925" y="26.533" fill="#3D6480" width="1.785" height="1.699"/>
	<rect x="28.63" y="26.533" fill="#3D6480" width="1.785" height="1.699"/>
	<path fill="#3D6480" d="M24.735,12.994l-1.672,1.046l-9.213,5.685L11.42,18.21l0.374-0.261c1.125-0.782,1.861-2.084,1.861-3.557
		c0-2.392-1.939-4.33-4.33-4.33c-2.392,0-4.33,1.938-4.33,4.33c0,1.685,0.975,3.152,2.381,3.868l4.4,2.74L6.7,24.164
		c-1.037,0.792-1.705,2.04-1.705,3.443c0,2.392,1.938,4.33,4.33,4.33c2.391,0,4.33-1.938,4.33-4.33c0-1.474-0.736-2.775-1.863-3.558
		l-0.375-0.262l2.428-1.498l4.176,2.602h4.125l-6.23-3.881l6.909-4.219l8.019-5.021C29.952,11.005,27.444,11.297,24.735,12.994z
		 M9.358,16.713c-1.236,0-2.238-1.002-2.238-2.237c0-1.236,1.002-2.237,2.238-2.237c1.234,0,2.236,1.001,2.236,2.237
		C11.595,15.711,10.593,16.713,9.358,16.713z M11.595,27.526c0,1.235-1.002,2.237-2.236,2.237c-1.236,0-2.238-1.002-2.238-2.237
		c0-1.236,1.002-2.237,2.238-2.237C10.593,25.289,11.595,26.29,11.595,27.526z"/>
</g>
</svg>
