<?xml version="1.0" encoding="utf-8"?>
<!-- Generator: Adobe Illustrator 17.0.0, SVG Export Plug-In . SVG Version: 6.00 Build 0)  -->
<!DOCTYPE svg PUBLIC "-//W3C//DTD SVG 1.1//EN" "http://www.w3.org/Graphics/SVG/1.1/DTD/svg11.dtd">
<svg version="1.1" id="Layer_1" xmlns="http://www.w3.org/2000/svg" xmlns:xlink="http://www.w3.org/1999/xlink" x="0px" y="0px"
	 width="42px" height="42px" viewBox="0 0 42 42" enable-background="new 0 0 42 42" xml:space="preserve">
<g>
	<path fill="none" d="M32.438,14.161v-2.563H9.706v2.563H32.438z M28.983,12.32h2.369v0.801h-2.369V12.32z"/>
	<path fill="#EFF9FE" d="M32.438,14.962H9.706v15.327h22.732V14.962z M14.706,25.811l-0.565-0.566l2.257-2.257l-2.256-2.236
		l0.563-0.568l2.826,2.803L14.706,25.811z M22.497,25.928h-4.168v-0.801h4.168V25.928z"/>
	<path fill="#3D6480" d="M8.005,9.898v22.09h26.133V9.898H8.005z M9.706,14.962h22.732v15.327H9.706V14.962z M32.438,11.598v2.563
		H9.706v-2.563H32.438z"/>
	<rect x="28.983" y="12.32" fill="#3D6480" width="2.369" height="0.801"/>
	<polygon fill="#3D6480" points="14.141,20.751 16.397,22.987 14.14,25.244 14.706,25.811 17.531,22.985 14.705,20.183 	"/>
	<rect x="18.329" y="25.127" fill="#3D6480" width="4.168" height="0.801"/>
</g>
</svg>
