<?xml version="1.0" encoding="utf-8"?>
<!-- Generator: Adobe Illustrator 17.0.0, SVG Export Plug-In . SVG Version: 6.00 Build 0)  -->
<!DOCTYPE svg PUBLIC "-//W3C//DTD SVG 1.1//EN" "http://www.w3.org/Graphics/SVG/1.1/DTD/svg11.dtd">
<svg version="1.1" id="Layer_1" xmlns="http://www.w3.org/2000/svg" xmlns:xlink="http://www.w3.org/1999/xlink" x="0px" y="0px"
	 width="42px" height="42px" viewBox="0 0 42 42" enable-background="new 0 0 42 42" xml:space="preserve">
<rect x="17.33" y="38.409" fill="none" width="2.563" height="0.006"/>
<rect x="20.894" y="4.581" fill="none" width="0.04" height="2.453"/>
<rect x="20.894" y="38.409" fill="none" width="0.04" height="0.006"/>
<rect x="5.545" y="10.683" fill="none" width="0.093" height="2.311"/>
<rect x="5.545" y="4.581" fill="none" width="0.093" height="2.453"/>
<rect x="13.766" y="38.409" fill="none" width="2.564" height="0.006"/>
<rect x="20.894" y="35.098" fill="none" width="0.04" height="2.312"/>
<rect x="20.894" y="28.996" fill="none" width="0.04" height="2.453"/>
<rect x="17.33" y="13.993" fill="none" width="2.563" height="0.007"/>
<rect x="20.894" y="10.683" fill="none" width="0.04" height="2.311"/>
<rect x="10.202" y="38.409" fill="none" width="2.563" height="0.006"/>
<rect x="20.894" y="13.993" fill="none" width="0.04" height="0.007"/>
<rect x="5.545" y="35.098" fill="none" width="0.093" height="2.312"/>
<rect x="5.545" y="28.996" fill="none" width="0.093" height="2.453"/>
<rect x="6.638" y="38.409" fill="none" width="2.564" height="0.006"/>
<rect x="13.766" y="13.993" fill="none" width="2.564" height="0.007"/>
<rect x="5.545" y="38.409" fill="none" width="0.093" height="0.006"/>
<path fill="none" d="M33.895,32.499c0.582-0.236,0.73-0.379,0.73-0.724v-0.217c0-0.352-0.169-0.555-0.73-0.555
	c-0.568,0-0.73,0.203-0.73,0.555v0.217C33.164,32.12,33.312,32.263,33.895,32.499z"/>
<path fill="none" d="M30.14,11.162c0.622,0,0.825-0.236,0.825-0.73V8.388c0-0.494-0.203-0.73-0.825-0.73
	c-0.623,0-0.826,0.236-0.826,0.73v2.044C29.313,10.926,29.517,11.162,30.14,11.162z"/>
<path fill="none" d="M27.494,32.953c-0.298,0-0.623,0.088-0.847,0.183v0.771c0,0.479,0.244,0.622,0.758,0.622
	c0.582,0,0.738-0.176,0.738-0.622v-0.372C28.144,33.122,27.987,32.953,27.494,32.953z"/>
<path fill="none" d="M33.895,32.986c-0.684,0.277-0.846,0.406-0.846,0.792v0.155c0,0.46,0.217,0.609,0.846,0.609
	c0.623,0,0.846-0.149,0.846-0.609v-0.155C34.74,33.393,34.571,33.264,33.895,32.986z"/>
<rect x="16.089" y="19.005" fill="none" width="21.787" height="3.991"/>
<path fill="none" d="M37.406,31.024c-0.582,0-0.736,0.176-0.736,0.622v0.372c0,0.413,0.154,0.582,0.648,0.582
	c0.298,0,0.623-0.088,0.846-0.183v-0.771C38.164,31.166,37.921,31.024,37.406,31.024z"/>
<polygon fill="none" points="37.528,7.799 36.006,10.032 37.528,10.032 "/>
<rect x="10.202" y="13.993" fill="none" width="2.563" height="0.007"/>
<rect x="6.638" y="13.993" fill="none" width="2.564" height="0.007"/>
<rect x="5.545" y="13.993" fill="none" width="0.093" height="0.007"/>
<polygon fill="#3D6480" points="27.095,7.874 27.095,11.596 27.663,11.596 27.663,7.224 27.155,7.224 25.971,7.907 26.222,8.361 "/>
<path fill="#3D6480" d="M30.14,11.663c1.049,0,1.394-0.494,1.394-1.171V8.327c0-0.677-0.345-1.171-1.394-1.171
	s-1.395,0.494-1.395,1.171v2.165C28.745,11.169,29.091,11.663,30.14,11.663z M29.313,8.388c0-0.494,0.203-0.73,0.826-0.73
	c0.622,0,0.825,0.236,0.825,0.73v2.044c0,0.494-0.203,0.73-0.825,0.73c-0.623,0-0.826-0.236-0.826-0.73V8.388z"/>
<path fill="#3D6480" d="M34.855,11.095h-1.807c0.439-0.494,0.508-0.582,0.994-1.164c0.677-0.806,0.771-1.035,0.771-1.569
	c0-0.027,0-0.122,0-0.149c0-0.69-0.277-1.056-1.319-1.056c-0.393,0-0.839,0.081-1.13,0.169l0.081,0.487
	c0.258-0.074,0.684-0.148,1.002-0.148c0.684,0,0.798,0.128,0.798,0.555v0.196c0,0.318-0.047,0.494-0.737,1.313
	c-0.534,0.63-0.663,0.778-1.164,1.347v0.521h2.511V11.095z"/>
<path fill="#3D6480" d="M37.528,11.596h0.568v-1.076h0.629v-0.487h-0.629V7.224h-0.765l-1.888,2.734v0.562h2.084V11.596z
	 M36.006,10.032l1.522-2.233v2.233H36.006z"/>
<path fill="#3D6480" d="M27.548,32.459c-0.298,0-0.677,0.074-0.9,0.155V32.06c0-0.818,0.251-1.042,1.3-1.042
	c0.162,0,0.433,0.027,0.595,0.061l0.062-0.474c-0.217-0.054-0.535-0.081-0.744-0.081c-1.271,0-1.773,0.406-1.773,1.529v1.936
	c0,0.636,0.346,1.042,1.319,1.042c1.083,0,1.3-0.487,1.3-1.279v-0.216C28.705,32.817,28.407,32.459,27.548,32.459z M28.144,33.907
	c0,0.446-0.156,0.622-0.738,0.622c-0.514,0-0.758-0.143-0.758-0.622v-0.771c0.224-0.095,0.549-0.183,0.847-0.183
	c0.493,0,0.649,0.169,0.649,0.582V33.907z"/>
<polygon fill="#3D6480" points="29.246,31.092 31.351,31.092 29.558,34.962 30.133,34.962 31.933,31.071 31.933,30.591 
	29.246,30.591 "/>
<path fill="#3D6480" d="M34.477,32.729c0.555-0.264,0.704-0.541,0.704-0.968v-0.176c0-0.616-0.312-1.063-1.286-1.063
	c-0.981,0-1.285,0.446-1.285,1.063v0.176c0,0.427,0.143,0.704,0.683,0.968c-0.602,0.284-0.798,0.568-0.798,1.028v0.196
	c0,0.758,0.399,1.076,1.4,1.076c0.995,0,1.4-0.318,1.4-1.076v-0.196C35.295,33.298,35.093,33.014,34.477,32.729z M33.164,31.775
	v-0.217c0-0.352,0.162-0.555,0.73-0.555c0.562,0,0.73,0.203,0.73,0.555v0.217c0,0.345-0.148,0.487-0.73,0.724
	C33.312,32.263,33.164,32.12,33.164,31.775z M34.74,33.934c0,0.46-0.223,0.609-0.846,0.609c-0.629,0-0.846-0.149-0.846-0.609v-0.155
	c0-0.386,0.162-0.515,0.846-0.792c0.677,0.277,0.846,0.406,0.846,0.792V33.934z"/>
<path fill="#3D6480" d="M37.406,30.523c-1.063,0-1.299,0.487-1.299,1.279v0.216c0,0.718,0.298,1.076,1.157,1.076
	c0.298,0,0.677-0.074,0.899-0.155v0.555c0,0.818-0.25,1.042-1.299,1.042c-0.162,0-0.439-0.027-0.603-0.061l-0.054,0.474
	c0.217,0.054,0.534,0.081,0.744,0.081c1.272,0,1.772-0.406,1.772-1.529v-1.915C38.726,30.95,38.381,30.523,37.406,30.523z
	 M38.164,32.418c-0.223,0.095-0.548,0.183-0.846,0.183c-0.494,0-0.648-0.169-0.648-0.582v-0.372c0-0.446,0.154-0.622,0.736-0.622
	c0.515,0,0.758,0.142,0.758,0.622V32.418z"/>
<rect x="3.846" y="28.996" fill="#3D6480" width="1.699" height="2.453"/>
<rect x="20.934" y="28.996" fill="#3D6480" width="1.699" height="2.453"/>
<rect x="17.33" y="26.33" fill="#3D6480" width="2.563" height="1.666"/>
<rect x="13.766" y="26.33" fill="#3D6480" width="2.564" height="1.666"/>
<rect x="10.202" y="26.33" fill="#3D6480" width="2.563" height="1.666"/>
<rect x="6.638" y="26.33" fill="#3D6480" width="2.564" height="1.666"/>
<rect x="3.846" y="26.33" fill="#3D6480" width="1.792" height="1.666"/>
<rect x="20.894" y="26.33" fill="#3D6480" width="1.739" height="1.666"/>
<polygon fill="#3D6480" points="5.545,38.415 5.545,38.409 3.846,38.409 3.846,40.114 5.638,40.114 5.638,38.415 "/>
<rect x="3.846" y="35.098" fill="#3D6480" width="1.699" height="2.312"/>
<polygon fill="#3D6480" points="5.638,32.449 3.846,32.449 3.846,33.173 3.846,34.098 5.638,34.098 "/>
<rect x="6.638" y="38.415" fill="#3D6480" width="2.564" height="1.699"/>
<rect x="17.33" y="38.415" fill="#3D6480" width="2.563" height="1.699"/>
<rect x="20.934" y="35.098" fill="#3D6480" width="1.699" height="2.312"/>
<rect x="13.766" y="38.415" fill="#3D6480" width="2.564" height="1.699"/>
<polygon fill="#3D6480" points="20.894,34.098 22.633,34.098 22.633,33.173 22.633,32.449 20.894,32.449 "/>
<rect x="10.202" y="38.415" fill="#3D6480" width="2.563" height="1.699"/>
<polygon fill="#3D6480" points="20.934,38.415 20.894,38.415 20.894,40.114 22.633,40.114 22.633,38.409 20.934,38.409 "/>
<rect x="13.766" y="32.449" fill="#3D6480" width="2.564" height="1.648"/>
<rect x="6.638" y="32.449" fill="#3D6480" width="2.564" height="1.648"/>
<rect x="17.33" y="32.449" fill="#3D6480" width="2.563" height="1.648"/>
<rect x="10.202" y="32.449" fill="#3D6480" width="2.563" height="1.648"/>
<rect x="3.846" y="4.581" fill="#3D6480" width="1.699" height="2.453"/>
<rect x="13.766" y="1.914" fill="#3D6480" width="2.564" height="1.667"/>
<rect x="6.638" y="1.914" fill="#3D6480" width="2.564" height="1.667"/>
<rect x="10.202" y="1.914" fill="#3D6480" width="2.563" height="1.667"/>
<rect x="20.934" y="4.581" fill="#3D6480" width="1.699" height="2.453"/>
<rect x="3.846" y="1.914" fill="#3D6480" width="1.792" height="1.667"/>
<rect x="20.894" y="1.914" fill="#3D6480" width="1.739" height="1.667"/>
<rect x="17.33" y="1.914" fill="#3D6480" width="2.563" height="1.667"/>
<rect x="6.638" y="8.034" fill="#3D6480" width="2.564" height="1.648"/>
<rect x="17.33" y="8.034" fill="#3D6480" width="2.563" height="1.648"/>
<rect x="13.766" y="8.034" fill="#3D6480" width="2.564" height="1.648"/>
<rect x="10.202" y="8.034" fill="#3D6480" width="2.563" height="1.648"/>
<polygon fill="#3D6480" points="5.638,8.034 3.846,8.034 3.846,8.757 3.846,9.683 5.638,9.683 "/>
<polygon fill="#3D6480" points="20.934,14 20.894,14 20.894,15.699 22.633,15.699 22.633,13.993 20.934,13.993 "/>
<rect x="17.33" y="14" fill="#3D6480" width="2.563" height="1.699"/>
<polygon fill="#3D6480" points="20.894,9.683 22.633,9.683 22.633,8.757 22.633,8.034 20.894,8.034 "/>
<rect x="20.934" y="10.683" fill="#3D6480" width="1.699" height="2.311"/>
<rect x="13.766" y="14" fill="#3D6480" width="2.564" height="1.699"/>
<polygon fill="#3D6480" points="5.545,14 5.545,13.993 3.846,13.993 3.846,15.699 5.638,15.699 5.638,14 "/>
<rect x="3.846" y="10.683" fill="#3D6480" width="1.699" height="2.311"/>
<rect x="10.202" y="14" fill="#3D6480" width="2.563" height="1.699"/>
<rect x="6.638" y="14" fill="#3D6480" width="2.564" height="1.699"/>
<path fill="#3D6480" d="M14.39,17.306v7.39h25.186v-7.39H14.39z M16.089,22.996v-3.991h21.787v3.991"/>
</svg>
