<?xml version="1.0" encoding="utf-8"?>
<!-- Generator: Adobe Illustrator 17.0.0, SVG Export Plug-In . SVG Version: 6.00 Build 0)  -->
<!DOCTYPE svg PUBLIC "-//W3C//DTD SVG 1.1//EN" "http://www.w3.org/Graphics/SVG/1.1/DTD/svg11.dtd">
<svg version="1.1" id="Layer_1" xmlns="http://www.w3.org/2000/svg" xmlns:xlink="http://www.w3.org/1999/xlink" x="0px" y="0px"
	 width="42px" height="42px" viewBox="0 0 42 42" enable-background="new 0 0 42 42" xml:space="preserve">
<g>
	<polygon fill="none" points="12.059,23.303 17.653,23.303 14.856,14.631 	"/>
	<path fill="none" d="M30.378,18.156v-1.763c0-1.011-0.564-1.48-1.787-1.48h-3.9v5.076h3.572
		C29.79,19.989,30.378,19.284,30.378,18.156z"/>
	<path fill="#3D6480" d="M37.192,33.494c0.02-0.374-0.003-0.754-0.071-1.137l1.309-0.958l-0.178-0.464
		c-0.078-0.203-0.17-0.397-0.267-0.593l-0.228-0.458l-1.554,0.356c-0.104-0.132-0.223-0.263-0.345-0.394
		c-0.143-0.154-0.28-0.291-0.435-0.423l0.383-1.555l-0.429-0.242c-0.199-0.113-0.4-0.213-0.608-0.301l-0.468-0.2L33.35,28.39
		c-0.366-0.084-0.741-0.127-1.117-0.127l-0.713-1.438l-0.482,0.089c-0.218,0.04-0.438,0.086-0.65,0.147l-0.489,0.143l0.067,1.594
		c-0.316,0.164-0.625,0.373-0.926,0.626l-1.475-0.644l-0.312,0.383c-0.142,0.175-0.272,0.356-0.394,0.544l-0.276,0.425l1.079,1.163
		c-0.148,0.351-0.255,0.712-0.318,1.071l-1.549,0.457l0.005,0.491c0.002,0.221,0.016,0.438,0.041,0.658l0.058,0.509l1.592,0.197
		c0.111,0.37,0.26,0.718,0.447,1.04l-0.908,1.348l0.981,1.057l1.377-0.646l0.145-0.089c0.313,0.204,0.653,0.373,1.018,0.507
		l0.176,1.612l0.491,0.078c0.213,0.033,0.426,0.051,0.642,0.063l0.511,0.031l0.464-1.522c0.405-0.049,0.787-0.141,1.096-0.267
		l1.178,1.119l0.424-0.256c0.188-0.114,0.371-0.244,0.551-0.38l0.409-0.309l-0.625-1.44c0.252-0.271,0.472-0.572,0.667-0.911
		l1.602,0.1l0.162-0.466c0.074-0.211,0.139-0.426,0.19-0.645l0.119-0.501L37.192,33.494z M28.552,33.276c0-1.988,1.611-3.6,3.6-3.6
		s3.601,1.611,3.601,3.6s-1.612,3.6-3.601,3.6S28.552,35.265,28.552,33.276z"/>
	<path fill="#3D6480" d="M29.213,27.06c-0.144,0.016-0.295,0.026-0.458,0.026H24.69v-5.357h3.948c1.551,0,2.256,0.682,2.256,1.927
		v1.646c0,0.03-0.006,0.056-0.007,0.085l2.012-2.012c-0.079-1.53-0.985-2.385-2.287-2.609c1.387-0.518,1.786-1.41,1.786-2.608v-1.81
		c0-2.068-1.222-3.173-3.689-3.173h-6.04v15.651h4.78L29.213,27.06z M24.69,14.913h3.9c1.223,0,1.787,0.47,1.787,1.48v1.763
		c0,1.128-0.588,1.833-2.115,1.833H24.69V14.913z"/>
	<path fill="#3D6480" d="M13.493,13.174L8.206,28.825h2.045l1.269-3.76h6.65l1.293,3.76h2.044l-5.287-15.651H13.493z M12.059,23.303
		l2.797-8.672l2.797,8.672H12.059z"/>
</g>
</svg>
