<?xml version="1.0" encoding="utf-8"?>
<!-- Generator: Adobe Illustrator 17.0.0, SVG Export Plug-In . SVG Version: 6.00 Build 0)  -->
<!DOCTYPE svg PUBLIC "-//W3C//DTD SVG 1.1//EN" "http://www.w3.org/Graphics/SVG/1.1/DTD/svg11.dtd">
<svg version="1.1" id="Layer_1" xmlns="http://www.w3.org/2000/svg" xmlns:xlink="http://www.w3.org/1999/xlink" x="0px" y="0px"
	 width="42px" height="42px" viewBox="0 0 42 42" enable-background="new 0 0 42 42" xml:space="preserve">
<g>
	<path fill="#F7F7F7" d="M34.503,19.343L21,5.842l-1.134,1.134h2.248v5.852c0.536,0.01,1.075,0.03,1.605,0.085
		c0.458,0.057,1.011,0.076,1.011,0.668v0.629c0,0.611-0.076,0.916-0.744,0.916c-0.687,0-1.373-0.113-2.061-0.113h-0.4v3.148
		c0.973,0.4,2.824,1.05,3.264,2.119c0.171,0.457,0.189,1.011,0.189,1.488c0,0.764-0.019,2.004-0.361,2.672
		c-0.573,1.106-1.967,1.336-3.092,1.412v1.183c0,0.345-0.039,0.554-0.42,0.554H20.8c-0.42,0-0.362-0.191-0.362-0.554v-1.163
		c-0.802-0.02-1.623-0.039-2.424-0.135c-0.459-0.057-0.992-0.096-0.992-0.668v-0.648c0-0.592,0.057-0.916,0.725-0.916
		c0.896,0,1.795,0.134,2.691,0.152v-3.454c-0.344-0.152-0.688-0.306-1.031-0.458c-1.928-0.84-2.385-1.393-2.385-3.512
		c0-0.718,0.107-1.348,0.384-1.868h-4.93l-4.979,4.978L21,32.846l4.098-4.098v-2.52h2.52L34.503,19.343z"/>
	<path fill="#F7F7F7" d="M22.613,22.455v-0.362c0-1.031-0.172-1.05-1.088-1.432v2.978C22.402,23.601,22.613,23.333,22.613,22.455z"
		/>
	<path fill="#F7F7F7" d="M19.387,16.062v0.344c0,0.896,0.268,0.992,1.051,1.316v-2.709C19.598,15.013,19.387,15.241,19.387,16.062z"
		/>
	<path fill="#3D6480" d="M7.497,19.343l4.979-4.978h4.93c-0.276,0.521-0.384,1.15-0.384,1.868c0,2.119,0.457,2.672,2.385,3.512
		c0.344,0.152,0.688,0.306,1.031,0.458v3.454c-0.896-0.019-1.795-0.152-2.691-0.152c-0.668,0-0.725,0.324-0.725,0.916v0.648
		c0,0.572,0.533,0.611,0.992,0.668c0.801,0.096,1.622,0.115,2.424,0.135v1.163c0,0.362-0.058,0.554,0.362,0.554h0.306
		c0.381,0,0.42-0.209,0.42-0.554v-1.183c1.125-0.076,2.519-0.306,3.092-1.412c0.343-0.668,0.361-1.908,0.361-2.672
		c0-0.478-0.019-1.031-0.189-1.488c-0.439-1.069-2.291-1.719-3.264-2.119v-3.148h0.4c0.688,0,1.374,0.113,2.061,0.113
		c0.668,0,0.744-0.305,0.744-0.916v-0.629c0-0.592-0.553-0.611-1.011-0.668c-0.531-0.056-1.07-0.076-1.605-0.085V6.976h-2.248
		L21,5.842l13.503,13.501l-6.886,6.886h2.404l6.886-6.886L21,3.438l-3.539,3.538H3.385v7.39h6.686l-4.978,4.978L21,35.25
		l4.098-4.098v-2.404L21,32.846L7.497,19.343z M21.525,20.661c0.916,0.382,1.088,0.4,1.088,1.432v0.362
		c0,0.878-0.211,1.146-1.088,1.184V20.661z M20.438,17.722c-0.783-0.324-1.051-0.42-1.051-1.316v-0.344
		c0-0.82,0.211-1.049,1.051-1.049V17.722z M5.084,12.666V8.675h15.331v3.991H5.084z"/>
	<rect x="5.084" y="8.675" fill="#FFFFFF" width="15.331" height="3.991"/>
	<path fill="#FFFFFF" d="M26.998,38.971H37.84V28.129H26.998V38.971z M28.772,33.296l1.776,1.777l5.521-5.521l1.344,1.344
		l-6.864,6.864l-3.12-3.121L28.772,33.296z"/>
	<path fill="#3D6480" d="M26.197,27.328v12.443h12.443V27.328H26.197z M37.84,38.971H26.998V28.129H37.84V38.971z"/>
	<polygon fill="#3D6480" points="37.412,30.896 36.068,29.553 30.548,35.073 28.772,33.296 27.428,34.64 30.548,37.761 	"/>
</g>
</svg>
