<?xml version="1.0" encoding="utf-8"?>
<!-- Generator: Adobe Illustrator 17.0.0, SVG Export Plug-In . SVG Version: 6.00 Build 0)  -->
<!DOCTYPE svg PUBLIC "-//W3C//DTD SVG 1.1//EN" "http://www.w3.org/Graphics/SVG/1.1/DTD/svg11.dtd">
<svg version="1.1" id="Layer_1" xmlns="http://www.w3.org/2000/svg" xmlns:xlink="http://www.w3.org/1999/xlink" x="0px" y="0px"
	 width="42px" height="42px" viewBox="0 0 42 42" enable-background="new 0 0 42 42" xml:space="preserve">
<g>
	<rect x="4.018" y="21.527" fill="none" width="8.18" height="4.846"/>
	<rect x="29.758" y="21.527" fill="none" width="8.18" height="4.846"/>
	<rect x="4.018" y="15.751" fill="none" width="8.18" height="4.976"/>
	<rect x="29.758" y="15.751" fill="none" width="8.18" height="4.976"/>
	<path fill="#3D6480" d="M21.046,18.772c0.869,0,1.629-0.369,2.273-1.083c0.336-0.373,0.648-0.872,0.942-1.489l0.077-0.163
		l-0.528-0.321l-0.106,0.156c-0.29,0.424-0.541,0.721-0.754,0.901c-0.375,0.313-0.797,0.469-1.274,0.469
		c-0.679,0-1.21-0.272-1.613-0.828c-0.41-0.572-0.614-1.216-0.614-1.939c0-0.804,0.189-1.423,0.549-1.879
		c0.366-0.464,0.799-0.683,1.307-0.683c0.25,0,0.426,0.047,0.55,0.126c0.108,0.074,0.198,0.211,0.258,0.45l0.091,0.366
		c0.068,0.257,0.181,0.475,0.349,0.63c0.172,0.152,0.377,0.233,0.604,0.233c0.281,0,0.528-0.085,0.694-0.287
		c0.141-0.177,0.219-0.378,0.219-0.596c0-0.48-0.286-0.889-0.774-1.232c-0.494-0.356-1.078-0.53-1.747-0.53
		c-1.069,0-1.961,0.401-2.661,1.198c-0.697,0.792-1.045,1.74-1.045,2.833c0,1.107,0.316,2.007,0.968,2.674
		C19.449,18.436,20.197,18.772,21.046,18.772z"/>
	<polygon fill="#3D6480" points="22.088,23.377 25.051,26.34 15.464,26.34 15.464,27.539 25.106,27.539 22.092,30.498 
		22.933,31.354 27.389,26.98 22.937,22.529 	"/>
	<rect x="4.018" y="27.202" fill="#EFF9FE" width="8.18" height="4.373"/>
	<rect x="4.018" y="26.373" fill="#EFF9FE" width="8.18" height="0.028"/>
	<rect x="4.018" y="10.425" fill="#EFF9FE" width="8.18" height="4.525"/>
	<path fill="#3D6480" d="M2.318,33.274h11.58V8.726H2.318V33.274z M4.018,10.425h8.18v4.525h-8.18V10.425z M4.018,15.751h8.18v4.976
		h-8.18V15.751z M4.018,26.373v-4.846h8.18v4.846v0.028h-8.18V26.373z M4.018,27.202h8.18v4.373h-8.18V27.202z"/>
	<rect x="29.758" y="26.373" fill="#EFF9FE" width="8.18" height="0.028"/>
	<rect x="29.758" y="27.202" fill="#EFF9FE" width="8.18" height="4.373"/>
	<rect x="29.758" y="10.425" fill="#EFF9FE" width="8.18" height="4.525"/>
	<path fill="#3D6480" d="M28.058,8.726v24.549h11.58V8.726H28.058z M37.938,31.575h-8.18v-4.373h8.18V31.575z M37.938,26.373v0.028
		h-8.18v-0.028v-4.846h8.18V26.373z M37.938,20.727h-8.18v-4.976h8.18V20.727z M37.938,14.95h-8.18v-4.525h8.18V14.95z"/>
</g>
</svg>
