<?xml version="1.0" encoding="utf-8"?>
<!-- Generator: Adobe Illustrator 17.0.0, SVG Export Plug-In . SVG Version: 6.00 Build 0)  -->
<!DOCTYPE svg PUBLIC "-//W3C//DTD SVG 1.1//EN" "http://www.w3.org/Graphics/SVG/1.1/DTD/svg11.dtd">
<svg version="1.1" id="Layer_1" xmlns="http://www.w3.org/2000/svg" xmlns:xlink="http://www.w3.org/1999/xlink" x="0px" y="0px"
	 width="42px" height="42px" viewBox="0 0 42 42" enable-background="new 0 0 42 42" xml:space="preserve">
<g>
	<path fill="#EFF9FE" d="M14.412,25.919h2.238l1.599-1.661l-0.85,0.003L17.34,8.87H6.11v24.678h2.379v0.85l3.175-3.298v-2.432
		C11.664,26.972,12.717,25.919,14.412,25.919z M8.575,12.866h6.297v0.8H8.575V12.866z M8.575,16.128h6.297v0.8H8.575V16.128z
		 M8.575,19.389h6.297v0.8H8.575V19.389z"/>
	<polygon fill="#3D6480" points="6.11,33.547 6.11,8.87 17.34,8.87 17.399,24.261 18.249,24.258 19.099,24.254 19.033,7.169 
		4.41,7.169 4.41,35.248 8.489,35.248 8.489,34.397 8.489,33.547 	"/>
	<polygon fill="#3D6480" points="27.235,21.846 27.235,20.146 24.883,20.146 27.461,17.615 26.271,16.402 21.635,20.952 
		26.265,25.584 27.467,24.381 24.933,21.846 	"/>
	<rect x="28.481" y="20.146" fill="#3D6480" width="1.784" height="1.7"/>
	<rect x="31.729" y="20.146" fill="#3D6480" width="1.784" height="1.7"/>
	<rect x="34.956" y="20.146" fill="#3D6480" width="1.784" height="1.7"/>
	<polygon fill="#3D6480" points="32.348,10.571 32.348,12.271 34.699,12.271 32.121,14.802 33.311,16.015 37.948,11.463 
		33.317,6.834 32.115,8.036 34.65,10.571 	"/>
	<rect x="29.317" y="10.571" fill="#3D6480" width="1.785" height="1.7"/>
	<rect x="26.069" y="10.571" fill="#3D6480" width="1.785" height="1.7"/>
	<rect x="22.843" y="10.571" fill="#3D6480" width="1.784" height="1.7"/>
	<rect x="8.575" y="12.866" fill="#3D6480" width="6.297" height="0.8"/>
	<rect x="8.575" y="16.128" fill="#3D6480" width="6.297" height="0.8"/>
	<rect x="8.575" y="19.389" fill="#3D6480" width="6.297" height="0.8"/>
	<path fill="#EFF9FE" d="M21.597,26.919h-7.185c-1.127,0-1.748,0.621-1.748,1.748v7.395h2.938v1h-4.629
		c-0.478,0-0.866,0.389-0.866,0.867s0.389,0.866,0.866,0.866h7.405c1.127,0,1.748-0.621,1.748-1.748v-8.859h1v0.464h0.47
		c0.478,0,0.866-0.389,0.866-0.866S22.074,26.919,21.597,26.919z"/>
	<path fill="#3D6480" d="M21.597,25.919H16.65h-2.238c-1.695,0-2.748,1.053-2.748,2.748v2.432v4.963h-0.69
		c-1.029,0-1.866,0.837-1.866,1.867c0,1.029,0.837,1.866,1.866,1.866h7.405c1.695,0,2.748-1.053,2.748-2.748v-7.396h0.47
		c1.029,0,1.866-0.837,1.866-1.866S22.626,25.919,21.597,25.919z M21.597,28.651h-0.47v-0.464h-1v8.859
		c0,1.127-0.621,1.748-1.748,1.748h-7.405c-0.478,0-0.866-0.389-0.866-0.866c0-0.478,0.389-0.867,0.866-0.867h4.629v-1h-2.938
		v-7.395c0-1.127,0.621-1.748,1.748-1.748h7.185c0.478,0,0.866,0.389,0.866,0.866S22.074,28.651,21.597,28.651z"/>
</g>
</svg>
