<?xml version="1.0" encoding="utf-8"?>
<!-- Generator: Adobe Illustrator 17.0.0, SVG Export Plug-In . SVG Version: 6.00 Build 0)  -->
<!DOCTYPE svg PUBLIC "-//W3C//DTD SVG 1.1//EN" "http://www.w3.org/Graphics/SVG/1.1/DTD/svg11.dtd">
<svg version="1.1" id="Layer_1" xmlns="http://www.w3.org/2000/svg" xmlns:xlink="http://www.w3.org/1999/xlink" x="0px" y="0px"
	 width="42px" height="42px" viewBox="0 0 42 42" enable-background="new 0 0 42 42" xml:space="preserve">
<g>
	<path fill="none" d="M32.333,11.86H9.101v2.614h23.232V11.86z M30.998,13.737h-2.369v-1.199h2.369V13.737z"/>
	<polygon fill="#3D6480" points="36.76,33.147 36.76,36.229 31.535,31.004 30.191,32.348 35.418,37.574 32.271,37.575 
		32.272,39.475 38.661,39.472 38.661,33.147 	"/>
	<path fill="#EFF9FE" d="M32.333,15.673H9.101v6.838c3.216,0.327,5.733,3.051,5.733,6.352c0,0.77-0.144,1.505-0.394,2.188h10.783
		l7.111-7.111V15.673z M20.596,24.866h-5.903v-1h5.903V24.866z M26.596,21.484H14.693v-1h11.903V21.484z"/>
	<path fill="#3D6480" d="M14.834,28.863c0-3.301-2.518-6.024-5.733-6.352v-6.838h23.232v8.267l1.2-1.2V10.66H7.901v11.845
		c-3.265,0.28-5.837,3.021-5.837,6.357c0,3.521,2.864,6.386,6.385,6.386c2.276,0,4.272-1.2,5.403-2.998h10.171l1.199-1.199H14.44
		C14.69,30.367,14.834,29.632,14.834,28.863z M9.101,11.86h23.232v2.614H9.101V11.86z M8.449,34.049
		c-2.859,0-5.185-2.327-5.185-5.187s2.326-5.186,5.185-5.186s5.185,2.326,5.185,5.186S11.308,34.049,8.449,34.049z"/>
	<rect x="28.629" y="12.537" fill="#3D6480" width="2.369" height="1.199"/>
	<path fill="#FFFFFF" d="M8.449,23.677c-2.859,0-5.185,2.326-5.185,5.186s2.326,5.187,5.185,5.187s5.185-2.327,5.185-5.187
		S11.308,23.677,8.449,23.677z M9.049,32.095h-1.2v-3.981h1.2V32.095z M9.049,27.038h-1.2v-1.407h1.2V27.038z"/>
	<rect x="7.849" y="28.114" fill="#3D6480" width="1.2" height="3.981"/>
	<rect x="7.849" y="25.631" fill="#3D6480" width="1.2" height="1.407"/>
	<rect x="14.693" y="20.484" fill="#3D6480" width="11.903" height="1"/>
	<rect x="14.693" y="23.866" fill="#3D6480" width="5.903" height="1"/>
</g>
</svg>
