<?xml version="1.0" encoding="utf-8"?>
<!-- Generator: Adobe Illustrator 17.0.0, SVG Export Plug-In . SVG Version: 6.00 Build 0)  -->
<!DOCTYPE svg PUBLIC "-//W3C//DTD SVG 1.1//EN" "http://www.w3.org/Graphics/SVG/1.1/DTD/svg11.dtd">
<svg version="1.1" id="Layer_1" xmlns="http://www.w3.org/2000/svg" xmlns:xlink="http://www.w3.org/1999/xlink" x="0px" y="0px"
	 width="42px" height="42px" viewBox="0 0 42 42" enable-background="new 0 0 42 42" xml:space="preserve">
<g>
	<rect x="28.889" y="15.034" fill="none" width="4.213" height="5.489"/>
	<polygon fill="#3D6480" points="34.857,28.647 33.513,29.991 36.278,32.756 28.461,32.756 31.226,29.991 29.882,28.647 
		24.842,33.688 29.9,38.747 31.243,37.403 28.496,34.656 36.278,34.656 33.531,37.403 34.874,38.747 39.915,33.706 	"/>
	<polygon fill="#EFF9FE" points="28.889,14.233 33.102,14.233 33.102,9.518 16.419,9.518 16.419,13.731 28.889,13.731 	"/>
	<path fill="#3D6480" d="M22.48,27.237h4.709v2.22l3.255-3.255h-1.555v-4.878h4.213v2.22l1.7-1.7V7.819H14.719v5.912H8.806v20.082
		h14.027l1.699-1.699H22.48V27.237z M27.189,26.436H22.48v-5.489h4.709V26.436z M33.102,20.523h-4.213v-5.489h4.213V20.523z
		 M16.419,9.518h16.684v4.715h-4.213v-0.502H16.419V9.518z M10.507,15.43h16.683v4.716H10.507V15.43z M15.389,32.114h-4.883v-4.877
		h4.883V32.114z M15.389,26.436h-4.883v-5.489h4.883V26.436z M21.68,32.114h-5.491v-4.877h5.491V32.114z M21.68,26.436h-5.491
		v-5.489h5.491V26.436z"/>
	<rect x="16.189" y="27.237" fill="#FFFFFF" width="5.491" height="4.877"/>
	<rect x="10.507" y="27.237" fill="#FFFFFF" width="4.883" height="4.877"/>
	<polygon fill="#FFFFFF" points="27.189,27.237 22.48,27.237 22.48,32.114 24.533,32.114 27.189,29.457 	"/>
	<rect x="22.48" y="20.947" fill="#FFFFFF" width="4.709" height="5.489"/>
	<rect x="10.507" y="20.947" fill="#FFFFFF" width="4.883" height="5.489"/>
	<rect x="16.189" y="20.947" fill="#FFFFFF" width="5.491" height="5.489"/>
	<rect x="10.507" y="15.43" fill="#EFF9FE" width="16.683" height="4.716"/>
</g>
</svg>
