<?xml version="1.0" encoding="utf-8"?>
<!-- Generator: Adobe Illustrator 17.0.0, SVG Export Plug-In . SVG Version: 6.00 Build 0)  -->
<!DOCTYPE svg PUBLIC "-//W3C//DTD SVG 1.1//EN" "http://www.w3.org/Graphics/SVG/1.1/DTD/svg11.dtd">
<svg version="1.1" id="Layer_1" xmlns="http://www.w3.org/2000/svg" xmlns:xlink="http://www.w3.org/1999/xlink" x="0px" y="0px"
	 width="42px" height="42px" viewBox="0 0 42 42" enable-background="new 0 0 42 42" xml:space="preserve">
<g>
	<polygon fill="#3D6480" points="27.235,21.638 27.235,19.938 24.883,19.938 27.461,17.407 26.271,16.194 21.635,20.744 
		26.265,25.376 27.467,24.173 24.933,21.638 	"/>
	<rect x="28.481" y="19.938" fill="#3D6480" width="1.784" height="1.7"/>
	<rect x="31.729" y="19.938" fill="#3D6480" width="1.784" height="1.7"/>
	<rect x="34.956" y="19.938" fill="#3D6480" width="1.784" height="1.7"/>
	<polygon fill="#3D6480" points="32.348,10.363 32.348,12.063 34.699,12.063 32.121,14.594 33.311,15.807 37.948,11.255 
		33.317,6.626 32.115,7.828 34.65,10.363 	"/>
	<rect x="29.317" y="10.363" fill="#3D6480" width="1.785" height="1.7"/>
	<rect x="26.069" y="10.363" fill="#3D6480" width="1.785" height="1.7"/>
	<rect x="22.843" y="10.363" fill="#3D6480" width="1.784" height="1.7"/>
	<path fill="#EFF9FE" d="M6.11,8.662v24.678h2.932l4.326-4.326v-0.625H12.2v-1.126h1.168v-1.619l1.316-0.188v1.808h0.434
		l2.273-2.273L17.339,8.662H6.11z M14.872,19.981H8.575v-0.8h6.297V19.981z M14.872,16.719H8.575v-0.8h6.297V16.719z M14.872,13.458
		H8.575v-0.8h6.297V13.458z"/>
	<polygon fill="#3D6480" points="4.41,6.962 4.41,35.04 7.342,35.04 9.042,33.339 6.11,33.339 6.11,8.662 17.339,8.662 
		17.392,24.99 19.086,23.295 19.034,6.962 	"/>
	<rect x="8.575" y="12.658" fill="#3D6480" width="6.297" height="0.8"/>
	<rect x="8.575" y="15.92" fill="#3D6480" width="6.297" height="0.8"/>
	<rect x="8.575" y="19.181" fill="#3D6480" width="6.297" height="0.8"/>
	<path fill="#EC0800" d="M14.685,25.455l-1.316,0.188v1.619H12.2v1.126h1.168v0.625v3.581c0,1.159,0.58,1.596,1.731,1.596
		c0.5,0,0.999-0.097,1.416-0.249l0.068-0.025l-0.177-1.049l-0.093,0.023c-0.418,0.107-0.735,0.16-1.038,0.16
		c-0.543,0-0.592-0.182-0.592-0.646v-4.016h1.771l0.113-1.126h-1.451h-0.434V25.455z"/>
</g>
</svg>
