<?xml version="1.0" encoding="utf-8"?>
<!-- Generator: Adobe Illustrator 17.0.0, SVG Export Plug-In . SVG Version: 6.00 Build 0)  -->
<!DOCTYPE svg PUBLIC "-//W3C//DTD SVG 1.1//EN" "http://www.w3.org/Graphics/SVG/1.1/DTD/svg11.dtd">
<svg version="1.1" id="Layer_1" xmlns="http://www.w3.org/2000/svg" xmlns:xlink="http://www.w3.org/1999/xlink" x="0px" y="0px"
	 width="42px" height="42px" viewBox="0 0 42 42" enable-background="new 0 0 42 42" xml:space="preserve">
<g>
	<rect x="17.212" y="16.135" fill="none" width="7.411" height="7.412"/>
	<rect x="17.212" y="24.348" fill="none" width="7.411" height="6.75"/>
	<rect x="9.653" y="24.348" fill="none" width="6.758" height="6.75"/>
	<rect x="25.424" y="16.135" fill="none" width="6.53" height="7.412"/>
	<rect x="9.653" y="16.135" fill="none" width="6.758" height="7.412"/>
	<polygon fill="#0CB20F" points="37.37,29.554 30.447,36.477 28.116,34.145 26.772,35.489 30.447,39.164 38.714,30.898 	"/>
	<polygon fill="#EFF9FE" points="25.424,15.334 31.954,15.334 31.954,8.797 9.653,8.797 9.653,15.334 16.411,15.334 16.411,15.327 
		17.212,15.327 17.212,15.334 24.623,15.334 24.623,15.327 25.424,15.327 	"/>
	<path fill="#3D6480" d="M33.653,22.62V7.098H7.954v25.699h15.522l1.947-1.948v-6.502h6.502L33.653,22.62z M16.411,31.098H9.653
		v-6.75h6.758V31.098z M16.411,23.547H9.653v-7.412h6.758V23.547z M24.623,31.098h-7.411v-6.75h7.411V31.098z M24.623,23.547h-7.411
		v-7.412h7.411V23.547z M24.623,15.327v0.008h-7.411v-0.008h-0.801v0.008H9.653V8.797h22.301v6.537h-6.53v-0.008H24.623z
		 M25.424,16.135h6.53v7.412h-6.53V16.135z"/>
</g>
</svg>
