<?xml version="1.0" encoding="utf-8"?>
<!-- Generator: Adobe Illustrator 17.0.0, SVG Export Plug-In . SVG Version: 6.00 Build 0)  -->
<!DOCTYPE svg PUBLIC "-//W3C//DTD SVG 1.1//EN" "http://www.w3.org/Graphics/SVG/1.1/DTD/svg11.dtd">
<svg version="1.1" id="Layer_1" xmlns="http://www.w3.org/2000/svg" xmlns:xlink="http://www.w3.org/1999/xlink" x="0px" y="0px"
	 width="42px" height="42px" viewBox="0 0 42 42" enable-background="new 0 0 42 42" xml:space="preserve">
<g>
	<polygon fill="#3D6480" points="36.516,32.635 36.516,35.718 31.292,30.493 29.948,31.837 35.173,37.062 32.029,37.063 
		32.029,38.963 38.416,38.962 38.416,32.635 	"/>
	<path fill="#EFF9FE" d="M24.932,13.053V8.795H11.553v24.411l11.515,0l6.162-6.162l-0.04-13.991H24.932z M17.652,24.783H14.45
		v-0.801h3.201V24.783z M26.353,21.4H14.45V20.6h11.902V21.4z M26.353,18.018H14.45v-0.801h11.902V18.018z"/>
	<polygon fill="#3D6480" points="30.89,13.063 29.181,11.354 26.633,11.354 26.633,8.806 24.922,7.096 9.853,7.096 9.853,34.905 
		21.369,34.905 23.068,33.206 11.553,33.206 11.553,8.795 24.932,8.795 24.932,13.053 29.19,13.053 29.23,27.044 30.925,25.348 	"/>
	<rect x="14.45" y="17.217" fill="#3D6480" width="11.902" height="0.801"/>
	<rect x="14.45" y="20.6" fill="#3D6480" width="11.902" height="0.801"/>
	<rect x="14.45" y="23.982" fill="#3D6480" width="3.201" height="0.801"/>
</g>
</svg>
