<?xml version="1.0" encoding="utf-8"?>
<!-- Generator: Adobe Illustrator 17.0.0, SVG Export Plug-In . SVG Version: 6.00 Build 0)  -->
<!DOCTYPE svg PUBLIC "-//W3C//DTD SVG 1.1//EN" "http://www.w3.org/Graphics/SVG/1.1/DTD/svg11.dtd">
<svg version="1.1" id="Layer_1" xmlns="http://www.w3.org/2000/svg" xmlns:xlink="http://www.w3.org/1999/xlink" x="0px" y="0px"
	 width="42px" height="42px" viewBox="0 0 42 42" enable-background="new 0 0 42 42" xml:space="preserve">
<g>
	<polygon fill="#3D6480" points="12.244,5.574 10.344,5.574 10.344,8.656 5.12,3.432 3.776,4.776 9.001,10.002 5.856,10.002 
		5.857,11.903 12.244,11.9 	"/>
	<path fill="#EFF9FE" d="M30.358,33.322l-0.058-20.152h-4.257V8.912h-7.228l-6.151,6.151v18.26H30.358z M15.561,17.333h11.902v0.801
		H15.561V17.333z M15.561,20.716h11.902v0.801H15.561V20.716z M15.561,24.099h3.201V24.9h-3.201V24.099z"/>
	<polygon fill="#3D6480" points="32.001,13.179 30.292,11.47 27.743,11.47 27.743,8.922 26.033,7.212 20.514,7.212 18.815,8.912 
		26.043,8.912 26.043,13.169 30.301,13.169 30.358,33.322 12.664,33.322 12.664,15.062 10.964,16.762 10.964,35.021 32.063,35.021 	
		"/>
	<rect x="15.561" y="17.333" fill="#3D6480" width="11.902" height="0.801"/>
	<rect x="15.561" y="20.716" fill="#3D6480" width="11.902" height="0.801"/>
	<rect x="15.561" y="24.099" fill="#3D6480" width="3.201" height="0.801"/>
</g>
</svg>
