<?xml version="1.0" encoding="utf-8"?>
<!-- Generator: Adobe Illustrator 17.0.0, SVG Export Plug-In . SVG Version: 6.00 Build 0)  -->
<!DOCTYPE svg PUBLIC "-//W3C//DTD SVG 1.1//EN" "http://www.w3.org/Graphics/SVG/1.1/DTD/svg11.dtd">
<svg version="1.1" id="Layer_1" xmlns="http://www.w3.org/2000/svg" xmlns:xlink="http://www.w3.org/1999/xlink" x="0px" y="0px"
	 width="42px" height="42px" viewBox="0 0 42 42" enable-background="new 0 0 42 42" xml:space="preserve">
<g>
	<rect x="9.963" y="17.386" fill="none" width="6.758" height="7.411"/>
	<rect x="17.52" y="17.386" fill="none" width="7.412" height="7.411"/>
	<rect x="9.963" y="25.597" fill="none" width="6.758" height="6.75"/>
	<polygon fill="#3D6480" points="37.235,32.836 37.235,35.918 32.011,30.693 30.667,32.037 35.892,37.263 32.747,37.263 
		32.748,39.164 39.135,39.161 39.135,32.836 	"/>
	<polygon fill="#EFF9FE" points="25.732,16.585 32.262,16.585 32.262,10.047 9.963,10.047 9.963,16.585 16.72,16.585 16.72,16.576 
		17.52,16.576 17.52,16.585 24.932,16.585 24.932,16.576 25.732,16.576 	"/>
	<path fill="#3D6480" d="M31.477,24.797h-5.745v-7.411h6.53v6.625l1.7-1.7V8.347h-25.7v25.699h13.964l1.699-1.699H17.52v-6.75h7.412
		v5.744l0.8-0.8v-4.944h4.944L31.477,24.797z M16.72,32.347H9.963v-6.75h6.758V32.347z M16.72,24.797H9.963v-7.411h6.758V24.797z
		 M24.932,24.797H17.52v-7.411h7.412V24.797z M24.932,16.576v0.009H17.52v-0.009h-0.8v0.009H9.963v-6.538h22.3v6.538h-6.53v-0.009
		H24.932z"/>
</g>
</svg>
