<?xml version="1.0" encoding="utf-8"?>
<!-- Generator: Adobe Illustrator 17.0.0, SVG Export Plug-In . SVG Version: 6.00 Build 0)  -->
<!DOCTYPE svg PUBLIC "-//W3C//DTD SVG 1.1//EN" "http://www.w3.org/Graphics/SVG/1.1/DTD/svg11.dtd">
<svg version="1.1" id="Layer_1" xmlns="http://www.w3.org/2000/svg" xmlns:xlink="http://www.w3.org/1999/xlink" x="0px" y="0px"
	 width="42px" height="42px" viewBox="0 0 42 42" enable-background="new 0 0 42 42" xml:space="preserve">
<g>
	<rect x="17.431" y="25.876" fill="none" width="7.412" height="6.75"/>
	<rect x="17.431" y="17.664" fill="none" width="7.412" height="7.411"/>
	<rect x="9.874" y="25.876" fill="none" width="6.758" height="6.75"/>
	<rect x="25.643" y="17.664" fill="none" width="6.53" height="7.411"/>
	<rect x="25.643" y="25.876" fill="none" width="6.53" height="6.75"/>
	<polygon fill="#3D6480" points="5.375,12.264 11.763,12.263 11.763,5.936 9.862,5.936 9.862,9.019 4.639,3.795 3.295,5.138 
		8.519,10.364 5.375,10.364 	"/>
	<polygon fill="#EFF9FE" points="16.631,16.854 17.431,16.854 17.431,16.863 24.843,16.863 24.843,16.854 25.643,16.854 
		25.643,16.863 32.173,16.863 32.173,10.325 17.402,10.325 10.864,16.863 16.631,16.863 	"/>
	<path fill="#3D6480" d="M19.101,8.626l-1.699,1.699h14.772v6.538h-6.53v-0.009h-0.8v0.009h-7.412v-0.009h-0.8v0.009h-5.768
		l-0.801,0.801h6.569v7.411H9.874v-7.222l-1.7,1.7v14.772h25.7V8.626H19.101z M16.631,32.626H9.874v-6.75h6.758V32.626z
		 M24.843,32.626h-7.412v-6.75h7.412V32.626z M24.843,25.075h-7.412v-7.411h7.412V25.075z M32.173,32.626h-6.53v-6.75h6.53V32.626z
		 M32.173,25.075h-6.53v-7.411h6.53V25.075z"/>
</g>
</svg>
