<?xml version="1.0" encoding="utf-8"?>
<!-- Generator: Adobe Illustrator 17.0.0, SVG Export Plug-In . SVG Version: 6.00 Build 0)  -->
<!DOCTYPE svg PUBLIC "-//W3C//DTD SVG 1.1//EN" "http://www.w3.org/Graphics/SVG/1.1/DTD/svg11.dtd">
<svg version="1.1" id="Layer_1" xmlns="http://www.w3.org/2000/svg" xmlns:xlink="http://www.w3.org/1999/xlink" x="0px" y="0px"
	 width="42px" height="42px" viewBox="0 0 42 42" enable-background="new 0 0 42 42" xml:space="preserve">
<g>
	<polygon fill="none" points="29.215,30.818 29.215,36.139 34.92,33.481 	"/>
	<path fill="#0CB20F" d="M39.297,33.483l-11.189-5.224l-0.664,0.664l-0.079-0.079v10.197L39.297,33.483z M29.215,30.818l5.705,2.663
		l-5.705,2.657V30.818z"/>
	<polygon fill="#3D6480" points="28.109,28.259 28.646,27.722 26.152,25.228 30.779,25.228 30.779,23.528 23.251,23.528 
		23.251,31.057 24.951,31.057 24.951,26.429 27.366,28.844 27.445,28.923 	"/>
	<polygon fill="#3D6480" points="11.033,25.228 15.66,25.228 7.553,33.335 8.755,34.536 16.861,26.429 16.861,31.057 18.56,31.057 
		18.56,23.528 11.033,23.528 	"/>
	<polygon fill="#3D6480" points="30.779,16.772 26.152,16.772 34.258,8.665 33.057,7.464 24.951,15.571 24.951,10.943 
		23.251,10.943 23.251,18.472 30.779,18.472 	"/>
	<polygon fill="#3D6480" points="16.861,15.571 8.755,7.464 7.553,8.665 15.66,16.772 11.033,16.772 11.033,18.472 18.56,18.472 
		18.56,10.943 16.861,10.943 	"/>
</g>
</svg>
