<?xml version="1.0" encoding="utf-8"?>
<!-- Generator: Adobe Illustrator 17.0.0, SVG Export Plug-In . SVG Version: 6.00 Build 0)  -->
<!DOCTYPE svg PUBLIC "-//W3C//DTD SVG 1.1//EN" "http://www.w3.org/Graphics/SVG/1.1/DTD/svg11.dtd">
<svg version="1.1" id="Layer_1" xmlns="http://www.w3.org/2000/svg" xmlns:xlink="http://www.w3.org/1999/xlink" x="0px" y="0px"
	 width="42px" height="42px" viewBox="0 0 42 42" enable-background="new 0 0 42 42" xml:space="preserve">
<g>
	<rect x="10.306" y="17.822" fill="none" width="6.757" height="7.412"/>
	<rect x="17.863" y="26.034" fill="none" width="7.412" height="6.75"/>
	<rect x="26.075" y="17.822" fill="none" width="6.531" height="7.412"/>
	<rect x="17.863" y="17.822" fill="none" width="7.412" height="7.412"/>
	<rect x="10.306" y="26.034" fill="none" width="6.757" height="6.75"/>
	<path fill="none" d="M26.075,26.034v6.75h6.531v-6.75H26.075z M32.261,31.573l-0.707,0.707l-1.964-1.964l-1.964,1.964l-0.707-0.707
		l1.964-1.964l-1.964-1.964l0.707-0.707l1.964,1.964l1.964-1.964l0.707,0.707l-1.964,1.964L32.261,31.573z"/>
	<polygon fill="#EFF9FE" points="10.306,17.023 17.063,17.023 17.063,17.013 17.863,17.013 17.863,17.023 25.275,17.023 
		25.275,17.013 26.075,17.013 26.075,17.023 32.606,17.023 32.606,10.485 10.306,10.485 	"/>
	<path fill="#3D6480" d="M8.606,8.784v25.7h25.7v-25.7H8.606z M17.863,25.235v-7.412h7.412v7.412H17.863z M25.275,26.034v6.75
		h-7.412v-6.75H25.275z M32.606,17.023h-6.531v-0.009h-0.8v0.009h-7.412v-0.009h-0.8v0.009h-6.757v-6.538h22.3V17.023z
		 M10.306,17.822h6.757v7.412h-6.757V17.822z M26.075,17.822h6.531v7.412h-6.531V17.822z M10.306,26.034h6.757v6.75h-6.757V26.034z
		 M26.075,32.784v-6.75h6.531v6.75H26.075z"/>
	<polygon fill="#EC0800" points="31.554,26.938 29.59,28.902 27.626,26.938 26.919,27.645 28.883,29.609 26.919,31.573 
		27.626,32.28 29.59,30.316 31.554,32.28 32.261,31.573 30.297,29.609 32.261,27.645 	"/>
</g>
</svg>
