<?xml version="1.0" encoding="utf-8"?>
<!-- Generator: Adobe Illustrator 17.0.0, SVG Export Plug-In . SVG Version: 6.00 Build 0)  -->
<!DOCTYPE svg PUBLIC "-//W3C//DTD SVG 1.1//EN" "http://www.w3.org/Graphics/SVG/1.1/DTD/svg11.dtd">
<svg version="1.1" id="Layer_1" xmlns="http://www.w3.org/2000/svg" xmlns:xlink="http://www.w3.org/1999/xlink" x="0px" y="0px"
	 width="42px" height="42px" viewBox="0 0 42 42" enable-background="new 0 0 42 42" xml:space="preserve">
<rect x="16.56" y="35.8" fill="none" width="2.564" height="0.006"/>
<rect x="20.124" y="35.8" fill="none" width="0.039" height="0.006"/>
<rect x="20.124" y="32.488" fill="none" width="0.039" height="2.312"/>
<rect x="12.995" y="35.8" fill="none" width="2.564" height="0.006"/>
<rect x="9.432" y="35.8" fill="none" width="2.563" height="0.006"/>
<rect x="4.775" y="35.8" fill="none" width="0.093" height="0.006"/>
<rect x="5.868" y="35.8" fill="none" width="2.563" height="0.006"/>
<rect x="20.124" y="26.387" fill="none" width="0.039" height="2.453"/>
<rect x="9.432" y="23.714" fill="none" width="2.563" height="0.007"/>
<rect x="20.124" y="23.714" fill="none" width="0.039" height="0.007"/>
<rect x="20.124" y="20.428" fill="none" width="0.039" height="2.286"/>
<rect x="9.432" y="19.425" fill="none" width="2.563" height="0.003"/>
<rect x="16.56" y="19.425" fill="none" width="2.564" height="0.003"/>
<rect x="12.995" y="19.425" fill="none" width="2.564" height="0.003"/>
<rect x="20.142" y="19.407" fill="none" width="0.003" height="0.039"/>
<rect x="4.775" y="19.425" fill="none" width="0.093" height="0.003"/>
<rect x="4.775" y="23.714" fill="none" width="0.093" height="0.007"/>
<rect x="5.868" y="19.425" fill="none" width="2.563" height="0.003"/>
<rect x="4.775" y="26.387" fill="none" width="0.093" height="2.453"/>
<rect x="4.775" y="20.428" fill="none" width="0.093" height="2.286"/>
<rect x="4.775" y="32.488" fill="none" width="0.093" height="2.312"/>
<rect x="5.868" y="23.714" fill="none" width="2.563" height="0.007"/>
<rect x="16.56" y="23.714" fill="none" width="2.564" height="0.007"/>
<rect x="21.863" y="6.013" fill="none" width="15.317" height="3.991"/>
<rect x="12.995" y="23.714" fill="none" width="2.564" height="0.007"/>
<path fill="#3D6480" d="M20.163,4.313v7.39H38.88v-7.39H20.163z M37.18,10.004H21.863V6.013H37.18V10.004z"/>
<path fill="#0CB20F" d="M26.467,21.549l1.344,1.344l1.954-1.953v4.532c0,1.906-1.55,3.456-3.455,3.456h-0.639v1.9h0.639
	c2.953,0,5.355-2.403,5.355-5.356v-4.532l1.954,1.953l1.344-1.344l-4.248-4.247L26.467,21.549z"/>
<rect x="16.56" y="23.721" fill="#3D6480" width="2.564" height="1.666"/>
<rect x="9.432" y="23.721" fill="#3D6480" width="2.563" height="1.666"/>
<rect x="5.868" y="23.721" fill="#3D6480" width="2.563" height="1.666"/>
<rect x="12.995" y="23.721" fill="#3D6480" width="2.564" height="1.666"/>
<rect x="20.163" y="26.387" fill="#3D6480" width="1.7" height="2.453"/>
<polygon fill="#3D6480" points="4.868,23.721 4.775,23.721 4.775,23.714 3.075,23.714 3.075,23.721 3.075,24.568 3.075,25.387 
	4.868,25.387 "/>
<rect x="3.075" y="26.387" fill="#3D6480" width="1.7" height="2.453"/>
<rect x="16.56" y="35.806" fill="#3D6480" width="2.564" height="1.699"/>
<rect x="5.868" y="35.806" fill="#3D6480" width="2.563" height="1.699"/>
<rect x="3.075" y="32.488" fill="#3D6480" width="1.7" height="2.312"/>
<polygon fill="#3D6480" points="20.163,35.806 20.124,35.806 20.124,37.505 21.863,37.505 21.863,35.8 20.163,35.8 "/>
<polygon fill="#3D6480" points="4.775,35.806 4.775,35.8 3.075,35.8 3.075,37.505 4.868,37.505 4.868,35.806 "/>
<rect x="12.995" y="29.84" fill="#3D6480" width="2.564" height="1.648"/>
<rect x="9.432" y="29.84" fill="#3D6480" width="2.563" height="1.648"/>
<rect x="16.56" y="29.84" fill="#3D6480" width="2.564" height="1.648"/>
<rect x="20.163" y="32.488" fill="#3D6480" width="1.7" height="2.312"/>
<rect x="12.995" y="35.806" fill="#3D6480" width="2.564" height="1.699"/>
<rect x="9.432" y="35.806" fill="#3D6480" width="2.563" height="1.699"/>
<polygon fill="#3D6480" points="20.124,29.84 20.124,31.488 21.863,31.488 21.863,30.563 21.863,29.84 "/>
<rect x="5.868" y="29.84" fill="#3D6480" width="2.563" height="1.648"/>
<polygon fill="#3D6480" points="4.868,29.84 3.075,29.84 3.075,30.563 3.075,31.488 4.868,31.488 "/>
<polygon fill="#3D6480" points="20.163,19.425 20.163,19.428 21.863,19.428 21.863,17.726 20.124,17.726 20.124,19.425 "/>
<rect x="16.56" y="17.726" fill="#3D6480" width="2.564" height="1.699"/>
<rect x="12.995" y="17.726" fill="#3D6480" width="2.564" height="1.699"/>
<rect x="20.163" y="20.428" fill="#3D6480" width="1.7" height="2.286"/>
<polygon fill="#3D6480" points="20.163,23.721 20.124,23.721 20.124,25.387 21.863,25.387 21.863,24.568 21.863,23.721 
	21.863,23.714 20.163,23.714 "/>
<rect x="3.075" y="20.428" fill="#3D6480" width="1.7" height="2.286"/>
<polygon fill="#3D6480" points="4.775,19.425 4.868,19.425 4.868,17.726 3.075,17.726 3.075,19.428 4.775,19.428 "/>
<rect x="5.868" y="17.726" fill="#3D6480" width="2.563" height="1.699"/>
<rect x="9.432" y="17.726" fill="#3D6480" width="2.563" height="1.699"/>
</svg>
