<?xml version="1.0" encoding="utf-8"?>
<!-- Generator: Adobe Illustrator 17.0.0, SVG Export Plug-In . SVG Version: 6.00 Build 0)  -->
<!DOCTYPE svg PUBLIC "-//W3C//DTD SVG 1.1//EN" "http://www.w3.org/Graphics/SVG/1.1/DTD/svg11.dtd">
<svg version="1.1" id="Layer_1" xmlns="http://www.w3.org/2000/svg" xmlns:xlink="http://www.w3.org/1999/xlink" x="0px" y="0px"
	 width="42px" height="42px" viewBox="0 0 42 42" enable-background="new 0 0 42 42" xml:space="preserve">
<g>
	<path fill="#3D6480" d="M37.241,20.207v-0.126c-0.045,0-0.085-0.002-0.13-0.002l-2.277-2.252l-0.703,0.711l1.532,1.515
		c-7.698-0.29-9.64-2.938-9.64-12.059V3.151H3.821v7.39h20.562c0.037,0.719,0.097,1.397,0.177,2.046H3.821v7.391h22.202v-2.509
		c1.029,1.74,2.632,2.944,5.085,3.629c-2.268,0.899-3.958,2.398-5.085,4.508v-3.583H3.821v7.391H24.72
		c-0.127,0.649-0.227,1.329-0.292,2.046H3.821v7.39h22.202v-4.981c0-7.813,3.024-11.578,9.753-12.038l-1.645,1.626l0.703,0.711
		l3.206-3.171L37.241,20.207z M24.323,18.278H5.521v-3.992h18.802V18.278z M24.591,8.401h-0.268v0.44H5.521v-0.44H5.294V6.94h0.227
		v-2.09h18.802v2.09h0.268V8.401z M24.323,27.715H5.521v-3.992h18.802V27.715z M24.591,36.711h-0.268v0.439H5.521v-0.439H5.294
		V35.25h0.227v-2.091h18.802v2.091h0.268V36.711z"/>
	<path fill="#EFF9FE" d="M22.607,6.94h1.715v-2.09H5.521v2.09h1.755v1.461H5.521v0.44h18.802v-0.44h-1.715V6.94z M9.429,6.826H7.444
		V5.365h1.984V6.826z M11.605,8.401H9.622V6.94h1.983V8.401z M13.766,6.826h-1.983V5.365h1.983V6.826z M15.935,8.401H13.95V6.94
		h1.984V8.401z M18.103,6.826h-1.984V5.365h1.984V6.826z M20.263,8.401h-1.984V6.94h1.984V8.401z M22.439,6.826h-1.983V5.365h1.983
		V6.826z"/>
	<rect x="11.782" y="5.365" fill="#EC0800" width="1.983" height="1.461"/>
	<rect x="7.444" y="5.365" fill="#EC0800" width="1.984" height="1.461"/>
	<rect x="16.118" y="5.365" fill="#EC0800" width="1.984" height="1.461"/>
	<rect x="9.622" y="6.94" fill="#EC0800" width="1.983" height="1.461"/>
	<polygon fill="#EC0800" points="7.276,6.94 5.521,6.94 5.294,6.94 5.294,8.401 5.521,8.401 7.276,8.401 	"/>
	<rect x="13.95" y="6.94" fill="#EC0800" width="1.984" height="1.461"/>
	<rect x="20.456" y="5.365" fill="#EC0800" width="1.983" height="1.461"/>
	<rect x="18.278" y="6.94" fill="#EC0800" width="1.984" height="1.461"/>
	<polygon fill="#EC0800" points="22.607,6.94 22.607,8.401 24.323,8.401 24.591,8.401 24.591,6.94 24.323,6.94 	"/>
	<path fill="#EFF9FE" d="M22.607,35.25h1.715v-2.091H5.521v2.091h1.755v1.461H5.521v0.439h18.802v-0.439h-1.715V35.25z
		 M9.429,35.136H7.444v-1.461h1.984V35.136z M11.605,36.711H9.622V35.25h1.983V36.711z M13.766,35.136h-1.983v-1.461h1.983V35.136z
		 M15.935,36.711H13.95V35.25h1.984V36.711z M18.103,35.136h-1.984v-1.461h1.984V35.136z M20.263,36.711h-1.984V35.25h1.984V36.711z
		 M22.439,35.136h-1.983v-1.461h1.983V35.136z"/>
	<rect x="11.782" y="33.675" fill="#EC0800" width="1.983" height="1.461"/>
	<rect x="7.444" y="33.675" fill="#EC0800" width="1.984" height="1.461"/>
	<rect x="16.118" y="33.675" fill="#EC0800" width="1.984" height="1.461"/>
	<rect x="9.622" y="35.25" fill="#EC0800" width="1.983" height="1.461"/>
	<polygon fill="#EC0800" points="7.276,35.25 5.521,35.25 5.294,35.25 5.294,36.711 5.521,36.711 7.276,36.711 	"/>
	<rect x="13.95" y="35.25" fill="#EC0800" width="1.984" height="1.461"/>
	<rect x="20.456" y="33.675" fill="#EC0800" width="1.983" height="1.461"/>
	<rect x="18.278" y="35.25" fill="#EC0800" width="1.984" height="1.461"/>
	<polygon fill="#EC0800" points="22.607,35.25 22.607,36.711 24.323,36.711 24.591,36.711 24.591,35.25 24.323,35.25 	"/>
	<rect x="5.521" y="14.286" fill="#EFF9FE" width="18.802" height="3.992"/>
	<rect x="5.521" y="23.723" fill="#EFF9FE" width="18.802" height="3.992"/>
</g>
</svg>
