<?xml version="1.0" encoding="utf-8"?>
<!-- Generator: Adobe Illustrator 17.0.0, SVG Export Plug-In . SVG Version: 6.00 Build 0)  -->
<!DOCTYPE svg PUBLIC "-//W3C//DTD SVG 1.1//EN" "http://www.w3.org/Graphics/SVG/1.1/DTD/svg11.dtd">
<svg version="1.1" id="Layer_1" xmlns="http://www.w3.org/2000/svg" xmlns:xlink="http://www.w3.org/1999/xlink" x="0px" y="0px"
	 width="42px" height="42px" viewBox="0 0 42 42" enable-background="new 0 0 42 42" xml:space="preserve">
<g>
	<path fill="#0CB20F" d="M20.974,32.55c-5.731,0-10.487-4.199-11.385-9.681l3.145,2.042l1.035-1.594L7.982,19.56l-3.758,5.787
		l1.594,1.035l1.933-2.977C8.89,29.676,14.379,34.45,20.974,34.45c5.037,0,9.613-2.797,11.944-7.3l-1.687-0.873
		C29.228,30.146,25.297,32.55,20.974,32.55z"/>
	<path fill="#0CB20F" d="M36.182,15.62l-1.975,3.042C33.095,12.359,27.591,7.55,20.974,7.55c-4.818,0-9.296,2.602-11.688,6.79
		l1.65,0.941c2.054-3.597,5.9-5.831,10.037-5.831c5.719,0,10.467,4.181,11.379,9.645l-3.087-2.004l-1.035,1.594l5.787,3.758
		l3.758-5.787L36.182,15.62z"/>
</g>
</svg>
