<?xml version="1.0" encoding="utf-8"?>
<!-- Generator: Adobe Illustrator 17.0.0, SVG Export Plug-In . SVG Version: 6.00 Build 0)  -->
<!DOCTYPE svg PUBLIC "-//W3C//DTD SVG 1.1//EN" "http://www.w3.org/Graphics/SVG/1.1/DTD/svg11.dtd">
<svg version="1.1" id="Layer_1" xmlns="http://www.w3.org/2000/svg" xmlns:xlink="http://www.w3.org/1999/xlink" x="0px" y="0px"
	 width="42px" height="42px" viewBox="0 0 42 42" enable-background="new 0 0 42 42" xml:space="preserve">
<g>
	<path fill="#3D6480" d="M37.241,20.207v-0.126c-0.045,0-0.085-0.002-0.13-0.002l-2.277-2.252l-0.703,0.711l1.532,1.515
		c-7.698-0.29-9.64-2.939-9.64-12.06V3.15H3.821v7.39h20.562c0.295,5.708,1.795,9.18,6.726,10.557
		c-3.986,1.58-6.192,5.012-6.681,10.363H3.821v7.39h22.202v-4.982c0-7.812,3.024-11.577,9.752-12.037l-1.644,1.625l0.703,0.711
		l3.206-3.17L37.241,20.207z M24.591,8.4h-0.268v0.44H5.521V8.4H5.294V6.94h0.227V4.85h18.802V6.94h0.268V8.4z M24.591,36.71h-0.268
		v0.44H5.521v-0.44H5.294v-1.46h0.227v-2.091h18.802v2.091h0.268V36.71z"/>
	<path fill="#EFF9FE" d="M22.607,6.94h1.715V4.85H5.521V6.94h1.755V8.4H5.521v0.44h18.802V8.4h-1.715V6.94z M9.429,6.825H7.444
		v-1.46h1.984V6.825z M11.605,8.4H9.622V6.94h1.983V8.4z M13.766,6.825h-1.983v-1.46h1.983V6.825z M15.935,8.4H13.95V6.94h1.984V8.4
		z M18.103,6.825h-1.984v-1.46h1.984V6.825z M20.263,8.4h-1.984V6.94h1.984V8.4z M22.439,6.825h-1.983v-1.46h1.983V6.825z"/>
	<rect x="11.782" y="5.365" fill="#EC0800" width="1.983" height="1.46"/>
	<rect x="7.444" y="5.365" fill="#EC0800" width="1.984" height="1.46"/>
	<rect x="16.118" y="5.365" fill="#EC0800" width="1.984" height="1.46"/>
	<rect x="9.622" y="6.94" fill="#EC0800" width="1.983" height="1.46"/>
	<polygon fill="#EC0800" points="7.276,6.94 5.521,6.94 5.294,6.94 5.294,8.4 5.521,8.4 7.276,8.4 	"/>
	<rect x="13.95" y="6.94" fill="#EC0800" width="1.984" height="1.46"/>
	<rect x="20.456" y="5.365" fill="#EC0800" width="1.983" height="1.46"/>
	<rect x="18.278" y="6.94" fill="#EC0800" width="1.984" height="1.46"/>
	<polygon fill="#EC0800" points="22.607,6.94 22.607,8.4 24.323,8.4 24.591,8.4 24.591,6.94 24.323,6.94 	"/>
	<polygon fill="#EC0800" points="9.627,13.489 9.627,29.143 10.828,29.143 10.828,21.916 19.014,21.916 19.014,29.143 
		20.214,29.143 20.214,13.489 19.014,13.489 19.014,20.717 10.828,20.717 10.828,13.489 	"/>
	<path fill="#EFF9FE" d="M22.607,35.25h1.715v-2.091H5.521v2.091h1.755v1.46H5.521v0.44h18.802v-0.44h-1.715V35.25z M9.429,35.135
		H7.444v-1.46h1.984V35.135z M11.605,36.71H9.622v-1.46h1.983V36.71z M13.766,35.135h-1.983v-1.46h1.983V35.135z M15.935,36.71
		H13.95v-1.46h1.984V36.71z M18.103,35.135h-1.984v-1.46h1.984V35.135z M20.263,36.71h-1.984v-1.46h1.984V36.71z M22.439,35.135
		h-1.983v-1.46h1.983V35.135z"/>
	<rect x="11.782" y="33.675" fill="#EC0800" width="1.983" height="1.46"/>
	<rect x="7.444" y="33.675" fill="#EC0800" width="1.984" height="1.46"/>
	<rect x="16.118" y="33.675" fill="#EC0800" width="1.984" height="1.46"/>
	<rect x="9.622" y="35.25" fill="#EC0800" width="1.983" height="1.46"/>
	<polygon fill="#EC0800" points="7.276,35.25 5.521,35.25 5.294,35.25 5.294,36.71 5.521,36.71 7.276,36.71 	"/>
	<rect x="13.95" y="35.25" fill="#EC0800" width="1.984" height="1.46"/>
	<rect x="20.456" y="33.675" fill="#EC0800" width="1.983" height="1.46"/>
	<rect x="18.278" y="35.25" fill="#EC0800" width="1.984" height="1.46"/>
	<polygon fill="#EC0800" points="22.607,35.25 22.607,36.71 24.323,36.71 24.591,36.71 24.591,35.25 24.323,35.25 	"/>
</g>
</svg>
