<?xml version="1.0" encoding="utf-8"?>
<!-- Generator: Adobe Illustrator 17.0.0, SVG Export Plug-In . SVG Version: 6.00 Build 0)  -->
<!DOCTYPE svg PUBLIC "-//W3C//DTD SVG 1.1//EN" "http://www.w3.org/Graphics/SVG/1.1/DTD/svg11.dtd">
<svg version="1.1" id="Layer_1" xmlns="http://www.w3.org/2000/svg" xmlns:xlink="http://www.w3.org/1999/xlink" x="0px" y="0px"
	 width="42px" height="42px" viewBox="0 0 42 42" enable-background="new 0 0 42 42" xml:space="preserve">
<g>
	<rect x="21.987" y="25.816" fill="none" width="3.5" height="6.757"/>
	<rect x="16.088" y="17.307" fill="none" width="3.499" height="8.01"/>
	<rect x="16.088" y="25.816" fill="none" width="3.499" height="6.757"/>
	<rect x="21.987" y="17.307" fill="none" width="3.5" height="8.01"/>
	<rect x="6.548" y="8.296" fill="#3D6480" width="27.949" height="0.5"/>
	<path fill="#3D6480" d="M27.888,15.647h-2.4v1.159h-3.5V9.374h-2.4v7.433h-3.499v-1.561h-2.4v1.561h-7.14v0.5h7.14v8.01h-7.14v0.5
		h7.14v6.757h-3.499v-6.318h-2.4v6.318h-1.24v0.5h27.949v-0.5h-0.709v-6.318h-2.4v6.318h-3.5v-6.757h6.609v-0.5h-6.609v-8.01h6.609
		v-0.5h-6.609V15.647z M16.088,17.307h3.499v8.01h-3.499V17.307z M16.088,25.816h3.499v6.757h-3.499V25.816z M25.487,32.573h-3.5
		v-6.757h3.5V32.573z M25.487,25.316h-3.5v-8.01h3.5V25.316z"/>
</g>
</svg>
