<?xml version="1.0" encoding="utf-8"?>
<!-- Generator: Adobe Illustrator 17.0.0, SVG Export Plug-In . SVG Version: 6.00 Build 0)  -->
<!DOCTYPE svg PUBLIC "-//W3C//DTD SVG 1.1//EN" "http://www.w3.org/Graphics/SVG/1.1/DTD/svg11.dtd">
<svg version="1.1" id="Layer_1" xmlns="http://www.w3.org/2000/svg" xmlns:xlink="http://www.w3.org/1999/xlink" x="0px" y="0px"
	 width="42px" height="42px" viewBox="0 0 42 42" enable-background="new 0 0 42 42" xml:space="preserve">
<g>
	<path fill="#EFF9FE" d="M15.069,30.21h1.122c0.182,0,0.328-0.146,0.328-0.328v-0.506c0-0.181-0.146-0.327-0.328-0.327h-1.122
		c-0.181,0-0.328,0.146-0.328,0.327v0.506C14.741,30.064,14.889,30.21,15.069,30.21z"/>
	<path fill="#EFF9FE" d="M25.531,8.795h-8.58v13.353h-1.7V18.87h-3.099v14.335h17.634V13.053h-4.255V8.795z M16.932,30.725h-2.604
		v-5.54h2.604V30.725z"/>
	<path fill="#3D6480" d="M29.779,11.354h-2.548V8.806l-1.71-1.71H15.25v10.075h-4.799v17.733h21.034V13.06L29.779,11.354z
		 M29.786,33.205H12.152V18.87h3.099v3.277h1.7V8.795h8.58v4.258h4.255V33.205z"/>
	<path fill="#3D6480" d="M14.328,30.725h2.604v-5.54h-2.604V30.725z M14.741,29.376c0-0.181,0.147-0.327,0.328-0.327h1.122
		c0.182,0,0.328,0.146,0.328,0.327v0.506c0,0.182-0.146,0.328-0.328,0.328h-1.122c-0.181,0-0.328-0.146-0.328-0.328V29.376z"/>
</g>
</svg>
