<?xml version="1.0" encoding="utf-8"?>
<!-- Generator: Adobe Illustrator 17.0.0, SVG Export Plug-In . SVG Version: 6.00 Build 0)  -->
<!DOCTYPE svg PUBLIC "-//W3C//DTD SVG 1.1//EN" "http://www.w3.org/Graphics/SVG/1.1/DTD/svg11.dtd">
<svg version="1.1" id="Layer_1" xmlns="http://www.w3.org/2000/svg" xmlns:xlink="http://www.w3.org/1999/xlink" x="0px" y="0px"
	 width="42px" height="42px" viewBox="0 0 42 42" enable-background="new 0 0 42 42" xml:space="preserve">
<g>
	<polygon fill="#0CB20F" points="37.559,29.467 30.636,36.389 28.305,34.058 26.961,35.401 30.636,39.076 38.902,30.811 	"/>
	<path fill="#FFECCE" d="M8.868,28.468c-0.753-0.176-1.366-0.384-1.846-0.623v4.978c0,0.589,2.837,1.734,8.04,1.734h0
		c2.225,0,4.28-0.218,5.788-0.614c1.713-0.45,2.088-0.961,2.088-1.12v-4.949c-2.221,1.115-6.732,1.19-7.868,1.19
		C12.721,29.064,10.518,28.853,8.868,28.468z"/>
	<path fill="#FFECCE" d="M16.188,22.917c-0.482,0.015-0.879,0.02-1.117,0.02c-2.35,0-4.553-0.212-6.203-0.597
		c-0.753-0.176-1.367-0.384-1.846-0.623v5.218c1.054,0.713,3.932,1.33,8.049,1.33c2.264,0,4.362-0.202,5.907-0.567
		c0.885-0.21,1.553-0.472,1.961-0.753v-3.893h-6.75V22.917z"/>
	<path fill="#FFECCE" d="M15.07,22.137c0.381,0,0.748-0.014,1.117-0.025v-4.982c-0.481,0.015-0.879,0.02-1.116,0.02
		c-2.35,0-4.553-0.212-6.203-0.597c-0.753-0.176-1.367-0.384-1.847-0.623l0,4.877C8.076,21.52,10.954,22.137,15.07,22.137z"/>
	<path fill="#FFECCE" d="M16.188,16.332v-3.518c-0.417-0.015-0.846-0.025-1.299-0.025c-4.965,0-7.72,0.952-7.867,1.484v0.746
		c1.054,0.713,3.932,1.33,8.05,1.33C15.456,16.35,15.825,16.342,16.188,16.332z"/>
	<path fill="#EFF9FE" d="M17.888,5.948v15.404h17.694L35.525,5.948H17.888z M23.224,17.847h-2.439v-0.801h2.439V17.847z
		 M23.224,14.065h-2.439v-0.801h2.439V14.065z M23.224,10.284h-2.439V9.483h2.439V10.284z M32.687,17.847h-6.642v-0.801h6.642
		V17.847z M32.687,14.065h-6.642v-0.801h6.642V14.065z M32.687,10.284h-6.642V9.483h6.642V10.284z"/>
	<path fill="#3D6480" d="M37.218,4.249H16.188v6.864c-0.514-0.017-0.966-0.024-1.299-0.024c-2.876,0-9.567,0.311-9.567,3.18v18.555
		c0,3.269,8.113,3.435,9.74,3.435h0c2.367,0,4.576-0.238,6.22-0.67c2.227-0.585,3.356-1.516,3.356-2.765v-9.771h12.649L37.218,4.249
		z M7.021,14.273c0.147-0.532,2.902-1.484,7.867-1.484c0.453,0,0.882,0.01,1.299,0.025v3.518c-0.362,0.011-0.732,0.018-1.116,0.018
		c-4.117,0-6.996-0.617-8.05-1.33V14.273z M8.868,16.553c1.65,0.385,3.854,0.597,6.203,0.597c0.238,0,0.635-0.005,1.116-0.02v4.982
		c-0.37,0.011-0.736,0.025-1.117,0.025c-4.116,0-6.995-0.617-8.049-1.33l0-4.877C7.501,16.168,8.115,16.377,8.868,16.553z
		 M22.938,32.823c0,0.159-0.375,0.67-2.088,1.12c-1.508,0.396-3.563,0.614-5.788,0.614h0c-5.202,0-8.04-1.146-8.04-1.734v-4.978
		c0.479,0.239,1.093,0.447,1.846,0.623c1.65,0.385,3.853,0.597,6.203,0.597c1.135,0,5.647-0.075,7.868-1.19V32.823z M22.938,26.945
		c-0.408,0.281-1.076,0.543-1.961,0.753c-1.544,0.365-3.643,0.567-5.907,0.567c-4.116,0-6.994-0.617-8.049-1.33v-5.218
		c0.479,0.239,1.093,0.447,1.846,0.623c1.65,0.385,3.853,0.597,6.203,0.597c0.238,0,0.635-0.005,1.117-0.02v0.135h6.75V26.945z
		 M17.888,21.353V5.948h17.637l0.057,15.404H17.888z"/>
	<rect x="20.785" y="9.483" fill="#0CB20F" width="2.439" height="0.801"/>
	<rect x="26.044" y="9.483" fill="#3D6480" width="6.642" height="0.801"/>
	<rect x="20.785" y="13.265" fill="#0CB20F" width="2.439" height="0.801"/>
	<rect x="26.044" y="13.265" fill="#3D6480" width="6.642" height="0.801"/>
	<rect x="20.785" y="17.046" fill="#0CB20F" width="2.439" height="0.801"/>
	<rect x="26.044" y="17.046" fill="#3D6480" width="6.642" height="0.801"/>
</g>
</svg>
