<?xml version="1.0" encoding="utf-8"?>
<!-- Generator: Adobe Illustrator 17.0.0, SVG Export Plug-In . SVG Version: 6.00 Build 0)  -->
<!DOCTYPE svg PUBLIC "-//W3C//DTD SVG 1.1//EN" "http://www.w3.org/Graphics/SVG/1.1/DTD/svg11.dtd">
<svg version="1.1" id="Layer_1" xmlns="http://www.w3.org/2000/svg" xmlns:xlink="http://www.w3.org/1999/xlink" x="0px" y="0px"
	 width="42px" height="42px" viewBox="0 0 42 42" enable-background="new 0 0 42 42" xml:space="preserve">
<g>
	<path fill="none" d="M32.338,34.507c0.308-0.414,0.482-0.908,0.482-1.434c0-0.046-0.011-0.09-0.013-0.135l-0.728,0.728l0.247-1.191
		l0.315-0.315c0,0,0-0.001-0.001-0.002l-0.671,0.671c-0.456,0.457-0.708,1.064-0.708,1.71c0,0.042,0.01,0.082,0.012,0.123l0.61-0.61
		L32.338,34.507z"/>
	<path fill="none" d="M34.218,31.527c0.196,0.485,0.302,1.007,0.302,1.546c0,1.101-0.429,2.135-1.207,2.912l-0.321,0.322l0.3,0.633
		l-0.185,0.185c0.88,0.356,1.963,0.193,2.658-0.499l1.841-1.843c0.457-0.457,0.709-1.063,0.709-1.71c0-0.646-0.252-1.253-0.708-1.71
		l-0.376-0.376c-0.456-0.456-1.063-0.708-1.71-0.708c-0.601,0-1.164,0.226-1.608,0.625l0.464,0.465L34.218,31.527z"/>
	<path fill="none" d="M28.953,32.511l2.031-2.031c-0.299-0.129-0.623-0.2-0.958-0.2c-0.646,0-1.253,0.252-1.71,0.708l-1.842,1.842
		c-0.456,0.457-0.708,1.064-0.708,1.71c0,0.646,0.252,1.254,0.708,1.711l0.376,0.376c0.836,0.835,2.241,0.896,3.175,0.197
		l-0.938,0.024l0.772-0.773c-0.193-0.482-0.299-1-0.299-1.536c0-1.068,0.412-2.07,1.148-2.84l-1.283,1.283L28.953,32.511z"/>
	<path fill="none" d="M31.44,35.455l0.671-0.672c0.025-0.026,0.044-0.056,0.068-0.083l-0.743,0.742
		C31.438,35.447,31.439,35.451,31.44,35.455z"/>
	<path fill="#EFF9FE" d="M17.118,28.438c1.329-0.296,2.702-0.458,4.092-0.482v-5.804h-5.251
		C16.001,24.351,16.394,26.476,17.118,28.438z"/>
	<path fill="#EFF9FE" d="M17.468,14.304c1.219,0.269,2.472,0.42,3.742,0.446v-4.706c-0.418,0.014-0.831,0.051-1.237,0.108
		C18.95,11.411,18.111,12.806,17.468,14.304z"/>
	<path fill="#EFF9FE" d="M15.96,21.351h5.25v-5.8c-1.378-0.027-2.738-0.196-4.059-0.498C16.407,17.027,16.006,19.156,15.96,21.351z"
		/>
	<path fill="#EFF9FE" d="M18.76,10.388c-1.892,0.475-3.6,1.407-5.003,2.677c0.939,0.429,1.916,0.783,2.921,1.052
		C17.234,12.796,17.921,11.54,18.76,10.388z"/>
	<path fill="#EFF9FE" d="M15.158,22.151H9.903c0.101,2.962,1.299,5.645,3.208,7.657c1.026-0.484,2.105-0.877,3.223-1.175
		C15.596,26.607,15.201,24.415,15.158,22.151z"/>
	<path fill="#EFF9FE" d="M16.364,14.859c-1.113-0.303-2.195-0.699-3.229-1.193c-1.923,2.015-3.131,4.709-3.232,7.684h5.256
		C15.205,19.092,15.608,16.897,16.364,14.859z"/>
	<path fill="#EFF9FE" d="M13.723,30.405c1.394,1.271,3.09,2.208,4.972,2.692c-0.828-1.142-1.507-2.394-2.054-3.717
		C15.632,29.642,14.655,29.984,13.723,30.405z"/>
	<path fill="#EFF9FE" d="M19.906,33.34c0.428,0.063,0.862,0.103,1.304,0.118v-4.702c-1.285,0.024-2.553,0.17-3.783,0.435
		C18.062,30.697,18.892,32.093,19.906,33.34z"/>
	<circle fill="#EFF9FE" cx="30.292" cy="15.199" r="1.12"/>
	<circle fill="#EFF9FE" cx="28.436" cy="9.193" r="1.12"/>
	<circle fill="#EFF9FE" cx="27.386" cy="21.793" r="1.12"/>
	<path fill="#FF9C04" d="M38.809,30.162l-0.376-0.376c-0.777-0.778-1.812-1.207-2.912-1.207c-1.027,0-1.989,0.387-2.747,1.072
		c-0.003-0.003-0.006-0.005-0.009-0.008l-2.056,2.056c-0.737,0.77-1.148,1.771-1.148,2.84c0,0.536,0.105,1.054,0.299,1.536
		l1.414-1.413c-0.002-0.041-0.012-0.081-0.012-0.123c0-0.646,0.252-1.253,0.708-1.71l0.671-0.671c0,0,0,0.001,0.001,0.002
		l1.263-1.263l0.008,0.008c0.444-0.398,1.007-0.625,1.608-0.625c0.646,0,1.254,0.252,1.71,0.708l0.376,0.376
		c0.456,0.457,0.708,1.064,0.708,1.71c0,0.646-0.252,1.253-0.709,1.71l-1.841,1.843c-0.694,0.691-1.777,0.855-2.658,0.499
		l-1.26,1.26c0.654,0.418,1.412,0.649,2.208,0.649c1.1,0,2.134-0.429,2.912-1.207l1.841-1.842c0.778-0.777,1.207-1.812,1.207-2.912
		C40.015,31.974,39.586,30.94,38.809,30.162z"/>
	<path fill="#FF9C04" d="M32.992,36.307l0.321-0.322c0.778-0.777,1.207-1.812,1.207-2.912c0-0.539-0.106-1.061-0.302-1.546
		l-1.411,1.411c0.002,0.046,0.013,0.089,0.013,0.135c0,0.526-0.174,1.02-0.482,1.434l0.017,0.017l-0.176,0.176
		c-0.024,0.027-0.043,0.057-0.068,0.083l-0.671,0.672c-0.001-0.004-0.002-0.008-0.003-0.012l-1.379,1.379l-0.032,0.001
		c-0.934,0.699-2.339,0.638-3.175-0.197l-0.376-0.376c-0.456-0.457-0.708-1.064-0.708-1.711c0-0.646,0.252-1.253,0.708-1.71
		l1.842-1.842c0.457-0.456,1.064-0.708,1.71-0.708c0.335,0,0.659,0.071,0.958,0.2l1.25-1.25c-0.654-0.419-1.413-0.65-2.208-0.65
		c-1.1,0-2.134,0.429-2.911,1.207l-1.842,1.842c-0.778,0.777-1.207,1.812-1.207,2.911c0,1.101,0.429,2.135,1.206,2.912l0.376,0.376
		c0.777,0.778,1.812,1.207,2.912,1.207c1.027,0,1.989-0.387,2.747-1.071c0.003,0.003,0.006,0.005,0.009,0.007l1.672-1.671
		L32.992,36.307z"/>
	<polygon fill="#FFFFFF" points="28.953,32.511 29.426,32.982 30.709,31.699 32.765,29.643 33.193,29.215 32.891,28.573 
		32.235,29.229 30.984,30.479 	"/>
	<polygon fill="#FFFFFF" points="33.292,36.94 32.992,36.307 32.988,36.299 31.316,37.97 30.424,38.862 30.896,39.335 
		31.847,38.385 33.107,37.125 	"/>
	<polygon fill="#FFFFFF" points="32.079,33.666 32.807,32.938 34.218,31.527 34.376,31.369 33.912,30.904 33.904,30.897 
		32.641,32.16 32.326,32.475 	"/>
	<polygon fill="#FFFFFF" points="30.025,36.823 30.058,36.822 31.437,35.443 32.18,34.701 32.355,34.524 32.338,34.507 
		31.883,34.052 31.273,34.662 29.859,36.075 29.087,36.848 	"/>
	<path fill="#3D6480" d="M27.386,23.713c1.059,0,1.921-0.861,1.921-1.92s-0.862-1.921-1.921-1.921c-0.906,0-1.663,0.633-1.863,1.479
		h-3.512v-5.787h6.397c0.171,0.885,0.95,1.556,1.884,1.556c1.059,0,1.92-0.862,1.92-1.921s-0.861-1.92-1.92-1.92
		c-0.908,0-1.668,0.636-1.866,1.484h-6.415v-4.739h4.702c0.311,0.642,0.963,1.09,1.723,1.09c1.059,0,1.921-0.862,1.921-1.921
		s-0.862-1.92-1.921-1.92c-0.745,0-1.384,0.431-1.703,1.052H21.61c-7.403,0-13.427,6.023-13.427,13.427
		c0,6.959,5.329,12.672,12.117,13.334l1.71-1.582V22.151h3.491C25.671,23.039,26.45,23.713,27.386,23.713z M27.386,20.673
		c0.618,0,1.12,0.502,1.12,1.12c0,0.617-0.502,1.119-1.12,1.119c-0.617,0-1.119-0.502-1.119-1.119
		C26.267,21.175,26.769,20.673,27.386,20.673z M30.292,14.079c0.617,0,1.119,0.502,1.119,1.119c0,0.618-0.502,1.12-1.119,1.12
		c-0.618,0-1.12-0.502-1.12-1.12C29.172,14.581,29.674,14.079,30.292,14.079z M28.436,8.073c0.618,0,1.12,0.502,1.12,1.119
		c0,0.618-0.502,1.12-1.12,1.12c-0.617,0-1.119-0.502-1.119-1.12C27.316,8.575,27.818,8.073,28.436,8.073z M18.76,10.388
		c-0.839,1.152-1.526,2.408-2.082,3.729c-1.006-0.268-1.982-0.622-2.921-1.052C15.161,11.796,16.868,10.863,18.76,10.388z
		 M13.136,13.667c1.033,0.493,2.115,0.889,3.229,1.193c-0.756,2.038-1.16,4.233-1.205,6.491H9.903
		C10.004,18.376,11.212,15.682,13.136,13.667z M9.903,22.151h5.255c0.042,2.264,0.438,4.455,1.176,6.482
		c-1.118,0.298-2.197,0.69-3.223,1.175C11.203,27.796,10.004,25.113,9.903,22.151z M13.723,30.405
		c0.933-0.421,1.909-0.762,2.918-1.025c0.546,1.323,1.226,2.575,2.054,3.717C16.813,32.613,15.116,31.676,13.723,30.405z
		 M21.21,33.458c-0.441-0.015-0.876-0.055-1.304-0.118c-1.015-1.248-1.845-2.643-2.479-4.149c1.23-0.265,2.498-0.411,3.783-0.435
		V33.458z M21.21,27.956c-1.39,0.025-2.763,0.186-4.092,0.482c-0.724-1.962-1.117-4.087-1.159-6.287h5.251V27.956z M21.21,21.351
		h-5.25c0.046-2.195,0.447-4.324,1.191-6.298c1.321,0.302,2.681,0.471,4.059,0.498V21.351z M21.21,14.75
		c-1.27-0.026-2.522-0.177-3.742-0.446c0.643-1.498,1.482-2.893,2.505-4.152c0.406-0.057,0.818-0.093,1.237-0.108V14.75z"/>
</g>
</svg>
