<?xml version="1.0" encoding="utf-8"?>
<!-- Generator: Adobe Illustrator 17.0.0, SVG Export Plug-In . SVG Version: 6.00 Build 0)  -->
<!DOCTYPE svg PUBLIC "-//W3C//DTD SVG 1.1//EN" "http://www.w3.org/Graphics/SVG/1.1/DTD/svg11.dtd">
<svg version="1.1" id="Layer_1" xmlns="http://www.w3.org/2000/svg" xmlns:xlink="http://www.w3.org/1999/xlink" x="0px" y="0px"
	 width="42px" height="42px" viewBox="0 0 42 42" enable-background="new 0 0 42 42" xml:space="preserve">
<g>
	<path fill="none" d="M32.9,28.115c-2.693,0-4.875,2.183-4.875,4.875s2.182,4.875,4.875,4.875c2.692,0,4.875-2.183,4.875-4.875
		S35.592,28.115,32.9,28.115z M34.269,35.525l-2.203-2.202V29.95h1.5v2.752l1.764,1.763L34.269,35.525z"/>
	<polygon fill="#3D6480" points="33.566,29.95 32.066,29.95 32.066,33.323 34.269,35.525 35.329,34.464 33.566,32.701 	"/>
	<path fill="#3D6480" d="M32.9,26.615c-3.522,0-6.375,2.854-6.375,6.375c0,3.521,2.853,6.375,6.375,6.375
		c3.521,0,6.375-2.854,6.375-6.375C39.275,29.468,36.42,26.615,32.9,26.615z M32.9,37.865c-2.693,0-4.875-2.183-4.875-4.875
		s2.182-4.875,4.875-4.875c2.692,0,4.875,2.183,4.875,4.875S35.592,37.865,32.9,37.865z"/>
	<path fill="#EFF9FE" d="M30.063,13.417h-4.257V9.159H12.427v24.41h10.277l7.396-7.395L30.063,13.417z M18.525,25.148h-3.201v-0.801
		h3.201V25.148z M27.226,21.765H15.323v-0.801h11.902V21.765z M27.226,18.382H15.323v-0.801h11.902V18.382z"/>
	<polygon fill="#3D6480" points="12.427,9.159 25.805,9.159 25.805,13.417 30.063,13.417 30.099,26.174 31.795,24.479 
		31.763,13.427 30.054,11.718 27.506,11.718 27.506,9.17 25.795,7.46 10.726,7.46 10.726,35.269 21.005,35.269 22.704,33.57 
		12.427,33.57 	"/>
	<rect x="15.323" y="17.581" fill="#3D6480" width="11.902" height="0.801"/>
	<rect x="15.323" y="20.964" fill="#3D6480" width="11.902" height="0.801"/>
	<rect x="15.323" y="24.347" fill="#3D6480" width="3.201" height="0.801"/>
</g>
</svg>
