<?xml version="1.0" encoding="utf-8"?>
<!-- Generator: Adobe Illustrator 17.0.0, SVG Export Plug-In . SVG Version: 6.00 Build 0)  -->
<!DOCTYPE svg PUBLIC "-//W3C//DTD SVG 1.1//EN" "http://www.w3.org/Graphics/SVG/1.1/DTD/svg11.dtd">
<svg version="1.1" id="Layer_1" xmlns="http://www.w3.org/2000/svg" xmlns:xlink="http://www.w3.org/1999/xlink" x="0px" y="0px"
	 width="42px" height="42px" viewBox="0 0 42 42" enable-background="new 0 0 42 42" xml:space="preserve">
<g>
	<path fill="#EFF9FE" d="M15.158,22.151H9.903c0.101,2.962,1.299,5.645,3.208,7.657c1.026-0.484,2.105-0.877,3.223-1.175
		C15.596,26.607,15.201,24.415,15.158,22.151z"/>
	<path fill="#EFF9FE" d="M17.468,14.304c1.219,0.269,2.472,0.42,3.742,0.446v-4.706c-0.418,0.014-0.831,0.051-1.237,0.108
		C18.95,11.411,18.111,12.806,17.468,14.304z"/>
	<path fill="#EFF9FE" d="M19.906,33.34c0.428,0.063,0.862,0.103,1.304,0.118v-4.702c-1.285,0.024-2.553,0.17-3.783,0.435
		C18.062,30.697,18.892,32.093,19.906,33.34z"/>
	<path fill="#EFF9FE" d="M13.723,30.405c1.394,1.271,3.09,2.208,4.972,2.692c-0.828-1.142-1.507-2.394-2.054-3.717
		C15.632,29.642,14.655,29.984,13.723,30.405z"/>
	<path fill="#EFF9FE" d="M16.364,14.859c-1.113-0.303-2.195-0.699-3.229-1.193c-1.923,2.015-3.131,4.709-3.232,7.684h5.256
		C15.205,19.092,15.608,16.897,16.364,14.859z"/>
	<path fill="#EFF9FE" d="M18.76,10.388c-1.892,0.475-3.6,1.407-5.003,2.677c0.939,0.429,1.916,0.783,2.921,1.052
		C17.234,12.796,17.921,11.54,18.76,10.388z"/>
	<path fill="#EFF9FE" d="M17.118,28.438c1.329-0.296,2.702-0.458,4.092-0.482v-5.804h-5.251
		C16.001,24.351,16.394,26.476,17.118,28.438z"/>
	<path fill="#EFF9FE" d="M15.96,21.351h5.25v-5.8c-1.378-0.027-2.738-0.196-4.059-0.498C16.407,17.027,16.006,19.156,15.96,21.351z"
		/>
	<circle fill="#EFF9FE" cx="30.292" cy="15.199" r="1.12"/>
	<circle fill="#EFF9FE" cx="28.436" cy="9.193" r="1.12"/>
	<circle fill="#EFF9FE" cx="27.386" cy="21.793" r="1.12"/>
	<path fill="#3D6480" d="M29.307,21.793c0-1.059-0.862-1.921-1.921-1.921c-0.906,0-1.663,0.633-1.863,1.479h-3.512v-5.787h6.397
		c0.171,0.885,0.95,1.556,1.884,1.556c1.059,0,1.92-0.862,1.92-1.921s-0.861-1.92-1.92-1.92c-0.908,0-1.668,0.636-1.866,1.484
		h-6.415v-4.739h4.702c0.311,0.642,0.963,1.09,1.723,1.09c1.059,0,1.921-0.862,1.921-1.921s-0.862-1.92-1.921-1.92
		c-0.745,0-1.384,0.431-1.703,1.052H21.61c-7.403,0-13.427,6.023-13.427,13.427s6.023,13.427,13.427,13.427h0.4V22.151h3.491
		c0.169,0.888,0.948,1.562,1.884,1.562C28.444,23.713,29.307,22.852,29.307,21.793z M30.292,14.079c0.617,0,1.119,0.502,1.119,1.119
		c0,0.618-0.502,1.12-1.119,1.12c-0.618,0-1.12-0.502-1.12-1.12C29.172,14.581,29.674,14.079,30.292,14.079z M28.436,8.073
		c0.618,0,1.12,0.502,1.12,1.119c0,0.618-0.502,1.12-1.12,1.12c-0.617,0-1.119-0.502-1.119-1.12
		C27.316,8.575,27.818,8.073,28.436,8.073z M18.76,10.388c-0.839,1.152-1.526,2.408-2.082,3.729
		c-1.006-0.268-1.982-0.622-2.921-1.052C15.161,11.796,16.868,10.863,18.76,10.388z M13.136,13.667
		c1.033,0.493,2.115,0.889,3.229,1.193c-0.756,2.038-1.16,4.233-1.205,6.491H9.903C10.004,18.376,11.212,15.682,13.136,13.667z
		 M9.903,22.151h5.255c0.042,2.264,0.438,4.455,1.176,6.482c-1.118,0.298-2.197,0.69-3.223,1.175
		C11.203,27.796,10.004,25.113,9.903,22.151z M13.723,30.405c0.933-0.421,1.909-0.762,2.918-1.025
		c0.546,1.323,1.226,2.575,2.054,3.717C16.813,32.613,15.116,31.676,13.723,30.405z M21.21,33.458
		c-0.441-0.015-0.876-0.055-1.304-0.118c-1.015-1.248-1.845-2.643-2.479-4.149c1.23-0.265,2.498-0.411,3.783-0.435V33.458z
		 M21.21,27.956c-1.39,0.025-2.763,0.186-4.092,0.482c-0.724-1.962-1.117-4.087-1.159-6.287h5.251V27.956z M21.21,21.351h-5.25
		c0.046-2.195,0.447-4.324,1.191-6.298c1.321,0.302,2.681,0.471,4.059,0.498V21.351z M21.21,14.75
		c-1.27-0.026-2.522-0.177-3.742-0.446c0.643-1.498,1.482-2.893,2.505-4.152c0.406-0.057,0.818-0.093,1.237-0.108V14.75z
		 M26.267,21.793c0-0.618,0.502-1.12,1.119-1.12c0.618,0,1.12,0.502,1.12,1.12c0,0.617-0.502,1.119-1.12,1.119
		C26.769,22.912,26.267,22.41,26.267,21.793z"/>
	<polygon fill="#0CB20F" points="37.559,29.468 30.636,36.39 28.305,34.058 26.961,35.401 30.636,39.077 38.902,30.812 	"/>
</g>
</svg>
