<?xml version="1.0" encoding="utf-8"?>
<!-- Generator: Adobe Illustrator 17.0.0, SVG Export Plug-In . SVG Version: 6.00 Build 0)  -->
<!DOCTYPE svg PUBLIC "-//W3C//DTD SVG 1.1//EN" "http://www.w3.org/Graphics/SVG/1.1/DTD/svg11.dtd">
<svg version="1.1" id="Layer_1" xmlns="http://www.w3.org/2000/svg" xmlns:xlink="http://www.w3.org/1999/xlink" x="0px" y="0px"
	 width="42px" height="42px" viewBox="0 0 42 42" enable-background="new 0 0 42 42" xml:space="preserve">
<g>
	<path fill="#EFF9FE" d="M18.378,14.303c1.22,0.269,2.473,0.42,3.743,0.446v-4.705c-0.419,0.014-0.831,0.051-1.238,0.108
		C19.86,11.411,19.021,12.805,18.378,14.303z"/>
	<path fill="#EFF9FE" d="M19.67,10.389c-1.892,0.475-3.599,1.408-5.002,2.678c0.939,0.429,1.915,0.783,2.921,1.051
		C18.145,12.796,18.831,11.541,19.67,10.389z"/>
	<path fill="#EFF9FE" d="M16.87,21.351h5.251V15.55c-1.378-0.027-2.738-0.196-4.06-0.498C17.317,17.026,16.916,19.156,16.87,21.351z
		"/>
	<path fill="#EFF9FE" d="M18.337,29.192c0.634,1.506,1.464,2.901,2.479,4.148c0.409,0.06,0.824,0.099,1.246,0.115l0.059-0.055
		v-4.644C20.836,28.78,19.568,28.927,18.337,29.192z"/>
	<path fill="#EFF9FE" d="M17.275,14.858c-1.113-0.303-2.195-0.699-3.228-1.192c-1.923,2.015-3.131,4.709-3.232,7.684h5.255
		C16.115,19.092,16.518,16.897,17.275,14.858z"/>
	<path fill="#EFF9FE" d="M16.068,22.151h-5.254c0.101,2.962,1.299,5.644,3.207,7.656c1.026-0.484,2.105-0.876,3.222-1.174
		C16.506,26.606,16.111,24.415,16.068,22.151z"/>
	<path fill="#EFF9FE" d="M14.633,30.404c1.393,1.271,3.089,2.208,4.971,2.692c-0.828-1.142-1.507-2.393-2.053-3.716
		C16.542,29.643,15.565,29.984,14.633,30.404z"/>
	<path fill="#EFF9FE" d="M18.028,28.438c1.329-0.296,2.702-0.458,4.093-0.482v-5.804h-5.252
		C16.912,24.351,17.304,26.476,18.028,28.438z"/>
	<path fill="#3D6480" d="M30.217,21.793c0-1.059-0.861-1.921-1.92-1.921c-0.906,0-1.663,0.633-1.864,1.479h-3.511v-5.788h6.397
		c0.171,0.885,0.949,1.557,1.883,1.557c1.059,0,1.921-0.862,1.921-1.921s-0.862-1.921-1.921-1.921c-0.908,0-1.667,0.636-1.865,1.484
		h-6.415v-4.738h4.701c0.311,0.642,0.964,1.09,1.724,1.09c1.059,0,1.92-0.862,1.92-1.921s-0.861-1.921-1.92-1.921
		c-0.745,0-1.385,0.431-1.704,1.053h-5.122c-7.403,0-13.427,6.023-13.427,13.427c0,6.68,4.909,12.22,11.305,13.242l1.663-1.538
		c-0.422-0.017-0.837-0.055-1.246-0.115c-1.014-1.248-1.844-2.643-2.479-4.148c1.23-0.265,2.499-0.411,3.784-0.435V33.4l0.801-0.741
		V22.151h3.49c0.169,0.888,0.949,1.562,1.885,1.562C29.355,23.713,30.217,22.852,30.217,21.793z M31.202,14.078
		c0.618,0,1.12,0.502,1.12,1.12s-0.502,1.12-1.12,1.12c-0.617,0-1.119-0.502-1.119-1.12S30.585,14.078,31.202,14.078z M29.347,8.072
		c0.617,0,1.119,0.502,1.119,1.12s-0.502,1.12-1.119,1.12c-0.618,0-1.12-0.502-1.12-1.12S28.729,8.072,29.347,8.072z M19.67,10.389
		c-0.839,1.152-1.525,2.407-2.081,3.729c-1.006-0.268-1.982-0.622-2.921-1.051C16.071,11.796,17.778,10.864,19.67,10.389z
		 M14.047,13.667c1.033,0.493,2.115,0.888,3.228,1.192c-0.757,2.039-1.16,4.233-1.205,6.492h-5.255
		C10.916,18.376,12.124,15.682,14.047,13.667z M10.814,22.151h5.254c0.042,2.264,0.438,4.455,1.175,6.482
		c-1.117,0.298-2.196,0.69-3.222,1.174C12.113,27.795,10.915,25.113,10.814,22.151z M19.604,33.096
		c-1.881-0.484-3.578-1.421-4.971-2.692c0.932-0.42,1.909-0.761,2.917-1.024C18.097,30.703,18.776,31.955,19.604,33.096z
		 M22.121,27.956c-1.391,0.025-2.764,0.186-4.093,0.482c-0.724-1.962-1.117-4.087-1.159-6.287h5.252V27.956z M22.121,21.351H16.87
		c0.046-2.195,0.447-4.324,1.191-6.299c1.321,0.302,2.681,0.471,4.06,0.498V21.351z M22.121,14.749
		c-1.27-0.026-2.523-0.177-3.743-0.446c0.643-1.498,1.482-2.893,2.505-4.152c0.407-0.057,0.819-0.094,1.238-0.108V14.749z
		 M27.177,21.793c0-0.618,0.502-1.12,1.12-1.12c0.617,0,1.119,0.502,1.119,1.12c0,0.617-0.502,1.119-1.119,1.119
		C27.679,22.912,27.177,22.41,27.177,21.793z"/>
	<circle fill="#EFF9FE" cx="31.202" cy="15.198" r="1.12"/>
	<circle fill="#EFF9FE" cx="29.347" cy="9.192" r="1.12"/>
	<circle fill="#EFF9FE" cx="28.296" cy="21.793" r="1.12"/>
	<path fill="#FFFFFF" d="M32.072,28.435c-1.851,0-3.356,1.506-3.356,3.356c0,1.851,1.506,3.356,3.356,3.356
		c1.852,0,3.357-1.506,3.357-3.356C35.43,29.94,33.924,28.435,32.072,28.435z"/>
	<path fill="#3D6480" d="M36.09,34.516c0.529-0.778,0.84-1.715,0.84-2.725c0-2.678-2.179-4.856-4.857-4.856
		c-2.678,0-4.856,2.179-4.856,4.856s2.179,4.856,4.856,4.856c0.983,0,1.895-0.298,2.661-0.801l3.051,3.051l1.344-1.344L36.09,34.516
		z M32.072,35.147c-1.851,0-3.356-1.506-3.356-3.356c0-1.851,1.506-3.356,3.356-3.356c1.852,0,3.357,1.506,3.357,3.356
		C35.43,33.642,33.924,35.147,32.072,35.147z"/>
</g>
</svg>
