<?xml version="1.0" encoding="utf-8"?>
<!-- Generator: Adobe Illustrator 17.0.0, SVG Export Plug-In . SVG Version: 6.00 Build 0)  -->
<!DOCTYPE svg PUBLIC "-//W3C//DTD SVG 1.1//EN" "http://www.w3.org/Graphics/SVG/1.1/DTD/svg11.dtd">
<svg version="1.1" id="Layer_1" xmlns="http://www.w3.org/2000/svg" xmlns:xlink="http://www.w3.org/1999/xlink" x="0px" y="0px"
	 width="42px" height="42px" viewBox="0 0 42 42" enable-background="new 0 0 42 42" xml:space="preserve">
<g>
	<path fill="none" d="M32.624,28.278c-2.691,0-4.875,2.183-4.875,4.875c0,2.692,2.184,4.875,4.875,4.875
		c2.693,0,4.876-2.183,4.876-4.875C37.5,30.461,35.317,28.278,32.624,28.278z M33.993,35.69l-2.202-2.203v-3.373h1.5v2.752
		l1.763,1.764L33.993,35.69z"/>
	<polygon fill="#3D6480" points="33.291,30.113 31.791,30.113 31.791,33.486 33.993,35.69 35.054,34.629 33.291,32.865 	"/>
	<path fill="#3D6480" d="M32.624,26.778c-3.521,0-6.375,2.854-6.375,6.375c0,3.521,2.854,6.375,6.375,6.375
		c3.521,0,6.376-2.854,6.376-6.375C39,29.633,36.146,26.778,32.624,26.778z M32.624,38.028c-2.691,0-4.875-2.183-4.875-4.875
		c0-2.692,2.184-4.875,4.875-4.875c2.693,0,4.876,2.183,4.876,4.875C37.5,35.846,35.317,38.028,32.624,38.028z"/>
	<path fill="#EFF9FE" d="M29.003,25.613v-13.69h1.7v1.117h1.128c1.067,0,1.936-0.869,1.936-1.937c0-1.067-0.869-1.936-1.936-1.936
		H17.18c-2.408,0-3.734,1.326-3.734,3.734v15.251h6.162v1.7h-9.439c-1.067,0-1.936,0.869-1.936,1.936
		c0,1.068,0.869,1.937,1.936,1.937h12.909l1.22-1.22C24.533,29.466,26.382,26.877,29.003,25.613z M17.046,22.633
		c-0.517,0-1.14-0.097-1.606-0.285l-0.086-0.034l0.153-0.766l0.118,0.037c0.472,0.147,0.967,0.225,1.437,0.225
		c0.799,0,0.909-0.186,0.909-0.711c0-0.171,0-0.302-0.018-0.407c-0.016-0.095-0.043-0.152-0.09-0.198
		c-0.109-0.107-0.342-0.18-0.896-0.306c-1.319-0.295-1.51-0.581-1.51-1.729c0-0.992,0.443-1.471,1.795-1.471
		c0.467,0,1.021,0.064,1.451,0.178l0.091,0.023l-0.076,0.798l-0.124-0.028c-0.41-0.093-0.9-0.147-1.326-0.147
		c-0.823,0-0.908,0.145-0.908,0.671c0,0.175-0.001,0.308,0.015,0.413c0.015,0.095,0.04,0.149,0.083,0.193
		c0.104,0.103,0.322,0.171,0.861,0.306c1.439,0.357,1.555,0.601,1.555,1.689C18.873,22.063,18.553,22.633,17.046,22.633z
		 M23.748,20.925c0,0.764-0.397,1.427-1.328,1.632l0.432,0.977l-0.813,0.369l-0.563-1.282c-1.232-0.088-1.76-0.812-1.76-1.695
		v-2.229c0-0.945,0.602-1.708,2.016-1.708c1.415,0,2.016,0.763,2.016,1.708V20.925z M24.751,17.067h0.902v4.655h2.284v0.831h-3.187
		V17.067z"/>
	<path fill="#EFF9FE" d="M21.732,17.812c-0.786,0-1.113,0.33-1.113,0.9v2.197c0,0.57,0.327,0.9,1.113,0.9s1.113-0.33,1.113-0.9
		v-2.197C22.846,18.142,22.519,17.812,21.732,17.812z"/>
	<path fill="#3D6480" d="M8.232,31.788c0-1.067,0.869-1.936,1.936-1.936h9.439v-1.7h-6.162V12.901c0-2.408,1.326-3.734,3.734-3.734
		h14.652c1.067,0,1.936,0.869,1.936,1.936c0,1.068-0.869,1.937-1.936,1.937h-1.128v-1.117h-1.7v13.69
		c0.538-0.259,1.106-0.464,1.7-0.604V14.74h1.128c2.005,0,3.636-1.632,3.636-3.637c0-2.005-1.631-3.636-3.636-3.636H17.18
		c-3.352,0-5.434,2.083-5.434,5.434v15.251h-1.578c-2.005,0-3.636,1.631-3.636,3.636c0,2.005,1.631,3.637,3.636,3.637h11.208
		l1.7-1.7H10.168C9.101,33.725,8.232,32.857,8.232,31.788z"/>
	<path fill="#3D6480" d="M17.318,19.395c-0.539-0.135-0.758-0.202-0.861-0.306c-0.043-0.044-0.068-0.099-0.083-0.193
		c-0.016-0.106-0.015-0.238-0.015-0.413c0-0.526,0.085-0.671,0.908-0.671c0.426,0,0.916,0.055,1.326,0.147l0.124,0.028l0.076-0.798
		l-0.091-0.023c-0.43-0.114-0.984-0.178-1.451-0.178c-1.352,0-1.795,0.479-1.795,1.471c0,1.148,0.19,1.434,1.51,1.729
		c0.555,0.126,0.787,0.198,0.896,0.306c0.047,0.046,0.074,0.103,0.09,0.198c0.018,0.105,0.018,0.236,0.018,0.407
		c0,0.525-0.11,0.711-0.909,0.711c-0.47,0-0.965-0.077-1.437-0.225l-0.118-0.037l-0.153,0.766l0.086,0.034
		c0.467,0.188,1.09,0.285,1.606,0.285c1.507,0,1.827-0.57,1.827-1.55C18.873,19.995,18.758,19.752,17.318,19.395z"/>
	<path fill="#3D6480" d="M21.732,16.988c-1.414,0-2.016,0.763-2.016,1.708v2.229c0,0.884,0.527,1.607,1.76,1.695l0.563,1.282
		l0.813-0.369l-0.432-0.977c0.931-0.205,1.328-0.868,1.328-1.632v-2.229C23.748,17.751,23.147,16.988,21.732,16.988z M22.846,20.909
		c0,0.57-0.327,0.9-1.113,0.9s-1.113-0.33-1.113-0.9v-2.197c0-0.57,0.327-0.9,1.113-0.9s1.113,0.33,1.113,0.9V20.909z"/>
	<polygon fill="#3D6480" points="27.938,21.723 25.653,21.723 25.653,17.067 24.751,17.067 24.751,22.554 27.938,22.554 	"/>
</g>
</svg>
