<?xml version="1.0" encoding="utf-8"?>
<!-- Generator: Adobe Illustrator 17.0.0, SVG Export Plug-In . SVG Version: 6.00 Build 0)  -->
<!DOCTYPE svg PUBLIC "-//W3C//DTD SVG 1.1//EN" "http://www.w3.org/Graphics/SVG/1.1/DTD/svg11.dtd">
<svg version="1.1" id="Layer_1" xmlns="http://www.w3.org/2000/svg" xmlns:xlink="http://www.w3.org/1999/xlink" x="0px" y="0px"
	 width="42px" height="42px" viewBox="0 0 42 42" enable-background="new 0 0 42 42" xml:space="preserve">
<g>
	<polygon fill="#3D6480" points="5.534,11.804 11.924,11.802 11.924,5.475 10.023,5.475 10.023,8.559 4.798,3.334 3.454,4.678 
		8.68,9.903 5.534,9.903 	"/>
	<path fill="#EFF9FE" d="M21.367,21.796c-0.624,0-0.827,0.237-0.827,0.732v2.048c0,0.496,0.203,0.732,0.827,0.732
		s0.827-0.236,0.827-0.732v-2.048C22.195,22.033,21.991,21.796,21.367,21.796z"/>
	<path fill="#EFF9FE" d="M23.521,27.196c-0.624,0-0.827,0.237-0.827,0.733v2.047c0,0.496,0.203,0.732,0.827,0.732
		c0.624,0,0.827-0.236,0.827-0.732v-2.047C24.347,27.433,24.144,27.196,23.521,27.196z"/>
	<path fill="#EFF9FE" d="M21.367,14.507c0.624,0,0.827-0.237,0.827-0.732v-2.048c0-0.495-0.203-0.732-0.827-0.732
		s-0.827,0.237-0.827,0.732v2.048C20.54,14.269,20.743,14.507,21.367,14.507z"/>
	<path fill="#EFF9FE" d="M15.378,14.507c0.624,0,0.827-0.237,0.827-0.732v-2.048c0-0.069-0.015-0.122-0.023-0.181l-1.631,1.631
		v0.598C14.55,14.269,14.754,14.507,15.378,14.507z"/>
	<path fill="#EFF9FE" d="M15.378,25.308c0.624,0,0.827-0.236,0.827-0.732v-2.048c0-0.495-0.203-0.732-0.827-0.732
		s-0.828,0.237-0.828,0.732v2.048C14.55,25.072,14.754,25.308,15.378,25.308z"/>
	<path fill="#EFF9FE" d="M17.531,19.908c0.624,0,0.827-0.238,0.827-0.733v-2.048c0-0.495-0.203-0.731-0.827-0.731
		s-0.828,0.236-0.828,0.731v2.048C16.703,19.67,16.907,19.908,17.531,19.908z"/>
	<path fill="#EFF9FE" d="M23.521,19.908c0.624,0,0.827-0.238,0.827-0.733v-2.048c0-0.495-0.203-0.731-0.827-0.731
		c-0.624,0-0.827,0.236-0.827,0.731v2.048C22.694,19.67,22.897,19.908,23.521,19.908z"/>
	<path fill="#EFF9FE" d="M30.037,33.222L29.979,13.07h-4.257V8.812h-6.808l-2.266,2.266c0.084,0.17,0.126,0.367,0.126,0.586v2.171
		c0,0.678-0.346,1.173-1.396,1.173c-1.052,0-1.397-0.495-1.397-1.173v-0.089l-1.637,1.637v17.839H30.037z M18.928,30.038
		c0,0.679-0.346,1.173-1.397,1.173c-1.051,0-1.397-0.494-1.397-1.173v-2.17c0-0.678,0.346-1.174,1.397-1.174
		c1.051,0,1.397,0.496,1.397,1.174V30.038z M18.204,21.863c-0.11,0.057-0.306,0.14-0.345,0.14c-0.055,0-0.085-0.017-0.091-0.051
		c-0.004-0.02-0.008-0.04-0.012-0.061c-0.014-0.067-0.028-0.137-0.028-0.199c0-0.06,0.036-0.098,0.134-0.141
		c0.185-0.083,0.569-0.258,0.815-0.258c0.141,0,0.162,0.107,0.162,0.173v4.162c0,0.132-0.043,0.182-0.162,0.182h-0.18
		c-0.177,0-0.229-0.024-0.229-0.182v-3.797L18.204,21.863z M24.918,30.038c0,0.679-0.346,1.173-1.397,1.173
		s-1.397-0.494-1.397-1.173v-2.17c0-0.678,0.346-1.174,1.397-1.174s1.397,0.496,1.397,1.174V30.038z M21.367,25.81
		c-1.051,0-1.397-0.495-1.397-1.173v-2.17c0-0.679,0.346-1.174,1.397-1.174s1.397,0.495,1.397,1.174v2.17
		C22.764,25.315,22.419,25.81,21.367,25.81z M24.194,21.863c-0.111,0.057-0.305,0.14-0.346,0.14c-0.055,0-0.085-0.017-0.091-0.051
		c-0.003-0.02-0.008-0.04-0.012-0.061c-0.014-0.067-0.029-0.137-0.029-0.199c0-0.06,0.037-0.098,0.134-0.141
		c0.184-0.083,0.568-0.258,0.814-0.258c0.141,0,0.162,0.107,0.162,0.173v4.162c0,0.132-0.043,0.182-0.162,0.182h-0.179
		c-0.178,0-0.229-0.024-0.229-0.182v-3.797L24.194,21.863z M23.851,10.751c0.184-0.084,0.568-0.258,0.814-0.258
		c0.141,0,0.162,0.107,0.162,0.171v4.162c0,0.134-0.043,0.183-0.162,0.183h-0.179c-0.178,0-0.229-0.023-0.229-0.183V11.03
		l-0.063,0.032c-0.111,0.056-0.305,0.14-0.346,0.14c-0.055,0-0.085-0.018-0.091-0.052c-0.003-0.019-0.008-0.04-0.012-0.06
		c-0.014-0.066-0.029-0.137-0.029-0.199C23.717,10.831,23.754,10.794,23.851,10.751z M24.918,17.065v2.171
		c0,0.678-0.346,1.173-1.397,1.173s-1.397-0.495-1.397-1.173v-2.171c0-0.678,0.346-1.172,1.397-1.172S24.918,16.387,24.918,17.065z
		 M19.97,11.665c0-0.678,0.346-1.172,1.397-1.172s1.397,0.494,1.397,1.172v2.171c0,0.678-0.346,1.173-1.397,1.173
		s-1.397-0.495-1.397-1.173V11.665z M20.014,16.151c0.185-0.084,0.569-0.258,0.815-0.258c0.141,0,0.162,0.107,0.162,0.172v4.162
		c0,0.133-0.044,0.182-0.162,0.182h-0.18c-0.177,0-0.229-0.023-0.229-0.182V16.43l-0.063,0.032c-0.111,0.057-0.306,0.14-0.346,0.14
		c-0.055,0-0.085-0.018-0.09-0.052c-0.004-0.018-0.008-0.04-0.012-0.06c-0.014-0.067-0.028-0.137-0.028-0.198
		C19.881,16.231,19.917,16.194,20.014,16.151z M20.014,26.952c0.185-0.083,0.569-0.258,0.815-0.258c0.141,0,0.162,0.107,0.162,0.173
		v4.162c0,0.132-0.044,0.182-0.162,0.182h-0.18c-0.177,0-0.229-0.023-0.229-0.182v-3.796l-0.063,0.031
		c-0.111,0.056-0.306,0.139-0.346,0.139c-0.055,0-0.085-0.016-0.09-0.051c-0.004-0.019-0.008-0.04-0.012-0.061
		c-0.014-0.067-0.028-0.137-0.028-0.199C19.881,27.033,19.917,26.995,20.014,26.952z M17.861,10.751
		c0.185-0.084,0.569-0.258,0.815-0.258c0.141,0,0.162,0.107,0.162,0.171v4.162c0,0.134-0.043,0.183-0.162,0.183h-0.18
		c-0.177,0-0.229-0.023-0.229-0.183V11.03l-0.063,0.032c-0.11,0.056-0.306,0.14-0.345,0.14c-0.055,0-0.085-0.018-0.091-0.052
		c-0.004-0.019-0.008-0.04-0.012-0.06c-0.014-0.066-0.028-0.137-0.028-0.199C17.727,10.831,17.763,10.794,17.861,10.751z
		 M16.134,17.065c0-0.678,0.346-1.172,1.397-1.172c1.051,0,1.397,0.494,1.397,1.172v2.171c0,0.678-0.346,1.173-1.397,1.173
		c-1.051,0-1.397-0.495-1.397-1.173V17.065z M16.774,22.467v2.17c0,0.678-0.346,1.173-1.396,1.173c-1.052,0-1.397-0.495-1.397-1.173
		v-2.17c0-0.679,0.346-1.174,1.397-1.174C16.428,21.294,16.774,21.789,16.774,22.467z M14.024,16.151
		c0.185-0.084,0.568-0.258,0.815-0.258c0.141,0,0.162,0.107,0.162,0.172v4.162c0,0.133-0.044,0.182-0.162,0.182h-0.18
		c-0.177,0-0.229-0.023-0.229-0.182V16.43l-0.064,0.032c-0.111,0.057-0.305,0.14-0.345,0.14c-0.055,0-0.085-0.018-0.091-0.052
		c-0.003-0.018-0.008-0.04-0.012-0.06c-0.014-0.067-0.028-0.137-0.028-0.198C13.89,16.231,13.927,16.194,14.024,16.151z
		 M14.024,26.952c0.185-0.083,0.568-0.258,0.815-0.258c0.141,0,0.162,0.107,0.162,0.173v4.162c0,0.132-0.044,0.182-0.162,0.182
		h-0.18c-0.177,0-0.229-0.023-0.229-0.182v-3.796l-0.064,0.031c-0.111,0.056-0.305,0.139-0.345,0.139
		c-0.055,0-0.085-0.016-0.091-0.051c-0.003-0.019-0.008-0.04-0.012-0.061c-0.014-0.067-0.028-0.137-0.028-0.199
		C13.89,27.033,13.927,26.995,14.024,26.952z"/>
	<path fill="#EFF9FE" d="M17.531,27.196c-0.624,0-0.828,0.237-0.828,0.733v2.047c0,0.496,0.204,0.732,0.828,0.732
		s0.827-0.236,0.827-0.732v-2.047C18.358,27.433,18.155,27.196,17.531,27.196z"/>
	<polygon fill="#3D6480" points="31.679,13.08 29.97,11.371 27.422,11.371 27.422,8.823 25.712,7.113 20.614,7.113 18.914,8.812 
		25.722,8.812 25.722,13.07 29.979,13.07 30.037,33.222 12.343,33.222 12.343,15.383 10.643,17.084 10.643,34.922 31.742,34.922 	
		"/>
	<path fill="#EFF9FE" d="M15.378,15.008c1.051,0,1.396-0.495,1.396-1.173v-2.171c0-0.219-0.042-0.416-0.126-0.586l-0.467,0.467
		c0.009,0.059,0.023,0.112,0.023,0.181v2.048c0,0.495-0.203,0.732-0.827,0.732s-0.828-0.237-0.828-0.732v-0.598l-0.57,0.57v0.089
		C13.98,14.513,14.326,15.008,15.378,15.008z"/>
	<path fill="#3D6480" d="M15.378,15.008c1.051,0,1.396-0.495,1.396-1.173v-2.171c0-0.219-0.042-0.416-0.126-0.586l-0.467,0.467
		c0.009,0.059,0.023,0.112,0.023,0.181v2.048c0,0.495-0.203,0.732-0.827,0.732s-0.828-0.237-0.828-0.732v-0.598l-0.57,0.57v0.089
		C13.98,14.513,14.326,15.008,15.378,15.008z"/>
	<path fill="#EFF9FE" d="M17.768,11.15c0.005,0.034,0.036,0.052,0.091,0.052c0.04,0,0.235-0.084,0.345-0.14l0.063-0.032v3.796
		c0,0.159,0.052,0.183,0.229,0.183h0.18c0.119,0,0.162-0.049,0.162-0.183v-4.162c0-0.064-0.021-0.171-0.162-0.171
		c-0.246,0-0.63,0.174-0.815,0.258c-0.098,0.043-0.134,0.08-0.134,0.14c0,0.063,0.014,0.133,0.028,0.199
		C17.76,11.11,17.764,11.131,17.768,11.15z"/>
	<path fill="#3D6480" d="M17.768,11.15c0.005,0.034,0.036,0.052,0.091,0.052c0.04,0,0.235-0.084,0.345-0.14l0.063-0.032v3.796
		c0,0.159,0.052,0.183,0.229,0.183h0.18c0.119,0,0.162-0.049,0.162-0.183v-4.162c0-0.064-0.021-0.171-0.162-0.171
		c-0.246,0-0.63,0.174-0.815,0.258c-0.098,0.043-0.134,0.08-0.134,0.14c0,0.063,0.014,0.133,0.028,0.199
		C17.76,11.11,17.764,11.131,17.768,11.15z"/>
	<path fill="#EFF9FE" d="M21.367,15.008c1.051,0,1.397-0.495,1.397-1.173v-2.171c0-0.678-0.346-1.172-1.397-1.172
		s-1.397,0.494-1.397,1.172v2.171C19.97,14.513,20.316,15.008,21.367,15.008z M20.54,11.726c0-0.495,0.203-0.732,0.827-0.732
		s0.827,0.237,0.827,0.732v2.048c0,0.495-0.203,0.732-0.827,0.732s-0.827-0.237-0.827-0.732V11.726z"/>
	<path fill="#3D6480" d="M21.367,15.008c1.051,0,1.397-0.495,1.397-1.173v-2.171c0-0.678-0.346-1.172-1.397-1.172
		s-1.397,0.494-1.397,1.172v2.171C19.97,14.513,20.316,15.008,21.367,15.008z M20.54,11.726c0-0.495,0.203-0.732,0.827-0.732
		s0.827,0.237,0.827,0.732v2.048c0,0.495-0.203,0.732-0.827,0.732s-0.827-0.237-0.827-0.732V11.726z"/>
	<path fill="#EFF9FE" d="M23.758,11.15c0.005,0.034,0.036,0.052,0.091,0.052c0.041,0,0.234-0.084,0.346-0.14l0.063-0.032v3.796
		c0,0.159,0.051,0.183,0.229,0.183h0.179c0.119,0,0.162-0.049,0.162-0.183v-4.162c0-0.064-0.021-0.171-0.162-0.171
		c-0.246,0-0.63,0.174-0.814,0.258c-0.098,0.043-0.134,0.08-0.134,0.14c0,0.063,0.015,0.133,0.029,0.199
		C23.75,11.11,23.755,11.131,23.758,11.15z"/>
	<path fill="#3D6480" d="M23.758,11.15c0.005,0.034,0.036,0.052,0.091,0.052c0.041,0,0.234-0.084,0.346-0.14l0.063-0.032v3.796
		c0,0.159,0.051,0.183,0.229,0.183h0.179c0.119,0,0.162-0.049,0.162-0.183v-4.162c0-0.064-0.021-0.171-0.162-0.171
		c-0.246,0-0.63,0.174-0.814,0.258c-0.098,0.043-0.134,0.08-0.134,0.14c0,0.063,0.015,0.133,0.029,0.199
		C23.75,11.11,23.755,11.131,23.758,11.15z"/>
	<path fill="#EFF9FE" d="M13.98,22.467v2.17c0,0.678,0.346,1.173,1.397,1.173c1.051,0,1.396-0.495,1.396-1.173v-2.17
		c0-0.679-0.346-1.174-1.396-1.174C14.326,21.294,13.98,21.789,13.98,22.467z M14.55,22.528c0-0.495,0.204-0.732,0.828-0.732
		s0.827,0.237,0.827,0.732v2.048c0,0.496-0.203,0.732-0.827,0.732s-0.828-0.236-0.828-0.732V22.528z"/>
	<path fill="#3D6480" d="M13.98,22.467v2.17c0,0.678,0.346,1.173,1.397,1.173c1.051,0,1.396-0.495,1.396-1.173v-2.17
		c0-0.679-0.346-1.174-1.396-1.174C14.326,21.294,13.98,21.789,13.98,22.467z M14.55,22.528c0-0.495,0.204-0.732,0.828-0.732
		s0.827,0.237,0.827,0.732v2.048c0,0.496-0.203,0.732-0.827,0.732s-0.828-0.236-0.828-0.732V22.528z"/>
	<path fill="#EFF9FE" d="M18.496,25.81h0.18c0.119,0,0.162-0.05,0.162-0.182v-4.162c0-0.065-0.021-0.173-0.162-0.173
		c-0.246,0-0.63,0.175-0.815,0.258c-0.098,0.043-0.134,0.081-0.134,0.141c0,0.063,0.014,0.132,0.028,0.199
		c0.004,0.021,0.008,0.041,0.012,0.061c0.005,0.034,0.036,0.051,0.091,0.051c0.04,0,0.235-0.083,0.345-0.14l0.063-0.031v3.797
		C18.267,25.786,18.319,25.81,18.496,25.81z"/>
	<path fill="#3D6480" d="M18.496,25.81h0.18c0.119,0,0.162-0.05,0.162-0.182v-4.162c0-0.065-0.021-0.173-0.162-0.173
		c-0.246,0-0.63,0.175-0.815,0.258c-0.098,0.043-0.134,0.081-0.134,0.141c0,0.063,0.014,0.132,0.028,0.199
		c0.004,0.021,0.008,0.041,0.012,0.061c0.005,0.034,0.036,0.051,0.091,0.051c0.04,0,0.235-0.083,0.345-0.14l0.063-0.031v3.797
		C18.267,25.786,18.319,25.81,18.496,25.81z"/>
	<path fill="#EFF9FE" d="M22.764,24.637v-2.17c0-0.679-0.346-1.174-1.397-1.174s-1.397,0.495-1.397,1.174v2.17
		c0,0.678,0.346,1.173,1.397,1.173S22.764,25.315,22.764,24.637z M22.195,24.576c0,0.496-0.203,0.732-0.827,0.732
		s-0.827-0.236-0.827-0.732v-2.048c0-0.495,0.203-0.732,0.827-0.732s0.827,0.237,0.827,0.732V24.576z"/>
	<path fill="#3D6480" d="M22.764,24.637v-2.17c0-0.679-0.346-1.174-1.397-1.174s-1.397,0.495-1.397,1.174v2.17
		c0,0.678,0.346,1.173,1.397,1.173S22.764,25.315,22.764,24.637z M22.195,24.576c0,0.496-0.203,0.732-0.827,0.732
		s-0.827-0.236-0.827-0.732v-2.048c0-0.495,0.203-0.732,0.827-0.732s0.827,0.237,0.827,0.732V24.576z"/>
	<path fill="#EFF9FE" d="M24.487,25.81h0.179c0.119,0,0.162-0.05,0.162-0.182v-4.162c0-0.065-0.021-0.173-0.162-0.173
		c-0.246,0-0.63,0.175-0.814,0.258c-0.098,0.043-0.134,0.081-0.134,0.141c0,0.063,0.015,0.132,0.029,0.199
		c0.004,0.021,0.009,0.041,0.012,0.061c0.005,0.034,0.036,0.051,0.091,0.051c0.041,0,0.234-0.083,0.346-0.14l0.063-0.031v3.797
		C24.258,25.786,24.309,25.81,24.487,25.81z"/>
	<path fill="#3D6480" d="M24.487,25.81h0.179c0.119,0,0.162-0.05,0.162-0.182v-4.162c0-0.065-0.021-0.173-0.162-0.173
		c-0.246,0-0.63,0.175-0.814,0.258c-0.098,0.043-0.134,0.081-0.134,0.141c0,0.063,0.015,0.132,0.029,0.199
		c0.004,0.021,0.009,0.041,0.012,0.061c0.005,0.034,0.036,0.051,0.091,0.051c0.041,0,0.234-0.083,0.346-0.14l0.063-0.031v3.797
		C24.258,25.786,24.309,25.81,24.487,25.81z"/>
	<path fill="#EFF9FE" d="M13.931,16.55c0.005,0.034,0.036,0.052,0.091,0.052c0.04,0,0.234-0.083,0.345-0.14l0.064-0.032v3.797
		c0,0.158,0.051,0.182,0.229,0.182h0.18c0.118,0,0.162-0.049,0.162-0.182v-4.162c0-0.065-0.021-0.172-0.162-0.172
		c-0.247,0-0.631,0.174-0.815,0.258c-0.098,0.043-0.134,0.08-0.134,0.141c0,0.062,0.015,0.131,0.028,0.198
		C13.923,16.51,13.928,16.532,13.931,16.55z"/>
	<path fill="#3D6480" d="M13.931,16.55c0.005,0.034,0.036,0.052,0.091,0.052c0.04,0,0.234-0.083,0.345-0.14l0.064-0.032v3.797
		c0,0.158,0.051,0.182,0.229,0.182h0.18c0.118,0,0.162-0.049,0.162-0.182v-4.162c0-0.065-0.021-0.172-0.162-0.172
		c-0.247,0-0.631,0.174-0.815,0.258c-0.098,0.043-0.134,0.08-0.134,0.141c0,0.062,0.015,0.131,0.028,0.198
		C13.923,16.51,13.928,16.532,13.931,16.55z"/>
	<path fill="#EFF9FE" d="M17.531,20.409c1.051,0,1.397-0.495,1.397-1.173v-2.171c0-0.678-0.346-1.172-1.397-1.172
		c-1.051,0-1.397,0.494-1.397,1.172v2.171C16.134,19.914,16.479,20.409,17.531,20.409z M16.703,17.127
		c0-0.495,0.204-0.731,0.828-0.731s0.827,0.236,0.827,0.731v2.048c0,0.495-0.203,0.733-0.827,0.733s-0.828-0.238-0.828-0.733V17.127
		z"/>
	<path fill="#3D6480" d="M17.531,20.409c1.051,0,1.397-0.495,1.397-1.173v-2.171c0-0.678-0.346-1.172-1.397-1.172
		c-1.051,0-1.397,0.494-1.397,1.172v2.171C16.134,19.914,16.479,20.409,17.531,20.409z M16.703,17.127
		c0-0.495,0.204-0.731,0.828-0.731s0.827,0.236,0.827,0.731v2.048c0,0.495-0.203,0.733-0.827,0.733s-0.828-0.238-0.828-0.733V17.127
		z"/>
	<path fill="#EFF9FE" d="M19.921,16.55c0.005,0.034,0.036,0.052,0.09,0.052c0.04,0,0.235-0.083,0.346-0.14l0.063-0.032v3.797
		c0,0.158,0.052,0.182,0.229,0.182h0.18c0.118,0,0.162-0.049,0.162-0.182v-4.162c0-0.065-0.021-0.172-0.162-0.172
		c-0.246,0-0.63,0.174-0.815,0.258c-0.098,0.043-0.134,0.08-0.134,0.141c0,0.062,0.014,0.131,0.028,0.198
		C19.913,16.51,19.917,16.532,19.921,16.55z"/>
	<path fill="#3D6480" d="M19.921,16.55c0.005,0.034,0.036,0.052,0.09,0.052c0.04,0,0.235-0.083,0.346-0.14l0.063-0.032v3.797
		c0,0.158,0.052,0.182,0.229,0.182h0.18c0.118,0,0.162-0.049,0.162-0.182v-4.162c0-0.065-0.021-0.172-0.162-0.172
		c-0.246,0-0.63,0.174-0.815,0.258c-0.098,0.043-0.134,0.08-0.134,0.141c0,0.062,0.014,0.131,0.028,0.198
		C19.913,16.51,19.917,16.532,19.921,16.55z"/>
	<path fill="#EFF9FE" d="M22.123,17.065v2.171c0,0.678,0.346,1.173,1.397,1.173s1.397-0.495,1.397-1.173v-2.171
		c0-0.678-0.346-1.172-1.397-1.172S22.123,16.387,22.123,17.065z M22.694,17.127c0-0.495,0.203-0.731,0.827-0.731
		c0.624,0,0.827,0.236,0.827,0.731v2.048c0,0.495-0.203,0.733-0.827,0.733c-0.624,0-0.827-0.238-0.827-0.733V17.127z"/>
	<path fill="#3D6480" d="M22.123,17.065v2.171c0,0.678,0.346,1.173,1.397,1.173s1.397-0.495,1.397-1.173v-2.171
		c0-0.678-0.346-1.172-1.397-1.172S22.123,16.387,22.123,17.065z M22.694,17.127c0-0.495,0.203-0.731,0.827-0.731
		c0.624,0,0.827,0.236,0.827,0.731v2.048c0,0.495-0.203,0.733-0.827,0.733c-0.624,0-0.827-0.238-0.827-0.733V17.127z"/>
	<path fill="#EFF9FE" d="M13.931,27.352c0.005,0.035,0.036,0.051,0.091,0.051c0.04,0,0.234-0.083,0.345-0.139l0.064-0.031v3.796
		c0,0.158,0.051,0.182,0.229,0.182h0.18c0.118,0,0.162-0.05,0.162-0.182v-4.162c0-0.065-0.021-0.173-0.162-0.173
		c-0.247,0-0.631,0.175-0.815,0.258c-0.098,0.043-0.134,0.081-0.134,0.141c0,0.063,0.015,0.132,0.028,0.199
		C13.923,27.312,13.928,27.333,13.931,27.352z"/>
	<path fill="#3D6480" d="M13.931,27.352c0.005,0.035,0.036,0.051,0.091,0.051c0.04,0,0.234-0.083,0.345-0.139l0.064-0.031v3.796
		c0,0.158,0.051,0.182,0.229,0.182h0.18c0.118,0,0.162-0.05,0.162-0.182v-4.162c0-0.065-0.021-0.173-0.162-0.173
		c-0.247,0-0.631,0.175-0.815,0.258c-0.098,0.043-0.134,0.081-0.134,0.141c0,0.063,0.015,0.132,0.028,0.199
		C13.923,27.312,13.928,27.333,13.931,27.352z"/>
	<path fill="#EFF9FE" d="M17.531,26.694c-1.051,0-1.397,0.496-1.397,1.174v2.17c0,0.679,0.346,1.173,1.397,1.173
		c1.051,0,1.397-0.494,1.397-1.173v-2.17C18.928,27.19,18.581,26.694,17.531,26.694z M18.358,29.976
		c0,0.496-0.203,0.732-0.827,0.732s-0.828-0.236-0.828-0.732v-2.047c0-0.496,0.204-0.733,0.828-0.733s0.827,0.237,0.827,0.733
		V29.976z"/>
	<path fill="#3D6480" d="M17.531,26.694c-1.051,0-1.397,0.496-1.397,1.174v2.17c0,0.679,0.346,1.173,1.397,1.173
		c1.051,0,1.397-0.494,1.397-1.173v-2.17C18.928,27.19,18.581,26.694,17.531,26.694z M18.358,29.976
		c0,0.496-0.203,0.732-0.827,0.732s-0.828-0.236-0.828-0.732v-2.047c0-0.496,0.204-0.733,0.828-0.733s0.827,0.237,0.827,0.733
		V29.976z"/>
	<path fill="#EFF9FE" d="M19.921,27.352c0.005,0.035,0.036,0.051,0.09,0.051c0.04,0,0.235-0.083,0.346-0.139l0.063-0.031v3.796
		c0,0.158,0.052,0.182,0.229,0.182h0.18c0.118,0,0.162-0.05,0.162-0.182v-4.162c0-0.065-0.021-0.173-0.162-0.173
		c-0.246,0-0.63,0.175-0.815,0.258c-0.098,0.043-0.134,0.081-0.134,0.141c0,0.063,0.014,0.132,0.028,0.199
		C19.913,27.312,19.917,27.333,19.921,27.352z"/>
	<path fill="#3D6480" d="M19.921,27.352c0.005,0.035,0.036,0.051,0.09,0.051c0.04,0,0.235-0.083,0.346-0.139l0.063-0.031v3.796
		c0,0.158,0.052,0.182,0.229,0.182h0.18c0.118,0,0.162-0.05,0.162-0.182v-4.162c0-0.065-0.021-0.173-0.162-0.173
		c-0.246,0-0.63,0.175-0.815,0.258c-0.098,0.043-0.134,0.081-0.134,0.141c0,0.063,0.014,0.132,0.028,0.199
		C19.913,27.312,19.917,27.333,19.921,27.352z"/>
	<path fill="#EFF9FE" d="M23.521,26.694c-1.051,0-1.397,0.496-1.397,1.174v2.17c0,0.679,0.346,1.173,1.397,1.173
		s1.397-0.494,1.397-1.173v-2.17C24.918,27.19,24.572,26.694,23.521,26.694z M24.347,29.976c0,0.496-0.203,0.732-0.827,0.732
		c-0.624,0-0.827-0.236-0.827-0.732v-2.047c0-0.496,0.203-0.733,0.827-0.733c0.624,0,0.827,0.237,0.827,0.733V29.976z"/>
	<path fill="#3D6480" d="M23.521,26.694c-1.051,0-1.397,0.496-1.397,1.174v2.17c0,0.679,0.346,1.173,1.397,1.173
		s1.397-0.494,1.397-1.173v-2.17C24.918,27.19,24.572,26.694,23.521,26.694z M24.347,29.976c0,0.496-0.203,0.732-0.827,0.732
		c-0.624,0-0.827-0.236-0.827-0.732v-2.047c0-0.496,0.203-0.733,0.827-0.733c0.624,0,0.827,0.237,0.827,0.733V29.976z"/>
</g>
</svg>
