<?xml version="1.0" encoding="utf-8"?>
<!-- Generator: Adobe Illustrator 17.0.0, SVG Export Plug-In . SVG Version: 6.00 Build 0)  -->
<!DOCTYPE svg PUBLIC "-//W3C//DTD SVG 1.1//EN" "http://www.w3.org/Graphics/SVG/1.1/DTD/svg11.dtd">
<svg version="1.1" id="Layer_1" xmlns="http://www.w3.org/2000/svg" xmlns:xlink="http://www.w3.org/1999/xlink" x="0px" y="0px"
	 width="42px" height="42px" viewBox="0 0 42 42" enable-background="new 0 0 42 42" xml:space="preserve">
<g>
	<polygon fill="#3D6480" points="36.701,32.836 36.701,35.918 31.477,30.694 30.133,32.038 35.357,37.263 32.213,37.263 
		32.213,39.164 38.601,39.163 38.601,32.836 	"/>
	<path fill="#DBF4DC" d="M15.946,19.139h-1.121v4.124h1.121c0.799,0,1.012-0.313,1.012-0.919v-2.286
		C16.957,19.451,16.745,19.139,15.946,19.139z"/>
	<path fill="#DBF4DC" d="M21.698,20.184v-0.631c0-0.297-0.145-0.439-0.549-0.439h-1.305v1.636h1.188
		C21.534,20.75,21.698,20.533,21.698,20.184z"/>
	<path fill="#DBF4DC" d="M21.166,21.552h-1.322v1.737h1.364c0.478,0,0.675-0.192,0.675-0.549v-0.589
		C21.883,21.765,21.682,21.552,21.166,21.552z"/>
	<path fill="#DBF4DC" d="M25.117,13.254V8.996H11.738v24.411l11.129,0l6.546-6.546l-0.039-13.606H25.117z M17.86,22.395
		c0,0.938-0.465,1.695-1.889,1.695l-2.02-0.03v-5.719l2.02-0.03c1.424,0,1.889,0.759,1.889,1.696V22.395z M22.787,22.799
		c0,0.846-0.603,1.292-1.478,1.292l-2.338-0.03v-5.719l2.221-0.03c0.92,0,1.41,0.425,1.41,1.226v0.647
		c0,0.383-0.111,0.699-0.471,0.91c0.396,0.151,0.655,0.495,0.655,1.031V22.799z M27.221,19.109l-2.576,0.029v1.688l2.398,0.029
		v0.768l-2.399,0.029l-0.03,2.409l-0.842-0.001v-5.719h3.449V19.109z"/>
	<polygon fill="#3D6480" points="31.075,13.263 29.365,11.554 26.817,11.554 26.817,9.007 25.107,7.297 10.038,7.297 10.038,35.106 
		21.168,35.106 22.867,33.407 11.738,33.407 11.738,8.996 25.117,8.996 25.117,13.254 29.374,13.254 29.413,26.86 31.109,25.165 	
		"/>
	<path fill="#3D6480" d="M15.971,18.311l-2.02,0.03v5.719l2.02,0.03c1.424,0,1.889-0.758,1.889-1.695v-2.388
		C17.86,19.07,17.395,18.311,15.971,18.311z M16.957,22.345c0,0.606-0.213,0.919-1.012,0.919h-1.121v-4.124h1.121
		c0.799,0,1.012,0.312,1.012,0.919V22.345z"/>
	<path fill="#3D6480" d="M22.131,21.095c0.359-0.211,0.471-0.527,0.471-0.91v-0.647c0-0.801-0.49-1.226-1.41-1.226l-2.221,0.03
		v5.719l2.338,0.03c0.875,0,1.478-0.446,1.478-1.292v-0.673C22.787,21.59,22.528,21.246,22.131,21.095z M19.844,19.114h1.305
		c0.404,0,0.549,0.143,0.549,0.439v0.631c0,0.349-0.164,0.565-0.666,0.565h-1.188V19.114z M21.883,22.74
		c0,0.356-0.197,0.549-0.675,0.549h-1.364v-1.737h1.322c0.516,0,0.717,0.214,0.717,0.6V22.74z"/>
	<polygon fill="#3D6480" points="23.772,24.06 24.614,24.061 24.644,21.652 27.043,21.623 27.043,20.855 24.645,20.826 
		24.645,19.138 27.221,19.109 27.221,18.342 23.772,18.342 	"/>
</g>
</svg>
