<?xml version="1.0" encoding="utf-8"?>
<!-- Generator: Adobe Illustrator 17.0.0, SVG Export Plug-In . SVG Version: 6.00 Build 0)  -->
<!DOCTYPE svg PUBLIC "-//W3C//DTD SVG 1.1//EN" "http://www.w3.org/Graphics/SVG/1.1/DTD/svg11.dtd">
<svg version="1.1" id="Layer_1" xmlns="http://www.w3.org/2000/svg" xmlns:xlink="http://www.w3.org/1999/xlink" x="0px" y="0px"
	 width="42px" height="42px" viewBox="0 0 42 42" enable-background="new 0 0 42 42" xml:space="preserve">
<polygon fill="#0CB20F" points="30.564,38.181 26.888,34.505 28.232,33.162 30.564,35.494 37.485,28.571 38.829,29.915 "/>
<path fill="#DBF3DB" d="M25.458,12.157V7.899H12.079v24.41h12.549l5.131-5.131l-0.043-15.022H25.458z M17.243,22.804l-1.287-2.009
	l-1.28,2.009h-0.973l1.75-2.739l-1.695-2.661h0.973l1.226,1.931l1.232-1.931h0.973l-1.703,2.661l1.758,2.739H17.243z M23.127,22.804
	l-0.091-3.75l-1.152,3.08H20.83l-1.153-3.08l-0.09,3.75h-0.863l0.186-5.4h1.028l1.419,3.807l1.42-3.807h1.027l0.187,5.4H23.127z
	 M28.15,22.804h-3.135v-5.4h0.886v4.585h2.249V22.804z"/>
<polygon fill="#3D6480" points="29.706,10.458 27.158,10.458 27.158,7.91 25.448,6.2 10.379,6.2 10.379,34.008 22.928,34.008 
	24.627,32.309 12.079,32.309 12.079,7.899 25.458,7.899 25.458,12.157 29.715,12.157 29.758,27.178 31.453,25.483 31.415,12.166 "/>
<polygon fill="#3D6480" points="18.161,17.404 17.189,17.404 15.956,19.334 14.731,17.404 13.758,17.404 15.453,20.065 
	13.703,22.804 14.676,22.804 15.956,20.795 17.243,22.804 18.216,22.804 16.458,20.065 "/>
<polygon fill="#3D6480" points="22.776,17.404 21.357,21.21 19.938,17.404 18.909,17.404 18.724,22.804 19.587,22.804 
	19.677,19.054 20.83,22.134 21.884,22.134 23.036,19.054 23.127,22.804 23.99,22.804 23.804,17.404 "/>
<polygon fill="#3D6480" points="25.901,17.404 25.016,17.404 25.016,22.804 28.15,22.804 28.15,21.989 25.901,21.989 "/>
</svg>
