<?xml version="1.0" encoding="utf-8"?>
<!-- Generator: Adobe Illustrator 17.0.0, SVG Export Plug-In . SVG Version: 6.00 Build 0)  -->
<!DOCTYPE svg PUBLIC "-//W3C//DTD SVG 1.1//EN" "http://www.w3.org/Graphics/SVG/1.1/DTD/svg11.dtd">
<svg version="1.1" id="Layer_1" xmlns="http://www.w3.org/2000/svg" xmlns:xlink="http://www.w3.org/1999/xlink" x="0px" y="0px"
	 width="42px" height="42px" viewBox="0 0 42 42" enable-background="new 0 0 42 42" xml:space="preserve">
<g>
	<polygon fill="#3D6480" points="36.813,33.069 36.813,36.152 31.587,30.927 30.243,32.27 35.47,37.497 32.323,37.497 
		32.323,39.397 38.713,39.394 38.713,33.069 	"/>
	<path fill="#DBF3DB" d="M25.229,13.486V9.228h-13.38V33.64h11.019l6.657-6.657l-0.039-13.497H25.229z M17.013,24.134l-1.286-2.008
		l-1.279,2.008h-0.974l1.75-2.738l-1.694-2.661h0.972l1.226,1.93l1.232-1.93h0.973l-1.704,2.661l1.759,2.738H17.013z M22.898,24.134
		l-0.091-3.749l-1.152,3.08h-1.054l-1.153-3.08l-0.09,3.749h-0.864l0.187-5.399h1.028l1.419,3.807l1.42-3.807h1.027l0.187,5.399
		H22.898z M27.921,24.134h-3.135v-5.399h0.886v4.584h2.249V24.134z"/>
	<polygon fill="#3D6480" points="31.186,13.498 29.475,11.787 26.928,11.787 26.928,9.24 25.217,7.529 10.15,7.529 10.15,35.339 
		21.168,35.339 22.867,33.64 11.849,33.64 11.849,9.228 25.229,9.228 25.229,13.486 29.486,13.486 29.524,26.983 31.219,25.288 	"/>
	<polygon fill="#3D6480" points="17.932,18.734 16.959,18.734 15.727,20.664 14.501,18.734 13.53,18.734 15.224,21.395 
		13.474,24.134 14.447,24.134 15.727,22.126 17.013,24.134 17.987,24.134 16.228,21.395 	"/>
	<polygon fill="#3D6480" points="22.547,18.734 21.127,22.541 19.708,18.734 18.68,18.734 18.493,24.134 19.358,24.134 
		19.447,20.385 20.601,23.465 21.655,23.465 22.807,20.385 22.898,24.134 23.761,24.134 23.574,18.734 	"/>
	<polygon fill="#3D6480" points="25.672,18.734 24.786,18.734 24.786,24.134 27.921,24.134 27.921,23.318 25.672,23.318 	"/>
</g>
</svg>
