<?xml version="1.0" encoding="utf-8"?>
<!-- Generator: Adobe Illustrator 17.0.0, SVG Export Plug-In . SVG Version: 6.00 Build 0)  -->
<!DOCTYPE svg PUBLIC "-//W3C//DTD SVG 1.1//EN" "http://www.w3.org/Graphics/SVG/1.1/DTD/svg11.dtd">
<svg version="1.1" id="Layer_1" xmlns="http://www.w3.org/2000/svg" xmlns:xlink="http://www.w3.org/1999/xlink" x="0px" y="0px"
	 width="42px" height="42px" viewBox="0 0 42 42" enable-background="new 0 0 42 42" xml:space="preserve">
<g>
	<path fill="#FFFFFF" d="M31.458,39.448"/>
	<path fill="#FFEBCD" d="M31.458,39.448"/>
	<path fill="#FFEBCD" d="M31.458,39.411"/>
	<path fill="#3D6480" d="M31.458,39.411"/>
</g>
<g>
	<polygon fill="#3D6480" points="36.813,32.83 36.813,35.913 31.587,30.688 30.243,32.032 35.469,37.257 32.323,37.258 
		32.323,39.158 38.713,39.157 38.713,32.83 	"/>
	<polygon fill="#3D6480" points="31.186,10.222 29.476,8.512 26.928,8.512 26.928,5.964 25.218,4.254 10.15,4.254 10.15,32.062 
		20.197,32.062 20.197,34.145 18.8,34.145 18.8,34.395 13.71,34.395 13.71,35.395 18.8,35.395 18.8,35.645 20.824,35.645 
		22.324,34.145 21.197,34.145 21.197,32.062 24.407,32.062 26.106,30.363 11.849,30.363 11.849,5.953 25.229,5.953 25.229,10.211 
		29.486,10.211 29.533,26.936 31.229,25.241 	"/>
	<path fill="#DBF3DB" d="M25.229,10.211V5.953h-13.38v24.41h14.257l3.427-3.427l-0.048-16.725H25.229z M17.013,20.858l-1.286-2.009
		l-1.279,2.009h-0.974l1.75-2.739l-1.694-2.661h0.972l1.226,1.931l1.232-1.931h0.973l-1.704,2.661l1.759,2.739H17.013z
		 M22.898,20.858l-0.091-3.75l-1.152,3.08h-1.054l-1.153-3.08l-0.09,3.75h-0.864l0.187-5.4h1.028l1.419,3.807l1.42-3.807h1.027
		l0.187,5.4H22.898z M27.921,20.858h-3.135v-5.4h0.886v4.584h2.249V20.858z"/>
	<polygon fill="#3D6480" points="17.932,15.458 16.959,15.458 15.727,17.389 14.501,15.458 13.53,15.458 15.224,18.119 
		13.474,20.858 14.447,20.858 15.727,18.85 17.013,20.858 17.987,20.858 16.228,18.119 	"/>
	<polygon fill="#3D6480" points="22.547,15.458 21.127,19.265 19.708,15.458 18.68,15.458 18.493,20.858 19.358,20.858 
		19.447,17.108 20.601,20.188 21.655,20.188 22.807,17.108 22.898,20.858 23.761,20.858 23.574,15.458 	"/>
	<polygon fill="#3D6480" points="25.672,15.458 24.786,15.458 24.786,20.858 27.921,20.858 27.921,20.042 25.672,20.042 	"/>
</g>
</svg>
