<?xml version="1.0" encoding="utf-8"?>
<!-- Generator: Adobe Illustrator 17.0.0, SVG Export Plug-In . SVG Version: 6.00 Build 0)  -->
<!DOCTYPE svg PUBLIC "-//W3C//DTD SVG 1.1//EN" "http://www.w3.org/Graphics/SVG/1.1/DTD/svg11.dtd">
<svg version="1.1" id="Layer_1" xmlns="http://www.w3.org/2000/svg" xmlns:xlink="http://www.w3.org/1999/xlink" x="0px" y="0px"
	 width="42px" height="42px" viewBox="0 0 42 42" enable-background="new 0 0 42 42" xml:space="preserve">
<g>
	<rect x="38.752" y="18.335" fill="#FFFFFF" width="1.411" height="5.69"/>
	<polygon fill="#3D6480" points="38.752,17.485 26.819,17.485 26.819,19.185 37.053,19.185 37.053,23.176 26.819,23.176 
		26.819,24.875 38.752,24.875 38.752,24.025 38.752,18.335 	"/>
	<polygon fill="#3D6480" points="31.215,10.571 31.215,14.607 29.236,12.629 28.67,13.195 31.588,16.11 34.531,13.164 33.965,12.6 
		32.016,14.551 32.016,9.771 26.469,9.771 26.47,10.571 	"/>
	<polygon fill="#FFFFFF" points="37.053,23.176 37.053,19.185 26.819,19.185 26.819,17.485 26.819,16.314 25.907,16.314 
		25.937,26.648 26.819,26.648 26.819,24.875 26.819,23.176 	"/>
	<path fill="#DBF3DB" d="M19.94,13.053V8.795H6.561v24.41h17.694l-0.058-20.152H19.94z M11.725,23.7l-1.286-2.009L9.158,23.7H8.186
		l1.75-2.739L8.24,18.3h0.973l1.226,1.931l1.232-1.931h0.973l-1.704,2.661l1.76,2.739H11.725z M17.609,23.7l-0.091-3.75l-1.153,3.08
		h-1.053l-1.153-3.08l-0.09,3.75h-0.864l0.187-5.4h1.028l1.419,3.807l1.42-3.807h1.027l0.187,5.4H17.609z M22.633,23.7h-3.135v-5.4
		h0.886v4.584h2.249V23.7z"/>
	<path fill="#3D6480" d="M25.897,13.063l-1.71-1.71H21.64V8.806l-1.71-1.71H4.861v27.809H25.96l-0.007-2.314h6.062v-4.76l1.949,1.95
		l0.566-0.566l-2.916-2.915l-2.945,2.944l0.566,0.566l1.979-1.979v3.959h-5.264l-0.015-5.141l-0.03-10.334L25.897,13.063z
		 M6.561,33.205V8.795h13.38v4.258h4.257l0.058,20.152H6.561z"/>
	<polygon fill="#3D6480" points="12.644,18.3 11.671,18.3 10.438,20.23 9.213,18.3 8.24,18.3 9.936,20.961 8.186,23.7 9.158,23.7 
		10.438,21.691 11.725,23.7 12.699,23.7 10.939,20.961 	"/>
	<polygon fill="#3D6480" points="17.259,18.3 15.839,22.106 14.42,18.3 13.392,18.3 13.205,23.7 14.069,23.7 14.159,19.95 
		15.312,23.03 16.365,23.03 17.519,19.95 17.609,23.7 18.473,23.7 18.286,18.3 	"/>
	<polygon fill="#3D6480" points="20.384,18.3 19.498,18.3 19.498,23.7 22.633,23.7 22.633,22.884 20.384,22.884 	"/>
</g>
</svg>
