<?xml version="1.0" encoding="utf-8"?>
<!-- Generator: Adobe Illustrator 17.0.0, SVG Export Plug-In . SVG Version: 6.00 Build 0)  -->
<!DOCTYPE svg PUBLIC "-//W3C//DTD SVG 1.1//EN" "http://www.w3.org/Graphics/SVG/1.1/DTD/svg11.dtd">
<svg version="1.1" id="Layer_1" xmlns="http://www.w3.org/2000/svg" xmlns:xlink="http://www.w3.org/1999/xlink" x="0px" y="0px"
	 width="42px" height="42px" viewBox="0 0 42 42" enable-background="new 0 0 42 42" xml:space="preserve">
<g>
	<polygon fill="#3D6480" points="37.213,32.148 37.213,35.231 31.99,30.006 30.646,31.35 35.87,36.575 32.726,36.575 32.726,38.476 
		39.114,38.475 39.114,32.148 	"/>
	<polygon fill="#DBF4DC" points="32.218,10.091 28.69,10.091 28.69,6.562 17.893,6.562 17.893,8.872 24.67,8.872 26.38,10.582 
		26.38,12.402 28.2,12.402 29.909,14.111 29.945,26.503 30.468,26.503 32.261,24.71 	"/>
	<polygon fill="#3D6480" points="29.909,14.111 28.2,12.402 26.38,12.402 26.38,10.582 24.67,8.872 17.893,8.872 17.893,6.562 
		28.69,6.562 28.69,10.091 32.218,10.091 32.261,24.71 33.956,23.015 33.919,10.1 32.211,8.392 30.39,8.392 30.39,6.571 
		28.682,4.863 16.192,4.863 16.192,8.872 12.182,8.872 12.182,12.825 8.23,12.825 8.23,36.164 20.807,36.164 22.506,34.465 
		9.93,34.465 9.93,14.524 20.728,14.524 20.728,18.053 24.257,18.053 24.298,32.673 26.458,30.513 25.993,30.513 25.958,18.063 
		24.249,16.354 22.428,16.354 22.428,14.533 20.719,12.825 13.882,12.825 13.882,10.572 24.68,10.572 24.68,14.101 28.209,14.101 
		28.251,28.72 30.468,26.503 29.945,26.503 	"/>
	<polygon fill="#DBF4DC" points="24.68,14.101 24.68,10.572 13.882,10.572 13.882,12.825 20.719,12.825 22.428,14.533 
		22.428,16.354 24.249,16.354 25.958,18.063 25.993,30.513 26.458,30.513 28.251,28.72 28.209,14.101 	"/>
	<path fill="#DBF4DC" d="M20.728,18.053v-3.529H9.93v19.941h12.576l1.792-1.792l-0.041-14.62H20.728z M13.872,26.699l-1.051-1.64
		l-1.045,1.64h-0.794l1.429-2.236l-1.384-2.172h0.794l1,1.576l1.007-1.576h0.794l-1.392,2.172l1.436,2.236H13.872z M18.991,26.699
		l-0.073-3.061l-0.941,2.515h-0.859l-0.942-2.515l-0.073,3.061h-0.705l0.152-4.408h0.839l1.159,3.107l1.158-3.107h0.84l0.151,4.408
		H18.991z M23.277,26.699h-2.559V22.29h0.723v3.742h1.836V26.699z"/>
	<polygon fill="#3D6480" points="14.622,22.29 13.828,22.29 12.821,23.866 11.821,22.29 11.027,22.29 12.411,24.462 10.982,26.699 
		11.776,26.699 12.821,25.059 13.872,26.699 14.666,26.699 13.23,24.462 	"/>
	<polygon fill="#3D6480" points="18.705,22.29 17.546,25.398 16.387,22.29 15.548,22.29 15.396,26.699 16.101,26.699 16.174,23.638 
		17.117,26.153 17.976,26.153 18.918,23.638 18.991,26.699 19.696,26.699 19.545,22.29 	"/>
	<polygon fill="#3D6480" points="21.441,22.29 20.718,22.29 20.718,26.699 23.277,26.699 23.277,26.033 21.441,26.033 	"/>
</g>
</svg>
