<?xml version="1.0" encoding="utf-8"?>
<!-- Generator: Adobe Illustrator 17.0.0, SVG Export Plug-In . SVG Version: 6.00 Build 0)  -->
<!DOCTYPE svg PUBLIC "-//W3C//DTD SVG 1.1//EN" "http://www.w3.org/Graphics/SVG/1.1/DTD/svg11.dtd">
<svg version="1.1" id="Layer_1" xmlns="http://www.w3.org/2000/svg" xmlns:xlink="http://www.w3.org/1999/xlink" x="0px" y="0px"
	 width="42px" height="42px" viewBox="0 0 42 42" enable-background="new 0 0 42 42" xml:space="preserve">
<g>
	<polygon fill="#3D6480" points="5.534,11.803 11.922,11.802 11.922,5.475 10.021,5.475 10.021,8.558 4.798,3.334 3.454,4.677 
		8.678,9.903 5.534,9.903 	"/>
	<path fill="#DBF3DB" d="M30.036,33.223L29.978,13.07h-4.257V8.812h-6.806l-6.573,6.572v17.839H30.036z M25.279,18.318h0.886v4.584
		h2.249v0.815h-3.135V18.318z M19.173,18.318h1.028l1.419,3.807l1.42-3.807h1.027l0.187,5.399H23.39L23.3,19.968l-1.152,3.08h-1.054
		l-1.153-3.08l-0.09,3.749h-0.863L19.173,18.318z M14.021,18.318h0.973l1.226,1.93l1.232-1.93h0.973l-1.703,2.66l1.758,2.739h-0.973
		l-1.287-2.009l-1.28,2.009h-0.973l1.75-2.739L14.021,18.318z"/>
	<polygon fill="#3D6480" points="31.678,13.08 29.969,11.371 27.421,11.371 27.421,8.823 25.711,7.113 20.614,7.113 18.915,8.812 
		25.721,8.812 25.721,13.07 29.978,13.07 30.036,33.223 12.342,33.223 12.342,15.384 10.642,17.085 10.642,34.923 31.741,34.923 	
		"/>
	<polygon fill="#3D6480" points="14.939,23.717 16.219,21.709 17.507,23.717 18.479,23.717 16.721,20.978 18.425,18.318 
		17.452,18.318 16.219,20.248 14.994,18.318 14.021,18.318 15.717,20.978 13.967,23.717 	"/>
	<polygon fill="#3D6480" points="19.94,19.968 21.093,23.049 22.147,23.049 23.3,19.968 23.39,23.717 24.254,23.717 24.067,18.318 
		23.04,18.318 21.62,22.125 20.201,18.318 19.173,18.318 18.987,23.717 19.85,23.717 	"/>
	<polygon fill="#3D6480" points="28.414,22.902 26.165,22.902 26.165,18.318 25.279,18.318 25.279,23.717 28.414,23.717 	"/>
</g>
</svg>
