<?xml version="1.0" encoding="utf-8"?>
<!-- Generator: Adobe Illustrator 17.0.0, SVG Export Plug-In . SVG Version: 6.00 Build 0)  -->
<!DOCTYPE svg PUBLIC "-//W3C//DTD SVG 1.1//EN" "http://www.w3.org/Graphics/SVG/1.1/DTD/svg11.dtd">
<svg version="1.1" id="Layer_1" xmlns="http://www.w3.org/2000/svg" xmlns:xlink="http://www.w3.org/1999/xlink" x="0px" y="0px"
	 width="42px" height="42px" viewBox="0 0 42 42" enable-background="new 0 0 42 42" xml:space="preserve">
<polyline fill-rule="evenodd" clip-rule="evenodd" fill="none" stroke="#0CB20F" stroke-width="1.9" stroke-miterlimit="3.8637" points="
	28.112,34.282 31.115,37.285 38.709,29.692 "/>
<g>
	<path fill="#DBF3DB" d="M26.761,18.55h-1.076v4.005h1.076c0.771,0,0.969-0.295,0.969-0.877v-2.25
		C27.73,18.846,27.533,18.55,26.761,18.55z"/>
	<path fill="#DBF3DB" d="M26.009,12.606V8.348H12.631v24.41h11.553l6.123-6.123l-0.04-14.029H26.009z M18.048,23.422l-1.367-2.135
		l-1.36,2.135h-1.034l1.86-2.911l-1.802-2.827h1.033l1.303,2.051l1.309-2.051h1.035l-1.811,2.827l1.868,2.911H18.048z
		 M21.565,23.505c-0.54,0-1.192-0.102-1.681-0.298l-0.089-0.036l0.159-0.798l0.123,0.038c0.493,0.154,1.012,0.234,1.504,0.234
		c0.836,0,0.951-0.193,0.951-0.745c0-0.178,0.001-0.316-0.018-0.426c-0.016-0.1-0.044-0.16-0.094-0.209
		c-0.114-0.112-0.358-0.188-0.939-0.319c-1.379-0.309-1.579-0.608-1.579-1.809c0-1.037,0.464-1.537,1.877-1.537
		c0.488,0,1.069,0.067,1.519,0.186l0.094,0.025l-0.079,0.831l-0.128-0.029c-0.43-0.098-0.941-0.154-1.389-0.154
		c-0.861,0-0.952,0.151-0.952,0.704c0,0.183-0.001,0.322,0.017,0.433c0.014,0.099,0.041,0.157,0.086,0.203
		c0.109,0.108,0.34,0.179,0.902,0.319c1.506,0.374,1.625,0.629,1.625,1.766C23.474,22.909,23.14,23.505,21.565,23.505z
		 M28.671,21.727c0,0.937-0.469,1.695-1.885,1.695h-2.043v-5.738h2.043c1.416,0,1.885,0.759,1.885,1.694V21.727z"/>
	<polygon fill="#3D6480" points="12.631,32.758 12.631,8.348 26.009,8.348 26.009,12.606 30.267,12.606 30.307,26.635 
		32.002,24.939 31.967,12.617 30.257,10.907 27.709,10.907 27.709,8.358 25.999,6.649 10.931,6.649 10.931,34.457 22.485,34.457 
		24.184,32.758 	"/>
	<polygon fill="#3D6480" points="19.025,17.684 17.99,17.684 16.681,19.735 15.378,17.684 14.345,17.684 16.147,20.511 
		14.287,23.422 15.321,23.422 16.681,21.287 18.048,23.422 19.082,23.422 17.214,20.511 	"/>
	<path fill="#3D6480" d="M21.849,20.118c-0.563-0.141-0.793-0.211-0.902-0.319c-0.045-0.046-0.072-0.104-0.086-0.203
		c-0.018-0.11-0.017-0.25-0.017-0.433c0-0.553,0.091-0.704,0.952-0.704c0.447,0,0.959,0.057,1.389,0.154l0.128,0.029l0.079-0.831
		l-0.094-0.025c-0.449-0.118-1.03-0.186-1.519-0.186c-1.413,0-1.877,0.5-1.877,1.537c0,1.2,0.2,1.5,1.579,1.809
		c0.581,0.131,0.825,0.207,0.939,0.319c0.05,0.049,0.078,0.109,0.094,0.209c0.019,0.109,0.018,0.248,0.018,0.426
		c0,0.552-0.115,0.745-0.951,0.745c-0.492,0-1.011-0.08-1.504-0.234l-0.123-0.038l-0.159,0.798l0.089,0.036
		c0.488,0.196,1.141,0.298,1.681,0.298c1.575,0,1.909-0.597,1.909-1.621C23.474,20.747,23.355,20.492,21.849,20.118z"/>
	<path fill="#3D6480" d="M26.787,17.684h-2.043v5.738h2.043c1.416,0,1.885-0.759,1.885-1.695v-2.349
		C28.671,18.443,28.203,17.684,26.787,17.684z M27.73,21.678c0,0.582-0.197,0.877-0.969,0.877h-1.076V18.55h1.076
		c0.771,0,0.969,0.296,0.969,0.878V21.678z"/>
</g>
</svg>
