<?xml version="1.0" encoding="utf-8"?>
<!-- Generator: Adobe Illustrator 17.0.0, SVG Export Plug-In . SVG Version: 6.00 Build 0)  -->
<!DOCTYPE svg PUBLIC "-//W3C//DTD SVG 1.1//EN" "http://www.w3.org/Graphics/SVG/1.1/DTD/svg11.dtd">
<svg version="1.1" id="Layer_1" xmlns="http://www.w3.org/2000/svg" xmlns:xlink="http://www.w3.org/1999/xlink" x="0px" y="0px"
	 width="42px" height="42px" viewBox="0 0 42 42" enable-background="new 0 0 42 42" xml:space="preserve">
<g>
	<path fill="#DBF3DB" d="M12.152,8.795v24.41h17.694l-0.058-20.152h-4.257V8.795H12.152z M17.969,23.7l-1.287-2.009L15.402,23.7
		H14.43l1.75-2.739L14.484,18.3h0.973l1.225,1.931l1.232-1.931h0.974l-1.704,2.661l1.759,2.739H17.969z M21.392,23.851
		c-0.54,0-1.192-0.101-1.681-0.297l-0.088-0.036l0.159-0.798l0.122,0.038c0.494,0.153,1.012,0.234,1.504,0.234
		c0.837,0,0.952-0.194,0.952-0.745c0-0.179,0-0.316-0.018-0.427c-0.016-0.099-0.044-0.159-0.094-0.208
		c-0.114-0.112-0.358-0.188-0.94-0.32c-1.379-0.308-1.578-0.607-1.578-1.808c0-1.037,0.463-1.537,1.877-1.537
		c0.488,0,1.068,0.066,1.518,0.186l0.095,0.024l-0.08,0.832l-0.128-0.029c-0.43-0.098-0.941-0.154-1.389-0.154
		c-0.861,0-0.951,0.151-0.951,0.704c0,0.183-0.001,0.322,0.016,0.432c0.015,0.1,0.041,0.157,0.087,0.203
		c0.108,0.109,0.339,0.18,0.901,0.32c1.506,0.374,1.626,0.629,1.626,1.766C23.302,23.255,22.968,23.851,21.392,23.851z M25.602,18.3
		v4.584h2.249V23.7h-3.136v-5.4H25.602z"/>
	<path fill="#3D6480" d="M29.779,11.353h-2.548V8.806l-1.71-1.71H10.452v27.809h21.099l-0.063-21.842L29.779,11.353z M29.788,13.053
		l0.058,20.152H12.152V8.795h13.379v4.258H29.788z"/>
	<polygon fill="#3D6480" points="18.888,18.3 17.914,18.3 16.682,20.23 15.457,18.3 14.484,18.3 16.18,20.961 14.43,23.7 
		15.402,23.7 16.682,21.691 17.969,23.7 18.942,23.7 17.184,20.961 	"/>
	<polygon fill="#3D6480" points="24.715,23.7 27.851,23.7 27.851,22.884 25.602,22.884 25.602,18.3 24.715,18.3 	"/>
	<path fill="#3D6480" d="M21.676,20.465c-0.563-0.141-0.793-0.211-0.901-0.32c-0.046-0.046-0.072-0.104-0.087-0.203
		c-0.017-0.109-0.016-0.249-0.016-0.432c0-0.553,0.09-0.704,0.951-0.704c0.447,0,0.959,0.057,1.389,0.154l0.128,0.029l0.08-0.832
		l-0.095-0.024c-0.449-0.119-1.029-0.186-1.518-0.186c-1.414,0-1.877,0.5-1.877,1.537c0,1.2,0.199,1.5,1.578,1.808
		c0.582,0.132,0.826,0.208,0.94,0.32c0.05,0.049,0.078,0.109,0.094,0.208c0.018,0.11,0.018,0.248,0.018,0.427
		c0,0.551-0.115,0.745-0.952,0.745c-0.492,0-1.01-0.081-1.504-0.234l-0.122-0.038l-0.159,0.798l0.088,0.036
		c0.488,0.196,1.141,0.297,1.681,0.297c1.576,0,1.91-0.596,1.91-1.62C23.302,21.094,23.182,20.839,21.676,20.465z"/>
</g>
</svg>
