<?xml version="1.0" encoding="utf-8"?>
<!-- Generator: Adobe Illustrator 17.0.0, SVG Export Plug-In . SVG Version: 6.00 Build 0)  -->
<!DOCTYPE svg PUBLIC "-//W3C//DTD SVG 1.1//EN" "http://www.w3.org/Graphics/SVG/1.1/DTD/svg11.dtd">
<svg version="1.1" id="Layer_1" xmlns="http://www.w3.org/2000/svg" xmlns:xlink="http://www.w3.org/1999/xlink" x="0px" y="0px"
	 width="42px" height="42px" viewBox="0 0 42 42" enable-background="new 0 0 42 42" xml:space="preserve">
<g>
	<polygon fill="#3D6480" points="37.025,32.147 37.025,35.229 31.801,30.005 30.457,31.349 35.681,36.574 32.537,36.574 
		32.537,38.475 38.925,38.474 38.925,32.147 	"/>
	<path fill="#EFF9FE" d="M32.06,9.362h-22.3v22.301h14.851l7.449-7.449V9.362z M21.983,23.236v4.233h-2.145v-4.233l-4.601-9.68
		h2.271l3.402,7.275l3.403-7.275h2.27L21.983,23.236z"/>
	<polygon fill="#3D6480" points="9.761,9.362 32.06,9.362 32.06,24.213 33.761,22.513 33.761,7.662 8.06,7.662 8.06,33.362 
		22.912,33.362 24.611,31.662 9.761,31.662 	"/>
	<polygon fill="#3D6480" points="20.91,20.831 17.508,13.556 15.238,13.556 19.838,23.236 19.838,27.469 21.983,27.469 
		21.983,23.236 26.583,13.556 24.314,13.556 	"/>
</g>
</svg>
