<?xml version="1.0" encoding="utf-8"?>
<!-- Generator: Adobe Illustrator 17.0.0, SVG Export Plug-In . SVG Version: 6.00 Build 0)  -->
<!DOCTYPE svg PUBLIC "-//W3C//DTD SVG 1.1//EN" "http://www.w3.org/Graphics/SVG/1.1/DTD/svg11.dtd">
<svg version="1.1" id="Layer_1" xmlns="http://www.w3.org/2000/svg" xmlns:xlink="http://www.w3.org/1999/xlink" x="0px" y="0px"
	 width="42px" height="42px" viewBox="0 0 42 42" enable-background="new 0 0 42 42" xml:space="preserve">
<text transform="matrix(1 0 0 1 14.8853 39.7347)" fill="#3D6480" font-family="'OpenSans-Semibold'" font-size="9">YARN</text>
<g>
	<path fill="none" d="M29.827,34.434c-0.237-0.158-0.595-0.236-1.072-0.236H28.06v2.1h0.729c0.489,0,0.844-0.09,1.063-0.271
		s0.33-0.451,0.33-0.809C30.183,34.854,30.064,34.593,29.827,34.434z"/>
	<path fill="none" d="M23.342,34.743c-0.078-0.252-0.131-0.438-0.16-0.555c-0.079,0.361-0.195,0.755-0.347,1.183l-0.58,1.675h1.872
		l-0.602-1.75C23.481,35.179,23.42,34.995,23.342,34.743z"/>
	<path fill="#3D6480" d="M22.579,16.106c-0.349,0.142-0.466,0.347-0.626,0.871c0.17-0.256,0.305-0.425,0.463-0.571
		c0.079-0.073,0.163-0.14,0.261-0.209c0.098-0.069,0.209-0.14,0.34-0.221c0,0,0,0,0,0c0,0,0,0,0,0
		C22.838,16.018,22.696,16.059,22.579,16.106z"/>
	<polygon fill="#3D6480" points="15.302,27.663 15.302,20.136 7.774,20.136 7.774,21.835 12.4,21.835 4.294,29.941 5.496,31.142 
		13.602,23.037 13.602,27.663 	"/>
	<polygon fill="#3D6480" points="27.52,13.378 22.894,13.378 31,5.271 29.798,4.07 21.692,12.176 21.692,7.55 19.992,7.55 
		19.992,15.077 27.52,15.077 	"/>
	<polygon fill="#3D6480" points="7.774,13.378 7.774,15.077 15.302,15.077 15.302,7.55 13.602,7.55 13.602,12.176 5.496,4.07 
		4.294,5.271 12.4,13.378 	"/>
	<path fill="#F2F100" d="M28.399,30.007l0.846,0.75c0.42,0.373,0.807,0.756,1.416,0.766c0.66,0.012,1.406-0.492,1.598-1.117
		l0.222-0.723c-0.131-0.031-0.259-0.066-0.382-0.105c-0.137,0.33-0.126,0.457-0.191,0.699c-0.11,0.412-0.679,0.699-1.275,0.557
		c-0.211-0.051-0.336-0.082-0.412-0.137c0.061,0.164,0.176,0.303,0.395,0.342c0.06,0.011,0.116,0.021,0.172,0.028
		c0.167,0.021,0.332,0.017,0.594-0.043c-0.108,0.056-0.198,0.098-0.276,0.129c-0.235,0.094-0.371,0.087-0.601,0.037
		c-0.201-0.045-0.334-0.139-0.418-0.265c-0.042-0.063-0.071-0.133-0.091-0.209c-0.039-0.152-0.038-0.326-0.016-0.503
		c0.033-0.266,0.114-0.541,0.179-0.763c0.111-0.375,0.073-0.77-0.01-1.145c0.305,0.193,0.547,0.363,0.893,0.48
		c0.61,0.205,1.262,0.412,1.926,0.542c0.221,0.043,0.444,0.078,0.666,0.102c0.89,0.094,1.781,0.005,2.599-0.452
		c0.16-0.089,0.312-0.192,0.454-0.307c0.285-0.229,0.533-0.506,0.746-0.813s0.391-0.646,0.534-0.999
		c0.214-0.53,0.35-1.095,0.409-1.641c0.018-0.162,0.029-0.335,0.035-0.517c0.041-1.273-0.203-2.964-0.668-4.089
		c-0.123-0.297-0.613-0.742-0.926-0.439c-0.079,0.077-0.152,0.161-0.224,0.249c-0.072,0.088-0.141,0.179-0.212,0.269
		c-0.141,0.18-0.286,0.355-0.457,0.49c-0.467,0.367-1.27,0.24-1.124,1.021c0.106,0.568,0.137,1.203,0.016,1.732
		c-0.029,0.127-0.058,0.267-0.09,0.411c-0.032,0.144-0.066,0.293-0.105,0.436c-0.078,0.286-0.175,0.552-0.307,0.723
		c0.04-0.145,0.092-0.405,0.14-0.692s0.09-0.603,0.108-0.856c0.01-0.139,0.007-0.292-0.005-0.453s-0.033-0.329-0.058-0.498
		l-0.177,0.004c-0.107,0.003-0.248,0.081-0.373,0.182s-0.236,0.226-0.283,0.322c-0.065,0.133-0.116,0.264-0.159,0.393
		c-0.129,0.388-0.194,0.761-0.414,1.142c0.236-0.566,0.103-1.078,0.318-1.686c0.076-0.217,0.268-0.402,0.49-0.514
		c-0.123-0.018-0.248,0.035-0.43,0.078c-0.294,0.07-0.473,0.2-0.607,0.366c-0.045,0.055-0.084,0.115-0.122,0.178
		c-0.149,0.25-0.26,0.551-0.5,0.845c0.058-0.106,0.105-0.208,0.145-0.306c0.159-0.389,0.204-0.706,0.378-0.943
		c0.087-0.118,0.206-0.217,0.387-0.295c0.091-0.039,0.197-0.073,0.323-0.101c0.166-0.038,0.309-0.064,0.438-0.06
		s0.244,0.041,0.353,0.128l0.185-0.014c-0.028-0.156-0.06-0.311-0.089-0.455c-0.46-0.061-0.885-0.049-1.355,0.023
		c0.102-0.045,0.2-0.084,0.297-0.121c-0.029-0.029-0.057-0.072-0.076-0.117c-0.061-0.117-0.088-0.252-0.074-0.391
		c0.01-0.107,0.043-0.205,0.094-0.291c-0.016,0.004-0.031,0.008-0.047,0.014c-0.111,0.045-0.351,0.031-0.458-0.006
		c0.212-0.035,0.526-0.146,0.73-0.246c0.142-0.086,0.295-0.125,0.454-0.109c0.08,0.008,0.156,0.029,0.227,0.061
		c0.094,0.027,0.201,0.066,0.327,0.111c-0.193-0.404-0.413-0.77-0.677-1.137c-0.124-0.174-0.238-0.291-0.368-0.391
		c-0.065-0.05-0.133-0.096-0.209-0.143s-0.158-0.095-0.25-0.149c-0.08-0.047-0.158-0.096-0.235-0.146
		c-0.136-0.024-0.28-0.049-0.422-0.061c-0.142-0.012-0.284-0.012-0.414,0.012c0.215-0.084,0.378-0.117,0.567-0.135
		c-0.522-0.373-0.972-0.793-1.485-1.225c-0.993-0.835-1.891-1.223-2.857-1.264c-0.241-0.01-0.487,0.001-0.739,0.032
		c-0.757,0.094-1.575,0.368-2.522,0.779c-1.026,0.445-1.394,0.896-2.025,1.703c0.662-0.016,1.3-0.039,1.96-0.102
		c-0.683,0.16-1.336,0.287-2.004,0.389c-0.74,0.113-0.967,0.094-1.525,0.637c-1.027,0.998-1.889,2.129-2.828,3.143
		c-0.544,0.588-0.814,1.176-1.135,1.846c-0.079,0.167-0.136,0.307-0.17,0.433c-0.102,0.379,0.003,0.629,0.322,1.061
		c0.109,0.147,0.207,0.275,0.295,0.391c0.266,0.348,0.448,0.596,0.586,0.988c0.48-0.742,1.06-1.357,1.67-2.094
		c-0.498,0.797-0.953,1.553-1.365,2.365c-0.064,0.126-0.12,0.237-0.167,0.34c-0.143,0.311-0.212,0.561-0.207,0.98
		c0.481,0.557,0.784,0.852,1.231,0.975c0.481,0.133,0.935,0.109,1.37-0.115c1.083-0.561,2.113-1.293,3.315-1.385
		c0.078-0.138,0.143-0.281,0.197-0.427c0.379-1.024,0.222-2.226,0.027-3.329c-0.185-1.045-0.138-1.967,0.11-3.016
		c0.063,1.019,0.144,1.965,0.346,2.963c0.215,1.066,0.303,2.026,0.099,3.053v0c0,0,0,0,0.001,0c0.127,0.028,0.311,0.088,0.531,0.199
		c0.025,0.013,0.052,0.029,0.077,0.043c0.084,0.046,0.174,0.102,0.267,0.166c0.033,0.022,0.065,0.044,0.099,0.069
		c0.124,0.091,0.252,0.194,0.386,0.321c0,0,0.001,0.001,0.001,0.001c0,0,0,0,0,0C27.035,29.487,27.642,29.767,28.399,30.007z
		 M34.87,21.774c0.1,0.009,0.189,0.02,0.273,0.028c0.167,0.017,0.309,0.023,0.465-0.014c0.078-0.019,0.16-0.048,0.249-0.092
		c0.167-0.083,0.323-0.178,0.468-0.285c0.435-0.322,0.771-0.747,1.011-1.23c-0.049,0.192-0.11,0.378-0.186,0.552
		c-0.231,0.522-0.604,0.945-1.215,1.163C35.534,22.038,35.276,21.891,34.87,21.774z M30.011,27.991
		c-0.111,0.061-0.182,0.096-0.237,0.146s-0.097,0.112-0.149,0.228c-0.1,0.217-0.201,0.48-0.287,0.709
		c0.016-0.101,0.035-0.213,0.054-0.326c0.019-0.113,0.038-0.226,0.053-0.326c0.068-0.428,0.119-0.533,0.553-0.605
		c0.163-0.027,0.455-0.088,0.617-0.115C30.456,27.786,30.169,27.905,30.011,27.991z M29.063,22.138
		c0.096-0.065,0.201-0.11,0.311-0.146s0.225-0.059,0.343-0.082c0.235-0.046,0.477-0.085,0.702-0.188
		c-0.153,0.139-0.35,0.25-0.549,0.357c0.219,0.08,0.41,0.242,0.518,0.471c0.047,0.096,0.074,0.195,0.084,0.297
		c0.302-0.1,0.598-0.146,0.848-0.143c-0.447,0.125-0.908,0.334-1.339,0.61c-0.216,0.138-0.424,0.292-0.619,0.46
		c-0.195,0.168-0.378,0.35-0.541,0.544c0.074-0.201,0.176-0.385,0.301-0.547c-0.055-0.023-0.106-0.055-0.148-0.098
		c-0.032-0.031-0.059-0.068-0.079-0.109c0.021,0.041,0.046,0.078,0.077,0.107c-0.105-0.084-0.194-0.193-0.256-0.322
		c-0.061-0.127-0.09-0.26-0.09-0.391c-0.221,0.178-0.461,0.344-0.711,0.441C28.257,23.091,28.726,22.366,29.063,22.138z
		 M28.643,20.04c-0.779,0.374-1.124,0.828-1.311,1.314c-0.062,0.162-0.107,0.327-0.145,0.494
		C27.01,20.962,27.268,20.384,28.643,20.04z M23.852,20.371c-0.234,0.075-0.467,0.142-0.708,0.202
		c-0.438,0.578-0.706,0.875-0.808,1.648c-0.03-0.19-0.054-0.341-0.067-0.47c-0.041-0.387,0.008-0.572,0.263-0.999
		c-0.049,0.024-0.096,0.054-0.148,0.092c-0.052,0.038-0.107,0.083-0.173,0.139c-0.473,0.404-1.09,1.994-1.336,2.563
		c0.039-0.171,0.099-0.407,0.175-0.671c0.114-0.397,0.263-0.859,0.431-1.268c0.168-0.409,0.355-0.767,0.544-0.953
		c0.083-0.082,0.15-0.143,0.21-0.189c0.122-0.092,0.22-0.125,0.376-0.146c0.078-0.011,0.17-0.019,0.287-0.03
		c0.557-0.053,1.112-0.109,1.669-0.172C24.322,20.212,24.086,20.296,23.852,20.371z"/>
	<path fill="#F2F100" d="M34.354,21.225c0.065,0.064,0.118,0.143,0.154,0.229c0.021-0.02,0.042-0.037,0.064-0.053l-0.083-0.18
		L34.354,21.225z"/>
	<path fill="#3D6480" d="M22.06,17.69c0.144-0.256,0.286-0.472,0.441-0.662c0.078-0.095,0.158-0.183,0.244-0.267
		c0.258-0.251,0.562-0.458,0.961-0.671c0.133-0.071,0.277-0.142,0.433-0.216c-0.354,0.086-0.645,0.167-0.89,0.264
		c-0.245,0.097-0.444,0.212-0.614,0.367s-0.31,0.35-0.437,0.609c-0.127,0.259-0.241,0.582-0.359,0.992
		C21.916,17.956,21.988,17.818,22.06,17.69z"/>
	<path fill="#3D6480" d="M38.798,23.37c-0.021-0.227-0.048-0.457-0.081-0.687c-0.133-0.917-0.367-1.818-0.699-2.452
		c-0.024-0.047-0.059-0.095-0.103-0.143c-0.304-0.335-1.02-0.654-1.357-0.312c-0.145,0.147-0.268,0.333-0.393,0.516
		c-0.063,0.091-0.126,0.182-0.194,0.266c-0.067,0.084-0.138,0.163-0.217,0.229c-0.122,0.104-0.258,0.182-0.397,0.247
		s-0.28,0.118-0.412,0.173c-0.205-0.553-0.498-0.98-0.857-1.408c-0.285-0.34-0.555-0.51-0.932-0.746
		c-0.373-0.233-0.703-0.497-1.026-0.772c-0.161-0.138-0.32-0.278-0.481-0.42c-0.161-0.141-0.324-0.283-0.494-0.423
		c-0.375-0.309-0.74-0.541-1.103-0.738c-0.38-0.207-0.759-0.373-1.14-0.466c-0.248-0.061-0.498-0.098-0.752-0.114
		c-0.508-0.032-1.032,0.023-1.588,0.152c-0.278,0.065-0.565,0.148-0.861,0.25s-0.604,0.22-0.923,0.354
		c-0.457,0.193-0.825,0.411-1.147,0.661c-0.214,0.167-0.408,0.348-0.592,0.545c-0.185,0.197-0.361,0.411-0.541,0.642
		c-0.09,0.116-0.181,0.236-0.275,0.361c-0.452,0.023-0.762,0.111-1.24,0.533c-0.072,0.064-0.136,0.134-0.207,0.198
		c-0.111,0.107-0.223,0.213-0.333,0.319h-0.461v0.442c-0.002,0.002-0.004,0.003-0.005,0.005l-0.571,0.625
		c-0.232,0.26-0.464,0.527-0.699,0.804s-0.476,0.562-0.726,0.856c-0.38,0.448-0.646,0.9-0.89,1.373
		c-0.082,0.158-0.161,0.318-0.242,0.481c-0.333,0.677-0.412,1.039-0.181,1.513c0.077,0.158,0.188,0.328,0.335,0.526
		c0.202,0.27,0.36,0.478,0.499,0.676c0.068,0.097,0.133,0.199,0.19,0.296c0.121,0.203,0.226,0.413,0.317,0.686
		c-0.184,0.377-0.25,0.697-0.311,1.213c0.622,0.68,1.085,1.146,1.689,1.291c0.148,0.035,0.29,0.06,0.428,0.073
		c0.138,0.013,0.272,0.014,0.404,0.003c0.264-0.023,0.521-0.098,0.785-0.234c0.295-0.151,0.584-0.313,0.873-0.471
		c0.578-0.316,1.154-0.619,1.768-0.792c0.307-0.087,0.625-0.141,0.957-0.149c0.083-0.204,0.152-0.403,0.211-0.599
		c0.003-0.008,0.004-0.017,0.007-0.025c0.057-0.189,0.102-0.376,0.139-0.56c0,0,0-0.001,0-0.001v0
		c0.204-1.027,0.116-1.988-0.099-3.053c-0.201-0.998-0.282-1.943-0.346-2.963c-0.248,1.049-0.295,1.971-0.11,3.016
		c0.195,1.102,0.352,2.305-0.027,3.329c-0.054,0.146-0.119,0.289-0.197,0.427c-1.202,0.092-2.232,0.824-3.315,1.385
		c-0.436,0.225-0.889,0.248-1.37,0.115c-0.447-0.123-0.75-0.418-1.231-0.975c-0.005-0.419,0.064-0.669,0.207-0.98
		c0.048-0.104,0.103-0.214,0.167-0.34c0.412-0.813,0.867-1.568,1.365-2.365c-0.61,0.736-1.189,1.352-1.67,2.094
		c-0.138-0.393-0.32-0.64-0.586-0.988c-0.089-0.116-0.187-0.243-0.295-0.391c-0.319-0.432-0.424-0.682-0.322-1.061
		c0.034-0.126,0.091-0.267,0.17-0.433c0.32-0.67,0.591-1.258,1.135-1.846c0.939-1.014,1.801-2.145,2.828-3.143
		c0.559-0.543,0.785-0.523,1.525-0.637c0.668-0.102,1.321-0.229,2.004-0.389c-0.66,0.063-1.298,0.086-1.96,0.102
		c0.632-0.807,0.999-1.258,2.025-1.703c0.947-0.412,1.765-0.686,2.522-0.779c0.252-0.031,0.498-0.042,0.739-0.032
		c0.965,0.042,1.863,0.429,2.857,1.264c0.514,0.432,0.963,0.852,1.485,1.225c-0.189,0.018-0.353,0.051-0.567,0.135
		c0.131-0.024,0.272-0.024,0.414-0.012c0.142,0.012,0.286,0.037,0.422,0.061c0.077,0.051,0.155,0.1,0.235,0.146
		c0.092,0.054,0.175,0.102,0.25,0.149s0.144,0.093,0.209,0.143c0.129,0.1,0.244,0.217,0.368,0.391
		c0.264,0.367,0.483,0.732,0.677,1.137c-0.126-0.045-0.233-0.084-0.327-0.111c-0.07-0.031-0.146-0.053-0.227-0.061
		c-0.159-0.016-0.313,0.023-0.454,0.109c-0.204,0.1-0.519,0.211-0.73,0.246c0.107,0.037,0.347,0.051,0.458,0.006
		c0.016-0.006,0.031-0.01,0.047-0.014c-0.051,0.086-0.084,0.184-0.094,0.291c-0.014,0.139,0.014,0.273,0.074,0.391
		c-0.011-0.025-0.009-0.052-0.014-0.078s-0.017-0.054-0.014-0.078c0.016-0.158,0.151-0.275,0.311-0.26
		c0.08,0.008,0.149,0.047,0.196,0.104s0.073,0.132,0.065,0.212c-0.003,0.033-0.012,0.064-0.025,0.094
		c-0.146,0.025-0.291,0.068-0.441,0.123c-0.097,0.037-0.195,0.076-0.297,0.121c0.471-0.072,0.896-0.084,1.355-0.023
		c0.029,0.145,0.061,0.299,0.089,0.455l-0.185,0.014c-0.108-0.087-0.223-0.123-0.353-0.128s-0.273,0.021-0.438,0.06
		c-0.126,0.029-0.232,0.062-0.323,0.101c-0.182,0.078-0.3,0.177-0.387,0.295c-0.174,0.237-0.218,0.553-0.378,0.943
		c-0.04,0.097-0.087,0.199-0.145,0.306c0.24-0.294,0.351-0.595,0.5-0.845c0.037-0.063,0.077-0.122,0.122-0.178
		c0.134-0.166,0.313-0.296,0.607-0.366c0.182-0.043,0.307-0.096,0.43-0.078c-0.223,0.111-0.414,0.297-0.49,0.514
		c-0.216,0.607-0.082,1.119-0.318,1.686c0.22-0.381,0.285-0.754,0.414-1.142c0.043-0.129,0.093-0.26,0.159-0.393
		c0.047-0.096,0.157-0.22,0.283-0.322s0.266-0.179,0.373-0.182l0.177-0.004c0.026,0.169,0.047,0.337,0.058,0.498
		s0.015,0.314,0.005,0.453c-0.019,0.254-0.061,0.569-0.108,0.856s-0.1,0.548-0.14,0.692c0.133-0.171,0.229-0.437,0.307-0.723
		c0.039-0.143,0.073-0.292,0.105-0.436c0.032-0.144,0.061-0.285,0.09-0.411c0.121-0.529,0.091-1.164-0.016-1.732
		c-0.146-0.781,0.657-0.654,1.124-1.021c0.171-0.135,0.315-0.31,0.457-0.49c0.071-0.09,0.14-0.181,0.212-0.269
		c0.072-0.088,0.145-0.172,0.224-0.249c0.313-0.303,0.803,0.143,0.926,0.439c0.465,1.125,0.708,2.816,0.668,4.089
		c-0.006,0.182-0.017,0.355-0.035,0.517c-0.059,0.546-0.195,1.11-0.409,1.641c-0.143,0.354-0.321,0.692-0.534,0.999
		s-0.462,0.584-0.746,0.813c-0.142,0.115-0.294,0.218-0.454,0.307c-0.818,0.457-1.709,0.546-2.599,0.452
		c-0.222-0.023-0.445-0.058-0.666-0.102c-0.663-0.13-1.316-0.337-1.926-0.542c-0.346-0.117-0.588-0.287-0.893-0.48
		c0.083,0.375,0.121,0.77,0.01,1.145c-0.066,0.222-0.146,0.497-0.179,0.763c-0.022,0.178-0.023,0.352,0.016,0.503
		c0.02,0.076,0.049,0.146,0.091,0.209c0.084,0.125,0.217,0.22,0.418,0.265c0.23,0.05,0.365,0.057,0.601-0.037
		c0.078-0.031,0.168-0.074,0.276-0.129c-0.262,0.06-0.427,0.064-0.594,0.043c-0.056-0.007-0.112-0.017-0.172-0.028
		c-0.219-0.039-0.334-0.178-0.395-0.342c0.076,0.055,0.201,0.086,0.412,0.137c0.597,0.143,1.165-0.145,1.275-0.557
		c0.065-0.242,0.055-0.369,0.191-0.699c0.123,0.039,0.251,0.074,0.382,0.105l-0.222,0.723c-0.191,0.625-0.938,1.129-1.598,1.117
		c-0.609-0.01-0.996-0.393-1.416-0.766l-0.846-0.75c-0.757-0.24-1.364-0.519-2.068-1.04c0,0,0,0,0,0
		c-0.001,0-0.001-0.001-0.002-0.001c0.488,0.574,0.824,0.898,1.487,1.186l0.435,0.168l0.057,0.082l0.719,0.693
		c0.494,0.475,0.902,0.863,1.654,0.828h0c0.392-0.019,0.813-0.182,1.164-0.436c0.263-0.19,0.488-0.431,0.632-0.699
		c0.048-0.089,0.087-0.182,0.116-0.276l0.16-0.529l0.069-0.228c0.592,0.112,1.233,0.156,1.855,0.103
		c0.311-0.027,0.617-0.077,0.91-0.156c0.293-0.078,0.572-0.185,0.829-0.322c0.845-0.451,1.432-1.161,1.822-1.995
		c0.105-0.224,0.196-0.456,0.273-0.696c0.033-0.105,0.067-0.21,0.095-0.318c0.097-0.371,0.168-0.754,0.208-1.143
		c0.018-0.174,0.029-0.362,0.034-0.562C38.856,24.266,38.839,23.824,38.798,23.37z M34.509,21.454
		c-0.036-0.086-0.089-0.164-0.154-0.229l0.136-0.004l0.083,0.18C34.551,21.417,34.529,21.434,34.509,21.454z"/>
	<path fill="#3D6480" d="M35.935,21.895c0.611-0.218,0.984-0.641,1.215-1.163c0.077-0.174,0.138-0.359,0.186-0.552
		c-0.24,0.483-0.576,0.909-1.011,1.23c-0.145,0.107-0.301,0.203-0.468,0.285c-0.09,0.044-0.171,0.074-0.249,0.092
		c-0.156,0.037-0.299,0.031-0.465,0.014c-0.083-0.008-0.173-0.019-0.273-0.028C35.276,21.891,35.534,22.038,35.935,21.895z"/>
	<path fill="#3D6480" d="M28.624,22.958c0,0.131,0.029,0.264,0.09,0.391c0.062,0.129,0.15,0.238,0.256,0.322
		c-0.031-0.029-0.057-0.066-0.077-0.107c-0.023-0.048-0.035-0.098-0.037-0.148c-0.003-0.069,0.019-0.134,0.05-0.194
		c0.037-0.072,0.091-0.136,0.169-0.173c0.048-0.023,0.099-0.035,0.149-0.037c0.006,0,0.013,0.003,0.019,0.003
		c0.144,0.001,0.283,0.079,0.349,0.216c0.008,0.02,0.016,0.039,0.021,0.057c-0.184,0.137-0.353,0.297-0.493,0.484
		c-0.125,0.162-0.227,0.346-0.301,0.547c0.164-0.194,0.346-0.376,0.541-0.544c0.195-0.168,0.404-0.322,0.619-0.46
		c0.431-0.275,0.893-0.485,1.339-0.61c-0.25-0.004-0.546,0.043-0.848,0.143c-0.01-0.102-0.037-0.201-0.084-0.297
		c-0.107-0.229-0.299-0.391-0.518-0.471c0.199-0.107,0.396-0.219,0.549-0.357c-0.225,0.104-0.467,0.143-0.702,0.188
		c-0.117,0.023-0.233,0.047-0.343,0.082s-0.215,0.081-0.311,0.146c-0.338,0.229-0.807,0.953-1.15,1.262
		C28.163,23.302,28.403,23.136,28.624,22.958z"/>
	<path fill="#3D6480" d="M29.444,28.421c-0.016,0.101-0.034,0.213-0.053,0.326c-0.019,0.113-0.038,0.226-0.054,0.326
		c0.086-0.229,0.188-0.492,0.287-0.709c0.053-0.115,0.094-0.178,0.149-0.228s0.126-0.085,0.237-0.146
		c0.158-0.086,0.445-0.205,0.604-0.291c-0.162,0.027-0.454,0.088-0.617,0.115C29.563,27.888,29.513,27.993,29.444,28.421z"/>
	<path fill="#3D6480" d="M27.331,21.354c0.187-0.486,0.533-0.941,1.311-1.314c-1.375,0.344-1.633,0.922-1.456,1.809
		C27.224,21.681,27.269,21.516,27.331,21.354z"/>
	<path fill="#3D6480" d="M22.613,20.318c-0.156,0.021-0.254,0.054-0.376,0.146c-0.061,0.046-0.128,0.107-0.21,0.189
		c-0.189,0.187-0.376,0.544-0.544,0.953c-0.168,0.41-0.318,0.872-0.431,1.268c-0.076,0.264-0.136,0.5-0.175,0.671
		c0.246-0.568,0.863-2.158,1.336-2.563c0.065-0.056,0.121-0.101,0.173-0.139c0.051-0.038,0.099-0.067,0.148-0.092
		c-0.254,0.426-0.304,0.612-0.263,0.999c0.014,0.129,0.038,0.28,0.067,0.47c0.102-0.773,0.369-1.07,0.808-1.648
		c0.241-0.061,0.473-0.127,0.708-0.202s0.47-0.159,0.717-0.255c-0.557,0.063-1.112,0.119-1.669,0.172
		C22.783,20.299,22.691,20.307,22.613,20.318z"/>
	<path fill="#FFFFCD" d="M29.593,23.229c-0.067-0.137-0.205-0.215-0.349-0.216c-0.006,0-0.013-0.003-0.019-0.003
		c-0.05,0.002-0.101,0.014-0.149,0.037c-0.078,0.037-0.132,0.101-0.169,0.173c-0.031,0.06-0.053,0.125-0.05,0.194
		c0.002,0.05,0.014,0.101,0.037,0.148c0.021,0.041,0.047,0.078,0.079,0.109c0.042,0.043,0.094,0.074,0.148,0.098
		c0.141-0.188,0.31-0.348,0.493-0.484C29.608,23.268,29.601,23.249,29.593,23.229z"/>
	<path fill="#FFFFCD" d="M33.743,22.048c0.014-0.029,0.022-0.061,0.025-0.094c0.008-0.08-0.018-0.155-0.065-0.212
		s-0.116-0.096-0.196-0.104c-0.159-0.016-0.295,0.102-0.311,0.26c-0.002,0.024,0.009,0.052,0.014,0.078s0.003,0.053,0.014,0.078
		c0.02,0.045,0.047,0.088,0.076,0.117C33.452,22.116,33.597,22.073,33.743,22.048z"/>
	<polygon fill="#3D6480" points="19.069,33.309 17.548,36.241 16.028,33.309 14.885,33.309 17.017,37.278 17.017,39.735 
		18.071,39.735 18.071,37.243 20.211,33.309 	"/>
	<path fill="#3D6480" d="M22.615,33.284l-2.404,6.451h1.107l0.628-1.785h2.457l0.642,1.785h1.116l-2.404-6.451H22.615z
		 M22.255,37.046l0.58-1.675c0.152-0.428,0.268-0.821,0.347-1.183c0.029,0.117,0.083,0.303,0.16,0.555s0.139,0.436,0.183,0.553
		l0.602,1.75H22.255z"/>
	<path fill="#3D6480" d="M31.264,35.182c0-0.627-0.199-1.096-0.598-1.406s-1.012-0.467-1.841-0.467H27.01v6.426h1.05v-2.566h1.037
		l1.538,2.566h1.195l-1.815-2.844C30.848,36.552,31.264,35.981,31.264,35.182z M28.79,36.298H28.06v-2.1h0.694
		c0.478,0,0.835,0.078,1.072,0.236s0.356,0.42,0.356,0.783c0,0.357-0.11,0.627-0.33,0.809S29.279,36.298,28.79,36.298z"/>
	<path fill="#3D6480" d="M37.152,36.677c0,0.236,0.009,0.567,0.026,0.99c0.018,0.424,0.029,0.669,0.035,0.736h-0.026l-3.151-5.094
		h-1.274v6.426h0.954v-3.34c0-0.451-0.021-0.949-0.062-1.494l-0.022-0.286h0.035l3.16,5.12h1.288v-6.426h-0.962V36.677z"/>
</g>
</svg>
