<?xml version="1.0" encoding="utf-8"?>
<!-- Generator: Adobe Illustrator 17.0.0, SVG Export Plug-In . SVG Version: 6.00 Build 0)  -->
<!DOCTYPE svg PUBLIC "-//W3C//DTD SVG 1.1//EN" "http://www.w3.org/Graphics/SVG/1.1/DTD/svg11.dtd">
<svg version="1.1" id="Layer_1" xmlns="http://www.w3.org/2000/svg" xmlns:xlink="http://www.w3.org/1999/xlink" x="0px" y="0px"
	 width="42px" height="42px" viewBox="0 0 42 42" enable-background="new 0 0 42 42" xml:space="preserve">
<g>
	<path fill="#EFF9FE" d="M15.069,30.21h1.122c0.181,0,0.328-0.147,0.328-0.328v-0.506c0-0.181-0.147-0.328-0.328-0.328h-1.122
		c-0.182,0-0.328,0.147-0.328,0.328v0.506C14.741,30.063,14.888,30.21,15.069,30.21z"/>
	<path fill="#EFF9FE" d="M25.53,8.795h-9.907v1.49h-1.2v-1.49h-2.271v24.41h17.634V13.053H25.53V8.795z M14.422,12.71h1.2v2.35h-1.2
		V12.71z M14.422,17.484h1.2v2.349h-1.2V17.484z M14.422,22.244h1.2v2.35h-1.2V22.244z M16.933,30.724h-2.604v-5.539h2.604V30.724z
		 M17.004,22.221h-1.2v-2.35h1.2V22.221z M17.004,17.446h-1.2v-2.35h1.2V17.446z M17.004,12.672h-1.2v-2.349h1.2V12.672z"/>
	<path fill="#3D6480" d="M27.23,11.354V8.805l-1.709-1.709H10.452v27.809h21.034V13.061l-1.708-1.708H27.23z M29.786,33.205H12.152
		V8.795h2.271v1.49h1.2v-1.49h9.907v4.258h4.256V33.205z"/>
	<rect x="14.422" y="12.71" fill="#3D6480" width="1.2" height="2.35"/>
	<rect x="14.422" y="17.484" fill="#3D6480" width="1.2" height="2.349"/>
	<rect x="15.804" y="10.323" fill="#3D6480" width="1.2" height="2.349"/>
	<rect x="15.804" y="15.097" fill="#3D6480" width="1.2" height="2.35"/>
	<rect x="15.804" y="19.871" fill="#3D6480" width="1.2" height="2.35"/>
	<rect x="14.422" y="22.244" fill="#3D6480" width="1.2" height="2.35"/>
	<path fill="#3D6480" d="M14.329,30.724h2.604v-5.539h-2.604V30.724z M14.741,29.376c0-0.181,0.146-0.328,0.328-0.328h1.122
		c0.181,0,0.328,0.147,0.328,0.328v0.506c0,0.181-0.147,0.328-0.328,0.328h-1.122c-0.182,0-0.328-0.147-0.328-0.328V29.376z"/>
</g>
</svg>
