<?xml version="1.0" encoding="utf-8"?>
<!-- Generator: Adobe Illustrator 18.0.0, SVG Export Plug-In . SVG Version: 6.00 Build 0)  -->
<!DOCTYPE svg PUBLIC "-//W3C//DTD SVG 1.1//EN" "http://www.w3.org/Graphics/SVG/1.1/DTD/svg11.dtd">
<svg version="1.1" id="Layer_1" xmlns="http://www.w3.org/2000/svg" xmlns:xlink="http://www.w3.org/1999/xlink" x="0px" y="0px"
	 viewBox="0 0 42 42" enable-background="new 0 0 42 42" xml:space="preserve">
<g>
	<g>
		<path fill="#EFF9FE" d="M25.1,18.4v-1.2c0-0.7-0.4-1-1.2-1h-2.7v3.5h2.4C24.7,19.6,25.1,19.2,25.1,18.4z"/>
		<path fill="#EFF9FE" d="M23.9,20.8h-2.7v3.6H24c1,0,1.5-0.4,1.5-1.2v-1.1C25.5,21.3,25,20.8,23.9,20.8z"/>
		<path fill="#EFF9FE" d="M9.8,9.9v22.3h10.9l11.4-11.4V9.9H9.8z M17.1,25.7h-1.4V15h1.4V25.7z M24.2,25.7h-4.3V15H24
			c1.7,0,2.5,0.8,2.5,2.2v1.2c0,0.8-0.3,1.4-1.2,1.8c0.9,0.2,1.6,0.8,1.6,1.9v1.3C26.8,24.9,25.8,25.7,24.2,25.7z"/>
		<polygon fill="#3D6480" points="9.8,32.1 9.8,9.9 32.1,9.9 32.1,20.7 33.8,19 33.8,8.1 8.1,8.1 8.1,33.9 19,33.9 20.7,32.1 		"/>
		<rect x="15.7" y="15" fill="#3D6380" width="1.4" height="10.7"/>
		<path fill="#3D6380" d="M25.3,20.2c0.9-0.4,1.2-1,1.2-1.8v-1.2c0-1.4-0.8-2.2-2.5-2.2h-4.1v10.7h4.3c1.6,0,2.6-0.8,2.6-2.3v-1.3
			C26.8,21,26.2,20.3,25.3,20.2z M21.2,16.2h2.7c0.8,0,1.2,0.3,1.2,1v1.2c0,0.8-0.4,1.2-1.4,1.2h-2.4V16.2z M25.5,23.3
			c0,0.8-0.5,1.2-1.5,1.2h-2.8v-3.6h2.7c1.1,0,1.5,0.5,1.5,1.3V23.3z"/>
	</g>
	<g>
		<polygon fill="#FFEBCD" points="39.6,30.1 38.5,28.4 38.5,27.5 33.2,25.3 31.4,27.1 29.6,25.3 24.5,27.5 24.5,28.4 23,30.3 
			24.5,31 24.5,35.7 31.5,39.2 38.5,35.7 38.5,30.7 		"/>
		<path fill="#3D6480" d="M38.4,27.4l-4-1.7l-0.4,0.9l2.7,1.1l-5.3,2.7l-5.4-2.7l2.6-1.1l-0.4-0.9l-3.8,1.6l-2.2,3l2.2,1.2v4.1
			l7,3.5l7-3.5v-4.4l1.9-1L38.4,27.4z M25,27.7L25,27.7L25,27.7L25,27.7L25,27.7z M23.7,30.1l1.4-1.8l5.6,2.8L29.3,33L23.7,30.1z
			 M25.4,32l4.1,2.2l1.5-2.1V38l-5.7-2.9V32z M37.5,35.1l-5.9,3v-6.3l1.6,2.4l4.3-2.4V35.1z M33.4,32.9l-1.2-1.8l5.6-2.9l1.1,1.7
			L33.4,32.9z"/>
		<path fill="#0CB20F" d="M33.5,24.9l-1.6,1.6v-1.7c0-2.8-1.2-4.1-3.9-4.1v1c2.2,0,2.9,0.8,2.9,3v1.7l-1.7-1.7l-0.7,0.7l2.9,2.9
			l2.8-2.8L33.5,24.9z"/>
	</g>
</g>
</svg>
