<?xml version="1.0" encoding="utf-8"?>
<!-- Generator: Adobe Illustrator 23.1.1, SVG Export Plug-In . SVG Version: 6.00 Build 0)  -->
<svg version="1.1" id="Layer_1" xmlns="http://www.w3.org/2000/svg" xmlns:xlink="http://www.w3.org/1999/xlink" x="0px" y="0px"
	 viewBox="0 0 32 32" style="enable-background:new 0 0 32 32;" xml:space="preserve">
<style type="text/css">
	.st0{clip-path:url(#SVGID_2_);}
	.st1{fill:none;}
	.st2{fill:#FFFFFF;}
</style>
<g>
	<defs>
		<rect id="SVGID_1_" width="32" height="32"/>
	</defs>
	<clipPath id="SVGID_2_">
		<use xlink:href="#SVGID_1_"  style="overflow:visible;"/>
	</clipPath>
	<g id="People.S_D" class="st0">
		<rect id="Rectangle_724" class="st1" width="32" height="32"/>
		<path id="Path_1961" class="st2" d="M20,14.9c0.9-0.7,1.5-1.7,1.5-2.9c0-1.9-1.6-3.5-3.5-3.5s-3.5,1.6-3.5,3.5
			c0,0.2,0,0.4,0.1,0.6c-0.2-0.1-0.4-0.1-0.6-0.1c-1.9,0-3.5,1.6-3.5,3.5c0,1.1,0.6,2.2,1.5,2.9c-2.1,0.8-3.5,2.8-3.5,5.1h1
			c0-2.5,2-4.5,4.5-4.5s4.5,2,4.5,4.5h1c0-2.3-1.4-4.3-3.5-5.1c0.9-0.7,1.5-1.7,1.5-2.9c0-0.1,0-0.3,0-0.4c0.5-0.1,0.3-0.1,0.5-0.1
			c2.5,0,4.5,2,4.5,4.5c0,0,0,0,0,0h1C23.5,17.7,22.1,15.7,20,14.9z M15.6,12.6c0-0.2-0.1-0.4-0.1-0.6c0-1.4,1.1-2.5,2.5-2.5
			s2.5,1.1,2.5,2.5s-1.1,2.5-2.5,2.5c-0.3,0-0.6-0.1-0.9-0.2c-0.3-0.6-0.8-1.1-1.4-1.4L15.6,12.6z M14,18.5c-1.4,0-2.5-1.1-2.5-2.5
			s1.1-2.5,2.5-2.5s2.5,1.1,2.5,2.5C16.5,17.4,15.4,18.5,14,18.5C14,18.5,14,18.5,14,18.5z"/>
	</g>
</g>
</svg>
