<?xml version="1.0" encoding="UTF-8" standalone="no"?>
<svg
   width="32"
   height="32"
   viewBox="0 0 32 32"
   fill="none"
   version="1.1"
   id="svg1"
   sodipodi:docname="VFS_D.svg"
   inkscape:version="1.4.3 (0d15f75, 2025-12-25)"
   xmlns:inkscape="http://www.inkscape.org/namespaces/inkscape"
   xmlns:sodipodi="http://sodipodi.sourceforge.net/DTD/sodipodi-0.dtd"
   xmlns="http://www.w3.org/2000/svg"
   xmlns:svg="http://www.w3.org/2000/svg">
  <defs
     id="defs1" />
  <sodipodi:namedview
     id="namedview1"
     pagecolor="#ffffff"
     bordercolor="#000000"
     borderopacity="0.25"
     inkscape:showpageshadow="2"
     inkscape:pageopacity="0.0"
     inkscape:pagecheckerboard="0"
     inkscape:deskcolor="#d1d1d1"
     inkscape:zoom="11.313708"
     inkscape:cx="12.506952"
     inkscape:cy="12.462758"
     inkscape:window-width="1024"
     inkscape:window-height="1027"
     inkscape:window-x="562"
     inkscape:window-y="175"
     inkscape:window-maximized="0"
     inkscape:current-layer="svg1" />
  <path
     d="M 22.666666,16.727273 H 9.3333332 c -0.353621,0 -0.6927572,0.153251 -0.9428094,0.426031 C 8.1404758,17.426083 8,17.796049 8,18.181819 v 4.363636 c 0,0.385746 0.140476,0.755781 0.3905238,1.028538 C 8.640576,23.846751 8.9797122,24 9.3333332,24 H 22.666666 c 0.3536,0 0.692802,-0.153247 0.942826,-0.426007 C 23.85952,23.301236 24,22.931201 24,22.545455 v -4.363636 c 0,-0.38577 -0.14048,-0.755736 -0.390508,-1.028515 -0.250024,-0.27278 -0.589226,-0.426031 -0.942826,-0.426031 z m 0,5.818182 H 9.3333332 V 18.181819 H 22.666666 Z M 22.666666,8 H 9.3333332 C 8.9797122,8 8.640576,8.1532463 8.3905238,8.4260259 8.1404758,8.6988068 8,9.0687768 8,9.4545455 v 4.3636355 c 0,0.38577 0.140476,0.755736 0.3905238,1.028516 0.2500522,0.272779 0.5891884,0.426031 0.9428094,0.426031 H 22.666666 c 0.3536,0 0.692802,-0.153252 0.942826,-0.426031 C 23.85952,14.573917 24,14.203951 24,13.818181 V 9.4545455 C 24,9.0687768 23.85952,8.6988068 23.609492,8.4260259 23.359468,8.1532463 23.020266,8 22.666666,8 Z m 0,5.818181 H 9.3333332 V 9.4545455 H 22.666666 Z m -1.333332,-2.181817 c 0,0.215761 -0.05868,0.426683 -0.16854,0.60608 -0.10986,0.179397 -0.266028,0.31922 -0.448746,0.401792 -0.18272,0.08256 -0.383788,0.104173 -0.577816,0.06208 -0.19402,-0.04211 -0.37216,-0.146001 -0.511998,-0.298567 -0.13984,-0.152564 -0.235094,-0.346949 -0.273706,-0.558556 -0.03862,-0.21162 -0.0188,-0.430965 0.05696,-0.630308 0.07562,-0.19933 0.20384,-0.36971 0.36832,-0.489576 0.16438,-0.119877 0.357758,-0.183854 0.555518,-0.183854 0.265174,0 0.519574,0.114931 0.707094,0.319522 0.18752,0.204579 0.292908,0.48206 0.292908,0.771387 z m 0,8.727273 c 0,0.215738 -0.05868,0.426706 -0.16854,0.606022 -0.10986,0.179433 -0.266028,0.319301 -0.448746,0.401804 -0.18272,0.08261 -0.383788,0.104266 -0.577816,0.06213 -0.19402,-0.04212 -0.37216,-0.146036 -0.511998,-0.298588 -0.13984,-0.152553 -0.235094,-0.346881 -0.273706,-0.558547 -0.03862,-0.211665 -0.0188,-0.43101 0.05696,-0.630341 0.07562,-0.199331 0.20384,-0.369686 0.36832,-0.489541 0.16438,-0.11988 0.357758,-0.183855 0.555518,-0.183855 0.265174,0 0.519574,0.114934 0.707094,0.319535 0.18752,0.204567 0.292908,0.482095 0.292908,0.771375 z"
     fill="#7b7b7b"
     id="path1"
     style="stroke-width:1.11409" />
</svg>
