<?xml version="1.0" encoding="utf-8"?>
<!-- Generator: Adobe Illustrator 21.1.0, SVG Export Plug-In . SVG Version: 6.00 Build 0)  -->
<svg version="1.1" id="apache-kafka-consumer" xmlns="http://www.w3.org/2000/svg" xmlns:xlink="http://www.w3.org/1999/xlink"
	 x="0px" y="0px" width="42px" height="42px" viewBox="0 0 42 42" style="enable-background:new 0 0 42 42;" xml:space="preserve">
<style type="text/css">
	.st0{fill:#3D6480;}
	.st1{fill:#EFF9FE;}
	.st2{display:none;fill-rule:evenodd;clip-rule:evenodd;fill:none;stroke:#3D6480;stroke-miterlimit:3.8637;}
</style>
<g>
	<polygon class="st0" points="36.9,33 36.9,36.1 31.7,30.8 30.3,32.2 35.6,37.4 32.4,37.4 32.4,39.3 38.8,39.3 38.8,33 	"/>
	<g>
		<polygon class="st1" points="10,10 10,32 22.8,32 32,23 32,10 		"/>
		<polygon class="st0" points="10,32 10,10 32,10 32,23 34,21 34,8 8,8 8,34 20.7,34 22.8,32 		"/>
	</g>
	<path class="st2" d="M42,39c0,1.7-1.3,3-3,3H3c-1.7,0-3-1.3-3-3L0,3c0-1.7,1.3-3,3-3l36,0c1.7,0,3,1.3,3,3V39z"/>
	<g>
		<path class="st0" d="M19.1,26h-1.4V15.4h1.4V26z M21,20.6l4.2,5.4h-1.6l-4.1-5.4l3.8-5.2h1.6L21,20.6z"/>
	</g>
</g>
</svg>
