<?xml version="1.0" encoding="utf-8"?>
<!-- Generator: Adobe Illustrator 21.1.0, SVG Export Plug-In . SVG Version: 6.00 Build 0)  -->
<svg version="1.1" id="apache-kafka-producer" xmlns="http://www.w3.org/2000/svg" xmlns:xlink="http://www.w3.org/1999/xlink"
	 x="0px" y="0px" width="42px" height="42px" viewBox="0 0 42 42" style="enable-background:new 0 0 42 42;" xml:space="preserve">
<style type="text/css">
	.st0{fill:#3D6480;}
	.st1{fill:#EFF9FE;}
	.st2{display:none;fill-rule:evenodd;clip-rule:evenodd;fill:none;stroke:#3D6480;stroke-miterlimit:3.8637;}
</style>
<g>
	<polygon class="st0" points="12.5,5.6 10.6,5.6 10.6,8.7 5.4,3.4 4.1,4.8 9.3,10 6.2,10 6.2,11.9 12.5,11.9 	"/>
	<g>
		<polygon class="st1" points="32,32 32,10 19.2,10 10,19 10,32 		"/>
		<polygon class="st0" points="32,10 32,32 10,32 10,19 8,21 8,34 34,34 34,8 21.3,8 19.2,10 		"/>
	</g>
	<path class="st2" d="M0,3c0-1.7,1.3-3,3-3l36,0c1.7,0,3,1.3,3,3v36c0,1.7-1.3,3-3,3H3c-1.7,0-3-1.3-3-3L0,3z"/>
	<g>
		<path class="st0" d="M19.1,26h-1.4V15.4h1.4V26z M21,20.6l4.2,5.4h-1.6l-4.1-5.4l3.8-5.2h1.6L21,20.6z"/>
	</g>
</g>
</svg>
