<?xml version="1.0" encoding="utf-8"?>
<!-- Generator: Adobe Illustrator 17.0.0, SVG Export Plug-In . SVG Version: 6.00 Build 0)  -->
<!DOCTYPE svg PUBLIC "-//W3C//DTD SVG 1.1//EN" "http://www.w3.org/Graphics/SVG/1.1/DTD/svg11.dtd">
<svg version="1.1" id="Layer_1" xmlns="http://www.w3.org/2000/svg" xmlns:xlink="http://www.w3.org/1999/xlink" x="0px" y="0px"
	 width="42px" height="42px" viewBox="0 0 42 42" enable-background="new 0 0 42 42" xml:space="preserve">
<g>
	<polygon fill="#3D6480" points="37.26,32.836 37.26,35.918 32.035,30.694 30.691,32.037 35.918,37.263 32.771,37.264 
		32.772,39.164 39.161,39.161 39.161,32.836 	"/>
	<path fill="#EFF9FE" d="M25.649,17.561c-0.565-1.486-1.727-2.779-3.628-3.396C23.92,14.781,25.082,16.074,25.649,17.561z"/>
	<path fill="#EFF9FE" d="M18.218,26.861c0.686,0.727,1.6,1.274,2.75,1.529C19.832,28.137,18.916,27.59,18.218,26.861z"/>
	<path fill="#EFF9FE" d="M32.295,10.051h-22.3v22.301h14.128l8.172-8.172V10.051z M21.145,28.433
		C21.145,28.433,21.145,28.433,21.145,28.433C21.144,28.433,21.144,28.433,21.145,28.433C21.144,28.433,21.144,28.433,21.145,28.433
		c-3.995-0.001-7.231-3.238-7.231-7.231c0-3.994,3.237-7.232,7.231-7.232c0.054,0,0.106,0.001,0.159,0.002
		c3.921,0.085,7.072,3.29,7.072,7.23C28.376,25.195,25.139,28.432,21.145,28.433z"/>
	<path fill="#EFF9FE" d="M23.296,21.182c0-2.307-1.626-3.309-2.05-3.531c-0.062-0.029-0.101-0.045-0.101-0.045
		s-2.142,0.821-2.142,3.456c0,2.785,2.142,3.735,2.142,3.735l0.038-0.019c0.001,0,0.001,0,0.002,0
		C21.358,24.699,23.296,23.74,23.296,21.182z"/>
	<polygon fill="#3D6480" points="9.995,10.051 32.295,10.051 32.295,24.18 33.995,22.48 33.995,8.352 8.295,8.352 8.295,34.051 
		22.424,34.051 24.123,32.352 9.995,32.352 	"/>
	<path fill="#3D6480" d="M21.304,13.971c0.233,0.05,0.456,0.109,0.671,0.177c0.016,0.005,0.03,0.012,0.046,0.017
		c1.901,0.616,3.063,1.909,3.628,3.396c0.015,0.039,0.026,0.079,0.04,0.119c0.045,0.126,0.09,0.252,0.126,0.38
		c0.039,0.137,0.071,0.275,0.101,0.414c0.007,0.031,0.016,0.061,0.022,0.092c0.701,3.48-1.437,7.393-4.785,6.229
		c0,0,0.024-0.012,0.032-0.016c-0.001,0-0.001,0-0.002,0l-0.038,0.019c0,0-2.142-0.95-2.142-3.735c0-2.635,2.142-3.456,2.142-3.456
		s0.039,0.016,0.101,0.045c-0.002-0.001-0.007-0.004-0.009-0.005c-0.003-0.001-0.005-0.002-0.007-0.004
		c-0.052-0.026-0.086-0.042-0.086-0.042c-4.543-0.916-6.035,5.966-2.926,9.261c0.698,0.729,1.613,1.276,2.75,1.529
		c0.06,0.013,0.115,0.031,0.176,0.043c3.994,0,7.232-3.238,7.232-7.231C28.376,17.261,25.225,14.056,21.304,13.971z"/>
	<path fill="#9FB2C0" d="M18.218,26.861c-3.109-3.295-1.618-10.177,2.926-9.261c0,0,0.035,0.016,0.086,0.042
		c0.003,0.001,0.005,0.002,0.007,0.004c0.002,0.001,0.006,0.004,0.009,0.005c0.424,0.222,2.05,1.224,2.05,3.531
		c0,2.558-1.939,3.517-2.111,3.597c-0.008,0.004-0.032,0.016-0.032,0.016c3.348,1.163,5.486-2.75,4.785-6.229
		c-0.006-0.031-0.016-0.061-0.022-0.092c-0.03-0.139-0.061-0.277-0.101-0.414c-0.037-0.128-0.081-0.254-0.126-0.38
		c-0.014-0.039-0.025-0.08-0.04-0.119c-0.567-1.487-1.729-2.78-3.628-3.396c-0.016-0.005-0.03-0.012-0.046-0.017
		c-0.214-0.068-0.438-0.127-0.671-0.177c-0.053-0.001-0.105-0.002-0.159-0.002c-3.994,0-7.231,3.238-7.231,7.232
		c0,3.994,3.237,7.231,7.23,7.231c0,0,0,0,0,0c0,0,0,0,0,0s0,0,0,0c-0.061-0.012-0.117-0.03-0.176-0.043
		C19.818,28.135,18.904,27.588,18.218,26.861z"/>
</g>
</svg>
