<?xml version="1.0" encoding="utf-8"?>
<!-- Generator: Adobe Illustrator 17.0.0, SVG Export Plug-In . SVG Version: 6.00 Build 0)  -->
<!DOCTYPE svg PUBLIC "-//W3C//DTD SVG 1.1//EN" "http://www.w3.org/Graphics/SVG/1.1/DTD/svg11.dtd">
<svg version="1.1" id="Layer_1" xmlns="http://www.w3.org/2000/svg" xmlns:xlink="http://www.w3.org/1999/xlink" x="0px" y="0px"
	 width="42px" height="42px" viewBox="0 0 42 42" enable-background="new 0 0 42 42" xml:space="preserve">
<g>
	<polygon fill="#3D6480" points="5.35,11.561 11.737,11.56 11.737,5.232 9.837,5.232 9.837,8.315 4.613,3.091 3.27,4.435 
		8.494,9.66 5.35,9.66 	"/>
	<path fill="#EFF9FE" d="M21.879,13.738c2.113,0.684,3.314,2.207,3.799,3.902C25.196,15.945,23.996,14.422,21.879,13.738z"/>
	<path fill="#EFF9FE" d="M21.006,28.007c-1.223-0.233-2.195-0.808-2.93-1.576C18.798,27.197,19.767,27.771,21.006,28.007z"/>
	<path fill="#EFF9FE" d="M18.863,20.636c0,2.785,2.143,3.734,2.143,3.734l0.039-0.019c0.001,0,0.002,0,0.003,0.001
		c0.18-0.084,2.109-1.044,2.109-3.596c0-2.293-1.602-3.295-2.038-3.526c-0.071-0.035-0.113-0.05-0.113-0.05S18.863,18,18.863,20.636
		z"/>
	<path fill="#EFF9FE" d="M32.156,31.925V9.624H18.103l-8.247,8.247v14.054H32.156z M21.006,13.543c0.053,0,0.107,0.001,0.16,0.002
		c3.92,0.085,7.072,3.289,7.072,7.229c0,3.994-3.238,7.232-7.232,7.232s-7.232-3.238-7.232-7.232S17.012,13.543,21.006,13.543z"/>
	<polygon fill="#3D6480" points="19.802,7.925 18.103,9.624 32.156,9.624 32.156,31.925 9.856,31.925 9.856,17.871 8.156,19.571 
		8.156,33.624 33.856,33.624 33.856,7.925 	"/>
	<path fill="#3D6480" d="M21.879,13.738c2.116,0.685,3.317,2.208,3.799,3.902c0.019,0.067,0.032,0.135,0.049,0.203
		c0.025,0.101,0.053,0.202,0.073,0.304c0.697,3.478-1.441,7.386-4.787,6.223c0,0,0.025-0.013,0.034-0.017
		c-0.001,0-0.002,0-0.003-0.001l-0.039,0.019c0,0-2.143-0.949-2.143-3.734c0-2.636,2.143-3.456,2.143-3.456s0.042,0.016,0.113,0.05
		c0,0-0.002-0.001-0.002-0.001c-0.028-0.015-0.05-0.026-0.067-0.035c-0.014-0.006-0.043-0.021-0.043-0.021
		c-4.542-0.915-6.034,5.961-2.93,9.258c0.735,0.769,1.707,1.343,2.93,1.576c3.994,0,7.232-3.238,7.232-7.232
		c0-3.94-3.152-7.145-7.072-7.229c0.233,0.05,0.457,0.109,0.67,0.177C21.852,13.727,21.865,13.733,21.879,13.738z"/>
	<path fill="#9FB2C0" d="M21.006,28.007c-1.239-0.236-2.208-0.81-2.93-1.576c-3.104-3.297-1.613-10.173,2.93-9.258
		c0,0,0.029,0.015,0.043,0.021c0.018,0.009,0.039,0.02,0.067,0.035c0.001,0,0.002,0.001,0.002,0.001
		c0.436,0.231,2.038,1.233,2.038,3.526c0,2.552-1.929,3.512-2.109,3.596c-0.009,0.004-0.034,0.017-0.034,0.017
		c3.346,1.163,5.484-2.745,4.787-6.223c-0.021-0.102-0.048-0.203-0.073-0.304c-0.017-0.068-0.03-0.136-0.049-0.203
		c-0.484-1.695-1.686-3.218-3.799-3.902c-0.015-0.005-0.028-0.011-0.043-0.016c-0.214-0.068-0.438-0.127-0.67-0.177
		c-0.053-0.001-0.107-0.002-0.16-0.002c-3.994,0-7.232,3.237-7.232,7.231S17.012,28.007,21.006,28.007z"/>
</g>
</svg>
