<?xml version="1.0" encoding="utf-8"?>
<!-- Generator: Adobe Illustrator 18.0.0, SVG Export Plug-In . SVG Version: 6.00 Build 0)  -->
<!DOCTYPE svg PUBLIC "-//W3C//DTD SVG 1.1//EN" "http://www.w3.org/Graphics/SVG/1.1/DTD/svg11.dtd">
<svg version="1.1" id="Layer_1" xmlns="http://www.w3.org/2000/svg" xmlns:xlink="http://www.w3.org/1999/xlink" x="0px" y="0px"
	 viewBox="0 0 42 42" enable-background="new 0 0 42 42" xml:space="preserve">
<g>
	<g>
		<path fill="none" d="M37.5,15.5v-0.7c0-0.5-0.3-0.8-1-0.8h-1.7v2.3h1.7C37.2,16.3,37.5,16,37.5,15.5z"/>
		<path fill="none" d="M37.2,12.5v-0.7c0-0.4-0.2-0.6-0.8-0.6h-1.7v2.2h1.5C37,13.3,37.2,13,37.2,12.5z"/>
		<path fill="none" d="M32.1,15.1v-2.7c0-0.8-0.3-1.2-1.3-1.2h-1.4v5.1h1.4C31.8,16.3,32.1,15.8,32.1,15.1z"/>
		<path fill="none" d="M13.3,12.8c-0.8,0-1.1,0.4-1.1,1.1v1.5c0,0.7,0.4,1.1,1.1,1.1s1.1-0.4,1.1-1.1v-1.5
			C14.4,13.1,14,12.8,13.3,12.8z"/>
		<path fill="none" d="M23.6,13.8c0-0.7-0.2-1.1-1-1.1c-0.8,0-1.1,0.4-1.1,1.1v0.4h2.1V13.8z"/>
		<polygon fill="#FFEBCD" points="30.7,31.1 25.1,28.3 23.7,30.1 29.3,33 		"/>
		<polygon fill="#FFEBCD" points="38.4,35.7 31.5,39.2 24.5,35.7 24.5,31.6 24.5,31.5 24.5,35.7 31.5,39.2 38.5,35.7 38.5,31.2 
			38.4,31.2 		"/>
		<polygon fill="#FFEBCD" points="25.4,32 25.4,35.1 31.1,38 31.1,32.1 29.6,34.2 		"/>
		<rect x="25" y="27.7" fill="#FFEBCD" width="0" height="0"/>
		<polygon fill="#FFEBCD" points="37.8,28.2 32.2,31.1 33.4,32.9 38.9,29.9 		"/>
		<polygon fill="#FFEBCD" points="31.6,31.8 31.6,38.1 37.5,35.1 37.5,31.8 33.1,34.2 		"/>
		<polygon fill="#FFEBCD" points="26.1,27.8 31.5,30.5 36.8,27.7 34.1,26.6 34.4,25.8 34.1,25.7 31.4,28.4 28.7,25.7 28.3,25.9 
			28.7,26.7 		"/>
		<path fill="#3D6480" d="M38.4,27.4l-4-1.7l0,0.1l-0.3,0.8l2.7,1.1l-5.3,2.7l-5.4-2.7l2.6-1.1l-0.3-0.8l0-0.1l-3.8,1.6l-2.2,3
			l2.2,1.1l0,0v4.1l7,3.5l7-3.5v-4.4l0,0l1.8-1L38.4,27.4z M25,27.7L25,27.7L25,27.7L25,27.7L25,27.7z M23.7,30.1l1.4-1.8l5.6,2.8
			L29.3,33L23.7,30.1z M31.1,38l-5.7-2.9v-3l4.1,2.2l1.5-2.1V38z M37.5,35.1l-5.9,3v-6.3l1.6,2.4l4.3-2.4V35.1z M33.4,32.9l-1.2-1.8
			l5.6-2.9l1.1,1.7L33.4,32.9z"/>
		<path fill="#0CB20F" d="M34.1,25.7l0.1-0.1l-0.7-0.7l-1.6,1.6v-1.7c0-2.8-1.2-4.1-3.9-4.1v1c2.2,0,2.9,0.8,2.9,3v1.7l-1.7-1.7
			l-0.7,0.7l0.2,0.2l2.7,2.7L34.1,25.7z"/>
		<polygon fill="#3D6480" points="9.2,10.4 7.3,15.5 5.4,10.4 4.3,10.4 4,17 4.9,17 5,11.6 6.7,16.2 7.9,16.2 9.6,11.6 9.7,17 
			10.5,17 10.3,10.4 		"/>
		<path fill="#3D6480" d="M13.3,12.1c-1.4,0-2,0.8-2,1.8v1.4c0,1,0.6,1.8,2,1.8s2-0.8,2-1.8v-1.4C15.3,12.9,14.7,12.1,13.3,12.1z
			 M14.4,15.3c0,0.7-0.4,1.1-1.1,1.1s-1.1-0.4-1.1-1.1v-1.5c0-0.7,0.4-1.1,1.1-1.1s1.1,0.4,1.1,1.1V15.3z"/>
		<path fill="#3D6480" d="M18.8,12.1c-0.6,0-1.4,0.3-2,0.5l-0.1-0.4h-0.7V17h0.8v-3.7c0.5-0.3,1.3-0.5,1.6-0.5
			c0.3,0,0.5,0.1,0.5,0.4V17h0.8v-3.7C19.9,12.5,19.6,12.1,18.8,12.1z"/>
		<path fill="#3D6480" d="M24.3,16.8l-0.1-0.7c-0.5,0.1-1.1,0.2-1.5,0.2c-0.9,0-1.2-0.3-1.2-1.1v-0.4h2.9v-1c0-1-0.4-1.8-1.8-1.8
			c-1.4,0-1.9,0.8-1.9,1.8v1.5c0,1.1,0.5,1.8,1.9,1.8C23.2,17.1,23.9,17,24.3,16.8z M21.5,13.8c0-0.7,0.3-1.1,1.1-1.1
			c0.8,0,1,0.4,1,1.1v0.4h-2.1V13.8z"/>
		<path fill="#3D6480" d="M25.6,16c0,0.8,0.4,1.1,1.2,1.1c0.4,0,0.7-0.1,1-0.2l-0.1-0.6c-0.3,0.1-0.5,0.1-0.8,0.1
			c-0.4,0-0.5-0.2-0.5-0.5v-3h1.3l0.1-0.7h-1.4v-1.3L25.6,11v1.2h-0.9v0.7h0.9V16z"/>
		<path fill="#3D6480" d="M33,15.1v-2.8c0-1.1-0.5-1.9-2.1-1.9h-2.3V17h2.3C32.4,17,33,16.2,33,15.1z M29.3,16.3v-5.1h1.4
			c1,0,1.3,0.4,1.3,1.2v2.7c0,0.8-0.3,1.2-1.3,1.2H29.3z"/>
		<path fill="#3D6480" d="M38.3,15.6v-0.8c0-0.7-0.4-1.1-1-1.2c0.6-0.2,0.8-0.6,0.8-1.1v-0.8c0-0.9-0.5-1.3-1.6-1.3H34V17h2.7
			C37.7,17,38.3,16.5,38.3,15.6z M34.8,11.1h1.7c0.5,0,0.8,0.2,0.8,0.6v0.7c0,0.5-0.3,0.8-0.9,0.8h-1.5V11.1z M34.8,16.3V14h1.7
			c0.7,0,1,0.3,1,0.8v0.7c0,0.5-0.3,0.8-0.9,0.8H34.8z"/>
	</g>
</g>
</svg>
