<?xml version="1.0" encoding="utf-8"?>
<!-- Generator: Adobe Illustrator 18.0.0, SVG Export Plug-In . SVG Version: 6.00 Build 0)  -->
<!DOCTYPE svg PUBLIC "-//W3C//DTD SVG 1.1//EN" "http://www.w3.org/Graphics/SVG/1.1/DTD/svg11.dtd">
<svg version="1.1" id="Layer_1" xmlns="http://www.w3.org/2000/svg" xmlns:xlink="http://www.w3.org/1999/xlink" x="0px" y="0px"
	 viewBox="0 0 42 42" enable-background="new 0 0 42 42" xml:space="preserve">
<g>
	<polygon fill="#3D6480" points="36.8,32.5 36.8,35.6 31.6,30.4 30.2,31.7 35.5,36.9 32.3,36.9 32.3,38.8 38.7,38.8 38.7,32.5 	"/>
	<polygon fill="#FDE7EA" points="31.8,9.7 9.5,9.7 9.5,32 24.2,32 31.8,24.4 	"/>
	<polygon fill="#3D6480" points="9.5,9.7 31.8,9.7 31.8,24.4 33.5,22.7 33.5,8 7.8,8 7.8,33.7 22.5,33.7 24.2,32 9.5,32 	"/>
	<g>
		<g>
			<rect x="23.4" y="18.9" fill="#3D6480" width="4.1" height="1"/>
			<rect x="23.4" y="16.8" fill="#3D6480" width="6.2" height="1"/>
			<rect x="23.4" y="14.8" fill="#3D6480" width="6.2" height="1"/>
		</g>
		<g id="user_11_">
			<path id="user_12_" fill="#3D6480" d="M25.1,24.6c-0.4-0.2-2.9-1.7-4.2-2.2v-2.3c0.4-0.3,0.6-0.7,0.6-1.3V17
				c0-1.5-0.9-2.7-2.7-2.7c-1.8,0-2.7,1.2-2.7,2.7c0,0,0,0.3,0,1.8c0,0.6,0.2,1.1,0.6,1.3v2.3c-1.2,0.5-3.8,2-4.2,2.2
				c-0.5,0.3-0.6,0.5-0.6,1.2c0,0.3,0,1.4,0,1.4c0,0.2,0.1,0.3,0.3,0.3h13.2c0.2,0,0.3-0.1,0.3-0.3c0,0,0-1.2,0-1.4
				C25.7,25.1,25.5,24.9,25.1,24.6z"/>
		</g>
	</g>
</g>
</svg>
