<?xml version="1.0" encoding="utf-8"?>
<!-- Generator: Adobe Illustrator 22.1.0, SVG Export Plug-In . SVG Version: 6.00 Build 0)  -->
<svg version="1.1" id="Layer_1" xmlns="http://www.w3.org/2000/svg" xmlns:xlink="http://www.w3.org/1999/xlink" x="0px" y="0px"
	 viewBox="0 0 16 16" style="enable-background:new 0 0 16 16;" xml:space="preserve">
<style type="text/css">
	.st0{fill:#F99C1C;}
</style>
<polygon class="st0" points="11,7 11,5.3 13,5.3 9,1.2 10.2,0 14.2,4 14.2,2.1 16,2.1 16,7 "/>
<polygon class="st0" points="9,11 10.7,11 10.7,13 14.8,9 16,10.2 12,14.2 13.9,14.2 13.9,16 9,16 "/>
<polygon class="st0" points="5,9 5,10.7 3,10.7 7,14.8 5.8,16 1.8,12 1.8,13.9 0,13.9 0,9 "/>
<polygon class="st0" points="7,5 5.3,5 5.3,3 1.2,7 0,5.8 4,1.8 2.1,1.8 2.1,0 7,0 "/>
</svg>
