<?xml version="1.0" encoding="utf-8"?>
<!-- Generator: Adobe Illustrator 22.1.0, SVG Export Plug-In . SVG Version: 6.00 Build 0)  -->
<svg version="1.1" xmlns="http://www.w3.org/2000/svg" xmlns:xlink="http://www.w3.org/1999/xlink" x="0px" y="0px"
	 viewBox="0 0 22 22" style="enable-background:new 0 0 22 22;" xml:space="preserve">
<style type="text/css">
	.st0{display:none;}
	.st1{display:inline;}
	.st2{fill:#434343;}
	.st3{display:inline;fill:#424242;}
	.st4{fill:#424243;}
	.st5{fill:#414242;}
</style>
<g id="Layer_1" class="st0">
	<title>stop</title>
	<g id="ptdjwZ.tif" class="st1">
		<path class="st2" d="M0.1,3.2h15.7v15.7H0.1V3.2z M2.3,5.2v11.2h11.1V5.2H2.3z"/>
	</g>
	<polygon class="st3" points="17,9.4 19.3,11.6 21.5,9.4 22,9.9 19.3,12.6 16.5,9.9 	"/>
</g>
<g id="Layer_2">
	<g>
		<g id="ptdjwZ.tif_1_">
			<g>
				<path class="st4" d="M0.1,3.2c5,0,9.1,0,14.8,0c0,5.7,0,9.8,0,14.8c-5.2,0-9.6,0-14.8,0C0.1,12.8,0.1,8.4,0.1,3.2z M1.6,4.8
					v11.7h11.7V4.8H1.6z"/>
			</g>
		</g>
		<g>
			<polygon class="st5" points="17,9.4 19.2,11.6 21.4,9.4 21.9,9.9 19.2,12.6 16.5,9.9 			"/>
		</g>
	</g>
</g>
</svg>
