<?xml version="1.0" encoding="utf-8"?>
<!-- Generator: Adobe Illustrator 22.1.0, SVG Export Plug-In . SVG Version: 6.00 Build 0)  -->
<svg version="1.1" id="Layer_1" xmlns="http://www.w3.org/2000/svg" xmlns:xlink="http://www.w3.org/1999/xlink" x="0px" y="0px"
	 viewBox="0 0 16 16" style="enable-background:new 0 0 16 16;" xml:space="preserve">
<style type="text/css">
	.st0{fill:#1CB24B;}
</style>
<polygon class="st0" points="13.8,10.7 13.8,9 8.9,9 8.9,13.9 10.6,13.9 10.6,12 14.7,16 15.9,14.8 11.9,10.7 "/>
<polygon class="st0" points="7.1,13.9 5.4,13.9 5.4,12 1.3,16 0.1,14.8 4.1,10.7 2.2,10.7 2.2,9 7.1,9 "/>
<polygon class="st0" points="8.9,7 13.8,7 13.8,5.3 11.9,5.3 15.9,1.2 14.7,0 10.6,4 10.6,2.1 8.9,2.1 "/>
<polygon class="st0" points="2.2,7 2.2,5.3 4.1,5.3 0.1,1.2 1.3,0 5.4,4 5.4,2.1 7.1,2.1 7.1,7 "/>
</svg>
