<svg id="Layer_1" data-name="Layer 1" xmlns="http://www.w3.org/2000/svg" viewBox="0 0 22 22"><defs><style>.cls-1{fill:#434343;}</style></defs><title>view</title><g id="QdVc5y.tif"><path class="cls-1" d="M19.41,10.71v.64a8.09,8.09,0,0,1-8,5.13,8.09,8.09,0,0,1-8-5.13v-.64a8.26,8.26,0,0,1,8-5.12A8.24,8.24,0,0,1,19.41,10.71ZM13.3,7.09a5.13,5.13,0,0,1,.15,7.8,8,8,0,0,0,4.47-3.15,1.09,1.09,0,0,0,0-1.31A8.4,8.4,0,0,0,13.3,7.09Zm-4,7.78A5.09,5.09,0,0,1,9.45,7.1a8.78,8.78,0,0,0-4.54,3.16,1.21,1.21,0,0,0,0,1.57A8.28,8.28,0,0,0,9.28,14.87Z"/></g></svg>