<svg width="20" height="16" viewBox="0 0 20 16" fill="none" xmlns="http://www.w3.org/2000/svg">
<path d="M11 15.0909V10H13.0085C13.3946 10 13.7236 10.0737 13.9954 10.2212C14.2672 10.3671 14.4743 10.5701 14.6168 10.8303C14.761 11.0888 14.8331 11.3871 14.8331 11.7251C14.8331 12.0632 14.7602 12.3615 14.6143 12.62C14.4685 12.8786 14.2572 13.0799 13.9805 13.2241C13.7054 13.3683 13.3723 13.4403 12.9812 13.4403H11.701V12.5778H12.8072C13.0143 12.5778 13.185 12.5421 13.3192 12.4709C13.4551 12.398 13.5562 12.2977 13.6225 12.1701C13.6905 12.0408 13.7244 11.8925 13.7244 11.7251C13.7244 11.5561 13.6905 11.4086 13.6225 11.2827C13.5562 11.1551 13.4551 11.0565 13.3192 10.9869C13.1834 10.9156 13.011 10.88 12.8022 10.88H12.0763V15.0909H11Z" fill="#7B7B7B"/>
<path d="M16.8938 14.3153V10.7955H17.7837V14.3153H16.8938ZM15.5788 13.0004V12.1104H19.0987V13.0004H15.5788Z" fill="#7B7B7B"/>
<path fill-rule="evenodd" clip-rule="evenodd" d="M1.25 7.5H13.75C14.0815 7.5 14.3995 7.6317 14.6339 7.86612C14.8683 8.10054 15 8.41848 15 8.75V8.875H13.75V8.75H1.25V12.5H8.5V13.75H1.25C0.918479 13.75 0.600537 13.6183 0.366116 13.3839C0.131696 13.1495 0 12.8315 0 12.5V8.75C0 8.41848 0.131696 8.10054 0.366116 7.86612C0.600537 7.6317 0.918479 7.5 1.25 7.5ZM1.25 0H13.75C14.0815 0 14.3995 0.131696 14.6339 0.366116C14.8683 0.600537 15 0.918479 15 1.25V5C15 5.33152 14.8683 5.64946 14.6339 5.88388C14.3995 6.1183 14.0815 6.25 13.75 6.25H1.25C0.918479 6.25 0.600537 6.1183 0.366116 5.88388C0.131696 5.64946 0 5.33152 0 5V1.25C0 0.918479 0.131696 0.600537 0.366116 0.366116C0.600537 0.131696 0.918479 0 1.25 0ZM1.25 5H13.75V1.25H1.25V5ZM12.342 3.64585C12.445 3.49168 12.5 3.31042 12.5 3.125C12.5 2.87636 12.4012 2.6379 12.2254 2.46209C12.0496 2.28627 11.8111 2.1875 11.5625 2.1875C11.3771 2.1875 11.1958 2.24248 11.0417 2.3455C10.8875 2.44851 10.7673 2.59493 10.6964 2.76623C10.6254 2.93754 10.6068 3.12604 10.643 3.3079C10.6792 3.48975 10.7685 3.6568 10.8996 3.78791C11.0307 3.91902 11.1977 4.00831 11.3796 4.04449C11.5615 4.08066 11.75 4.06209 11.9213 3.99114C12.0926 3.92018 12.239 3.80002 12.342 3.64585Z" fill="#7B7B7B"/>
</svg>
