<?xml version="1.0" encoding="utf-8"?>
<!-- Generator: Adobe Illustrator 17.0.0, SVG Export Plug-In . SVG Version: 6.00 Build 0)  -->
<!DOCTYPE svg PUBLIC "-//W3C//DTD SVG 1.1//EN" "http://www.w3.org/Graphics/SVG/1.1/DTD/svg11.dtd">
<svg version="1.1" id="Layer_1" xmlns="http://www.w3.org/2000/svg" xmlns:xlink="http://www.w3.org/1999/xlink" x="0px" y="0px"
	 width="42px" height="42px" viewBox="0 0 42 42" enable-background="new 0 0 42 42" xml:space="preserve">
<g>
	<polygon fill="#0CB20F" points="37.59,29.258 30.667,36.181 28.336,33.849 26.992,35.193 30.667,38.868 38.934,30.602 	"/>
	<polygon fill="#FFEBCD" points="17.931,26.966 17.931,32.216 24.057,32.216 24.132,32.142 24.132,26.966 	"/>
	<path fill="#FFEBCD" d="M24.931,26.165h0.6c0.331,0,0.6-0.269,0.6-0.6v-9c0-0.331-0.269-0.6-0.6-0.6h-9c-0.331,0-0.6,0.269-0.6,0.6
		v9c0,0.331,0.269,0.6,0.6,0.6h0.6v-0.043h0.8v0.043h6.2v-0.043h0.8V26.165z"/>
	<path fill="#FFEBCD" d="M26.931,16.566v0.325h5.25V9.915h-7.25v5.25h0.6C26.303,15.165,26.931,15.794,26.931,16.566z"/>
	<rect x="17.931" y="9.915" fill="#FFEBCD" width="6.2" height="5.25"/>
	<rect x="26.931" y="17.692" fill="#FFEBCD" width="5.25" height="6.199"/>
	<path fill="#FFEBCD" d="M15.132,25.566v-0.874h-5.25v7.524h7.25v-5.25h-0.6C15.76,26.966,15.132,26.337,15.132,25.566z"/>
	<path fill="#FFEBCD" d="M26.931,24.692v0.874c0,0.771-0.628,1.4-1.4,1.4h-0.6v4.376l6.65-6.65H26.931z"/>
	<path fill="#FFEBCD" d="M15.132,16.566c0-0.771,0.628-1.4,1.4-1.4h0.6v-5.25h-7.25v6.976h5.25V16.566z"/>
	<rect x="9.882" y="17.692" fill="#FFEBCD" width="5.25" height="6.199"/>
	<path fill="#3D6480" d="M25.531,26.966c0.772,0,1.4-0.629,1.4-1.4v-0.874h4.65l2.3-2.3V8.216h-25.7v25.699h14.177l1.699-1.699
		h-6.126v-5.25h6.2v5.176l0.8-0.8v-4.376H25.531z M32.181,23.891h-5.25v-6.199h5.25V23.891z M24.931,9.915h7.25v6.976h-5.25v-0.325
		c0-0.771-0.628-1.4-1.4-1.4h-0.6V9.915z M17.931,9.915h6.2v5.25h-6.2V9.915z M9.882,9.915h7.25v5.25h-0.6
		c-0.772,0-1.4,0.629-1.4,1.4v0.325h-5.25V9.915z M9.882,17.692h5.25v6.199h-5.25V17.692z M17.132,32.216h-7.25v-7.524h5.25v0.874
		c0,0.771,0.628,1.4,1.4,1.4h0.6V32.216z M24.132,26.122v0.043h-6.2v-0.043h-0.8v0.043h-0.6c-0.331,0-0.6-0.269-0.6-0.6v-9
		c0-0.331,0.269-0.6,0.6-0.6h9c0.331,0,0.6,0.269,0.6,0.6v9c0,0.331-0.269,0.6-0.6,0.6h-0.6v-0.043H24.132z"/>
</g>
</svg>
