<?xml version="1.0" encoding="utf-8"?>
<!-- Generator: Adobe Illustrator 17.0.0, SVG Export Plug-In . SVG Version: 6.00 Build 0)  -->
<!DOCTYPE svg PUBLIC "-//W3C//DTD SVG 1.1//EN" "http://www.w3.org/Graphics/SVG/1.1/DTD/svg11.dtd">
<svg version="1.1" id="Layer_1" xmlns="http://www.w3.org/2000/svg" xmlns:xlink="http://www.w3.org/1999/xlink" x="0px" y="0px"
	 width="42px" height="42px" viewBox="0 0 42 42" enable-background="new 0 0 42 42" xml:space="preserve">
<g>
	<polygon fill="none" points="29.573,30.616 29.573,35.935 35.278,33.279 	"/>
	<path fill="#0CB20F" d="M27.724,27.71v11.128l11.931-5.557L27.724,27.71z M29.573,30.616l5.704,2.663l-5.704,2.656V30.616z"/>
	<path fill="#FFECCE" d="M29.269,11.275h1.699v1.116h1.127c1.068,0,1.938-0.869,1.938-1.937s-0.869-1.937-1.938-1.937H17.444
		c-2.408,0-3.734,1.326-3.734,3.734v15.251h6.161v1.699h-9.438c-1.068,0-1.938,0.869-1.938,1.938c0,1.067,0.869,1.937,1.938,1.937
		h11.764l7.072-7.072V11.275z M19.747,21.884c0,0.352-0.024,0.574-0.195,0.827c-0.08,0.121-0.194,0.247-0.346,0.398l-0.6,0.565
		l-0.09,0.085l-0.631-0.713l0.084-0.08c0.406-0.39,0.6-0.577,0.695-0.717c0.084-0.12,0.088-0.195,0.088-0.392v-5.937h0.994V21.884z
		 M22.624,22.073c-0.569,0-1.26-0.106-1.775-0.314l-0.094-0.037l0.169-0.842l0.128,0.04c0.521,0.162,1.07,0.248,1.59,0.248
		c0.885,0,1.008-0.205,1.008-0.788c0-0.189,0-0.335-0.019-0.451c-0.017-0.104-0.048-0.169-0.1-0.221
		c-0.122-0.12-0.38-0.199-0.994-0.339c-1.458-0.325-1.668-0.642-1.668-1.909c0-1.096,0.489-1.625,1.982-1.625
		c0.517,0,1.13,0.071,1.604,0.196l0.1,0.026l-0.084,0.877l-0.135-0.03c-0.455-0.104-0.995-0.163-1.468-0.163
		c-0.911,0-1.007,0.16-1.007,0.744c0,0.194-0.001,0.341,0.017,0.458c0.016,0.104,0.044,0.166,0.093,0.215
		c0.114,0.115,0.358,0.189,0.953,0.338c1.592,0.396,1.717,0.664,1.717,1.866C24.642,21.444,24.29,22.073,22.624,22.073z"/>
	<path fill="#3D6480" d="M8.495,31.14c0-1.068,0.869-1.938,1.938-1.938h9.438v-1.699h-6.161V12.253c0-2.408,1.326-3.734,3.734-3.734
		h14.651c1.068,0,1.938,0.869,1.938,1.937s-0.869,1.937-1.938,1.937h-1.127v-1.116h-1.699v14.73l1.699-1.699V14.09h1.127
		c2.006,0,3.637-1.631,3.637-3.636s-1.631-3.636-3.637-3.636H17.444c-3.352,0-5.434,2.082-5.434,5.434v15.251h-1.577
		c-2.006,0-3.637,1.631-3.637,3.637c0,2.005,1.631,3.636,3.637,3.636h10.064l1.699-1.699H10.433
		C9.364,33.077,8.495,32.208,8.495,31.14z"/>
	<path fill="#3D6480" d="M18.753,21.859c0,0.196-0.004,0.271-0.088,0.392c-0.096,0.14-0.289,0.327-0.695,0.717l-0.084,0.08
		l0.631,0.713l0.09-0.085l0.6-0.565c0.151-0.151,0.266-0.277,0.346-0.398c0.171-0.253,0.195-0.476,0.195-0.827v-5.962h-0.994V21.859
		z"/>
	<path fill="#3D6480" d="M22.925,18.496c-0.595-0.148-0.839-0.223-0.953-0.338c-0.049-0.049-0.077-0.11-0.093-0.215
		c-0.018-0.117-0.017-0.264-0.017-0.458c0-0.584,0.096-0.744,1.007-0.744c0.473,0,1.013,0.06,1.468,0.163l0.135,0.03l0.084-0.877
		l-0.1-0.026c-0.475-0.125-1.088-0.196-1.604-0.196c-1.493,0-1.982,0.529-1.982,1.625c0,1.268,0.21,1.584,1.668,1.909
		c0.614,0.14,0.872,0.219,0.994,0.339c0.052,0.052,0.083,0.116,0.1,0.221c0.019,0.116,0.019,0.262,0.019,0.451
		c0,0.583-0.123,0.788-1.008,0.788c-0.52,0-1.068-0.086-1.59-0.248l-0.128-0.04l-0.169,0.842l0.094,0.037
		c0.516,0.208,1.206,0.314,1.775,0.314c1.666,0,2.018-0.629,2.018-1.711C24.642,19.16,24.517,18.891,22.925,18.496z"/>
</g>
</svg>
