<?xml version="1.0" encoding="utf-8"?>
<!-- Generator: Adobe Illustrator 18.0.0, SVG Export Plug-In . SVG Version: 6.00 Build 0)  -->
<!DOCTYPE svg PUBLIC "-//W3C//DTD SVG 1.1//EN" "http://www.w3.org/Graphics/SVG/1.1/DTD/svg11.dtd">
<svg version="1.1" id="Layer_1" xmlns="http://www.w3.org/2000/svg" xmlns:xlink="http://www.w3.org/1999/xlink" x="0px" y="0px"
	 viewBox="0 0 42 42" enable-background="new 0 0 42 42" xml:space="preserve">
<g>
	<polygon fill="#FDE7EA" points="24.9,13.5 24.9,9.2 11.5,9.2 11.5,33.6 22.7,33.6 29.2,27 29.2,13.5 	"/>
	<polygon fill="#3D6480" points="36.5,33 36.5,36.1 31.3,30.9 29.9,32.2 35.2,37.5 32,37.5 32,39.4 38.4,39.4 38.4,33 	"/>
	<polygon fill="#3D6480" points="30.9,13.5 29.2,11.8 26.6,11.8 26.6,9.2 24.9,7.5 9.9,7.5 9.9,35.3 21,35.3 22.7,33.6 11.6,33.6 
		11.6,9.2 24.9,9.2 24.9,13.5 29.2,13.5 29.2,27 30.9,25.4 	"/>
	<g>
		<g>
			<path fill="#3D6480" d="M24.5,26.9h-1.4l-0.9-2.6h-4.5l-0.9,2.6h-1.4l3.6-10.7h1.9L24.5,26.9z M20,17.3l-1.9,5.9h3.8L20,17.3z"/>
		</g>
	</g>
</g>
</svg>
