<?xml version="1.0" encoding="utf-8"?>
<!-- Generator: Adobe Illustrator 18.0.0, SVG Export Plug-In . SVG Version: 6.00 Build 0)  -->
<!DOCTYPE svg PUBLIC "-//W3C//DTD SVG 1.1//EN" "http://www.w3.org/Graphics/SVG/1.1/DTD/svg11.dtd">
<svg version="1.1" xmlns="http://www.w3.org/2000/svg" xmlns:xlink="http://www.w3.org/1999/xlink" x="0px" y="0px"
	 viewBox="0 0 32 32" enable-background="new 0 0 32 32" xml:space="preserve">
<g id="Layer_2">
	<rect fill="none" width="32" height="32"/>
</g>
<g id="Layer_1">
	<g>
		<path fill="#3E6480" d="M13.2,1.4l-13,13l13,13l13-13L13.2,1.4z M18.8,17.8c0,0.1-0.1,0.2-0.2,0.2H8c-0.1,0-0.2-0.1-0.2-0.2v-2
			c0-0.1,0.1-0.2,0.2-0.2h10.5c0.1,0,0.2,0.1,0.2,0.2V17.8z M18.5,13H8c-0.1,0-0.2-0.1-0.2-0.2v-2c0-0.1,0.1-0.2,0.2-0.2h10.5
			c0.1,0,0.2,0.1,0.2,0.2v2C18.8,12.8,18.6,13,18.5,13z"/>
		<path fill="#FFFFFF" d="M18.5,10.5H8c-0.1,0-0.2,0.1-0.2,0.2v2C7.8,12.8,7.9,13,8,13h10.5c0.1,0,0.2-0.1,0.2-0.2v-2
			C18.8,10.6,18.6,10.5,18.5,10.5z"/>
		<path fill="#FFFFFF" d="M18.5,15.6H8c-0.1,0-0.2,0.1-0.2,0.2v2c0,0.1,0.1,0.2,0.2,0.2h10.5c0.1,0,0.2-0.1,0.2-0.2v-2
			C18.8,15.7,18.6,15.6,18.5,15.6z"/>
		<polygon fill="#3E6480" points="27,24.3 27,19.6 25.5,19.6 25.5,24.3 20.8,24.3 20.8,25.9 25.5,25.9 25.5,30.6 27,30.6 27,25.9 
			31.8,25.9 31.8,24.3 		"/>
	</g>
</g>
</svg>
