<?xml version="1.0" encoding="utf-8"?>
<!-- Generator: Adobe Illustrator 18.0.0, SVG Export Plug-In . SVG Version: 6.00 Build 0)  -->
<!DOCTYPE svg PUBLIC "-//W3C//DTD SVG 1.1//EN" "http://www.w3.org/Graphics/SVG/1.1/DTD/svg11.dtd">
<svg version="1.1" xmlns="http://www.w3.org/2000/svg" xmlns:xlink="http://www.w3.org/1999/xlink" x="0px" y="0px"
	 viewBox="0 0 16 16" enable-background="new 0 0 16 16" xml:space="preserve">
<g id="Layer_2">
	<g id="Layer_2_1_">
		<rect fill="none" width="16" height="16"/>
	</g>
</g>
<g id="art">
	<g>
		<rect x="6.8" y="1.5" fill="#FFFFFF" width="2.5" height="2.1"/>
		<rect x="1.5" y="12.4" fill="#FFFFFF" width="1.5" height="2.1"/>
		<rect x="7.3" y="12.4" fill="#FFFFFF" width="1.5" height="2.1"/>
		<rect x="13" y="12.4" fill="#FFFFFF" width="1.5" height="2.1"/>
		<path fill="#3D6480" d="M14.6,10.9h-0.3V8h-0.5h-0.5h-3.2H9.2H8.6V6.5V5.1h2.2V0H9.4H5.3v5.1h2.2V8H2.8H2.2H1.7v2.9H0V16h4.5v-5.1
			H3.1H2.8V9h4.7v1.9H5.8V16h4.5v-5.1H8.9H8.6V9h0.6h0.9h3.2v1.9h-1.7V16H16v-5.1H14.6z M3,14.5H1.5v-2.1H3V14.5z M6.8,1.5h2.5v2.1
			H6.8V1.5z M8.8,14.5H7.3v-2.1h1.5V14.5z M14.5,14.5H13v-2.1h1.5V14.5z"/>
	</g>
</g>
</svg>
