<?xml version="1.0" encoding="utf-8"?>
<!-- Generator: Adobe Illustrator 18.0.0, SVG Export Plug-In . SVG Version: 6.00 Build 0)  -->
<!DOCTYPE svg PUBLIC "-//W3C//DTD SVG 1.1//EN" "http://www.w3.org/Graphics/SVG/1.1/DTD/svg11.dtd">
<svg version="1.1" xmlns="http://www.w3.org/2000/svg" xmlns:xlink="http://www.w3.org/1999/xlink" x="0px" y="0px"
	 viewBox="0 0 16 16" enable-background="new 0 0 16 16" xml:space="preserve">
<g id="Layer_2">
	<g id="Layer_2_1_">
		<rect fill="none" width="16" height="16"/>
	</g>
</g>
<g id="art">
	<path fill="#3D6480" stroke="#3D6380" stroke-width="0.25" stroke-miterlimit="10" d="M0,16"/>
	<path fill="#3D6480" stroke="#3D6380" stroke-width="0.25" stroke-miterlimit="10" d="M0,16"/>
	<polygon fill="#FFFFFF" points="0,16 5.8,16 5.8,16 	"/>
	<path fill="#3D6480" stroke="#3D6380" stroke-width="0.25" stroke-miterlimit="10" d="M1.2,16.1"/>
	<path fill="#3D6480" stroke="#3D6380" stroke-width="0.25" stroke-miterlimit="10" d="M1.4,16.1"/>
	<g>
		<polygon fill="#FFFFFF" points="6.7,14.8 7.5,14.8 7.5,13.1 8.7,13.1 8.7,14.8 10.1,14.8 10.1,11.7 11.3,11.7 11.3,14.8 
			12.7,14.8 12.7,13.1 13.9,13.1 13.9,14.8 14.7,14.8 14.7,10.5 6.7,10.5 		"/>
		<path fill="#3D6480" d="M6.7,9.3V0H0v9.3V16v0h16V9.3H6.7z M1.3,7.5V6.1h3.1V4.9H1.3V3.5h1.7V2.3H1.3v-1h4.2v13.5H1.3v-0.8h1.7
			v-1.2H1.3v-1.4h3.1v-1.2H1.3V8.7h1.7V7.5H1.3z M14.7,14.8h-0.8v-1.7h-1.2v1.7h-1.4v-3.1h-1.2v3.1H8.7v-1.7H7.5v1.7H6.7v-4.2h8
			V14.8z"/>
		<polygon fill="#FFFFFF" points="1.3,8.7 1.3,10.1 4.3,10.1 4.3,11.3 1.3,11.3 1.3,12.7 2.9,12.7 2.9,13.9 1.3,13.9 1.3,14.7 
			5.5,14.7 5.5,1.3 1.3,1.3 1.3,2.3 2.9,2.3 2.9,3.5 1.3,3.5 1.3,4.9 4.3,4.9 4.3,6.1 1.3,6.1 1.3,7.5 2.9,7.5 2.9,8.7 		"/>
	</g>
</g>
</svg>
