<?xml version="1.0" encoding="utf-8"?>
<!-- Generator: Adobe Illustrator 18.0.0, SVG Export Plug-In . SVG Version: 6.00 Build 0)  -->
<!DOCTYPE svg PUBLIC "-//W3C//DTD SVG 1.1//EN" "http://www.w3.org/Graphics/SVG/1.1/DTD/svg11.dtd">
<svg version="1.1" id="Layer_1" xmlns="http://www.w3.org/2000/svg" xmlns:xlink="http://www.w3.org/1999/xlink" x="0px" y="0px"
	 viewBox="0 0 16 16" enable-background="new 0 0 16 16" xml:space="preserve">
<g id="Layer_2">
	<g id="Layer_2_1_">
		<rect fill="none" width="16" height="16"/>
	</g>
</g>
<g id="art">
	<g>
		<g>
			<g>
				<defs>
					<rect id="SVGID_1_" width="16" height="16"/>
				</defs>
				<clipPath id="SVGID_2_">
					<use xlink:href="#SVGID_1_"  overflow="visible"/>
				</clipPath>
				<g clip-path="url(#SVGID_2_)">
					<polygon fill="#3D6380" stroke="#3D6380" stroke-width="0.5" stroke-miterlimit="10" points="16,12.9 16,14.2 14.4,14.2 
						14.4,16 13.1,16 13.1,14.2 2.9,14.2 2.9,16 1.6,16 1.6,14.2 0,14.2 0,12.9 1.6,12.9 1.6,11.9 2.9,11.4 2.9,12.9 13.1,12.9 
						13.1,2.9 11.6,2.9 12.5,1.6 13.1,1.6 13.1,0 14.4,0 14.4,1.6 16,1.6 16,2.9 14.4,2.9 14.4,12.9 					"/>
				</g>
			</g>
		</g>
	</g>
</g>
<g>
	<defs>
		<rect id="SVGID_3_" x="-0.1" y="1" width="12.8" height="11.3"/>
	</defs>
	<clipPath id="SVGID_4_">
		<use xlink:href="#SVGID_3_"  overflow="visible"/>
	</clipPath>
	<path clip-path="url(#SVGID_4_)" fill-rule="evenodd" clip-rule="evenodd" fill="#3D6480" d="M9.5,4.7H7.4l2-3.8
		c0-0.2-2.2-0.4-2.4-0.4c-0.2,0-1,0.1-1.1,0.2L3.2,6.6c0,0.1-0.1,0.1-0.1,0.2c0,0.2,0.2,0.4,0.4,0.4h3.1l-1,3.8
		c0,0.2,0.2,0.4,0.4,0.4c0.2,0,0.3-0.1,0.4-0.2l3.4-5.9c0-0.1,0.1-0.1,0.1-0.2C9.9,4.9,9.7,4.7,9.5,4.7L9.5,4.7z"/>
</g>
</svg>
