<?xml version="1.0" encoding="utf-8"?>
<!-- Generator: Adobe Illustrator 18.0.0, SVG Export Plug-In . SVG Version: 6.00 Build 0)  -->
<!DOCTYPE svg PUBLIC "-//W3C//DTD SVG 1.1//EN" "http://www.w3.org/Graphics/SVG/1.1/DTD/svg11.dtd">
<svg version="1.1" id="Layer_1" xmlns="http://www.w3.org/2000/svg" xmlns:xlink="http://www.w3.org/1999/xlink" x="0px" y="0px"
	 viewBox="0 0 42 42" enable-background="new 0 0 42 42" xml:space="preserve">
<g>
	<g>
		<rect x="29.5" y="24.4" fill="none" width="0.7" height="0.5"/>
		<path fill="none" d="M26.6,16c1,0,1.5-0.5,1.5-1.3V12c0-0.8-0.5-1.3-1.5-1.3s-1.5,0.5-1.5,1.3v2.8C25.1,15.6,25.6,16,26.6,16z"/>
		<polygon fill="#3E6480" points="14.2,10 13.1,10 11.2,15.2 9.3,10 8.2,10 7.9,16.7 8.8,16.7 8.9,11.3 10.6,15.8 11.7,15.8 
			13.4,11.3 13.6,16.7 14.4,16.7 		"/>
		<polygon fill="#3E6480" points="16.7,16.7 16,18.7 16.8,18.7 17.5,16.7 19.1,11.8 18.2,11.8 16.9,16 15.6,11.8 14.7,11.8 
			16.3,16.7 		"/>
		<path fill="#3E6480" d="M23.4,15c0-1.3-0.1-1.6-1.9-2c-1.3-0.3-1.3-0.4-1.3-1.3c0-0.8,0.2-1,1.3-1c0.5,0,1.2,0.1,1.7,0.2l0.1-0.7
			c-0.5-0.1-1.2-0.2-1.8-0.2c-1.6,0-2.1,0.6-2.1,1.7c0,1.4,0.2,1.7,1.8,2c1.4,0.3,1.4,0.4,1.4,1.3c0,0.8-0.2,1-1.3,1
			c-0.6,0-1.2-0.1-1.9-0.3l-0.1,0.7c0.6,0.2,1.3,0.4,2,0.4C23,16.8,23.4,16.1,23.4,15z"/>
		<path fill="#3E6480" d="M26.4,16.8l0.7,1.6l0.8-0.4l-0.6-1.3c1.2-0.2,1.7-1,1.7-2V12c0-1.1-0.7-2-2.4-2c-1.7,0-2.4,0.9-2.4,2v2.8
			C24.2,15.8,24.9,16.7,26.4,16.8z M25.1,12c0-0.8,0.5-1.3,1.5-1.3s1.5,0.5,1.5,1.3v2.8c0,0.8-0.5,1.3-1.5,1.3s-1.5-0.5-1.5-1.3V12z
			"/>
		<polygon fill="#3E6480" points="33.9,15.9 31,15.9 31,10 30.1,10 30.1,16.7 33.9,16.7 		"/>
		<path fill="#0CB20F" d="M16,27.1l1.6,1.6h0c-2.2,0-2.9-0.8-2.9-3v-2.7h-1v2.7c0,2.8,1.2,4.1,3.9,4.1h0.1l-1.7,1.7l0.7,0.7l2.9-2.9
			l-2.8-2.8L16,27.1z"/>
		<polygon fill="#FFEBCD" points="31.6,31.8 31.6,38.1 37.5,35.1 37.5,31.8 33.1,34.2 		"/>
		<polygon fill="#FFEBCD" points="36.8,27.7 36,27.4 36,28.1 		"/>
		<polygon fill="#FFEBCD" points="37.8,28.2 32.2,31.1 33.4,32.9 38.9,29.9 		"/>
		<polygon fill="#FFEBCD" points="38.4,35.7 31.5,39.2 24.5,35.7 24.5,31.6 24.5,31.5 24.5,35.7 31.5,39.2 38.5,35.7 38.5,31.2 
			38.4,31.2 		"/>
		<polygon fill="#FFEBCD" points="25.4,32 25.4,35.1 31.1,38 31.1,32.1 29.6,34.2 		"/>
		<polygon fill="#FFEBCD" points="26.8,27.4 26.1,27.8 26.8,28.1 		"/>
		<rect x="25" y="27.7" fill="#FFEBCD" width="0" height="0"/>
		<polygon fill="#FFEBCD" points="30.7,31.1 25.1,28.3 23.7,30.1 29.3,33 		"/>
		<path fill="#3E6480" d="M38.4,27.4l-2.5-1l0-1.3l-1-1h-1.5v-1.5l-1-1h-5.7v4.9l-2.3,1l-2.2,3l2.2,1.1l0,0v4.1l7,3.5l7-3.5v-4.4
			l0,0l1.8-1L38.4,27.4z M36.8,27.7L36,28.1l0-0.8L36.8,27.7z M26.8,27.4v0.7l-0.8-0.4L26.8,27.4z M25,27.7L25,27.7L25,27.7L25,27.7
			L25,27.7z M23.7,30.1l1.4-1.8l5.6,2.8L29.3,33L23.7,30.1z M31.1,38l-5.7-2.9v-3l4.1,2.2l1.5-2.1V38z M31.5,30.8l-3.6-1.9v-6.3h4.6
			V25H35v3.9L31.5,30.8z M37.5,35.1l-5.9,3v-6.3l1.6,2.4l4.3-2.4V35.1z M33.4,32.9l-1.2-1.8l5.6-2.9l1.1,1.7L33.4,32.9z"/>
		<path fill="#EFF9FE" d="M35,25h-2.5v-2.5h-4.6v6.3l3.6,1.9l3.5-1.8V25z M33.3,28.8h-3.8v-0.5h3.8V28.8z M33.3,26.9h-3.8v-0.5h3.8
			V26.9z"/>
		<rect x="29.5" y="26.4" fill="#3E6480" width="3.8" height="0.5"/>
		<rect x="29.5" y="28.3" fill="#3E6480" width="3.8" height="0.5"/>
	</g>
</g>
</svg>
