<?xml version="1.0" encoding="utf-8"?>
<!-- Generator: Adobe Illustrator 18.0.0, SVG Export Plug-In . SVG Version: 6.00 Build 0)  -->
<!DOCTYPE svg PUBLIC "-//W3C//DTD SVG 1.1//EN" "http://www.w3.org/Graphics/SVG/1.1/DTD/svg11.dtd">
<svg version="1.1" xmlns="http://www.w3.org/2000/svg" xmlns:xlink="http://www.w3.org/1999/xlink" x="0px" y="0px"
	 viewBox="0 0 16 16" enable-background="new 0 0 16 16" xml:space="preserve">
<g id="Layer_2">
	<g id="Layer_2_1_">
		<rect fill="none" width="16" height="16"/>
	</g>
</g>
<g id="art">
	<g>
		<g>
			<defs>
				<rect id="SVGID_1_" x="0" width="16" height="16"/>
			</defs>
			<clipPath id="SVGID_2_">
				<use xlink:href="#SVGID_1_"  overflow="visible"/>
			</clipPath>
			<g clip-path="url(#SVGID_2_)">
				<polygon fill="#3D6380" stroke="#3D6380" stroke-width="0.5" stroke-miterlimit="10" points="16,12.9 16,14.2 14.4,14.2 
					14.4,16 13.1,16 13.1,14.2 2.9,14.2 2.9,16 1.6,16 1.6,14.2 0,14.2 0,12.9 1.6,12.9 1.6,11.9 2.9,11.4 2.9,12.9 13.1,12.9 
					13.1,2.9 11.6,2.9 12.5,1.6 13.1,1.6 13.1,0 14.4,0 14.4,1.6 16,1.6 16,2.9 14.4,2.9 14.4,12.9 				"/>
				<polygon fill="#FFFFFF" points="1.2,9 1.4,6.1 6.7,1 9.1,3.3 3.3,9 				"/>
				<path fill="#3D6480" d="M6.6,0L0,6.6V10l3.4,0L10,3.4L6.6,0z M7.7,3.4L7.1,4L6,2.9l0.6-0.6L7.7,3.4z M2.8,8.4l-1.1,0V7.2
					l3.8-3.8l1.1,1.1L2.8,8.4z"/>
			</g>
		</g>
	</g>
</g>
</svg>
