<?xml version="1.0" encoding="utf-8"?>
<!-- Generator: Adobe Illustrator 18.0.0, SVG Export Plug-In . SVG Version: 6.00 Build 0)  -->
<!DOCTYPE svg PUBLIC "-//W3C//DTD SVG 1.1//EN" "http://www.w3.org/Graphics/SVG/1.1/DTD/svg11.dtd">
<svg version="1.1" xmlns="http://www.w3.org/2000/svg" xmlns:xlink="http://www.w3.org/1999/xlink" x="0px" y="0px"
	 viewBox="0 0 16 16" enable-background="new 0 0 16 16" xml:space="preserve">
<g id="Layer_2">
	<g id="Layer_2_1_">
		<rect fill="none" width="16" height="16"/>
	</g>
</g>
<g id="art">
	<g>
		<polygon fill="#3D6480" points="11.5,10 10.7,9.3 12.3,9.3 12.3,7.6 8,7.6 8,12 9.6,12 9.6,10.4 10.3,11.1 		"/>
		<polygon fill="#3D6480" points="2.3,9.3 3.8,9.3 0.5,12.6 1.7,13.7 5,10.4 5,12 6.6,12 6.6,7.6 2.3,7.6 		"/>
		<polygon fill="#3D6480" points="12.3,4.5 10.7,4.5 14.1,1.2 12.9,0 9.6,3.3 9.6,1.8 8,1.8 8,6.1 12.3,6.1 		"/>
		<polygon fill="#3D6480" points="5,3.3 1.7,0 0.5,1.2 3.8,4.5 2.3,4.5 2.3,6.1 6.6,6.1 6.6,1.8 5,1.8 		"/>
		<polygon fill="#3D6480" points="15,10.9 11.8,14.1 10.8,13 9.8,14 11.8,16 16,11.8 		"/>
	</g>
</g>
</svg>
