<?xml version="1.0" encoding="utf-8"?>
<!-- Generator: Adobe Illustrator 19.1.0, SVG Export Plug-In . SVG Version: 6.00 Build 0)  -->
<svg version="1.1" id="Layer_1" xmlns="http://www.w3.org/2000/svg" xmlns:xlink="http://www.w3.org/1999/xlink" x="0px" y="0px"
	 viewBox="-297 389 16 16" style="enable-background:new -297 389 16 16;" xml:space="preserve">
<style type="text/css">
	.st0{fill:none;}
	.st1{fill:#F99C1C;}
</style>
<g id="Layer_2">
	<g id="Layer_2_1_">
		<rect x="-297" y="389" class="st0" width="16" height="16"/>
	</g>
</g>
<g id="art">
	<g>
		<polygon class="st1" points="-286,396 -286,394.3 -284,394.3 -288,390.2 -286.8,389 -282.8,393 -282.8,391.1 -281,391.1 -281,396 
					"/>
		<polygon class="st1" points="-288,400 -286.3,400 -286.3,402 -282.2,398 -281,399.2 -285,403.2 -283.1,403.2 -283.1,405 -288,405 
					"/>
		<polygon class="st1" points="-292,398 -292,399.7 -294,399.7 -290,403.8 -291.2,405 -295.2,401 -295.2,402.9 -297,402.9 -297,398 
					"/>
		<polygon class="st1" points="-290,394 -291.7,394 -291.7,392 -295.8,396 -297,394.8 -293,390.8 -294.9,390.8 -294.9,389 -290,389 
					"/>
	</g>
</g>
</svg>
