<?xml version="1.0" encoding="utf-8"?>
<!-- Generator: Adobe Illustrator 17.0.0, SVG Export Plug-In . SVG Version: 6.00 Build 0)  -->
<!DOCTYPE svg PUBLIC "-//W3C//DTD SVG 1.1//EN" "http://www.w3.org/Graphics/SVG/1.1/DTD/svg11.dtd">
<svg version="1.1" id="Layer_1" xmlns="http://www.w3.org/2000/svg" xmlns:xlink="http://www.w3.org/1999/xlink" x="0px" y="0px"
	 width="42px" height="42px" viewBox="0 0 42 42" enable-background="new 0 0 42 42" xml:space="preserve">
<g>
	<polygon fill="#3D6480" points="37.236,33.296 37.236,36.378 32.01,31.153 30.666,32.497 35.893,37.723 32.746,37.723 
		32.747,39.624 39.136,39.621 39.136,33.296 	"/>
	<polygon fill="#EFF9FE" points="19.319,23.735 22.516,23.735 22.755,20.268 19.558,20.268 	"/>
	<path fill="#EFF9FE" d="M25.65,13.714V9.456H12.272v24.41h10.595l7.078-7.078l-0.037-13.074H25.65z M25.654,20.268h-2.097
		l-0.239,3.467h2.336v0.801h-2.391l-0.194,2.814l-0.798-0.055l0.19-2.76h-3.197L19.07,27.35l-0.798-0.055l0.19-2.76h-1.875v-0.801
		h1.93l0.239-3.467h-2.169v-0.801h2.224l0.176-2.56l0.798,0.055l-0.173,2.505h3.197l0.176-2.56l0.798,0.055l-0.172,2.505h2.042
		V20.268z"/>
	<polygon fill="#3D6480" points="31.609,13.724 29.899,12.014 27.35,12.014 27.35,9.466 25.641,7.757 10.572,7.757 10.572,35.565 
		21.168,35.565 22.867,33.866 12.272,33.866 12.272,9.456 25.65,9.456 25.65,13.714 29.908,13.714 29.946,26.788 31.641,25.092 	"/>
	<path fill="#3D6480" d="M23.784,16.963l-0.798-0.055l-0.176,2.56h-3.197l0.173-2.505l-0.798-0.055l-0.176,2.56h-2.224v0.801h2.169
		l-0.239,3.467h-1.93v0.801h1.875l-0.19,2.76l0.798,0.055l0.194-2.814h3.197l-0.19,2.76l0.798,0.055l0.194-2.814h2.391v-0.801
		h-2.336l0.239-3.467h2.097v-0.801h-2.042L23.784,16.963z M22.516,23.735h-3.197l0.239-3.467h3.197L22.516,23.735z"/>
</g>
</svg>
