<?xml version="1.0" encoding="utf-8"?>
<!-- Generator: Adobe Illustrator 18.0.0, SVG Export Plug-In . SVG Version: 6.00 Build 0)  -->
<!DOCTYPE svg PUBLIC "-//W3C//DTD SVG 1.1//EN" "http://www.w3.org/Graphics/SVG/1.1/DTD/svg11.dtd">
<svg version="1.1" id="Layer_1" xmlns="http://www.w3.org/2000/svg" xmlns:xlink="http://www.w3.org/1999/xlink" x="0px" y="0px"
	 viewBox="0 0 16 16" enable-background="new 0 0 16 16" xml:space="preserve">
<g>
	<polygon fill="#FFFFFF" points="6.5,3.3 6.5,5 6,5 6,4.3 3.9,4.3 3.9,5.3 4.9,5.3 4.9,6.3 3.9,6.3 3.9,7.3 4.9,7.3 4.9,10.1 
		3.3,10.1 3.3,3.3 	"/>
	<polygon fill="#FFFFFF" points="12.7,3.3 12.7,10.1 11.1,10.1 11.1,7.3 12.2,7.3 12.2,6.3 11.1,6.3 11.1,5.3 12.1,5.3 12.1,4.3 
		10,4.3 10,5 9.5,5 9.5,3.3 	"/>
	<path fill="#3D6380" d="M8.7,2.5V5H7.3V2.5H2.5V11h2.4v2.5H11V11h2.4V2.5H8.7z M4.9,6.3h-1v1h1v2.8H3.3V3.3h3.1V5H6V4.3H3.9v1h1
		V6.3z M10.3,12.7H5.8V5.9h4.5V12.7z M12.7,10.1h-1.5V7.3h1.1v-1h-1.1v-1h1v-1H10V5H9.5V3.3h3.1V10.1z"/>
	<path fill="#FFFFFF" d="M5.8,5.9v6.8h4.5V5.9H5.8z M9.4,9.8H6.6v-1h2.8V9.8z M9.4,7.7H6.6v-1h2.8V7.7z"/>
	<rect x="6.6" y="6.7" fill="#3D6380" width="2.8" height="1"/>
	<rect x="6.6" y="8.8" fill="#3D6380" width="2.8" height="1"/>
</g>
</svg>
