<?xml version="1.0" encoding="utf-8"?>
<!-- Generator: Adobe Illustrator 20.1.0, SVG Export Plug-In . SVG Version: 6.00 Build 0)  -->
<svg version="1.1" id="Layer_1" xmlns="http://www.w3.org/2000/svg" xmlns:xlink="http://www.w3.org/1999/xlink" x="0px" y="0px"
	 width="16px" height="16px" viewBox="0 0 16 16" style="enable-background:new 0 0 16 16;" xml:space="preserve">
<style type="text/css">
	.st0{fill:#FFFFFF;}
	.st1{fill:#3D6380;}
</style>
<g>
	<path class="st0" d="M12.2,11.2v2c0,0.1-0.3,0.3-1,0.5C10.4,13.9,9.3,14,8,14c-2.8,0-4.1-0.6-4.2-0.7v-2.1c0.5,0.3,2.1,0.6,4.3,0.6
		C10.3,11.8,11.6,11.5,12.2,11.2z"/>
	<path class="st0" d="M12.2,7.6v2.1c-0.2,0.1-0.5,0.2-0.9,0.3c-0.8,0.2-2,0.3-3.2,0.3c-2.1,0-3.6-0.3-4.2-0.6V7.6
		c0.5,0.3,2.1,0.6,4.2,0.6C10.3,8.2,11.7,7.9,12.2,7.6z"/>
	<path class="st0" d="M12.2,4.3v1.9c-0.2,0.1-0.5,0.2-0.9,0.3c-0.8,0.2-2,0.3-3.2,0.3c-2.1,0-3.6-0.3-4.2-0.7V4.3
		c0.5,0.3,2.1,0.6,4.2,0.6C10.3,4.9,11.7,4.5,12.2,4.3z"/>
	<path class="st0" d="M12.2,2.7v0.2c-0.6,0.3-2,0.6-4.1,0.6c-2.1,0-3.6-0.3-4.2-0.7V2.7C4.1,2.5,5.4,2,8,2C10.5,2,12,2.5,12.2,2.7z"
		/>
	<path class="st1" d="M8,0.5c-2.1,0-5.6,0.3-5.6,2.1v10.7c0,2.1,4.3,2.2,5.7,2.2c1.3,0,2.6-0.1,3.5-0.4c1.4-0.4,2.1-1,2.1-1.8V2.6
		C13.6,0.7,9.7,0.5,8,0.5z M3.8,2.7C4.1,2.5,5.4,2,8,2c2.5,0,4,0.5,4.2,0.7v0.2c-0.6,0.3-2,0.6-4.1,0.6c-2.1,0-3.6-0.3-4.2-0.7V2.7z
		 M3.8,4.3c0.5,0.3,2.1,0.6,4.2,0.6c2.2,0,3.6-0.4,4.1-0.6v1.9c-0.2,0.1-0.5,0.2-0.9,0.3c-0.8,0.2-2,0.3-3.2,0.3
		c-2.1,0-3.6-0.3-4.2-0.7V4.3z M3.8,7.6c0.5,0.3,2.1,0.6,4.2,0.6c2.2,0,3.6-0.4,4.1-0.6v2.1c-0.2,0.1-0.5,0.2-0.9,0.3
		c-0.8,0.2-2,0.3-3.2,0.3c-2.1,0-3.6-0.3-4.2-0.6V7.6z M12.2,13.2c0,0.1-0.3,0.3-1,0.5C10.4,13.9,9.3,14,8,14
		c-2.8,0-4.1-0.6-4.2-0.7v-2.1c0.5,0.3,2.1,0.6,4.3,0.6c2.2,0,3.6-0.3,4.1-0.6V13.2z"/>
</g>
</svg>
