<svg width="30" height="30" viewBox="0 0 30 30" fill="none" xmlns="http://www.w3.org/2000/svg">
<path d="M20.8178 16.2468C20.8411 15.8149 20.8178 15.3714 20.736 14.9161L22.2664 13.7955L22.0561 13.2585C21.9626 13.0134 21.8575 12.7916 21.7407 12.5581L21.472 12.0212L19.6495 12.4297C19.5327 12.278 19.3925 12.1262 19.2523 11.9745C19.0888 11.7994 18.9252 11.6359 18.75 11.4842L19.1939 9.66318L18.6916 9.38303C18.4579 9.25462 18.2243 9.13789 17.9907 9.03283L17.4416 8.79937L16.3318 10.2702C15.8995 10.1768 15.4556 10.1184 15.0234 10.1184L14.1939 8.4375L13.6332 8.54256C13.3762 8.58925 13.1192 8.64762 12.8738 8.71766L12.3014 8.88108L12.3832 10.7371C12.0093 10.9239 11.6472 11.169 11.2967 11.4725L9.56776 10.7254L9.20561 11.169C9.04206 11.3791 8.89019 11.5893 8.75 11.7994L8.4229 12.2896L9.68458 13.6437C9.50935 14.0523 9.38084 14.4725 9.31075 14.8928L7.5 15.4297V16.0017C7.5 16.2585 7.52337 16.5153 7.55841 16.7721L7.62851 17.3675L9.48598 17.6009C9.61449 18.0328 9.78972 18.4414 10.0117 18.8149L8.9486 20.3908L10.0935 21.6165L11.7056 20.8694L11.8808 20.7643C12.243 20.9978 12.6402 21.1963 13.0724 21.3597L13.2827 23.2391L13.8551 23.3324C14.1005 23.3791 14.3575 23.3908 14.6145 23.4025L15.2103 23.4375L15.7477 21.6632C16.2033 21.6048 16.6238 21.5114 17.0327 21.3597L18.3995 22.6554L18.9019 22.3519C19.1238 22.2235 19.3341 22.0717 19.5444 21.9083L20.0234 21.5464L19.2991 19.8655C19.5911 19.5503 19.8481 19.2001 20.0818 18.8033L21.9509 18.92L22.1378 18.383C22.2196 18.1379 22.3014 17.8811 22.3598 17.6359L22.5 17.0523L20.8411 16.2235L20.8178 16.2468ZM14.9299 20.1924C12.6051 20.1924 10.7243 18.313 10.7243 15.99C10.7243 13.6671 12.6051 11.7877 14.9299 11.7877C17.2547 11.7877 19.1355 13.6671 19.1355 15.99C19.1355 18.313 17.2547 20.1924 14.9299 20.1924Z" fill="#3D6480"/>
</svg>
