<svg width="14" height="14" viewBox="0 0 14 14" fill="none" xmlns="http://www.w3.org/2000/svg">
<path d="M12.13 6.98999C12.15 6.61999 12.13 6.23999 12.06 5.84999L13.37 4.88999L13.19 4.42999C13.11 4.21999 13.02 4.02999 12.92 3.82999L12.69 3.36999L11.13 3.71999C11.03 3.58999 10.91 3.45999 10.79 3.32999C10.65 3.17999 10.51 3.03999 10.36 2.90999L10.74 1.34999L10.31 1.10999C10.11 0.999989 9.91 0.899988 9.71 0.809988L9.24 0.609989L8.29 1.86999C7.92 1.78999 7.53999 1.73999 7.16999 1.73999L6.46 0.299988L5.98 0.389988C5.76 0.429988 5.54 0.479989 5.33 0.539989L4.84 0.679989L4.91 2.26999C4.59 2.42999 4.28 2.63999 3.98 2.89999L2.5 2.25999L2.19 2.63999C2.05 2.81999 1.92 2.99999 1.8 3.17999L1.52 3.59999L2.6 4.75999C2.45 5.10999 2.34 5.46999 2.28 5.82999L0.729996 6.28999V6.77999C0.729996 6.99999 0.749997 7.21999 0.779997 7.43999L0.839996 7.94999L2.43 8.14999C2.54 8.51999 2.69 8.86999 2.88 9.18999L1.97 10.54L2.95 11.59L4.33 10.95L4.48 10.86C4.79 11.06 5.13 11.23 5.5 11.37L5.68 12.98L6.16999 13.06C6.37999 13.1 6.6 13.11 6.82 13.12L7.33 13.15L7.79 11.63C8.18 11.58 8.54 11.5 8.89 11.37L10.06 12.48L10.49 12.22C10.68 12.11 10.86 11.98 11.04 11.84L11.45 11.53L10.83 10.09C11.08 9.81999 11.3 9.51999 11.5 9.17999L13.1 9.27999L13.26 8.81999C13.33 8.60999 13.4 8.38999 13.45 8.17999L13.57 7.67999L12.15 6.96999L12.13 6.98999ZM7.09 10.37C5.1 10.37 3.49 8.75999 3.49 6.76999C3.49 4.77999 5.1 3.16999 7.09 3.16999C9.08 3.16999 10.69 4.77999 10.69 6.76999C10.69 8.75999 9.08 10.37 7.09 10.37Z" fill="#3D6480"/>
</svg>
