<?xml version="1.0" encoding="utf-8"?>
<!-- Generator: Adobe Illustrator 17.0.0, SVG Export Plug-In . SVG Version: 6.00 Build 0)  -->
<!DOCTYPE svg PUBLIC "-//W3C//DTD SVG 1.1//EN" "http://www.w3.org/Graphics/SVG/1.1/DTD/svg11.dtd">
<svg version="1.1" id="Layer_1" xmlns="http://www.w3.org/2000/svg" xmlns:xlink="http://www.w3.org/1999/xlink" x="0px" y="0px"
	 width="42px" height="42px" viewBox="0 0 42 42" enable-background="new 0 0 42 42" xml:space="preserve">
<g>
	<polygon fill="#3D6480" points="11.586,5.257 9.685,5.257 9.685,8.34 4.461,3.116 3.118,4.46 8.343,9.686 5.197,9.686 
		5.198,11.587 11.586,11.584 	"/>
	<polygon fill="#EFF9FE" points="22.489,19.408 19.291,19.408 19.053,22.875 22.25,22.875 	"/>
	<path fill="#EFF9FE" d="M29.7,33.006l-0.058-20.152h-4.257V8.595h-6.254l-7.125,7.125v17.285H29.7z M16.321,22.875h1.93
		l0.239-3.467h-2.169v-0.801h2.224l0.176-2.56l0.798,0.055l-0.172,2.505h3.198l0.176-2.56l0.798,0.055l-0.173,2.505h2.041v0.801
		h-2.096l-0.239,3.467h2.335v0.801h-2.391l-0.194,2.814l-0.798-0.055l0.19-2.76h-3.198l-0.194,2.814l-0.798-0.055l0.19-2.76h-1.875
		V22.875z"/>
	<polygon fill="#3D6480" points="31.342,12.863 29.633,11.154 27.085,11.154 27.085,8.606 25.375,6.896 20.83,6.896 19.131,8.595 
		25.385,8.595 25.385,12.853 29.642,12.853 29.7,33.006 12.006,33.006 12.006,15.721 10.306,17.421 10.306,34.705 31.405,34.705 	
		"/>
	<path fill="#3D6480" d="M18.006,26.435l0.798,0.055l0.194-2.814h3.198l-0.19,2.76l0.798,0.055l0.194-2.814h2.391v-0.801h-2.335
		l0.239-3.467h2.096v-0.801h-2.041l0.173-2.505l-0.798-0.055l-0.176,2.56h-3.198l0.172-2.505l-0.798-0.055l-0.176,2.56h-2.224v0.801
		h2.169l-0.239,3.467h-1.93v0.801h1.875L18.006,26.435z M19.291,19.408h3.198l-0.239,3.467h-3.198L19.291,19.408z"/>
</g>
</svg>
