<?xml version="1.0" encoding="utf-8"?>
<!-- Generator: Adobe Illustrator 18.0.0, SVG Export Plug-In . SVG Version: 6.00 Build 0)  -->
<!DOCTYPE svg PUBLIC "-//W3C//DTD SVG 1.1//EN" "http://www.w3.org/Graphics/SVG/1.1/DTD/svg11.dtd">
<svg version="1.1" id="Layer_1" xmlns="http://www.w3.org/2000/svg" xmlns:xlink="http://www.w3.org/1999/xlink" x="0px" y="0px"
	 viewBox="0 0 42 42" enable-background="new 0 0 42 42" xml:space="preserve">
<g>
	<path fill="#FFECCE" d="M12.9,16.8c0.1-0.5,2.9-1.5,7.9-1.5c5,0,7.9,1,8,1.5v0.8c-1,0.7-3.9,1.3-7.9,1.3c-4.1,0-7-0.6-8.1-1.3V16.8
		z"/>
	<path fill="#FFECCE" d="M26.9,24.4c0.9-0.2,1.6-0.5,2-0.8v-5.2c-2.2,1.1-6.7,1.2-7.9,1.2c-2.3,0-4.6-0.2-6.2-0.6
		c-0.8-0.2-1.4-0.4-1.8-0.6v5.2c1.1,0.7,3.9,1.3,8,1.3C23.2,25,25.3,24.8,26.9,24.4z"/>
	<path fill="#FFECCE" d="M20.9,25.8c-2.3,0-4.6-0.2-6.2-0.6c-0.8-0.2-1.4-0.4-1.8-0.6v5c0,0.6,2.8,1.7,8,1.7h0
		c1.5,0,2.9-0.1,4.1-0.3l3.7-3.7v-2.6C26.6,25.7,22.1,25.8,20.9,25.8z"/>
	<path fill="#3D6480" d="M20.9,31.3L20.9,31.3c-5.2,0-8-1.1-8-1.7v-5c0.5,0.2,1.1,0.4,1.8,0.6c1.7,0.4,3.9,0.6,6.2,0.6
		c1.1,0,5.6-0.1,7.9-1.2v2.6l1.7-1.7v-8.5c0-3-7.5-3.2-9.8-3.2c-2.9,0-9.6,0.3-9.6,3.2v12.5c0,3.3,8.1,3.4,9.7,3.4h0
		c0.8,0,1.5,0,2.2-0.1l1.9-1.9C23.8,31.2,22.4,31.3,20.9,31.3z M12.9,16.8c0.1-0.5,2.9-1.5,7.9-1.5c5,0,7.9,1,8,1.5v0.8
		c-1,0.7-3.9,1.3-7.9,1.3c-4.1,0-7-0.6-8.1-1.3V16.8z M12.9,18.4c0.5,0.2,1.1,0.4,1.8,0.6c1.7,0.4,3.9,0.6,6.2,0.6
		c1.1,0,5.6-0.1,7.9-1.2v5.2c-0.4,0.3-1.1,0.5-2,0.8c-1.5,0.4-3.6,0.6-5.9,0.6c-4.1,0-7-0.6-8-1.3V18.4z"/>
	<g>
		<polygon fill="#3D6480" points="37.1,32.3 37.1,35.4 31.9,30.2 30.5,31.5 35.8,36.8 32.6,36.8 32.6,38.7 39,38.7 39,32.3 		"/>
	</g>
	<g>
		<path fill="#3D6480" d="M4.8,10.1c0,0.9,0.4,1.2,1.4,1.2c0.4,0,1,0,1.6-0.1l0.1,0.7c-0.5,0.1-1.2,0.2-1.7,0.2
			c-1.6,0-2.3-0.7-2.3-2V7.2c0-1.3,0.6-2,2.3-2c0.5,0,1.2,0.1,1.7,0.2L7.8,6.2C7.3,6.1,6.7,6,6.3,6C5.2,6,4.8,6.3,4.8,7.3V10.1z"/>
		<path fill="#3D6480" d="M10.5,12.1c-1.4,0-2-0.8-2-1.8V8.9c0-1,0.6-1.8,2-1.8c1.4,0,2,0.8,2,1.8v1.4C12.5,11.3,12,12.1,10.5,12.1z
			 M10.5,7.8c-0.8,0-1.1,0.4-1.1,1.1v1.5c0,0.7,0.4,1.1,1.1,1.1c0.8,0,1.1-0.4,1.1-1.1V8.8C11.7,8.1,11.3,7.8,10.5,7.8z"/>
		<path fill="#3D6480" d="M14.4,7.1v3.7c0,0.3,0.2,0.5,0.5,0.5c0.4,0,1.1-0.2,1.6-0.5V7.1h0.8V12h-0.7l-0.1-0.4
			c-0.5,0.3-1.4,0.5-2,0.5c-0.8,0-1.1-0.5-1.1-1.2V7.1H14.4z"/>
		<path fill="#3D6480" d="M18.4,10.3V8.8c0-1.1,0.4-1.8,1.9-1.8c0.4,0,0.9,0.1,1.2,0.1l-0.1,0.7c-0.4-0.1-0.7-0.1-1.1-0.1
			c-0.8,0-1.1,0.2-1.1,1v1.6c0,0.8,0.3,1,1.1,1c0.3,0,0.7,0,1.1-0.1l0.1,0.7c-0.2,0.1-0.7,0.1-1.2,0.1
			C18.8,12.1,18.4,11.5,18.4,10.3z"/>
		<path fill="#3D6480" d="M25.5,12V8.3c0-0.3-0.2-0.5-0.5-0.5c-0.4,0-1.1,0.2-1.6,0.5V12h-0.8V5.2L23.4,5v2.5
			C23.9,7.3,24.7,7,25.3,7c0.8,0,1.1,0.5,1.1,1.2V12H25.5z"/>
		<path fill="#3D6480" d="M30,5.4c1.6,0,2.1,0.8,2.1,1.9v2.8c0,1.1-0.5,1.9-2.1,1.9h-2.3V5.4H30z M28.5,11.2H30c1,0,1.3-0.4,1.3-1.2
			V7.3c0-0.8-0.3-1.2-1.3-1.2h-1.4V11.2z"/>
		<path fill="#3D6480" d="M33.4,12V5.4H36c1,0,1.6,0.5,1.6,1.3v0.8c0,0.5-0.2,0.9-0.8,1.1c0.6,0.1,1,0.5,1,1.2v0.8
			c0,0.9-0.6,1.4-1.6,1.4H33.4z M36.7,6.7c0-0.4-0.2-0.6-0.8-0.6h-1.7v2.2h1.5c0.6,0,0.9-0.3,0.9-0.8V6.7z M36.9,9.8
			c0-0.5-0.3-0.8-1-0.8h-1.7v2.3H36c0.6,0,0.9-0.3,0.9-0.8V9.8z"/>
	</g>
</g>
</svg>
