<?xml version="1.0" encoding="utf-8"?>
<!-- Generator: Adobe Illustrator 18.0.0, SVG Export Plug-In . SVG Version: 6.00 Build 0)  -->
<!DOCTYPE svg PUBLIC "-//W3C//DTD SVG 1.1//EN" "http://www.w3.org/Graphics/SVG/1.1/DTD/svg11.dtd">
<svg version="1.1" xmlns="http://www.w3.org/2000/svg" xmlns:xlink="http://www.w3.org/1999/xlink" x="0px" y="0px"
	 viewBox="0 0 16 16" enable-background="new 0 0 16 16" xml:space="preserve">
<g id="Layer_2">
	<g id="Layer_2_1_">
		<rect fill="none" width="16" height="16"/>
	</g>
</g>
<g id="art">
	<g>
		<path fill="#FFFFFF" d="M0.3,5.8c0-0.2,0.1-0.3,0.2-0.5C0.4,5.4,0.4,5.6,0.3,5.8z"/>
		<path fill="#FFFFFF" d="M0.8,4.5C0.9,4.3,1,4.1,1.1,3.9C1,4.1,0.9,4.3,0.8,4.5z"/>
		<path fill="#FFFFFF" d="M5.4,0.4c0.1-0.1,0.3-0.1,0.4-0.1C5.7,0.3,5.6,0.4,5.4,0.4z"/>
		<path fill="#FFFFFF" d="M0.1,6.5c0-0.1,0.1-0.3,0.1-0.4C0.2,6.2,0.2,6.3,0.1,6.5z"/>
		<path fill="#FFFFFF" d="M6.2,0.2c0.1,0,0.3-0.1,0.4-0.1C6.4,0.2,6.3,0.2,6.2,0.2z"/>
		<path fill="#FFFFFF" d="M14.6,3.5c0.1,0.1,0.2,0.3,0.2,0.4C14.7,3.7,14.7,3.6,14.6,3.5z"/>
		<path fill="#FFFFFF" d="M9.1,15.9c-0.1,0-0.2,0-0.3,0C8.9,16,9,15.9,9.1,15.9z"/>
		<path fill="#FFFFFF" d="M7,0.1c0.1,0,0.2,0,0.3,0C7.2,0,7.1,0.1,7,0.1z"/>
		<path fill="#FFFFFF" d="M10.9,0.5c0.1,0.1,0.3,0.1,0.4,0.2C11.1,0.6,11,0.6,10.9,0.5z"/>
		<path fill="#FFFFFF" d="M10.2,0.3c0.1,0,0.3,0.1,0.4,0.1C10.5,0.4,10.3,0.3,10.2,0.3z"/>
		<path fill="#FFFFFF" d="M8.8,0c0.1,0,0.2,0,0.3,0C9,0.1,8.9,0,8.8,0z"/>
		<path fill="#FFFFFF" d="M9.5,0.1c0.1,0,0.2,0.1,0.4,0.1C9.7,0.2,9.6,0.2,9.5,0.1z"/>
		<path fill="#FFFFFF" d="M0,7.2c0-0.1,0-0.2,0-0.3C0.1,7,0,7.1,0,7.2z"/>
		<path fill="#FFFFFF" d="M5.2,15.5c-0.2-0.1-0.3-0.1-0.5-0.2C4.9,15.4,5,15.4,5.2,15.5z"/>
		<path fill="#FFFFFF" d="M5.8,15.7c-0.1,0-0.3-0.1-0.4-0.1C5.6,15.6,5.7,15.7,5.8,15.7z"/>
		<polygon fill="#FFFFFF" points="0,8 0,8 0,8 		"/>
		<path fill="#FFFFFF" d="M7.2,16c-0.1,0-0.2,0-0.3,0C7,15.9,7.1,16,7.2,16z"/>
		<path fill="#FFFFFF" d="M6.5,15.9c-0.1,0-0.2-0.1-0.4-0.1C6.3,15.8,6.4,15.8,6.5,15.9z"/>
		<path fill="#FFFFFF" d="M1.1,12c-0.1-0.1-0.2-0.3-0.2-0.4C0.9,11.7,1,11.8,1.1,12z"/>
		<path fill="#FFFFFF" d="M0.7,11.3c-0.1-0.1-0.1-0.3-0.2-0.4C0.6,11,0.7,11.2,0.7,11.3z"/>
		<path fill="#FFFFFF" d="M0.1,9.1c0-0.1,0-0.2,0-0.3C0,8.9,0.1,9,0.1,9.1z"/>
		<path fill="#FFFFFF" d="M0.2,9.9c0-0.1-0.1-0.2-0.1-0.4C0.2,9.6,0.2,9.7,0.2,9.9z"/>
		<path fill="#FFFFFF" d="M0.4,10.6c0-0.1-0.1-0.3-0.1-0.4C0.4,10.4,0.4,10.5,0.4,10.6z"/>
		<path fill="#FFFFFF" d="M0.6,5.1c0.1-0.2,0.1-0.4,0.2-0.5C0.7,4.7,0.6,4.9,0.6,5.1z"/>
		<path fill="#FFFFFF" d="M3,14.3c0.5,0.4,1,0.7,1.6,1C4.1,15,3.5,14.6,3,14.3L3,14.3z"/>
		<path fill="#FFFFFF" d="M15,4.1c0.1,0.1,0.1,0.2,0.2,0.4C15.1,4.3,15,4.2,15,4.1z"/>
		<path fill="#FFFFFF" d="M1.1,12.1c0.2,0.4,0.5,0.7,0.7,1l0,0C1.6,12.8,1.4,12.5,1.1,12.1z"/>
		<path fill="#FFFFFF" d="M8,0C8,0,8,0,8,0C8,0,8,0,8,0C8,0,8,0,8,0C8,0,8,0,8,0z"/>
		<path fill="#FFFFFF" d="M5.3,0.5C4.5,0.8,3.8,1.2,3.1,1.7l0,0C3.8,1.2,4.5,0.8,5.3,0.5z"/>
		<path fill="#FFFFFF" d="M8,16C8,16,8,16,8,16C8,16,8,16,8,16C8,16,8,16,8,16C8,16,8,16,8,16z"/>
		<path fill="#FFFFFF" d="M11.7,10.4l1.9,1.9c0.9-1.2,1.5-2.7,1.5-4.3c0-1.7-0.6-3.2-1.6-4.4l-1.8,1.8h1.8V7H8.9V2.5h1.6v1.8
			l1.8-1.8c-1.2-1-2.7-1.5-4.4-1.5c-1.6,0-3,0.5-4.2,1.4l2,2V2.5h1.6V7H2.8V5.4h1.8l-2-2C1.5,4.6,0.9,6.2,0.9,8
			c0,1.7,0.6,3.3,1.6,4.5l2.1-2.1H2.8V8.8h4.5v4.5H5.7v-1.8l-2.1,2.1c1.2,0.9,2.7,1.5,4.3,1.5c1.7,0,3.3-0.6,4.5-1.6l-2-2v1.8H8.9
			V8.8h4.5v1.6H11.7z"/>
		<path fill="#FFFFFF" d="M14.3,13L14.3,13c0.4-0.5,0.7-1.1,1-1.6C15,11.9,14.7,12.5,14.3,13z"/>
		<path fill="#FFFFFF" d="M13,1.8c-0.5-0.4-1-0.7-1.6-1C12,1.1,12.5,1.4,13,1.8L13,1.8z"/>
		<path fill="#FFFFFF" d="M12.1,14.9c0.4-0.2,0.7-0.5,1-0.7l0,0C12.8,14.4,12.5,14.6,12.1,14.9z"/>
		<path fill="#FFFFFF" d="M2,2.8C1.7,3.1,1.4,3.5,1.1,3.9C1.4,3.5,1.7,3.1,2,2.8L2,2.8z"/>
		<polygon fill="#FFFFFF" points="16,8 16,8 16,8 		"/>
		<path fill="#FFFFFF" d="M15.8,6.2c0,0.1,0.1,0.2,0.1,0.3C15.8,6.4,15.8,6.3,15.8,6.2z"/>
		<path fill="#FFFFFF" d="M12,14.9c-0.2,0.1-0.3,0.2-0.5,0.2C11.7,15.1,11.8,15,12,14.9z"/>
		<path fill="#FFFFFF" d="M15.3,4.7c0.1,0.1,0.1,0.2,0.1,0.4C15.4,5,15.3,4.8,15.3,4.7z"/>
		<path fill="#FFFFFF" d="M15.6,5.4c0,0.1,0.1,0.2,0.1,0.3C15.6,5.7,15.6,5.5,15.6,5.4z"/>
		<path fill="#FFFFFF" d="M15.9,7c0,0.1,0,0.2,0,0.3C16,7.1,15.9,7.1,15.9,7z"/>
		<path fill="#FFFFFF" d="M15.5,10.8c-0.1,0.2-0.1,0.3-0.2,0.5C15.4,11.1,15.4,11,15.5,10.8z"/>
		<path fill="#FFFFFF" d="M15.7,10.2c0,0.1-0.1,0.3-0.1,0.4C15.6,10.4,15.7,10.3,15.7,10.2z"/>
		<path fill="#FFFFFF" d="M15.9,9.5c0,0.1-0.1,0.2-0.1,0.4C15.8,9.7,15.8,9.6,15.9,9.5z"/>
		<path fill="#FFFFFF" d="M16,8.8c0,0.1,0,0.2,0,0.3C15.9,8.9,16,8.9,16,8.8z"/>
		<path fill="#FFFFFF" d="M14.5,3.4c-0.1-0.2-0.2-0.3-0.4-0.5l0,0C14.3,3.1,14.4,3.2,14.5,3.4z"/>
		<path fill="#FFFFFF" d="M9.9,15.8c-0.1,0-0.2,0.1-0.4,0.1C9.6,15.8,9.8,15.8,9.9,15.8z"/>
		<path fill="#FFFFFF" d="M10.6,15.5c-0.1,0-0.3,0.1-0.4,0.1C10.4,15.6,10.5,15.6,10.6,15.5z"/>
		<path fill="#FFFFFF" d="M11.3,15.3c-0.1,0.1-0.3,0.1-0.4,0.2C11,15.4,11.2,15.3,11.3,15.3z"/>
		<path fill="#3D6480" d="M15.3,11.3C15.3,11.3,15.3,11.3,15.3,11.3c0.1-0.2,0.2-0.4,0.2-0.5c0-0.1,0.1-0.1,0.1-0.2
			c0-0.1,0.1-0.3,0.1-0.4c0-0.1,0.1-0.2,0.1-0.3c0-0.1,0.1-0.2,0.1-0.4c0-0.1,0-0.3,0.1-0.4c0-0.1,0-0.2,0-0.3c0-0.2,0-0.5,0-0.8
			c0,0,0,0,0,0c0,0,0,0,0,0c0-0.3,0-0.5,0-0.8c0-0.1,0-0.2,0-0.3c0-0.2,0-0.3-0.1-0.5c0-0.1,0-0.2-0.1-0.3c0-0.1-0.1-0.3-0.1-0.4
			c0-0.1-0.1-0.2-0.1-0.3c0-0.1-0.1-0.2-0.1-0.3c0-0.1-0.1-0.2-0.1-0.4c0-0.1-0.1-0.2-0.1-0.3C15.1,4.3,15,4.2,15,4.1
			c0-0.1-0.1-0.2-0.1-0.2c-0.1-0.1-0.2-0.3-0.2-0.4c0,0,0,0,0,0c-0.1-0.2-0.2-0.3-0.4-0.5l0,0l1.2-1.2l-1.1-1.1L13,1.8l0,0
			c-0.5-0.4-1-0.7-1.6-1c-0.1,0-0.1-0.1-0.2-0.1c-0.1-0.1-0.3-0.1-0.4-0.2c-0.1,0-0.2-0.1-0.3-0.1c-0.1,0-0.3-0.1-0.4-0.1
			c-0.1,0-0.2-0.1-0.3-0.1c-0.1,0-0.2-0.1-0.4-0.1c-0.1,0-0.3,0-0.4-0.1C9,0.1,8.9,0,8.8,0C8.5,0,8.3,0,8,0c0,0,0,0,0,0c0,0,0,0,0,0
			C7.7,0,7.5,0,7.3,0c-0.1,0-0.2,0-0.3,0c-0.1,0-0.3,0-0.4,0.1c-0.1,0-0.3,0.1-0.4,0.1c-0.1,0-0.2,0-0.3,0.1c-0.2,0-0.3,0.1-0.4,0.1
			c0,0-0.1,0-0.1,0C4.5,0.8,3.8,1.2,3.1,1.7l0,0L2.1,0.6L0.9,1.7l1,1l0,0C1.7,3.1,1.4,3.5,1.1,3.9c0,0,0,0,0,0
			C1,4.1,0.9,4.3,0.8,4.5c0,0,0,0.1,0,0.1C0.7,4.7,0.6,4.9,0.6,5.1c0,0.1,0,0.1-0.1,0.2C0.4,5.4,0.4,5.6,0.3,5.8
			c0,0.1,0,0.2-0.1,0.3c0,0.1-0.1,0.3-0.1,0.4c0,0.1,0,0.3-0.1,0.4c0,0.1,0,0.2,0,0.3C0,7.5,0,7.7,0,8c0,0,0,0,0,0c0,0,0,0,0,0
			c0,0.3,0,0.5,0,0.8c0,0.1,0,0.2,0,0.3c0,0.2,0,0.3,0.1,0.5c0,0.1,0.1,0.2,0.1,0.4c0,0.1,0.1,0.2,0.1,0.4c0,0.1,0.1,0.3,0.1,0.4
			c0,0.1,0.1,0.2,0.1,0.3c0.1,0.1,0.1,0.3,0.2,0.4c0,0.1,0.1,0.1,0.1,0.2C0.9,11.7,1,11.8,1.1,12c0,0,0.1,0.1,0.1,0.1
			c0.2,0.4,0.5,0.7,0.7,1l0,0l-0.9,0.9l1.1,1.1l1-1l0,0c0.5,0.4,1,0.7,1.6,1c0,0,0,0,0.1,0c0.2,0.1,0.3,0.1,0.5,0.2
			c0.1,0,0.1,0.1,0.2,0.1c0.1,0,0.3,0.1,0.4,0.1c0.1,0,0.2,0.1,0.3,0.1c0.1,0,0.2,0.1,0.4,0.1c0.1,0,0.3,0,0.4,0.1
			c0.1,0,0.2,0,0.3,0c0.2,0,0.5,0,0.7,0c0,0,0,0,0,0c0,0,0,0,0,0c0.2,0,0.5,0,0.7,0c0.1,0,0.2,0,0.3,0c0.1,0,0.3,0,0.4-0.1
			c0.1,0,0.2-0.1,0.4-0.1c0.1,0,0.2-0.1,0.3-0.1c0.1,0,0.3-0.1,0.4-0.1c0.1,0,0.2-0.1,0.3-0.1c0.1-0.1,0.3-0.1,0.4-0.2
			c0.1,0,0.1-0.1,0.2-0.1c0.2-0.1,0.3-0.2,0.5-0.2c0,0,0.1,0,0.1-0.1c0.4-0.2,0.7-0.5,1-0.7l0,0l1.1,1.1l1.1-1.1L14.3,13l0,0
			C14.7,12.5,15,11.9,15.3,11.3z M8.9,8.8v4.5h1.6v-1.8l2,2c-1.2,1-2.8,1.6-4.5,1.6c-1.6,0-3.1-0.6-4.3-1.5l2.1-2.1v1.8h1.6V8.8H2.8
			v1.6h1.8l-2.1,2.1c-1-1.2-1.6-2.8-1.6-4.5c0-1.8,0.6-3.4,1.7-4.6l2,2H2.8V7h4.5V2.5H5.7v1.8l-2-2C5,1.4,6.4,0.9,8,0.9
			c1.7,0,3.2,0.6,4.4,1.5l-1.8,1.8V2.5H8.9V7h4.5V5.4h-1.8l1.8-1.8c1,1.2,1.6,2.8,1.6,4.4c0,1.6-0.6,3.1-1.5,4.3l-1.9-1.9h1.8V8.8
			H8.9z"/>
	</g>
</g>
</svg>
