<?xml version="1.0" encoding="utf-8"?>
<!-- Generator: Adobe Illustrator 20.1.0, SVG Export Plug-In . SVG Version: 6.00 Build 0)  -->
<svg version="1.1" id="Layer_1" xmlns="http://www.w3.org/2000/svg" xmlns:xlink="http://www.w3.org/1999/xlink" x="0px" y="0px"
	 viewBox="0 0 64 64" style="enable-background:new 0 0 64 64;" xml:space="preserve">
<style type="text/css">
	.st0{fill:#F1C40F;}
	.st1{fill:#F1C40F;stroke:#F1C40F;stroke-miterlimit:10;}
</style>
<title>Asset 1</title>
<g id="Layer_2">
	<g id="Layer_1-2">
		<path class="st0" d="M56.8,59.4H7.2c-3.1,0-5.4-1.1-6.5-3.1s-0.8-4.5,0.8-7.2L27,7.8c1-1.9,2.9-3.1,5-3.2l0,0c2.1,0.1,4,1.3,5,3.2
			l25.6,41.4c1.6,2.6,1.9,5.2,0.8,7.2C62.2,58.3,59.9,59.4,56.8,59.4z M29.5,9.3L3.9,50.7c-1,1.7-1.3,3.2-0.7,4.3s2,1.6,4,1.6h49.7
			c1.9,0,3.4-0.6,4-1.6c0.6-1,0.3-2.6-0.7-4.3L34.5,9.3c-0.5-1-1.4-1.7-2.5-1.8C30.9,7.6,29.9,8.3,29.5,9.3z"/>
		<rect x="30.8" y="22.4" class="st1" width="2.5" height="19"/>
		<rect x="30.8" y="46.5" class="st1" width="2.5" height="2.5"/>
	</g>
</g>
</svg>
