<?xml version="1.0" encoding="utf-8"?>
<!-- Generator: Adobe Illustrator 22.1.0, SVG Export Plug-In . SVG Version: 6.00 Build 0)  -->
<svg version="1.1" id="Layer_1" xmlns="http://www.w3.org/2000/svg" xmlns:xlink="http://www.w3.org/1999/xlink" x="0px" y="0px"
	 viewBox="0 0 42 42" style="enable-background:new 0 0 42 42;" xml:space="preserve">
<style type="text/css">
	.st0{fill:#F1C40F;}
	.st1{fill:#F1C40F;stroke:#F1C40F;stroke-miterlimit:10;}
</style>
<g id="Layer_2_1_">
	<g id="Layer_1-2">
		<path class="st0" d="M34.3,35.8H7.5c-1.7,0-2.9-0.6-3.5-1.7s-0.4-2.4,0.4-3.9L18.2,7.9c0.5-1,1.6-1.7,2.7-1.7l0,0
			c1.1,0.1,2.2,0.7,2.7,1.7l13.8,22.4c0.9,1.4,1,2.8,0.4,3.9C37.2,35.2,36,35.8,34.3,35.8z M19.6,8.7L5.8,31.1
			c-0.5,0.9-0.7,1.7-0.4,2.3c0.3,0.6,1.1,0.9,2.2,0.9h26.8c1,0,1.8-0.3,2.2-0.9s0.2-1.4-0.4-2.3L22.3,8.7c-0.3-0.5-0.8-0.9-1.3-1
			C20.3,7.8,19.8,8.2,19.6,8.7z"/>
		<rect x="20.3" y="15.8" class="st1" width="1.3" height="10.3"/>
		<rect x="20.3" y="28.8" class="st1" width="1.3" height="1.3"/>
	</g>
</g>
</svg>
