<?xml version="1.0" encoding="utf-8"?>
<!-- Generator: Adobe Illustrator 18.0.0, SVG Export Plug-In . SVG Version: 6.00 Build 0)  -->
<!DOCTYPE svg PUBLIC "-//W3C//DTD SVG 1.1//EN" "http://www.w3.org/Graphics/SVG/1.1/DTD/svg11.dtd">
<svg version="1.1" id="Layer_1" xmlns="http://www.w3.org/2000/svg" xmlns:xlink="http://www.w3.org/1999/xlink" x="0px" y="0px"
	 viewBox="0 0 42 42" enable-background="new 0 0 42 42" xml:space="preserve">
<path fill="#0CB20F" d="M15.8,23.4L12,28.9l1.8,1.3l3.9-5.6c0.9,0.4,1.9,0.6,3,0.6c4.1,0,7.5-3.4,7.5-7.5s-3.4-7.5-7.5-7.5
	c-4.1,0-7.5,3.4-7.5,7.5C13.1,19.9,14.2,22,15.8,23.4z M20.7,12.1c3.1,0,5.6,2.5,5.6,5.6s-2.5,5.6-5.6,5.6c-3.1,0-5.6-2.5-5.6-5.6
	S17.6,12.1,20.7,12.1z"/>
<polygon fill="#3D6480" points="5.6,11.6 12,11.6 12,5.3 10.1,5.3 10.1,8.4 4.8,3.2 3.5,4.5 8.7,9.7 5.6,9.7 "/>
<polygon fill="#FFEBCD" points="25.4,31.7 25.4,34.7 31.1,37.6 31.1,31.8 29.6,33.9 "/>
<polygon fill="#FFEBCD" points="33.2,25 33.2,25 33.4,25 "/>
<polygon fill="#FFEBCD" points="31.5,25.2 26.1,27.4 31.4,30.1 36.8,27.4 "/>
<polygon fill="#FFEBCD" points="30.7,30.8 25.1,28 23.7,29.8 29.3,32.7 "/>
<polygon fill="#FFEBCD" points="38.4,30.9 38.4,35.3 31.4,38.8 24.5,35.3 24.5,31.2 24.4,31.2 24.4,35.3 31.4,38.9 38.4,35.3 
	38.4,30.9 "/>
<rect x="24.9" y="27.4" fill="#FFEBCD" width="0" height="0"/>
<polygon fill="#FFEBCD" points="37.8,27.9 32.2,30.8 33.4,32.6 38.9,29.6 "/>
<polygon fill="#FFEBCD" points="31.6,31.5 31.6,37.7 37.5,34.7 37.5,31.4 33.1,33.8 "/>
<path fill="#3D6480" d="M24.5,35.3l7,3.5l7-3.5v-4.4l0,0l1.8-1l-1.9-2.8l-5-2L33.2,25l-1.9-0.8l-6.8,2.9l-2.2,3l2.2,1.1l0,0V35.3z
	 M31.1,37.6l-5.7-2.9v-3l4.1,2.2l1.5-2.1V37.6z M31.4,30.1l-5.4-2.7l5.4-2.3l5.3,2.2L31.4,30.1z M25,27.4L25,27.4L25,27.4L25,27.4
	L25,27.4z M37.5,34.7l-5.9,3v-6.3l1.6,2.4l4.3-2.4V34.7z M33.4,32.6l-1.2-1.8l5.6-2.9l1.1,1.7L33.4,32.6z M23.7,29.8l1.4-1.8
	l5.6,2.8l-1.4,1.9L23.7,29.8z"/>
</svg>
