<?xml version="1.0" encoding="utf-8"?>
<!-- Generator: Adobe Illustrator 18.0.0, SVG Export Plug-In . SVG Version: 6.00 Build 0)  -->
<!DOCTYPE svg PUBLIC "-//W3C//DTD SVG 1.1//EN" "http://www.w3.org/Graphics/SVG/1.1/DTD/svg11.dtd">
<svg version="1.1" xmlns="http://www.w3.org/2000/svg" xmlns:xlink="http://www.w3.org/1999/xlink" x="0px" y="0px"
	 viewBox="0 0 16 16" enable-background="new 0 0 16 16" xml:space="preserve">
<g id="Layer_2">
	<g id="Layer_2_1_">
		<rect fill="none" width="16" height="16"/>
	</g>
</g>
<g id="art">
	<path fill="none" d="M2.5,8.5C2.2,8.4,1.9,8.3,1.6,8.2v3.6c0.1,0.1,1.6,0.8,4.8,0.8c0.2,0,0.4,0,0.6,0c-0.2-0.5-0.3-1-0.3-1.5
		c0-0.8,0.2-1.6,0.6-2.3c-0.4,0-0.7,0-0.9,0C5,8.9,3.5,8.7,2.5,8.5z"/>
	<g>
		<path fill="#FFFFFF" d="M7,13c-0.2-0.5-0.3-1-0.3-1.5c0-0.8,0.2-1.6,0.6-2.3c0.3-0.5,0.6-0.9,1-1.2c0.8-0.7,1.7-1.1,2.8-1.2
			c0.1,0,0.2,0,0.4,0c0.1,0,0.2,0,0.3,0L11.7,2L8.7,0.7H3.2L0.8,2.2v10.2l2.5,1.5h4.2C7.3,13.6,7.2,13.3,7,13z"/>
		<path fill="none" d="M6.3,4.2c-1.5,0-2.9-0.1-4-0.4C2,3.7,1.7,3.6,1.5,3.5V7c0.7,0.4,2.4,0.7,4.8,0.7c0.7,0,1.3,0,1.9-0.1
			C9,6.9,9.9,6.5,11,6.4V3.6C9.5,4.1,7.1,4.2,6.3,4.2z"/>
		<path fill="none" d="M11.2,2.7V2.4C11,2.2,9.3,1.7,6.4,1.7c-2.8,0-4.5,0.5-4.7,0.7v0.2C2.3,3,4,3.4,6.5,3.4
			C8.9,3.4,10.5,3,11.2,2.7z"/>
		<path fill="#3D6380" d="M6.5,13c-3.3,0-4.7-0.7-4.8-0.8V8.5c0.2,0.1,0.5,0.2,0.8,0.2C3.5,9,5,9.1,6.5,9.1c0.2,0,0.5,0,0.9,0
			c0.3-0.5,0.6-0.9,1-1.2C7.8,7.9,7.1,8,6.5,8C4,8,2.3,7.6,1.6,7.2V3.8C1.9,3.9,2.2,4,2.5,4.1c1.1,0.2,2.5,0.4,4,0.4
			c0.8,0,3.2,0,4.7-0.6v2.8c0.1,0,0.2,0,0.4,0c0.4,0,0.9,0.1,1.3,0.2V2.3C12.8,0.3,8.3,0,6.4,0C4,0,0,0.3,0,2.3v9.8
			c0,2.3,4.9,2.5,6.5,2.5c0.5,0,1,0,1.5-0.1c-0.4-0.5-0.7-1-0.9-1.6C6.9,13,6.7,13,6.5,13z M1.6,2.4c0.3-0.2,1.9-0.7,4.7-0.7
			c2.9,0,4.6,0.5,4.8,0.7v0.2C10.5,3,8.9,3.4,6.5,3.4C4,3.4,2.3,3,1.6,2.7V2.4z"/>
	</g>
	<circle fill="#FFFFFF" cx="11.2" cy="11.3" r="2.5"/>
	<path fill="#3D6380" d="M15.7,15l-1.9-1.9c0.4-0.5,0.6-1.1,0.6-1.8c0-1.7-1.4-3.1-3.1-3.1c-1.7,0-3.1,1.4-3.1,3.1s1.4,3.1,3.1,3.1
		c0.7,0,1.3-0.2,1.8-0.6l1.9,1.9L15.7,15z M9,11.3C9,10,10,9,11.3,9c1.3,0,2.3,1,2.3,2.3c0,1.3-1,2.3-2.3,2.3C10,13.6,9,12.6,9,11.3
		z"/>
	<path fill="#3D6480" d="M15,16L13,14.1c-0.5,0.3-1.1,0.5-1.7,0.5c-1.8,0-3.3-1.5-3.3-3.3S9.5,8,11.3,8c1.8,0,3.3,1.5,3.3,3.3
		c0,0.6-0.2,1.2-0.5,1.7L16,15L15,16z M13.1,13.5l1.9,1.9l0.4-0.4l-1.9-1.9l0.1-0.2c0.3-0.5,0.5-1,0.5-1.6c0-1.6-1.3-2.8-2.8-2.8
		c-1.6,0-2.8,1.3-2.8,2.8s1.3,2.8,2.8,2.8c0.6,0,1.2-0.2,1.6-0.5L13.1,13.5z M11.3,13.8c-1.4,0-2.5-1.1-2.5-2.5s1.1-2.5,2.5-2.5
		c1.4,0,2.5,1.1,2.5,2.5S12.7,13.8,11.3,13.8z M11.3,9.2c-1.1,0-2.1,0.9-2.1,2.1s0.9,2.1,2.1,2.1c1.1,0,2.1-0.9,2.1-2.1
		S12.4,9.2,11.3,9.2z"/>
</g>
</svg>
