<?xml version="1.0" encoding="utf-8"?>
<!-- Generator: Adobe Illustrator 17.0.0, SVG Export Plug-In . SVG Version: 6.00 Build 0)  -->
<!DOCTYPE svg PUBLIC "-//W3C//DTD SVG 1.1//EN" "http://www.w3.org/Graphics/SVG/1.1/DTD/svg11.dtd">
<svg version="1.1" id="Layer_1" xmlns="http://www.w3.org/2000/svg" xmlns:xlink="http://www.w3.org/1999/xlink" x="0px" y="0px"
	 width="42px" height="42px" viewBox="0 0 42 42" enable-background="new 0 0 42 42" xml:space="preserve">
<g>
	<polygon fill="#0CB20F" points="39.177,30.311 37.834,28.967 30.911,35.889 28.58,33.557 27.236,34.9 27.236,34.9 27.236,34.9 
		30.911,38.576 39.177,30.311 39.177,30.311 	"/>
	<path fill="#EFF9FE" d="M30.063,12.553h-4.258V8.295H12.427v24.41h10.849l6.825-6.825L30.063,12.553z M18.526,24.283h-3.202v-0.801
		h3.202V24.283z M27.227,20.9H15.324V20.1h11.903V20.9z M27.227,17.518H15.324v-0.801h11.903V17.518z"/>
	<polygon fill="#3D6480" points="12.427,8.295 25.805,8.295 25.805,12.553 30.063,12.553 30.101,25.88 31.797,24.185 31.763,12.563 
		30.054,10.853 30.053,10.853 27.505,10.853 27.505,8.305 27.505,8.304 25.797,6.596 25.797,6.596 10.727,6.596 10.727,34.404 
		21.577,34.404 23.276,32.705 12.427,32.705 	"/>
	<rect x="15.324" y="16.717" fill="#3D6480" width="11.903" height="0.801"/>
	<rect x="15.324" y="20.1" fill="#3D6480" width="11.903" height="0.801"/>
	<rect x="15.324" y="23.482" fill="#3D6480" width="3.202" height="0.801"/>
</g>
</svg>
