<?xml version="1.0" encoding="utf-8"?>
<!-- Generator: Adobe Illustrator 21.1.0, SVG Export Plug-In . SVG Version: 6.00 Build 0)  -->
<svg version="1.1" id="Layer_1" xmlns="http://www.w3.org/2000/svg" xmlns:xlink="http://www.w3.org/1999/xlink" x="0px" y="0px"
	 width="42px" height="42px" viewBox="0 0 42 42" style="enable-background:new 0 0 42 42;" xml:space="preserve">
<style type="text/css">
	.st0{fill:#3D6480;}
	.st1{fill:none;}
</style>
<path class="st0" d="M30.2,15c-2.8-0.7-5.8,0.2-8.9,2.7c-6.5,5-10.9,0.8-12.2-0.7v2.7c1.3,1.1,3.3,2.3,5.8,2.4
	c2.1,0.1,4.7-0.6,7.5-2.8c2.7-2.1,5.2-2.9,7.4-2.3c1.4,0.3,2.5,1.2,3.3,2v-2.6C32.2,15.7,31.3,15.2,30.2,15z"/>
<path class="st0" d="M30.4,9.3c-2.8-0.7-5.8,0.2-8.9,2.7c-7,5.4-11.7,0-12.5-1.1v2.8c1.3,1.2,3.4,2.5,6.1,2.7
	c2.1,0.1,4.7-0.6,7.5-2.8c2.7-2.1,5.2-2.9,7.4-2.3c1.3,0.3,2.3,1,3,1.7v-2.5C32.3,9.9,31.4,9.5,30.4,9.3z"/>
<path class="st0" d="M30.2,15c-2.8-0.7-5.8,0.2-8.9,2.7c-6.5,5-10.9,0.8-12.2-0.7v2.7c1.3,1.1,3.3,2.3,5.8,2.4
	c2.1,0.1,4.7-0.6,7.5-2.8c2.7-2.1,5.2-2.9,7.4-2.3c1.4,0.3,2.5,1.2,3.3,2v-2.6C32.2,15.7,31.3,15.2,30.2,15z"/>
<path class="st0" d="M30.4,9.3c-2.8-0.7-5.8,0.2-8.9,2.7c-7,5.4-11.7,0-12.5-1.1v2.8c1.3,1.2,3.4,2.5,6.1,2.7
	c2.1,0.1,4.7-0.6,7.5-2.8c2.7-2.1,5.2-2.9,7.4-2.3c1.3,0.3,2.3,1,3,1.7v-2.5C32.3,9.9,31.4,9.5,30.4,9.3z"/>
<polygon class="st1" points="30.5,31.8 35.8,37.1 32.6,37.1 32.6,39 39,39 39,32.6 37.1,32.6 37.1,35.7 31.9,30.5 "/>
<path class="st0" d="M27.2,27.7l1.1-1.1c-2.4-0.3-5,0.5-7.6,2.4c-5.7,4.1-10,1-11.7-0.7v2.5c1.4,1,3.3,2.1,5.7,2.2
	c2.1,0.1,4.4-0.5,7-2.3c1.6-1.1,3.1-1.8,4.5-2l0,0L27.2,27.7z"/>
<path class="st0" d="M32.9,22.1c-0.8-0.6-1.8-1.2-3-1.5c-2.8-0.7-5.8,0.2-8.9,2.7c-6.1,4.7-10.4,1.3-12-0.4v2.6
	c1.3,1.1,3.2,2.1,5.6,2.2c2.1,0.1,4.7-0.6,7.5-2.8c2.7-2.1,5.2-2.9,7.4-2.3c0.8,0.2,1.5,0.5,2,0.9l0,0L32.9,22.1z"/>
<polygon class="st0" points="30.5,31.8 35.8,37.1 32.6,37.1 32.6,39 39,39 39,32.6 37.1,32.6 37.1,35.7 31.9,30.5 "/>
</svg>
