<?xml version="1.0" encoding="utf-8"?>
<!-- Generator: Adobe Illustrator 18.0.0, SVG Export Plug-In . SVG Version: 6.00 Build 0)  -->
<!DOCTYPE svg PUBLIC "-//W3C//DTD SVG 1.1//EN" "http://www.w3.org/Graphics/SVG/1.1/DTD/svg11.dtd">
<svg version="1.1" xmlns="http://www.w3.org/2000/svg" xmlns:xlink="http://www.w3.org/1999/xlink" x="0px" y="0px"
	 viewBox="0 0 16 16" enable-background="new 0 0 16 16" xml:space="preserve">
<g id="Layer_2">
	<g id="Layer_2_1_">
		<rect fill="none" width="16" height="16"/>
	</g>
</g>
<g id="art">
	<g>
		<path fill="#FFFFFF" d="M12.4,3.6C11.2,2.4,9.7,1.8,8,1.8c-1.7,0-3.2,0.6-4.4,1.8C1.2,6,1.2,10,3.6,12.4c1.2,1.2,2.7,1.8,4.4,1.8
			c1.7,0,3.2-0.6,4.4-1.8C14.8,10,14.8,6,12.4,3.6z M8.8,11.6H7.3v-1.5h1.5V11.6z M10.5,6.9c-0.2,0.3-0.6,0.7-1.2,1.2
			C9,8.4,8.8,8.6,8.7,8.7S8.6,9.2,8.6,9.6H7.3c0-0.2,0-0.3,0-0.3c0-0.4,0.1-0.8,0.2-1.1s0.4-0.6,0.9-0.9C8.8,6.9,9,6.7,9.1,6.6
			C9.2,6.4,9.3,6.2,9.3,6c0-0.3-0.1-0.5-0.3-0.7C8.7,5.1,8.4,5,8.1,5C7.7,5,7.4,5.1,7.1,5.3c-0.3,0.2-0.4,0.5-0.5,1L5.3,6.1
			c0-0.6,0.3-1.1,0.8-1.6S7.2,3.8,8,3.8c0.8,0,1.5,0.2,2,0.7c0.5,0.4,0.7,1,0.7,1.5C10.7,6.4,10.6,6.7,10.5,6.9z"/>
		<path fill="#3D6380" d="M13.7,2.3C12.1,0.8,10.1,0,8,0C5.9,0,3.9,0.8,2.3,2.3c-3.1,3.1-3.1,8.2,0,11.3C3.9,15.2,5.9,16,8,16
			c2.1,0,4.1-0.8,5.7-2.3C16.8,10.5,16.8,5.5,13.7,2.3z M12.4,12.4c-1.2,1.2-2.7,1.8-4.4,1.8c-1.7,0-3.2-0.6-4.4-1.8
			C1.2,10,1.2,6,3.6,3.6C4.8,2.4,6.3,1.8,8,1.8c1.7,0,3.2,0.6,4.4,1.8C14.8,6,14.8,10,12.4,12.4z"/>
		<path fill="#3D6380" d="M8,3.8c-0.8,0-1.4,0.2-1.9,0.7s-0.8,1-0.8,1.6l1.3,0.2c0.1-0.4,0.3-0.8,0.5-1C7.4,5.1,7.7,5,8.1,5
			C8.4,5,8.7,5.1,9,5.3C9.2,5.5,9.3,5.7,9.3,6c0,0.2-0.1,0.4-0.2,0.6C9,6.7,8.8,6.9,8.4,7.2C7.9,7.6,7.6,7.9,7.5,8.2
			S7.3,8.8,7.3,9.2c0,0,0,0.2,0,0.3h1.3c0-0.4,0-0.7,0.1-0.8S9,8.4,9.3,8.1c0.6-0.5,1-0.9,1.2-1.2c0.2-0.3,0.3-0.6,0.3-0.9
			c0-0.6-0.2-1.1-0.7-1.5C9.5,4.1,8.8,3.8,8,3.8z"/>
		<rect x="7.3" y="10.1" fill="#3D6380" width="1.5" height="1.5"/>
	</g>
</g>
</svg>
