<?xml version="1.0" encoding="utf-8"?>
<!-- Generator: Adobe Illustrator 20.1.0, SVG Export Plug-In . SVG Version: 6.00 Build 0)  -->
<svg version="1.1" id="Layer_1" xmlns="http://www.w3.org/2000/svg" xmlns:xlink="http://www.w3.org/1999/xlink" x="0px" y="0px"
	 width="20px" height="20px" viewBox="0 0 20 20" style="enable-background:new 0 0 20 20;" xml:space="preserve">
<style type="text/css">
	.st0{fill:#005CA7;}
	.st1{fill:#FFFFFF;}
</style>
<g>
	<circle class="st0" cx="10" cy="10" r="10"/>
	<g>
		<path class="st1" d="M11.2,13.1H8.8c0-0.3,0-0.5,0-0.6c0-0.8,0.1-1.4,0.4-1.9c0.3-0.5,0.8-1.1,1.5-1.7c0.8-0.6,1.2-1,1.4-1.2
			c0.2-0.3,0.3-0.6,0.3-1c0-0.5-0.2-0.9-0.6-1.3c-0.4-0.4-1-0.5-1.6-0.5C9.5,4.8,8.9,5,8.5,5.4C8,5.8,7.7,6.3,7.6,7.1L5.2,6.8
			c0.1-1.1,0.5-2,1.4-2.8c0.9-0.8,2-1.2,3.4-1.2c1.5,0,2.7,0.4,3.6,1.2c0.9,0.8,1.3,1.7,1.3,2.7c0,0.6-0.2,1.1-0.5,1.6
			c-0.3,0.5-1,1.2-2.1,2.1c-0.6,0.5-0.9,0.8-1,1.1C11.2,11.8,11.2,12.3,11.2,13.1z M8.8,16.6V14h2.6v2.6H8.8z"/>
	</g>
</g>
</svg>
