<?xml version="1.0" encoding="utf-8"?>
<!-- Generator: Adobe Illustrator 18.0.0, SVG Export Plug-In . SVG Version: 6.00 Build 0)  -->
<!DOCTYPE svg PUBLIC "-//W3C//DTD SVG 1.1//EN" "http://www.w3.org/Graphics/SVG/1.1/DTD/svg11.dtd">
<svg version="1.1" xmlns="http://www.w3.org/2000/svg" xmlns:xlink="http://www.w3.org/1999/xlink" x="0px" y="0px"
	 viewBox="0 0 16 16" enable-background="new 0 0 16 16" xml:space="preserve">
<g id="Layer_2">
	<g id="Layer_2_1_">
		<rect fill="none" width="16" height="16"/>
	</g>
</g>
<g id="art">
	<g>
		<path fill="#3D6480" d="M7.5,0C5.2,0,3.2,0.9,1.8,2.4L0.5,1.2v2.3v1.7h0.4h3.6L3.2,3.9C4.3,2.7,5.8,2,7.5,2c3.3,0,6,2.7,6,6
			s-2.7,6-6,6c0,0-0.1,0-0.1,0v2c0,0,0.1,0,0.1,0c4.4,0,8-3.6,8-8S11.9,0,7.5,0z"/>
		<polygon fill="#3D6480" points="9.1,4.7 7.1,4.7 7.1,8.4 4.5,9.4 5.2,11.3 9.1,9.8 		"/>
	</g>
</g>
</svg>
