<?xml version="1.0" encoding="utf-8"?>
<!-- Generator: Adobe Illustrator 17.0.0, SVG Export Plug-In . SVG Version: 6.00 Build 0)  -->
<!DOCTYPE svg PUBLIC "-//W3C//DTD SVG 1.1//EN" "http://www.w3.org/Graphics/SVG/1.1/DTD/svg11.dtd">
<svg version="1.1" id="Layer_1" xmlns="http://www.w3.org/2000/svg" xmlns:xlink="http://www.w3.org/1999/xlink" x="0px" y="0px"
	 width="42px" height="42px" viewBox="0 0 42 42" enable-background="new 0 0 42 42" xml:space="preserve">
<g>
	<path fill="#EFF9FE" d="M26.04,13.367c1.006-0.268,1.982-0.622,2.921-1.051c-1.403-1.27-3.111-2.203-5.002-2.678
		C24.797,10.79,25.484,12.046,26.04,13.367z"/>
	<path fill="#EFF9FE" d="M29.582,12.916c-1.032,0.493-2.114,0.889-3.228,1.192c0.757,2.038,1.16,4.233,1.205,6.492h5.255
		C32.713,17.625,31.505,14.931,29.582,12.916z"/>
	<path fill="#EFF9FE" d="M21.505,14.799V20.6h5.254c-0.046-2.195-0.447-4.324-1.192-6.299
		C24.245,14.604,22.885,14.772,21.505,14.799z"/>
	<path fill="#EFF9FE" d="M21.505,28.006v4.701c0.443-0.015,0.878-0.055,1.308-0.118c1.013-1.248,1.844-2.643,2.478-4.148
		C24.06,28.176,22.791,28.03,21.505,28.006z"/>
	<path fill="#EFF9FE" d="M26.76,21.4h-5.255v5.806c1.391,0.024,2.765,0.185,4.095,0.482C26.325,25.725,26.718,23.599,26.76,21.4z"/>
	<path fill="#EFF9FE" d="M21.505,14c1.271-0.026,2.525-0.177,3.745-0.446c-0.643-1.498-1.482-2.893-2.505-4.152
		c-0.407-0.057-0.821-0.094-1.24-0.108V14z"/>
	<path fill="#EFF9FE" d="M26.077,28.629c-0.546,1.323-1.225,2.574-2.053,3.716c1.881-0.484,3.577-1.421,4.97-2.692
		C28.063,29.233,27.086,28.891,26.077,28.629z"/>
	<path fill="#EFF9FE" d="M27.56,21.4c-0.042,2.264-0.438,4.456-1.176,6.483c1.117,0.297,2.196,0.69,3.222,1.174
		c1.909-2.012,3.108-4.695,3.208-7.657H27.56z"/>
	<path fill="#3D6480" d="M21.107,7.573h-0.285v0.014C13.55,7.74,7.677,13.692,7.677,21c0,7.321,5.893,13.283,13.184,13.415v0.012
		h0.246c7.404,0,13.427-6.023,13.427-13.427S28.511,7.573,21.107,7.573z M21.505,32.707v-4.701c1.286,0.023,2.555,0.17,3.786,0.435
		c-0.635,1.505-1.465,2.9-2.478,4.148C22.384,32.652,21.948,32.692,21.505,32.707z M19.4,32.589
		c-1.014-1.248-1.844-2.643-2.478-4.148c1.23-0.265,2.499-0.411,3.784-0.435v4.701C20.263,32.692,19.829,32.652,19.4,32.589z
		 M22.746,9.401c1.023,1.259,1.862,2.654,2.505,4.152c-1.22,0.269-2.474,0.42-3.745,0.446V9.293
		C21.925,9.307,22.338,9.344,22.746,9.401z M27.559,20.6c-0.045-2.259-0.448-4.454-1.205-6.492c1.114-0.303,2.195-0.699,3.228-1.192
		c1.923,2.015,3.132,4.709,3.233,7.684H27.559z M20.706,20.6h-5.252c0.046-2.195,0.447-4.324,1.191-6.299
		c1.322,0.302,2.682,0.471,4.06,0.498V20.6z M20.706,21.4v5.806c-1.391,0.025-2.764,0.186-4.093,0.482
		c-0.725-1.963-1.118-4.089-1.16-6.288H20.706z M21.505,21.4h5.255c-0.042,2.199-0.436,4.325-1.16,6.288
		c-1.33-0.296-2.703-0.457-4.095-0.482V21.4z M21.505,20.6v-5.801c1.379-0.027,2.74-0.196,4.062-0.498
		c0.744,1.974,1.146,4.104,1.192,6.299H21.505z M26.04,13.367c-0.555-1.321-1.242-2.577-2.081-3.729
		c1.892,0.475,3.599,1.408,5.002,2.678C28.022,12.746,27.046,13.099,26.04,13.367z M20.706,14c-1.27-0.026-2.524-0.177-3.743-0.446
		c0.643-1.498,1.482-2.893,2.505-4.152c0.407-0.057,0.82-0.094,1.239-0.108V14z M16.173,13.367
		c-1.006-0.268-1.982-0.622-2.921-1.051c1.403-1.27,3.111-2.203,5.003-2.678C17.415,10.79,16.728,12.046,16.173,13.367z
		 M15.859,14.108c-0.756,2.038-1.16,4.233-1.205,6.492H9.398c0.101-2.975,1.309-5.669,3.233-7.684
		C13.663,13.409,14.745,13.805,15.859,14.108z M14.653,21.4c0.042,2.264,0.438,4.456,1.176,6.483
		c-1.117,0.297-2.197,0.69-3.222,1.174c-1.909-2.012-3.108-4.695-3.209-7.657H14.653z M16.136,28.629
		c0.546,1.323,1.225,2.574,2.053,3.716c-1.881-0.484-3.577-1.421-4.97-2.692C14.15,29.233,15.127,28.891,16.136,28.629z
		 M26.077,28.629c1.009,0.262,1.985,0.604,2.917,1.024c-1.393,1.271-3.089,2.208-4.97,2.692
		C24.852,31.203,25.531,29.952,26.077,28.629z M26.384,27.883c0.738-2.028,1.134-4.22,1.176-6.483h5.254
		c-0.101,2.962-1.299,5.645-3.208,7.657C28.58,28.573,27.501,28.181,26.384,27.883z"/>
	<path fill="#EFF9FE" d="M20.706,28.006c-1.285,0.024-2.554,0.17-3.784,0.435c0.635,1.505,1.464,2.9,2.478,4.148
		c0.429,0.063,0.864,0.103,1.306,0.118V28.006z"/>
	<path fill="#EFF9FE" d="M16.173,13.367c0.555-1.321,1.242-2.577,2.082-3.729c-1.892,0.475-3.599,1.408-5.003,2.678
		C14.19,12.745,15.167,13.099,16.173,13.367z"/>
	<path fill="#EFF9FE" d="M16.962,13.553c1.22,0.269,2.473,0.42,3.743,0.446V9.293c-0.419,0.014-0.832,0.051-1.239,0.108
		C18.444,10.66,17.605,12.055,16.962,13.553z"/>
	<path fill="#EFF9FE" d="M14.654,20.6c0.045-2.259,0.448-4.454,1.205-6.492c-1.114-0.303-2.196-0.699-3.228-1.192
		c-1.924,2.015-3.132,4.709-3.233,7.684H14.654z"/>
	<path fill="#EFF9FE" d="M15.454,20.6h5.252v-5.801c-1.379-0.027-2.739-0.196-4.06-0.498C15.901,16.276,15.5,18.405,15.454,20.6z"/>
	<path fill="#EFF9FE" d="M20.706,27.206V21.4h-5.253c0.042,2.199,0.436,4.325,1.16,6.288C17.942,27.392,19.315,27.231,20.706,27.206
		z"/>
	<path fill="#EFF9FE" d="M16.136,28.629c-1.009,0.262-1.986,0.604-2.918,1.024c1.393,1.271,3.09,2.207,4.97,2.692
		C17.361,31.203,16.682,29.952,16.136,28.629z"/>
	<path fill="#EFF9FE" d="M15.829,27.883c-0.738-2.028-1.134-4.22-1.176-6.483H9.398c0.101,2.962,1.3,5.645,3.209,7.657
		C13.632,28.573,14.711,28.181,15.829,27.883z"/>
</g>
</svg>
