<svg width="76" height="24" viewBox="0 0 76 24" fill="none" xmlns="http://www.w3.org/2000/svg">
<rect width="76" height="24" fill="#DCE3FF"/>
<g clip-path="url(#clip0_31_4718)">
<path d="M18 14C18 14.1326 17.9473 14.2598 17.8536 14.3536C17.7598 14.4473 17.6326 14.5 17.5 14.5H6.5C6.36739 14.5 6.24021 14.4473 6.14645 14.3536C6.05268 14.2598 6 14.1326 6 14C6 13.8674 6.05268 13.7402 6.14645 13.6464C6.24021 13.5527 6.36739 13.5 6.5 13.5H17.5C17.6326 13.5 17.7598 13.5527 17.8536 13.6464C17.9473 13.7402 18 13.8674 18 14ZM6.5 10.5H17.5C17.6326 10.5 17.7598 10.4473 17.8536 10.3536C17.9473 10.2598 18 10.1326 18 10C18 9.86739 17.9473 9.74021 17.8536 9.64645C17.7598 9.55268 17.6326 9.5 17.5 9.5H6.5C6.36739 9.5 6.24021 9.55268 6.14645 9.64645C6.05268 9.74021 6 9.86739 6 10C6 10.1326 6.05268 10.2598 6.14645 10.3536C6.24021 10.4473 6.36739 10.5 6.5 10.5Z" fill="#0635A3"/>
</g>
<path d="M25.998 10.5781V17H25.0254V10.5781H25.998ZM25.5234 8.17578C25.6836 8.17578 25.8203 8.22852 25.9336 8.33398C26.0508 8.43555 26.1094 8.5957 26.1094 8.81445C26.1094 9.0293 26.0508 9.18945 25.9336 9.29492C25.8203 9.40039 25.6836 9.45312 25.5234 9.45312C25.3555 9.45312 25.2148 9.40039 25.1016 9.29492C24.9922 9.18945 24.9375 9.0293 24.9375 8.81445C24.9375 8.5957 24.9922 8.43555 25.1016 8.33398C25.2148 8.22852 25.3555 8.17578 25.5234 8.17578ZM30.3457 17.1172C29.5332 17.1172 28.8887 16.8398 28.4121 16.2852C27.9395 15.7305 27.7031 14.9062 27.7031 13.8125C27.7031 12.707 27.9453 11.873 28.4297 11.3105C28.9141 10.7441 29.5586 10.4609 30.3633 10.4609C30.7031 10.4609 31 10.5059 31.2539 10.5957C31.5078 10.6855 31.7266 10.8066 31.9102 10.959C32.0938 11.1074 32.248 11.2773 32.373 11.4688H32.4434C32.4277 11.3477 32.4121 11.1816 32.3965 10.9707C32.3809 10.7598 32.373 10.5879 32.373 10.4551V7.88281H33.3457V17H32.5605L32.4141 16.0859H32.373C32.252 16.2773 32.0977 16.4512 31.9102 16.6074C31.7266 16.7637 31.5059 16.8887 31.248 16.9824C30.9941 17.0723 30.6934 17.1172 30.3457 17.1172ZM30.498 16.3086C31.1855 16.3086 31.6719 16.1133 31.957 15.7227C32.2422 15.332 32.3848 14.752 32.3848 13.9824V13.8066C32.3848 12.9902 32.248 12.3633 31.9746 11.9258C31.7051 11.4883 31.2129 11.2695 30.498 11.2695C29.9004 11.2695 29.4531 11.5 29.1562 11.9609C28.8594 12.418 28.7109 13.043 28.7109 13.8359C28.7109 14.625 28.8574 15.2344 29.1504 15.6641C29.4473 16.0938 29.8965 16.3086 30.498 16.3086ZM37.8809 10.4609C38.4277 10.4609 38.8965 10.582 39.2871 10.8242C39.6777 11.0664 39.9766 11.4062 40.1836 11.8438C40.3906 12.2773 40.4941 12.7852 40.4941 13.3672V13.9707H36.0586C36.0703 14.7246 36.2578 15.2988 36.6211 15.6934C36.9844 16.0879 37.4961 16.2852 38.1562 16.2852C38.5625 16.2852 38.9219 16.248 39.2344 16.1738C39.5469 16.0996 39.8711 15.9902 40.207 15.8457V16.7012C39.8828 16.8457 39.5605 16.9512 39.2402 17.0176C38.9238 17.084 38.5488 17.1172 38.1152 17.1172C37.498 17.1172 36.959 16.9922 36.498 16.7422C36.041 16.4883 35.6855 16.1172 35.4316 15.6289C35.1777 15.1406 35.0508 14.543 35.0508 13.8359C35.0508 13.1445 35.166 12.5469 35.3965 12.043C35.6309 11.5352 35.959 11.1445 36.3809 10.8711C36.8066 10.5977 37.3066 10.4609 37.8809 10.4609ZM37.8691 11.2578C37.3496 11.2578 36.9355 11.4277 36.627 11.7676C36.3184 12.1074 36.1348 12.582 36.0762 13.1914H39.4746C39.4707 12.8086 39.4102 12.4727 39.293 12.1836C39.1797 11.8906 39.0059 11.6641 38.7715 11.5039C38.5371 11.3398 38.2363 11.2578 37.8691 11.2578ZM45.1875 10.4609C45.9492 10.4609 46.5254 10.6484 46.916 11.0234C47.3066 11.3945 47.502 11.9922 47.502 12.8164V17H46.541V12.8809C46.541 12.3457 46.418 11.9453 46.1719 11.6797C45.9297 11.4141 45.5566 11.2812 45.0527 11.2812C44.3418 11.2812 43.8418 11.4824 43.5527 11.8848C43.2637 12.2871 43.1191 12.8711 43.1191 13.6367V17H42.1465V10.5781H42.9316L43.0781 11.5039H43.1309C43.2676 11.2773 43.4414 11.0879 43.6523 10.9355C43.8633 10.7793 44.0996 10.6621 44.3613 10.584C44.623 10.502 44.8984 10.4609 45.1875 10.4609ZM51.5801 16.3203C51.7402 16.3203 51.9043 16.3066 52.0723 16.2793C52.2402 16.252 52.377 16.2188 52.4824 16.1797V16.9355C52.3691 16.9863 52.2109 17.0293 52.0078 17.0645C51.8086 17.0996 51.6133 17.1172 51.4219 17.1172C51.082 17.1172 50.7734 17.0586 50.4961 16.9414C50.2188 16.8203 49.9961 16.6172 49.8281 16.332C49.6641 16.0469 49.582 15.6523 49.582 15.1484V11.3398H48.668V10.8652L49.5879 10.4844L49.9746 9.08984H50.5605V10.5781H52.4414V11.3398H50.5605V15.1191C50.5605 15.5215 50.6523 15.8223 50.8359 16.0215C51.0234 16.2207 51.2715 16.3203 51.5801 16.3203ZM54.7559 10.5781V17H53.7832V10.5781H54.7559ZM54.2812 8.17578C54.4414 8.17578 54.5781 8.22852 54.6914 8.33398C54.8086 8.43555 54.8672 8.5957 54.8672 8.81445C54.8672 9.0293 54.8086 9.18945 54.6914 9.29492C54.5781 9.40039 54.4414 9.45312 54.2812 9.45312C54.1133 9.45312 53.9727 9.40039 53.8594 9.29492C53.75 9.18945 53.6953 9.0293 53.6953 8.81445C53.6953 8.5957 53.75 8.43555 53.8594 8.33398C53.9727 8.22852 54.1133 8.17578 54.2812 8.17578ZM59.3906 17.1172C58.8125 17.1172 58.3027 16.998 57.8613 16.7598C57.4199 16.5215 57.0762 16.1582 56.8301 15.6699C56.584 15.1816 56.4609 14.5664 56.4609 13.8242C56.4609 13.0469 56.5898 12.4121 56.8477 11.9199C57.1094 11.4238 57.4688 11.0566 57.9258 10.8184C58.3828 10.5801 58.9023 10.4609 59.4844 10.4609C59.8047 10.4609 60.1133 10.4941 60.4102 10.5605C60.7109 10.623 60.957 10.7031 61.1484 10.8008L60.8555 11.6152C60.6602 11.5371 60.4336 11.4668 60.1758 11.4043C59.9219 11.3418 59.6836 11.3105 59.4609 11.3105C59.0156 11.3105 58.6445 11.4062 58.3477 11.5977C58.0547 11.7891 57.834 12.0703 57.6855 12.4414C57.541 12.8125 57.4688 13.2695 57.4688 13.8125C57.4688 14.332 57.5391 14.7754 57.6797 15.1426C57.8242 15.5098 58.0371 15.791 58.3184 15.9863C58.6035 16.1777 58.959 16.2734 59.3848 16.2734C59.7246 16.2734 60.0312 16.2383 60.3047 16.168C60.5781 16.0938 60.8262 16.0078 61.0488 15.9102V16.7773C60.834 16.8867 60.5938 16.9707 60.3281 17.0293C60.0664 17.0879 59.7539 17.1172 59.3906 17.1172ZM64.9746 10.4727C65.7402 10.4727 66.3086 10.6445 66.6797 10.9883C67.0508 11.332 67.2363 11.8809 67.2363 12.6348V17H66.5273L66.3398 16.0508H66.293C66.1133 16.2852 65.9258 16.4824 65.7305 16.6426C65.5352 16.7988 65.3086 16.918 65.0508 17C64.7969 17.0781 64.4844 17.1172 64.1133 17.1172C63.7227 17.1172 63.375 17.0488 63.0703 16.9121C62.7695 16.7754 62.5312 16.5684 62.3555 16.291C62.1836 16.0137 62.0977 15.6621 62.0977 15.2363C62.0977 14.5957 62.3516 14.1035 62.8594 13.7598C63.3672 13.416 64.1406 13.2285 65.1797 13.1973L66.2871 13.1504V12.7578C66.2871 12.2031 66.168 11.8145 65.9297 11.5918C65.6914 11.3691 65.3555 11.2578 64.9219 11.2578C64.5859 11.2578 64.2656 11.3066 63.9609 11.4043C63.6562 11.502 63.3672 11.6172 63.0938 11.75L62.7949 11.0117C63.084 10.8633 63.416 10.7363 63.791 10.6309C64.166 10.5254 64.5605 10.4727 64.9746 10.4727ZM66.2754 13.8359L65.2969 13.877C64.4961 13.9082 63.9316 14.0391 63.6035 14.2695C63.2754 14.5 63.1113 14.8262 63.1113 15.248C63.1113 15.6152 63.2227 15.8867 63.4453 16.0625C63.668 16.2383 63.9629 16.3262 64.3301 16.3262C64.9004 16.3262 65.3672 16.168 65.7305 15.8516C66.0938 15.5352 66.2754 15.0605 66.2754 14.4277V13.8359ZM70.2188 17H69.2402V7.88281H70.2188V17Z" fill="#0635A3"/>
<defs>
<clipPath id="clip0_31_4718">
<rect width="16" height="16" fill="white" transform="translate(4 4)"/>
</clipPath>
</defs>
</svg>
