<?xml version="1.0" encoding="utf-8"?>
<!-- Generator: Adobe Illustrator 18.0.0, SVG Export Plug-In . SVG Version: 6.00 Build 0)  -->
<!DOCTYPE svg PUBLIC "-//W3C//DTD SVG 1.1//EN" "http://www.w3.org/Graphics/SVG/1.1/DTD/svg11.dtd">
<svg version="1.1" xmlns="http://www.w3.org/2000/svg" xmlns:xlink="http://www.w3.org/1999/xlink" x="0px" y="0px"
	 viewBox="0 0 16 16" enable-background="new 0 0 16 16" xml:space="preserve">
<g id="Layer_2">
	<g id="Layer_2_1_">
		<g id="Layer_2_2_">
			<rect fill="none" width="16" height="16"/>
		</g>
	</g>
</g>
<g id="Layer_1">
	<polygon fill="#3D6380" points="10.5,8.6 13,9.5 11.4,11.7 9.4,9.3 4,14.8 5.2,16 9.3,11.8 11.5,14.3 14.4,10.5 16,12.5 16,7.1 	
		"/>
	<path fill="#FFFFFF" d="M1.6,2.4v0.3C2.3,3,4,3.4,6.5,3.4c2.4,0,4-0.4,4.6-0.8V2.4c-0.2-0.2-1.9-0.7-4.8-0.7
		C3.5,1.7,1.9,2.2,1.6,2.4z"/>
	<path fill="#FFFFFF" d="M6.5,4.5c-1.5,0-2.9-0.2-4-0.4C2.2,4,1.9,3.9,1.6,3.8v3.4C2.3,7.6,4,8,6.5,8c0.6,0,1.3-0.1,1.9-0.1
		C8.2,8.1,8,8.2,7.9,8.4C7.7,8.6,7.5,8.9,7.4,9.1c0,0,0,0,0,0c-0.4,0-0.7,0-0.9,0c-1.5,0-3-0.1-4-0.4c-0.3,0-0.6-0.1-0.8-0.2v3.7
		c0.1,0.1,0.9,0.5,2.7,0.7l2.3-2.2l4.1-3.9l0.3-0.3V3.9C9.7,4.5,7.3,4.5,6.5,4.5z"/>
	<path fill="#3D6380" d="M8.3,8C7.7,8,7.1,8,6.5,8C4,8,2,7.4,1.6,7.2V3.8C1.9,3.9,2.2,4,2.5,4.1c1.1,0.2,2.5,0.4,4,0.4
		c0.8,0,3.2,0,4.7-0.6v2.7L12.9,5V2.3C12.8,0.3,8.3,0,6.4,0C4,0,0,0.3,0,2.3v9.8c0,1.2,1.4,1.9,3,2.2l1.5-1.4
		c-1.8-0.2-2.7-0.6-2.7-0.7V8.5C4,9.3,7.4,9.1,7.4,9.1 M11.1,2.6C10.5,3,8.9,3.4,6.5,3.4C4,3.4,2.3,3,1.6,2.7V2.4
		c0.3-0.2,1.9-0.7,4.7-0.7c2.9,0,4.6,0.5,4.8,0.7V2.6z"/>
</g>
</svg>
