<?xml version="1.0" encoding="utf-8"?>
<!-- Generator: Adobe Illustrator 18.0.0, SVG Export Plug-In . SVG Version: 6.00 Build 0)  -->
<!DOCTYPE svg PUBLIC "-//W3C//DTD SVG 1.1//EN" "http://www.w3.org/Graphics/SVG/1.1/DTD/svg11.dtd">
<svg version="1.1" xmlns="http://www.w3.org/2000/svg" xmlns:xlink="http://www.w3.org/1999/xlink" x="0px" y="0px"
	 viewBox="0 0 16 16" enable-background="new 0 0 16 16" xml:space="preserve">
<g id="Layer_2">
	<g id="Layer_2_1_">
		<rect fill="none" width="16" height="16"/>
	</g>
</g>
<g id="art">
	<g>
		<path fill="#FFFFFF" d="M10.3,10.6h-1V6.4C9.3,6.2,9.2,6,9,6H6.4C6.2,6,6,6.2,6,6.4v1.3C6,7.9,6.2,8,6.4,8h1v2.6h-1
			c-0.2,0-0.3,0.1-0.3,0.3v1.3c0,0.2,0.1,0.3,0.3,0.3h3.9c0.2,0,0.3-0.1,0.3-0.3v-1.3C10.6,10.8,10.5,10.6,10.3,10.6z"/>
		<path fill="#FFFFFF" d="M7.3,5.1c0,0.2,0.1,0.3,0.3,0.3H9c0.2,0,0.3-0.1,0.3-0.3V3.8c0-0.2-0.1-0.3-0.3-0.3H7.7
			c-0.2,0-0.3,0.1-0.3,0.3V5.1z"/>
		<path fill="#005CA7" d="M8,0C3.6,0,0,3.6,0,8s3.6,8,8,8s8-3.6,8-8S12.4,0,8,0z M10.6,12.2c0,0.2-0.1,0.3-0.3,0.3H6.4
			c-0.2,0-0.3-0.1-0.3-0.3v-1.3c0-0.2,0.1-0.3,0.3-0.3h1V8h-1C6.2,8,6,7.9,6,7.7V6.4C6,6.2,6.2,6,6.4,6H9c0.2,0,0.3,0.1,0.3,0.3v4.2
			h1c0.2,0,0.3,0.1,0.3,0.3V12.2z M7.7,3.4H9c0.2,0,0.3,0.1,0.3,0.3v1.3c0,0.2-0.1,0.3-0.3,0.3H7.7c-0.2,0-0.3-0.1-0.3-0.3V3.8
			C7.3,3.6,7.5,3.4,7.7,3.4z"/>
	</g>
</g>
</svg>
