<?xml version="1.0" encoding="utf-8"?>
<!-- Generator: Adobe Illustrator 19.1.0, SVG Export Plug-In . SVG Version: 6.00 Build 0)  -->
<svg version="1.1" id="Layer_1" xmlns="http://www.w3.org/2000/svg" xmlns:xlink="http://www.w3.org/1999/xlink" x="0px" y="0px"
	 viewBox="-284 376 42 42" style="enable-background:new -284 376 42 42;" xml:space="preserve">
<style type="text/css">
	.st0{fill:#F99C1C;}
</style>
<g>
	<polygon class="st0" points="-250.8,399.8 -259,407.9 -259,403.3 -260.7,403.3 -260.7,410.8 -253.1,410.8 -253.1,409.1 
		-257.8,409.1 -249.6,401 	"/>
	<polygon class="st0" points="-269.1,401.2 -269.1,399.5 -276.6,399.5 -276.6,407.1 -274.9,407.1 -274.9,402.4 -266.8,410.5 
		-265.6,409.3 -273.7,401.2 	"/>
	<polygon class="st0" points="-272.9,384.9 -268.2,384.9 -276.4,393 -275.2,394.2 -267,386.1 -267,390.7 -265.3,390.7 -265.3,383.2 
		-272.9,383.2 	"/>
	<polygon class="st0" points="-251.1,386.9 -251.1,391.6 -259.2,383.5 -260.4,384.7 -252.3,392.8 -256.9,392.8 -256.9,394.5 
		-249.4,394.5 -249.4,386.9 	"/>
</g>
</svg>
