<?xml version="1.0" encoding="utf-8"?>
<!-- Generator: Adobe Illustrator 18.0.0, SVG Export Plug-In . SVG Version: 6.00 Build 0)  -->
<!DOCTYPE svg PUBLIC "-//W3C//DTD SVG 1.1//EN" "http://www.w3.org/Graphics/SVG/1.1/DTD/svg11.dtd">
<svg version="1.1" id="Layer_1" xmlns="http://www.w3.org/2000/svg" xmlns:xlink="http://www.w3.org/1999/xlink" x="0px" y="0px"
	 viewBox="0 0 400 400" enable-background="new 0 0 400 400" xml:space="preserve">
<rect x="441.4" y="403.7" fill="none" width="2.8" height="2.8"/>
<g>
	<g>
		<path fill="#3D6480" d="M148.6,340l-1.2-3.2h-4l-1.2,3.2H141l4-10h1l3.9,10H148.6z M147,335.7l-1.2-3.1c-0.2-0.4-0.3-0.9-0.5-1.4
			c-0.1,0.4-0.2,0.9-0.4,1.4l-1.2,3.1H147z"/>
		<path fill="#3D6480" d="M152.2,340H151v-10.6h1.1V340z"/>
		<path fill="#3D6480" d="M159.4,337.9c0,0.7-0.3,1.2-0.8,1.6s-1.2,0.6-2.2,0.6c-1,0-1.8-0.2-2.3-0.5v-1.1c0.4,0.2,0.7,0.3,1.2,0.4
			c0.4,0.1,0.8,0.2,1.2,0.2c0.6,0,1-0.1,1.4-0.3c0.3-0.2,0.5-0.5,0.5-0.9c0-0.3-0.1-0.5-0.4-0.7c-0.3-0.2-0.7-0.5-1.5-0.7
			c-0.7-0.3-1.2-0.5-1.5-0.7c-0.3-0.2-0.5-0.4-0.7-0.7c-0.1-0.2-0.2-0.5-0.2-0.9c0-0.6,0.2-1.1,0.7-1.4c0.5-0.4,1.2-0.5,2-0.5
			c0.8,0,1.6,0.2,2.4,0.5l-0.4,0.9c-0.8-0.3-1.4-0.5-2-0.5c-0.5,0-0.9,0.1-1.2,0.3s-0.4,0.4-0.4,0.7c0,0.2,0.1,0.4,0.2,0.5
			c0.1,0.1,0.3,0.3,0.5,0.4s0.7,0.3,1.3,0.6c0.9,0.3,1.5,0.6,1.8,1C159.3,337,159.4,337.4,159.4,337.9z"/>
		<path fill="#3D6480" d="M167.7,336.2c0,1.2-0.3,2.2-0.9,2.9c-0.6,0.7-1.5,1-2.5,1c-0.7,0-1.3-0.2-1.8-0.5s-0.9-0.8-1.2-1.4
			s-0.4-1.3-0.4-2.1c0-1.2,0.3-2.2,0.9-2.9c0.6-0.7,1.5-1,2.5-1c1,0,1.9,0.3,2.5,1C167.4,334.1,167.7,335,167.7,336.2z M162,336.2
			c0,1,0.2,1.7,0.6,2.2s0.9,0.8,1.7,0.8s1.3-0.2,1.7-0.7c0.4-0.5,0.6-1.2,0.6-2.2c0-1-0.2-1.7-0.6-2.2c-0.4-0.5-1-0.7-1.7-0.7
			c-0.7,0-1.3,0.2-1.7,0.7S162,335.2,162,336.2z"/>
		<path fill="#3D6480" d="M175.8,339.2c0.2,0,0.4,0,0.6,0c0.2,0,0.3-0.1,0.4-0.1v0.9c-0.1,0.1-0.3,0.1-0.5,0.1
			c-0.2,0-0.5,0.1-0.6,0.1c-1.4,0-2.2-0.8-2.2-2.3v-4.5h-1.1v-0.5l1.1-0.5l0.5-1.6h0.7v1.7h2.2v0.9h-2.2v4.4c0,0.5,0.1,0.8,0.3,1
			S175.4,339.2,175.8,339.2z"/>
		<path fill="#3D6480" d="M181.7,332.3c0.3,0,0.6,0,0.9,0.1l-0.2,1.1c-0.3-0.1-0.6-0.1-0.8-0.1c-0.6,0-1.1,0.2-1.6,0.7
			c-0.4,0.5-0.6,1.1-0.6,1.8v4h-1.1v-7.5h0.9l0.1,1.4h0.1c0.3-0.5,0.6-0.9,1-1.1S181.2,332.3,181.7,332.3z"/>
		<path fill="#3D6480" d="M182.8,332.5h1.2l1.6,4.3c0.4,1,0.6,1.7,0.7,2.1h0.1c0.1-0.2,0.2-0.6,0.4-1.2c0.2-0.6,0.8-2.3,1.9-5.2h1.2
			l-3.2,8.5c-0.3,0.8-0.7,1.4-1.1,1.8c-0.4,0.4-0.9,0.5-1.6,0.5c-0.3,0-0.7,0-1-0.1v-0.9c0.3,0.1,0.5,0.1,0.8,0.1
			c0.8,0,1.3-0.4,1.7-1.3l0.4-1.1L182.8,332.5z"/>
		<path fill="#3D6480" d="M199.5,337.9c0,0.7-0.3,1.2-0.8,1.6s-1.2,0.6-2.2,0.6c-1,0-1.8-0.2-2.3-0.5v-1.1c0.4,0.2,0.7,0.3,1.2,0.4
			c0.4,0.1,0.8,0.2,1.2,0.2c0.6,0,1-0.1,1.4-0.3c0.3-0.2,0.5-0.5,0.5-0.9c0-0.3-0.1-0.5-0.4-0.7c-0.3-0.2-0.7-0.5-1.5-0.7
			c-0.7-0.3-1.2-0.5-1.5-0.7c-0.3-0.2-0.5-0.4-0.7-0.7c-0.1-0.2-0.2-0.5-0.2-0.9c0-0.6,0.2-1.1,0.7-1.4c0.5-0.4,1.2-0.5,2-0.5
			c0.8,0,1.6,0.2,2.4,0.5l-0.4,0.9c-0.8-0.3-1.4-0.5-2-0.5c-0.5,0-0.9,0.1-1.2,0.3s-0.4,0.4-0.4,0.7c0,0.2,0.1,0.4,0.2,0.5
			c0.1,0.1,0.3,0.3,0.5,0.4s0.7,0.3,1.3,0.6c0.9,0.3,1.5,0.6,1.8,1C199.4,337,199.5,337.4,199.5,337.9z"/>
		<path fill="#3D6480" d="M206.5,340v-4.8c0-0.6-0.1-1.1-0.4-1.4s-0.7-0.5-1.3-0.5c-0.8,0-1.4,0.2-1.7,0.6c-0.4,0.4-0.5,1.1-0.5,2.1
			v3.9h-1.1v-10.6h1.1v3.2c0,0.4,0,0.7-0.1,1h0.1c0.2-0.4,0.5-0.6,1-0.9c0.4-0.2,0.9-0.3,1.4-0.3c0.9,0,1.6,0.2,2.1,0.7
			c0.5,0.4,0.7,1.1,0.7,2.1v4.9H206.5z"/>
		<path fill="#3D6480" d="M209.9,330.4c0-0.3,0.1-0.5,0.2-0.6c0.1-0.1,0.3-0.2,0.5-0.2c0.2,0,0.3,0.1,0.5,0.2s0.2,0.3,0.2,0.6
			s-0.1,0.4-0.2,0.6c-0.1,0.1-0.3,0.2-0.5,0.2c-0.2,0-0.4-0.1-0.5-0.2C209.9,330.9,209.9,330.7,209.9,330.4z M211.1,340H210v-7.5
			h1.1V340z"/>
		<path fill="#3D6480" d="M216.9,333.4H215v6.6h-1.1v-6.6h-1.3v-0.5l1.3-0.4V332c0-1.8,0.8-2.8,2.4-2.8c0.4,0,0.9,0.1,1.4,0.2
			l-0.3,0.9c-0.4-0.1-0.8-0.2-1.1-0.2c-0.4,0-0.7,0.1-1,0.4c-0.2,0.3-0.3,0.7-0.3,1.4v0.5h1.9V333.4z"/>
		<path fill="#3D6480" d="M220.7,339.2c0.2,0,0.4,0,0.6,0c0.2,0,0.3-0.1,0.4-0.1v0.9c-0.1,0.1-0.3,0.1-0.5,0.1
			c-0.2,0-0.5,0.1-0.6,0.1c-1.4,0-2.2-0.8-2.2-2.3v-4.5h-1.1v-0.5l1.1-0.5l0.5-1.6h0.7v1.7h2.2v0.9h-2.2v4.4c0,0.5,0.1,0.8,0.3,1
			S220.3,339.2,220.7,339.2z"/>
		<path fill="#3D6480" d="M230.1,334.6h2.8v0.9h-2.8v2.9h-1v-2.9h-2.8v-0.9h2.8v-2.9h1V334.6z"/>
		<path fill="#3D6480" d="M243.6,339L243.6,339c-0.6,0.8-1.4,1.1-2.4,1.1c-1,0-1.7-0.3-2.3-1c-0.5-0.7-0.8-1.6-0.8-2.9
			s0.3-2.2,0.8-2.9s1.3-1,2.3-1c1,0,1.8,0.4,2.3,1.1h0.1l0-0.5l0-0.5v-3h1.1V340h-0.9L243.6,339z M241.3,339.2
			c0.8,0,1.3-0.2,1.7-0.6c0.3-0.4,0.5-1.1,0.5-2v-0.2c0-1.1-0.2-1.8-0.5-2.3c-0.4-0.5-0.9-0.7-1.7-0.7c-0.7,0-1.2,0.3-1.5,0.8
			c-0.4,0.5-0.5,1.2-0.5,2.2c0,1,0.2,1.7,0.5,2.2S240.6,339.2,241.3,339.2z"/>
		<path fill="#3D6480" d="M253.5,336.2c0,1.2-0.3,2.2-0.9,2.9c-0.6,0.7-1.5,1-2.5,1c-0.7,0-1.3-0.2-1.8-0.5s-0.9-0.8-1.2-1.4
			s-0.4-1.3-0.4-2.1c0-1.2,0.3-2.2,0.9-2.9c0.6-0.7,1.5-1,2.5-1c1,0,1.9,0.3,2.5,1C253.2,334.1,253.5,335,253.5,336.2z M247.8,336.2
			c0,1,0.2,1.7,0.6,2.2s0.9,0.8,1.7,0.8s1.3-0.2,1.7-0.7c0.4-0.5,0.6-1.2,0.6-2.2c0-1-0.2-1.7-0.6-2.2c-0.4-0.5-1-0.7-1.7-0.7
			c-0.7,0-1.3,0.2-1.7,0.7S247.8,335.2,247.8,336.2z"/>
		<path fill="#3D6480" d="M256.6,332.5v4.9c0,0.6,0.1,1.1,0.4,1.4s0.7,0.5,1.3,0.5c0.8,0,1.4-0.2,1.7-0.6c0.4-0.4,0.5-1.1,0.5-2.1
			v-3.9h1.1v7.5h-0.9l-0.2-1h-0.1c-0.2,0.4-0.6,0.7-1,0.8c-0.4,0.2-0.9,0.3-1.4,0.3c-0.9,0-1.6-0.2-2-0.6c-0.5-0.4-0.7-1.1-0.7-2.1
			v-4.9H256.6z"/>
		<path fill="#3D6480" d="M267.6,332.3c1,0,1.7,0.3,2.3,1c0.5,0.7,0.8,1.6,0.8,2.9s-0.3,2.2-0.8,2.9c-0.5,0.7-1.3,1-2.3,1
			c-0.5,0-0.9-0.1-1.3-0.3c-0.4-0.2-0.7-0.5-1-0.8h-0.1l-0.2,1h-0.8v-10.6h1.1v2.6c0,0.6,0,1.1-0.1,1.6h0.1
			C265.8,332.7,266.6,332.3,267.6,332.3z M267.4,333.3c-0.8,0-1.3,0.2-1.7,0.7c-0.3,0.4-0.5,1.2-0.5,2.2s0.2,1.8,0.5,2.3
			c0.4,0.5,0.9,0.7,1.7,0.7c0.7,0,1.2-0.3,1.6-0.8c0.3-0.5,0.5-1.2,0.5-2.2c0-1-0.2-1.7-0.5-2.2S268.1,333.3,267.4,333.3z"/>
		<path fill="#3D6480" d="M273.8,340h-1.1v-10.6h1.1V340z"/>
		<path fill="#3D6480" d="M279.4,340.1c-1.1,0-2-0.3-2.6-1c-0.6-0.7-1-1.6-1-2.8c0-1.2,0.3-2.2,0.9-2.9c0.6-0.7,1.4-1.1,2.4-1.1
			c0.9,0,1.7,0.3,2.2,0.9c0.5,0.6,0.8,1.4,0.8,2.4v0.7H277c0,0.9,0.2,1.5,0.7,2c0.4,0.5,1,0.7,1.8,0.7c0.8,0,1.6-0.2,2.4-0.5v1
			c-0.4,0.2-0.8,0.3-1.1,0.4C280.3,340.1,279.9,340.1,279.4,340.1z M279.1,333.3c-0.6,0-1.1,0.2-1.4,0.6c-0.4,0.4-0.6,0.9-0.6,1.6
			h3.9c0-0.7-0.2-1.3-0.5-1.6C280.1,333.5,279.7,333.3,279.1,333.3z"/>
		<path fill="#3D6480" d="M283.5,336.7v-1h3.4v1H283.5z"/>
		<path fill="#3D6480" d="M291.6,340.1c-1.1,0-1.9-0.3-2.5-1c-0.6-0.7-0.9-1.6-0.9-2.8c0-1.3,0.3-2.2,0.9-2.9c0.6-0.7,1.5-1,2.6-1
			c0.4,0,0.7,0,1.1,0.1s0.6,0.2,0.8,0.3l-0.3,1c-0.3-0.1-0.5-0.2-0.8-0.3c-0.3-0.1-0.6-0.1-0.8-0.1c-1.5,0-2.3,1-2.3,2.9
			c0,0.9,0.2,1.6,0.6,2.1c0.4,0.5,0.9,0.7,1.7,0.7c0.6,0,1.3-0.1,1.9-0.4v1C293,340,292.3,340.1,291.6,340.1z"/>
		<path fill="#3D6480" d="M296.4,340h-1.1v-10.6h1.1V340z"/>
		<path fill="#3D6480" d="M298.7,330.4c0-0.3,0.1-0.5,0.2-0.6c0.1-0.1,0.3-0.2,0.5-0.2c0.2,0,0.3,0.1,0.5,0.2s0.2,0.3,0.2,0.6
			s-0.1,0.4-0.2,0.6c-0.1,0.1-0.3,0.2-0.5,0.2c-0.2,0-0.4-0.1-0.5-0.2C298.8,330.9,298.7,330.7,298.7,330.4z M299.9,340h-1.1v-7.5
			h1.1V340z"/>
		<path fill="#3D6480" d="M305.3,340.1c-1.1,0-1.9-0.3-2.5-1c-0.6-0.7-0.9-1.6-0.9-2.8c0-1.3,0.3-2.2,0.9-2.9c0.6-0.7,1.5-1,2.6-1
			c0.4,0,0.7,0,1.1,0.1s0.6,0.2,0.8,0.3l-0.3,1c-0.3-0.1-0.5-0.2-0.8-0.3c-0.3-0.1-0.6-0.1-0.8-0.1c-1.5,0-2.3,1-2.3,2.9
			c0,0.9,0.2,1.6,0.6,2.1c0.4,0.5,0.9,0.7,1.7,0.7c0.6,0,1.3-0.1,1.9-0.4v1C306.7,340,306.1,340.1,305.3,340.1z"/>
		<path fill="#3D6480" d="M310.1,336.1c0.2-0.3,0.5-0.6,0.9-1.1l2.4-2.6h1.3l-3,3.2l3.2,4.3h-1.4l-2.6-3.5l-0.9,0.7v2.8H309v-10.6
			h1.1v5.6C310.1,335.2,310.1,335.6,310.1,336.1L310.1,336.1z"/>
	</g>
	<g>
		<path fill="#3D6380" stroke="#3D6480" stroke-width="0.75" stroke-miterlimit="10" d="M136.4,305c0,2.6-0.7,4.6-2.1,6
			c-1.4,1.3-3.4,2-6.1,2h-3.8v-15.7h4.2c2.5,0,4.4,0.7,5.7,2S136.4,302.4,136.4,305z M135.2,305c0-2.2-0.6-3.9-1.7-5.1
			c-1.1-1.1-2.8-1.7-5-1.7h-2.9V312h2.6C132.8,312,135.2,309.7,135.2,305z"/>
		<path fill="#3D6380" stroke="#3D6480" stroke-width="0.75" stroke-miterlimit="10" d="M144.3,301.1c0.5,0,1,0,1.6,0.2l-0.2,1
			c-0.5-0.1-1-0.2-1.5-0.2c-1,0-1.8,0.4-2.4,1.3c-0.6,0.8-1,1.9-1,3.2v6.4h-1.1v-11.7h0.9l0.1,2.1h0.1c0.5-0.9,1-1.5,1.5-1.8
			C142.9,301.2,143.6,301.1,144.3,301.1z"/>
		<path fill="#3D6380" stroke="#3D6480" stroke-width="0.75" stroke-miterlimit="10" d="M155.4,313l-0.3-1.8H155
			c-0.6,0.8-1.2,1.3-1.8,1.6c-0.6,0.3-1.4,0.5-2.2,0.5c-1.1,0-2-0.3-2.7-0.9c-0.6-0.6-1-1.4-1-2.4c0-1.1,0.5-2,1.4-2.7
			c0.9-0.6,2.3-1,4.1-1l2.2-0.1v-0.8c0-1.1-0.2-1.9-0.7-2.5c-0.5-0.6-1.2-0.8-2.2-0.8c-1.1,0-2.2,0.3-3.4,0.9l-0.4-0.9
			c1.3-0.6,2.5-0.9,3.8-0.9c1.3,0,2.2,0.3,2.9,1s1,1.7,1,3.1v7.8H155.4z M151.1,312.2c1.2,0,2.2-0.4,2.9-1.1c0.7-0.7,1.1-1.7,1.1-3
			V307l-2,0.1c-1.6,0.1-2.8,0.3-3.5,0.8c-0.7,0.4-1,1.1-1,2c0,0.7,0.2,1.3,0.7,1.7S150.3,312.2,151.1,312.2z"/>
		<path fill="#3D6380" stroke="#3D6480" stroke-width="0.75" stroke-miterlimit="10" d="M169.1,301.3v0.7l-2.4,0.2
			c0.6,0.8,1,1.7,1,2.6c0,1.1-0.4,2-1.1,2.7c-0.7,0.7-1.8,1-3,1c-0.5,0-0.9,0-1.1-0.1c-0.4,0.2-0.7,0.5-1,0.8
			c-0.2,0.3-0.3,0.6-0.3,1c0,0.4,0.1,0.6,0.4,0.8s0.8,0.3,1.4,0.3h2c1.3,0,2.2,0.3,2.9,0.8c0.7,0.5,1,1.3,1,2.3
			c0,1.2-0.5,2.2-1.5,2.9c-1,0.7-2.4,1-4.3,1c-1.5,0-2.6-0.3-3.4-0.8c-0.8-0.6-1.2-1.4-1.2-2.4c0-0.8,0.2-1.5,0.7-2
			c0.5-0.5,1.2-0.9,2-1.1c-0.4-0.2-0.6-0.4-0.8-0.6c-0.2-0.3-0.3-0.6-0.3-1c0-0.8,0.5-1.5,1.5-2.1c-0.7-0.3-1.2-0.7-1.6-1.3
			c-0.4-0.6-0.6-1.3-0.6-2.1c0-1.2,0.4-2.1,1.1-2.8c0.7-0.7,1.7-1.1,3-1.1c0.8,0,1.4,0.1,1.8,0.2H169.1z M159.6,314.9
			c0,1.6,1.2,2.4,3.6,2.4c3.1,0,4.6-1,4.6-2.9c0-0.7-0.2-1.2-0.7-1.5c-0.5-0.3-1.3-0.5-2.3-0.5h-1.9
			C160.7,312.4,159.6,313.3,159.6,314.9z M160.5,304.9c0,0.9,0.3,1.6,0.8,2.1s1.3,0.7,2.2,0.7c1,0,1.7-0.2,2.2-0.7s0.8-1.2,0.8-2.1
			c0-1-0.3-1.7-0.8-2.2s-1.3-0.7-2.2-0.7c-0.9,0-1.7,0.3-2.2,0.8C160.8,303.2,160.5,304,160.5,304.9z"/>
		<path fill="#3D6380" stroke="#3D6480" stroke-width="0.75" stroke-miterlimit="10" d="M176.5,309c0-1,0.3-1.8,0.8-2.5
			c0.5-0.7,1.5-1.4,2.9-2.2l-0.8-0.9c-0.5-0.5-0.8-1-1.1-1.5c-0.2-0.5-0.3-1-0.3-1.5c0-1,0.3-1.8,1-2.4s1.6-0.9,2.8-0.9
			c1.1,0,2,0.3,2.6,0.9s1,1.4,1,2.4c0,0.8-0.3,1.4-0.8,2.1c-0.5,0.6-1.4,1.3-2.7,2.1l4.9,4.9c0.4-0.5,0.8-1.1,1.1-1.7
			c0.3-0.6,0.6-1.3,0.8-2.2h1c-0.5,1.8-1.2,3.3-2.2,4.6l2.9,2.9H189l-2.1-2.1c-0.7,0.6-1.2,1.1-1.8,1.4c-0.5,0.3-1.1,0.5-1.7,0.7
			c-0.6,0.2-1.3,0.2-2.1,0.2c-1.5,0-2.7-0.4-3.5-1.1C177,311.3,176.5,310.3,176.5,309z M181.4,312.2c0.9,0,1.8-0.2,2.5-0.5
			c0.8-0.3,1.5-0.8,2.3-1.6L181,305c-1,0.5-1.7,1-2.1,1.3s-0.7,0.8-0.9,1.2c-0.2,0.4-0.3,0.9-0.3,1.5c0,1,0.3,1.8,1,2.4
			S180.2,312.2,181.4,312.2z M179.2,300.3c0,0.6,0.1,1.1,0.4,1.6c0.3,0.5,0.8,1.1,1.6,1.9c1.1-0.6,1.9-1.2,2.4-1.7
			c0.4-0.5,0.7-1.1,0.7-1.8c0-0.7-0.2-1.2-0.7-1.6c-0.4-0.4-1-0.6-1.8-0.6c-0.8,0-1.5,0.2-1.9,0.6
			C179.4,299,179.2,299.6,179.2,300.3z"/>
		<path fill="#3D6380" stroke="#3D6480" stroke-width="0.75" stroke-miterlimit="10" d="M210.8,305c0,2.6-0.7,4.6-2.1,6
			c-1.4,1.3-3.4,2-6.1,2h-3.8v-15.7h4.2c2.5,0,4.4,0.7,5.7,2S210.8,302.4,210.8,305z M209.6,305c0-2.2-0.6-3.9-1.7-5.1
			c-1.1-1.1-2.8-1.7-5-1.7h-2.9V312h2.6C207.2,312,209.6,309.7,209.6,305z"/>
		<path fill="#3D6380" stroke="#3D6480" stroke-width="0.75" stroke-miterlimit="10" d="M218.7,301.1c0.5,0,1,0,1.6,0.2l-0.2,1
			c-0.5-0.1-1-0.2-1.5-0.2c-1,0-1.8,0.4-2.4,1.3c-0.6,0.8-1,1.9-1,3.2v6.4h-1.1v-11.7h0.9l0.1,2.1h0.1c0.5-0.9,1-1.5,1.5-1.8
			C217.3,301.2,217.9,301.1,218.7,301.1z"/>
		<path fill="#3D6380" stroke="#3D6480" stroke-width="0.75" stroke-miterlimit="10" d="M232.3,307.1c0,1.9-0.5,3.4-1.4,4.5
			c-0.9,1.1-2.2,1.6-3.8,1.6c-1,0-1.9-0.2-2.7-0.7c-0.8-0.5-1.4-1.2-1.8-2.1c-0.4-0.9-0.6-2-0.6-3.2c0-1.9,0.5-3.4,1.4-4.5
			c0.9-1.1,2.2-1.6,3.8-1.6c1.6,0,2.9,0.5,3.8,1.6C231.9,303.8,232.3,305.2,232.3,307.1z M223.1,307.1c0,1.6,0.4,2.9,1.1,3.8
			c0.7,0.9,1.7,1.3,3,1.3s2.3-0.4,3-1.3c0.7-0.9,1.1-2.2,1.1-3.8c0-1.6-0.4-2.9-1.1-3.7c-0.7-0.9-1.7-1.3-3-1.3s-2.3,0.4-3,1.3
			S223.1,305.5,223.1,307.1z"/>
		<path fill="#3D6380" stroke="#3D6480" stroke-width="0.75" stroke-miterlimit="10" d="M240.5,313.2c-1.8,0-3.1-0.7-3.9-2h-0.1
			l0,0.9c0,0.5,0,1.1,0,1.7v4.4h-1.1v-17h0.9l0.2,1.7h0.1c0.8-1.3,2.1-1.9,3.8-1.9c1.6,0,2.8,0.5,3.6,1.6c0.8,1,1.2,2.5,1.2,4.5
			c0,1.9-0.4,3.4-1.3,4.5C243.2,312.7,242,313.2,240.5,313.2z M240.5,312.2c1.2,0,2.1-0.4,2.8-1.3c0.7-0.9,1-2.1,1-3.7
			c0-3.4-1.2-5.1-3.7-5.1c-1.4,0-2.4,0.4-3,1.1c-0.6,0.7-1,2-1,3.7v0.3c0,1.8,0.3,3.1,0.9,3.9C238.1,311.8,239.1,312.2,240.5,312.2z
			"/>
		<path fill="#3D6380" stroke="#3D6480" stroke-width="0.75" stroke-miterlimit="10" d="M261.4,313l-0.3-1.8h-0.1
			c-0.6,0.8-1.2,1.3-1.8,1.6c-0.6,0.3-1.4,0.5-2.2,0.5c-1.1,0-2-0.3-2.7-0.9c-0.6-0.6-1-1.4-1-2.4c0-1.1,0.5-2,1.4-2.7
			c0.9-0.6,2.3-1,4.1-1l2.2-0.1v-0.8c0-1.1-0.2-1.9-0.7-2.5c-0.5-0.6-1.2-0.8-2.2-0.8c-1.1,0-2.2,0.3-3.4,0.9l-0.4-0.9
			c1.3-0.6,2.5-0.9,3.8-0.9c1.3,0,2.2,0.3,2.9,1s1,1.7,1,3.1v7.8H261.4z M257.1,312.2c1.2,0,2.2-0.4,2.9-1.1c0.7-0.7,1.1-1.7,1.1-3
			V307l-2,0.1c-1.6,0.1-2.8,0.3-3.5,0.8c-0.7,0.4-1,1.1-1,2c0,0.7,0.2,1.3,0.7,1.7S256.3,312.2,257.1,312.2z"/>
		<path fill="#3D6380" stroke="#3D6480" stroke-width="0.75" stroke-miterlimit="10" d="M274.2,313v-7.6c0-1.2-0.2-2-0.7-2.6
			c-0.5-0.5-1.3-0.8-2.3-0.8c-1.4,0-2.4,0.4-3.1,1.1c-0.6,0.7-1,1.8-1,3.4v6.4H266v-11.7h0.9l0.2,1.6h0.1c0.8-1.2,2.1-1.8,4-1.8
			c2.6,0,4,1.4,4,4.3v7.6H274.2z"/>
		<path fill="#3D6380" stroke="#3D6480" stroke-width="0.75" stroke-miterlimit="10" d="M293.6,313H285v-15.7h8.6v1h-7.5v5.9h7.1v1
			h-7.1v6.7h7.5V313z"/>
		<path fill="#3D6380" stroke="#3D6480" stroke-width="0.75" stroke-miterlimit="10" d="M305,313v-7.6c0-1.2-0.2-2-0.7-2.6
			c-0.5-0.5-1.3-0.8-2.3-0.8c-1.4,0-2.4,0.4-3.1,1.1c-0.6,0.7-1,1.8-1,3.4v6.4h-1.1v-11.7h0.9l0.2,1.6h0.1c0.8-1.2,2.1-1.8,4-1.8
			c2.6,0,4,1.4,4,4.3v7.6H305z"/>
		<path fill="#3D6380" stroke="#3D6480" stroke-width="0.75" stroke-miterlimit="10" d="M312.9,312.2c0.7,0,1.3-0.1,1.8-0.2v0.9
			c-0.5,0.2-1.1,0.3-1.8,0.3c-1,0-1.8-0.3-2.3-0.8c-0.5-0.6-0.7-1.4-0.7-2.6v-7.5h-1.7v-0.6l1.7-0.5l0.5-2.6h0.5v2.8h3.4v0.9h-3.4
			v7.4c0,0.9,0.2,1.6,0.5,2S312.2,312.2,312.9,312.2z"/>
		<path fill="#3D6380" stroke="#3D6480" stroke-width="0.75" stroke-miterlimit="10" d="M321.8,301.1c0.5,0,1,0,1.6,0.2l-0.2,1
			c-0.5-0.1-1-0.2-1.5-0.2c-1,0-1.8,0.4-2.4,1.3c-0.6,0.8-1,1.9-1,3.2v6.4h-1.1v-11.7h0.9l0.1,2.1h0.1c0.5-0.9,1-1.5,1.5-1.8
			C320.4,301.2,321,301.1,321.8,301.1z"/>
		<path fill="#3D6380" stroke="#3D6480" stroke-width="0.75" stroke-miterlimit="10" d="M323.8,301.3h1.1l2.5,6.6
			c0.8,2,1.2,3.4,1.4,4.1h0.1c0.3-0.9,0.8-2.3,1.5-4.1l2.5-6.5h1.1l-5.2,13.6c-0.4,1.1-0.8,1.8-1.1,2.2s-0.6,0.7-1,0.9
			c-0.4,0.2-0.8,0.3-1.4,0.3c-0.4,0-0.9-0.1-1.4-0.2v-0.9c0.4,0.1,0.9,0.2,1.3,0.2c0.4,0,0.7-0.1,1-0.3s0.5-0.4,0.8-0.8
			c0.2-0.4,0.5-0.9,0.8-1.7c0.3-0.8,0.5-1.3,0.6-1.5L323.8,301.3z"/>
	</g>
	<g>
		<path fill="#F0F0F0" d="M348.6,269.9H107.5c-2.8,0-5-2.2-5-5v-155c0-2.8,2.2-5,5-5h241.1c2.8,0,5,2.2,5,5v155
			C353.6,267.7,351.4,269.9,348.6,269.9z"/>
		<path fill="#3D6480" d="M348.6,271H107.5c-3.3,0-6-2.7-6-6v-155c0-3.3,2.7-6,6-6h241.1c3.3,0,6,2.7,6,6v155
			C354.6,268.3,351.9,271,348.6,271z M107.5,105.9c-2.2,0-4,1.8-4,4v155c0,2.2,1.8,4,4,4h241.1c2.2,0,4-1.8,4-4v-155
			c0-2.2-1.8-4-4-4H107.5z"/>
	</g>
	<g>
		<rect x="114.8" y="118.9" fill="#EEF8FD" width="28.7" height="138.9"/>
		<path fill="#3D6480" d="M144.6,258.9h-30.7V117.9h30.7V258.9z M115.8,256.9h26.7V119.9h-26.7V256.9z"/>
	</g>
	<g>
		<rect x="155" y="119" fill="#FFFFFF" width="187" height="139"/>
		<path fill="#3D6480" d="M343,259H154V118h189V259z M156,257h185V120H156V257z"/>
	</g>
	<g>
		<g>
			<g>
				<polygon fill="#3D6380" points="212.2,157.3 208.3,162.9 201.8,164.6 214.9,172.1 				"/>
			</g>
		</g>
		<g>
			<path fill="#3D6380" d="M139.9,138c-0.7,0-1.3-0.5-1.5-1.2c-0.2-0.8,0.4-1.6,1.2-1.8c0.8-0.2,1.7-0.3,2.5-0.5
				c0.8-0.1,1.6,0.4,1.7,1.2c0.1,0.8-0.4,1.6-1.2,1.7c-0.8,0.1-1.6,0.3-2.4,0.5C140.1,138,140,138,139.9,138z"/>
			<path fill="#3D6380" d="M205.3,160.5c-0.5,0-0.9-0.2-1.2-0.6c-1-1.4-2.1-2.7-3.3-4c-0.6-0.6-0.5-1.6,0.1-2.1
				c0.6-0.6,1.6-0.5,2.1,0.1c1.2,1.4,2.4,2.8,3.5,4.3c0.5,0.7,0.4,1.6-0.3,2.1C205.9,160.4,205.6,160.5,205.3,160.5z M197.4,151.7
				c-0.4,0-0.7-0.1-1-0.4c-1.3-1.2-2.6-2.3-4-3.3c-0.7-0.5-0.8-1.4-0.3-2.1s1.4-0.8,2.1-0.3c1.4,1.1,2.9,2.3,4.2,3.5
				c0.6,0.6,0.7,1.5,0.1,2.1C198.2,151.6,197.8,151.7,197.4,151.7z M187.9,144.7c-0.3,0-0.5-0.1-0.8-0.2c-1.5-0.9-3-1.7-4.6-2.5
				c-0.7-0.4-1.1-1.3-0.7-2c0.4-0.7,1.3-1.1,2-0.7c1.6,0.8,3.3,1.7,4.8,2.6c0.7,0.4,0.9,1.3,0.5,2.1
				C188.9,144.4,188.4,144.7,187.9,144.7z M177.3,139.7c-0.2,0-0.3,0-0.5-0.1c-1.6-0.6-3.3-1.1-5-1.5c-0.8-0.2-1.3-1-1.1-1.8
				c0.2-0.8,1-1.3,1.8-1.1c1.8,0.4,3.5,1,5.3,1.6c0.8,0.3,1.2,1.1,0.9,1.9C178.5,139.3,177.9,139.7,177.3,139.7z M165.8,137
				c-0.1,0-0.1,0-0.2,0c-1.7-0.2-3.5-0.4-5.2-0.5c-0.8,0-1.5-0.8-1.4-1.6c0-0.8,0.7-1.5,1.6-1.4c1.8,0.1,3.7,0.3,5.4,0.5
				c0.8,0.1,1.4,0.9,1.3,1.7C167.2,136.4,166.6,137,165.8,137z M148.7,136.7c-0.8,0-1.4-0.6-1.5-1.4c-0.1-0.8,0.5-1.6,1.3-1.6
				c1.8-0.2,3.7-0.3,5.4-0.4c0.8,0,1.5,0.6,1.5,1.5c0,0.8-0.6,1.5-1.5,1.5c-1.7,0.1-3.5,0.2-5.2,0.3
				C148.8,136.7,148.8,136.7,148.7,136.7z"/>
			<path fill="#3D6380" d="M210,168c-0.6,0-1.1-0.3-1.4-0.9c0,0-0.4-0.8-1.1-2.1c-0.4-0.7-0.2-1.6,0.6-2c0.7-0.4,1.6-0.2,2,0.6
				c0.8,1.4,1.2,2.3,1.2,2.3c0.3,0.8,0,1.6-0.7,2C210.4,168,210.2,168,210,168z"/>
		</g>
	</g>
	<path fill="#3D6480" d="M274.2,222h-53.1c-3,0-5.4-2.4-5.4-5.4v-53.1c0-3,2.4-5.4,5.4-5.4h53.1c3,0,5.4,2.4,5.4,5.4v53.1
		C279.6,219.6,277.2,222,274.2,222z M221.1,160c-1.9,0-3.4,1.5-3.4,3.4v53.1c0,1.9,1.5,3.4,3.4,3.4h53.1c1.9,0,3.4-1.5,3.4-3.4
		v-53.1c0-1.9-1.5-3.4-3.4-3.4H221.1z"/>
	<g>
		<path fill="#FFECCE" d="M256.3,195.9c1.5-0.3,2.4-0.8,2.9-1.1v-7.5c-3.3,1.6-9.9,1.8-11.6,1.8c-3.5,0-6.7-0.3-9.2-0.9
			c-1.1-0.3-2-0.6-2.7-0.9v7.6c1.5,1.1,5.9,2,11.9,2C250.9,196.7,254,196.4,256.3,195.9z"/>
		<path fill="#FFECCE" d="M247.5,198.1c-3.5,0-6.7-0.3-9.2-0.9c-1.1-0.3-2-0.6-2.7-0.9v7.3c0,0.9,4.2,2.6,11.9,2.6h0
			c1.9,0,3.8-0.1,5.4-0.3l6.2-6.2v-3.3C255.9,197.9,249.2,198.1,247.5,198.1z"/>
		<path fill="#FFECCE" d="M247.5,187.7c3.3,0,6.4-0.3,8.7-0.8c1.5-0.3,2.4-0.8,2.9-1.1v-7c-3.3,1.6-9.9,1.8-11.6,1.8
			c-3.5,0-6.7-0.3-9.2-0.9c-1.1-0.3-2-0.6-2.7-0.9l0,7.1C237.2,186.8,241.6,187.7,247.5,187.7z"/>
		<path fill="#FFECCE" d="M259.2,177.2v-1.1c-0.3-0.8-4.5-2.2-11.9-2.2c-7.3,0-11.4,1.4-11.6,2.2v1c1.5,1.1,5.9,2,11.9,2
			C253.5,179.1,257.7,178.2,259.2,177.2z"/>
		<path fill="#3D6480" d="M247.5,206.1L247.5,206.1c-7.7,0-11.9-1.7-11.9-2.6v-7.3c0.7,0.3,1.6,0.7,2.7,0.9c2.4,0.6,5.7,0.9,9.2,0.9
			c1.7,0,8.3-0.1,11.6-1.8v3.3l2.5-2.5v-20.9c0-4.4-11-4.7-14.4-4.7c-4.2,0-14.1,0.5-14.1,4.7v27.4c0,4.8,12,5.1,14.4,5.1h0
			c0.9,0,1.8,0,2.7-0.1l2.8-2.8C251.3,206,249.5,206.1,247.5,206.1z M235.7,176.2c0.2-0.8,4.3-2.2,11.6-2.2c7.4,0,11.6,1.4,11.9,2.2
			v1.1c-1.5,1-5.6,1.9-11.6,1.9c-6,0-10.4-0.9-11.9-2V176.2z M238.4,179.6c2.4,0.6,5.7,0.9,9.2,0.9c1.7,0,8.3-0.1,11.6-1.8v7
			c-0.5,0.4-1.4,0.8-2.9,1.1c-2.3,0.5-5.4,0.8-8.7,0.8c-6,0-10.4-0.9-11.9-2l0-7.1C236.4,179,237.3,179.3,238.4,179.6z M235.7,187.2
			c0.7,0.3,1.6,0.7,2.7,0.9c2.4,0.6,5.7,0.9,9.2,0.9c1.7,0,8.3-0.1,11.6-1.8v7.5c-0.5,0.4-1.4,0.8-2.9,1.1c-2.3,0.5-5.4,0.8-8.7,0.8
			c-6,0-10.4-0.9-11.9-2V187.2z"/>
		<polygon fill="#3D6480" points="271.4,207.4 271.4,211.9 263.7,204.2 261.7,206.2 269.4,213.9 264.7,213.9 264.7,216.7 
			274.2,216.7 274.2,207.4 		"/>
	</g>
	<g>
		<defs>
			<circle id="SVGID_1_" cx="108.1" cy="119.8" r="61.7"/>
		</defs>
		<clipPath id="SVGID_2_">
			<use xlink:href="#SVGID_1_"  overflow="visible"/>
		</clipPath>
		<rect x="43.5" y="52.4" clip-path="url(#SVGID_2_)" fill="#FFFFFF" width="130" height="130.8"/>
		<g clip-path="url(#SVGID_2_)">
			<path fill="#3D6480" d="M64.3,100.2L62,97.9h-6.1v14.4h16.8h0.8h0.6v-12.2H64.3z M57.3,99.4h4.1l1.6,1.6h-5.8V99.4z M57.3,110.9
				v-9.3h6.4h9v9.3H57.3z"/>
			<path fill="#3D6380" d="M74.2,112.5H55.7V97.8H62l2.3,2.2h9.9V112.5z M56,112.2h18v-11.9h-9.7l-2.3-2.2h-6V112.2z M72.8,111H57.1
				v-9.6h15.6V111z M57.4,110.8h15.1v-9.1H57.4V110.8z M63.3,101.1h-6.2v-1.8h4.3L63.3,101.1z M57.4,100.8h5.3l-1.4-1.3h-4V100.8z"
				/>
		</g>
		<g clip-path="url(#SVGID_2_)">
			<path fill="#F0F0F0" d="M161.4,87.9v-1h-25.8L128.2,69c-0.7-1.5-1.8-2-2.9-2H77.5c-1.1,0-2,0.9-2,2v17.8H55.1V88"/>
			<path fill="#C4C4C4" d="M56.1,89h-2v-3.2h20.3V69c0-1.7,1.3-3,3-3h47.9c1.7,0,3,0.9,3.8,2.6l7.1,17.2h26.1v3h-2v-1h-25.5
				l-7.6-18.5c-0.4-0.9-1-1.4-1.9-1.4H77.5c-0.6,0-1,0.4-1,1v18.8H56.1V89z"/>
		</g>
		<g clip-path="url(#SVGID_2_)">
			<path d="M84.5,101.1h2.7c1.2,0,2.1,0.2,2.7,0.6s0.9,1.1,0.9,1.9c0,0.6-0.2,1.1-0.5,1.4c-0.4,0.4-0.9,0.6-1.5,0.7v0
				c0.8,0.1,1.4,0.4,1.8,0.8c0.4,0.4,0.6,0.9,0.6,1.6c0,0.9-0.3,1.6-0.9,2.1s-1.5,0.7-2.6,0.7h-3.1V101.1z M85.2,105.6h2.2
				c0.9,0,1.6-0.2,2-0.5c0.4-0.3,0.6-0.8,0.6-1.5s-0.2-1.1-0.7-1.4c-0.5-0.3-1.2-0.5-2.2-0.5h-2V105.6z M85.2,106.2v4.3h2.4
				c1.9,0,2.8-0.8,2.8-2.3c0-1.4-1-2.1-2.9-2.1H85.2z"/>
			<path d="M93,101.6c0-0.4,0.1-0.7,0.4-0.7c0.1,0,0.3,0.1,0.3,0.2c0.1,0.1,0.1,0.3,0.1,0.5c0,0.2,0,0.4-0.1,0.5
				c-0.1,0.1-0.2,0.2-0.3,0.2C93.2,102.3,93,102,93,101.6z M93.8,111.1h-0.7v-7.4h0.7V111.1z"/>
			<path d="M102.1,103.7v0.5l-1.5,0.1c0.4,0.5,0.6,1.1,0.6,1.7c0,0.7-0.2,1.3-0.7,1.7c-0.5,0.4-1.1,0.7-1.9,0.7c-0.3,0-0.6,0-0.7,0
				c-0.3,0.1-0.5,0.3-0.6,0.5s-0.2,0.4-0.2,0.6c0,0.2,0.1,0.4,0.3,0.5c0.2,0.1,0.5,0.2,0.9,0.2h1.3c0.8,0,1.4,0.2,1.9,0.5
				c0.4,0.3,0.6,0.8,0.6,1.4c0,0.8-0.3,1.4-1,1.8c-0.6,0.4-1.5,0.6-2.7,0.6c-0.9,0-1.7-0.2-2.2-0.5c-0.5-0.4-0.8-0.9-0.8-1.5
				c0-0.5,0.2-0.9,0.5-1.3c0.3-0.3,0.7-0.6,1.3-0.7c-0.2-0.1-0.4-0.2-0.5-0.4c-0.1-0.2-0.2-0.4-0.2-0.6c0-0.5,0.3-0.9,1-1.3
				c-0.4-0.2-0.8-0.5-1-0.8c-0.2-0.4-0.4-0.8-0.4-1.3c0-0.7,0.2-1.3,0.7-1.8c0.5-0.4,1.1-0.7,1.9-0.7c0.5,0,0.9,0,1.1,0.1H102.1z
				 M96.1,112.4c0,1,0.8,1.5,2.3,1.5c2,0,2.9-0.6,2.9-1.9c0-0.4-0.2-0.8-0.5-1s-0.8-0.3-1.5-0.3h-1.2
				C96.7,110.8,96.1,111.3,96.1,112.4z M96.6,106c0,0.6,0.2,1,0.5,1.3c0.3,0.3,0.8,0.5,1.4,0.5c0.6,0,1.1-0.2,1.4-0.5
				c0.3-0.3,0.5-0.8,0.5-1.4c0-0.6-0.2-1.1-0.5-1.4c-0.3-0.3-0.8-0.5-1.4-0.5c-0.6,0-1.1,0.2-1.4,0.5
				C96.8,104.9,96.6,105.4,96.6,106z"/>
			<path d="M115,106c0,1.7-0.4,2.9-1.3,3.8c-0.9,0.9-2.2,1.3-3.9,1.3h-2.4v-10h2.7c1.6,0,2.8,0.4,3.6,1.3
				C114.6,103.2,115,104.4,115,106z M114.2,106c0-1.4-0.4-2.5-1.1-3.2c-0.7-0.7-1.8-1.1-3.2-1.1h-1.8v8.8h1.7
				C112.7,110.5,114.2,109,114.2,106z"/>
			<path d="M121.6,111.1l-0.2-1.2h-0.1c-0.4,0.5-0.8,0.8-1.2,1c-0.4,0.2-0.9,0.3-1.4,0.3c-0.7,0-1.3-0.2-1.7-0.6s-0.6-0.9-0.6-1.6
				c0-0.7,0.3-1.3,0.9-1.7c0.6-0.4,1.5-0.6,2.6-0.6l1.4,0v-0.5c0-0.7-0.1-1.2-0.4-1.6s-0.8-0.5-1.4-0.5c-0.7,0-1.4,0.2-2.1,0.6
				l-0.3-0.6c0.8-0.4,1.6-0.6,2.4-0.6c0.8,0,1.4,0.2,1.8,0.6c0.4,0.4,0.6,1.1,0.6,2v4.9H121.6z M118.9,110.6c0.8,0,1.4-0.2,1.9-0.7
				c0.5-0.5,0.7-1.1,0.7-1.9v-0.7l-1.3,0.1c-1,0-1.8,0.2-2.2,0.5c-0.4,0.3-0.7,0.7-0.7,1.3c0,0.5,0.1,0.8,0.4,1.1
				C118,110.5,118.4,110.6,118.9,110.6z"/>
			<path d="M126.5,110.6c0.4,0,0.8,0,1.1-0.1v0.5c-0.3,0.1-0.7,0.2-1.1,0.2c-0.7,0-1.1-0.2-1.5-0.5c-0.3-0.4-0.5-0.9-0.5-1.7v-4.8
				h-1.1v-0.4l1.1-0.3l0.3-1.7h0.3v1.8h2.2v0.6h-2.2v4.7c0,0.6,0.1,1,0.3,1.3S126.1,110.6,126.5,110.6z"/>
			<path d="M133.7,111.1l-0.2-1.2h-0.1c-0.4,0.5-0.8,0.8-1.2,1c-0.4,0.2-0.9,0.3-1.4,0.3c-0.7,0-1.3-0.2-1.7-0.6s-0.6-0.9-0.6-1.6
				c0-0.7,0.3-1.3,0.9-1.7c0.6-0.4,1.5-0.6,2.6-0.6l1.4,0v-0.5c0-0.7-0.1-1.2-0.4-1.6s-0.8-0.5-1.4-0.5c-0.7,0-1.4,0.2-2.1,0.6
				l-0.3-0.6c0.8-0.4,1.6-0.6,2.4-0.6c0.8,0,1.4,0.2,1.8,0.6c0.4,0.4,0.6,1.1,0.6,2v4.9H133.7z M131,110.6c0.8,0,1.4-0.2,1.9-0.7
				c0.5-0.5,0.7-1.1,0.7-1.9v-0.7l-1.3,0.1c-1,0-1.8,0.2-2.2,0.5c-0.4,0.3-0.7,0.7-0.7,1.3c0,0.5,0.1,0.8,0.4,1.1
				C130.1,110.5,130.5,110.6,131,110.6z"/>
		</g>
		<g clip-path="url(#SVGID_2_)">
			<path d="M91.3,77.4c0,1.6-0.4,2.7-1.2,3.5s-2,1.2-3.6,1.2h-2.2v-9.3h2.5c1.5,0,2.6,0.4,3.4,1.2C90.9,74.8,91.3,75.9,91.3,77.4z
				 M90.6,77.4c0-1.3-0.3-2.3-1-3s-1.7-1-3-1h-1.7v8.1h1.5C89.2,81.5,90.6,80.2,90.6,77.4z"/>
			<path d="M96,82.2c-1,0-1.8-0.3-2.3-0.9s-0.8-1.5-0.8-2.6c0-1.1,0.3-2,0.8-2.6c0.5-0.7,1.3-1,2.2-1c0.8,0,1.5,0.3,1.9,0.9
				c0.5,0.6,0.7,1.3,0.7,2.3v0.5h-5c0,0.9,0.2,1.7,0.7,2.2s1.1,0.7,1.9,0.7c0.4,0,0.7,0,1-0.1c0.3-0.1,0.7-0.2,1.1-0.4v0.6
				c-0.4,0.2-0.8,0.3-1.1,0.3S96.4,82.2,96,82.2z M95.9,75.6c-0.7,0-1.2,0.2-1.6,0.7c-0.4,0.4-0.6,1.1-0.7,1.9h4.3
				c0-0.8-0.2-1.4-0.5-1.9C97,75.9,96.5,75.6,95.9,75.6z"/>
			<path d="M104.7,80.3c0,0.6-0.2,1.1-0.7,1.4c-0.5,0.3-1.1,0.5-2,0.5c-0.9,0-1.7-0.1-2.2-0.4v-0.7c0.7,0.3,1.4,0.5,2.2,0.5
				c0.7,0,1.2-0.1,1.6-0.3s0.5-0.5,0.5-0.9c0-0.3-0.1-0.6-0.4-0.9s-0.7-0.5-1.4-0.7c-0.7-0.3-1.2-0.5-1.5-0.6s-0.5-0.4-0.6-0.6
				s-0.2-0.5-0.2-0.8c0-0.5,0.2-0.9,0.7-1.2c0.4-0.3,1-0.5,1.8-0.5c0.7,0,1.5,0.1,2.1,0.4l-0.2,0.6c-0.7-0.3-1.3-0.4-1.9-0.4
				c-0.6,0-1,0.1-1.3,0.3s-0.5,0.4-0.5,0.8c0,0.4,0.1,0.6,0.4,0.9s0.8,0.5,1.5,0.7c0.6,0.2,1.1,0.4,1.4,0.6s0.5,0.4,0.6,0.6
				S104.7,80,104.7,80.3z"/>
			<path d="M106.4,73.3c0-0.4,0.1-0.6,0.4-0.6c0.1,0,0.2,0.1,0.3,0.2s0.1,0.3,0.1,0.5c0,0.2,0,0.3-0.1,0.5s-0.2,0.2-0.3,0.2
				C106.5,73.9,106.4,73.7,106.4,73.3z M107.1,82.1h-0.6v-6.9h0.6V82.1z"/>
			<path d="M114.8,75.2v0.4l-1.4,0.1c0.4,0.5,0.6,1,0.6,1.6c0,0.7-0.2,1.2-0.7,1.6c-0.4,0.4-1,0.6-1.8,0.6c-0.3,0-0.5,0-0.7,0
				c-0.3,0.1-0.4,0.3-0.6,0.5s-0.2,0.4-0.2,0.6c0,0.2,0.1,0.4,0.3,0.5s0.4,0.2,0.8,0.2h1.2c0.7,0,1.3,0.2,1.7,0.5s0.6,0.8,0.6,1.3
				c0,0.7-0.3,1.3-0.9,1.7c-0.6,0.4-1.4,0.6-2.5,0.6c-0.9,0-1.5-0.2-2-0.5c-0.5-0.3-0.7-0.8-0.7-1.4c0-0.5,0.1-0.9,0.4-1.2
				c0.3-0.3,0.7-0.5,1.2-0.6c-0.2-0.1-0.4-0.2-0.5-0.4s-0.2-0.3-0.2-0.6c0-0.5,0.3-0.9,0.9-1.2c-0.4-0.2-0.7-0.4-0.9-0.8
				s-0.3-0.8-0.3-1.2c0-0.7,0.2-1.2,0.7-1.7c0.4-0.4,1-0.6,1.8-0.6c0.5,0,0.8,0,1.1,0.1H114.8z M109.2,83.3c0,0.9,0.7,1.4,2.1,1.4
				c1.8,0,2.7-0.6,2.7-1.7c0-0.4-0.1-0.7-0.4-0.9c-0.3-0.2-0.7-0.3-1.4-0.3h-1.1C109.8,81.8,109.2,82.3,109.2,83.3z M109.7,77.4
				c0,0.5,0.2,0.9,0.5,1.2c0.3,0.3,0.8,0.4,1.3,0.4c0.6,0,1-0.1,1.3-0.4s0.5-0.7,0.5-1.3c0-0.6-0.2-1-0.5-1.3s-0.8-0.4-1.3-0.4
				c-0.5,0-1,0.2-1.3,0.5S109.7,76.8,109.7,77.4z"/>
			<path d="M121,82.1v-4.5c0-0.7-0.1-1.2-0.4-1.5c-0.3-0.3-0.7-0.5-1.4-0.5c-0.8,0-1.4,0.2-1.8,0.6s-0.6,1.1-0.6,2v3.8h-0.6v-6.9
				h0.5l0.1,0.9h0c0.4-0.7,1.2-1.1,2.4-1.1c1.6,0,2.3,0.8,2.3,2.5v4.5H121z"/>
		</g>
		<g clip-path="url(#SVGID_2_)">
			<path d="M117.9,164.6h-0.7v-4.9h-5.8v4.9h-0.7v-10h0.7v4.4h5.8v-4.4h0.7V164.6z"/>
			<path d="M125.1,164.6l-0.2-1.2h-0.1c-0.4,0.5-0.8,0.8-1.2,1c-0.4,0.2-0.9,0.3-1.4,0.3c-0.7,0-1.3-0.2-1.7-0.6s-0.6-0.9-0.6-1.6
				c0-0.7,0.3-1.3,0.9-1.7c0.6-0.4,1.5-0.6,2.6-0.6l1.4,0v-0.5c0-0.7-0.1-1.2-0.4-1.6s-0.8-0.5-1.4-0.5c-0.7,0-1.4,0.2-2.1,0.6
				l-0.3-0.6c0.8-0.4,1.6-0.6,2.4-0.6c0.8,0,1.4,0.2,1.8,0.6c0.4,0.4,0.6,1.1,0.6,2v4.9H125.1z M122.4,164.2c0.8,0,1.4-0.2,1.9-0.7
				c0.5-0.5,0.7-1.1,0.7-1.9v-0.7l-1.3,0.1c-1,0-1.8,0.2-2.2,0.5c-0.4,0.3-0.7,0.7-0.7,1.3c0,0.5,0.1,0.8,0.4,1.1
				C121.4,164,121.8,164.2,122.4,164.2z"/>
			<path d="M130.7,157.1c0.5,0,1,0.1,1.4,0.3s0.7,0.5,1.1,1h0c0-0.6,0-1.1,0-1.7V154h0.7v10.6h-0.4l-0.2-1.1h-0.1
				c-0.6,0.8-1.4,1.3-2.4,1.3c-1,0-1.8-0.3-2.4-1s-0.8-1.6-0.8-2.8c0-1.3,0.3-2.3,0.8-2.9S129.7,157.1,130.7,157.1z M130.7,157.7
				c-0.8,0-1.4,0.3-1.8,0.9c-0.4,0.6-0.6,1.4-0.6,2.5c0,2.1,0.8,3.2,2.5,3.2c0.8,0,1.5-0.2,1.8-0.7s0.6-1.3,0.6-2.4v-0.1
				c0-1.1-0.2-2-0.6-2.5C132.2,157.9,131.6,157.7,130.7,157.7z"/>
			<path d="M142.5,160.9c0,1.2-0.3,2.2-0.9,2.8c-0.6,0.7-1.4,1-2.4,1c-0.7,0-1.2-0.2-1.7-0.5s-0.9-0.8-1.1-1.4s-0.4-1.3-0.4-2
				c0-1.2,0.3-2.2,0.9-2.8c0.6-0.7,1.4-1,2.4-1c1,0,1.8,0.3,2.4,1C142.2,158.8,142.5,159.7,142.5,160.9z M136.6,160.9
				c0,1,0.2,1.8,0.7,2.4c0.4,0.6,1.1,0.9,1.9,0.9s1.5-0.3,1.9-0.9c0.4-0.6,0.7-1.4,0.7-2.4c0-1-0.2-1.8-0.7-2.4
				c-0.5-0.6-1.1-0.8-1.9-0.8s-1.5,0.3-1.9,0.8C136.8,159.1,136.6,159.9,136.6,160.9z"/>
			<path d="M150.7,160.9c0,1.2-0.3,2.2-0.9,2.8c-0.6,0.7-1.4,1-2.4,1c-0.7,0-1.2-0.2-1.7-0.5s-0.9-0.8-1.1-1.4s-0.4-1.3-0.4-2
				c0-1.2,0.3-2.2,0.9-2.8c0.6-0.7,1.4-1,2.4-1c1,0,1.8,0.3,2.4,1C150.4,158.8,150.7,159.7,150.7,160.9z M144.8,160.9
				c0,1,0.2,1.8,0.7,2.4c0.4,0.6,1.1,0.9,1.9,0.9s1.5-0.3,1.9-0.9c0.4-0.6,0.7-1.4,0.7-2.4c0-1-0.2-1.8-0.7-2.4
				c-0.5-0.6-1.1-0.8-1.9-0.8s-1.5,0.3-1.9,0.8C145,159.1,144.8,159.9,144.8,160.9z"/>
			<path d="M155.9,164.8c-1.1,0-2-0.4-2.5-1.3h0l0,0.6c0,0.3,0,0.7,0,1.1v2.8h-0.7v-10.8h0.6l0.1,1.1h0c0.5-0.8,1.3-1.2,2.4-1.2
				c1,0,1.8,0.3,2.3,1c0.5,0.7,0.8,1.6,0.8,2.9c0,1.2-0.3,2.2-0.8,2.8C157.6,164.4,156.9,164.8,155.9,164.8z M155.9,164.2
				c0.8,0,1.4-0.3,1.8-0.8c0.4-0.6,0.6-1.4,0.6-2.4c0-2.2-0.8-3.3-2.4-3.3c-0.9,0-1.5,0.2-1.9,0.7c-0.4,0.5-0.6,1.3-0.6,2.3v0.2
				c0,1.2,0.2,2,0.6,2.5C154.4,163.9,155,164.2,155.9,164.2z"/>
		</g>
		<g clip-path="url(#SVGID_2_)">
			<path d="M116.2,134.2c0,0.8-0.3,1.5-0.9,2c-0.6,0.5-1.4,0.7-2.4,0.7c-1.2,0-2.2-0.1-2.8-0.4v-0.7c0.7,0.3,1.6,0.5,2.8,0.5
				c0.8,0,1.5-0.2,2-0.6c0.5-0.4,0.7-0.9,0.7-1.5c0-0.4-0.1-0.7-0.2-0.9c-0.2-0.2-0.4-0.5-0.8-0.7s-0.9-0.4-1.6-0.7
				c-1-0.4-1.7-0.7-2.1-1.1c-0.4-0.4-0.6-1-0.6-1.6c0-0.7,0.3-1.4,0.9-1.8c0.6-0.5,1.3-0.7,2.3-0.7c0.9,0,1.8,0.2,2.6,0.5l-0.3,0.6
				c-0.8-0.3-1.6-0.5-2.4-0.5c-0.7,0-1.3,0.2-1.8,0.5s-0.7,0.8-0.7,1.4c0,0.4,0.1,0.7,0.2,0.9c0.1,0.2,0.4,0.5,0.7,0.6
				c0.3,0.2,0.8,0.4,1.6,0.7c0.8,0.3,1.4,0.5,1.8,0.8c0.4,0.3,0.7,0.5,0.9,0.9C116.1,133.3,116.2,133.7,116.2,134.2z"/>
			<path d="M120.8,136.9c-1,0-1.7-0.3-2.3-1s-0.8-1.6-0.8-2.8c0-1.3,0.3-2.2,0.8-2.9c0.5-0.7,1.3-1,2.3-1c1.1,0,1.9,0.4,2.4,1.2h0
				l0.1-1h0.6v10.8h-0.7v-2.8c0-0.6,0-1.1,0-1.7h0C122.8,136.4,121.9,136.9,120.8,136.9z M120.8,136.3c0.9,0,1.5-0.2,1.9-0.7
				c0.4-0.5,0.6-1.3,0.6-2.5v-0.1c0-1.1-0.2-1.9-0.6-2.4s-1-0.7-1.9-0.7c-0.8,0-1.4,0.3-1.8,0.8c-0.4,0.6-0.6,1.4-0.6,2.5
				c0,1,0.2,1.8,0.6,2.4C119.4,136,120,136.3,120.8,136.3z"/>
			<path d="M132.6,133c0,1.2-0.3,2.2-0.9,2.8c-0.6,0.7-1.4,1-2.4,1c-0.7,0-1.2-0.2-1.7-0.5s-0.9-0.8-1.1-1.4s-0.4-1.3-0.4-2
				c0-1.2,0.3-2.2,0.9-2.8c0.6-0.7,1.4-1,2.4-1c1,0,1.8,0.3,2.4,1C132.3,130.9,132.6,131.8,132.6,133z M126.7,133
				c0,1,0.2,1.8,0.7,2.4c0.4,0.6,1.1,0.9,1.9,0.9s1.5-0.3,1.9-0.9c0.4-0.6,0.7-1.4,0.7-2.4c0-1-0.2-1.8-0.7-2.4
				c-0.5-0.6-1.1-0.8-1.9-0.8s-1.5,0.3-1.9,0.8C127,131.2,126.7,132,126.7,133z"/>
			<path d="M140.8,133c0,1.2-0.3,2.2-0.9,2.8c-0.6,0.7-1.4,1-2.4,1c-0.7,0-1.2-0.2-1.7-0.5s-0.9-0.8-1.1-1.4s-0.4-1.3-0.4-2
				c0-1.2,0.3-2.2,0.9-2.8c0.6-0.7,1.4-1,2.4-1c1,0,1.8,0.3,2.4,1C140.5,130.9,140.8,131.8,140.8,133z M135,133c0,1,0.2,1.8,0.7,2.4
				c0.4,0.6,1.1,0.9,1.9,0.9s1.5-0.3,1.9-0.9c0.4-0.6,0.7-1.4,0.7-2.4c0-1-0.2-1.8-0.7-2.4c-0.5-0.6-1.1-0.8-1.9-0.8
				s-1.5,0.3-1.9,0.8C135.2,131.2,135,132,135,133z"/>
			<path d="M146.1,136.9c-1.1,0-2-0.4-2.5-1.3h0l0,0.6c0,0.3,0,0.7,0,1.1v2.8h-0.7v-10.8h0.6l0.1,1.1h0c0.5-0.8,1.3-1.2,2.4-1.2
				c1,0,1.8,0.3,2.3,1c0.5,0.7,0.8,1.6,0.8,2.9c0,1.2-0.3,2.2-0.8,2.8C147.8,136.5,147,136.9,146.1,136.9z M146,136.3
				c0.8,0,1.4-0.3,1.8-0.8c0.4-0.6,0.6-1.4,0.6-2.4c0-2.2-0.8-3.3-2.4-3.3c-0.9,0-1.5,0.2-1.9,0.7c-0.4,0.5-0.6,1.3-0.6,2.3v0.2
				c0,1.2,0.2,2,0.6,2.5C144.5,136,145.2,136.3,146,136.3z"/>
			<path d="M155,136.7v-10h0.7v10H155z"/>
			<path d="M163.6,136.7v-4.8c0-0.7-0.2-1.3-0.5-1.6c-0.3-0.3-0.8-0.5-1.5-0.5c-0.9,0-1.5,0.2-2,0.7c-0.4,0.4-0.6,1.2-0.6,2.2v4.1
				h-0.7v-7.4h0.6l0.1,1h0c0.5-0.8,1.3-1.2,2.6-1.2c1.7,0,2.5,0.9,2.5,2.7v4.9H163.6z"/>
		</g>
		<g clip-path="url(#SVGID_2_)">
			<rect x="83.1" y="150.4" fill-rule="evenodd" clip-rule="evenodd" fill="#EFF9FE" width="15.6" height="15.6"/>
			<path fill="#3D6480" d="M99.3,166.7H82.4v-16.9h16.9V166.7z M83.7,165.4H98v-14.3H83.7V165.4z"/>
		</g>
		<g clip-path="url(#SVGID_2_)">
			<path fill="#3D6480" d="M92.4,162.2v-3.5h-3.4v3.5h-1v-7.7h1v3.3h3.4v-3.3h1v7.7H92.4z"/>
		</g>
		<g clip-path="url(#SVGID_2_)">
			<path fill="#FFECCE" d="M92.9,133.9c0.6-0.2,1-0.3,1.3-0.5v-3.3c-1.5,0.7-4.4,0.8-5.1,0.8c-1.5,0-3-0.1-4-0.4
				c-0.5-0.1-0.9-0.2-1.2-0.4v3.3c0.7,0.5,2.6,0.9,5.2,0.9C90.6,134.3,91.9,134.2,92.9,133.9z"/>
			<path fill="#FFECCE" d="M89.1,134.9c-1.5,0-3-0.1-4-0.4c-0.5-0.1-0.9-0.2-1.2-0.4v3.2c0,0.4,1.8,1.1,5.2,1.1h0
				c0.9,0,1.7-0.1,2.4-0.1l2.7-2.7v-1.4C92.8,134.8,89.9,134.9,89.1,134.9z"/>
			<path fill="#FFECCE" d="M89.1,130.3c1.5,0,2.8-0.1,3.8-0.4c0.6-0.2,1-0.3,1.3-0.5v-3.1c-1.5,0.7-4.4,0.8-5.1,0.8
				c-1.5,0-3-0.1-4-0.4c-0.5-0.1-0.9-0.2-1.2-0.4l0,3.1C84.6,129.9,86.5,130.3,89.1,130.3z"/>
			<path fill="#FFECCE" d="M94.2,125.7v-0.5c-0.1-0.3-2-1-5.2-1c-3.2,0-5,0.6-5.1,1v0.5c0.7,0.5,2.6,0.9,5.2,0.9
				C91.7,126.5,93.6,126.1,94.2,125.7z"/>
			<path fill="#3D6480" d="M89.1,138.4L89.1,138.4c-3.4,0-5.2-0.7-5.2-1.1v-3.2c0.3,0.2,0.7,0.3,1.2,0.4c1.1,0.3,2.5,0.4,4,0.4
				c0.7,0,3.7,0,5.1-0.8v1.4l1.1-1.1v-9.2c0-1.9-4.9-2.1-6.3-2.1c-1.9,0-6.2,0.2-6.2,2.1v12.1c0,2.1,5.3,2.2,6.3,2.2h0
				c0.4,0,0.8,0,1.2,0l1.2-1.2C90.8,138.3,90,138.4,89.1,138.4z M83.9,125.2c0.1-0.3,1.9-1,5.1-1c3.3,0,5.1,0.6,5.2,1v0.5
				c-0.6,0.5-2.5,0.9-5.1,0.9c-2.6,0-4.6-0.4-5.2-0.9V125.2z M85.1,126.7c1.1,0.3,2.5,0.4,4,0.4c0.7,0,3.7,0,5.1-0.8v3.1
				c-0.2,0.2-0.6,0.3-1.3,0.5c-1,0.2-2.4,0.4-3.8,0.4c-2.6,0-4.6-0.4-5.2-0.9l0-3.1C84.2,126.5,84.6,126.6,85.1,126.7z M83.9,130.1
				c0.3,0.2,0.7,0.3,1.2,0.4c1.1,0.3,2.5,0.4,4,0.4c0.7,0,3.7,0,5.1-0.8v3.3c-0.2,0.2-0.6,0.3-1.3,0.5c-1,0.2-2.4,0.4-3.8,0.4
				c-2.6,0-4.6-0.4-5.2-0.9V130.1z"/>
			<polygon fill="#3D6480" points="99.6,139 99.6,141 96.2,137.6 95.3,138.4 98.7,141.8 96.7,141.8 96.7,143.1 100.8,143.1 
				100.8,139 			"/>
		</g>
		<g clip-path="url(#SVGID_2_)">
		</g>
	</g>
	<path fill="#3D6480" d="M108.1,183c-34.8,0-63.2-28.3-63.2-63.2s28.3-63.2,63.2-63.2s63.2,28.3,63.2,63.2S142.9,183,108.1,183z
		 M108.1,59.7c-33.2,0-60.2,27-60.2,60.2s27,60.2,60.2,60.2s60.2-27,60.2-60.2S141.2,59.7,108.1,59.7z"/>
</g>
</svg>
