<?xml version="1.0" encoding="utf-8"?>
<!-- Generator: Adobe Illustrator 19.1.0, SVG Export Plug-In . SVG Version: 6.00 Build 0)  -->
<svg version="1.1" id="Layer_1" xmlns="http://www.w3.org/2000/svg" xmlns:xlink="http://www.w3.org/1999/xlink" x="0px" y="0px"
	 viewBox="-293 385 24 24" style="enable-background:new -293 385 24 24;" xml:space="preserve">
<style type="text/css">
	.st0{fill:#FFFFFF;}
	.st1{fill:#3D6480;}
	.st2{fill:#F99C1C;}
</style>
<g>
	<g>
		<polygon class="st0" points="-281.6,391.8 -281.6,388.8 -287.7,388.8 -287.7,401.8 -285.4,401.8 -285.4,394.3 -278.6,394.3 
			-278.6,391.8 		"/>
		<polygon class="st1" points="-287.7,401.8 -287.7,388.8 -281.6,388.8 -281.6,391.8 -278.6,391.8 -278.6,394.3 -277.1,394.3 
			-277.1,391.8 -278.6,390.3 -278.6,390.3 -280.1,390.3 -280.1,388.8 -280.1,388.8 -281.6,387.3 -289.2,387.3 -289.2,403.3 
			-285.4,403.3 -285.4,401.8 		"/>
		<polygon class="st0" points="-277.1,394.3 -278.6,394.3 -285.4,394.3 -285.4,401.8 -285.4,403.3 -285.4,403.5 -276.9,403.5 
			-276.9,394.3 		"/>
	</g>
	<g>
		<polygon class="st2" points="-276.5,400.4 -276.5,399.1 -275.1,399.1 -278.1,396.1 -277.1,395.2 -274.1,398.2 -274.1,396.7 
			-272.8,396.7 -272.8,400.4 		"/>
		<polygon class="st2" points="-278.1,403 -276.8,403 -276.8,404.4 -273.7,401.4 -272.8,402.3 -275.8,405.3 -274.4,405.3 
			-274.4,406.7 -278.1,406.7 		"/>
		<polygon class="st2" points="-280.4,401.4 -280.4,402.7 -281.8,402.7 -278.8,405.7 -279.7,406.7 -282.8,403.7 -282.8,405.1 
			-284.1,405.1 -284.1,401.4 		"/>
		<polygon class="st2" points="-278.8,398.9 -280.1,398.9 -280.1,397.4 -283.1,400.4 -284.1,399.5 -281.1,396.5 -282.5,396.5 
			-282.5,395.2 -278.8,395.2 		"/>
	</g>
</g>
</svg>
