<?xml version="1.0" encoding="utf-8"?>
<!-- Generator: Adobe Illustrator 20.1.0, SVG Export Plug-In . SVG Version: 6.00 Build 0)  -->
<svg version="1.1" id="Layer_1" xmlns="http://www.w3.org/2000/svg" xmlns:xlink="http://www.w3.org/1999/xlink" x="0px" y="0px"
	 width="16px" height="16px" viewBox="0 0 16 16" style="enable-background:new 0 0 16 16;" xml:space="preserve">
<style type="text/css">
	.st0{fill:#CC0000;}
	.st1{fill:#FFFFFF;}
</style>
<path id="img_x5F_background" class="st0" d="M16,14c0,1.1-0.9,2-2,2H2c-1.1,0-2-0.9-2-2V2c0-1.1,0.9-2,2-2h12c1.1,0,2,0.9,2,2V14z"
	/>
<path class="st1" d="M13,8.1c-0.4,0-0.7,0.2-0.8,0.5L8.8,8c0,0,0-0.1,0-0.1c0-0.2,0-0.4-0.1-0.6L12,5c0.2,0.2,0.4,0.2,0.7,0.2
	c0.6,0,1.1-0.5,1.1-1.1S13.4,3,12.7,3s-1.1,0.5-1.1,1.1c0,0.1,0,0.3,0.1,0.4L8.4,6.8C8.2,6.6,8,6.5,7.8,6.4l0.2-1.1
	c0.4-0.1,0.8-0.5,0.8-1c0-0.5-0.4-1-1-1s-1,0.5-1,1c0,0.4,0.2,0.8,0.6,0.9l-0.2,1C6.7,6.2,6.3,6.4,6,6.6L4.4,5.2
	C4.5,5,4.6,4.8,4.6,4.6c0-0.7-0.6-1.3-1.3-1.3S2.1,3.9,2.1,4.6s0.6,1.3,1.3,1.3c0.3,0,0.5-0.1,0.7-0.2l1.7,1.5
	C5.5,7.4,5.5,7.6,5.5,7.9c0,0.3,0.1,0.5,0.2,0.8l-1,0.7C4.5,9.3,4.3,9.2,4.1,9.2c-0.5,0-0.9,0.4-0.9,0.9s0.4,0.9,0.9,0.9
	S5,10.7,5,10.1c0-0.1,0-0.2,0-0.2L6,9.2c0.3,0.3,0.7,0.4,1.1,0.4c0.2,0,0.3,0,0.5-0.1L8.8,11c-0.2,0.2-0.3,0.5-0.3,0.8
	c0,0.7,0.6,1.3,1.3,1.3s1.3-0.6,1.3-1.3s-0.6-1.3-1.3-1.3c-0.2,0-0.3,0-0.5,0.1L8.2,9.2c0.2-0.2,0.4-0.4,0.5-0.6l3.4,0.6
	C12.1,9.7,12.5,10,13,10c0.5,0,0.9-0.4,0.9-0.9S13.5,8.1,13,8.1z"/>
</svg>
