<?xml version="1.0" encoding="utf-8"?>
<!-- Generator: Adobe Illustrator 16.0.0, SVG Export Plug-In . SVG Version: 6.00 Build 0)  -->
<!DOCTYPE svg PUBLIC "-//W3C//DTD SVG 1.1//EN" "http://www.w3.org/Graphics/SVG/1.1/DTD/svg11.dtd">
<svg version="1.1" id="Layer_1" xmlns="http://www.w3.org/2000/svg" xmlns:xlink="http://www.w3.org/1999/xlink" x="0px" y="0px"
	 width="16px" height="16px" viewBox="0 0 16 16" enable-background="new 0 0 16 16" xml:space="preserve">
<path id="img_x5F_background" fill="#CC0000" d="M16,14c0,1.1-0.9,2-2,2H2c-1.1,0-2-0.9-2-2V2c0-1.1,0.9-2,2-2h12c1.1,0,2,0.9,2,2
	V14z"/>
<g id="globe_副本_6">
	<g>
		<path fill-rule="evenodd" clip-rule="evenodd" fill="#FFFFFF" d="M8,2.367C4.889,2.367,2.367,4.889,2.367,8
			c0,2.869,2.147,5.232,4.922,5.583v-0.06l0.329,0.109v-2.352c-0.363-0.069-0.694-0.213-0.985-0.404v1.556
			C4.734,11.85,3.351,10.09,3.351,8c0-2.567,2.082-4.648,4.649-4.648S12.648,5.433,12.648,8c0,1.967-1.226,3.641-2.953,4.319v-1.442
			c-0.289,0.191-0.622,0.335-0.984,0.404v2.352l0.311-0.104c2.622-0.481,4.611-2.769,4.611-5.529C13.633,4.889,11.111,2.367,8,2.367
			z M6.497,9.046h1.445V7.747H6.388C6.394,8.237,6.436,8.665,6.497,9.046z M6.833,10.896c-0.186-0.33-0.408-0.849-0.553-1.591H4.99
			C5.393,10.032,6.044,10.603,6.833,10.896z M6.386,7.487h1.556V6.188H6.494C6.434,6.569,6.393,6.999,6.386,7.487z M6.825,4.341
			C6.039,4.636,5.388,5.204,4.986,5.929h1.292C6.421,5.195,6.64,4.675,6.825,4.341z M4.866,9.046h1.371
			C6.176,8.665,6.134,8.237,6.127,7.747H4.554C4.571,8.209,4.686,8.646,4.866,9.046z M6.537,5.929h1.405V4.118
			C7.667,4.127,7.401,4.171,7.145,4.24C6.95,4.565,6.697,5.114,6.537,5.929z M4.556,7.487h1.57C6.133,7,6.173,6.569,6.234,6.188
			H4.856C4.677,6.587,4.573,7.025,4.556,7.487z M7.153,10.997c0.253,0.067,0.517,0.11,0.789,0.119V9.305h-1.4
			C6.703,10.126,6.958,10.677,7.153,10.997z M8.202,7.487h1.556C9.751,6.999,9.71,6.569,9.649,6.188H8.202V7.487z M8.202,9.046
			h1.445c0.061-0.381,0.104-0.809,0.11-1.299H8.202V9.046z M8.202,11.111c0.272-0.012,0.539-0.05,0.793-0.12
			c0.194-0.321,0.447-0.87,0.606-1.687H8.202V11.111z M8.202,4.117v1.813h1.405C9.449,5.118,9.198,4.572,9.003,4.245
			C8.746,4.173,8.478,4.129,8.202,4.117z M11.251,6.188h-1.34C9.972,6.569,10.012,7,10.018,7.487h1.538
			C11.537,7.025,11.43,6.588,11.251,6.188z M9.318,10.884c0.771-0.297,1.405-0.862,1.8-1.579H9.865
			C9.722,10.039,9.503,10.554,9.318,10.884z M11.553,7.747h-1.536c-0.007,0.49-0.05,0.918-0.109,1.299h1.335
			C11.421,8.646,11.535,8.209,11.553,7.747z M9.325,4.352c0.183,0.335,0.398,0.851,0.54,1.577h1.255
			C10.724,5.216,10.093,4.651,9.325,4.352z"/>
	</g>
</g>
</svg>
