<?xml version="1.0" encoding="utf-8"?>
<!-- Generator: Adobe Illustrator 18.0.0, SVG Export Plug-In . SVG Version: 6.00 Build 0)  -->
<!DOCTYPE svg PUBLIC "-//W3C//DTD SVG 1.1//EN" "http://www.w3.org/Graphics/SVG/1.1/DTD/svg11.dtd">
<svg version="1.1" id="Layer_1" xmlns="http://www.w3.org/2000/svg" xmlns:xlink="http://www.w3.org/1999/xlink" x="0px" y="0px"
	 viewBox="0 0 24 24" enable-background="new 0 0 24 24" xml:space="preserve">
<g>
	<g>
		<polygon fill="#FFFFFF" points="14.6,6.5 11.6,6.5 11.6,3.6 5.5,3.6 5.5,16.6 14.6,16.6 		"/>
		<path fill="#3E6480" d="M16.1,6.5L14.6,5v0h-1.4V3.6h0l-1.5-1.5H4v16h12.1L16.1,6.5z M5.5,3.6h6.1v3h3l0,10h-9V3.6z"/>
	</g>
	<g>
		<path fill="#FFFFFF" d="M17.6,13.4c0-1.1-0.9-2.1-2-2.1c-1.1,0-2,0.9-2,2.1v1.2h4V13.4z"/>
		<path fill="#FFFFFF" d="M12.7,20.5h5.8v-4.3h-5.8V20.5z M14.9,17.3h1.5v1.9h-1.5V17.3z"/>
		<rect x="14.9" y="17.3" fill="#3E6481" width="1.5" height="1.9"/>
		<path fill="#3E6481" d="M19.1,14.7v-1.2c0-1.9-1.5-3.5-3.4-3.5c-1.9,0-3.4,1.6-3.4,3.5v1.2h-0.9v7.2H20v-7.2H19.1z M13.6,13.4
			c0-1.1,0.9-2.1,2-2.1c1.1,0,2,0.9,2,2.1v1.2h-4V13.4z M18.5,20.5h-5.8v-4.3h5.8V20.5z"/>
	</g>
</g>
</svg>
