<svg width="14" height="15" viewBox="0 0 14 15" fill="none" xmlns="http://www.w3.org/2000/svg">
<path d="M6.21012 11.4112C6.22101 11.2042 6.21012 11.0027 6.17198 10.7902L6.8856 10.2673L6.78755 10.0167C6.74397 9.90773 6.69494 9.79878 6.64047 9.69528L6.51518 9.4447L5.67082 9.64081C5.61634 9.56999 5.55097 9.49917 5.48016 9.42291C5.40389 9.34119 5.32763 9.26493 5.24591 9.19411L5.45292 8.34431L5.21868 8.21357C5.10973 8.15365 5.00078 8.09917 4.89183 8.05014L4.6358 7.94119L4.11829 8.62758C3.91673 8.584 3.71518 8.55676 3.50817 8.55676L3.1214 7.77777L2.85992 7.8268C2.74008 7.84859 2.62023 7.87038 2.50584 7.90851L2.23891 7.98477L2.27704 8.85092C2.10272 8.93808 1.93385 9.05248 1.77043 9.19411L0.964203 8.84003L0.79533 9.04703C0.719066 9.14509 0.648249 9.24314 0.582879 9.34119L0.43035 9.56999L1.01868 10.2019C0.936964 10.3926 0.877042 10.5887 0.844358 10.7848L0 11.0354V11.3023C0 11.4221 0.0108945 11.542 0.0272369 11.6618L0.0599225 11.9396L0.926069 12.0486C0.985992 12.2501 1.0677 12.4408 1.17121 12.6151L0.675486 13.3505L1.20934 13.9225L1.96109 13.5739L2.0428 13.5249C2.21167 13.6338 2.39689 13.7264 2.59844 13.8027L2.6965 14.6797L2.96342 14.7233C3.07782 14.7451 3.19766 14.7505 3.31751 14.7614L3.59533 14.7778L3.84591 13.9498C4.06926 13.9225 4.27626 13.8735 4.44513 13.8027L5.08794 14.4128L5.32218 14.2712C5.42568 14.2112 5.52374 14.1404 5.62179 14.0642L5.84514 13.8953L5.50739 13.1108C5.64358 12.9638 5.76342 12.8003 5.87237 12.6151L6.74397 12.6696L6.83113 12.419C6.86926 12.3046 6.90739 12.1902 6.93463 12.0704L7 11.798L6.22646 11.4112H6.21012ZM1.5035 11.2914C1.5035 10.2073 2.38054 9.3303 3.46459 9.3303C4.54864 9.3303 5.42568 10.2073 5.42568 11.2914C5.42568 12.3754 4.54864 13.2525 3.46459 13.2525C2.38054 13.2525 1.5035 12.3754 1.5035 11.2914Z" fill="#9C9EA5"/>
<path d="M12.9467 4.84462C12.9612 4.56861 12.9467 4.29987 12.8958 4.0166L13.8473 3.31933L13.7166 2.98521C13.6585 2.83995 13.5931 2.69468 13.5205 2.55668L13.3534 2.22257L12.2276 2.48405C12.155 2.38962 12.0678 2.2952 11.9734 2.19351C11.8717 2.08456 11.77 1.98288 11.6611 1.88846L11.9371 0.755382L11.6247 0.581063C11.4795 0.501167 11.3342 0.428534 11.1889 0.363165L10.8476 0.217898L10.1576 1.13307C9.88881 1.07497 9.62007 1.03865 9.34407 1.03865L8.82837 0L8.47973 0.0653684C8.31994 0.0944216 8.16015 0.123476 8.00762 0.174319L7.65172 0.276005L7.70256 1.43087C7.47014 1.54708 7.24497 1.69961 7.02707 1.88846L5.95211 1.41634L5.72694 1.69235C5.62526 1.82309 5.53084 1.95383 5.44368 2.08456L5.2403 2.38962L6.02474 3.23217C5.91579 3.48638 5.83589 3.74786 5.79231 4.00934L4.6665 4.34345V4.69935C4.6665 4.85914 4.68103 5.01893 4.70282 5.17873L4.7464 5.54916L5.90126 5.69442C5.98116 5.96317 6.09011 6.21738 6.22811 6.4498L5.56715 7.43035L6.27895 8.193L7.28129 7.72815L7.39024 7.66278C7.6154 7.80804 7.86235 7.93152 8.1311 8.0332L8.26183 9.20259L8.61774 9.2607C8.77027 9.28975 8.93006 9.29702 9.08985 9.31154L9.46028 9.33333L9.79439 8.22931C10.0922 8.193 10.3682 8.12763 10.5934 8.0332L11.4504 8.84669L11.7627 8.65785C11.9007 8.57795 12.0315 8.48353 12.1622 8.38184L12.46 8.15668L12.0097 7.11077C12.1913 6.91466 12.3511 6.69676 12.4963 6.4498L13.6585 6.52244L13.7747 6.18833C13.8255 6.0358 13.8764 5.88327 13.9127 5.72347L13.9998 5.36031L12.9684 4.84462H12.9467ZM6.67117 4.68483C6.67117 3.23943 7.84056 2.07004 9.28596 2.07004C10.7314 2.07004 11.9007 3.23943 11.9007 4.68483C11.9007 6.13022 10.7314 7.29961 9.28596 7.29961C7.84056 7.29961 6.67117 6.13022 6.67117 4.68483Z" fill="#9C9EA5"/>
</svg>
