<?xml version="1.0" encoding="utf-8"?>
<!-- Generator: Adobe Illustrator 18.0.0, SVG Export Plug-In . SVG Version: 6.00 Build 0)  -->
<!DOCTYPE svg PUBLIC "-//W3C//DTD SVG 1.1//EN" "http://www.w3.org/Graphics/SVG/1.1/DTD/svg11.dtd">
<svg version="1.1" id="Layer_1" xmlns="http://www.w3.org/2000/svg" xmlns:xlink="http://www.w3.org/1999/xlink" x="0px" y="0px"
	 viewBox="0 0 42 42" enable-background="new 0 0 42 42" xml:space="preserve">
<g>
	<polygon fill="#FFFFFF" points="21,30.8 8.1,30.8 14.6,19.7 21,8.5 27.4,19.7 33.9,30.8 	"/>
	<path fill="#EA0000" d="M21,8.5l6.4,11.2l6.4,11.2H21H8.1l6.4-11.2L21,8.5 M21,6.8c-0.6,0-1.2,0.3-1.5,0.9l-6.4,11.2L6.6,30
		c-0.3,0.5-0.3,1.2,0,1.7c0.3,0.5,0.9,0.9,1.5,0.9H21h12.9c0.6,0,1.2-0.3,1.5-0.9c0.3-0.5,0.3-1.2,0-1.7l-6.4-11.2L22.5,7.6
		C22.2,7.1,21.6,6.8,21,6.8L21,6.8z"/>
</g>
<g>
	<path fill="#EA0000" d="M19.5,27c0-0.5,0.1-0.9,0.4-1.1s0.6-0.4,1.2-0.4c0.5,0,0.9,0.1,1.1,0.4s0.4,0.6,0.4,1.1
		c0,0.5-0.1,0.8-0.4,1.1s-0.6,0.4-1.1,0.4c-0.5,0-0.9-0.1-1.1-0.4S19.5,27.5,19.5,27z M22.1,24h-2.1l-0.4-8.6h3L22.1,24z"/>
</g>
</svg>
