<?xml version="1.0" encoding="utf-8"?>
<!-- Generator: Adobe Illustrator 18.0.0, SVG Export Plug-In . SVG Version: 6.00 Build 0)  -->
<!DOCTYPE svg PUBLIC "-//W3C//DTD SVG 1.1//EN" "http://www.w3.org/Graphics/SVG/1.1/DTD/svg11.dtd">
<svg version="1.1" xmlns="http://www.w3.org/2000/svg" xmlns:xlink="http://www.w3.org/1999/xlink" x="0px" y="0px"
	 viewBox="0 0 16 16" enable-background="new 0 0 16 16" xml:space="preserve">
<g id="Layer_2">
	<g id="Layer_2_1_">
		<rect fill="none" width="16" height="16"/>
	</g>
</g>
<g id="Layer_1">
	<g>
		<path fill="#FFFFFF" d="M3,0.8V15c0,0,10.2-0.2,10,0c-0.2,0.2,0-10.5,0-10.5l-0.7-1h-1.9v-2L9,0.7L3,0.8z"/>
		<path fill="none" d="M10.1,4.5v-3H3v13h10l0-10H10.1z M11,8.4H8.4V11H7.6V8.4H5V7.7h2.6V5h0.8v2.6H11V8.4z"/>
		<polygon fill="#3D6480" stroke="#3D6480" stroke-width="0.5" stroke-miterlimit="10" points="8.3,7.7 8.3,5.5 7.7,5.5 7.7,7.7 
			5.5,7.7 5.5,8.3 7.7,8.3 7.7,10.5 8.3,10.5 8.3,8.3 10.5,8.3 10.5,7.7 		"/>
		<path fill="#3D6480" d="M14,4.5l-1.5-1.5v0h-1.4V1.5h0L9.6,0H2v16H14L14,4.5z M3.5,14.5v-13h6.1v3h3l0,10H3.5z"/>
	</g>
</g>
</svg>
