<?xml version="1.0" encoding="utf-8"?>
<!-- Generator: Adobe Illustrator 18.0.0, SVG Export Plug-In . SVG Version: 6.00 Build 0)  -->
<!DOCTYPE svg PUBLIC "-//W3C//DTD SVG 1.1//EN" "http://www.w3.org/Graphics/SVG/1.1/DTD/svg11.dtd">
<svg version="1.1" id="Layer_1" xmlns="http://www.w3.org/2000/svg" xmlns:xlink="http://www.w3.org/1999/xlink" x="0px" y="0px"
	 viewBox="0 0 16 16" enable-background="new 0 0 16 16" xml:space="preserve">
<g>
	<polygon fill="#3E6480" points="11.4,0 11.4,1.3 13.8,1.3 11.5,3.6 12.4,4.5 14.7,2.2 14.7,4.6 16,4.6 16,0 	"/>
	<path fill="#3E6480" stroke="#3E6480" stroke-width="0.4" stroke-miterlimit="3.8637" d="M0,15.4"/>
	<path fill="#FFFFFF" d="M13,14.8v-9H7.5L5.6,4.1h-5v10.7H13z"/>
	<polyline fill="#3E6480" points="6.7,6.9 11.8,6.9 11.8,15.2 13.3,15.2 13.3,6.9 13.3,5.4 13.3,5.4 7.3,5.4 5.4,3.5 5.4,3.5 
		5.4,3.5 1.5,3.5 1,3.5 0,3.5 0,15.2 1.5,15.2 1.5,5 4.8,5 	"/>
	<g>
		<polygon fill="#FFFFFF" points="1,14.6 4,9.3 15.1,9.3 12.9,14.6 		"/>
		<path fill="#3E6480" d="M14.2,9.9L12.5,14H2.1l2.3-4.1H14.2 M16,8.7H3.6L0,15.2h13.3L16,8.7L16,8.7z"/>
	</g>
</g>
</svg>
