<svg width="82" height="24" viewBox="0 0 82 24" fill="none" xmlns="http://www.w3.org/2000/svg">
<rect width="82" height="24" fill="#FBE8B4"/>
<g clip-path="url(#clip0_31_4717)">
<path d="M18 7.00005V10C18 10.1327 17.9473 10.2598 17.8536 10.3536C17.7598 10.4474 17.6326 10.5 17.5 10.5H14.5C14.3674 10.5 14.2402 10.4474 14.1464 10.3536C14.0527 10.2598 14 10.1327 14 10C14 9.86744 14.0527 9.74026 14.1464 9.64649C14.2402 9.55272 14.3674 9.50005 14.5 9.50005H16.2931L15.3787 8.58567C14.4495 7.65217 13.1878 7.12552 11.8706 7.1213H11.8425C10.5364 7.11823 9.28151 7.62947 8.34937 8.54442C8.25389 8.63356 8.12731 8.68179 7.99672 8.67879C7.86612 8.6758 7.74189 8.62181 7.65059 8.52839C7.55929 8.43497 7.50817 8.30953 7.50818 8.1789C7.50819 8.04827 7.55932 7.92283 7.65062 7.82942C8.78033 6.72529 10.2999 6.11122 11.8795 6.12046C13.4592 6.12971 14.9714 6.76152 16.0881 7.8788L17 8.79317V7.00005C17 6.86744 17.0527 6.74026 17.1464 6.64649C17.2402 6.55272 17.3674 6.50005 17.5 6.50005C17.6326 6.50005 17.7598 6.55272 17.8536 6.64649C17.9473 6.74026 18 6.86744 18 7.00005ZM15.6506 15.4557C14.7093 16.3752 13.4434 16.8865 12.1275 16.8788C10.8116 16.8711 9.55175 16.3449 8.62125 15.4144L7.70688 14.5H9.5C9.63261 14.5 9.75979 14.4474 9.85355 14.3536C9.94732 14.2598 10 14.1327 10 14C10 13.8674 9.94732 13.7403 9.85355 13.6465C9.75979 13.5527 9.63261 13.5 9.5 13.5H6.5C6.36739 13.5 6.24021 13.5527 6.14645 13.6465C6.05268 13.7403 6 13.8674 6 14V17C6 17.1327 6.05268 17.2598 6.14645 17.3536C6.24021 17.4474 6.36739 17.5 6.5 17.5C6.63261 17.5 6.75979 17.4474 6.85355 17.3536C6.94732 17.2598 7 17.1327 7 17V15.2069L7.91438 16.1213C9.02951 17.242 10.544 17.8742 12.125 17.8788H12.1581C13.7257 17.8828 15.2317 17.2691 16.35 16.1707C16.4413 16.0773 16.4924 15.9518 16.4924 15.8212C16.4925 15.6906 16.4413 15.5651 16.35 15.4717C16.2587 15.3783 16.1345 15.3243 16.0039 15.3213C15.8733 15.3183 15.7467 15.3665 15.6512 15.4557H15.6506Z" fill="#AE6025"/>
</g>
<path d="M30.5625 13.7773C30.5625 14.3047 30.4941 14.7754 30.3574 15.1895C30.2207 15.6035 30.0234 15.9531 29.7656 16.2383C29.5078 16.5234 29.1953 16.7422 28.8281 16.8945C28.4648 17.043 28.0527 17.1172 27.5918 17.1172C27.1621 17.1172 26.7676 17.043 26.4082 16.8945C26.0527 16.7422 25.7441 16.5234 25.4824 16.2383C25.2246 15.9531 25.0234 15.6035 24.8789 15.1895C24.7383 14.7754 24.668 14.3047 24.668 13.7773C24.668 13.0742 24.7871 12.4766 25.0254 11.9844C25.2637 11.4883 25.6035 11.1113 26.0449 10.8535C26.4902 10.5918 27.0195 10.4609 27.6328 10.4609C28.2188 10.4609 28.7305 10.5918 29.168 10.8535C29.6094 11.1152 29.9512 11.4941 30.1934 11.9902C30.4395 12.4824 30.5625 13.0781 30.5625 13.7773ZM25.6758 13.7773C25.6758 14.293 25.7441 14.7402 25.8809 15.1191C26.0176 15.498 26.2285 15.791 26.5137 15.998C26.7988 16.2051 27.166 16.3086 27.6152 16.3086C28.0605 16.3086 28.4258 16.2051 28.7109 15.998C29 15.791 29.2129 15.498 29.3496 15.1191C29.4863 14.7402 29.5547 14.293 29.5547 13.7773C29.5547 13.2656 29.4863 12.8242 29.3496 12.4531C29.2129 12.0781 29.002 11.7891 28.7168 11.5859C28.4316 11.3828 28.0625 11.2812 27.6094 11.2812C26.9414 11.2812 26.4512 11.502 26.1387 11.9434C25.8301 12.3848 25.6758 12.9961 25.6758 13.7773ZM33.6562 17L31.2188 10.5781H32.2617L33.6738 14.4629C33.7715 14.7285 33.8711 15.0215 33.9727 15.3418C34.0742 15.6621 34.1445 15.9199 34.1836 16.1152H34.2246C34.2715 15.9199 34.3496 15.6621 34.459 15.3418C34.5684 15.0176 34.668 14.7246 34.7578 14.4629L36.1699 10.5781H37.2129L34.7695 17H33.6562ZM40.7168 10.4609C41.2637 10.4609 41.7324 10.582 42.123 10.8242C42.5137 11.0664 42.8125 11.4062 43.0195 11.8438C43.2266 12.2773 43.3301 12.7852 43.3301 13.3672V13.9707H38.8945C38.9062 14.7246 39.0938 15.2988 39.457 15.6934C39.8203 16.0879 40.332 16.2852 40.9922 16.2852C41.3984 16.2852 41.7578 16.248 42.0703 16.1738C42.3828 16.0996 42.707 15.9902 43.043 15.8457V16.7012C42.7188 16.8457 42.3965 16.9512 42.0762 17.0176C41.7598 17.084 41.3848 17.1172 40.9512 17.1172C40.334 17.1172 39.7949 16.9922 39.334 16.7422C38.877 16.4883 38.5215 16.1172 38.2676 15.6289C38.0137 15.1406 37.8867 14.543 37.8867 13.8359C37.8867 13.1445 38.002 12.5469 38.2324 12.043C38.4668 11.5352 38.7949 11.1445 39.2168 10.8711C39.6426 10.5977 40.1426 10.4609 40.7168 10.4609ZM40.7051 11.2578C40.1855 11.2578 39.7715 11.4277 39.4629 11.7676C39.1543 12.1074 38.9707 12.582 38.9121 13.1914H42.3105C42.3066 12.8086 42.2461 12.4727 42.1289 12.1836C42.0156 11.8906 41.8418 11.6641 41.6074 11.5039C41.373 11.3398 41.0723 11.2578 40.7051 11.2578ZM47.9004 10.4609C48.0293 10.4609 48.1641 10.4688 48.3047 10.4844C48.4453 10.4961 48.5703 10.5137 48.6797 10.5371L48.5566 11.4395C48.4512 11.4121 48.334 11.3906 48.2051 11.375C48.0762 11.3594 47.9551 11.3516 47.8418 11.3516C47.584 11.3516 47.3398 11.4043 47.1094 11.5098C46.8828 11.6113 46.6836 11.7598 46.5117 11.9551C46.3398 12.1465 46.2051 12.3789 46.1074 12.6523C46.0098 12.9219 45.9609 13.2227 45.9609 13.5547V17H44.9824V10.5781H45.791L45.8965 11.7617H45.9375C46.0703 11.5234 46.2305 11.3066 46.418 11.1113C46.6055 10.9121 46.8223 10.7539 47.0684 10.6367C47.3184 10.5195 47.5957 10.4609 47.9004 10.4609ZM55.1191 16.9883L53.9766 13.25C53.9258 13.0898 53.877 12.9336 53.8301 12.7812C53.7871 12.625 53.7461 12.4766 53.707 12.3359C53.6719 12.1914 53.6387 12.0586 53.6074 11.9375C53.5801 11.8125 53.5566 11.7051 53.5371 11.6152H53.4961C53.4805 11.7051 53.459 11.8125 53.4316 11.9375C53.4043 12.0586 53.3711 12.1914 53.332 12.3359C53.2969 12.4805 53.2578 12.6328 53.2148 12.793C53.1719 12.9492 53.123 13.1074 53.0684 13.2676L51.873 16.9883H50.7773L49.0078 10.5664H50.0156L50.9414 14.1113C51.0039 14.3457 51.0625 14.5781 51.1172 14.8086C51.1758 15.0352 51.2246 15.25 51.2637 15.4531C51.3066 15.6523 51.3379 15.8262 51.3574 15.9746H51.4043C51.4277 15.877 51.4531 15.7598 51.4805 15.623C51.5117 15.4863 51.5449 15.3418 51.5801 15.1895C51.6191 15.0332 51.6602 14.8789 51.7031 14.7266C51.7461 14.5703 51.7891 14.4238 51.832 14.2871L53.0156 10.5664H54.0645L55.207 14.2812C55.2656 14.4688 55.3223 14.6641 55.377 14.8672C55.4355 15.0703 55.4883 15.2676 55.5352 15.459C55.582 15.6465 55.6152 15.8145 55.6348 15.9629H55.6816C55.6973 15.8301 55.7266 15.666 55.7695 15.4707C55.8125 15.2754 55.8613 15.0605 55.916 14.8262C55.9746 14.5918 56.0352 14.3535 56.0977 14.1113L57.0352 10.5664H58.0254L56.25 16.9883H55.1191ZM62.1152 10.4609C62.2441 10.4609 62.3789 10.4688 62.5195 10.4844C62.6602 10.4961 62.7852 10.5137 62.8945 10.5371L62.7715 11.4395C62.666 11.4121 62.5488 11.3906 62.4199 11.375C62.291 11.3594 62.1699 11.3516 62.0566 11.3516C61.7988 11.3516 61.5547 11.4043 61.3242 11.5098C61.0977 11.6113 60.8984 11.7598 60.7266 11.9551C60.5547 12.1465 60.4199 12.3789 60.3223 12.6523C60.2246 12.9219 60.1758 13.2227 60.1758 13.5547V17H59.1973V10.5781H60.0059L60.1113 11.7617H60.1523C60.2852 11.5234 60.4453 11.3066 60.6328 11.1113C60.8203 10.9121 61.0371 10.7539 61.2832 10.6367C61.5332 10.5195 61.8105 10.4609 62.1152 10.4609ZM65.0801 10.5781V17H64.1074V10.5781H65.0801ZM64.6055 8.17578C64.7656 8.17578 64.9023 8.22852 65.0156 8.33398C65.1328 8.43555 65.1914 8.5957 65.1914 8.81445C65.1914 9.0293 65.1328 9.18945 65.0156 9.29492C64.9023 9.40039 64.7656 9.45312 64.6055 9.45312C64.4375 9.45312 64.2969 9.40039 64.1836 9.29492C64.0742 9.18945 64.0195 9.0293 64.0195 8.81445C64.0195 8.5957 64.0742 8.43555 64.1836 8.33398C64.2969 8.22852 64.4375 8.17578 64.6055 8.17578ZM69.2168 16.3203C69.377 16.3203 69.541 16.3066 69.709 16.2793C69.877 16.252 70.0137 16.2188 70.1191 16.1797V16.9355C70.0059 16.9863 69.8477 17.0293 69.6445 17.0645C69.4453 17.0996 69.25 17.1172 69.0586 17.1172C68.7188 17.1172 68.4102 17.0586 68.1328 16.9414C67.8555 16.8203 67.6328 16.6172 67.4648 16.332C67.3008 16.0469 67.2188 15.6523 67.2188 15.1484V11.3398H66.3047V10.8652L67.2246 10.4844L67.6113 9.08984H68.1973V10.5781H70.0781V11.3398H68.1973V15.1191C68.1973 15.5215 68.2891 15.8223 68.4727 16.0215C68.6602 16.2207 68.9082 16.3203 69.2168 16.3203ZM73.8926 10.4609C74.4395 10.4609 74.9082 10.582 75.2988 10.8242C75.6895 11.0664 75.9883 11.4062 76.1953 11.8438C76.4023 12.2773 76.5059 12.7852 76.5059 13.3672V13.9707H72.0703C72.082 14.7246 72.2695 15.2988 72.6328 15.6934C72.9961 16.0879 73.5078 16.2852 74.168 16.2852C74.5742 16.2852 74.9336 16.248 75.2461 16.1738C75.5586 16.0996 75.8828 15.9902 76.2188 15.8457V16.7012C75.8945 16.8457 75.5723 16.9512 75.252 17.0176C74.9355 17.084 74.5605 17.1172 74.127 17.1172C73.5098 17.1172 72.9707 16.9922 72.5098 16.7422C72.0527 16.4883 71.6973 16.1172 71.4434 15.6289C71.1895 15.1406 71.0625 14.543 71.0625 13.8359C71.0625 13.1445 71.1777 12.5469 71.4082 12.043C71.6426 11.5352 71.9707 11.1445 72.3926 10.8711C72.8184 10.5977 73.3184 10.4609 73.8926 10.4609ZM73.8809 11.2578C73.3613 11.2578 72.9473 11.4277 72.6387 11.7676C72.3301 12.1074 72.1465 12.582 72.0879 13.1914H75.4863C75.4824 12.8086 75.4219 12.4727 75.3047 12.1836C75.1914 11.8906 75.0176 11.6641 74.7832 11.5039C74.5488 11.3398 74.248 11.2578 73.8809 11.2578Z" fill="#AE6025"/>
<defs>
<clipPath id="clip0_31_4717">
<rect width="16" height="16" fill="white" transform="translate(4 4)"/>
</clipPath>
</defs>
</svg>
