<?xml version="1.0" encoding="utf-8"?>
<!-- Generator: Adobe Illustrator 19.2.0, SVG Export Plug-In . SVG Version: 6.00 Build 0)  -->
<!DOCTYPE svg PUBLIC "-//W3C//DTD SVG 1.1//EN" "http://www.w3.org/Graphics/SVG/1.1/DTD/svg11.dtd">
<svg version="1.1" id="Layer_1" xmlns="http://www.w3.org/2000/svg" xmlns:xlink="http://www.w3.org/1999/xlink" x="0px" y="0px"
	 viewBox="0 0 24 24" style="enable-background:new 0 0 24 24;" xml:space="preserve">
<style type="text/css">
	.st0{fill:none;}
	.st1{fill:#1CB24B;}
</style>
<g>
	<g id="Layer_2">
		<g id="Layer_2_1_">
			<rect x="4" y="4" class="st0" width="16" height="16"/>
		</g>
	</g>
	<g id="art_1_">
		<g>
			<polygon class="st1" points="17.8,14.7 17.8,13 12.9,13 12.9,17.9 14.6,17.9 14.6,16 18.7,20 19.9,18.8 15.9,14.7 			"/>
			<polygon class="st1" points="11.1,17.9 9.4,17.9 9.4,16 5.3,20 4.1,18.8 8.1,14.7 6.2,14.7 6.2,13 11.1,13 			"/>
			<polygon class="st1" points="12.9,11 17.8,11 17.8,9.3 15.9,9.3 19.9,5.2 18.7,4 14.6,8 14.6,6.1 12.9,6.1 			"/>
			<polygon class="st1" points="6.2,11 6.2,9.3 8.1,9.3 4.1,5.2 5.3,4 9.4,8 9.4,6.1 11.1,6.1 11.1,11 			"/>
		</g>
	</g>
</g>
</svg>
