<?xml version="1.0" encoding="utf-8"?>
<!-- Generator: Adobe Illustrator 19.2.0, SVG Export Plug-In . SVG Version: 6.00 Build 0)  -->
<!DOCTYPE svg PUBLIC "-//W3C//DTD SVG 1.1//EN" "http://www.w3.org/Graphics/SVG/1.1/DTD/svg11.dtd">
<svg version="1.1" id="Layer_1" xmlns="http://www.w3.org/2000/svg" xmlns:xlink="http://www.w3.org/1999/xlink" x="0px" y="0px"
	 viewBox="0 0 16 14.4" style="enable-background:new 0 0 16 14.4;" xml:space="preserve">
<style type="text/css">
	.st0{fill:#FFFFFF;}
	.st1{fill:#3D6480;}
</style>
<title>perspective_changer</title>
<g>
	<polygon class="st0" points="14,3.9 8,1.2 2,3.9 8,6.6 	"/>
	<path class="st1" d="M0.3,4.4l7.5,3.4c0.1,0,0.2,0.1,0.2,0.1s0.2,0,0.2-0.1l7.5-3.4c0.2-0.1,0.4-0.3,0.4-0.5S16,3.5,15.7,3.4L8.2,0
		C8.1-0.1,7.9-0.1,7.8,0L0.3,3.4C0,3.5-0.1,3.7-0.1,3.9S0,4.4,0.3,4.4z M8,1.2l6,2.7L8,6.6L2,3.9L8,1.2z"/>
	<path class="st1" d="M0.3,7.7l7.5,3.4c0.1,0,0.2,0.1,0.3,0.1s0.2,0,0.3-0.1l7.5-3.4c0.3-0.1,0.4-0.5,0.3-0.8
		c-0.1-0.3-0.5-0.4-0.8-0.3L8,9.9L0.8,6.6C0.4,6.4,0.1,6.6,0,6.9C-0.2,7.2-0.1,7.5,0.3,7.7z"/>
	<path class="st1" d="M15.3,9.9L8,13.2L0.8,9.9c-0.3-0.1-0.7,0-0.8,0.3c-0.1,0.3,0,0.7,0.3,0.8l7.5,3.4c0.1,0,0.2,0.1,0.3,0.1
		s0.2,0,0.3-0.1l7.5-3.4c0.3-0.1,0.4-0.5,0.3-0.8C15.9,9.8,15.5,9.7,15.3,9.9z"/>
</g>
</svg>
