<?xml version="1.0" encoding="utf-8"?>
<!-- Generator: Adobe Illustrator 18.0.0, SVG Export Plug-In . SVG Version: 6.00 Build 0)  -->
<!DOCTYPE svg PUBLIC "-//W3C//DTD SVG 1.1//EN" "http://www.w3.org/Graphics/SVG/1.1/DTD/svg11.dtd">
<svg version="1.1" id="Layer_1" xmlns="http://www.w3.org/2000/svg" xmlns:xlink="http://www.w3.org/1999/xlink" x="0px" y="0px"
	 viewBox="0 0 16 16" enable-background="new 0 0 16 16" xml:space="preserve">
<g id="Layer_2">
	<g id="Layer_2_1_">
		<rect fill="none" width="16" height="16"/>
	</g>
</g>
<g>
	<path fill="#FFFFFF" d="M9.8,4.1c1.2,0.8,2,2.2,2,3.9s-0.8,3.1-2,3.9c3-0.8,5-3.1,4.9-3.9C14.7,7.2,12.7,4.9,9.8,4.1z"/>
	<path fill="#FFFFFF" d="M6.1,4.1C3.2,4.9,1.2,7.3,1.2,8c0,0.8,2,3.1,4.9,3.9c-1.2-0.8-2-2.2-2-3.9S5,4.9,6.1,4.1z"/>
	<path fill="#3D6480" d="M8,2.5C3.6,2.5,0,6.1,0,8c0,2.1,3.7,5.5,8,5.5s8-3.4,8-5.5C16,6.1,12.4,2.5,8,2.5z M9.8,11.9
		c1.2-0.8,2-2.2,2-3.9s-0.8-3.1-2-3.9c2.9,0.8,4.9,3.1,4.9,3.9C14.8,8.8,12.8,11.1,9.8,11.9z M6.1,11.9C3.2,11.1,1.2,8.8,1.2,8
		c0-0.7,2-3.1,4.9-3.9C5,4.9,4.1,6.3,4.1,8S4.9,11.1,6.1,11.9z"/>
</g>
</svg>
