<svg id="Layer_1" data-name="Layer 1" xmlns="http://www.w3.org/2000/svg" viewBox="0 0 14 14"><defs><style>.cls-1{fill:#999;}</style></defs><title>PDI-help-dialog-toolbar-all</title><path class="cls-1" d="M2.48,7A4.52,4.52,0,0,1,7,2.51a4.54,4.54,0,0,1,2.73,1L8.19,5h4V1L10.55,2.64A5.65,5.65,0,0,0,1.32,7c0,.11,0,.21,0,.32H2.51C2.5,7.24,2.48,7.14,2.48,7Z"/><path class="cls-1" d="M12.65,6.65H11.49c0,.11,0,.22,0,.33a4.47,4.47,0,0,1-7.24,3.55L5.81,9h-4v4l1.64-1.64A5.64,5.64,0,0,0,12.68,7C12.68,6.87,12.66,6.76,12.65,6.65Z"/></svg>