<?xml version="1.0" encoding="utf-8"?>
<!-- Generator: Adobe Illustrator 18.0.0, SVG Export Plug-In . SVG Version: 6.00 Build 0)  -->
<!DOCTYPE svg PUBLIC "-//W3C//DTD SVG 1.1//EN" "http://www.w3.org/Graphics/SVG/1.1/DTD/svg11.dtd">
<svg version="1.1" xmlns="http://www.w3.org/2000/svg" xmlns:xlink="http://www.w3.org/1999/xlink" x="0px" y="0px"
	 viewBox="0 0 16 16" enable-background="new 0 0 16 16" xml:space="preserve">
<g id="Layer_2">
	<g id="Layer_2_1_">
		<rect fill="none" width="16" height="16"/>
	</g>
</g>
<g id="art">
	<g>
		<path fill="#3D6480" stroke="#3D6380" stroke-width="0.25" stroke-miterlimit="10" d="M1.9,9.3C1.8,8.9,1.7,8.5,1.7,8
			c0-3.4,2.8-6.2,6.2-6.2c1.6,0,3,0.6,4.4,1.8l-1.6,1.6h2.6h1.8V4.8v-4l-1.9,1.5C11.9,1,10,0.2,8,0.2C3.7,0.2,0.1,3.7,0.1,8
			c0,0.4,0,0.8,0.1,1.2H1.9z"/>
		<path fill="#3D6480" stroke="#3D6380" stroke-width="0.25" stroke-miterlimit="10" d="M14.1,6.7c0.1,0.4,0.1,0.8,0.1,1.2
			c0,3.4-2.8,6.2-6.2,6.2c-1.6,0-3-0.6-4.4-1.8l1.6-1.6H2.7H0.8v0.4v4l1.9-1.5C4.1,15,6,15.8,8,15.8c4.3,0,7.8-3.5,7.8-7.8
			c0-0.4,0-0.8-0.1-1.2H14.1z"/>
	</g>
</g>
</svg>
