<svg id="Layer_1" data-name="Layer 1" xmlns="http://www.w3.org/2000/svg" viewBox="0 0 14 14"><defs><style>.cls-1{fill:#3d6480;}</style></defs><title>PDI-help-dialog-toolbar-all</title><path class="cls-1" d="M1.82,7A5.18,5.18,0,0,1,7,1.86,5.18,5.18,0,0,1,10.11,3L8.36,4.71h4.58V.13L11.06,2A6.42,6.42,0,0,0,7,.54,6.5,6.5,0,0,0,.5,7c0,.12,0,.24,0,.37H1.86C1.85,7.27,1.82,7.15,1.82,7Z"/><path class="cls-1" d="M13.47,6.6H12.14c0,.13,0,.25,0,.37A5.18,5.18,0,0,1,7,12.14,5.18,5.18,0,0,1,3.89,11L5.64,9.29H1.06v4.58L2.94,12A6.42,6.42,0,0,0,7,13.46,6.5,6.5,0,0,0,13.5,7C13.5,6.85,13.48,6.73,13.47,6.6Z"/></svg>