<?xml version="1.0" encoding="utf-8"?>
<!-- Generator: Adobe Illustrator 18.0.0, SVG Export Plug-In . SVG Version: 6.00 Build 0)  -->
<!DOCTYPE svg PUBLIC "-//W3C//DTD SVG 1.1//EN" "http://www.w3.org/Graphics/SVG/1.1/DTD/svg11.dtd">
<svg version="1.1" xmlns="http://www.w3.org/2000/svg" xmlns:xlink="http://www.w3.org/1999/xlink" x="0px" y="0px"
	 viewBox="0 0 16 16" enable-background="new 0 0 16 16" xml:space="preserve">
<g id="Layer_2">
	<g id="Layer_2_1_">
		<rect fill="none" width="16" height="16"/>
	</g>
</g>
<g id="art">
	<g>
		<polygon fill="#FFFFFF" points="1.1,3.8 1.1,13.9 12.5,8.9 		"/>
		<polygon fill="none" points="1.8,4.9 1.8,13.1 10.7,9 		"/>
		<path fill="#3D6480" d="M0,16l15-7L0,2V16z M1.8,4.9L10.7,9l-8.8,4.1V4.9z"/>
		<path fill="#3D6480" d="M12.3,3.8v0.3l-1.4-1.4l-1,1l3,3l3-3l-1-1l-1.4,1.4V3.8C13.7,1.7,12,0,9.9,0H5v1.3h4.8
			C11.2,1.3,12.3,2.4,12.3,3.8z"/>
	</g>
</g>
</svg>
