<?xml version="1.0" encoding="utf-8"?>
<!-- Generator: Adobe Illustrator 18.0.0, SVG Export Plug-In . SVG Version: 6.00 Build 0)  -->
<!DOCTYPE svg PUBLIC "-//W3C//DTD SVG 1.1//EN" "http://www.w3.org/Graphics/SVG/1.1/DTD/svg11.dtd">
<svg version="1.1" xmlns="http://www.w3.org/2000/svg" xmlns:xlink="http://www.w3.org/1999/xlink" x="0px" y="0px"
	 viewBox="0 0 16 16" enable-background="new 0 0 16 16" xml:space="preserve">
<g id="Layer_2">
	<g id="Layer_2_1_">
		<rect fill="none" width="16" height="16"/>
	</g>
</g>
<g id="art">
	<path fill="#3D6380" d="M8,0C3.6,0,0,3.6,0,8c0,0,0,0.1,0,0.1h2C2,8.1,2,8,2,8c0-3.3,2.7-6,6-6s6,2.7,6,6s-2.7,6-6,6
		c-1.5,0-2.8-0.5-3.9-1.4l1.2-1.2H1.7H1.3V13v2.3L2.7,14C4.1,15.2,6,16,8,16c4.4,0,8-3.6,8-8S12.4,0,8,0z"/>
</g>
</svg>
