<?xml version="1.0" encoding="utf-8"?>
<!-- Generator: Adobe Illustrator 18.0.0, SVG Export Plug-In . SVG Version: 6.00 Build 0)  -->
<!DOCTYPE svg PUBLIC "-//W3C//DTD SVG 1.1//EN" "http://www.w3.org/Graphics/SVG/1.1/DTD/svg11.dtd">
<svg version="1.1" id="Layer_1" xmlns="http://www.w3.org/2000/svg" xmlns:xlink="http://www.w3.org/1999/xlink" x="0px" y="0px"
	 viewBox="0 0 24 24" enable-background="new 0 0 24 24" xml:space="preserve">
<g id="Layer_2" opacity="0.5">
	<g id="Layer_2_1_">
		<rect fill="none" width="24" height="24"/>
	</g>
</g>
<g id="art" opacity="0.5">
	<g>
		<path fill="#FFFFFF" d="M19.5,6.8H15V2.3H4.5v19.5h15V6.8z M15,17.7c-0.3-0.8-0.8-1.5-1.2-2.1c-1-1.2-2.4-1.9-4.2-2.1v3.2
			l-3.9-4.5l3.9-4.5v3.1c2.1,0.2,4.3,1.4,5.7,3c0.9,1,1.7,2.4,2.1,3.9C17.4,17.7,15,17.7,15,17.7z"/>
		<path fill="#3D6480" d="M21.8,6.8l-2.3-2.4l0,0h-2.1V2.3l0,0L15.2,0H2.3v24h19.7L21.8,6.8z M4.5,2.3h10.7v4.5h4.5v15H4.5V2.3z"/>
		<path fill="#3D6480" d="M9.6,11V7.8l-3.9,4.5l3.9,4.4v-3.2c1.8,0.2,3.1,0.9,4.2,2.1c0.6,0.6,0.9,1.3,1.2,2.1h2.4
			c-0.5-1.5-1.1-2.7-2.1-3.9C14,12.2,11.7,11.1,9.6,11z"/>
	</g>
</g>
</svg>
