<?xml version="1.0" encoding="utf-8"?>
<!-- Generator: Adobe Illustrator 18.0.0, SVG Export Plug-In . SVG Version: 6.00 Build 0)  -->
<!DOCTYPE svg PUBLIC "-//W3C//DTD SVG 1.1//EN" "http://www.w3.org/Graphics/SVG/1.1/DTD/svg11.dtd">
<svg version="1.1" xmlns="http://www.w3.org/2000/svg" xmlns:xlink="http://www.w3.org/1999/xlink" x="0px" y="0px"
	 viewBox="0 0 16 16" enable-background="new 0 0 16 16" xml:space="preserve">
<g id="Layer_2">
	<g id="Layer_2_1_">
		<rect fill="none" width="16" height="16"/>
	</g>
</g>
<g id="art">
	<g>
		<path fill="#FFFFFF" d="M13,4.5h-3v-3H3v13h10L13,4.5z M10,11.8c-0.2-0.5-0.5-1-0.8-1.4C8.5,9.6,7.6,9.1,6.4,9l0,2.1L3.8,8.1
			l2.6-3l0,2.1c1.4,0.1,2.9,0.9,3.8,2c0.6,0.7,1.1,1.6,1.4,2.6H10z"/>
		<path fill="#3D6480" d="M14.5,4.5L13,2.9v0h-1.4V1.5h0L10.1,0H1.5v16h13.1L14.5,4.5z M3,1.5h7.1v3h3l0,10H3V1.5z"/>
		<path fill="#3D6480" d="M6.4,7.3l0-2.1l-2.6,3l2.6,2.9l0-2.1c1.2,0.1,2.1,0.6,2.8,1.4c0.4,0.4,0.6,0.9,0.8,1.4h1.6
			c-0.3-1-0.7-1.8-1.4-2.6C9.3,8.1,7.8,7.4,6.4,7.3z"/>
	</g>
</g>
</svg>
