<svg width="54" height="24" viewBox="0 0 54 24" fill="none" xmlns="http://www.w3.org/2000/svg">
<rect width="54" height="24" fill="#D7E6CF"/>
<g clip-path="url(#clip0_31_4717)">
<path d="M18.9488 10.0787C18.8863 9.88649 18.7683 9.71712 18.6097 9.59188C18.4511 9.46665 18.259 9.39116 18.0575 9.37491L14.37 9.07741L12.9463 5.63429C12.8693 5.44667 12.7382 5.28619 12.5698 5.17325C12.4014 5.06031 12.2032 5 12.0004 5C11.7976 5 11.5993 5.06031 11.4309 5.17325C11.2625 5.28619 11.1314 5.44667 11.0544 5.63429L9.63192 9.07679L5.94254 9.37491C5.74078 9.39198 5.54854 9.4682 5.3899 9.59404C5.23127 9.71988 5.1133 9.88973 5.05077 10.0823C4.98824 10.2749 4.98394 10.4817 5.0384 10.6767C5.09286 10.8717 5.20366 11.0463 5.35692 11.1787L8.16942 13.6055L7.31254 17.2343C7.26462 17.4314 7.27635 17.6384 7.34625 17.8288C7.41615 18.0193 7.54107 18.1847 7.70514 18.304C7.86921 18.4234 8.06505 18.4913 8.26778 18.4991C8.47051 18.5069 8.671 18.4544 8.84379 18.348L12 16.4055L15.1582 18.348C15.331 18.4531 15.5311 18.5047 15.7332 18.4962C15.9353 18.4878 16.1304 18.4198 16.2939 18.3007C16.4574 18.1816 16.5821 18.0168 16.6521 17.8271C16.7221 17.6373 16.7345 17.431 16.6875 17.2343L15.8275 13.6049L18.64 11.178C18.7945 11.0459 18.9064 10.8709 18.9613 10.6752C19.0163 10.4795 19.0119 10.2719 18.9488 10.0787ZM17.99 10.4205L14.9463 13.0455C14.8769 13.1054 14.8252 13.1831 14.797 13.2703C14.7688 13.3575 14.7651 13.4508 14.7863 13.5399L15.7163 17.4649C15.7187 17.4703 15.7189 17.4765 15.717 17.482C15.715 17.4876 15.7109 17.4922 15.7057 17.4949C15.6944 17.5037 15.6913 17.5018 15.6819 17.4949L12.2619 15.3918C12.1832 15.3434 12.0925 15.3177 12 15.3177C11.9076 15.3177 11.8169 15.3434 11.7382 15.3918L8.31817 17.4962C8.30879 17.5018 8.30629 17.5037 8.29442 17.4962C8.28914 17.4935 8.2851 17.4889 8.28312 17.4833C8.28115 17.4777 8.28139 17.4716 8.28379 17.4662L9.21379 13.5412C9.23499 13.452 9.23127 13.3587 9.20306 13.2716C9.17484 13.1844 9.1232 13.1066 9.05379 13.0468L6.01004 10.4218C6.00254 10.4155 5.99567 10.4099 6.00192 10.3905C6.00817 10.3712 6.01317 10.3737 6.02254 10.3724L10.0175 10.0499C10.1092 10.0421 10.1969 10.0091 10.271 9.9546C10.3451 9.90013 10.4027 9.82628 10.4375 9.74116L11.9763 6.01554C11.9813 6.00491 11.9832 5.99991 11.9982 5.99991C12.0132 5.99991 12.015 6.00491 12.02 6.01554L13.5625 9.74116C13.5977 9.82631 13.6557 9.90008 13.7302 9.95434C13.8046 10.0086 13.8926 10.0412 13.9844 10.0487L17.9794 10.3712C17.9888 10.3712 17.9944 10.3712 18 10.3893C18.0057 10.4074 18 10.4143 17.99 10.4205Z" fill="#2B6C1C"/>
</g>
<path d="M31.8691 17H30.7207L26.0508 9.80469H26.0039C26.0156 9.99609 26.0293 10.2148 26.0449 10.4609C26.0605 10.7031 26.0723 10.9629 26.0801 11.2402C26.0918 11.5137 26.0977 11.793 26.0977 12.0781V17H25.1719V8.43359H26.3145L30.9668 15.6055H31.0078C31 15.4688 30.9902 15.2754 30.9785 15.0254C30.9668 14.7715 30.9551 14.5 30.9434 14.2109C30.9355 13.918 30.9316 13.6465 30.9316 13.3965V8.43359H31.8691V17ZM36.5332 10.4609C37.0801 10.4609 37.5488 10.582 37.9395 10.8242C38.3301 11.0664 38.6289 11.4062 38.8359 11.8438C39.043 12.2773 39.1465 12.7852 39.1465 13.3672V13.9707H34.7109C34.7227 14.7246 34.9102 15.2988 35.2734 15.6934C35.6367 16.0879 36.1484 16.2852 36.8086 16.2852C37.2148 16.2852 37.5742 16.248 37.8867 16.1738C38.1992 16.0996 38.5234 15.9902 38.8594 15.8457V16.7012C38.5352 16.8457 38.2129 16.9512 37.8926 17.0176C37.5762 17.084 37.2012 17.1172 36.7676 17.1172C36.1504 17.1172 35.6113 16.9922 35.1504 16.7422C34.6934 16.4883 34.3379 16.1172 34.084 15.6289C33.8301 15.1406 33.7031 14.543 33.7031 13.8359C33.7031 13.1445 33.8184 12.5469 34.0488 12.043C34.2832 11.5352 34.6113 11.1445 35.0332 10.8711C35.459 10.5977 35.959 10.4609 36.5332 10.4609ZM36.5215 11.2578C36.002 11.2578 35.5879 11.4277 35.2793 11.7676C34.9707 12.1074 34.7871 12.582 34.7285 13.1914H38.127C38.123 12.8086 38.0625 12.4727 37.9453 12.1836C37.832 11.8906 37.6582 11.6641 37.4238 11.5039C37.1895 11.3398 36.8887 11.2578 36.5215 11.2578ZM46.0254 16.9883L44.8828 13.25C44.832 13.0898 44.7832 12.9336 44.7363 12.7812C44.6934 12.625 44.6523 12.4766 44.6133 12.3359C44.5781 12.1914 44.5449 12.0586 44.5137 11.9375C44.4863 11.8125 44.4629 11.7051 44.4434 11.6152H44.4023C44.3867 11.7051 44.3652 11.8125 44.3379 11.9375C44.3105 12.0586 44.2773 12.1914 44.2383 12.3359C44.2031 12.4805 44.1641 12.6328 44.1211 12.793C44.0781 12.9492 44.0293 13.1074 43.9746 13.2676L42.7793 16.9883H41.6836L39.9141 10.5664H40.9219L41.8477 14.1113C41.9102 14.3457 41.9688 14.5781 42.0234 14.8086C42.082 15.0352 42.1309 15.25 42.1699 15.4531C42.2129 15.6523 42.2441 15.8262 42.2637 15.9746H42.3105C42.334 15.877 42.3594 15.7598 42.3867 15.623C42.418 15.4863 42.4512 15.3418 42.4863 15.1895C42.5254 15.0332 42.5664 14.8789 42.6094 14.7266C42.6523 14.5703 42.6953 14.4238 42.7383 14.2871L43.9219 10.5664H44.9707L46.1133 14.2812C46.1719 14.4688 46.2285 14.6641 46.2832 14.8672C46.3418 15.0703 46.3945 15.2676 46.4414 15.459C46.4883 15.6465 46.5215 15.8145 46.541 15.9629H46.5879C46.6035 15.8301 46.6328 15.666 46.6758 15.4707C46.7188 15.2754 46.7676 15.0605 46.8223 14.8262C46.8809 14.5918 46.9414 14.3535 47.0039 14.1113L47.9414 10.5664H48.9316L47.1562 16.9883H46.0254Z" fill="#2B6C1C"/>
<defs>
<clipPath id="clip0_31_4717">
<rect width="16" height="16" fill="white" transform="translate(4 4)"/>
</clipPath>
</defs>
</svg>
