<?xml version="1.0" encoding="utf-8"?>
<!-- Generator: Adobe Illustrator 18.0.0, SVG Export Plug-In . SVG Version: 6.00 Build 0)  -->
<!DOCTYPE svg PUBLIC "-//W3C//DTD SVG 1.1//EN" "http://www.w3.org/Graphics/SVG/1.1/DTD/svg11.dtd">
<svg version="1.1" xmlns="http://www.w3.org/2000/svg" xmlns:xlink="http://www.w3.org/1999/xlink" x="0px" y="0px"
	 viewBox="0 0 16 16" enable-background="new 0 0 16 16" xml:space="preserve">
<g id="Layer_2">
	<g id="Layer_2_1_">
		<rect fill="none" width="16" height="16"/>
	</g>
</g>
<g id="art">
	<g>
		<path fill="#FFFFFF" d="M12.8,2.8h-0.9v0.8h-0.6c0,0,0,0,0,0c0,0,0,0,0,0h-0.6V2.8H9.7v0.8H9.1c0,0,0,0,0,0c0,0,0,0,0,0H8.4V3l0,0
			V2.8H7.6v0.8H7c0,0,0,0,0,0c0,0,0,0,0,0H6.3V2.8H5.5v0.8H4.8c0,0,0,0,0,0c0,0,0,0,0,0H4.2V2.8H3.2v2.4h0v7.2h0v2.4h9.6v-2.4h0V5.1
			h0V2.8z M11.5,13.1H6.9H4.6H4.5V12h0.1h2.2h4.6V13.1z M5.4,9.7V8.7h0.1h1.3h3.7v1.1H6.9H5.6H5.4z M11.5,6.4H6.9H4.6H4.5V5.3h0.1
			h2.2h4.6V6.4z"/>
		<path fill="#3D6380" d="M11.8,1.5V0h-1.3v1.5H9.7V0H8.4v0.6c0,0,0,0,0,0v0.9H7.6V0H6.3v1.5H5.5V0H4.2v1.5H1.9V16h12.1V1.5H11.8z
			 M12.8,12.4L12.8,12.4l0,2.4H3.2v-2.4h0V5.1h0V2.8h0.9v0.8h0.6c0,0,0,0,0,0c0,0,0,0,0,0h0.6V2.8h0.8v0.8h0.6c0,0,0,0,0,0
			c0,0,0,0,0,0h0.6V2.8h0.8V3l0,0v0.6H9c0,0,0,0,0,0c0,0,0,0,0,0h0.6V2.8h0.8v0.8h0.6c0,0,0,0,0,0c0,0,0,0,0,0h0.6V2.8h0.9v2.4h0
			V12.4z"/>
		<polygon fill="#3D6480" points="4.6,5.3 4.5,5.3 4.5,6.4 4.6,6.4 6.9,6.4 11.5,6.4 11.5,5.3 6.9,5.3 		"/>
		<polygon fill="#3D6480" points="10.6,9.7 10.6,8.7 6.9,8.7 5.6,8.7 5.4,8.7 5.4,9.7 5.6,9.7 6.9,9.7 		"/>
		<polygon fill="#3D6480" points="4.6,12 4.5,12 4.5,13.1 4.6,13.1 6.9,13.1 11.5,13.1 11.5,12 6.9,12 		"/>
	</g>
</g>
</svg>
