<?xml version="1.0" encoding="utf-8"?>
<!-- Generator: Adobe Illustrator 19.1.0, SVG Export Plug-In . SVG Version: 6.00 Build 0)  -->
<svg version="1.1" id="Layer_1" xmlns="http://www.w3.org/2000/svg" xmlns:xlink="http://www.w3.org/1999/xlink" x="0px" y="0px"
	 viewBox="-297 389 16 16" style="enable-background:new -297 389 16 16;" xml:space="preserve">
<style type="text/css">
	.st0{fill:none;}
	.st1{fill:#1CB24B;}
</style>
<g id="Layer_2">
	<g id="Layer_2_1_">
		<rect x="-297" y="389" class="st0" width="16" height="16"/>
	</g>
</g>
<g id="art">
	<g>
		<polygon class="st1" points="-283.2,399.7 -283.2,398 -288.1,398 -288.1,402.9 -286.4,402.9 -286.4,401 -282.3,405 -281.1,403.8 
			-285.1,399.7 		"/>
		<polygon class="st1" points="-289.9,402.9 -291.6,402.9 -291.6,401 -295.7,405 -296.9,403.8 -292.9,399.7 -294.8,399.7 
			-294.8,398 -289.9,398 		"/>
		<polygon class="st1" points="-288.1,396 -283.2,396 -283.2,394.3 -285.1,394.3 -281.1,390.2 -282.3,389 -286.4,393 -286.4,391.1 
			-288.1,391.1 		"/>
		<polygon class="st1" points="-294.8,396 -294.8,394.3 -292.9,394.3 -296.9,390.2 -295.7,389 -291.6,393 -291.6,391.1 
			-289.9,391.1 -289.9,396 		"/>
	</g>
</g>
</svg>
