<?xml version="1.0" encoding="utf-8"?>
<!-- Generator: Adobe Illustrator 17.0.0, SVG Export Plug-In . SVG Version: 6.00 Build 0)  -->
<!DOCTYPE svg PUBLIC "-//W3C//DTD SVG 1.1//EN" "http://www.w3.org/Graphics/SVG/1.1/DTD/svg11.dtd">
<svg version="1.1" id="Layer_1" xmlns="http://www.w3.org/2000/svg" xmlns:xlink="http://www.w3.org/1999/xlink" x="0px" y="0px"
	 width="42px" height="42px" viewBox="0 0 42 42" enable-background="new 0 0 42 42" xml:space="preserve">
<g>
	<polygon fill="none" points="24.77,35.918 24.77,37.808 26.624,37.808 34.48,29.95 32.609,28.079 	"/>
	
		<rect x="33.506" y="26.915" transform="matrix(-0.7071 -0.7071 0.7071 -0.7071 39.8481 71.9681)" fill="none" width="2.646" height="1.632"/>
	<path fill="#3D6480" d="M37.402,27.03l-1.872-1.872l-1.061-1.061l-1.062,1.061l-8.639,8.639l-1.5,1.5v2.122v1.89h1.854h2.121
		l1.5-1.5l8.657-8.657l1.061-1.061L37.402,27.03z M26.624,37.808H24.77v-1.89l7.84-7.839l1.871,1.871L26.624,37.808z M35.187,29.243
		l-1.871-1.871l1.153-1.154l1.872,1.872L35.187,29.243z"/>
	<path fill="#FFECCE" d="M21.136,15.477c-2.221,1.115-6.732,1.19-7.868,1.19c-2.351,0-4.554-0.212-6.204-0.597
		c-0.752-0.176-1.366-0.384-1.846-0.623v5.217c1.053,0.714,3.932,1.331,8.05,1.331c1.197,0,2.34-0.06,3.387-0.167v-2.252h4.481
		V15.477z"/>
	<path fill="#FFECCE" d="M19.174,15.3c0.886-0.21,1.554-0.473,1.962-0.753V9.69c-2.221,1.115-6.731,1.19-7.867,1.19
		c-2.351,0-4.554-0.212-6.204-0.597c-0.753-0.176-1.367-0.384-1.847-0.623v4.876c1.053,0.714,3.932,1.331,8.05,1.331
		C15.531,15.867,17.63,15.665,19.174,15.3z"/>
	<path fill="#FFECCE" d="M7.063,22.199c-0.752-0.176-1.366-0.384-1.846-0.623v4.978c0,0.589,2.838,1.734,8.04,1.734
		c0.001,0,0.001,0,0.001,0c1.205,0,2.35-0.069,3.396-0.19v-5.466c-1.491,0.145-2.836,0.164-3.387,0.164
		C10.917,22.795,8.714,22.583,7.063,22.199z"/>
	<path fill="#FFECCE" d="M21.136,8.756V7.999c-0.192-0.52-3.051-1.479-8.051-1.479c-4.965,0-7.72,0.952-7.867,1.484V8.75
		c1.054,0.714,3.932,1.331,8.051,1.331C17.285,10.08,20.097,9.467,21.136,8.756z"/>
	<rect x="18.354" y="21.276" fill="#EFF9FE" width="10.724" height="4.715"/>
	<polygon fill="#FFFFFF" points="24.235,26.791 24.235,31.825 24.324,31.825 29.077,27.072 29.077,26.791 	"/>
	<rect x="18.354" y="26.791" fill="#FFFFFF" width="4.683" height="5.034"/>
	<path fill="#3D6480" d="M24.235,31.825v-5.034h4.842v0.281l1.699-1.699v-5.796h-7.941V7.999c0-2.95-7.462-3.18-9.75-3.18
		c-2.876,0-9.566,0.311-9.566,3.18v18.555c0,3.269,8.113,3.435,9.739,3.435c0.001,0,0.001,0,0.001,0
		c1.189,0,2.337-0.061,3.396-0.175v3.711h5.97l1.699-1.699H24.235z M29.077,21.276v4.715H18.353v-4.715H29.077z M5.218,8.004
		C5.365,7.472,8.12,6.52,13.085,6.52c5,0,7.858,0.96,8.051,1.479v0.757c-1.039,0.711-3.851,1.324-7.867,1.324
		c-4.119,0-6.997-0.617-8.051-1.331V8.004z M5.218,9.661c0.479,0.239,1.094,0.447,1.847,0.623c1.65,0.385,3.854,0.597,6.204,0.597
		c1.136,0,5.646-0.075,7.867-1.19v4.856c-0.408,0.281-1.076,0.543-1.962,0.753c-1.544,0.365-3.643,0.567-5.906,0.567
		c-4.118,0-6.997-0.617-8.05-1.331V9.661z M16.654,28.098c-1.045,0.122-2.19,0.19-3.396,0.19c0,0,0,0-0.001,0
		c-5.202,0-8.04-1.146-8.04-1.734v-4.978c0.479,0.239,1.093,0.447,1.846,0.623c1.65,0.385,3.854,0.597,6.204,0.597
		c0.55,0,1.896-0.019,3.387-0.164V28.098z M16.654,21.828c-1.047,0.107-2.19,0.167-3.387,0.167c-4.118,0-6.997-0.617-8.05-1.331
		v-5.217c0.479,0.239,1.093,0.447,1.846,0.623c1.65,0.385,3.854,0.597,6.204,0.597c1.136,0,5.647-0.075,7.868-1.19v4.099h-4.481
		V21.828z M23.036,31.825h-4.683v-5.034h4.683V31.825z"/>
</g>
</svg>
