<?xml version="1.0" encoding="utf-8"?>
<!-- Generator: Adobe Illustrator 17.0.0, SVG Export Plug-In . SVG Version: 6.00 Build 0)  -->
<!DOCTYPE svg PUBLIC "-//W3C//DTD SVG 1.1//EN" "http://www.w3.org/Graphics/SVG/1.1/DTD/svg11.dtd">
<svg version="1.1" id="Layer_1" xmlns="http://www.w3.org/2000/svg" xmlns:xlink="http://www.w3.org/1999/xlink" x="0px" y="0px"
	 width="42px" height="42px" viewBox="0 0 42 42" enable-background="new 0 0 42 42" xml:space="preserve">
<g>
	<rect x="9.843" y="25.41" fill="none" width="6.757" height="6.75"/>
	<rect x="9.843" y="17.197" fill="none" width="6.757" height="7.412"/>
	<rect x="17.4" y="25.41" fill="none" width="7.412" height="6.75"/>
	<rect x="17.4" y="17.197" fill="none" width="7.412" height="7.412"/>
	<rect x="25.612" y="17.197" fill="none" width="6.531" height="7.412"/>
	<rect x="25.612" y="25.41" fill="none" width="6.531" height="6.75"/>
	<polygon fill="#EFF9FE" points="9.843,16.396 16.6,16.396 16.6,16.389 17.4,16.389 17.4,16.396 24.812,16.396 24.812,16.389 
		25.612,16.389 25.612,16.396 32.143,16.396 32.143,9.859 9.843,9.859 	"/>
	<path fill="#3D6480" d="M8.143,8.16v25.699h25.7V8.16H8.143z M16.6,32.16H9.843v-6.75H16.6V32.16z M16.6,24.609H9.843v-7.412H16.6
		V24.609z M24.812,32.16H17.4v-6.75h7.412V32.16z M24.812,24.609H17.4v-7.412h7.412V24.609z M32.143,32.16h-6.531v-6.75h6.531V32.16
		z M32.143,24.609h-6.531v-7.412h6.531V24.609z M32.143,16.396h-6.531v-0.008h-0.8v0.008H17.4v-0.008h-0.8v0.008H9.843V9.859h22.3
		V16.396z"/>
</g>
</svg>
