<?xml version="1.0" encoding="utf-8"?>
<!-- Generator: Adobe Illustrator 17.0.0, SVG Export Plug-In . SVG Version: 6.00 Build 0)  -->
<!DOCTYPE svg PUBLIC "-//W3C//DTD SVG 1.1//EN" "http://www.w3.org/Graphics/SVG/1.1/DTD/svg11.dtd">
<svg version="1.1" id="Layer_1" xmlns="http://www.w3.org/2000/svg" xmlns:xlink="http://www.w3.org/1999/xlink" x="0px" y="0px"
	 width="42px" height="42px" viewBox="0 0 42 42" enable-background="new 0 0 42 42" xml:space="preserve">
<rect x="14.365" y="17.552" fill="#3D6480" width="11.902" height="0.801"/>
<polygon fill="#3D6480" points="9.148,5.794 9.148,8.877 3.923,3.652 2.579,4.996 7.805,10.221 4.659,10.221 4.659,12.122 
	11.049,12.121 11.049,5.794 "/>
<g>
	<rect x="14.365" y="17.552" fill="none" width="11.902" height="0.801"/>
	<path fill="#EFF9FE" d="M11.468,33.541h17.694l-0.058-20.152h-4.257V9.131h-6.251l-7.128,7.128V33.541z M14.365,17.552h11.902
		v0.801H14.365V17.552z M14.365,20.935h11.902v0.801H14.365V20.935z M17.566,24.318v0.801h-3.201v-0.801H17.566z"/>
	<polygon fill="#3D6480" points="30.867,35.24 30.805,13.398 29.095,11.689 26.547,11.689 26.547,9.141 24.837,7.431 20.295,7.431 
		18.596,9.131 24.847,9.131 24.847,13.388 29.104,13.388 29.162,33.541 11.468,33.541 11.468,16.258 9.768,17.959 9.768,35.24 	"/>
	<rect x="14.365" y="20.935" fill="#3D6480" width="11.902" height="0.801"/>
	<rect x="14.365" y="24.318" fill="#3D6480" width="3.201" height="0.801"/>
</g>
</svg>
