<?xml version="1.0" encoding="utf-8"?>
<!-- Generator: Adobe Illustrator 18.0.0, SVG Export Plug-In . SVG Version: 6.00 Build 0)  -->
<!DOCTYPE svg PUBLIC "-//W3C//DTD SVG 1.1//EN" "http://www.w3.org/Graphics/SVG/1.1/DTD/svg11.dtd">
<svg version="1.1" id="Layer_1" xmlns="http://www.w3.org/2000/svg" xmlns:xlink="http://www.w3.org/1999/xlink" x="0px" y="0px"
	 viewBox="0 0 42 42" enable-background="new 0 0 42 42" xml:space="preserve">
<g>
	<g>
		<polygon fill="none" points="29.1,30.7 29.1,36 34.8,33.4 		"/>
		<path fill="#0CB20F" d="M27.2,27.8v11.1l11.9-5.6L27.2,27.8z M29.1,30.7l5.7,2.7L29.1,36V30.7z"/>
		<path fill="#EFF9FE" d="M32.1,9.8H9.9v22.3h12.8l9.5-9.3V9.8z M24.4,16.2h-3.2v9.4h-1.4v-9.4h-3.2V15h7.7V16.2z"/>
		<polygon fill="#3D6480" points="9.9,9.8 32.1,9.8 32.1,22.8 33.9,21.2 33.9,8.1 8.1,8.1 8.1,33.8 20.9,33.8 22.6,32.1 9.9,32.1 		
			"/>
		<polygon fill="#3D6380" points="16.7,16.2 19.9,16.2 19.9,25.7 21.3,25.7 21.3,16.2 24.4,16.2 24.4,15 16.7,15 		"/>
	</g>
</g>
</svg>
