<?xml version="1.0" encoding="utf-8"?>
<!-- Generator: Adobe Illustrator 18.0.0, SVG Export Plug-In . SVG Version: 6.00 Build 0)  -->
<!DOCTYPE svg PUBLIC "-//W3C//DTD SVG 1.1//EN" "http://www.w3.org/Graphics/SVG/1.1/DTD/svg11.dtd">
<svg version="1.1" id="Layer_1" xmlns="http://www.w3.org/2000/svg" xmlns:xlink="http://www.w3.org/1999/xlink" x="0px" y="0px"
	 viewBox="8 8 16 16" enable-background="new 8 8 16 16" xml:space="preserve">
<g>
	<path fill="#FFFFFF" d="M8.2,17c0-0.1,0-0.2,0-0.3C8.1,16.9,8.2,16.9,8.2,17z"/>
	<path fill="#FFFFFF" d="M22.5,11.5c-0.1-0.2-0.2-0.3-0.4-0.5l0,0C22.2,11.1,22.3,11.3,22.5,11.5z"/>
	<path fill="#FFFFFF" d="M23.4,18.8c-0.1,0.2-0.1,0.3-0.2,0.5C23.3,19.1,23.3,18.9,23.4,18.8z"/>
	<path fill="#FFFFFF" d="M8.6,13.1c0.1-0.2,0.1-0.4,0.2-0.5C8.8,12.8,8.7,13,8.6,13.1z"/>
	<path fill="#FFFFFF" d="M23.6,18.1c0,0.1-0.1,0.3-0.1,0.4C23.5,18.4,23.6,18.3,23.6,18.1z"/>
	<path fill="#FFFFFF" d="M13.5,8.5c0.1,0,0.3-0.1,0.4-0.1C13.8,8.4,13.6,8.5,13.5,8.5z"/>
	<path fill="#FFFFFF" d="M22.9,12.1c0.1,0.1,0.1,0.2,0.2,0.4C23,12.4,22.9,12.2,22.9,12.1z"/>
	<path fill="#FFFFFF" d="M8.9,12.5c0.1-0.2,0.2-0.4,0.3-0.6C9.1,12.1,9,12.3,8.9,12.5z"/>
	<path fill="#FFFFFF" d="M8.4,13.8c0-0.2,0.1-0.3,0.2-0.5C8.5,13.5,8.5,13.6,8.4,13.8z"/>
	<path fill="#FFFFFF" d="M21,9.9c-0.5-0.4-1-0.7-1.6-1C20,9.1,20.5,9.5,21,9.9L21,9.9z"/>
	<path fill="#FFFFFF" d="M8.1,15.2c0-0.1,0-0.2,0-0.3C8.2,15,8.1,15.1,8.1,15.2z"/>
	<polygon fill="#FFFFFF" points="8.1,16 8.1,16 8.1,16 	"/>
	<path fill="#FFFFFF" d="M23.8,15c0,0.1,0,0.2,0,0.3C23.9,15.2,23.8,15.1,23.8,15z"/>
	<path fill="#FFFFFF" d="M8.2,14.5c0-0.1,0.1-0.3,0.1-0.4C8.3,14.2,8.3,14.4,8.2,14.5z"/>
	<path fill="#FFFFFF" d="M17.5,8.2c0.1,0,0.2,0,0.3,0.1C17.7,8.3,17.6,8.3,17.5,8.2z"/>
	<path fill="#FFFFFF" d="M14.2,8.3c0.1,0,0.2-0.1,0.4-0.1C14.4,8.3,14.3,8.3,14.2,8.3z"/>
	<path fill="#FFFFFF" d="M18.8,8.6c0.1,0.1,0.3,0.1,0.4,0.2C19.1,8.7,19,8.7,18.8,8.6z"/>
	<path fill="#FFFFFF" d="M19.9,22.8c-0.1,0.1-0.3,0.2-0.5,0.2C19.6,23,19.8,22.9,19.9,22.8z"/>
	<polygon fill="#FFFFFF" points="23.9,16 23.9,16 23.9,16 	"/>
	<path fill="#FFFFFF" d="M18.2,8.4c0.1,0,0.3,0.1,0.4,0.1C18.4,8.5,18.3,8.4,18.2,8.4z"/>
	<path fill="#FFFFFF" d="M16.7,8.1c0.1,0,0.2,0,0.3,0C16.9,8.2,16.8,8.1,16.7,8.1z"/>
	<path fill="#FFFFFF" d="M23.9,16.7c0,0.1,0,0.2,0,0.3C23.8,16.9,23.9,16.8,23.9,16.7z"/>
	<path fill="#FFFFFF" d="M23.8,17.5c0,0.1-0.1,0.2-0.1,0.4C23.7,17.7,23.7,17.6,23.8,17.5z"/>
	<path fill="#FFFFFF" d="M22.5,11.5c0.1,0.1,0.2,0.3,0.2,0.4C22.7,11.8,22.6,11.6,22.5,11.5z"/>
	<path fill="#FFFFFF" d="M15,8.2c0.1,0,0.2,0,0.3,0C15.2,8.1,15.1,8.2,15,8.2z"/>
	<path fill="#FFFFFF" d="M23.2,12.8c0.1,0.1,0.1,0.2,0.1,0.3C23.3,13,23.3,12.9,23.2,12.8z"/>
	<path fill="#FFFFFF" d="M14.5,23.8c-0.1,0-0.2-0.1-0.4-0.1C14.3,23.7,14.4,23.7,14.5,23.8z"/>
	<path fill="#FFFFFF" d="M17.1,23.8c-0.1,0-0.2,0-0.3,0C16.9,23.9,17,23.8,17.1,23.8z"/>
	<path fill="#FFFFFF" d="M20,22.8c0.4-0.2,0.7-0.5,1-0.7l0,0C20.8,22.3,20.4,22.6,20,22.8z"/>
	<path fill="#FFFFFF" d="M15.3,23.9c-0.1,0-0.2,0-0.3,0C15.1,23.8,15.2,23.9,15.3,23.9z"/>
	<path fill="#FFFFFF" d="M16,23.9C16,23.9,16,23.9,16,23.9C16,23.9,16,23.9,16,23.9C16,23.9,16,23.9,16,23.9
		C16,23.9,16,23.9,16,23.9z"/>
	<path fill="#FFFFFF" d="M17.9,23.7c-0.1,0-0.2,0.1-0.4,0.1C17.6,23.7,17.7,23.7,17.9,23.7z"/>
	<path fill="#FFFFFF" d="M23.5,13.5c0,0.1,0.1,0.2,0.1,0.3C23.5,13.7,23.5,13.6,23.5,13.5z"/>
	<path fill="#FFFFFF" d="M19.3,23.2c-0.1,0.1-0.3,0.1-0.4,0.2C19,23.3,19.1,23.2,19.3,23.2z"/>
	<path fill="#FFFFFF" d="M23.7,14.2c0,0.1,0,0.2,0.1,0.3C23.7,14.4,23.7,14.3,23.7,14.2z"/>
	<path fill="#FFFFFF" d="M19.6,18.4l1.9,1.9c0.9-1.2,1.5-2.7,1.5-4.3c0-1.7-0.6-3.2-1.6-4.4l-1.8,1.8h1.8V15h-4.5v-4.5h1.6v1.8
		l1.8-1.8C19.1,9.5,17.6,9,16,9c-1.6,0-3,0.5-4.2,1.4l1.9,1.9v-1.8h1.6V15h-4.5v-1.6h1.8l-2-2C9.6,12.7,9,14.3,9,16
		c0,1.7,0.6,3.2,1.6,4.4l2.1-2.1h-1.8v-1.6h4.5v4.5h-1.6v-1.8l-2.1,2.1c1.2,0.9,2.7,1.5,4.3,1.5c1.7,0,3.2-0.6,4.5-1.6l-1.9-1.9v1.8
		h-1.6v-4.5h4.5v1.6H19.6z"/>
	<path fill="#FFFFFF" d="M22.2,20.9L22.2,20.9c0.4-0.5,0.7-1,1-1.6C22.9,19.9,22.6,20.4,22.2,20.9z"/>
	<path fill="#FFFFFF" d="M18.6,23.5c-0.1,0-0.3,0.1-0.4,0.1C18.3,23.5,18.5,23.5,18.6,23.5z"/>
	<path fill="#FFFFFF" d="M13.9,23.6c-0.1,0-0.3-0.1-0.4-0.1C13.6,23.5,13.7,23.6,13.9,23.6z"/>
	<path fill="#FFFFFF" d="M8.5,18.6c0-0.1-0.1-0.3-0.1-0.4C8.5,18.3,8.5,18.5,8.5,18.6z"/>
	<path fill="#FFFFFF" d="M9.2,20.1c0.2,0.4,0.4,0.7,0.7,1l0,0C9.7,20.7,9.4,20.4,9.2,20.1z"/>
	<path fill="#FFFFFF" d="M10,10.8c-0.3,0.3-0.6,0.7-0.8,1.1C9.5,11.5,9.7,11.2,10,10.8L10,10.8z"/>
	<path fill="#FFFFFF" d="M13.3,8.6c-0.8,0.3-1.5,0.7-2.1,1.2l0,0C11.8,9.2,12.6,8.9,13.3,8.6z"/>
	<path fill="#FFFFFF" d="M8.3,17.8c0-0.1-0.1-0.2-0.1-0.3C8.3,17.6,8.3,17.7,8.3,17.8z"/>
	<path fill="#FFFFFF" d="M9.1,19.9c-0.1-0.1-0.2-0.3-0.2-0.4C9,19.6,9.1,19.8,9.1,19.9z"/>
	<path fill="#FFFFFF" d="M13.2,23.4c-0.2-0.1-0.3-0.1-0.5-0.2C12.9,23.3,13.1,23.3,13.2,23.4z"/>
	<path fill="#FFFFFF" d="M8.8,19.3c-0.1-0.1-0.1-0.3-0.2-0.4C8.7,19,8.8,19.1,8.8,19.3z"/>
	<path fill="#FFFFFF" d="M11.1,22.2c0.5,0.4,1,0.7,1.6,1C12.1,22.9,11.6,22.6,11.1,22.2L11.1,22.2z"/>
	<path fill="#FFFFFF" d="M16,8.1C16,8.1,16,8.1,16,8.1C16,8.1,16,8.1,16,8.1C16,8.1,16,8.1,16,8.1C16,8.1,16,8.1,16,8.1z"/>
	<path fill="#3D6480" d="M23.2,19.3C23.2,19.3,23.2,19.3,23.2,19.3c0.1-0.2,0.2-0.4,0.2-0.5c0-0.1,0.1-0.1,0.1-0.2
		c0-0.1,0.1-0.3,0.1-0.4c0-0.1,0.1-0.2,0.1-0.3c0-0.1,0.1-0.2,0.1-0.4c0-0.1,0-0.3,0.1-0.4c0-0.1,0-0.2,0-0.3c0-0.2,0-0.5,0-0.7
		c0,0,0,0,0,0c0,0,0,0,0,0c0-0.3,0-0.5,0-0.8c0-0.1,0-0.2,0-0.3c0-0.2,0-0.3-0.1-0.5c0-0.1,0-0.2-0.1-0.3c0-0.1-0.1-0.3-0.1-0.4
		c0-0.1-0.1-0.2-0.1-0.3c0-0.1-0.1-0.2-0.1-0.3c0-0.1-0.1-0.2-0.1-0.3c0-0.1-0.1-0.2-0.1-0.3c-0.1-0.1-0.1-0.2-0.2-0.4
		c0-0.1-0.1-0.1-0.1-0.2c-0.1-0.1-0.2-0.3-0.2-0.4c0,0,0,0,0,0c-0.1-0.2-0.2-0.3-0.4-0.5l0,0l1.2-1.2l-1.1-1.1L21,9.9l0,0
		c-0.5-0.4-1-0.7-1.6-1c-0.1,0-0.1-0.1-0.2-0.1c-0.1-0.1-0.3-0.1-0.4-0.2c-0.1,0-0.2-0.1-0.3-0.1c-0.1,0-0.3-0.1-0.4-0.1
		c-0.1,0-0.2-0.1-0.3-0.1c-0.1,0-0.2-0.1-0.3-0.1c-0.1,0-0.3,0-0.4-0.1c-0.1,0-0.2,0-0.3,0c-0.2,0-0.5,0-0.7,0c0,0,0,0,0,0
		c0,0,0,0,0,0c-0.2,0-0.5,0-0.7,0c-0.1,0-0.2,0-0.3,0c-0.1,0-0.3,0-0.4,0.1c-0.1,0-0.3,0.1-0.4,0.1c-0.1,0-0.2,0-0.3,0.1
		c-0.1,0-0.3,0.1-0.4,0.1c0,0-0.1,0-0.1,0c-0.8,0.3-1.5,0.7-2.1,1.2l0,0l-1.1-1.1L9,9.8l1,1l0,0c-0.3,0.3-0.6,0.7-0.8,1.1
		c0,0,0,0,0,0c-0.1,0.2-0.2,0.4-0.3,0.6c0,0,0,0.1,0,0.1c-0.1,0.2-0.2,0.3-0.2,0.5c0,0.1,0,0.1-0.1,0.2c-0.1,0.2-0.1,0.3-0.2,0.5
		c0,0.1,0,0.2-0.1,0.3c0,0.1-0.1,0.3-0.1,0.4c0,0.1,0,0.3-0.1,0.4c0,0.1,0,0.2,0,0.3c0,0.3,0,0.5,0,0.8c0,0,0,0,0,0c0,0,0,0,0,0
		c0,0.3,0,0.5,0,0.8c0,0.1,0,0.2,0,0.3c0,0.2,0,0.3,0.1,0.5c0,0.1,0.1,0.2,0.1,0.3c0,0.1,0.1,0.2,0.1,0.4c0,0.1,0.1,0.3,0.1,0.4
		c0,0.1,0.1,0.2,0.1,0.3c0.1,0.1,0.1,0.3,0.2,0.4c0,0.1,0.1,0.1,0.1,0.2c0.1,0.1,0.1,0.3,0.2,0.4c0,0,0.1,0.1,0.1,0.1
		c0.2,0.4,0.4,0.7,0.7,1l0,0L9,22l1.1,1.1l1-1l0,0c0.5,0.4,1,0.7,1.6,1c0,0,0,0,0.1,0c0.2,0.1,0.3,0.1,0.5,0.2
		c0.1,0,0.1,0.1,0.2,0.1c0.1,0,0.3,0.1,0.4,0.1c0.1,0,0.2,0.1,0.3,0.1c0.1,0,0.2,0.1,0.4,0.1c0.1,0,0.3,0,0.4,0.1c0.1,0,0.2,0,0.3,0
		c0.2,0,0.5,0,0.7,0c0,0,0,0,0,0c0,0,0,0,0,0c0.2,0,0.5,0,0.7,0c0.1,0,0.2,0,0.3,0c0.1,0,0.3,0,0.4-0.1c0.1,0,0.2-0.1,0.4-0.1
		c0.1,0,0.2-0.1,0.3-0.1c0.1,0,0.3-0.1,0.4-0.1c0.1,0,0.2-0.1,0.3-0.1c0.1-0.1,0.3-0.1,0.4-0.2c0.1,0,0.1-0.1,0.2-0.1
		c0.2-0.1,0.3-0.2,0.5-0.2c0,0,0.1,0,0.1-0.1c0.4-0.2,0.7-0.5,1-0.7l0,0l1.1,1.1l1.1-1.1l-1.1-1.1l0,0
		C22.6,20.4,22.9,19.9,23.2,19.3z M16.9,16.8v4.5h1.6v-1.8l1.9,1.9c-1.2,1-2.8,1.6-4.5,1.6c-1.6,0-3.1-0.6-4.3-1.5l2.1-2.1v1.8h1.6
		v-4.5h-4.5v1.6h1.8l-2.1,2.1C9.6,19.2,9,17.7,9,16c0-1.7,0.6-3.3,1.7-4.5l2,2h-1.8V15h4.5v-4.5h-1.6v1.8l-1.9-1.9
		C13,9.5,14.4,9,16,9c1.6,0,3.1,0.6,4.3,1.5l-1.8,1.8v-1.8h-1.6V15h4.5v-1.6h-1.8l1.8-1.8c1,1.2,1.6,2.7,1.6,4.4
		c0,1.6-0.6,3.1-1.5,4.3l-1.9-1.9h1.8v-1.6H16.9z"/>
</g>
</svg>
