<?xml version="1.0" encoding="utf-8"?>
<!-- Generator: Adobe Illustrator 19.1.0, SVG Export Plug-In . SVG Version: 6.00 Build 0)  -->
<svg version="1.1" id="Layer_1" xmlns="http://www.w3.org/2000/svg" xmlns:xlink="http://www.w3.org/1999/xlink" x="0px" y="0px"
	 viewBox="-293 385 24 24" style="enable-background:new -293 385 24 24;" xml:space="preserve">
<style type="text/css">
	.st0{fill:#FFFFFF;}
	.st1{fill:#3D6480;}
	.st2{fill:#1CB24B;}
</style>
<g>
	<g>
		<polygon class="st0" points="-281.7,391.8 -281.7,388.8 -287.8,388.8 -287.8,401.8 -285.6,401.8 -285.6,394.9 -278.8,394.9 
			-278.8,391.8 		"/>
		<polygon class="st1" points="-287.8,401.8 -287.8,388.8 -281.7,388.8 -281.7,391.8 -278.8,391.8 -278.8,394.9 -277.3,394.9 
			-277.3,391.8 -278.8,390.3 -278.8,390.3 -280.2,390.3 -280.2,388.8 -280.2,388.8 -281.7,387.3 -289.3,387.3 -289.3,403.3 
			-285.6,403.3 -285.6,401.8 		"/>
		<polygon class="st0" points="-277.3,394.9 -278.8,394.9 -285.6,394.9 -285.6,401.8 -285.6,403.3 -285.6,403.6 -277.1,403.6 
			-277.1,394.9 		"/>
	</g>
	<g>
		<polygon class="st2" points="-274.2,402.7 -274.2,401.4 -277.9,401.4 -277.9,405.1 -276.6,405.1 -276.6,403.7 -273.6,406.7 
			-272.7,405.7 -275.7,402.7 		"/>
		<polygon class="st2" points="-279.2,405.1 -280.6,405.1 -280.6,403.7 -283.6,406.7 -284.5,405.7 -281.5,402.7 -282.9,402.7 
			-282.9,401.4 -279.2,401.4 		"/>
		<polygon class="st2" points="-277.9,399.9 -274.2,399.9 -274.2,398.6 -275.7,398.6 -272.7,395.6 -273.6,394.7 -276.6,397.7 
			-276.6,396.2 -277.9,396.2 		"/>
		<polygon class="st2" points="-282.9,399.9 -282.9,398.6 -281.5,398.6 -284.5,395.6 -283.6,394.7 -280.6,397.7 -280.6,396.2 
			-279.2,396.2 -279.2,399.9 		"/>
	</g>
</g>
</svg>
