<?xml version="1.0" encoding="utf-8"?>
<!-- Generator: Adobe Illustrator 18.0.0, SVG Export Plug-In . SVG Version: 6.00 Build 0)  -->
<!DOCTYPE svg PUBLIC "-//W3C//DTD SVG 1.1//EN" "http://www.w3.org/Graphics/SVG/1.1/DTD/svg11.dtd">
<svg version="1.1" id="Layer_1" xmlns="http://www.w3.org/2000/svg" xmlns:xlink="http://www.w3.org/1999/xlink" x="0px" y="0px"
	 viewBox="0 0 24 24" enable-background="new 0 0 24 24" xml:space="preserve">
<g id="Layer_2">
	<g id="Layer_2_1_">
		<rect x="2" y="2" fill="none" width="20" height="20"/>
	</g>
</g>
<g id="art">
	<g>
		<polygon fill="#FFFFFF" points="12.7,8.2 11.2,8.2 11.5,19.2 12.5,19.2 		"/>
		<polygon fill="#FFFFFF" points="9.6,8.2 8,8.2 8.7,19.2 9.8,19.2 		"/>
		<polygon fill="#FFFFFF" points="14.2,19.2 15.2,19.2 16.1,8.2 14.3,8.2 		"/>
		<polygon fill="#3D6480" points="17.8,3.9 13.3,3.9 13.3,3 10.7,3 10.7,3.9 6.2,3.9 6.2,5.7 17.8,5.7 		"/>
		<path fill="#3D6480" d="M5.1,6.4v1.8h1.2L7,21h10l0.8-12.9H19V6.3L5.1,6.4L5.1,6.4z M8,8.2h1.6l0.2,11H8.7L8,8.2z M11.2,8.2h1.6
			l-0.3,11h-1.2L11.2,8.2z M15.2,19.2h-1.2l0.2-11.1h1.5L15.2,19.2z"/>
	</g>
</g>
</svg>
