<?xml version="1.0" encoding="utf-8"?>
<!-- Generator: Adobe Illustrator 18.0.0, SVG Export Plug-In . SVG Version: 6.00 Build 0)  -->
<!DOCTYPE svg PUBLIC "-//W3C//DTD SVG 1.1//EN" "http://www.w3.org/Graphics/SVG/1.1/DTD/svg11.dtd">
<svg version="1.1" xmlns="http://www.w3.org/2000/svg" xmlns:xlink="http://www.w3.org/1999/xlink" x="0px" y="0px"
	 viewBox="0 0 16 16" enable-background="new 0 0 16 16" xml:space="preserve">
<g id="Layer_2">
	<g id="Layer_2_1_">
		<rect fill="none" width="16" height="16"/>
	</g>
</g>
<g id="art">
	<g>
		<polygon fill="#FFFFFF" points="8.6,4.6 7.3,4.6 7.5,14.4 8.5,14.4 		"/>
		<polygon fill="#FFFFFF" points="5.8,4.6 4.4,4.6 5,14.4 6,14.4 		"/>
		<polygon fill="#FFFFFF" points="9.9,14.4 10.9,14.4 11.6,4.6 10.1,4.6 		"/>
		<polygon fill="#3D6480" points="13.1,0.8 9.1,0.8 9.1,0 6.9,0 6.9,0.8 2.9,0.8 2.9,2.4 13.1,2.4 		"/>
		<path fill="#3D6480" d="M1.8,3v1.6h1L3.5,16h8.9l0.7-11.4h1.1V3H1.8z M4.4,4.6h1.4L6,14.4H5L4.4,4.6z M7.3,4.6h1.4l-0.2,9.8h-1
			L7.3,4.6z M10.9,14.4h-1l0.2-9.8h1.4L10.9,14.4z"/>
	</g>
</g>
</svg>
