<?xml version="1.0" encoding="utf-8"?>
<!-- Generator: Adobe Illustrator 19.1.0, SVG Export Plug-In . SVG Version: 6.00 Build 0)  -->
<svg version="1.1" id="Layer_1" xmlns="http://www.w3.org/2000/svg" xmlns:xlink="http://www.w3.org/1999/xlink" x="0px" y="0px"
	 viewBox="-284 376 42 42" style="enable-background:new -284 376 42 42;" xml:space="preserve">
<style type="text/css">
	.st0{fill:#1CB24B;}
</style>
<g>
	<polygon class="st0" points="-253.1,401.2 -253.1,399.5 -260.7,399.5 -260.7,407.1 -259,407.1 -259,402.4 -250.8,410.5 
		-249.6,409.3 -257.8,401.2 	"/>
	<polygon class="st0" points="-272.9,401.2 -268.2,401.2 -276.4,409.3 -275.2,410.5 -267,402.4 -267,407.1 -265.3,407.1 
		-265.3,399.5 -272.9,399.5 	"/>
	<polygon class="st0" points="-253.1,392.8 -257.8,392.8 -249.6,384.7 -250.8,383.5 -259,391.6 -259,386.9 -260.7,386.9 
		-260.7,394.5 -253.1,394.5 	"/>
	<polygon class="st0" points="-267,391.6 -275.2,383.5 -276.4,384.7 -268.2,392.8 -272.9,392.8 -272.9,394.5 -265.3,394.5 
		-265.3,386.9 -267,386.9 	"/>
</g>
</svg>
