<?xml version="1.0" encoding="utf-8"?>
<!-- Generator: Adobe Illustrator 18.0.0, SVG Export Plug-In . SVG Version: 6.00 Build 0)  -->
<!DOCTYPE svg PUBLIC "-//W3C//DTD SVG 1.1//EN" "http://www.w3.org/Graphics/SVG/1.1/DTD/svg11.dtd">
<svg version="1.1" id="Layer_1" xmlns="http://www.w3.org/2000/svg" xmlns:xlink="http://www.w3.org/1999/xlink" x="0px" y="0px"
	 viewBox="0 0 16 16" enable-background="new 0 0 16 16" xml:space="preserve">
<g id="Layer_2">
	<g id="Layer_2_1_">
		<rect fill="none" width="16" height="16"/>
	</g>
</g>
<g id="art">
	<g>
		<path fill="#FE9C04" d="M12.5,6V4.6C12.5,1.9,10.6,0,8,0S3.5,1.9,3.5,4.6V6H2v10h12V6H12.5z M12.3,14.3L12.3,14.3H3.7l0,0V7.7l0,0
			h8.6l0,0V14.3z M5.2,4.6c0-1.7,1.2-2.9,2.8-2.9s2.8,1.2,2.8,2.9V6H5.2V4.6z"/>
		<path fill="#FFFFFF" d="M3.7,7.7L3.7,7.7v6.6l0,0h8.6l0,0V7.7l0,0H3.7z M7.4,12L7.4,12v-2l0,0h1.2v2H7.4z"/>
		<polygon fill="#FE9C04" points="7.4,10 7.4,10 7.4,12 7.4,12 8.6,12 8.6,10 		"/>
	</g>
</g>
</svg>
