<?xml version="1.0" encoding="utf-8"?>
<!-- Generator: Adobe Illustrator 18.0.0, SVG Export Plug-In . SVG Version: 6.00 Build 0)  -->
<!DOCTYPE svg PUBLIC "-//W3C//DTD SVG 1.1//EN" "http://www.w3.org/Graphics/SVG/1.1/DTD/svg11.dtd">
<svg version="1.1" id="Layer_1" xmlns="http://www.w3.org/2000/svg" xmlns:xlink="http://www.w3.org/1999/xlink" x="0px" y="0px"
	 viewBox="0 0 13 13" enable-background="new 0 0 13 13" xml:space="preserve">
<g>
	<rect x="1.9" y="1.9" transform="matrix(0.7071 0.7071 -0.7071 0.7071 6.5 -2.6924)" fill="#3E6480" width="9.2" height="9.2"/>
	<path fill="#FFFFFF" d="M6.3,6.6V9c-0.5,0-0.9-0.2-1-0.6C5.1,8.3,5.1,8,5.1,7.6H4.3c0,0.5,0.1,0.9,0.3,1.2c0.3,0.6,0.9,0.9,1.8,0.9
		v0.9h0.4V9.7c0.5-0.1,1-0.2,1.2-0.4C8.5,9,8.7,8.5,8.7,7.7c0-0.5-0.2-1-0.6-1.2C7.9,6.2,7.4,6.1,6.7,5.9V3.7c0.4,0,0.7,0.2,0.9,0.5
		c0.1,0.2,0.2,0.4,0.2,0.6h0.8c0-0.5-0.2-0.9-0.5-1.2C7.8,3.2,7.3,3,6.7,3V2.4H6.3V3C5.7,3,5.2,3.2,4.9,3.6C4.6,3.9,4.4,4.3,4.4,4.8
		c0,0.5,0.2,0.9,0.5,1.2C5.2,6.3,5.6,6.5,6.3,6.6L6.3,6.6z"/>
	<path fill="#3E6480" d="M6.7,9.1V6.7C7.1,6.8,7.4,6.9,7.5,7c0.3,0.2,0.4,0.5,0.4,0.9c0,0.2-0.1,0.4-0.2,0.6C7.6,8.9,7.2,9,6.7,9.1
		L6.7,9.1z"/>
	<path fill="#3E6480" d="M6.3,3.7C5.9,3.7,5.6,3.8,5.4,4C5.3,4.3,5.2,4.5,5.2,4.7c0,0.3,0.1,0.5,0.3,0.7C5.7,5.6,6,5.7,6.3,5.8V3.7z
		"/>
	<path fill="#3E6480" d="M6.3,3.7"/>
</g>
</svg>
