<?xml version="1.0" encoding="UTF-8" standalone="no"?>
<svg
   width="16"
   height="16"
   viewBox="0 0 16 16"
   fill="none"
   version="1.1"
   id="svg1"
   sodipodi:docname="VFS_square.svg"
   inkscape:version="1.4.3 (0d15f75, 2025-12-25)"
   xmlns:inkscape="http://www.inkscape.org/namespaces/inkscape"
   xmlns:sodipodi="http://sodipodi.sourceforge.net/DTD/sodipodi-0.dtd"
   xmlns="http://www.w3.org/2000/svg"
   xmlns:svg="http://www.w3.org/2000/svg">
  <defs
     id="defs1" />
  <sodipodi:namedview
     id="namedview1"
     pagecolor="#ffffff"
     bordercolor="#000000"
     borderopacity="0.25"
     inkscape:showpageshadow="2"
     inkscape:pageopacity="0.0"
     inkscape:pagecheckerboard="0"
     inkscape:deskcolor="#d1d1d1"
     inkscape:zoom="11.313708"
     inkscape:cx="12.551145"
     inkscape:cy="12.462757"
     inkscape:window-width="1920"
     inkscape:window-height="1027"
     inkscape:window-x="0"
     inkscape:window-y="175"
     inkscape:window-maximized="1"
     inkscape:current-layer="svg1" />
  <path
     d="M 13,8.5454547 H 2.9999999 c -0.2652158,0 -0.5195679,0.1149387 -0.7071071,0.319523 C 2.1053568,9.0695625 2,9.3470373 2,9.6363639 v 3.2727271 c 0,0.28931 0.105357,0.566836 0.2928928,0.771404 C 2.480432,13.885063 2.7347841,14 2.9999999,14 H 13 c 0.2652,0 0.519601,-0.114935 0.707119,-0.319505 C 13.89464,13.475927 14,13.198401 14,12.909091 V 9.6363639 C 14,9.3470373 13.894634,9.0695625 13.707119,8.8649777 13.519601,8.660393 13.2652,8.5454547 13,8.5454547 Z m 0,4.3636363 H 2.9999999 V 9.6363639 H 13 Z M 13,2 H 2.9999999 C 2.7347841,2 2.480432,2.1149347 2.2928928,2.3195194 2.1053568,2.5241051 2,2.8015826 2,3.0909091 V 6.3636365 C 2,6.6529631 2.1053567,6.930438 2.2928928,7.1350228 2.480432,7.3396075 2.7347841,7.4545457 2.9999999,7.4545457 H 13 c 0.2652,0 0.519601,-0.1149386 0.707119,-0.3195229 C 13.89464,6.930438 14,6.6529631 14,6.3636365 V 3.0909091 C 14,2.8015826 13.894634,2.5241051 13.707119,2.3195194 13.519601,2.1149347 13.2652,2 13,2 Z m 0,4.3636365 H 2.9999999 V 3.0909091 H 13 Z M 12,4.7272728 c 0,0.1618212 -0.04401,0.3200117 -0.1264,0.45456 -0.0824,0.1345484 -0.199521,0.2394153 -0.33656,0.301344 C 11.4,5.5450968 11.2492,5.5613038 11.103679,5.5297368 10.95816,5.4981618 10.824559,5.4202357 10.71968,5.3058124 10.6148,5.1913892 10.54336,5.0456 10.5144,4.8868945 10.48544,4.7281803 10.50032,4.5636712 10.55712,4.4141644 10.61384,4.2646662 10.71,4.1368814 10.83336,4.0469819 c 0.12328,-0.089908 0.268319,-0.1378911 0.416639,-0.1378911 0.198881,0 0.389681,0.086199 0.530321,0.2396423 C 11.92096,4.3021672 12,4.5102778 12,4.7272728 Z m 0,6.5454552 c 0,0.161803 -0.04401,0.320029 -0.1264,0.454516 -0.0824,0.134575 -0.199521,0.239476 -0.33656,0.301353 -0.13704,0.06196 -0.28784,0.0782 -0.433361,0.0466 -0.145519,-0.03159 -0.27912,-0.109527 -0.383999,-0.223941 -0.10488,-0.114415 -0.17632,-0.260161 -0.20528,-0.41891 -0.02896,-0.158749 -0.01408,-0.323258 0.04272,-0.472756 0.05672,-0.149498 0.15288,-0.277265 0.27624,-0.367156 0.12328,-0.08991 0.268319,-0.137891 0.416639,-0.137891 0.198881,0 0.389681,0.0862 0.530321,0.239651 C 11.92096,10.847619 12,11.055765 12,11.272725 Z"
     fill="#7b7b7b"
     id="path1"
     style="stroke-width:0.835572" />
</svg>
