<?xml version="1.0" encoding="utf-8"?>
<!-- Generator: Adobe Illustrator 18.0.0, SVG Export Plug-In . SVG Version: 6.00 Build 0)  -->
<!DOCTYPE svg PUBLIC "-//W3C//DTD SVG 1.1//EN" "http://www.w3.org/Graphics/SVG/1.1/DTD/svg11.dtd">
<svg version="1.1" xmlns="http://www.w3.org/2000/svg" xmlns:xlink="http://www.w3.org/1999/xlink" x="0px" y="0px"
	 viewBox="0 0 16 16" enable-background="new 0 0 16 16" xml:space="preserve">
<g id="Layer_2">
	<g id="Layer_2_1_">
		<rect fill="none" width="16" height="16"/>
	</g>
</g>
<g id="art">
	<g>
		<polygon fill="none" points="10.4,7.2 10.4,4.1 5.6,4.1 5.6,7.2 2.9,7.2 2.9,11.9 5.2,11.9 5.2,8.8 10.8,8.8 10.8,11.9 13.2,11.9 
			13.2,7.2 11.8,7.2 		"/>
		<rect x="1.5" y="1.5" fill="#FFFFFF" width="2.5" height="4.1"/>
		<rect x="12" y="1.5" fill="#FFFFFF" width="2.5" height="4.1"/>
		<rect x="6.7" y="10.3" fill="#FFFFFF" width="2.5" height="4.1"/>
		<path fill="#3D6480" d="M16,0h-5.6v3H5.6V0H0v7.2h1.4h0.5V13h0.5h0.5h2.3v3h1.4h4.2v-3h2.4h0.5h0.5V7.2H16V0z M14.5,5.7H12V1.5
			h2.5V5.7z M1.5,1.5H4v4.1H1.5V1.5z M9.3,14.5H6.7v-4.1h2.5V14.5z M13.2,11.9h-2.4v-3H5.2v3H2.9V7.2h2.6v-3h4.9v3h1.4h1.4V11.9z"/>
	</g>
</g>
</svg>
