<?xml version="1.0" encoding="utf-8"?>
<!-- Generator: Adobe Illustrator 18.0.0, SVG Export Plug-In . SVG Version: 6.00 Build 0)  -->
<!DOCTYPE svg PUBLIC "-//W3C//DTD SVG 1.1//EN" "http://www.w3.org/Graphics/SVG/1.1/DTD/svg11.dtd">
<svg version="1.1" id="Layer_1" xmlns="http://www.w3.org/2000/svg" xmlns:xlink="http://www.w3.org/1999/xlink" x="0px" y="0px"
	 viewBox="0 0 42 42" enable-background="new 0 0 42 42" xml:space="preserve">
<g>
	<polygon fill="none" points="8,16.2 13.6,16.2 10.8,7.5 	"/>
	<path fill="none" d="M35.3,25.3v-1.8c0-1-0.6-1.5-1.8-1.5h-3.9v5.1h3.6C34.7,27.1,35.3,26.4,35.3,25.3z"/>
	<path fill="none" d="M33.5,28.9h-3.9v5.4h4.1c1.4,0,2.1-0.6,2.1-1.8v-1.6C35.8,29.5,35.1,28.9,33.5,28.9z"/>
	<path fill="#16B24B" d="M26.1,11.2l2,2v-1.5c0-1.9-1.5-3.5-3.5-3.5h-3.6V6.2h3.6c3,0,5.4,2.4,5.4,5.4v1.5l2-2l1.3,1.3L29,16.8
		l-4.2-4.2L26.1,11.2z"/>
	<path fill="#16B24B" d="M35.5,27.9c1.4-0.5,1.8-1.4,1.8-2.6v-1.8c0-2.1-1.2-3.2-3.7-3.2h-6V36h6.4c2.4,0,3.9-1.2,3.9-3.4v-1.9
		C37.8,29,36.9,28.1,35.5,27.9z M29.6,22h3.9c1.2,0,1.8,0.5,1.8,1.5v1.8c0,1.1-0.6,1.8-2.1,1.8h-3.6V22z M35.8,32.4
		c0,1.2-0.7,1.8-2.1,1.8h-4.1v-5.4h3.9c1.6,0,2.3,0.7,2.3,1.9V32.4z"/>
	<path fill="#3E6480" d="M15.4,21.7h2L12.2,6.1H9.5L4.2,21.7h2l1.3-3.8h6.7L15.4,21.7z M8,16.2l2.8-8.7l2.8,8.7H8z"/>
</g>
</svg>
