<?xml version="1.0" encoding="utf-8"?>
<!-- Generator: Adobe Illustrator 18.0.0, SVG Export Plug-In . SVG Version: 6.00 Build 0)  -->
<!DOCTYPE svg PUBLIC "-//W3C//DTD SVG 1.1//EN" "http://www.w3.org/Graphics/SVG/1.1/DTD/svg11.dtd">
<svg version="1.1" xmlns="http://www.w3.org/2000/svg" xmlns:xlink="http://www.w3.org/1999/xlink" x="0px" y="0px"
	 viewBox="0 0 16 16" enable-background="new 0 0 16 16" xml:space="preserve">
<g id="Layer_2">
	<g id="Layer_2_1_">
		<rect fill="none" width="16" height="16"/>
	</g>
</g>
<g id="art">
	<polygon fill="#FFFFFF" points="7.7,1.7 0.8,14 15.5,14.2 8.2,1.7 	"/>
	<g>
		<path fill="#3D6480" d="M8.7,10l0.3-4.7H7.1L7.4,10H8.7z M8.7,9.7"/>
		<path fill="#3D6480" d="M8,10.5c-0.7,0-1.2,0.5-1.2,1.2c0,0.7,0.5,1.2,1.2,1.2h0c0.7,0,1.2-0.5,1.2-1.2C9.2,11,8.7,10.5,8,10.5
			L8,10.5z M8,10.5"/>
		<path fill="#3D6480" stroke="#3D6380" stroke-width="0.75" stroke-miterlimit="10" d="M15.5,13.2L8.8,1.8C8.7,1.5,8.4,1.3,8,1.3
			c-0.3,0-0.7,0.2-0.8,0.5L0.5,13.2c-0.2,0.3-0.2,0.7,0,1c0.2,0.3,0.5,0.5,0.8,0.5h13.3c0.5,0,1-0.4,1-1
			C15.6,13.5,15.6,13.3,15.5,13.2L15.5,13.2z M14.6,14.1H1.4c-0.1,0-0.3-0.1-0.4-0.2c-0.1-0.1-0.1-0.3,0-0.4L7.7,2
			C7.7,1.9,7.9,1.8,8,1.8c0.1,0,0.3,0.1,0.4,0.2L15,13.5c0,0.1,0.1,0.1,0.1,0.2C15.1,14,14.9,14.1,14.6,14.1L14.6,14.1z M14.6,14.1"
			/>
		<rect x="0.4" y="1.3" fill="none" width="15.5" height="13.5"/>
	</g>
</g>
</svg>
