<?xml version="1.0" encoding="utf-8"?>
<!-- Generator: Adobe Illustrator 17.0.0, SVG Export Plug-In . SVG Version: 6.00 Build 0)  -->
<!DOCTYPE svg PUBLIC "-//W3C//DTD SVG 1.1//EN" "http://www.w3.org/Graphics/SVG/1.1/DTD/svg11.dtd">
<svg version="1.1" id="Layer_1" xmlns="http://www.w3.org/2000/svg" xmlns:xlink="http://www.w3.org/1999/xlink" x="0px" y="0px"
	 width="42px" height="42px" viewBox="0 0 42 42" enable-background="new 0 0 42 42" xml:space="preserve">
<g>
	<path fill="none" d="M31.043,32.048c-0.416,0.585-0.667,1.295-0.667,2.066c0,1.974,1.605,3.579,3.579,3.579
		c0.771,0,1.481-0.25,2.065-0.666L31.043,32.048z"/>
	<path fill="none" d="M33.956,30.534c-0.771,0-1.48,0.25-2.065,0.666l4.978,4.979c0.416-0.585,0.667-1.295,0.667-2.066
		C37.536,32.14,35.929,30.534,33.956,30.534z"/>
	<path fill="#3D6480" d="M34.927,21.466c-0.677-0.855-1.639-1.389-2.711-1.501c-1.065-0.111-2.109,0.206-2.94,0.896l-2.135,1.771
		v-8.309v-3.345c0-1.27-1.032-2.302-2.301-2.302h-1.188c-0.21,0-0.409,0.037-0.603,0.09V6.872c0-1.27-1.032-2.302-2.302-2.302
		h-1.188c-1.258,0-2.28,1.015-2.298,2.269c-0.194-0.053-0.395-0.091-0.606-0.091h-1.187c-1.27,0-2.302,1.032-2.302,2.302v2.027
		c-0.193-0.053-0.393-0.09-0.603-0.09h-1.188c-1.27,0-2.302,1.032-2.302,2.302v9.782h1.7v-9.782c0-0.332,0.271-0.603,0.603-0.603
		h1.188c0.332,0,0.603,0.271,0.603,0.603v6.472h1.699V9.05c0-0.332,0.271-0.603,0.603-0.603h1.187c0.332,0,0.603,0.271,0.603,0.603
		v0.532V19.76h1.699V9.582V9.05V6.872c0-0.332,0.271-0.603,0.603-0.603h1.188c0.332,0,0.603,0.271,0.603,0.603v3.782h0.033
		c-0.015,0.107-0.033,0.213-0.033,0.324v8.781h1.699v-8.781c0-0.332,0.271-0.603,0.603-0.603h1.188c0.331,0,0.602,0.271,0.602,0.603
		v3.345v9.234v2.693l4.92-4.082c0.475-0.395,1.064-0.575,1.677-0.514c0.613,0.064,1.165,0.372,1.538,0.831
		c0.002,0.02-0.015,0.092-0.09,0.153l-8.045,6.673v2.813h1.699v-2.014l7.432-6.163C35.344,23.308,35.504,22.193,34.927,21.466z"/>
	<path fill="#EC0800" d="M33.956,29.335c-2.635,0-4.778,2.144-4.778,4.778s2.144,4.778,4.778,4.778c2.636,0,4.779-2.144,4.779-4.778
		S36.591,29.335,33.956,29.335z M30.377,34.113c0-0.771,0.25-1.481,0.667-2.066l4.978,4.979c-0.585,0.416-1.295,0.666-2.065,0.666
		C31.982,37.692,30.377,36.087,30.377,34.113z M36.869,36.179L31.891,31.2c0.585-0.416,1.294-0.666,2.065-0.666
		c1.974,0,3.58,1.605,3.58,3.579C37.536,34.884,37.285,35.594,36.869,36.179z"/>
	<rect x="3.895" y="4.295" fill="#3D6480" width="1.7" height="5.522"/>
	<rect x="6.882" y="4.295" fill="#3D6480" width="1.7" height="5.522"/>
</g>
</svg>
