<?xml version="1.0" encoding="utf-8"?>
<!-- Generator: Adobe Illustrator 17.0.0, SVG Export Plug-In . SVG Version: 6.00 Build 0)  -->
<!DOCTYPE svg PUBLIC "-//W3C//DTD SVG 1.1//EN" "http://www.w3.org/Graphics/SVG/1.1/DTD/svg11.dtd">
<svg version="1.1" id="Layer_1" xmlns="http://www.w3.org/2000/svg" xmlns:xlink="http://www.w3.org/1999/xlink" x="0px" y="0px"
	 width="42px" height="42px" viewBox="0 0 42 42" enable-background="new 0 0 42 42" xml:space="preserve">
<g>
	<polygon fill="none" points="29.993,30.818 29.993,36.139 35.698,33.482 	"/>
	<path fill="#0CB20F" d="M28.144,27.912v11.129l11.931-5.557L28.144,27.912z M29.993,30.818l5.704,2.664l-5.704,2.656V30.818z"/>
	<path fill="#EFF9FE" d="M29.687,11.395h1.7v1.117h1.128c1.067,0,1.936-0.869,1.936-1.938c0-1.067-0.869-1.937-1.936-1.937H17.864
		c-2.408,0-3.734,1.326-3.734,3.734v15.252h6.162v1.699h-9.439c-1.067,0-1.936,0.869-1.936,1.937c0,1.068,0.869,1.938,1.936,1.938
		h11.644l7.191-7.191V11.395z M18.594,22.025l-1.368-2.135l-1.359,2.135h-1.034l1.86-2.911l-1.802-2.828h1.034l1.301,2.052
		l1.311-2.052h1.033l-1.811,2.828l1.869,2.911H18.594z M22.111,22.107c-0.541,0-1.193-0.101-1.681-0.298l-0.089-0.035l0.16-0.798
		l0.121,0.038c0.494,0.153,1.013,0.234,1.504,0.234c0.838,0,0.953-0.194,0.953-0.745c0-0.179,0-0.316-0.018-0.427
		c-0.016-0.099-0.045-0.159-0.094-0.208c-0.115-0.112-0.359-0.188-0.94-0.32c-1.38-0.308-1.579-0.607-1.579-1.808
		c0-1.037,0.464-1.537,1.877-1.537c0.488,0,1.068,0.066,1.518,0.186l0.096,0.024l-0.08,0.832l-0.127-0.029
		c-0.432-0.098-0.943-0.154-1.39-0.154c-0.861,0-0.952,0.151-0.952,0.704c0,0.183,0,0.322,0.016,0.432
		c0.016,0.1,0.042,0.157,0.088,0.203c0.107,0.109,0.338,0.18,0.901,0.32c1.506,0.374,1.626,0.629,1.626,1.766
		C24.021,21.512,23.687,22.107,22.111,22.107z M28.621,22.025H25.29v-5.739h0.941v4.872h2.39V22.025z"/>
	<path fill="#3D6480" d="M8.916,31.26c0-1.067,0.869-1.937,1.936-1.937h9.439v-1.699H14.13V12.372c0-2.408,1.326-3.734,3.734-3.734
		h14.652c1.067,0,1.936,0.869,1.936,1.937c0,1.068-0.869,1.938-1.936,1.938h-1.128v-1.117h-1.7v14.612l1.7-1.7V14.211h1.128
		c2.005,0,3.636-1.631,3.636-3.637c0-2.005-1.631-3.636-3.636-3.636H17.864c-3.352,0-5.434,2.082-5.434,5.434v15.252h-1.578
		c-2.005,0-3.636,1.631-3.636,3.636c0,2.006,1.631,3.637,3.636,3.637h9.945l1.699-1.699H10.852
		C9.784,33.197,8.916,32.328,8.916,31.26z"/>
	<polygon fill="#3D6480" points="19.57,16.286 18.536,16.286 17.226,18.338 15.925,16.286 14.891,16.286 16.693,19.114 
		14.832,22.025 15.867,22.025 17.226,19.891 18.594,22.025 19.628,22.025 17.759,19.114 	"/>
	<path fill="#3D6480" d="M22.395,18.722c-0.563-0.141-0.794-0.211-0.901-0.32c-0.046-0.046-0.072-0.104-0.088-0.203
		c-0.016-0.109-0.016-0.249-0.016-0.432c0-0.553,0.091-0.704,0.952-0.704c0.446,0,0.958,0.057,1.39,0.154l0.127,0.029l0.08-0.832
		l-0.096-0.024c-0.449-0.119-1.029-0.186-1.518-0.186c-1.413,0-1.877,0.5-1.877,1.537c0,1.2,0.199,1.5,1.579,1.808
		c0.581,0.132,0.825,0.208,0.94,0.32c0.049,0.049,0.078,0.109,0.094,0.208c0.018,0.11,0.018,0.248,0.018,0.427
		c0,0.551-0.115,0.745-0.953,0.745c-0.491,0-1.01-0.081-1.504-0.234l-0.121-0.038l-0.16,0.798l0.089,0.035
		c0.487,0.197,1.14,0.298,1.681,0.298c1.576,0,1.91-0.596,1.91-1.62C24.021,19.351,23.901,19.096,22.395,18.722z"/>
	<polygon fill="#3D6480" points="26.232,16.286 25.29,16.286 25.29,22.025 28.621,22.025 28.621,21.158 26.232,21.158 	"/>
</g>
</svg>
