<?xml version="1.0" encoding="utf-8"?>
<!-- Generator: Adobe Illustrator 17.0.0, SVG Export Plug-In . SVG Version: 6.00 Build 0)  -->
<!DOCTYPE svg PUBLIC "-//W3C//DTD SVG 1.1//EN" "http://www.w3.org/Graphics/SVG/1.1/DTD/svg11.dtd">
<svg version="1.1" id="Layer_1" xmlns="http://www.w3.org/2000/svg" xmlns:xlink="http://www.w3.org/1999/xlink" x="0px" y="0px"
	 width="42px" height="42px" viewBox="0 0 42 42" enable-background="new 0 0 42 42" xml:space="preserve">
<g>
	<path fill="#EFF9FE" d="M25.531,8.795h-9.908v1.491h-1.2V8.795h-2.271v24.411h17.634V13.053h-4.255V8.795z M14.422,12.711h1.2
		v2.349h-1.2V12.711z M14.422,17.485h1.2v2.349h-1.2V17.485z M14.422,22.245h1.2v2.349h-1.2V22.245z M16.932,30.725h-2.604v-5.539
		h2.604V30.725z M17.004,22.221h-1.2v-2.349h1.2V22.221z M17.004,17.447h-1.2v-2.35h1.2V17.447z M17.004,12.673h-1.2v-2.349h1.2
		V12.673z"/>
	<path fill="#EFF9FE" d="M15.069,30.21h1.122c0.182,0,0.328-0.146,0.328-0.327v-0.506c0-0.182-0.146-0.328-0.328-0.328h-1.122
		c-0.181,0-0.328,0.146-0.328,0.328v0.506C14.741,30.063,14.889,30.21,15.069,30.21z"/>
	<path fill="#3D6480" d="M29.778,11.353h-2.547V8.806l-1.71-1.71H10.452v27.81h21.034V13.061L29.778,11.353z M29.786,33.206H12.152
		V8.795h2.271v1.491h1.2V8.795h9.908v4.258h4.255V33.206z"/>
	<rect x="14.422" y="12.711" fill="#3D6480" width="1.2" height="2.349"/>
	<rect x="14.422" y="17.485" fill="#3D6480" width="1.2" height="2.349"/>
	<rect x="15.804" y="10.324" fill="#3D6480" width="1.2" height="2.349"/>
	<rect x="15.804" y="15.098" fill="#3D6480" width="1.2" height="2.35"/>
	<rect x="15.804" y="19.872" fill="#3D6480" width="1.2" height="2.349"/>
	<rect x="14.422" y="22.245" fill="#3D6480" width="1.2" height="2.349"/>
	<path fill="#3D6480" d="M14.328,30.725h2.604v-5.539h-2.604V30.725z M14.741,29.377c0-0.182,0.147-0.328,0.328-0.328h1.122
		c0.182,0,0.328,0.146,0.328,0.328v0.506c0,0.181-0.146,0.327-0.328,0.327h-1.122c-0.181,0-0.328-0.146-0.328-0.327V29.377z"/>
</g>
</svg>
