<?xml version="1.0" encoding="utf-8"?>
<!-- Generator: Adobe Illustrator 18.0.0, SVG Export Plug-In . SVG Version: 6.00 Build 0)  -->
<!DOCTYPE svg PUBLIC "-//W3C//DTD SVG 1.1//EN" "http://www.w3.org/Graphics/SVG/1.1/DTD/svg11.dtd">
<svg version="1.1" id="Layer_1" xmlns="http://www.w3.org/2000/svg" xmlns:xlink="http://www.w3.org/1999/xlink" x="0px" y="0px"
	 viewBox="0 0 42 42" enable-background="new 0 0 42 42" xml:space="preserve">
<g>
	<g>
		<path fill="#EFF9FE" d="M20.8,16.2c-1.4,0-2.5,1.1-2.5,2.5c0,1.4,1.1,2.5,2.5,2.5c1.4,0,2.5-1.1,2.5-2.5
			C23.3,17.3,22.2,16.2,20.8,16.2z M20.8,19.7c-0.6,0-1-0.4-1-1c0-0.6,0.4-1,1-1c0.6,0,1,0.4,1,1C21.8,19.3,21.4,19.7,20.8,19.7z"/>
		<path fill="#EFF9FE" d="M9.7,9.9v22.3h12.9l9.4-9.1V9.9H9.7z M25.1,21.6C25.1,21.6,25.1,21.6,25.1,21.6l-4.4,6.9L16,20.9h0.1
			c-0.3-0.7-0.5-1.4-0.5-2.2c0-2.9,2.3-5.2,5.2-5.2s5.2,2.3,5.2,5.2c0,0.8-0.2,1.5-0.5,2.2h0.1L25.1,21.6z"/>
		<polygon fill="#3D6480" points="9.7,32.2 9.7,9.9 32,9.9 32,23.1 33.7,21.4 33.7,8.2 8,8.2 8,33.9 20.8,33.9 22.6,32.2 		"/>
		<path fill="#3D6480" d="M26,18.7c0-2.9-2.3-5.2-5.2-5.2s-5.2,2.3-5.2,5.2c0,0.8,0.2,1.5,0.5,2.2H16l4.8,7.6l4.3-6.9c0,0,0,0,0,0
			l0.5-0.7h-0.1C25.8,20.2,26,19.5,26,18.7z M20.8,21.2c-1.4,0-2.5-1.1-2.5-2.5c0-1.4,1.1-2.5,2.5-2.5c1.4,0,2.5,1.1,2.5,2.5
			C23.3,20.1,22.2,21.2,20.8,21.2z"/>
		<circle fill="#3D6480" cx="20.8" cy="18.7" r="1"/>
	</g>
	<polygon fill="#3D6480" points="37.1,32.6 37.1,35.7 31.9,30.5 30.5,31.8 35.8,37.1 32.6,37.1 32.6,39 39,39 39,32.6 	"/>
</g>
</svg>
