<?xml version="1.0" encoding="utf-8"?>
<!-- Generator: Adobe Illustrator 17.0.0, SVG Export Plug-In . SVG Version: 6.00 Build 0)  -->
<!DOCTYPE svg PUBLIC "-//W3C//DTD SVG 1.1//EN" "http://www.w3.org/Graphics/SVG/1.1/DTD/svg11.dtd">
<svg version="1.1" id="Layer_1" xmlns="http://www.w3.org/2000/svg" xmlns:xlink="http://www.w3.org/1999/xlink" x="0px" y="0px"
	 width="42px" height="42px" viewBox="0 0 42 42" enable-background="new 0 0 42 42" xml:space="preserve">
<g>
	<path fill="none" d="M25.045,31.057h-1.699v-7.528h7.527v1.699h-4.627l5.37,5.371c2.303-2.544,3.719-5.905,3.719-9.598
		c0-3.693-1.416-7.054-3.718-9.598l-5.37,5.37h4.626v1.7h-7.527v-7.529h1.699v4.627l5.361-5.362C27.886,8.009,24.6,6.665,21,6.665
		c-3.6,0-6.886,1.344-9.406,3.544l5.361,5.361v-4.626h1.7v7.529h-7.528v-1.7h4.626l-5.37-5.37C8.081,13.946,6.665,17.307,6.665,21
		c0,3.693,1.416,7.054,3.719,9.598l5.37-5.371h-4.627v-1.699h7.528v7.528h-1.7V26.43l-5.361,5.361
		c2.521,2.2,5.806,3.544,9.406,3.544c3.6,0,6.886-1.344,9.406-3.544l-5.361-5.362V31.057z"/>
	<path fill="#3D6480" d="M36.136,21c0-3.914-1.506-7.474-3.953-10.164l2.17-2.17l-1.201-1.202l-2.18,2.18
		C28.305,7.299,24.821,5.865,21,5.865c-3.821,0-7.305,1.434-9.971,3.778l-2.179-2.18L7.647,8.666l2.171,2.171
		C7.371,13.526,5.865,17.086,5.865,21c0,3.914,1.506,7.474,3.953,10.164l-2.171,2.171l1.202,1.201l2.179-2.179
		c2.666,2.344,6.151,3.779,9.972,3.779c3.821,0,7.306-1.435,9.972-3.779l2.179,2.179l1.201-1.201l-2.17-2.171
		C34.629,28.475,36.136,24.914,36.136,21z M21,35.335c-3.6,0-6.886-1.344-9.406-3.544l5.361-5.361v4.627h1.7v-7.528h-7.528v1.699
		h4.627l-5.37,5.371C8.081,28.054,6.665,24.693,6.665,21c0-3.693,1.416-7.054,3.718-9.598l5.37,5.37h-4.626v1.7h7.528v-7.529h-1.7
		v4.626l-5.361-5.361c2.52-2.2,5.806-3.544,9.406-3.544c3.6,0,6.886,1.344,9.406,3.544l-5.361,5.362v-4.627h-1.699v7.529h7.527v-1.7
		h-4.626l5.37-5.37c2.302,2.544,3.718,5.905,3.718,9.598c0,3.694-1.416,7.054-3.719,9.598l-5.37-5.371h4.627v-1.699h-7.527v7.528
		h1.699v-4.628l5.361,5.362C27.886,33.991,24.6,35.335,21,35.335z"/>
</g>
</svg>
